<?xml version="1.0" encoding="utf-8"?>
<!-- Generator: Adobe Illustrator 24.0.1, SVG Export Plug-In . SVG Version: 6.00 Build 0)  -->
<svg version="1.1" id="Capa_1" xmlns="http://www.w3.org/2000/svg" xmlns:xlink="http://www.w3.org/1999/xlink" x="0px" y="0px"
	 viewBox="0 0 1119.2 191" style="enable-background:new 0 0 1119.2 191;" xml:space="preserve">
<style type="text/css">
	.st0{fill:#FFFFFF;}
	.st1{fill:#FFBF2A;}
</style>
<path class="st0" d="M289.9,125.6c-10.4,0-19.5-1.9-27.3-5.8c-7.7-3.8-13.7-9.1-17.9-15.8c-4.3-6.8-6.4-14.4-6.4-22.8
	c0-8.6,2.1-16.3,6.2-22.9c4.3-6.7,10-11.9,17.3-15.6c7.4-3.7,15.7-5.6,24.8-5.6c8.4,0,16.2,1.7,23.2,5c7.2,3.3,12.9,8.3,17.2,14.8
	c4.4,6.6,6.6,14.7,6.6,24.3c0,1.2-0.1,2.7-0.2,4.2c-0.1,1.5-0.2,2.8-0.3,4.1h-65.7v-17h47L301.1,77c0-3.3-0.6-6.1-1.9-8.4
	c-1.1-2.4-2.8-4.2-4.8-5.5c-2.1-1.4-4.6-2-7.5-2s-5.5,0.7-7.6,2c-2.1,1.2-3.7,3.1-4.8,5.5c-1.1,2.3-1.7,5.1-1.7,8.4v5.3
	c0,3.6,0.7,6.8,2.2,9.4c1.5,2.6,3.5,4.6,6.2,5.9c2.7,1.2,6,1.9,9.8,1.9c4,0,7.2-0.5,9.7-1.6c2.6-1,5.3-2.6,8.1-4.7l18.4,18.6
	c-4.2,4.5-9.3,7.9-15.4,10.3C305.7,124.4,298.4,125.6,289.9,125.6z M375.9,125.6c-7.4,0-14.2-1.8-20.6-5.3
	c-6.2-3.6-11.2-8.7-15-15.3c-3.7-6.7-5.6-14.6-5.6-23.7c0-9.2,1.9-17,5.6-23.6c3.7-6.7,8.7-11.8,15-15.3c6.3-3.5,13.2-5.3,20.6-5.3
	c7.5,0,13.6,1.6,18.4,4.8c4.8,3.1,8.3,8,10.6,14.5c2.3,6.4,3.4,14.7,3.4,24.8c0,10.2-1.1,18.6-3.3,25.1c-2.1,6.6-5.5,11.4-10.3,14.5
	C390.1,124,383.8,125.6,375.9,125.6z M384.3,98.1c2.6,0,4.9-0.6,7-1.9s3.7-3.1,5-5.6c1.2-2.6,1.9-5.7,1.9-9.4c0-3.7-0.6-6.8-1.9-9.2
	c-1.2-2.5-2.9-4.4-5-5.6s-4.4-1.9-7-1.9c-2.6,0-4.9,0.6-7,1.9c-2.1,1.2-3.7,3.1-5,5.6c-1.2,2.4-1.9,5.5-1.9,9.2
	c0,3.6,0.6,6.8,1.9,9.4c1.2,2.5,2.9,4.4,5,5.6C379.4,97.5,381.7,98.1,384.3,98.1z M399.3,124v-11.5l-0.2-31.2l-1.6-31.2V8.2h35.3
	V124H399.3z M477.8,125.6c-6.8,0-12.9-1.4-18.4-4.1c-5.4-2.8-9.7-7.1-12.8-12.9c-3.1-5.9-4.7-13.5-4.7-22.8V38.7h35.3v41
	c0,6,1,10.2,3,12.6s4.7,3.6,8.1,3.6c2.1,0,4-0.5,5.8-1.6c1.9-1.1,3.4-3,4.5-5.5c1.1-2.6,1.7-6,1.7-10.1V38.7h35.3V124H502V99.4
	l6.7,6.7c-3,6.7-7.3,11.6-12.9,14.8C490.2,124,484.2,125.6,477.8,125.6z M604.2,37.1c6.6,0,12.5,1.4,17.8,4.1
	c5.3,2.6,9.5,6.7,12.5,12.3c3.1,5.6,4.7,12.9,4.7,21.8V124h-35.3V81.4c0-5.3-0.9-9-2.8-11.2c-1.9-2.3-4.4-3.4-7.6-3.4
	c-2.4,0-4.6,0.6-6.7,1.7c-2,1-3.6,2.8-4.8,5.3c-1.1,2.5-1.7,5.9-1.7,10.1V124h-35.3V38.7h33.5v25l-6.7-7.2
	c3.3-6.4,7.8-11.3,13.4-14.5C590.9,38.7,597.2,37.1,604.2,37.1z M696.8,125.6c-10.4,0-19.5-1.9-27.3-5.8
	c-7.7-3.8-13.7-9.1-17.9-15.8c-4.3-6.8-6.4-14.4-6.4-22.8c0-8.6,2.1-16.3,6.2-22.9c4.3-6.7,10-11.9,17.3-15.6
	c7.4-3.7,15.7-5.6,24.8-5.6c8.4,0,16.2,1.7,23.2,5c7.2,3.3,12.9,8.3,17.2,14.8c4.4,6.6,6.6,14.7,6.6,24.3c0,1.2-0.1,2.7-0.2,4.2
	c-0.1,1.5-0.2,2.8-0.3,4.1h-65.7v-17h47L708.1,77c0-3.3-0.6-6.1-1.9-8.4c-1.1-2.4-2.8-4.2-4.8-5.5c-2.1-1.4-4.6-2-7.5-2
	s-5.5,0.7-7.6,2c-2.1,1.2-3.7,3.1-4.8,5.5c-1.1,2.3-1.7,5.1-1.7,8.4v5.3c0,3.6,0.7,6.8,2.2,9.4c1.5,2.6,3.5,4.6,6.2,5.9
	c2.7,1.2,6,1.9,9.8,1.9c4,0,7.2-0.5,9.7-1.6c2.6-1,5.3-2.6,8.1-4.7l18.4,18.6c-4.2,4.5-9.3,7.9-15.4,10.3
	C712.7,124.4,705.4,125.6,696.8,125.6z M778.8,125.6c-7.3,0-14.5-0.8-21.5-2.3s-12.8-3.6-17.2-6.1l9.7-23.2c4.1,2.4,8.7,4.3,14,5.6
	c5.4,1.4,10.7,2,15.8,2c4.3,0,7.1-0.4,8.6-1.1c1.6-0.7,2.3-1.7,2.3-3s-0.9-2.1-2.7-2.7c-1.8-0.6-4.1-1.1-7-1.4
	c-2.9-0.3-6.1-0.7-9.7-1.1c-3.4-0.5-6.9-1.2-10.5-2.2c-3.5-0.9-6.8-2.3-9.7-4.2c-2.9-1.9-5.3-4.4-7-7.5c-1.8-3.2-2.7-7.3-2.7-12.2
	c0-5.4,1.6-10.3,4.8-14.7c3.3-4.4,8.2-7.9,14.7-10.5c6.6-2.7,14.6-4.1,24.2-4.1c6.2,0,12.5,0.6,18.7,1.7c6.2,1.1,11.6,2.9,16.1,5.3
	l-9.7,23.2c-4.4-2.4-8.7-4-12.9-4.8c-4.2-0.9-8.1-1.4-11.7-1.4c-4.5,0-7.5,0.4-9.2,1.2c-1.6,0.8-2.3,1.8-2.3,2.8
	c0,1.2,0.9,2.2,2.7,2.8c1.8,0.6,4.1,1.1,7,1.4c2.9,0.3,6.1,0.7,9.5,1.2c3.5,0.4,7,1.1,10.5,2.2c3.5,0.9,6.8,2.3,9.7,4.2
	c2.9,1.9,5.3,4.4,7,7.6c1.8,3.1,2.7,7.1,2.7,12c0,5.1-1.6,9.9-4.8,14.4c-3.2,4.4-8.1,7.9-14.7,10.6
	C796.9,124.3,788.7,125.6,778.8,125.6z M868.6,125.6c-11.8,0-20.9-2.8-27.5-8.4c-6.6-5.7-9.8-14.5-9.8-26.2V19.5h35.3v71.1
	c0,2.6,0.7,4.6,2,6.1c1.5,1.5,3.2,2.2,5.3,2.2c3,0,5.7-0.8,8-2.3l8.4,24.5c-2.7,1.6-6,2.7-9.8,3.4
	C876.7,125.2,872.7,125.6,868.6,125.6z M819.6,69.1V43.3H884v25.7H819.6z M910.3,125.6c-5.8,0-10.7-1.9-14.7-5.6
	c-4-3.8-5.9-8.7-5.9-14.7c0-6,2-10.9,5.9-14.5c4-3.6,8.8-5.5,14.7-5.5c5.8,0,10.7,1.8,14.7,5.5c3.9,3.6,5.9,8.5,5.9,14.5
	c0,5.9-2,10.8-5.9,14.7C921,123.7,916.2,125.6,910.3,125.6z M981.4,125.6c-9.8,0-18.5-1.9-26.1-5.6s-13.6-8.9-17.9-15.6
	c-4.3-6.8-6.4-14.5-6.4-23.1s2.1-16.3,6.4-22.9c4.4-6.7,10.4-11.9,17.9-15.6c7.6-3.7,16.3-5.6,26.1-5.6c10.4,0,19.3,2.2,26.7,6.7
	c7.4,4.5,12.5,10.7,15.3,18.6l-27.3,13.4c-1.8-4-3.9-6.8-6.5-8.6c-2.5-1.8-5.3-2.7-8.3-2.7c-2.6,0-5,0.6-7.3,1.9
	c-2.2,1.2-4,3.1-5.3,5.6c-1.3,2.4-1.9,5.5-1.9,9.2s0.6,6.9,1.9,9.4c1.3,2.5,3.1,4.4,5.3,5.6c2.3,1.2,4.7,1.9,7.3,1.9
	c3,0,5.8-0.9,8.3-2.7c2.6-1.8,4.8-4.6,6.5-8.6l27.3,13.4c-2.8,7.9-7.9,14.1-15.3,18.6C1000.7,123.3,991.8,125.6,981.4,125.6z
	 M1069.6,125.6c-9.7,0-18.3-1.9-25.7-5.6c-7.4-3.8-13.2-9.1-17.5-15.8c-4.3-6.7-6.4-14.3-6.4-22.9s2.1-16.3,6.4-22.9
	c4.3-6.7,10.1-11.9,17.5-15.6c7.5-3.7,16.1-5.6,25.7-5.6c9.7,0,18.3,1.9,25.7,5.6c7.5,3.7,13.3,8.9,17.5,15.6
	c4.3,6.7,6.4,14.3,6.4,22.9s-2.1,16.3-6.4,22.9c-4.2,6.7-10,11.9-17.5,15.8C1087.9,123.7,1079.3,125.6,1069.6,125.6z M1069.6,98.1
	c2.6,0,4.9-0.6,7-1.9s3.8-3.1,5-5.6c1.2-2.6,1.9-5.7,1.9-9.4c0-3.7-0.6-6.8-1.9-9.2c-1.3-2.5-2.9-4.4-5-5.6s-4.4-1.9-7-1.9
	s-4.9,0.6-7,1.9c-2.1,1.2-3.7,3.1-5,5.6c-1.3,2.4-1.9,5.5-1.9,9.2c0,3.6,0.6,6.8,1.9,9.4c1.3,2.5,2.9,4.4,5,5.6
	C1064.7,97.5,1067,98.1,1069.6,98.1z"/>
<path class="st1" d="M191,9.2v110.1c0,3.1-1.2,6.2-3.5,8.4l-59.8,59.8c-7.5,7.5-20.2,2.2-20.2-8.4V95.3c0-6.5-5.3-11.8-11.8-11.8
	H11.9C1.3,83.5-4,70.7,3.5,63.2L63.3,3.5C65.5,1.2,68.5,0,71.6,0l110.8,0C187.5,0,191,2.6,191,9.2z"/>
</svg>
