<?xml version="1.0" encoding="utf-8"?>
<!-- Generator: Adobe Illustrator 24.0.1, SVG Export Plug-In . SVG Version: 6.00 Build 0)  -->
<svg version="1.1" id="Capa_1" xmlns="http://www.w3.org/2000/svg" xmlns:xlink="http://www.w3.org/1999/xlink" x="0px" y="0px"
	 viewBox="0 0 571.3 324.7" style="enable-background:new 0 0 571.3 324.7;" xml:space="preserve">
<style type="text/css">
	.st0{fill:#FFFFFF;}
	.st1{fill-rule:evenodd;clip-rule:evenodd;fill:#FFFFFF;}
</style>
<g>
	<path class="st0" d="M150.1,216.3c0-0.4,0.3-0.7,0.7-0.7h9c4.6,0,8.3,3.7,8.3,8.2c0,4.6-3.8,8.4-8.3,8.4H156v8.7
		c0,0.4-0.3,0.7-0.7,0.7h-4.4c-0.4,0-0.7-0.3-0.7-0.7V216.3z M159.5,226.7c1.6,0,2.9-1.3,2.9-2.9c0-1.6-1.3-2.8-2.9-2.8H156v5.7
		H159.5z"/>
	<path class="st0" d="M188.4,215.2c7.4,0,13.4,6,13.4,13.4c0,7.4-5.9,13.4-13.4,13.4c-7.4,0-13.4-5.9-13.4-13.4
		C175,221.2,180.9,215.2,188.4,215.2 M188.4,236c4.1,0,7.4-3.4,7.4-7.4c0-4.1-3.4-7.5-7.4-7.5c-4,0-7.4,3.4-7.4,7.5
		C181,232.7,184.3,236,188.4,236"/>
	<path class="st0" d="M210.3,216.2c0-0.4,0.3-0.7,0.7-0.7h4.4c0.4,0,0.7,0.3,0.7,0.7v19.9h8.9c0.4,0,0.7,0.3,0.7,0.7v4.1
		c0,0.4-0.3,0.7-0.7,0.7h-14c-0.4,0-0.7-0.3-0.7-0.7V216.2z"/>
	<path class="st0" d="M235.4,216.2c0-0.4,0.3-0.7,0.7-0.7h4.5c0.4,0,0.7,0.3,0.7,0.7v24.6c0,0.4-0.3,0.7-0.7,0.7h-4.5
		c-0.4,0-0.7-0.3-0.7-0.7V216.2z"/>
	<path class="st0" d="M257.2,221h-5.3c-0.4,0-0.7-0.3-0.7-0.7v-4.1c0-0.4,0.3-0.7,0.7-0.7h16.5c0.4,0,0.7,0.3,0.7,0.7v4.1
		c0,0.4-0.3,0.7-0.7,0.7h-5.3v19.9c0,0.4-0.3,0.7-0.7,0.7h-4.5c-0.4,0-0.7-0.3-0.7-0.7V221z"/>
	<path class="st0" d="M278.7,216.2c0-0.4,0.3-0.7,0.7-0.7h15.4c0.4,0,0.7,0.3,0.7,0.7v4.1c0,0.4-0.3,0.7-0.7,0.7h-10.3v4.6h8.5
		c0.4,0,0.7,0.3,0.7,0.7v4.1c0,0.4-0.3,0.7-0.7,0.7h-8.5v5h10.3c0.4,0,0.7,0.3,0.7,0.7v4.1c0,0.4-0.3,0.7-0.7,0.7h-15.4
		c-0.4,0-0.7-0.3-0.7-0.7V216.2z M283.7,212.9l-0.8-1.6c-0.1-0.3,0-0.6,0.2-0.7l6.3-3.9c0.2-0.1,0.8-0.2,1,0.1l1.3,2.2
		c0.3,0.6,0.1,0.9-0.2,1.1l-6.8,3C284.2,213.5,283.9,213.3,283.7,212.9"/>
	<path class="st0" d="M317.3,215.2c3.7,0,6.5,1.2,9,3.5c0.3,0.3,0.3,0.7,0,1l-2.9,3c-0.3,0.3-0.7,0.3-0.9,0c-1.4-1.2-3.2-1.9-5-1.9
		c-4.2,0-7.3,3.5-7.3,7.7c0,4.1,3.1,7.6,7.3,7.6c1.7,0,3.6-0.6,5-1.8c0.3-0.2,0.7-0.2,1,0l2.9,3.1c0.3,0.3,0.2,0.7,0,1
		c-2.5,2.5-5.7,3.6-9,3.6c-7.4,0-13.4-5.9-13.4-13.4C303.8,221.2,309.8,215.2,317.3,215.2"/>
	<path class="st0" d="M335.9,215.8c0-0.4,0.3-0.7,0.7-0.7h0.9l14.8,14.3h0v-13.2c0-0.4,0.3-0.7,0.7-0.7h4.5c0.4,0,0.7,0.3,0.7,0.7
		v25c0,0.4-0.3,0.7-0.7,0.7H357c-0.1,0-0.4-0.1-0.5-0.2L341.9,227h0v13.9c0,0.4-0.3,0.7-0.7,0.7h-4.4c-0.4,0-0.7-0.3-0.7-0.7
		L335.9,215.8z"/>
	<path class="st0" d="M369.9,216.2c0-0.4,0.3-0.7,0.7-0.7h4.5c0.4,0,0.7,0.3,0.7,0.7v24.6c0,0.4-0.3,0.7-0.7,0.7h-4.5
		c-0.4,0-0.7-0.3-0.7-0.7V216.2z"/>
	<path class="st0" d="M398.4,215.2c3.7,0,6.5,1.2,9,3.5c0.3,0.3,0.3,0.7,0,1l-2.9,3c-0.3,0.3-0.7,0.3-0.9,0c-1.4-1.2-3.2-1.9-5-1.9
		c-4.2,0-7.3,3.5-7.3,7.7c0,4.1,3.1,7.6,7.3,7.6c1.7,0,3.6-0.6,5-1.8c0.3-0.2,0.7-0.2,1,0l2.9,3.1c0.3,0.3,0.2,0.7,0,1
		c-2.5,2.5-5.7,3.6-9,3.6c-7.5,0-13.4-5.9-13.4-13.4C385,221.2,390.9,215.2,398.4,215.2"/>
	<path class="st0" d="M427.8,215.2c7.5,0,13.4,6,13.4,13.4c0,7.4-6,13.4-13.4,13.4c-7.4,0-13.4-5.9-13.4-13.4
		C414.5,221.2,420.4,215.2,427.8,215.2 M427.8,236c4.1,0,7.5-3.4,7.5-7.4c0-4.1-3.4-7.5-7.5-7.5c-4,0-7.4,3.4-7.4,7.5
		C420.4,232.7,423.8,236,427.8,236"/>
	<path class="st0" d="M161.6,258c3.1,0,6.6,1.3,9.1,3.5c0.3,0.3,0.4,0.7,0.1,1l-2.9,3.1c-0.3,0.3-0.7,0.3-1,0
		c-1.4-1.3-3.1-1.8-4.9-1.8c-4.1,0-7.3,3.4-7.3,7.5c0,4,3.3,7.4,7.4,7.4c1.1,0,2.2-0.2,3.3-0.6V276H163c-0.4,0-0.7-0.3-0.7-0.7v-3.7
		c0-0.4,0.3-0.7,0.7-0.7h7.5c0.4,0,0.7,0.3,0.7,0.7l0,10c0,0.2-0.2,0.5-0.3,0.6c0,0-3.8,2.4-9.2,2.4c-7.4,0-13.4-5.9-13.4-13.3
		C148.3,263.9,154.2,258,161.6,258"/>
	<path class="st0" d="M183.3,259c0-0.4,0.3-0.7,0.7-0.7h11.1c4.5,0,8.1,3.6,8.1,8c0,3.4-2.3,6.2-5.5,7.5l5.1,9.5
		c0.3,0.5,0,1.1-0.6,1.1h-5c-0.3,0-0.5-0.2-0.6-0.3l-5-9.9h-2.6v9.5c0,0.4-0.3,0.7-0.7,0.7H184c-0.4,0-0.7-0.3-0.7-0.7V259z
		 M194.6,269.4c1.5,0,2.8-1.4,2.8-3c0-1.6-1.3-2.8-2.8-2.8h-5.5v5.8H194.6z"/>
	<path class="st0" d="M210.7,283.4l11.7-25c0.1-0.2,0.4-0.4,0.6-0.4h0.4c0.3,0,0.5,0.2,0.6,0.4l11.6,25c0.2,0.5-0.1,1-0.6,1h-4.1
		c-0.7,0-1-0.2-1.3-0.9l-1.3-2.9h-10.1l-1.3,3c-0.2,0.4-0.6,0.9-1.3,0.9h-4.1C210.8,284.3,210.5,283.9,210.7,283.4 M226,275.4
		l-2.8-6.1h0l-2.8,6.1H226z"/>
	<path class="st0" d="M243.8,258.6c0-0.4,0.3-0.7,0.7-0.7h0.9l14.9,14.3h0V259c0-0.4,0.3-0.7,0.7-0.7h4.5c0.4,0,0.7,0.3,0.7,0.7v25
		c0,0.4-0.3,0.7-0.7,0.7h-0.6c-0.1,0-0.4-0.1-0.5-0.2l-14.7-14.8h0v13.9c0,0.4-0.3,0.7-0.7,0.7h-4.4c-0.4,0-0.7-0.3-0.7-0.7
		L243.8,258.6z"/>
	<path class="st0" d="M289.1,257.9c3.7,0,6.5,1.2,9,3.5c0.3,0.3,0.3,0.7,0,1l-2.9,3c-0.3,0.3-0.7,0.3-0.9,0c-1.4-1.2-3.2-1.9-5-1.9
		c-4.2,0-7.3,3.5-7.3,7.7c0,4.1,3.1,7.6,7.3,7.6c1.8,0,3.6-0.6,5-1.8c0.3-0.2,0.7-0.2,1,0l2.9,3.1c0.3,0.3,0.2,0.8,0,1
		c-2.5,2.5-5.7,3.6-9,3.6c-7.4,0-13.4-5.9-13.4-13.4C275.7,263.9,281.7,257.9,289.1,257.9"/>
	<path class="st0" d="M318.8,257.9c7.5,0,13.4,6,13.4,13.4c0,7.4-5.9,13.4-13.4,13.4c-7.4,0-13.4-5.9-13.4-13.4
		C305.5,263.9,311.4,257.9,318.8,257.9 M318.8,278.8c4.1,0,7.5-3.4,7.5-7.4c0-4.1-3.4-7.5-7.5-7.5c-4.1,0-7.4,3.4-7.4,7.5
		C311.4,275.4,314.8,278.8,318.8,278.8"/>
	<path class="st0" d="M341.1,259c0-0.4,0.3-0.7,0.7-0.7h4.4c0.4,0,0.7,0.3,0.7,0.7v19.9h8.9c0.4,0,0.7,0.3,0.7,0.7v4.1
		c0,0.4-0.3,0.7-0.7,0.7h-14c-0.4,0-0.7-0.3-0.7-0.7V259z"/>
	<path class="st0" d="M376.2,257.9c7.4,0,13.4,6,13.4,13.4c0,7.4-6,13.4-13.4,13.4c-7.4,0-13.4-5.9-13.4-13.4
		C362.9,263.9,368.8,257.9,376.2,257.9 M376.2,278.8c4.1,0,7.4-3.4,7.4-7.4c0-4.1-3.3-7.5-7.4-7.5c-4.1,0-7.4,3.4-7.4,7.5
		C368.8,275.4,372.2,278.8,376.2,278.8"/>
	<path class="st0" d="M401.4,258.5c0-0.3,0.4-0.6,0.7-0.6h0.6c0.2,0,0.5,0.1,0.6,0.4l8.6,16.1h0.1l8.6-16.1c0.1-0.2,0.4-0.4,0.6-0.4
		h0.6c0.3,0,0.6,0.3,0.7,0.6l4.2,25c0.1,0.5-0.3,0.8-0.7,0.8h-4.4c-0.3,0-0.7-0.3-0.7-0.6l-1.7-11.5h-0.1l-6.2,12.1
		c-0.1,0.2-0.4,0.4-0.6,0.4h-0.7c-0.2,0-0.5-0.2-0.6-0.4l-6.3-12.1h-0.1l-1.6,11.5c0,0.3-0.3,0.6-0.7,0.6h-4.4
		c-0.4,0-0.8-0.3-0.7-0.8L401.4,258.5z"/>
	<path class="st0" d="M438.1,259c0-0.4,0.3-0.7,0.7-0.7h8.7c4.4,0,8,3,8,6.9c0,2.9-2.6,5-4.3,5.9c2,0.8,5,2.6,5,6.1
		c0,4.2-3.7,7.2-8.1,7.2h-9.2c-0.4,0-0.7-0.3-0.7-0.7V259z M446.8,268.9c1.4,0,2.6-1.2,2.6-2.7c0-1.5-1.2-2.5-2.6-2.5h-2.9v5.2
		H446.8z M447.3,279c1.4,0,2.7-1.2,2.7-2.7c0-1.5-1.6-2.6-3.1-2.6h-3v5.3H447.3z"/>
	<path class="st0" d="M466.1,259c0-0.4,0.3-0.7,0.7-0.7h4.5c0.4,0,0.7,0.3,0.7,0.7v24.6c0,0.4-0.3,0.7-0.7,0.7h-4.5
		c-0.4,0-0.7-0.3-0.7-0.7V259z"/>
	<path class="st0" d="M480.2,283.4l11.7-25c0.1-0.2,0.4-0.4,0.6-0.4h0.4c0.3,0,0.5,0.2,0.6,0.4l11.7,25c0.2,0.5-0.1,1-0.6,1h-4.1
		c-0.7,0-1-0.2-1.3-0.9l-1.3-2.9h-10.1l-1.3,3c-0.2,0.4-0.6,0.9-1.3,0.9h-4.1C480.3,284.3,480,283.9,480.2,283.4 M495.5,275.4
		l-2.8-6.1h0l-2.8,6.1H495.5z"/>
	<path class="st0" d="M513.3,258.6c0-0.4,0.3-0.7,0.7-0.7h0.9l14.8,14.3h0V259c0-0.4,0.3-0.7,0.7-0.7h4.5c0.4,0,0.7,0.3,0.7,0.7v25
		c0,0.4-0.3,0.7-0.7,0.7h-0.6c-0.1,0-0.4-0.1-0.5-0.2l-14.7-14.8h0v13.9c0,0.4-0.3,0.7-0.7,0.7h-4.4c-0.4,0-0.7-0.3-0.7-0.7
		L513.3,258.6z"/>
	<path class="st0" d="M557.5,257.9c7.4,0,13.4,6,13.4,13.4c0,7.4-6,13.4-13.4,13.4c-7.4,0-13.4-5.9-13.4-13.4
		C544.2,263.9,550.1,257.9,557.5,257.9 M557.5,278.8c4.1,0,7.4-3.4,7.4-7.4c0-4.1-3.3-7.5-7.4-7.5c-4.1,0-7.4,3.4-7.4,7.5
		C550.1,275.4,553.5,278.8,557.5,278.8"/>
	<path class="st1" d="M330,32.1c37.1-5.7,66.5,14.6,77.4,32.5c7.3,11.9,9.1,20.7,10,28.1c14.9,116.4-157.2,116.2-148.9,5.7
		c1.7-22,9-32.9,15.5-41.3C293.4,45.1,309.5,35.3,330,32.1 M301.7,124.7c3.2,9.7,13,21.7,23.2,25.9c26.6,11.1,51.6-4.4,59.1-24.1
		c13.4-35.2-11.6-71.1-45-67.3C309,62.6,290.9,92.3,301.7,124.7"/>
	<path class="st1" d="M569.5,179.1h-31.1v-146c9.9,0,31.2,0,31.2,16C569.6,61.2,569.5,179.1,569.5,179.1"/>
	<path class="st1" d="M509.2,152.1h-0.9c-0.1,0-0.2,0-0.3,0h-38.6l0-90.9v0V49.1c0-16-21.5-16-31.3-16v4v-2.5v144.5h85
		C523,170.6,523,152.1,509.2,152.1"/>
	<path class="st1" d="M249.6,62.2c-11.8-27.2-41.9-31.9-67.3-31.9c0,0-0.1,0-0.1,0v0c-9.9,0-32,3.1-32,3.1l0,145.7
		c9.9,0,32,0,32-16.1v-0.3c0,0,0,0,0,0v-23.2C235.5,147.5,268.6,106,249.6,62.2 M204.6,113.8c-11.9,1.3-22.5-0.3-22.5-0.3l0-54
		c0,0,9.6-0.6,22.1,0.2c12.5,0.8,21.2,12.9,21.2,27.6C225.3,102,216.5,112.5,204.6,113.8"/>
	<path class="st0" d="M108.3,16.5c-48.6,65.1-75.7,189.6-12.2,286c9.8,14.1,17.3,21.2,17.3,21.2C42.1,217.8,93.4,79.2,146.4,8.2
		L98.8,2.1c0,0-22.2-6.2-31.4,9.1L108.3,16.5z"/>
	<path class="st0" d="M109.1,323.7C26.3,234.4,35.7,92.9,85.6,26c0,0-37.2-4.4-44.5-5.2c-9.1-1-28.1-5-32.3,16.1
		C-32.9,243.2,109.1,323.7,109.1,323.7"/>
	<path class="st0" d="M150.3,306.7c0-0.3,0.2-0.5,0.5-0.5h1c0.3,0,0.5,0.2,0.5,0.5v16.6c0,0.3-0.2,0.5-0.5,0.5h-1
		c-0.3,0-0.5-0.2-0.5-0.5V306.7z"/>
	<path class="st0" d="M160.9,306.5c0-0.3,0.2-0.4,0.5-0.4h0.6l11.3,14.1h0.1v-13.3c0-0.3,0.2-0.5,0.5-0.5h0.9c0.3,0,0.5,0.2,0.5,0.5
		v16.8c0,0.3-0.2,0.4-0.5,0.4h-0.4l-11.5-14.3h0v13.6c0,0.2-0.2,0.5-0.5,0.5h-0.9c-0.3,0-0.5-0.2-0.5-0.5V306.5z"/>
	<path class="st0" d="M182.6,321.1c0.1-0.1,0.3-0.3,0.4-0.5c0.3-0.3,0.5-0.5,0.9-0.2c0.2,0.1,2,1.9,4.2,1.9c2,0,3.4-1.3,3.4-2.8
		c0-1.7-1.5-2.8-4.4-4c-2.8-1.2-4.4-2.3-4.4-5.2c0-1.7,1.4-4.5,5.3-4.5c2.5,0,4.3,1.3,4.3,1.3c0.1,0.1,0.4,0.4,0.1,0.9
		c-0.1,0.2-0.2,0.3-0.3,0.5c-0.2,0.4-0.5,0.5-0.9,0.2c-0.2-0.1-1.8-1.1-3.3-1.1c-2.7,0-3.5,1.7-3.5,2.8c0,1.7,1.3,2.7,3.4,3.5
		c3.4,1.4,5.6,2.7,5.6,5.6c0,2.6-2.5,4.5-5.4,4.5c-3,0-5-1.7-5.3-2C182.6,321.8,182.3,321.6,182.6,321.1"/>
	<path class="st0" d="M203.1,307.9h-4.4c-0.3,0-0.5-0.2-0.5-0.5v-0.7c0-0.3,0.2-0.5,0.5-0.5h10.6c0.3,0,0.5,0.2,0.5,0.5v0.7
		c0,0.2-0.2,0.5-0.5,0.5H205v15.4c0,0.2-0.2,0.5-0.5,0.5h-1c-0.3,0-0.5-0.2-0.5-0.5V307.9z"/>
	<path class="st0" d="M216,306.7c0-0.3,0.2-0.5,0.5-0.5h1c0.3,0,0.5,0.2,0.5,0.5v16.6c0,0.3-0.2,0.5-0.5,0.5h-1
		c-0.3,0-0.5-0.2-0.5-0.5V306.7z"/>
	<path class="st0" d="M229.1,307.9h-4.4c-0.3,0-0.5-0.2-0.5-0.5v-0.7c0-0.3,0.2-0.5,0.5-0.5h10.6c0.3,0,0.5,0.2,0.5,0.5v0.7
		c0,0.2-0.2,0.5-0.5,0.5H231v15.4c0,0.2-0.2,0.5-0.5,0.5h-1c-0.3,0-0.5-0.2-0.5-0.5V307.9z"/>
	<path class="st0" d="M241.8,306.7c0-0.3,0.2-0.5,0.5-0.5h1c0.3,0,0.5,0.2,0.5,0.5v10.4c0,2.9,1.8,5.1,4.7,5.1c3,0,4.8-2.2,4.8-5
		v-10.5c0-0.3,0.2-0.5,0.5-0.5h1c0.3,0,0.5,0.2,0.5,0.5v10.6c0,3.8-2.7,6.7-6.7,6.7c-3.9,0-6.6-2.9-6.6-6.7V306.7z"/>
	<path class="st0" d="M271.2,306c2.5,0,4.4,0.9,6.1,2.3c0.2,0.2,0.2,0.5,0,0.7l-0.7,0.7c-0.2,0.3-0.4,0.2-0.7,0
		c-1.3-1.1-3.1-1.9-4.8-1.9c-4,0-7,3.3-7,7.2c0,3.9,3,7.2,7,7.2c2.2,0,3.5-0.9,4.8-1.9c0.3-0.2,0.5-0.2,0.6-0.1l0.8,0.7
		c0.2,0.1,0.1,0.5,0,0.7c-1.7,1.6-3.9,2.4-6.1,2.4c-5,0-9-4-9-9C262.2,310,266.2,306,271.2,306"/>
	<path class="st0" d="M284.7,306.7c0-0.3,0.2-0.5,0.5-0.5h1c0.3,0,0.5,0.2,0.5,0.5v16.6c0,0.3-0.2,0.5-0.5,0.5h-1
		c-0.3,0-0.5-0.2-0.5-0.5V306.7z"/>
	<path class="st0" d="M302.9,306c5,0,9,4,9,9c0,5-4,9-9,9c-5,0-9-4-9-9C294,310,297.9,306,302.9,306 M302.9,322.3
		c4,0,7.3-3.3,7.3-7.2c0-4-3.3-7.3-7.3-7.3c-4,0-7.2,3.3-7.2,7.3C295.7,319,299,322.3,302.9,322.3 M300.7,303.6
		c-0.1-0.2,0-0.4,0.1-0.5l3.8-2.1c0.2-0.1,0.5-0.1,0.7,0.1l0.4,0.9c0.1,0.2,0.1,0.5-0.1,0.5l-4,1.7c-0.3,0.1-0.5,0.1-0.6,0
		L300.7,303.6z"/>
	<path class="st0" d="M319.3,306.5c0-0.3,0.2-0.4,0.5-0.4h0.6l11.3,14.1h0.1v-13.3c0-0.3,0.2-0.5,0.5-0.5h0.9c0.3,0,0.5,0.2,0.5,0.5
		v16.8c0,0.3-0.2,0.4-0.5,0.4h-0.4l-11.5-14.3h0v13.6c0,0.2-0.2,0.5-0.5,0.5h-0.9c-0.3,0-0.5-0.2-0.5-0.5V306.5z"/>
	<path class="st0" d="M351,306.7c0-0.3,0.2-0.5,0.5-0.5h1c0.3,0,0.5,0.2,0.5,0.5v10.4c0,2.9,1.8,5.1,4.7,5.1c3,0,4.8-2.2,4.8-5
		v-10.5c0-0.3,0.2-0.5,0.5-0.5h1c0.3,0,0.5,0.2,0.5,0.5v10.6c0,3.8-2.7,6.7-6.7,6.7c-3.9,0-6.6-2.9-6.6-6.7V306.7z"/>
	<path class="st0" d="M372.6,306.5c0-0.3,0.2-0.4,0.5-0.4h0.6l11.3,14.1h0.1v-13.3c0-0.3,0.2-0.5,0.5-0.5h0.9c0.3,0,0.5,0.2,0.5,0.5
		v16.8c0,0.3-0.2,0.4-0.5,0.4h-0.5l-11.5-14.3h0v13.6c0,0.2-0.2,0.5-0.5,0.5h-0.9c-0.3,0-0.5-0.2-0.5-0.5V306.5z"/>
	<path class="st0" d="M395.5,306.7c0-0.3,0.2-0.5,0.5-0.5h1c0.3,0,0.5,0.2,0.5,0.5v16.6c0,0.3-0.2,0.5-0.5,0.5h-1
		c-0.3,0-0.5-0.2-0.5-0.5V306.7z"/>
	<path class="st0" d="M403.7,306.9c-0.2-0.3,0-0.6,0.4-0.6h1c0.2,0,0.4,0.1,0.4,0.3l6.2,14h0.1l6.2-14c0.1-0.1,0.2-0.3,0.4-0.3h1
		c0.4,0,0.6,0.3,0.4,0.6l-7.6,16.8c-0.1,0.2-0.2,0.3-0.4,0.3h-0.3c-0.2,0-0.3-0.1-0.4-0.3L403.7,306.9z"/>
	<path class="st0" d="M426.1,306.7c0-0.3,0.2-0.5,0.5-0.5h9.9c0.3,0,0.5,0.2,0.5,0.5v0.7c0,0.3-0.2,0.5-0.5,0.5h-8.4v6.1h7.2
		c0.3,0,0.5,0.2,0.5,0.5v0.7c0,0.3-0.2,0.5-0.5,0.5h-7.2v6.4h8.4c0.3,0,0.5,0.2,0.5,0.5v0.7c0,0.3-0.2,0.5-0.5,0.5h-9.9
		c-0.3,0-0.5-0.2-0.5-0.5V306.7z"/>
	<path class="st0" d="M444.5,306.7c0-0.2,0.2-0.5,0.5-0.5h6.5c3,0,5.5,2.4,5.5,5.3c0,2.3-1.5,4.2-3.7,5.1l3.4,6.4
		c0.2,0.3,0,0.7-0.4,0.7h-1.3c-0.2,0-0.3-0.1-0.4-0.2l-3.3-6.6h-4.8v6.4c0,0.3-0.2,0.5-0.5,0.5h-1c-0.3,0-0.5-0.2-0.5-0.5V306.7z
		 M451.3,315.3c1.9,0,3.6-1.6,3.6-3.7c0-1.9-1.7-3.5-3.6-3.5h-4.9v7.2H451.3z"/>
	<path class="st0" d="M463.4,321.1c0.1-0.1,0.3-0.3,0.4-0.5c0.3-0.3,0.5-0.5,0.9-0.2c0.2,0.1,2,1.9,4.2,1.9c2,0,3.4-1.3,3.4-2.8
		c0-1.7-1.5-2.8-4.4-4c-2.8-1.2-4.4-2.3-4.4-5.2c0-1.7,1.4-4.5,5.3-4.5c2.5,0,4.3,1.3,4.3,1.3c0.1,0.1,0.4,0.4,0.1,0.9
		c-0.1,0.2-0.2,0.3-0.3,0.5c-0.2,0.4-0.5,0.5-0.9,0.2c-0.2-0.1-1.8-1.1-3.3-1.1c-2.7,0-3.5,1.7-3.5,2.8c0,1.7,1.3,2.7,3.4,3.5
		c3.4,1.4,5.6,2.7,5.6,5.6c0,2.6-2.5,4.5-5.4,4.5c-3,0-5-1.7-5.3-2C463.3,321.8,463.1,321.6,463.4,321.1"/>
	<path class="st0" d="M481.3,306.7c0-0.3,0.2-0.5,0.5-0.5h1c0.3,0,0.5,0.2,0.5,0.5v16.6c0,0.3-0.2,0.5-0.5,0.5h-1
		c-0.3,0-0.5-0.2-0.5-0.5V306.7z"/>
	<path class="st0" d="M494.4,307.9H490c-0.3,0-0.5-0.2-0.5-0.5v-0.7c0-0.3,0.2-0.5,0.5-0.5h10.6c0.3,0,0.5,0.2,0.5,0.5v0.7
		c0,0.2-0.2,0.5-0.5,0.5h-4.4v15.4c0,0.2-0.2,0.5-0.5,0.5h-1c-0.3,0-0.5-0.2-0.5-0.5V307.9z"/>
	<path class="st0" d="M504,323.1l7.6-16.8c0.1-0.1,0.2-0.3,0.4-0.3h0.3c0.2,0,0.4,0.1,0.4,0.3l7.6,16.8c0.1,0.3,0,0.7-0.4,0.7h-1
		c-0.2,0-0.4-0.2-0.4-0.3l-1.8-4.1h-8.9l-1.8,4.1c0,0.1-0.2,0.3-0.4,0.3h-1C504,323.8,503.8,323.4,504,323.1 M515.9,317.8
		c-1.2-2.7-2.4-5.5-3.7-8.2H512l-3.7,8.2H515.9z"/>
	<path class="st0" d="M526.5,306.7c0-0.2,0.2-0.5,0.5-0.5h6.5c3,0,5.5,2.4,5.5,5.3c0,2.3-1.5,4.2-3.7,5.1l3.4,6.4
		c0.2,0.3,0,0.7-0.4,0.7h-1.3c-0.2,0-0.4-0.1-0.4-0.2l-3.3-6.6h-4.8v6.4c0,0.3-0.2,0.5-0.5,0.5h-1c-0.3,0-0.5-0.2-0.5-0.5V306.7z
		 M533.3,315.3c1.9,0,3.6-1.6,3.6-3.7c0-1.9-1.7-3.5-3.6-3.5h-4.9v7.2H533.3z"/>
	<path class="st0" d="M546.5,306.7c0-0.3,0.2-0.5,0.5-0.5h1c0.3,0,0.5,0.2,0.5,0.5v16.6c0,0.3-0.2,0.5-0.5,0.5h-1
		c-0.3,0-0.5-0.2-0.5-0.5V306.7z"/>
	<path class="st0" d="M554.7,323.1l7.6-16.8c0.1-0.1,0.2-0.3,0.4-0.3h0.3c0.2,0,0.4,0.1,0.4,0.3l7.6,16.8c0.1,0.3,0,0.7-0.4,0.7h-1
		c-0.2,0-0.4-0.2-0.4-0.3l-1.8-4.1h-8.9l-1.8,4.1c0,0.1-0.2,0.3-0.4,0.3h-1C554.7,323.8,554.5,323.4,554.7,323.1 M566.6,317.8
		c-1.2-2.7-2.4-5.5-3.7-8.2h-0.2l-3.7,8.2H566.6z"/>
</g>
</svg>
