<?xml version="1.0" encoding="utf-8"?>
<!-- Generator: Adobe Illustrator 18.1.1, SVG Export Plug-In . SVG Version: 6.00 Build 0)  -->
<svg version="1.1" xmlns="http://www.w3.org/2000/svg" xmlns:xlink="http://www.w3.org/1999/xlink" x="0px" y="0px"
	 viewBox="0 0 100 100" enable-background="new 0 0 100 100" xml:space="preserve">
<g id="Capa_1">
</g>
<g id="Capa_2">
	<g>
		<defs>
			<filter id="Adobe_OpacityMaskFilter" filterUnits="userSpaceOnUse" x="50.5" y="90.4" width="37.7" height="4.8">
				<feColorMatrix  type="matrix" values="1 0 0 0 0  0 1 0 0 0  0 0 1 0 0  0 0 0 1 0"/>
			</filter>
		</defs>
		<mask maskUnits="userSpaceOnUse" x="50.5" y="90.4" width="37.7" height="4.8" id="SVGID_1_">
			<g filter="url(#Adobe_OpacityMaskFilter)">
				<defs>
					<filter id="Adobe_OpacityMaskFilter_1_" filterUnits="userSpaceOnUse" x="49.3" y="89.9" width="40.1" height="6">
						<feFlood  style="flood-color:white;flood-opacity:1" result="back"/>
						<feBlend  in="SourceGraphic" in2="back" mode="normal"/>
					</filter>
				</defs>
				<mask maskUnits="userSpaceOnUse" x="49.3" y="89.9" width="40.1" height="6" id="SVGID_1_">
					<g filter="url(#Adobe_OpacityMaskFilter_1_)">
					</g>
				</mask>
				
					<radialGradient id="SVGID_2_" cx="-450.7262" cy="62494.9375" r="15.0595" gradientTransform="matrix(1.2017 0 0 0.1624 610.9928 -10056.3096)" gradientUnits="userSpaceOnUse">
					<stop  offset="0" style="stop-color:#FFFFFF"/>
					<stop  offset="7.362918e-002" style="stop-color:#E1E1E1"/>
					<stop  offset="0.2544" style="stop-color:#9E9E9E"/>
					<stop  offset="0.4259" style="stop-color:#666666"/>
					<stop  offset="0.5834" style="stop-color:#3A3A3A"/>
					<stop  offset="0.724" style="stop-color:#1B1B1B"/>
					<stop  offset="0.8425" style="stop-color:#080808"/>
					<stop  offset="0.9247" style="stop-color:#010101"/>
				</radialGradient>
				<path mask="url(#SVGID_1_)" fill="url(#SVGID_2_)" d="M89.4,92.9c0,1.7-9,3-20.1,3c-11.1,0-20.1-1.3-20.1-3c0-1.7,9-3,20.1-3
					C80.4,89.9,89.4,91.2,89.4,92.9z"/>
			</g>
		</mask>
		
			<radialGradient id="SVGID_3_" cx="-443.504" cy="62613.543" r="15.9103" gradientTransform="matrix(1.1502 0 0 0.1329 579.4735 -8228.4746)" gradientUnits="userSpaceOnUse">
			<stop  offset="0" style="stop-color:#010101"/>
			<stop  offset="0.9247" style="stop-color:#010101"/>
		</radialGradient>
		<path opacity="0.2" fill="url(#SVGID_3_)" d="M88.2,92.9c0,1.3-8.4,2.4-18.9,2.4c-10.4,0-18.9-1.1-18.9-2.4
			c0-1.3,8.5-2.4,18.9-2.4C79.8,90.4,88.2,91.5,88.2,92.9z"/>
		<defs>
			<filter id="Adobe_OpacityMaskFilter_2_" filterUnits="userSpaceOnUse" x="11.5" y="90.4" width="37.7" height="4.8">
				<feColorMatrix  type="matrix" values="1 0 0 0 0  0 1 0 0 0  0 0 1 0 0  0 0 0 1 0"/>
			</filter>
		</defs>
		<mask maskUnits="userSpaceOnUse" x="11.5" y="90.4" width="37.7" height="4.8" id="SVGID_4_">
			<g filter="url(#Adobe_OpacityMaskFilter_2_)">
				<defs>
					<filter id="Adobe_OpacityMaskFilter_3_" filterUnits="userSpaceOnUse" x="10.4" y="89.9" width="40.1" height="6">
						<feFlood  style="flood-color:white;flood-opacity:1" result="back"/>
						<feBlend  in="SourceGraphic" in2="back" mode="normal"/>
					</filter>
				</defs>
				<mask maskUnits="userSpaceOnUse" x="10.4" y="89.9" width="40.1" height="6" id="SVGID_4_">
					<g filter="url(#Adobe_OpacityMaskFilter_3_)">
					</g>
				</mask>
				
					<radialGradient id="SVGID_5_" cx="-483.1302" cy="62494.9375" r="15.0595" gradientTransform="matrix(1.2017 0 0 0.1624 610.9928 -10056.3096)" gradientUnits="userSpaceOnUse">
					<stop  offset="0" style="stop-color:#FFFFFF"/>
					<stop  offset="7.362918e-002" style="stop-color:#E1E1E1"/>
					<stop  offset="0.2544" style="stop-color:#9E9E9E"/>
					<stop  offset="0.4259" style="stop-color:#666666"/>
					<stop  offset="0.5834" style="stop-color:#3A3A3A"/>
					<stop  offset="0.724" style="stop-color:#1B1B1B"/>
					<stop  offset="0.8425" style="stop-color:#080808"/>
					<stop  offset="0.9247" style="stop-color:#010101"/>
				</radialGradient>
				<path mask="url(#SVGID_4_)" fill="url(#SVGID_5_)" d="M50.5,92.9c0,1.7-9,3-20.1,3s-20.1-1.3-20.1-3c0-1.7,9-3,20.1-3
					S50.5,91.2,50.5,92.9z"/>
			</g>
		</mask>
		
			<radialGradient id="SVGID_6_" cx="-477.359" cy="62613.543" r="15.9104" gradientTransform="matrix(1.1502 0 0 0.1329 579.4735 -8228.4746)" gradientUnits="userSpaceOnUse">
			<stop  offset="0" style="stop-color:#010101"/>
			<stop  offset="0.9247" style="stop-color:#010101"/>
		</radialGradient>
		<path opacity="0.2" fill="url(#SVGID_6_)" d="M49.3,92.9c0,1.3-8.4,2.4-18.9,2.4c-10.4,0-18.9-1.1-18.9-2.4
			c0-1.3,8.5-2.4,18.9-2.4C40.8,90.4,49.3,91.5,49.3,92.9z"/>
		<g>
			<path fill="#EBA87D" d="M42.2,67.9c0.2-1,1.5-1.5,2.1-1.8c0.8-0.4,1.1-1,1.8-1c0.5,0,1.1,0.2,1.6,0.1c1.1-0.2,1.4,0.8,1.8,1.3
				c0.8,1.2-0.3,2.4-1.4,2.4c-1,0-1.8,0-3,0.6C44.1,70.1,41.8,69.5,42.2,67.9z"/>
			<path fill="#F8B881" d="M59.4,49.3c-0.4,0.2-3.6,2.6-3.4,4.3c0.4,2.8,3.4,1,4.2,0.4c0.6-0.5,0.8-2.8,1-3.5
				C61.8,48.7,60.8,48.6,59.4,49.3z"/>
			<path fill="#1E1E29" d="M56.2,51.7c-5.9,3.2-11.1,2.7-17-1.6c-2.4-1.8-1.9,3.7-0.9,4.8c2.6,2.8,10,8.4,19.3,2L56.2,51.7z"/>
			<path fill="#E9E8E8" d="M23.1,49.9c-2.8,2.4-3.6,5.2,0.6,9.3c4.2,4.1,7.2,4.6,7.2,4.6S40.2,55,38.6,51
				C36.6,46.1,25.9,47.5,23.1,49.9z"/>
			<path fill="#E62A2A" d="M30.1,53.4c2.1-0.4,2.8,1.2,2.8,1.2L32,56.5l2.1,5.6l-2.6,5.7l-3.6-5.5l1.7-5.6L28,55.3
				C28,55.3,28.3,53.7,30.1,53.4z"/>
			<path fill="#0D0F12" d="M24.7,86.7c3.7-1,4.3,4.5,1.8,7c-2.5,2.6-6.1,1.7-5-2.2C22.1,89.5,22.7,87.3,24.7,86.7z"/>
			<path fill="#0D0F12" d="M36.1,86.7c-3.8-0.6-3.8,4.9-1.1,7.2c2.7,2.3,6.3,1,4.7-2.7C39,89.2,38.1,87,36.1,86.7z"/>
			<path fill="#252728" d="M39.2,91.1c-0.1-0.2-0.3-0.5-0.5-0.7C38.3,91,36.8,91,36.2,91c-0.7,0.1-1.7,0.2-0.8,1
				c0.7,0.7,1.9,1.1,2.8,1.1C39.3,93,39.6,92,39.2,91.1z"/>
			<path fill="#1D1D27" d="M22.1,67.6c-0.1,2.7-0.2,5.4-0.2,8c-0.1,4,0.5,9.2-0.8,13.1c0.6,0.3,1.2,0.5,1.8,0.8c2.3,0.8,4.6,0,7-0.4
				c-0.7-6.9,0.9-13.8,1-20.7C30.8,66.8,22.2,65.3,22.1,67.6z"/>
			<path fill="#1D1D27" d="M30.6,69.7c0.5,3.6,0.3,7.4,0.3,11.1c0,2.6-0.1,5.7-0.2,8.3c0.8,0.3,3.3,0.8,3.9,0.7
				c1.7,0,4.1-0.6,5.1-1.2c-0.8-2.7-1.4-7.4-1.7-11.4c-0.2-2.9,0.7-6.9-0.1-9.7C37.3,65.4,30,66.1,30.6,69.7z"/>
			<path fill="#121219" d="M21.8,74.8v2.8c0,0,3.4-0.5,8.2,0.7c0,0,0-0.6,0.1-0.8c0.1-0.3,0.7-0.4,0.7,0.1c0,0.5,0,0.7,0,0.7
				s2.5-2.1,7.1-0.8l0-2.8l-7.6-2.2L21.8,74.8z"/>
			<g>
				<path fill="#1E1E29" d="M40.7,61.6c0.7-3.8,2.7-7.3-0.3-10.5c-0.6-0.7-1.4-1.2-2.4-1.7c0.1,0.3,0.2,0.6,0.1,0.9
					c-0.6,6.2-7.1,12.5-7.1,12.5s-9.4-8.4-7.7-12.5c0.1-0.3,0.5-0.9,0.8-1.1c-1.8,1-3.2,2-3.8,4c-0.6,2.3,0.2,7.7,0.2,11.8
					c0,2.1-0.1,7.8-0.6,10c1.5,0.7,8,1.7,9.5,0.9c1.2-0.7,1.9-2.1,2-2.5c0,4,9.5,2.2,9.4,1.9C40.3,73.1,40,65.4,40.7,61.6z"/>
			</g>
			<path fill="#121219" d="M40.4,72.4c-11.3,0.4-17.9-5.6-18.9-7.2c-0.4-0.7-1.5-2-0.9-2.8c1.1-1.5,5.9,0.7,7.1,1.2
				c2.9,1.1,5.9,2.8,9,3.4c1.2,0.2,2.3,0.2,3.5,0.4C40.1,67.3,40.4,71.2,40.4,72.4z"/>
			<path fill="#121219" d="M31.2,64.4c0,0-0.7,1.8,0.2,4.8C31.4,69.2,31.3,66.8,31.2,64.4z"/>
			<circle fill="#121219" cx="30.4" cy="71" r="0.6"/>
			<circle fill="#121219" cx="29.9" cy="65.1" r="0.6"/>
			<path fill="#F8B881" d="M45.2,71.3c1.2,0.1,2.8-1.6,2.6-2.3c-0.9-1-1.8-1.5-2.3-2.4c0.1-0.7-0.9-1.4-1.4-1.6
				c-1-0.4-1.7,0.7-2.9,0.7c-1.2,0-1.6,3.7-0.8,3.5C42.1,69,42.9,71.1,45.2,71.3z"/>
			<path fill="#EBA87D" d="M42.3,70.4c-0.3-0.2,0-0.7,0.2-1c0.8-0.7,1.3-0.7,1.3,0.2c0.3-0.2,1.2-0.5,1.4,0.4c0.2,0.7,0,1.2-0.2,1.3
				C44.7,71.4,42.3,70.4,42.3,70.4z"/>
			<path fill="#FBCBA0" d="M42.8,69.4c0.7-0.6,1-0.2,0.8,0.4c1.1-0.6,1.6,0,1.6,1.1c0,0.7-0.6,0.6-1.9,0.1
				C42.3,70.7,41.9,70.2,42.8,69.4z"/>
			<path fill="#121219" d="M31.4,73.5l0.2-3.3c0,0-0.1,4,0.5,4.9C32,75.1,31.5,75,31.4,73.5z"/>
			<path fill="#EBA87D" d="M45.1,65.6c-0.8,0.4-1.5,0.7-1.9,0.8c-0.2,0.1-0.4,0.2-0.4,0.5c0,0.3,0.4,0.6,0.7,0.7
				c1.2,0.1,2.1-0.7,2.1-0.7c0.4,0.5,0.9,0.9,1,0.8c0.1-0.1,0.1-0.2,0.1-0.3c0-0.5-0.1-1.1-0.5-1.5c-0.2-0.1-0.4-0.2-0.6-0.3
				L45.1,65.6z"/>
			<path fill="#FBCBA0" d="M45.2,65.4c-1,0.8-1.9,1-1.9,1.2c-0.2,0.6,0.6,0.7,0.9,0.7c0.8-0.1,1.3-0.6,1.6-0.7
				c0.2-0.2,0.3,0.2,0.4,0.3c0.4,0.7,1,1.2,1.7,1c0.8-0.2,1-2.9-0.1-2.7C46.6,65.4,46,64.6,45.2,65.4z"/>
			<path fill="#313243" d="M41.2,65.2c-16,1.2-20.6-7.7-17.2-11.9l-0.1-4c-11.3,5.9-4.6,22.6,17.4,22.4L41.2,65.2z"/>
			<path fill="#252728" d="M22,91.5c0.1-0.3,0.2-0.5,0.4-0.7c0.5,0.5,1.9,0.3,2.6,0.3c0.7,0,1.7,0,0.9,0.9c-0.6,0.7-1.7,1.3-2.7,1.3
				C22.2,93.3,21.7,92.3,22,91.5z"/>
			<path fill="#121219" d="M37,48.8c0,0,3.9,2.5,5.6,5.3l-3.8,1.3c0,0,2.1,3,2.2,3.5c0.1,0.3-3.2,0.8-5.6,2.2
				c-2.2,1.3-4.2,2.8-4.2,2.8s-0.3-0.6,0-1.1C31.4,62.3,38.4,56.7,37,48.8z"/>
			<path fill="#313243" d="M36.8,48.5c0,0,3,1.4,5.3,4.8l-3.5,1.9c0,0,1.8,2.5,1.9,3c0.1,0.3-2.7,1.2-5.1,2.6
				c-2.2,1.3-4.1,3.1-4.1,3.1s-0.3-0.6-0.1-1.1C31.4,62.3,38.6,56,36.8,48.5z"/>
			<path opacity="0.5" fill="#121219" d="M24.1,49.2c0,0-3.7,2.6-4.8,5.1l3.6,1.3c0,0-1.3,4.2-0.8,4.3c0.6,0.1,2-0.2,5.6,1.7
				c2,1,3.5,2.4,3.5,2.4s0.2-0.7-0.2-1.2C30.8,62.2,24.1,57.5,24.1,49.2z"/>
			<path fill="#313243" d="M24.7,48.6c0,0-2.8,2-4.7,5.1l3.1,1.8c0,0-0.4,3.1-0.5,3.6c0,0.3,1.7,0.3,5.3,2.2c2,1,3.4,2.7,3.4,2.7
				s0.2-0.6-0.1-1.1C30.9,62.3,25.4,56.7,24.7,48.6z"/>
			<path opacity="0.2" fill="#A19E99" d="M33.8,56.9l-3.2-2.7l-3,2.8c0,0-2.6-1.6-3.6-4.8c-1-3.2,10.2-4.1,12.4-3
				C38.6,50.5,36.8,54.3,33.8,56.9z"/>
			<path fill="#F5F5F5" d="M30.7,54.3l3,1.9c0,0,5.3-3.5,3.1-7.8c-2-3.9-10.6-3.7-12.3,0.7c-1.5,3.8,3.1,7.3,3.1,7.3L30.7,54.3z"/>
			<path fill="#EF9E6D" d="M25.9,51.3c0.6,0.6,1.5,1.1,2.5,1.4c0.7,0.2,1.9,1,2.1,1c0.1,0,0.5-0.4,1.2-0.7c1-0.5,2.3-1.2,2.9-2.2
				c0.8-1.5,1.5-4.5,0-5.7c-1.5-1.2-4.5-1.4-6.3-1c-1.9,0.4-3.2,2.2-3.3,4.1C24.9,49.7,25.1,50.5,25.9,51.3z"/>
			<g>
				<g>
					<path fill="#4F2C1E" d="M43.8,27.9c0.2-4.8-0.4-6.6-0.2-8.5c0.8-8.3-6-14.2-17.7-13C5.4,8.3,9.5,36.7,15.3,35.4
						c4.3-1,8.5-2.3,12.8-3.5c4-1.1,8.4-0.4,12.5-0.2C43.8,31.8,43.7,30.5,43.8,27.9z"/>
					<path fill="#F8B881" d="M15.8,35C17,42.6,23,50.8,31.8,50c9-0.8,13.3-12.1,11.9-21.5c-1.5-10.2-6.5-18.5-17-16.3
						C19.2,13.9,14.2,24.9,15.8,35z"/>
					<path fill="#F8B881" d="M14,38.3c1,0.3,2,0.4,3,0.3c0,0,0-0.1,0.1-0.1c0.4-0.7-0.4-4.3-0.7-5c-0.6-1.9-1.6-3.2-3.3-2.6
						C9.4,31.9,11,37.3,14,38.3z"/>
					<path opacity="0.5" fill="#D99F7C" d="M42.9,24.2c-0.8-3-3.6-2-7.2-1.6c-5.7,0.7-12.2,1-16.6-0.8c0.1,2.9-2.1,4-3,6.8
						c-0.5,1.5-0.7-5.5-0.6-6.5c0.1-2.4,0.1-5.7,2-7.5c2.4-2.3,6.9-2.2,9.9-2.2c4.5,0,8.5,0.8,12.7,2.4
						C42.9,15.9,43.3,21.6,42.9,24.2z"/>
					<path opacity="0.35" fill="#B5441A" d="M15.4,37c1.3-0.9,0-3.7-1-4.2c-0.8-0.4-2.9,0.4-1.9,2c0.5-1.5,1.4-0.6,1.3,0.5
						C13.7,36,13,36,13.7,36.9C14.2,37.4,15,37.2,15.4,37z"/>
					<path fill="#4F2C1E" d="M41,20.4c-11.7,2.8-21.2,1.2-22.5,0.1c0.3,2.4-0.6,3.7-1.2,5.5c-1,3.2-0.4,6.6,1,7.8
						c-0.7,0.2-1.6,0.2-2,0c-0.5-0.7-1.5-2.7-1.6-4.3C14.5,27.6,8.5,11.9,23.3,7C34.2,3.4,42.3,11.7,47,7.7c0,2.6-0.1,6.1-1.8,7.9
						c1.2-0.2,1.9-0.3,2.9-0.4C47,17.1,44.8,19.5,41,20.4z"/>
					<path fill="#6A3B27" d="M46.4,8.7c0,0-2.5,9.3-15.6,9.8c-14.3,0.6-18.1-3.2-14-7.7C21,6.4,29.2,6.3,34.6,7.7
						C40,9,42.5,10.7,46.4,8.7z"/>
					<path fill="#4F2C1E" d="M16.9,27.7c0,1,0.4,4.7,1.4,6.1c-0.7,0.2-1.5,0.3-1.9,0.1c-1-0.6-1.2-3.1-2.5-3.2
						C12.7,30.7,16.2,29.2,16.9,27.7z"/>
				</g>
				<g>
					<path opacity="0.5" fill="#B5441A" d="M23.7,31.8c1-0.9-2.1-0.9-2.6-0.8c0.1,0.6,1.4,0.3,1.9,0.4c-0.4,0.4-1.4,0.4-1.9,0.7
						c-0.5,0.3-0.4,0.5,0.2,0.4C21.5,32.5,23.4,32,23.7,31.8z"/>
					<path opacity="0.5" fill="#B5441A" d="M40.3,30.8c-0.8-0.9,1.8-1,2.2-0.8c-0.1,0.6-1.2,0.3-1.6,0.4c0.3,0.4,1.2,0.4,1.5,0.6
						c0.4,0.3,0.3,0.5-0.1,0.4C42,31.4,40.5,31,40.3,30.8z"/>
					<g>
						<path fill="#131C22" d="M24.9,32.2c-0.6-0.3-1.3-0.3-1.9-0.1c-1.3-1.1-0.2-4.6,1.8-3.8C26.2,28.9,26.2,31.5,24.9,32.2z"/>
					</g>
					<path opacity="0.35" fill="#B54817" d="M34.8,33.6c0.4,0.4-0.3,1.7-2.1,1.9c-1.7,0.1-2.7-1.3-2.1-1.6c0.7-0.4,1.1,0,2-0.1
						C33.8,33.7,34.4,33.2,34.8,33.6z"/>
					<path fill="#FBCBA0" d="M34.9,33.8c0.3-0.2-0.4-1.3-0.9-2.4c-0.5-1-1-3.1-1.9-3c-0.8,0.1-0.9,2.4-1.2,3.5
						c-0.3,1.1-0.4,2.1,0,2.4C32,34.9,34.2,34.4,34.9,33.8z"/>
					<g>
						<path fill="#131C22" d="M40.3,27.8c1.1,0.5,1.1,2.3,0.4,3.2c-0.6,0-1.2,0.2-1.7,0.5C36.9,31,38.3,26.8,40.3,27.8z"/>
					</g>
					<path fill="#7E8CA9" d="M24.2,28.8c0.7-0.3,1.2,0.8,0.6,1.2C24,30.6,23.4,29.1,24.2,28.8z"/>
					<path fill="#7E8CA9" d="M39.9,28.4c0.7-0.2,1,0.8,0.5,1.2C39.6,30,39.1,28.6,39.9,28.4z"/>
					<path opacity="0.5" fill="#B5441A" d="M22,37.2c0.7-0.5,2.6-0.4,2.6-0.4c0.3,0.2-0.8,0.2-1.6,0.7c-0.1,0-0.1,0.1-0.1,0.1
						c5.3,1.7,13.9,1,17.8-0.3c-0.1-0.1-0.2-0.2-0.3-0.2c-0.8-0.2-1.5-0.3-1.1-0.4c0,0,2-0.4,2.4,0.3c0.4,0.7-0.2,1.5-0.7,1.5
						c-0.4,0-0.1-0.6-0.2-1c-1,0.8-2.7,2.4-2.8,3.7c-0.2,2.4-1.7,3.9-6.5,3.8c-6.4-0.1-8.3-5.7-8.7-7.1c-0.4,0.5-0.4,1.2-0.8,1.2
						C21.3,38.9,21.3,37.6,22,37.2z"/>
					<path fill="#4F2C1E" d="M42.1,27c0.5,0.2,0.7-0.5,0.5-0.7c-0.7-0.8-1.5-1.8-3.6-2c-1.4-0.1-2.5-0.4-2.5-0.3
						c-0.1,0.8,0.1,2.5,1.2,2.5c0.7,0,1.3-0.1,2-0.1C40.9,26.5,41.7,26.9,42.1,27z"/>
					<path fill="#4F2C1E" d="M21.5,27.9c-0.5,0.3-0.8-0.4-0.7-0.6c0.6-0.9,1.3-2,3.5-2.5c1.5-0.4,2.6-0.8,2.7-0.7
						c0.2,0.8,0.4,2.5-0.8,2.7c-0.7,0.1-1.5,0.1-2.2,0.2C22.7,27.2,21.9,27.7,21.5,27.9z"/>
					<path fill="#902824" d="M23.9,38.5c0,0,6.7,1.9,15.5-0.5c0,0-1.4,0.7-1.7,2.6c-0.2,1.4-0.8,3.4-6,3.6
						C25.9,44.3,23.9,38.5,23.9,38.5z"/>
					<path fill="#FFF9F1" d="M25.7,39.1c0,0,0.1,1.9,1.8,2.6c2.3,0.9,4.8,1,7.4,0.3c1.7-0.5,2.7-3.3,2.7-3.3S32.8,39.6,25.7,39.1z"
						/>
					<path fill="#FFF9F1" d="M26.4,41.9c-0.2-0.5-0.2-1,0.8-0.6c1.1,0.5,3.2,0.8,5.7,0.8c2.4,0,3-1,3.4-0.5c0.4,0.5-1.3,3-5.2,2.7
						C26.8,43.9,26.4,41.9,26.4,41.9z"/>
					<path fill="#FBCBA0" d="M42.6,33c0.1,0.1,0.3,0.3,0.3,0.5c0.9,2-3.9,2-4.6,1.2c-1.3-1.5,0.2-2.2,1.4-2.3
						C40.6,32.3,41.9,32.3,42.6,33z"/>
					<path fill="#FBCBA0" d="M25.2,33.5c0.1,0.1,0.3,0.3,0.4,0.5c1,2-4,2.3-4.8,1.4c-1.4-1.5,0.1-2.3,1.3-2.5
						C23.1,32.8,24.4,32.7,25.2,33.5z"/>
					<path fill="#E8DAC5" d="M25.9,39.9c0,0,9.2-0.9,11.3-0.2c0,0,0.4-0.6,0.5-1.1c0,0-6.5,0.9-11.9,0.4
						C25.7,39.1,25.8,39.7,25.9,39.9z"/>
					<path fill="#E8DAC5" d="M27.7,41.3c0,0,3.3,1.1,8.1,0.1C35.8,41.4,31.6,43.2,27.7,41.3z"/>
				</g>
			</g>
		</g>
		<g>
			<path fill="#FBCBA0" d="M79.9,52.7c0,0,6.1,5.6,6.2,10.6c0.1,6-6.6,7.7-6.6,7.7L78.2,68c7.1-3.5,1.2-9.6-1.5-12
				C74.8,54.1,79.9,52.7,79.9,52.7z"/>
			<path fill="#FBCBA0" d="M60.6,53.5C62,58.8,56,68.6,48.1,69c-0.3-1,0.6-1.7-0.4-3.8C57.9,62.6,57.8,53,58.8,51.8
				c1-1.2,2.1-2.1,2.1-2.1S60,51.5,60.6,53.5z"/>
			<path fill="#E9E8E8" d="M61.4,49.2l4.4,4.3c0,0-2.8,4.9-5.3,8.8c-2.5,0-6-1.5-7-3.4c3.2-2.7,3.6-6.4,5.5-8
				C60.4,49.9,61.4,49.2,61.4,49.2z"/>
			<path fill="#E9E8E8" d="M76.8,49.5c4.4,3.7-0.4,21.2-0.4,20.8l-14.4,0.1c-0.1-0.4-4.1-13.9-1.8-19.6
				C62.3,45.8,73.9,47.1,76.8,49.5z"/>
			<path fill="#3C9AD5" d="M69.5,53.2c-2.1-0.4-2.8,1.3-2.8,1.3l1.4,2.1L66,62.5l2.9,5.3l2.9-5.4l-1.7-5.7l1.6-1.6
				C71.7,55.2,71.4,53.5,69.5,53.2z"/>
			<path fill="#0D0F12" d="M75.1,86.6c-3.8-1.1-4.3,4.5-1.9,7.1c2.5,2.7,6.2,1.7,5.1-2.3C77.7,89.4,77.1,87.1,75.1,86.6z"/>
			<path fill="#0D0F12" d="M63.4,86.5c3.9-0.7,3.8,5,1.1,7.3c-2.8,2.4-6.4,1-4.8-2.8C60.5,89,61.4,86.8,63.4,86.5z"/>
			<path fill="#252728" d="M60.2,91c0.1-0.2,0.3-0.5,0.5-0.7c0.5,0.5,1.9,0.5,2.6,0.6c0.7,0.1,1.7,0.2,0.8,1
				c-0.7,0.7-1.9,1.2-2.9,1.1C60.2,92.9,59.8,91.9,60.2,91z"/>
			<path fill="#E9E8E8" d="M76.7,49.4c0,0,1.4,0.6,2.8,1.6c2.3,1.5,4.6,5.1,7.7,9.2c-1.2,1.4-5.5,2.8-7.5,2.5c-0.6-2.3-2.5-4-2.5-4
				L76.7,49.4z"/>
			<path fill="#252728" d="M77.8,91.4c-0.1-0.3-0.2-0.5-0.4-0.7c-0.5,0.5-2,0.3-2.6,0.3c-0.7,0-1.7,0-0.9,0.9
				c0.7,0.7,1.8,1.4,2.8,1.4C77.6,93.3,78.1,92.3,77.8,91.4z"/>
			<path opacity="0.2" fill="#A19E99" d="M61.9,51.4c0,0,0.9,2.7,3.9,5.4l3.2-2.7l3,2.9c0,0,2.7-1.6,3.7-4.8c1-3.2-8-2.9-10.3-1.8
				C63.2,51.5,61.9,51.4,61.9,51.4z"/>
			<path fill="#F5F5F5" d="M69,54.1L66,56c0,0-6-3.1-3.7-7.6c2-4,12.2-3.7,14,0.8c1.5,3.8-4,6.9-4,6.9L69,54.1z"/>
			<path fill="#F2B98E" d="M73.8,51.1c-0.6,0.6-1.6,1.2-2.6,1.5c-0.7,0.2-2,1.1-2.2,1.1c-0.1,0-0.5-0.4-1.2-0.7
				c-1-0.5-2.4-1.2-2.9-2.2c-0.8-1.6-1.5-4.6,0-5.8c1.6-1.3,4.6-1.5,6.4-1c1.9,0.4,3.2,2.3,3.4,4.2C74.8,49.5,74.6,50.3,73.8,51.1z"
				/>
			<g>
				<path fill="#AA641D" d="M55.3,28.6c-0.3-4.8,0.2-6.6,0-8.6c-1-8.3,5.7-14.4,17.4-13.4C93.3,8.2,89.9,36.7,84,35.4
					c-4.3-0.9-8.6-2.1-12.9-3.2c-4-1-8.4-0.2-12.5,0C55.4,32.5,55.5,31.1,55.3,28.6z"/>
				<path fill="#FBCBA0" d="M83.5,35.1c-1,7.6-6.9,16-15.8,15.4c-9-0.6-13.5-11.9-12.4-21.2C56.6,19,61.5,10.5,72,12.6
					C79.6,14.1,84.9,24.9,83.5,35.1z"/>
				<g>
					<path fill="#1C2D34" d="M74.8,32.4c0.6-0.3,1.3-0.3,1.9-0.2c1.3-1.1,0.1-4.6-1.8-3.7C73.5,29.1,73.5,31.7,74.8,32.4z"/>
				</g>
				<path opacity="0.35" fill="#B75724" d="M63.9,34.8c-0.4,0.3,0.4,1.3,2.2,1.3c1.8,0.1,2.7-0.9,2-1.2c-0.7-0.3-1.1,0-2.1,0
					C65,34.9,64.4,34.5,63.9,34.8z"/>
				<path fill="#FCD7B6" d="M63.9,34.9c-0.3-0.2,0.3-1,0.8-1.8c0.4-0.7,0.8-2.2,1.8-2.2c0.9,0,1.1,1.7,1.4,2.5
					c0.3,0.8,0.5,1.5,0.1,1.8C66.9,35.8,64.6,35.4,63.9,34.9z"/>
				<g>
					<path fill="#1C2D34" d="M58.1,28.3c-1.1,0.6-1.1,2.8-0.3,3.7c0.5-0.2,1.5-0.3,2.1,0C61.6,31,60.1,27.1,58.1,28.3z"/>
				</g>
				<path fill="#A5ABB8" d="M75.6,29.1c-0.7-0.2-1.1,0.8-0.6,1.2C75.8,30.9,76.4,29.3,75.6,29.1z"/>
				<path fill="#A5ABB8" d="M58.9,28.7c-0.7-0.1-1,0.9-0.4,1.3C59.3,30.4,59.7,28.9,58.9,28.7z"/>
				<path fill="#FBCBA0" d="M85.4,38.4c-1,0.3-2,0.4-3,0.3c0,0,0-0.1-0.1-0.1c-0.4-0.7,0.4-4.3,0.6-5c0.6-1.9,1.5-3.2,3.3-2.7
					C89.9,31.9,88.4,37.3,85.4,38.4z"/>
				<path opacity="0.5" fill="#D9B097" d="M71.7,22.3c0.8-0.4,1.7-0.7,2.5-0.8c0.1,0.8,0.1,1.4,0.4,2.3c1.4-0.3,2.9-2.6,4.3-2
					c1.1,0.4,1.1,2,1.6,2.9c0.8,1.4,1.9,2.6,2.5,4.1c0.5,1.5,0.6-5.6,0.5-6.5c-0.1-2.4-0.3-5.7-2.2-7.5c-2.4-2.2-6.9-2-9.9-2
					c-4.5,0.1-8.5,1-12.6,2.7c-2.9,1.1-3.1,6.9-2.7,9.5c-0.1-0.5,0.8-1.3,1-1.6c0.3-0.5,0.8-1.3,1.5-1.4c0.5,0,1.6,1.6,1.3,1.7
					c0.9-0.4,1.8-1,2.7-1.3c0.8-0.3,1.6-0.3,2.4-0.6c-0.2,0.1,1.1,3,1.1,3.4c0.4-0.2,0.8-0.4,1.3-0.6c0.8-0.4,1.6-0.8,2.4-1.2
					C70.4,22.9,71,22.6,71.7,22.3z"/>
				<path opacity="0.6" fill="#D9B097" d="M83.9,37.1c-1.3-0.9-0.1-3.7,0.9-4.2c0.8-0.4,2.9,0.3,1.9,1.9c-0.5-1.5-1.4-0.5-1.3,0.6
					c0.1,0.7,0.9,0.7,0.1,1.7C85.2,37.5,84.3,37.3,83.9,37.1z"/>
				<path fill="#AA641D" d="M58.8,23.1c2.5-0.5,3.8-1.3,6.2-2.2c-0.1,0.8-0.4,2-0.3,2.8c1.5-0.5,7.1-2.2,10-3.1
					c-0.3,0.7-0.3,1.5-0.5,2.2c1.5-0.7,3.3-2.5,5.1-2.4c1.1,0.1,1.2,0.8,1.4,1.7c0.3,1.4,0.7,2.6,1.2,3.9c1.1,3.2,0.5,6.6-0.8,7.9
					c0.7,0.2,1.6,0.2,2,0c0.5-0.7,1.5-2.7,1.6-4.4c0.1-2.7,1.2-5.3,1.2-8.1c-0.1-3.9-0.7-6.9-3.7-9.5c-2.6-2.3-4.5-3.6-7.8-4.6
					c-12.2-3.4-20.7,4.2-22.5,15c1.7-0.1,4.5-1,6-2C57.9,20.7,58.6,22.7,58.8,23.1z"/>
				<path fill="#2C2621" d="M78.5,27.5c0.6,0.3,0.8-0.2,0.7-0.5c-0.4-1.3-1.9-2.3-3.2-2.6c-1.1-0.2-3.2,0-3.9,1.1
					c-0.4,0.6,0.2,1.2,0.8,1c1-0.3,2-0.3,2.9-0.1C76.8,26.5,77.6,27,78.5,27.5z"/>
				<path fill="#2C2621" d="M56.4,26.5c-0.6,0.2-0.7-0.3-0.6-0.6c0.6-1,1.9-1.8,3.1-1.8c1,0,3,0.7,3.5,1.8c0.2,0.6-0.4,1-0.9,0.7
					c-0.8-0.4-1.7-0.8-2.6-0.8C58,25.8,57.3,26.3,56.4,26.5z"/>
				<path fill="#F49B75" d="M56.5,33.8c-0.1,0.1-0.2,0.3-0.3,0.5c-0.8,2,3.9,1.9,4.6,1.1c1.3-1.5-0.2-2.2-1.4-2.3
					C58.4,33,57.2,33,56.5,33.8z"/>
				<path fill="#F49B75" d="M74.2,34.1c-0.1,0.2-0.2,0.3-0.3,0.6c-0.8,2.1,4.2,1.9,4.9,1c1.3-1.6-0.3-2.3-1.5-2.4
					C76.3,33.2,74.9,33.3,74.2,34.1z"/>
				<path fill="#AA641D" d="M63.5,4.6c0.4,1,0.7,1.4,1.1,2c-1.5,0.1-3.2,0.2-4.4,0.3C60.7,7.5,61.9,8.9,63,9
					c3.3,0.3,7.4,0.2,10.7-0.2c1.3-0.2,2.6-0.1,3.8-0.4c-0.4-1.2-2.4-1.6-3.4-1.7C72,6.4,67.6,6.1,63.5,4.6z"/>
				<path fill="#B57C47" d="M57.4,13.2c-0.4,0.5-0.8,1.1-1.2,1.6c-1,1.5-1.7,3.3-2.4,5c1.6-1.1,4.1-1.6,5.9-1.7c0.1,1,0.5,1.9,0.5,3
					c1.8-1.1,3.7-2.1,5.9-2.2c0.2,0.7,0.2,1.6,0.3,2.3c0.9-0.5,7.4-2.4,9.6-2.8c-0.1,0.8,0,1.6-0.2,2.4c1.2-0.6,5.4-3.7,6.2-4.5
					c1.6-1.6,0.5-3.8-0.8-5.1C80.1,10,78.5,9,76.9,8.4c-3.2-1.1-6.4-1-9.7-0.7C63.3,8,59.8,10.2,57.4,13.2z"/>
				<g>
					<path fill="#E98665" d="M66.5,43.5c-3.7-0.3-6.5-2.4-7.6-5.1c-0.1-0.3,0-0.6,0.3-0.6c0.3-0.1,0.6,0.1,0.8,0.4
						c1,2.3,3.5,4.2,6.8,4.4c3.4,0.2,6.5-1.5,7.6-4.2c0.1-0.3,0.4-0.4,0.8-0.3c0.3,0.1,0.5,0.4,0.4,0.7c-1.3,3.1-4.8,5-8.7,4.8
						C66.7,43.5,66.6,43.5,66.5,43.5z"/>
				</g>
			</g>
			<path fill="#1D1D27" d="M76.8,71.7l0-0.6c0,0,0-0.1,0-0.1c0,0,0,0,0,0l0-1.5c0,0-7.5,1.3-15-0.1l0.2,2.3c0.4,8.1-1,14.1-1.7,16.7
				c1,0.6,3.3,1.2,4.9,1.3c0.6,0,3-0.4,3.8-0.8c-0.2-2.6-0.3-5.2-0.2-7.8c0-1.3,0-2.4,0.1-3.3c0.2-0.5,0.6-0.3,0.8,0.3
				c0.3,3.4,0.6,6.5,0.2,10.9c2.2,0.4,4.5,1.3,6.7,0.4c0.6-0.2,1.1-0.5,1.7-0.8C77.1,85,76.8,75.3,76.8,71.7z"/>
			<path fill="#0D0F12" d="M76.8,69.9c0,0-7,1.4-14.9-0.1l0.2,1.8c0,0,5.7,2.1,14.7,0.1L76.8,69.9z"/>
			<path fill="#3D3C40" d="M67,72.5c0-0.7,0-1.4,0.1-2.1c1.5,0.1,2.9,0.1,4.2,0c-0.1,0.7-0.1,1.4-0.1,2C69.5,72.6,68.2,72.5,67,72.5
				z"/>
			<path fill="#FBCBA0" d="M80.5,69.7c-0.5,0.2-0.1,1.5-1.1,2.2c-1,0.8,0.9,0,1.1,0.9c0.2,1-3.8,2.4-4.5-0.7
				c-0.8-3.7,2.1-4.4,5.1-4.8C84.3,67,80.5,69.7,80.5,69.7z"/>
		</g>
	</g>
</g>
</svg>
