<?xml version="1.0" encoding="utf-8"?>
<!-- Generator: Adobe Illustrator 18.1.1, SVG Export Plug-In . SVG Version: 6.00 Build 0)  -->
<svg version="1.1" xmlns="http://www.w3.org/2000/svg" xmlns:xlink="http://www.w3.org/1999/xlink" x="0px" y="0px"
	 viewBox="0 0 100 100" enable-background="new 0 0 100 100" xml:space="preserve">
<g id="Capa_1">
</g>
<g id="Capa_2">
	<g>
		<path fill="#D8D8D8" d="M63,75.4l-12.9,7.5c-6.1,3.6-16.1,3.6-22.2,0l-13-7.5c-3.1-1.8-4.6-4.1-4.6-6.5c0,5.5,0-1,0,4.5
			c0,2.3,1.5,4.7,4.6,6.5l13,7.5c6.2,3.6,16.1,3.6,22.2,0l12.9-7.5c3-1.8,4.6-4.1,4.6-6.4c0-5.5,0,1,0-4.5
			C67.5,71.3,66,73.6,63,75.4L63,75.4z"/>
		<path fill="#F2F2F2" d="M62.9,62.5c6.2,3.6,6.2,9.3,0.1,12.9l-12.9,7.5c-6.1,3.6-16.1,3.6-22.2,0l-13-7.5
			c-6.2-3.6-6.2-9.3-0.1-12.9L27.7,55c6.1-3.6,16.1-3.6,22.2,0L62.9,62.5L62.9,62.5z"/>
		<polygon fill="#5B5B5B" points="74.8,23.4 72.7,26.1 73,23.1 75.1,20.4 74.8,23.4 		"/>
		<path fill="#303030" d="M89.3,33.8c-0.1,0.1-0.2,0.1-0.4,0.1c-0.7,0-1.5-0.5-1.9-1.1l-1.4-2.3c-0.3-0.5-0.6-1-1-1.4l-1.9-2.2
			c-0.4-0.4-0.9-0.8-1.4-1l-6.4-2.4l-2.1,2.7l6.4,2.4c0.5,0.2,1,0.6,1.4,1l1.9,2.2c0.4,0.5,0.7,0.9,1,1.4l1.4,2.3
			c0.4,0.7,1.2,1.1,1.9,1.1c0.2,0,0.3,0,0.4-0.1c0.1-0.1,0.2-0.1,0.3-0.2c0.7-0.9,1.4-1.8,2.1-2.7C89.5,33.7,89.4,33.8,89.3,33.8
			L89.3,33.8z"/>
		<path fill="#5B5B5B" d="M75.1,20.4L82,23c1.1,0.4,2.1,1.1,2.9,2l1.9,2.2c0.8,0.9,1.4,1.9,1.8,2.9l1.1,2.7c0.2,0.5,0.1,0.9-0.3,1.1
			c-0.1,0.1-0.2,0.1-0.4,0.1c-0.7,0-1.5-0.5-1.9-1.1l-1.4-2.3c-0.3-0.5-0.6-1-1-1.4l-1.9-2.2c-0.4-0.4-0.9-0.8-1.4-1l-6.4-2.4
			L75.1,20.4L75.1,20.4z"/>
		<polygon fill="#303030" points="43.2,28.4 44.4,27.7 51.6,48.5 50.4,49.2 43.2,28.4 		"/>
		<polygon fill="#424242" points="39,28.4 40.2,27.7 44.4,27.7 43.2,28.4 39,28.4 		"/>
		<polygon fill="#282828" points="43.2,28.4 50.4,49.2 46.2,49.2 39,28.4 43.2,28.4 		"/>
		<polygon fill="#424242" points="39.4,28.4 46.6,49.2 46.1,49.2 38.9,28.4 39.4,28.4 		"/>
		<polygon fill="#424242" points="40.6,28.4 47.8,49.2 47.4,49.2 40.2,28.4 40.6,28.4 		"/>
		<polygon fill="#424242" points="41.9,28.4 49.1,49.2 48.7,49.2 41.5,28.4 41.9,28.4 		"/>
		<polygon fill="#424242" points="43.2,28.4 50.4,49.2 50,49.2 42.8,28.4 43.2,28.4 		"/>
		<g>
			<defs>
				<path id="SVGID_1_" d="M39.8,60.8l0-11.7c0-0.3,0.2-0.7,0.7-1l0,11.7C40,60.1,39.8,60.5,39.8,60.8"/>
			</defs>
			<clipPath id="SVGID_2_">
				<use xlink:href="#SVGID_1_"  overflow="visible"/>
			</clipPath>
			<path clip-path="url(#SVGID_2_)" fill="#303030" d="M40.5,48.1l0,11.7c-0.5,0.3-0.7,0.6-0.7,1l0-11.7
				C39.8,48.7,40.1,48.4,40.5,48.1L40.5,48.1z"/>
		</g>
		<g>
			<defs>
				<path id="SVGID_3_" d="M44.5,49.1l0,11.7c0,0.3-0.2,0.7-0.7,1l0-11.7C44.3,49.8,44.5,49.4,44.5,49.1"/>
			</defs>
			<clipPath id="SVGID_4_">
				<use xlink:href="#SVGID_3_"  overflow="visible"/>
			</clipPath>
			<path clip-path="url(#SVGID_4_)" fill="#303030" d="M44.5,49.1l0,11.7c0,0.3-0.2,0.7-0.7,1l0-11.7C44.3,49.8,44.5,49.4,44.5,49.1
				L44.5,49.1z"/>
		</g>
		<g>
			<defs>
				<path id="SVGID_5_" d="M39.8,60.8l0-11.7c0,0.4,0.2,0.7,0.7,1c0.9,0.5,2.4,0.5,3.3,0l0,11.7c-0.9,0.5-2.4,0.5-3.3,0
					C40,61.5,39.8,61.2,39.8,60.8"/>
			</defs>
			<clipPath id="SVGID_6_">
				<use xlink:href="#SVGID_5_"  overflow="visible"/>
			</clipPath>
			<path clip-path="url(#SVGID_6_)" fill="#303030" d="M43.8,50l0,11.7c-0.9,0.5-2.4,0.5-3.3,0c-0.5-0.3-0.7-0.6-0.7-1l0-11.7
				c0,0.4,0.2,0.7,0.7,1C41.4,50.6,42.9,50.6,43.8,50L43.8,50z"/>
		</g>
		<path fill="#141413" d="M42.2,50.2c-0.6,0-1.1-0.1-1.6-0.4c-0.4-0.2-0.6-0.5-0.6-0.8c0-0.3,0.2-0.6,0.6-0.8c0.4-0.2,1-0.4,1.6-0.4
			c0.6,0,1.1,0.1,1.6,0.4c0.4,0.2,0.6,0.5,0.6,0.8c0,0.3-0.2,0.6-0.6,0.8C43.3,50.1,42.8,50.2,42.2,50.2L42.2,50.2z"/>
		<path fill="#3F3F3F" d="M42.2,47.7c-0.6,0-1.2,0.1-1.7,0.4c-0.9,0.5-0.9,1.4,0,1.9c0.5,0.3,1.1,0.4,1.7,0.4c0.6,0,1.2-0.1,1.7-0.4
			c0.9-0.5,0.9-1.4,0-1.9C43.4,47.8,42.8,47.7,42.2,47.7L42.2,47.7z M42.2,48.1c0.5,0,1.1,0.1,1.5,0.3c0.3,0.2,0.5,0.4,0.5,0.6
			c0,0.2-0.2,0.4-0.5,0.6c-0.4,0.2-0.9,0.3-1.4,0.3c-0.5,0-1.1-0.1-1.4-0.3c-0.3-0.2-0.5-0.4-0.5-0.6c0-0.2,0.2-0.4,0.5-0.6
			C41.1,48.3,41.6,48.1,42.2,48.1L42.2,48.1z"/>
		<polygon fill="#1A1A1A" points="50.8,54.1 50.8,65.8 46,63.1 46.1,51.3 50.8,54.1 		"/>
		<g>
			<defs>
				<path id="SVGID_7_" d="M52.7,56.6c0,3.9,0,7.8,0,11.7c0-0.9-0.6-1.9-1.8-2.6l0-11.7C52.1,54.8,52.7,55.7,52.7,56.6"/>
			</defs>
			<clipPath id="SVGID_8_">
				<use xlink:href="#SVGID_7_"  overflow="visible"/>
			</clipPath>
			<path clip-path="url(#SVGID_8_)" fill="#303030" d="M52.7,56.6l0,11.7c0-0.9-0.6-1.9-1.8-2.6l0-11.7
				C52.1,54.8,52.7,55.7,52.7,56.6L52.7,56.6z"/>
		</g>
		<g>
			<defs>
				<path id="SVGID_9_" d="M27.2,69.5c-0.9-0.5-2.4-0.5-3.3,0l0-11.7c0.9-0.5,2.4-0.5,3.3,0C27.3,61.6,27.3,65.6,27.2,69.5"/>
			</defs>
			<clipPath id="SVGID_10_">
				<use xlink:href="#SVGID_9_"  overflow="visible"/>
			</clipPath>
			<path clip-path="url(#SVGID_10_)" fill="#303030" d="M28,58.7l0,11.7c0-0.4-0.2-0.7-0.7-1c-0.9-0.5-2.4-0.5-3.3,0l0-11.7
				c0.9-0.5,2.4-0.5,3.3,0C27.7,58,28,58.3,28,58.7L28,58.7z"/>
		</g>
		<path fill="#303030" d="M18.9,54.8c-1.2-0.7-1.8-1.6-1.8-2.6c0,3.9,0,7.8,0,11.7c0,0.9,0.6,1.9,1.8,2.6l5,2.9l0-11.7L18.9,54.8
			L18.9,54.8z"/>
		<g>
			<defs>
				<path id="SVGID_11_" d="M27.9,70.4c0-0.4-0.2-0.7-0.7-1c0-3.9,0-7.8,0-11.7c0.5,0.3,0.7,0.6,0.7,1C28,62.2,27.9,66.9,27.9,70.4"
					/>
			</defs>
			<clipPath id="SVGID_12_">
				<use xlink:href="#SVGID_11_"  overflow="visible"/>
			</clipPath>
			<path clip-path="url(#SVGID_12_)" fill="#303030" d="M28,58.7l0,11.7c0-0.4-0.2-0.7-0.7-1c-0.9-0.5-2.4-0.5-3.3,0l0-11.7
				c0.9-0.5,2.4-0.5,3.3,0C27.7,58,28,58.3,28,58.7L28,58.7z"/>
		</g>
		<g>
			<defs>
				<path id="SVGID_13_" d="M52.7,56.6c0,3.9,0,7.8,0,11.7c0,0.9-0.6,1.8-1.8,2.5l0-11.7C52.1,58.5,52.7,57.6,52.7,56.6"/>
			</defs>
			<clipPath id="SVGID_14_">
				<use xlink:href="#SVGID_13_"  overflow="visible"/>
			</clipPath>
			<path clip-path="url(#SVGID_14_)" fill="#303030" d="M52.7,56.6l0,11.7c0,0.9-0.6,1.8-1.8,2.5l0-11.7
				C52.1,58.5,52.7,57.6,52.7,56.6L52.7,56.6z"/>
		</g>
		<g>
			<defs>
				<path id="SVGID_15_" d="M28,58.7c0,3.9,0,7.8,0,11.7c0,0.3-0.2,0.7-0.7,1l0-11.7C27.7,59.4,28,59,28,58.7"/>
			</defs>
			<clipPath id="SVGID_16_">
				<use xlink:href="#SVGID_15_"  overflow="visible"/>
			</clipPath>
			<path clip-path="url(#SVGID_16_)" fill="#303030" d="M28,58.7l0,11.7c0,0.3-0.2,0.7-0.7,1l0-11.7C27.7,59.4,28,59,28,58.7
				L28,58.7z"/>
		</g>
		<g>
			<defs>
				<path id="SVGID_17_" d="M23.2,70.4c0-3.9,0-7.8,0-11.7c0,0.4,0.2,0.7,0.7,1c0.9,0.5,2.4,0.5,3.3,0l0,11.7
					c-0.9,0.5-2.4,0.5-3.3,0C23.5,71.1,23.2,70.8,23.2,70.4"/>
			</defs>
			<clipPath id="SVGID_18_">
				<use xlink:href="#SVGID_17_"  overflow="visible"/>
			</clipPath>
			<path clip-path="url(#SVGID_18_)" fill="#494949" d="M27.3,59.6l0,11.7c-0.9,0.5-2.4,0.5-3.3,0c-0.5-0.3-0.7-0.6-0.7-1l0-11.7
				c0,0.4,0.2,0.7,0.7,1C24.9,60.2,26.4,60.2,27.3,59.6L27.3,59.6z"/>
		</g>
		<path fill="#141413" d="M25.6,59.8c-0.6,0-1.1-0.1-1.6-0.4c-0.4-0.2-0.6-0.5-0.6-0.8c0-0.3,0.2-0.6,0.6-0.8c0.4-0.2,1-0.4,1.6-0.4
			c0.6,0,1.1,0.1,1.6,0.4c0.4,0.2,0.6,0.5,0.6,0.8c0,0.3-0.2,0.6-0.6,0.8C26.8,59.7,26.2,59.8,25.6,59.8L25.6,59.8z"/>
		<path fill="#3F3F3F" d="M25.6,57.3c-0.6,0-1.2,0.1-1.7,0.4c-0.9,0.5-0.9,1.4,0,1.9c0.5,0.3,1.1,0.4,1.7,0.4c0.6,0,1.2-0.1,1.7-0.4
			c0.9-0.5,0.9-1.4,0-1.9C26.8,57.5,26.2,57.3,25.6,57.3L25.6,57.3z M25.6,57.8L25.6,57.8c0.5,0,1.1,0.1,1.5,0.3
			c0.3,0.2,0.5,0.4,0.5,0.6c0,0.2-0.2,0.4-0.5,0.6c-0.4,0.2-0.9,0.3-1.4,0.3c-0.5,0-1.1-0.1-1.4-0.3c-0.3-0.2-0.5-0.4-0.5-0.6
			c0-0.2,0.2-0.4,0.5-0.6C24.5,57.9,25.1,57.8,25.6,57.8L25.6,57.8z"/>
		<polygon fill="#303030" points="29.5,60.9 29.5,72.7 27.3,71.4 27.3,59.6 29.5,60.9 		"/>
		<polygon fill="#252525" points="50.9,59.2 50.8,70.9 43.1,75.4 43.1,63.7 50.9,59.2 		"/>
		<g>
			<defs>
				<path id="SVGID_19_" d="M43.1,63.7l0,11.7c-2.4,1.4-6.4,1.4-8.8,0l0-11.7C36.7,65.1,40.7,65.1,43.1,63.7"/>
			</defs>
			<clipPath id="SVGID_20_">
				<use xlink:href="#SVGID_19_"  overflow="visible"/>
			</clipPath>
			<path clip-path="url(#SVGID_20_)" fill="#303030" d="M43.1,63.7l0,11.7c-2.4,1.4-6.4,1.4-8.8,0l0-11.7
				C36.7,65.1,40.7,65.1,43.1,63.7L43.1,63.7z"/>
		</g>
		<path fill="#3F3F3F" d="M55.2,53.8c-2.6-1.5-5.8-2.3-9.1-2.5L43.8,50c-0.9,0.5-2.4,0.5-3.3,0c-0.9-0.5-0.9-1.4,0-1.9l-5-2.9
			c-2.4-1.4-6.4-1.4-8.8,0l-7.8,4.5c-2.4,1.4-2.4,3.7,0,5.1l5,2.9c0.9-0.5,2.4-0.5,3.3,0c0.9,0.5,0.9,1.4,0,1.9l2.2,1.3
			c0.4,1.9,1.8,3.8,4.4,5.3c5.9,3.4,15.5,3.4,21.4,0C61.1,62.8,61.1,57.2,55.2,53.8L55.2,53.8z"/>
		<g>
			<defs>
				<path id="SVGID_21_" d="M59.6,60.1c0,3.9,0,7.8,0,11.7c0,2.2-1.5,4.4-4.4,6.1c-5.9,3.4-15.4,3.4-21.4,0c-2.6-1.5-4-3.3-4.4-5.3
					l0-11.7c0.4,1.9,1.8,3.8,4.4,5.3c5.9,3.4,15.5,3.4,21.4,0C58.2,64.5,59.6,62.3,59.6,60.1"/>
			</defs>
			<clipPath id="SVGID_22_">
				<use xlink:href="#SVGID_21_"  overflow="visible"/>
			</clipPath>
			<path clip-path="url(#SVGID_22_)" fill="#303030" d="M59.6,60.1l0,11.7c0,2.2-1.5,4.4-4.4,6.1c-5.9,3.4-15.4,3.4-21.4,0
				c-2.6-1.5-4-3.3-4.4-5.3l0-11.7c0.4,1.9,1.8,3.8,4.4,5.3c5.9,3.4,15.5,3.4,21.4,0C58.2,64.5,59.6,62.3,59.6,60.1L59.6,60.1z"/>
		</g>
		<path fill="#FFCE57" d="M59.6,67.8c0,3.5,0-2.3,0,1.2c0,2.2-1.5,4.4-4.4,6.1c-5.9,3.4-15.4,3.4-21.3,0c-3-1.7-4.4-4-4.4-6.2l0-1.2
			c0,2.2,1.5,4.5,4.4,6.2c5.9,3.4,15.4,3.4,21.3,0C58.1,72.2,59.6,70,59.6,67.8L59.6,67.8z"/>
		<g>
			<defs>
				<path id="SVGID_23_" d="M59.6,67.8c0,1.7,0,1.2,0,0.6c0-0.6,0-1.1,0,0.6c0,2.2-1.5,4.4-4.4,6.1c-5.9,3.4-15.4,3.4-21.3,0
					c-3-1.7-4.4-4-4.4-6.2l0-1.2c0,2.2,1.5,4.5,4.4,6.2c5.9,3.4,15.4,3.4,21.3,0C58.1,72.2,59.6,70,59.6,67.8"/>
			</defs>
			<clipPath id="SVGID_24_">
				<use xlink:href="#SVGID_23_"  overflow="visible"/>
			</clipPath>
			<path clip-path="url(#SVGID_24_)" fill="#FFCE57" d="M59.6,67.8l0,1.2c0,2.2-1.5,4.4-4.4,6.1c-5.9,3.4-15.4,3.4-21.3,0
				c-3-1.7-4.4-4-4.4-6.2l0-1.2c0,2.2,1.5,4.5,4.4,6.2c5.9,3.4,15.4,3.4,21.3,0C58.1,72.2,59.6,70,59.6,67.8L59.6,67.8z"/>
		</g>
		<path fill="#FFCE57" d="M59.6,67.1c0,3.5,0-2.3,0,1.2c0,2.2-1.5,4.4-4.4,6.1c-5.9,3.4-15.4,3.4-21.3,0c-3-1.7-4.4-4-4.4-6.2l0-1.2
			c0,2.2,1.5,4.5,4.4,6.2c5.9,3.4,15.4,3.4,21.3,0C58.1,71.6,59.6,69.4,59.6,67.1L59.6,67.1z"/>
		<g>
			<defs>
				<path id="SVGID_25_" d="M59.6,67.1c0,1.7,0,1.2,0,0.6c0-0.6,0-1.1,0,0.6c0,2.2-1.5,4.4-4.4,6.1c-5.9,3.4-15.4,3.4-21.3,0
					c-3-1.7-4.4-4-4.4-6.2l0-1.2c0,2.2,1.5,4.5,4.4,6.2c5.9,3.4,15.4,3.4,21.3,0C58.1,71.6,59.6,69.4,59.6,67.1"/>
			</defs>
			<clipPath id="SVGID_26_">
				<use xlink:href="#SVGID_25_"  overflow="visible"/>
			</clipPath>
			<path clip-path="url(#SVGID_26_)" fill="#ECAE24" d="M59.6,67.1l0,1.2c0,2.2-1.5,4.4-4.4,6.1c-5.9,3.4-15.4,3.4-21.3,0
				c-3-1.7-4.4-4-4.4-6.2l0-1.2c0,2.2,1.5,4.5,4.4,6.2c5.9,3.4,15.4,3.4,21.3,0C58.1,71.6,59.6,69.4,59.6,67.1L59.6,67.1z"/>
		</g>
		<path fill="#FFCE57" d="M59.6,66.5c0,3.5,0-2.3,0,1.2c0,2.2-1.5,4.4-4.4,6.1c-5.9,3.4-15.4,3.4-21.3,0c-3-1.7-4.4-4-4.4-6.2l0-1.2
			c0,2.2,1.5,4.5,4.4,6.2c5.9,3.4,15.4,3.4,21.3,0C58.1,70.9,59.6,68.7,59.6,66.5L59.6,66.5z"/>
		<g>
			<defs>
				<path id="SVGID_27_" d="M59.6,66.5c0,1.7,0,1.2,0,0.6c0-0.6,0-1.1,0,0.6c0,2.2-1.5,4.4-4.4,6.1c-5.9,3.4-15.4,3.4-21.3,0
					c-3-1.7-4.4-4-4.4-6.2l0-1.2c0,2.2,1.5,4.5,4.4,6.2c5.9,3.4,15.4,3.4,21.3,0C58.1,70.9,59.6,68.7,59.6,66.5"/>
			</defs>
			<clipPath id="SVGID_28_">
				<use xlink:href="#SVGID_27_"  overflow="visible"/>
			</clipPath>
			<path clip-path="url(#SVGID_28_)" fill="#FFCE57" d="M59.6,66.5l0,1.2c0,2.2-1.5,4.4-4.4,6.1c-5.9,3.4-15.4,3.4-21.3,0
				c-3-1.7-4.4-4-4.4-6.2l0-1.2c0,2.2,1.5,4.5,4.4,6.2c5.9,3.4,15.4,3.4,21.3,0C58.1,70.9,59.6,68.7,59.6,66.5L59.6,66.5z"/>
		</g>
		<path fill="#FFCE57" d="M59.6,65.8c0,3.5,0-2.3,0,1.2c0,2.2-1.5,4.4-4.4,6.1c-5.9,3.4-15.4,3.4-21.3,0c-3-1.7-4.4-4-4.4-6.2l0-1.2
			c0,2.2,1.5,4.5,4.4,6.2c5.9,3.4,15.4,3.4,21.3,0C58.1,70.2,59.6,68,59.6,65.8L59.6,65.8z"/>
		<g>
			<defs>
				<path id="SVGID_29_" d="M59.6,65.8c0,1.7,0,1.2,0,0.6c0-0.6,0-1.1,0,0.6c0,2.2-1.5,4.4-4.4,6.1c-5.9,3.4-15.4,3.4-21.3,0
					c-3-1.7-4.4-4-4.4-6.2l0-1.2c0,2.2,1.5,4.5,4.4,6.2c5.9,3.4,15.4,3.4,21.3,0C58.1,70.2,59.6,68,59.6,65.8"/>
			</defs>
			<clipPath id="SVGID_30_">
				<use xlink:href="#SVGID_29_"  overflow="visible"/>
			</clipPath>
			<path clip-path="url(#SVGID_30_)" fill="#ECAE24" d="M59.6,65.8l0,1.2c0,2.2-1.5,4.4-4.4,6.1c-5.9,3.4-15.4,3.4-21.3,0
				c-3-1.7-4.4-4-4.4-6.2l0-1.2c0,2.2,1.5,4.5,4.4,6.2c5.9,3.4,15.4,3.4,21.3,0C58.1,70.2,59.6,68,59.6,65.8L59.6,65.8z"/>
		</g>
		<path fill="#FFCE57" d="M59.6,65.2c0,3.5,0-2.3,0,1.2c0,2.2-1.5,4.4-4.4,6.1c-5.9,3.4-15.4,3.4-21.3,0c-3-1.7-4.4-4-4.4-6.2l0-1.2
			c0,2.2,1.5,4.5,4.4,6.2c5.9,3.4,15.4,3.4,21.3,0C58.1,69.6,59.6,67.4,59.6,65.2L59.6,65.2z"/>
		<g>
			<defs>
				<path id="SVGID_31_" d="M59.6,65.2c0,1.7,0,1.2,0,0.6c0-0.6,0-1.1,0,0.6c0,2.2-1.5,4.4-4.4,6.1c-5.9,3.4-15.4,3.4-21.3,0
					c-3-1.7-4.4-4-4.4-6.2l0-1.2c0,2.2,1.5,4.5,4.4,6.2c5.9,3.4,15.4,3.4,21.3,0C58.1,69.6,59.6,67.4,59.6,65.2"/>
			</defs>
			<clipPath id="SVGID_32_">
				<use xlink:href="#SVGID_31_"  overflow="visible"/>
			</clipPath>
			<path clip-path="url(#SVGID_32_)" fill="#FFCE57" d="M59.6,65.2l0,1.2c0,2.2-1.5,4.4-4.4,6.1c-5.9,3.4-15.4,3.4-21.3,0
				c-3-1.7-4.4-4-4.4-6.2l0-1.2c0,2.2,1.5,4.5,4.4,6.2c5.9,3.4,15.4,3.4,21.3,0C58.1,69.6,59.6,67.4,59.6,65.2L59.6,65.2z"/>
		</g>
		<path fill="#FFCE57" d="M59.6,64.5c0,3.5,0-2.3,0,1.2c0,2.2-1.5,4.4-4.4,6.1c-5.9,3.4-15.4,3.4-21.3,0c-3-1.7-4.4-4-4.4-6.2l0-1.2
			c0,2.2,1.5,4.5,4.4,6.2c5.9,3.4,15.4,3.4,21.3,0C58.1,68.9,59.6,66.7,59.6,64.5L59.6,64.5z"/>
		<g>
			<defs>
				<path id="SVGID_33_" d="M59.6,64.5c0,1.7,0,1.2,0,0.6c0-0.6,0-1.1,0,0.6c0,2.2-1.5,4.4-4.4,6.1c-5.9,3.4-15.4,3.4-21.3,0
					c-3-1.7-4.4-4-4.4-6.2l0-1.2c0,2.2,1.5,4.5,4.4,6.2c5.9,3.4,15.4,3.4,21.3,0C58.1,68.9,59.6,66.7,59.6,64.5"/>
			</defs>
			<clipPath id="SVGID_34_">
				<use xlink:href="#SVGID_33_"  overflow="visible"/>
			</clipPath>
			<path clip-path="url(#SVGID_34_)" fill="#ECAE24" d="M59.6,64.5l0,1.2c0,2.2-1.5,4.4-4.4,6.1c-5.9,3.4-15.4,3.4-21.3,0
				c-3-1.7-4.4-4-4.4-6.2l0-1.2c0,2.2,1.5,4.5,4.4,6.2c5.9,3.4,15.4,3.4,21.3,0C58.1,68.9,59.6,66.7,59.6,64.5L59.6,64.5z"/>
		</g>
		<path fill="#FFCE57" d="M59.6,63.8c0,3.5,0-2.3,0,1.2c0,2.2-1.5,4.4-4.4,6.1c-5.9,3.4-15.4,3.4-21.3,0c-3-1.7-4.4-4-4.4-6.2l0-1.2
			c0,2.2,1.5,4.5,4.4,6.2c5.9,3.4,15.4,3.4,21.3,0C58.1,68.2,59.6,66,59.6,63.8L59.6,63.8z"/>
		<g>
			<defs>
				<path id="SVGID_35_" d="M59.6,63.8c0,1.7,0,1.2,0,0.6c0-0.6,0-1.1,0,0.6c0,2.2-1.5,4.4-4.4,6.1c-5.9,3.4-15.4,3.4-21.3,0
					c-3-1.7-4.4-4-4.4-6.2l0-1.2c0,2.2,1.5,4.5,4.4,6.2c5.9,3.4,15.4,3.4,21.3,0C58.1,68.2,59.6,66,59.6,63.8"/>
			</defs>
			<clipPath id="SVGID_36_">
				<use xlink:href="#SVGID_35_"  overflow="visible"/>
			</clipPath>
			<path clip-path="url(#SVGID_36_)" fill="#FFCE57" d="M59.6,63.8l0,1.2c0,2.2-1.5,4.4-4.4,6.1c-5.9,3.4-15.4,3.4-21.3,0
				c-3-1.7-4.4-4-4.4-6.2l0-1.2c0,2.2,1.5,4.5,4.4,6.2c5.9,3.4,15.4,3.4,21.3,0C58.1,68.2,59.6,66,59.6,63.8L59.6,63.8z"/>
		</g>
		<g>
			<defs>
				<path id="SVGID_37_" d="M58.7,57.1c0,0.4,0,0.6,0,1c0,0.3-0.2,0.5-0.5,0.7c-0.7,0.4-1.7,0.4-2.4,0c-0.3-0.2-0.5-0.4-0.5-0.7l0-1
					c0,0.3,0.2,0.5,0.5,0.7c0.7,0.4,1.8,0.4,2.4,0C58.5,57.6,58.7,57.3,58.7,57.1"/>
			</defs>
			<clipPath id="SVGID_38_">
				<use xlink:href="#SVGID_37_"  overflow="visible"/>
			</clipPath>
			<path clip-path="url(#SVGID_38_)" fill="#1E1E1E" d="M58.7,57.1l0,1c0,0.3-0.2,0.5-0.5,0.7c-0.7,0.4-1.7,0.4-2.4,0
				c-0.3-0.2-0.5-0.4-0.5-0.7l0-1c0,0.3,0.2,0.5,0.5,0.7c0.7,0.4,1.8,0.4,2.4,0C58.5,57.6,58.7,57.3,58.7,57.1L58.7,57.1z"/>
		</g>
		<path fill="#2D2D2D" d="M57,58c-0.4,0-0.9-0.1-1.2-0.3c-0.3-0.2-0.5-0.4-0.5-0.6c0-0.2,0.2-0.5,0.5-0.6c0.3-0.2,0.7-0.3,1.2-0.3
			c0.4,0,0.9,0.1,1.2,0.3c0.3,0.2,0.5,0.4,0.5,0.6c0,0.2-0.2,0.5-0.5,0.6C57.8,57.9,57.4,58,57,58L57,58z"/>
		<path fill="#757575" d="M57,56.1c-0.4,0-0.9,0.1-1.2,0.3c-0.7,0.4-0.7,1,0,1.4c0.3,0.2,0.8,0.3,1.2,0.3c0.4,0,0.9-0.1,1.2-0.3
			c0.7-0.4,0.7-1,0-1.4C57.8,56.2,57.4,56.1,57,56.1L57,56.1z M57,56.2c0.4,0,0.8,0.1,1.1,0.3c0.3,0.2,0.4,0.4,0.4,0.6
			c0,0.2-0.2,0.4-0.4,0.6c-0.3,0.2-0.7,0.3-1.1,0.3c-0.4,0-0.8-0.1-1.1-0.3c-0.3-0.2-0.4-0.4-0.4-0.6c0-0.2,0.1-0.4,0.4-0.6
			C56.1,56.3,56.5,56.2,57,56.2L57,56.2z"/>
		<g>
			<defs>
				<path id="SVGID_39_" d="M34.2,61c0,0.4,0,0.6,0,1c0,0.3-0.2,0.5-0.5,0.7c-0.7,0.4-1.7,0.4-2.4,0c-0.3-0.2-0.5-0.4-0.5-0.7l0-1
					c0,0.3,0.2,0.5,0.5,0.7c0.7,0.4,1.8,0.4,2.4,0C34.1,61.5,34.2,61.3,34.2,61"/>
			</defs>
			<clipPath id="SVGID_40_">
				<use xlink:href="#SVGID_39_"  overflow="visible"/>
			</clipPath>
			<path clip-path="url(#SVGID_40_)" fill="#1E1E1E" d="M34.2,61l0,1c0,0.3-0.2,0.5-0.5,0.7c-0.7,0.4-1.7,0.4-2.4,0
				c-0.3-0.2-0.5-0.4-0.5-0.7l0-1c0,0.3,0.2,0.5,0.5,0.7c0.7,0.4,1.8,0.4,2.4,0C34.1,61.5,34.2,61.3,34.2,61L34.2,61z"/>
		</g>
		<path fill="#2D2D2D" d="M32.5,62c-0.4,0-0.9-0.1-1.2-0.3c-0.3-0.2-0.5-0.4-0.5-0.6c0-0.2,0.2-0.5,0.5-0.6c0.3-0.2,0.7-0.3,1.2-0.3
			c0.4,0,0.9,0.1,1.2,0.3c0.3,0.2,0.5,0.4,0.5,0.6c0,0.2-0.2,0.5-0.5,0.6C33.4,61.9,33,62,32.5,62L32.5,62z"/>
		<path fill="#757575" d="M32.5,60c-0.4,0-0.9,0.1-1.2,0.3c-0.7,0.4-0.7,1,0,1.4c0.3,0.2,0.8,0.3,1.2,0.3c0.4,0,0.9-0.1,1.2-0.3
			c0.7-0.4,0.7-1,0-1.4C33.4,60.1,33,60,32.5,60L32.5,60z M32.5,60.2c0.4,0,0.8,0.1,1.1,0.3c0.3,0.2,0.4,0.4,0.4,0.6
			c0,0.2-0.2,0.4-0.4,0.6c-0.3,0.2-0.7,0.3-1.1,0.3c-0.4,0-0.8-0.1-1.1-0.3C31.1,61.5,31,61.2,31,61c0-0.2,0.2-0.4,0.4-0.6
			C31.7,60.3,32.1,60.2,32.5,60.2L32.5,60.2z"/>
		<g>
			<defs>
				<path id="SVGID_41_" d="M48.7,52.7c0,0.4,0,0.6,0,1c0,0.3-0.2,0.5-0.5,0.7c-0.7,0.4-1.7,0.4-2.4,0c-0.3-0.2-0.5-0.4-0.5-0.7l0-1
					c0,0.3,0.2,0.5,0.5,0.7c0.7,0.4,1.7,0.4,2.4,0C48.5,53.2,48.7,52.9,48.7,52.7"/>
			</defs>
			<clipPath id="SVGID_42_">
				<use xlink:href="#SVGID_41_"  overflow="visible"/>
			</clipPath>
			<path clip-path="url(#SVGID_42_)" fill="#1E1E1E" d="M48.7,52.7l0,1c0,0.3-0.2,0.5-0.5,0.7c-0.7,0.4-1.7,0.4-2.4,0
				c-0.3-0.2-0.5-0.4-0.5-0.7l0-1c0,0.3,0.2,0.5,0.5,0.7c0.7,0.4,1.7,0.4,2.4,0C48.5,53.2,48.7,52.9,48.7,52.7L48.7,52.7z"/>
		</g>
		<path fill="#2D2D2D" d="M47,53.6c-0.4,0-0.9-0.1-1.2-0.3c-0.3-0.2-0.5-0.4-0.5-0.6c0-0.2,0.2-0.5,0.5-0.6c0.3-0.2,0.7-0.3,1.2-0.3
			c0.4,0,0.9,0.1,1.2,0.3c0.3,0.2,0.5,0.4,0.5,0.6c0,0.2-0.2,0.5-0.5,0.6C47.8,53.5,47.4,53.6,47,53.6L47,53.6z"/>
		<path fill="#757575" d="M47,51.7c-0.4,0-0.9,0.1-1.2,0.3c-0.7,0.4-0.7,1,0,1.4c0.3,0.2,0.8,0.3,1.2,0.3c0.4,0,0.9-0.1,1.2-0.3
			c0.7-0.4,0.7-1,0-1.4C47.8,51.8,47.4,51.7,47,51.7L47,51.7z M47,51.8c0.4,0,0.8,0.1,1.1,0.3c0.3,0.2,0.4,0.4,0.4,0.6
			c0,0.2-0.2,0.4-0.4,0.6c-0.3,0.2-0.7,0.3-1.1,0.3c-0.4,0-0.8-0.1-1.1-0.3c-0.3-0.2-0.4-0.4-0.4-0.6c0-0.2,0.2-0.4,0.4-0.6
			C46.1,51.9,46.5,51.8,47,51.8L47,51.8z"/>
		<g>
			<defs>
				<path id="SVGID_43_" d="M55.6,58.4c0,1.2,0,1,0,0.8c0-0.2,0-0.3,0,0.8c0,1.5-1,3-3,4.2c-4,2.3-10.4,2.3-14.4,0
					c-2-1.2-3-2.7-3-4.2l0-1.7c0,1.5,1,3.1,3,4.2c4,2.3,10.5,2.3,14.4,0C54.7,61.4,55.6,59.9,55.6,58.4"/>
			</defs>
			<clipPath id="SVGID_44_">
				<use xlink:href="#SVGID_43_"  overflow="visible"/>
			</clipPath>
			<path clip-path="url(#SVGID_44_)" fill="#1E1E1E" d="M55.6,58.4l0,1.7c0,1.5-1,3-3,4.2c-4,2.3-10.4,2.3-14.4,0
				c-2-1.2-3-2.7-3-4.2l0-1.7c0,1.5,1,3.1,3,4.2c4,2.3,10.5,2.3,14.4,0C54.7,61.4,55.6,59.9,55.6,58.4L55.6,58.4z"/>
		</g>
		<path fill="#303030" d="M52.6,54.2c4,2.3,4,6.1,0,8.4c-4,2.3-10.4,2.3-14.4,0c-4-2.3-4-6.1,0-8.4C42.2,51.8,48.6,51.8,52.6,54.2
			L52.6,54.2z"/>
		<path fill="#FF3E3E" d="M36.6,52.4c-3.4-3.6-1.7-7.4-0.7-9.4c0.2-0.4,0.4-0.8,0.4-1.1c0.2-0.8,2-1.8,3.4-2.5c3.3-1.5,8-2.6,11.2-1
			c2.3,1.2,4.6,1.3,6.7,0.5c4.8-1.8,7.4-8.1,7.5-8.1l0.4,0.2c-0.1,0.3-2.7,6.5-7.7,8.4c-2.2,0.8-4.6,0.6-7-0.6
			c-3.1-1.5-7.6-0.5-10.9,1c-1.9,0.9-3.1,1.8-3.2,2.2c-0.1,0.3-0.3,0.7-0.5,1.2c-1,2.1-2.5,5.5,0.7,9L36.6,52.4L36.6,52.4z"/>
		<g>
			<defs>
				<path id="SVGID_45_" d="M45.5,66.6c0,0.4,0,0.6,0,1c0,0.3-0.2,0.5-0.5,0.7c-0.7,0.4-1.7,0.4-2.4,0c-0.3-0.2-0.5-0.4-0.5-0.7l0-1
					c0,0.3,0.2,0.5,0.5,0.7c0.7,0.4,1.8,0.4,2.4,0C45.4,67.1,45.5,66.8,45.5,66.6"/>
			</defs>
			<clipPath id="SVGID_46_">
				<use xlink:href="#SVGID_45_"  overflow="visible"/>
			</clipPath>
			<path clip-path="url(#SVGID_46_)" fill="#1E1E1E" d="M45.5,66.6l0,1c0,0.3-0.2,0.5-0.5,0.7c-0.7,0.4-1.7,0.4-2.4,0
				c-0.3-0.2-0.5-0.4-0.5-0.7l0-1c0,0.3,0.2,0.5,0.5,0.7c0.7,0.4,1.8,0.4,2.4,0C45.4,67.1,45.5,66.8,45.5,66.6L45.5,66.6z"/>
		</g>
		<path fill="#2D2D2D" d="M43.8,67.5c-0.4,0-0.9-0.1-1.2-0.3c-0.3-0.2-0.5-0.4-0.5-0.6c0-0.2,0.2-0.5,0.5-0.6
			c0.3-0.2,0.7-0.3,1.2-0.3c0.4,0,0.9,0.1,1.2,0.3c0.3,0.2,0.5,0.4,0.5,0.6c0,0.2-0.2,0.5-0.5,0.6C44.7,67.4,44.3,67.5,43.8,67.5
			L43.8,67.5z"/>
		<path fill="#757575" d="M43.8,65.6c-0.4,0-0.9,0.1-1.2,0.3c-0.7,0.4-0.7,1,0,1.4c0.3,0.2,0.8,0.3,1.2,0.3c0.4,0,0.9-0.1,1.2-0.3
			c0.7-0.4,0.7-1,0-1.4C44.7,65.7,44.2,65.6,43.8,65.6L43.8,65.6z M43.8,65.7c0.4,0,0.8,0.1,1.1,0.3c0.3,0.2,0.4,0.4,0.4,0.6
			c0,0.2-0.2,0.4-0.4,0.6c-0.3,0.2-0.7,0.3-1.1,0.3c-0.4,0-0.8-0.1-1.1-0.3c-0.3-0.2-0.4-0.4-0.4-0.6c0-0.2,0.2-0.4,0.4-0.6
			C43,65.8,43.4,65.7,43.8,65.7L43.8,65.7z"/>
		<g>
			<defs>
				<path id="SVGID_47_" d="M55,59.4c-1.9,1.1-3.9,2.3-5.8,3.4c0.8-0.5,1.4-1.2,1.4-2.1l5.8-3.4C56.4,58.2,55.8,59,55,59.4"/>
			</defs>
			<clipPath id="SVGID_48_">
				<use xlink:href="#SVGID_47_"  overflow="visible"/>
			</clipPath>
			<path clip-path="url(#SVGID_48_)" fill="#CF9117" d="M50.6,60.7l5.8-3.4c0,0.9-0.6,1.6-1.4,2.1l-5.8,3.4
				C50,62.3,50.6,61.6,50.6,60.7L50.6,60.7z"/>
		</g>
		<path fill="#FFCE57" d="M51.7,48.6l-6.5-3.4c-0.9-0.5-1.7-0.6-2.3-0.2c-1.9,1.1-3.9,2.3-5.8,3.4c0.6-0.3,1.4-0.3,2.3,0.2
			c6.9,3.6,6.6,3.4,7.2,3.9c1.7,1.7,3.7,5.3,4,7.2c0.1,0.4,0,0.5,0,0.9l5.8-3.4l0-0.4C56.4,54.9,53.5,49.6,51.7,48.6L51.7,48.6z"/>
		<path fill="#ECAE24" d="M45.9,52c1.8,1,4.7,6.3,4.7,8.3l0,0.4c0,2-3,3.3-4.8,2.3l-6.5-3.7c-1.8-1-3.2-3.5-3.2-5.5l0-3.3
			c0-2,1.4-2.8,3.2-1.8L45.9,52L45.9,52z"/>
		<g>
			<defs>
				<path id="SVGID_49_" d="M47.1,30.3c-2.7,1.6-5.5,3.2-8.2,4.8c0.8-0.5,1.3-1.5,1.3-2.9l8.2-4.8C48.4,28.8,48,29.8,47.1,30.3"/>
			</defs>
			<clipPath id="SVGID_50_">
				<use xlink:href="#SVGID_49_"  overflow="visible"/>
			</clipPath>
			<path clip-path="url(#SVGID_50_)" fill="#CF9117" d="M40.3,32.2l8.2-4.8c0,1.3-0.5,2.4-1.3,2.9L39,35.1
				C39.8,34.6,40.3,33.6,40.3,32.2L40.3,32.2z"/>
		</g>
		<path fill="#FFCE57" d="M38.1,24.1l8.2-4.8c-1.1-2.4-3.3-4.6-5.3-4.8c-5.9-0.6-5.6-0.6-5.8-0.6c-0.4,0-0.8,0.1-1.1,0.3L25.9,19
			c0.4-0.2,0.9-0.3,1.5-0.3l5.4,0.6C35,19.5,37.1,22,38.1,24.1L38.1,24.1z"/>
		<path fill="#ECAE24" d="M38.1,24.1c0.7,0.1,1.4,0.9,1.7,1.8l1.4,4.8c0.3,1-0.1,1.7-0.9,1.5c0,2-1.1,3.3-2.8,3.1L32,34.8
			c-0.6-0.1-1.1-0.3-1.7-0.6c-1.8-1-3.4-3.2-4.1-5.6L24.9,24c-0.9-3.2,0.2-5.5,2.5-5.3l5.4,0.6C35,19.5,37.1,21.9,38.1,24.1
			L38.1,24.1z"/>
		<path fill="#FFCE57" d="M49.4,26c-1.5-5.3-1.4-5-1.6-5.4c-0.3-0.6-0.9-1.2-1.5-1.2l-8.2,4.8c0.7,0.1,1.4,1,1.7,1.8l1.4,4.8
			c0.2,0.7,0.1,1.2-0.3,1.4c2.7-1.6,5.5-3.2,8.2-4.8C49.4,27.2,49.6,26.7,49.4,26L49.4,26z"/>
		<path fill="#A3CB04" d="M36.7,53.8c-2.5-1-3.8-2-3.9-3.2c-0.3-1.5,1.3-2.9,3-4.3c1.3-1.1,2.6-2.2,2.9-3.4c1.3-4.2,4.5-7.1,8.7-7.8
			c2.6-0.5,4.2,0.2,5.5,0.7c1.2,0.5,2.3,0.9,3.9,0.4c4.2-1.4,3-6.8,3-6.8l0.4-0.1c0,0.1,1.3,5.8-3.2,7.3c-1.7,0.6-2.9,0.1-4.2-0.4
			c-1.3-0.5-2.8-1.1-5.3-0.7c-4,0.7-7.2,3.5-8.4,7.5c-0.4,1.3-1.7,2.4-3.1,3.6c-1.5,1.3-3,2.6-2.8,3.9c0.2,1,1.4,1.9,3.7,2.8
			L36.7,53.8L36.7,53.8z"/>
		<polygon fill="#E0A522" points="54.7,29.5 62.5,25.5 63.3,28.2 55.5,32.2 54.7,29.5 		"/>
		<g>
			<defs>
				<path id="SVGID_51_" d="M62.8,25.4l-7.8,4c-0.1,0-0.2,0.1-0.3,0.1C63.1,25.2,62.8,25.4,62.8,25.4"/>
			</defs>
			<clipPath id="SVGID_52_">
				<use xlink:href="#SVGID_51_"  overflow="visible"/>
			</clipPath>
			<path clip-path="url(#SVGID_52_)" fill="#3F3F3F" d="M54.7,29.5c8.4-4.3,8-4.1,8-4.1l-7.8,4C54.9,29.4,54.8,29.4,54.7,29.5
				L54.7,29.5z"/>
		</g>
		<polygon fill="#E0A522" points="50.4,15.4 58.2,11.4 59,14.1 51.2,18.1 50.4,15.4 		"/>
		<path fill="#FFCE57" d="M49.4,11.3c-0.1,0-0.2,0-0.3,0.1c-2.6,1.3-5.2,2.6-7.8,4c0.1-0.1,0.2-0.1,0.3-0.1l8.8,0.1l7.8-4L49.4,11.3
			L49.4,11.3z"/>
		<g>
			<defs>
				<path id="SVGID_53_" d="M62.8,25.4c-2.6,1.3-5.2,2.6-7.8,4c1.4-0.7,1.9-2.9,1.1-5.5c-0.8-2.8-2.9-5.1-4.8-5.7l7.8-3.9
					c1.9,0.6,4,2.9,4.8,5.7C64.6,22.5,64.1,24.7,62.8,25.4"/>
			</defs>
			<clipPath id="SVGID_54_">
				<use xlink:href="#SVGID_53_"  overflow="visible"/>
			</clipPath>
			<path clip-path="url(#SVGID_54_)" fill="#ECAE24" d="M51.2,18.1l7.8-3.9c1.1,0.3,2.1,1.2,3,2.3l-7.8,4
				C53.4,19.3,52.3,18.4,51.2,18.1L51.2,18.1z"/>
			<path clip-path="url(#SVGID_54_)" fill="#F7DFA7" d="M54.3,20.4l7.8-4c0.6,0.8,1.2,1.7,1.6,2.8l-7.8,4
				C55.5,22.2,54.9,21.2,54.3,20.4L54.3,20.4z"/>
			<path clip-path="url(#SVGID_54_)" fill="#ECAE24" d="M55.8,23.2l7.8-4c0.1,0.2,0.1,0.4,0.2,0.6c0.8,2.6,0.3,4.8-1.1,5.5l-7.8,4
				c1.4-0.7,1.9-2.9,1.1-5.5C56,23.6,55.9,23.4,55.8,23.2L55.8,23.2z"/>
		</g>
		<polygon fill="#3F3F3F" points="50.4,15.4 58.2,11.4 60.5,11.5 52.7,15.4 50.4,15.4 		"/>
		<path fill="#141313" d="M61.1,25l-1.8,5.3l-3.8,1.9l2.3,0c0.2,0,0.4,0,0.5-0.1l0,0l0,0c2.6-1.3,5.2-2.6,7.8-4
			c0.3-0.1,0.5-0.4,0.6-0.8l2.1-6.3L61.1,25L61.1,25z"/>
		<path fill="#ECAE24" d="M50.4,15.4l0.8,2.7c1.9,0.6,4,2.9,4.8,5.7c0.8,2.8,0.2,5.1-1.3,5.6l0.8,2.7l2.3,0c0.5,0,1-0.3,1.1-0.9
			l2.1-6.3c0.1-0.3,0.1-0.6,0-0.9c0.1,0.3,0.1,0.7,0,0.9L59,31.3c-0.2,0.6-0.6,0.9-1.1,0.9l-13-0.2c-0.5,0-1.2-0.3-1.7-0.8L41.7,30
			c-0.6-0.5-1-1.2-1.3-2l-0.5-1.8c-0.2-0.8-0.2-1.5,0-2l0.9-1.7c0.1-0.3,0.2-0.6,0.2-1l-0.1-5c0-0.7,0.3-1.2,0.8-1.1L50.4,15.4
			L50.4,15.4z"/>
		<path fill="#303030" d="M68.3,19.2l-6.1-6.8c-0.5-0.6-1.2-0.9-1.7-1l-7.8,4c0.5,0,1.2,0.4,1.7,1c6.7,7.4,6.4,7,6.6,7.7
			c0.1,0.3,0.1,0.7,0,0.9l7.8-3.9C69.1,20.5,68.8,19.7,68.3,19.2L68.3,19.2z"/>
		<path fill="#222222" d="M52.7,15.4c0.5,0,1.2,0.4,1.7,1c6.7,7.4,6.4,7,6.6,7.7c0.1,0.3,0.1,0.7,0,0.9L59,31.3
			c-0.2,0.6-0.6,0.9-1.1,0.9l-2.3,0l-0.8-2.7c1.6-0.6,2.2-2.9,1.3-5.6c-0.8-2.8-2.9-5.1-4.8-5.7l-0.8-2.7L52.7,15.4L52.7,15.4z"/>
		<path fill="#444444" d="M61.9,10.2l-8,4.6c1.5-0.9,4,1.8,4,4.2c0,0.7-0.3,1.3-0.7,1.5l8-4.6c0.4-0.2,0.7-0.8,0.7-1.5
			C66,12,63.4,9.3,61.9,10.2L61.9,10.2z"/>
		<path fill="#2D2D2D" d="M55.6,15c1.3,0.7,2.3,2.6,2.3,4c0,1.5-1.1,2.1-2.3,1.3c-1.3-0.7-2.3-2.6-2.3-4
			C53.3,14.8,54.3,14.2,55.6,15L55.6,15z"/>
		<path fill="#222222" d="M75.7,26.8c-1,0.6-2.4,0.6-3.8,0l-9.9-4.6c-2.5-1.1-3.6-3.3-3-5c-0.4,1.2-0.8,2.4-1.3,3.6
			c-0.6,1.7,0.5,3.9,3,5l9.9,4.6c1.4,0.7,2.9,0.6,3.8,0c0.5-0.3,0.9-0.7,1-1.2c0.4-1.2,0.8-2.4,1.3-3.6
			C76.6,26.1,76.2,26.5,75.7,26.8L75.7,26.8z"/>
		<path fill="#FFCE57" d="M60.4,15.6c-2.7,1.5-1.8,5.1,1.6,6.6l9.9,4.6c1.4,0.7,2.9,0.6,3.8,0c1-0.6,1.4-1.6,0.9-2.8l-3.4-8.3
			c-1.2-2.9-5.5-4.4-8.2-2.8L60.4,15.6L60.4,15.6z"/>
		<path fill="#5B5B5B" d="M67.4,24.7l3.4,1.6l0,5.5c0,0.5,0.2,1,0.5,1.4l1.7,2.3c0.4,0.5,0.8,0.9,1.2,1.3l2.1,2
			c0.6,0.6,0.8,1.3,0.5,1.8c-0.1,0.1-0.2,0.2-0.3,0.2c-0.4,0.2-0.9,0.1-1.4-0.3l-2.7-1.9c-1-0.7-1.9-1.6-2.6-2.5l-1.7-2.3
			c-0.7-0.9-1.1-1.9-1.1-2.8L67.4,24.7L67.4,24.7z"/>
		<path fill="#303030" d="M76.5,40.9c-0.4,0.2-0.9,0.1-1.4-0.3l-2.7-1.9c-1-0.7-1.9-1.6-2.6-2.5l-1.7-2.3c-0.7-0.9-1.1-1.9-1.1-2.8
			l0.3-6.3L65,27.8l0,5.9c0,0.9,0.4,1.9,1.1,2.8l1.7,2.3c0.7,0.9,1.6,1.8,2.6,2.5l2.7,1.9c0.5,0.4,1.1,0.4,1.4,0.3
			c0.1,0,0.2-0.1,0.3-0.2c0.7-0.9,1.4-1.8,2.1-2.7C76.7,40.8,76.6,40.8,76.5,40.9L76.5,40.9z"/>
		<path d="M36.5,53.2c-3.2-1.1-4.9-2.3-5.2-3.8c-0.3-2.1,2.3-4.1,4.4-5.7c0.9-0.7,1.7-1.3,2.2-1.8c0.4-0.5,1-1,1.6-1.5
			c2.9-2.5,6.9-5.9,6.2-14.4c-0.3-4.2,0.3-7,1.9-8.1c1.3-1,2.8-0.4,2.8-0.3L50.4,18c0,0-1.3-0.5-2.4,0.3c-1,0.7-2.1,2.6-1.7,7.7
			c0.6,8.6-3.6,12.3-6.4,14.7c-0.6,0.5-1.2,1-1.6,1.5c-0.5,0.5-1.3,1.2-2.2,1.8c-2,1.6-4.6,3.5-4.3,5.3c0.2,1.3,1.9,2.4,4.9,3.5
			L36.5,53.2L36.5,53.2z"/>
		<path fill="#333333" d="M44.4,53.2c-1.4-2.3-3.7-3.5-5-2.7l-2.1,1.2c2.4-0.6,5.2,1.9,6.1,5c0.4,1.5,0.4,3.3-0.8,4l2.1-1.2
			C46.1,58.6,45.9,55.6,44.4,53.2L44.4,53.2z"/>
		<path fill="#1B1B1B" d="M39.9,52c2,1.2,3.7,4,3.7,6.4c0,2.3-1.7,3.3-3.7,2.1c-2-1.2-3.7-4-3.7-6.4C36.2,51.8,37.9,50.8,39.9,52
			L39.9,52z"/>
		<path fill="#B2B2B2" d="M40.7,55.4c-0.6-0.9-1.5-1.4-2-1.1l-0.8,0.5c1-0.2,2.1,0.8,2.4,2c0.2,0.6,0.1,1.3-0.3,1.6l0.8-0.5
			C41.4,57.6,41.3,56.4,40.7,55.4L40.7,55.4z"/>
		<path fill="#7F7F7F" d="M38.9,54.9c0.8,0.5,1.5,1.6,1.5,2.5c0,0.9-0.7,1.3-1.5,0.8c-0.8-0.5-1.5-1.6-1.5-2.5
			C37.4,54.8,38.1,54.4,38.9,54.9L38.9,54.9z"/>
		<path fill="#303030" d="M41.4,52.5L41.4,52.5L41.4,52.5c0,0,0.1-0.3,0.6-0.5c0.4-0.2,0.6-0.2,0.6-0.2L35.4,31l-1.2,0.7L41.4,52.5
			L41.4,52.5z"/>
		<polygon fill="#424242" points="31.2,31.7 31.2,31.7 32.5,31.7 32.5,31.7 32.9,31.7 33.7,31.7 33.7,31.7 34.2,31.7 34.2,31.7 
			35.4,31 31.1,31 30,31.7 31.2,31.7 31.2,31.7 		"/>
		<polygon fill="#282828" points="41.3,52.5 41.4,52.5 41.4,52.5 41.4,52.5 41.3,52.5 		"/>
		<path fill="#282828" d="M32.9,31.7L32.9,31.7l6.9,19.9c0.2,0.1,0.5,0.2,0.7,0.3c0.1,0.1,0.2,0.1,0.3,0.2l-7-20.4L32.9,31.7
			L32.9,31.7z"/>
		<path fill="#282828" d="M37.3,51.7c0.2-0.1,0.5-0.2,0.8-0.2l-6.8-19.8l-1.2,0l0,0l0.4,0L37.3,51.7L37.3,51.7z"/>
		<path fill="#282828" d="M31.2,31.7l0.4,0l6.8,19.7c0.3-0.1,0.5-0.1,0.8,0l-6.8-19.7L31.2,31.7L31.2,31.7z"/>
		<polygon fill="#424242" points="37,52 30,31.7 29.9,31.7 36.9,52 37,52 		"/>
		<path fill="#424242" d="M37.3,51.7l-6.9-20l-0.4,0L37,52C37.1,51.9,37.2,51.8,37.3,51.7L37.3,51.7z"/>
		<polygon fill="#424242" points="31.2,31.7 31.2,31.7 31.2,31.7 31.2,31.7 		"/>
		<path fill="#424242" d="M31.2,31.7L31.2,31.7L38,51.5l0.1,0c0.1,0,0.2-0.1,0.3-0.1l-6.8-19.7L31.2,31.7L31.2,31.7z"/>
		<polygon fill="#424242" points="32.5,31.7 32.5,31.7 32.9,31.7 32.5,31.7 		"/>
		<path fill="#424242" d="M32.9,31.7l-0.4,0l6.8,19.7c0.2,0,0.3,0.1,0.5,0.1L32.9,31.7L32.9,31.7L32.9,31.7z"/>
		<polygon fill="#424242" points="41.4,52.5 41.4,52.5 34.2,31.7 41.4,52.5 		"/>
		<polygon fill="#424242" points="34.2,31.7 34.2,31.7 33.7,31.7 33.7,31.7 34.2,31.7 		"/>
		<path fill="#424242" d="M34.2,31.7l-0.4,0l7,20.4c0.2,0.1,0.4,0.3,0.6,0.4h0L34.2,31.7L34.2,31.7z"/>
		<path fill="#333333" d="M35.2,25.8c-1.4-2.3-3.7-3.5-5-2.7l-2.1,1.2c2.4-0.6,5.2,1.9,6.1,5c0.4,1.5,0.3,3.3-0.8,4l2.1-1.2
			C36.9,31.2,36.7,28.2,35.2,25.8L35.2,25.8z"/>
		<path fill="#1B1B1B" d="M30.7,24.6c2,1.2,3.7,4,3.7,6.4c0,2.3-1.7,3.3-3.7,2.1c-2-1.2-3.7-4-3.7-6.4C27,24.4,28.7,23.4,30.7,24.6
			L30.7,24.6z"/>
		<path fill="#B2B2B2" d="M31.5,27.9c-0.6-0.9-1.5-1.4-2-1.1l-0.8,0.5c1-0.2,2.1,0.8,2.4,2c0.2,0.6,0.1,1.3-0.3,1.6l0.8-0.5
			C32.2,30.1,32.1,28.9,31.5,27.9L31.5,27.9z"/>
		<path fill="#7F7F7F" d="M29.7,27.4c0.8,0.5,1.5,1.6,1.5,2.5c0,0.9-0.7,1.3-1.5,0.8c-0.8-0.5-1.5-1.6-1.5-2.5
			C28.2,27.3,28.9,27,29.7,27.4L29.7,27.4z"/>
		<g>
			<defs>
				<path id="SVGID_55_" d="M54,15.7l7.7,6.3c-0.4-0.3-1-0.3-1.9,0.2c-1.5,0.9-3,2.8-3.3,4.4c-0.1,0.7,0,1.2,0.3,1.4l-7.7-6.3
					c-0.3-0.2-0.4-0.7-0.3-1.4c0.3-1.5,1.8-3.5,3.3-4.4C53,15.4,53.7,15.4,54,15.7"/>
			</defs>
			<clipPath id="SVGID_56_">
				<use xlink:href="#SVGID_55_"  overflow="visible"/>
			</clipPath>
			<path clip-path="url(#SVGID_56_)" fill="#444444" d="M54,15.7l7.7,6.3c-0.4-0.3-1-0.3-1.9,0.2c-1.5,0.9-3,2.8-3.3,4.4
				c-0.1,0.7,0,1.2,0.3,1.4l-7.7-6.3c-0.3-0.2-0.4-0.7-0.3-1.4c0.3-1.5,1.8-3.5,3.3-4.4C53,15.4,53.7,15.4,54,15.7L54,15.7z"/>
		</g>
		<path fill="#2D2D2D" d="M62.1,23.3c-0.3,1.5-1.8,3.5-3.3,4.4c-1.5,0.9-2.5,0.3-2.2-1.2c0.3-1.5,1.8-3.5,3.3-4.4
			C61.4,21.3,62.4,21.8,62.1,23.3L62.1,23.3z"/>
		<path fill="#2D2D2D" d="M50.1,20.7L50.1,20.7c-0.2,0-0.2-0.1-0.2-0.3c0-0.1,0.7-2.8,3.3-3.8c0.1,0,0.2,0,0.3,0.1
			c0,0.1,0,0.2-0.1,0.3c-2.5,0.9-3.1,3.5-3.1,3.5C50.3,20.6,50.2,20.7,50.1,20.7L50.1,20.7z"/>
		<path fill="#2D2D2D" d="M51.1,21.5L51.1,21.5c-0.2,0-0.2-0.1-0.2-0.3c0-0.1,0.7-2.8,3.3-3.8c0.1,0,0.2,0,0.3,0.1
			c0,0.1,0,0.2-0.1,0.3c-2.5,0.9-3.1,3.5-3.1,3.5C51.3,21.4,51.2,21.5,51.1,21.5L51.1,21.5z"/>
		<path fill="#2D2D2D" d="M52.1,22.3L52.1,22.3c-0.2,0-0.2-0.1-0.2-0.3c0-0.1,0.7-2.8,3.3-3.8c0.1,0,0.2,0,0.3,0.1
			c0,0.1,0,0.2-0.1,0.3c-2.5,0.9-3.1,3.5-3.1,3.5C52.3,22.2,52.2,22.3,52.1,22.3L52.1,22.3z"/>
		<path fill="#2D2D2D" d="M53.1,23.1L53.1,23.1c-0.2,0-0.2-0.1-0.2-0.3c0-0.1,0.7-2.8,3.3-3.8c0.1,0,0.2,0,0.3,0.1
			c0,0.1,0,0.2-0.1,0.3c-2.5,0.9-3.1,3.5-3.1,3.5C53.3,23,53.2,23.1,53.1,23.1L53.1,23.1z"/>
		<path fill="#2D2D2D" d="M54.1,23.9L54.1,23.9c-0.2,0-0.2-0.1-0.2-0.3c0-0.1,0.7-2.8,3.3-3.8c0.1,0,0.2,0,0.3,0.1
			c0,0.1,0,0.2-0.1,0.3c-2.5,0.9-3.1,3.5-3.1,3.5C54.3,23.8,54.2,23.9,54.1,23.9L54.1,23.9z"/>
		<path fill="#2D2D2D" d="M55.1,24.6L55.1,24.6c-0.2,0-0.2-0.1-0.2-0.3c0-0.1,0.7-2.8,3.3-3.8c0.1,0,0.2,0,0.3,0.1
			c0,0.1,0,0.2-0.1,0.3c-2.5,0.9-3.1,3.5-3.1,3.5C55.2,24.6,55.2,24.6,55.1,24.6L55.1,24.6z"/>
	</g>
</g>
</svg>
