<?xml version="1.0" encoding="utf-8"?>
<!-- Generator: Adobe Illustrator 18.1.1, SVG Export Plug-In . SVG Version: 6.00 Build 0)  -->
<svg version="1.1" xmlns="http://www.w3.org/2000/svg" xmlns:xlink="http://www.w3.org/1999/xlink" x="0px" y="0px"
	 viewBox="0 0 100 100" enable-background="new 0 0 100 100" xml:space="preserve">
<g id="Capa_1">
</g>
<g id="Capa_2">
	<g>
		<defs>
			<filter id="Adobe_OpacityMaskFilter" filterUnits="userSpaceOnUse" x="31" y="89.4" width="37.4" height="4.8">
				<feColorMatrix  type="matrix" values="1 0 0 0 0  0 1 0 0 0  0 0 1 0 0  0 0 0 1 0"/>
			</filter>
		</defs>
		<mask maskUnits="userSpaceOnUse" x="31" y="89.4" width="37.4" height="4.8" id="SVGID_1_">
			<g filter="url(#Adobe_OpacityMaskFilter)">
				<defs>
					<filter id="Adobe_OpacityMaskFilter_1_" filterUnits="userSpaceOnUse" x="29.8" y="88.8" width="39.7" height="5.9">
						<feFlood  style="flood-color:white;flood-opacity:1" result="back"/>
						<feBlend  in="SourceGraphic" in2="back" mode="normal"/>
					</filter>
				</defs>
				<mask maskUnits="userSpaceOnUse" x="29.8" y="88.8" width="39.7" height="5.9" id="SVGID_1_">
					<g filter="url(#Adobe_OpacityMaskFilter_1_)">
					</g>
				</mask>
				
					<radialGradient id="SVGID_2_" cx="-2331.72" cy="62488.1133" r="14.908" gradientTransform="matrix(1.2017 0 0 0.1624 2851.6714 -10056.3096)" gradientUnits="userSpaceOnUse">
					<stop  offset="0" style="stop-color:#FFFFFF"/>
					<stop  offset="7.362918e-002" style="stop-color:#E1E1E1"/>
					<stop  offset="0.2544" style="stop-color:#9E9E9E"/>
					<stop  offset="0.4259" style="stop-color:#666666"/>
					<stop  offset="0.5834" style="stop-color:#3A3A3A"/>
					<stop  offset="0.724" style="stop-color:#1B1B1B"/>
					<stop  offset="0.8425" style="stop-color:#080808"/>
					<stop  offset="0.9247" style="stop-color:#010101"/>
				</radialGradient>
				<path mask="url(#SVGID_1_)" fill="url(#SVGID_2_)" d="M69.5,91.8c0,1.6-8.9,3-19.9,3c-11,0-19.8-1.3-19.8-3c0-1.6,8.9-3,19.8-3
					C60.6,88.8,69.5,90.1,69.5,91.8z"/>
			</g>
		</mask>
		
			<radialGradient id="SVGID_3_" cx="-2408.7185" cy="62605.207" r="15.7501" gradientTransform="matrix(1.1502 0 0 0.1329 2820.1511 -8228.4746)" gradientUnits="userSpaceOnUse">
			<stop  offset="0" style="stop-color:#010101"/>
			<stop  offset="0.9247" style="stop-color:#010101"/>
		</radialGradient>
		<path opacity="0.2" fill="url(#SVGID_3_)" d="M68.3,91.8c0,1.3-8.4,2.4-18.7,2.4c-10.3,0-18.7-1.1-18.7-2.4
			c0-1.3,8.4-2.4,18.7-2.4C60,89.4,68.3,90.4,68.3,91.8z"/>
		<g>
			<g>
				<g>
					<path fill="#F8B881" d="M71.1,63.1c-0.9,0.4-2.5,0.9-2.5,2.1c0,0.8,0.6,0.8,1.2,1.1c0.6,0.3,1.1,0.6,1.4,1.2
						c0.6,1,2.1,1,3.3,0.7c1.3-0.3,2-2.1,2.3-3.8c0.2-0.7-0.1-1.5-0.8-1.7c1.1-0.7,0.8-1.8-1-1.3c-0.4,0.1-1,0-1.5,0.1
						C72.1,61.4,71.7,62.1,71.1,63.1z"/>
					<path opacity="0.4" fill="#D99D7A" d="M74.1,62.3c-0.7,0.2-2.6,1.5-2,0c-0.3,0.6-1,0.7-1,1.6c0,0.8,0.3,1.5,0.2,2.3
						c-0.1,0.7,0,1.4,0.8,1.6c0.4,0.1,2,0.5,1.7-0.5c-0.3-0.1-1.6-2.1-1.3-2.9c0.4-1.1,2.4-1.7,3-2C75.4,62.4,75.1,62.1,74.1,62.3z"
						/>
				</g>
			</g>
			<g>
				<path fill="#1E1E29" d="M57.5,53.6c0,0,0.2,3.1,3.6,8.1c3.7,5.3,9.2,6.3,9.2,6.3l0.8-5.8c0,0-3.8-1.2-6.2-4.9
					c-1.2-1.8-1.9-4.5-2.6-5.9c-1.1-2.2-4.7-3.6-4.7-3.6L57.5,53.6z"/>
			</g>
			<g>
				<g>
					<path fill="#F8B881" d="M29.1,60.8c0.7,0.7,2,1.8,1.6,2.9c-0.3,0.8-0.9,0.6-1.5,0.6c-0.7,0-1.2,0.2-1.8,0.6
						c-0.9,0.7-2.3,0.2-3.3-0.5C23,63.6,23,61.7,23.4,60c0.1-0.7,0.6-1.4,1.4-1.3c-0.8-1-0.1-2,1.4-0.9c0.4,0.3,1,0.4,1.4,0.6
						C28.7,58.9,28.8,59.7,29.1,60.8z"/>
					<path opacity="0.4" fill="#D99D7A" d="M26.5,59c0.6,0.4,1.9,2.3,1.9,0.7c0,0.7,0.7,1.1,0.4,1.8c-0.3,0.7-0.8,1.3-1,2.1
						c-0.2,0.7-0.5,1.3-1.4,1.2c-0.5-0.1-2-0.2-1.4-1.1c0.3,0,2.2-1.3,2.3-2.2c0.1-1.2-1.7-2.5-2-2.9C25.3,58.7,25.7,58.5,26.5,59z"
						/>
				</g>
			</g>
			<g>
				<path fill="#1E1E29" d="M41.9,54c0,0-0.2,3.1-3.6,8.1c-3.7,5.3-10.2,3.6-10.2,3.6l1.4-5.7c0,0,2.7,1.4,5.1-2.3
					c1.2-1.8,1.9-4.5,2.6-5.9c1.1-2.2,4.7-3.6,4.7-3.6L41.9,54z"/>
			</g>
			<path fill="#FFF8EC" d="M42.5,48.2c-2.8,2.4-3.6,5.2,0.6,9.4c4.2,4.2,7.2,4.7,7.2,4.7s9.3-8.9,7.7-13
				C56,44.4,45.3,45.8,42.5,48.2z"/>
			<path fill="#313243" d="M49.6,51.7c2.1-0.4,2.8,1.2,2.8,1.2l-0.9,1.9l2.1,5.7l-2.6,5.8l-3.6-5.5l1.7-5.6l-1.5-1.6
				C47.4,53.6,47.7,52,49.6,51.7z"/>
			<path fill="#0D0F12" d="M44.1,85.4c3.7-1,4.3,4.5,1.8,7.1c-2.5,2.6-6.1,1.7-5-2.2C41.4,88.2,42.1,86,44.1,85.4z"/>
			<path fill="#0D0F12" d="M55.6,85.4c-3.8-0.7-3.8,4.9-1.1,7.2c2.7,2.3,6.3,1,4.8-2.8C58.5,87.9,57.6,85.7,55.6,85.4z"/>
			<path fill="#252728" d="M58.7,89.9c-0.1-0.2-0.3-0.5-0.5-0.7c-0.5,0.5-1.9,0.5-2.5,0.6c-0.7,0.1-1.7,0.2-0.8,1
				c0.7,0.7,1.9,1.2,2.8,1.1C58.8,91.7,59.1,90.7,58.7,89.9z"/>
			<path fill="#1D1D27" d="M41.5,66c-0.1,2.7-0.2,5.4-0.3,8.1c-0.1,4,0.5,9.5-0.8,13.4c0.6,0.3,1.2,0.5,1.8,0.8c2.3,0.8,4.7,0,7-0.4
				c-0.7-7,0.9-14.1,1-21C50.2,65.2,41.5,63.7,41.5,66z"/>
			<path fill="#1D1D27" d="M50,68.1c0.5,3.6,0.3,7.5,0.3,11.1c0,2.6-0.1,6-0.2,8.5c0.8,0.3,3.3,0.8,3.9,0.8c1.7,0,4.1-0.6,5.1-1.2
				c-0.8-2.7-1.4-7.6-1.7-11.7c-0.2-3,0.7-6.9-0.1-9.8C56.8,63.8,49.5,64.5,50,68.1z"/>
			<path fill="#1D1D27" d="M49.4,76.3c0.2-0.8,0.8-0.8,0.9,0c0.1,0.8,4.2,0.1,3.2-3.2c-1-3.2-3.1-4.3-5.3-3.7
				C46,70.1,47.2,75.3,48,76C48.8,76.6,49.3,77,49.4,76.3z"/>
			<path fill="#121219" d="M41.2,73.3v2.9c0,0,3.4-0.5,8.2,0.8c0,0,0.1-0.6,0.2-0.8c0.1-0.3,0.7-0.3,0.7,0.1c0,0.5,0,0.7,0,0.7
				s2.6-2.1,7.2-0.8l0-2.8l-7.6-2.3L41.2,73.3z"/>
			<g>
				<path fill="#1E1E29" d="M60.2,60c0.7-3.9,2.7-7.4-0.3-10.6c-0.6-0.7-1.5-1.2-2.4-1.7c0.1,0.3,0.2,0.6,0.1,0.9
					c-0.6,6.2-7.2,12.5-7.2,12.5s-9.7-8.4-8.1-12.6c0.1-0.4,0.3-0.7,0.5-1c-2.2,1-4.4,2.4-5,4.5c-0.7,2.3,1,7.4,1.4,10.7
					c0.2,2.1,0.4,8.4-0.1,10.6c1.5,0.7,8,1.8,9.6,0.9c1.3-0.7,1.9-2.2,2-2.5c0,4,9.5,2.3,9.4,1.9C59.8,71.5,59.5,63.7,60.2,60z"/>
			</g>
			<path fill="#121219" d="M50.6,62.7c0,0-0.7,1.8,0.2,4.8C50.8,67.6,50.7,65.2,50.6,62.7z"/>
			<circle fill="#121219" cx="50" cy="68.1" r="0.6"/>
			<circle fill="#121219" cx="49.7" cy="62.3" r="0.6"/>
			<path fill="#252728" d="M41.4,90.2c0.1-0.3,0.2-0.5,0.4-0.7c0.5,0.5,1.9,0.3,2.6,0.3c0.7,0,1.7,0,0.9,0.9
				c-0.6,0.7-1.7,1.3-2.7,1.4C41.5,92.1,41.1,91.1,41.4,90.2z"/>
			<path fill="#121219" d="M50.8,72l0.2-3.4c0,0-0.1,4,0.5,5C51.4,73.5,50.9,73.4,50.8,72z"/>
			<path fill="#121219" d="M56.7,47c0,0,3.9,2.4,5.4,5.4l-3.8,1.3c0,0,2.1,3.1,2.2,3.5c0.1,0.3-3.2,0.8-5.6,2.2
				c-2.2,1.3-4.2,2.7-4.2,2.7s-0.4-0.5-0.1-1C50.9,60.7,57.6,54.7,56.7,47z"/>
			<path fill="#313243" d="M56.7,47c0,0,3,1.8,4.6,4.8L58,53.6c0,0,1.8,2.5,1.9,3c0.1,0.3-2.7,1.2-5.1,2.6c-2.2,1.3-4,3-4,3
				s-0.4-0.5-0.1-1C50.9,60.7,57.6,54.7,56.7,47z"/>
			<path fill="#121219" d="M43.1,47.6c0,0-4.2,2.3-5.5,5.5l4.2,0.9c0,0-1.7,3.8-1.8,4.3c0,0.3,3.4-0.3,7.1,1.6c2,1,3.3,2.3,3.3,2.3
				s0.3-0.5,0-1.1C50.2,60.6,43.1,55.9,43.1,47.6z"/>
			<path fill="#313243" d="M43.1,47.6c0,0-3.3,1.6-4.6,4.8l3.9,1.5c0,0-1.7,3.2-1.7,3.7c0,0.3,2.9,0.2,6.6,2.1c2,1,3.2,2.5,3.2,2.5
				s0.3-0.5,0-1.1C50.2,60.6,43.1,55.9,43.1,47.6z"/>
			<path opacity="0.2" fill="#A09583" d="M57.1,49.9c0,0-0.8,2.6-3.9,5.3L50,52.6l-3,2.8c0,0-2.6-1.6-3.6-4.8
				c-1-3.2,7.9-2.9,10.1-1.7C55.8,50.1,57.1,49.9,57.1,49.9z"/>
			<path fill="#FFF8EC" d="M50,52.6l3,1.9c0,0,5.9-3.1,3.7-7.5c-2-4-12.1-3.6-13.8,0.7c-1.5,3.8,3.9,6.9,3.9,6.9L50,52.6z"/>
			<path fill="#EF9E6D" d="M45.3,49.6c0.6,0.6,1.5,1.2,2.5,1.5c0.7,0.2,1.9,1,2.2,1c0.1,0,0.5-0.4,1.2-0.7c1-0.5,2.4-1.2,2.9-2.2
				c0.8-1.5,1.5-4.6,0-5.8c-1.5-1.2-4.5-1.4-6.4-1c-1.9,0.4-3.2,2.2-3.3,4.1C44.3,48,44.5,48.8,45.3,49.6z"/>
			<g>
				<path fill="#4F2C1E" d="M62.1,26.5c-0.1-4.8-0.7-6.5-0.6-8.4c0.4-8.2-6.6-13.7-18.1-11.9c-20,3.1-14.5,30.8-8.9,29.2
					c4.2-1.2,8.3-2.7,12.4-4.1c3.8-1.3,8.2-0.9,12.3-0.9C62.3,30.4,62.1,29.1,62.1,26.5z"/>
				<path fill="#F8B881" d="M34.9,35.1c1.6,7.4,8,15.2,16.6,13.9c8.8-1.3,12.4-12.6,10.5-21.7c-2-9.9-7.4-17.9-17.6-15.1
					C37.2,14.1,32.8,25.2,34.9,35.1z"/>
				<path opacity="0.5" fill="#D99F7C" d="M42.5,31.5c0.9-0.9-2.1-0.8-2.6-0.6c0.1,0.6,1.4,0.2,1.8,0.3c-0.3,0.4-1.4,0.5-1.8,0.8
					c-0.4,0.3-0.4,0.5,0.2,0.4C40.4,32.3,42.3,31.7,42.5,31.5z"/>
				<path opacity="0.5" fill="#D99F7C" d="M58.8,29.6c-0.8-0.8,1.7-1,2.1-0.9c0,0.6-1.2,0.4-1.5,0.5c0.3,0.4,1.2,0.3,1.5,0.5
					c0.4,0.2,0.3,0.4-0.1,0.4C60.5,30.1,59,29.7,58.8,29.6z"/>
				<g>
					<path fill="#131C22" d="M43.7,31.8c-0.6-0.2-1.3-0.2-1.9,0c-1.4-1-0.4-4.5,1.5-3.8C44.8,28.5,44.9,31,43.7,31.8z"/>
				</g>
				<path opacity="0.35" fill="#B54817" d="M53.6,32.7c0.4,0.3-0.3,1.7-1.9,2c-1.7,0.2-2.7-1.1-2.1-1.5c0.6-0.4,1.1-0.1,2-0.2
					C52.6,32.8,53.1,32.3,53.6,32.7z"/>
				<path fill="#FAC698" d="M53.6,32.8c0.2-0.3-0.5-1.3-1-2.4c-0.5-0.9-1.1-3-2.1-2.9c-0.8,0.1-0.8,2.4-1,3.5
					c-0.2,1.1-0.3,2.1,0.2,2.4C50.8,34.1,53,33.4,53.6,32.8z"/>
				<g>
					<path fill="#131C22" d="M58.7,26.7c1.1,0.5,1.2,2.2,0.6,3.1c-0.6,0-1.2,0.2-1.6,0.6C55.4,30,56.6,25.8,58.7,26.7z"/>
				</g>
				<path fill="#7E8CA9" d="M42.8,28.5c0.7-0.3,1.2,0.7,0.7,1.2C42.8,30.3,42.1,28.8,42.8,28.5z"/>
				<path fill="#7E8CA9" d="M58.2,27.2c0.6-0.2,1,0.8,0.5,1.1C58,28.9,57.5,27.5,58.2,27.2z"/>
				<path fill="#F8B881" d="M33.4,38.4c1,0.3,2,0.2,3,0.1c0,0,0-0.1,0.1-0.1c0.4-0.7-0.7-4.2-0.9-4.9c-0.7-1.8-1.7-3-3.4-2.4
					C28.4,32.4,30.3,37.6,33.4,38.4z"/>
				<path opacity="0.5" fill="#D99F7C" d="M61,23c-0.9-2.9-3.7-1.8-7.1-1.2c-5.5,1-11.9,1.7-16.4,0.1c0.3,2.9-1.8,4.1-2.6,6.9
					c-0.4,1.5-1-5.4-1-6.3c-0.1-2.4-0.2-5.7,1.6-7.5c2.2-2.3,6.6-2.5,9.6-2.7c4.4-0.3,8.4,0.4,12.6,1.7C60.5,14.8,61.2,20.4,61,23z"
					/>
				<path opacity="0.6" fill="#D99F7C" d="M34.7,37c1.3-0.9-0.2-3.7-1.2-4c-0.8-0.3-2.8,0.5-1.8,2c0.4-1.5,1.4-0.6,1.3,0.4
					c0,0.7-0.8,0.8,0,1.6C33.5,37.5,34.3,37.3,34.7,37z"/>
				<path fill="#4F2C1E" d="M58.9,19.3c-11.4,3.4-20.8,2.3-22.2,1.3c0.4,2.3-0.4,3.6-0.8,5.4c-0.8,3.2,0,6.5,1.4,7.7
					c-0.7,0.2-1.6,0.3-2,0.1c-0.6-0.6-1.7-2.5-1.9-4.2c-0.2-1.9-7-17,7.4-22.6C51.4,3,59.7,10.7,64.1,6.6c0.2,2.5,0.2,6-1.3,7.9
					c1.2-0.2,1.8-0.4,2.8-0.6C64.6,15.8,62.6,18.2,58.9,19.3z"/>
				<path fill="#4F2C1E" d="M60.4,25.8c0.5,0.2,0.6-0.5,0.4-0.7c-0.7-0.8-1.6-1.7-3.6-1.7c-1.4-0.1-2.5-0.2-2.5-0.2
					c0,0.8,0.3,2.5,1.4,2.4c0.6-0.1,1.3-0.2,2-0.2C59.1,25.4,60,25.7,60.4,25.8z"/>
				<path fill="#4F2C1E" d="M40.1,27.8c-0.5,0.3-0.8-0.3-0.7-0.6c0.5-0.9,1.1-2,3.3-2.7c1.5-0.4,2.5-0.9,2.6-0.8
					c0.3,0.8,0.5,2.5-0.7,2.7c-0.7,0.1-1.4,0.2-2.1,0.3C41.3,27,40.5,27.5,40.1,27.8z"/>
				<path fill="#FAC698" d="M61.2,31.6c0.1,0.1,0.3,0.3,0.4,0.5c1,1.9-3.7,2.2-4.4,1.5c-1.4-1.4,0.1-2.1,1.2-2.4
					C59.2,31,60.5,30.9,61.2,31.6z"/>
				<path fill="#FAC698" d="M44.1,33.2c0.1,0.1,0.3,0.3,0.4,0.5c0.9,2-4,2.2-4.7,1.4c-1.4-1.5,0.1-2.2,1.3-2.4
					C42.1,32.5,43.4,32.5,44.1,33.2z"/>
				<path fill="#6A3B27" d="M63.6,7.6c0,0-1.9,9.3-14.8,10.5c-14.1,1.3-17.9-2.1-14.2-6.8c3.8-4.7,11.9-5.2,17.3-4.1
					C57.3,8.2,59.9,9.7,63.6,7.6z"/>
				<g>
					<g opacity="0.35">
						<path fill="#B54A17" d="M60.1,36c-0.4-0.7-2.3-0.1-2.3-0.1c-0.3,0.1,0.3,0.2,1.1,0.3c0.2,0,0.3,0.1,0.3,0.2
							c-3.7,1.6-11.9,2.9-17.1,1.6c0,0,0.1-0.1,0.1-0.1c0.7-0.5,1.8-0.6,1.5-0.8c0,0-1.8,0.1-2.5,0.6c-0.6,0.5-0.5,1.8,0,1.8
							c0.4,0,0.4-0.7,0.7-1.2c0.5,1.4,2.8,6.8,9,6.4c4.7-0.3,6-2,6-4.3c0-1.3,1.5-3,2.4-3.9c0.1,0.4-0.1,1,0.2,1
							C60,37.5,60.5,36.7,60.1,36z"/>
					</g>
					<path fill="#902824" d="M43.1,38.9c0,0,6.6,1.3,14.9-1.6c0,0-1.3,0.8-1.4,2.5c-0.1,1.3-0.5,3.2-5.5,3.7
						C45.6,44.2,43.1,38.9,43.1,38.9z"/>
					<path fill="#FFF9F1" d="M45,39.1c0,0,0.2,1.9,2,2.4c2.3,0.7,4.7,0.7,7.1-0.2c1.6-0.6,2.4-3.5,2.4-3.5S51.9,39.1,45,39.1z"/>
					<path fill="#FFF9F1" d="M45.9,41.9c-0.2-0.4-0.2-0.9,0.7-0.6c1.1,0.3,3.2,0.5,5.5,0.3c2.4-0.2,2.8-1.2,3.3-0.7
						c0.5,0.4-1,2.8-4.8,2.8C46.3,43.7,45.9,41.9,45.9,41.9z"/>
					<path fill="#E8DAC5" d="M45.2,39.9c0,0,8.8-1.6,10.9-1c0,0,0.3-0.6,0.4-1.1c0,0-6.2,1.4-11.5,1.3C45,39.1,45.1,39.7,45.2,39.9z
						"/>
					<path fill="#E8DAC5" d="M47.1,41.2c0,0,3.3,0.8,7.8-0.4C54.9,40.8,50.9,42.7,47.1,41.2z"/>
				</g>
			</g>
		</g>
		<rect x="26.1" y="53.8" fill="#E9E8E8" width="47.7" height="25"/>
		<g>
			<path opacity="0.2" fill="#A19E99" d="M26.1,59.4c0,0,1.7,0.5,1.9,1.7c0.2,0.8-0.6,0.7-0.6,0.7s1.3,3.6-1.3,3
				C26.1,62.5,26.1,59.4,26.1,59.4z"/>
			<path fill="#F8B881" d="M24.5,58.8c-0.7,0.2-1.2,1-1.2,2.3c0,1.1,0.3,2.9,0.9,3.3c0.6,0.4,0.7-0.2,1-0.4c0.4-0.2,1.1,0.1,1.5,0
				c1-0.3,1-1.7,0.4-2.5c0.7,0.2,0.5-1.2-0.4-1.8C25.8,59,25.3,58.6,24.5,58.8z"/>
		</g>
		<g>
			<path opacity="0.2" fill="#A19E99" d="M73.8,62.7c0,0-1.1,0.1-1.7,1.1c-0.4,0.7,0.4,0.8,0.4,0.8s-0.6,0.7-0.8,1.6
				c-0.2,0.9,0.4,2,2.1,1.5C73.8,65.6,73.8,62.7,73.8,62.7z"/>
			<path fill="#F8B881" d="M76.2,62.6c0.6,0.4,0.9,1.3,0.5,2.5c-0.3,1-1.1,2.7-1.8,2.9c-0.7,0.2-0.6-0.3-0.9-0.6
				c-0.3-0.3-1.1-0.2-1.4-0.5c-0.8-0.6-0.5-1.9,0.3-2.5c-0.7,0-0.1-1.3,0.9-1.7C74.9,62.5,75.5,62.2,76.2,62.6z"/>
		</g>
	</g>
</g>
</svg>
