<?xml version="1.0" encoding="utf-8"?>
<!-- Generator: Adobe Illustrator 18.1.1, SVG Export Plug-In . SVG Version: 6.00 Build 0)  -->
<svg version="1.1" xmlns="http://www.w3.org/2000/svg" xmlns:xlink="http://www.w3.org/1999/xlink" x="0px" y="0px"
	 viewBox="0 0 100 100" enable-background="new 0 0 100 100" xml:space="preserve">
<g id="Capa_1">
</g>
<g id="Capa_2">
	<g>
		<defs>
			<filter id="Adobe_OpacityMaskFilter" filterUnits="userSpaceOnUse" x="35.8" y="92.9" width="39.8" height="5.1">
				<feColorMatrix  type="matrix" values="1 0 0 0 0  0 1 0 0 0  0 0 1 0 0  0 0 0 1 0"/>
			</filter>
		</defs>
		<mask maskUnits="userSpaceOnUse" x="35.8" y="92.9" width="39.8" height="5.1" id="SVGID_1_">
			<g filter="url(#Adobe_OpacityMaskFilter)">
				<defs>
					<filter id="Adobe_OpacityMaskFilter_1_" filterUnits="userSpaceOnUse" x="34.6" y="92.3" width="42.3" height="6.3">
						<feFlood  style="flood-color:white;flood-opacity:1" result="back"/>
						<feBlend  in="SourceGraphic" in2="back" mode="normal"/>
					</filter>
				</defs>
				<mask maskUnits="userSpaceOnUse" x="34.6" y="92.3" width="42.3" height="6.3" id="SVGID_1_">
					<g filter="url(#Adobe_OpacityMaskFilter_1_)">
					</g>
				</mask>
				
					<radialGradient id="SVGID_2_" cx="-3264.4241" cy="62510.6953" r="15.8781" gradientTransform="matrix(1.2017 0 0 0.1624 3978.571 -10056.3096)" gradientUnits="userSpaceOnUse">
					<stop  offset="0" style="stop-color:#FFFFFF"/>
					<stop  offset="7.362918e-002" style="stop-color:#E1E1E1"/>
					<stop  offset="0.2544" style="stop-color:#9E9E9E"/>
					<stop  offset="0.4259" style="stop-color:#666666"/>
					<stop  offset="0.5834" style="stop-color:#3A3A3A"/>
					<stop  offset="0.724" style="stop-color:#1B1B1B"/>
					<stop  offset="0.8425" style="stop-color:#080808"/>
					<stop  offset="0.9247" style="stop-color:#010101"/>
				</radialGradient>
				<path mask="url(#SVGID_1_)" fill="url(#SVGID_2_)" d="M76.9,95.4c0,1.7-9.5,3.2-21.1,3.2c-11.7,0-21.1-1.4-21.1-3.2
					c0-1.8,9.5-3.2,21.1-3.2C67.4,92.3,76.9,93.7,76.9,95.4z"/>
			</g>
		</mask>
		
			<radialGradient id="SVGID_3_" cx="-3383.1843" cy="62632.8008" r="16.7794" gradientTransform="matrix(1.1502 0 0 0.1329 3947.0515 -8228.4746)" gradientUnits="userSpaceOnUse">
			<stop  offset="0" style="stop-color:#010101"/>
			<stop  offset="0.9247" style="stop-color:#010101"/>
		</radialGradient>
		<path opacity="0.2" fill="url(#SVGID_3_)" d="M75.6,95.4c0,1.4-8.9,2.5-19.9,2.5c-11,0-19.9-1.1-19.9-2.5c0-1.4,8.9-2.6,19.9-2.6
			C66.7,92.9,75.6,94,75.6,95.4z"/>
		<path fill="#F8B881" d="M30.1,51.1c1.2-0.6,3,0,3.6,1.6c1.4,3.7,3.3,3.2,3.1,5.2c0,0.7-0.5,1.4-0.1,2.1c0.3,0.5,0.6,1.2,0.5,1.7
			c-0.1,0.7-0.9,1-1.5,1c-0.6,0-1-0.2-1.4-0.7c-0.5-0.7-1.4-1.1-2.2-1.4c-0.7-0.3-1.1-0.8-1.5-1.4c-1-1.2-1.7-2.8-2-4.3
			c-0.1-0.7-0.2-1.5,0.1-2.1C29,51.9,29.5,51.3,30.1,51.1z"/>
		<g>
			<g>
				<path fill="#F3EEE9" d="M20.9,65c-4.5-2.1-8.7-5.7-10.6-7.7c-1-1-0.5-1.5,0.2-2.9l0,0C15.5,45.3,21,31,21,31
					c2.8,3.5,21.4,10.5,21.4,10.5c-10,14.7-12.6,26.6-12.6,26.6C26.5,67.2,23.5,66.1,20.9,65z"/>
			</g>
			<g>
				<path fill="#3C9AD5" d="M21,31l-2.3,5.7c0,0,11.4,7,20.4,10l3.3-5.2C42.4,41.6,25.1,34.8,21,31z"/>
			</g>
			<path fill="#CFC5BB" d="M9.8,56.7c0.3,0.4,1.2,0.4,2.7-1.2c0,0,1.5,6,8.4,9.5C16.5,63,11,59.5,9.8,56.7z"/>
			<g>
				<path opacity="0.3" fill="#64615D" d="M27.7,46.5c-2.9-1.3-6.2-3-9.3-4.9c-0.1,0-0.1-0.1-0.1-0.2c0-0.1,0.1-0.1,0.2,0
					c7.4,4.5,16.1,7.8,16.2,7.9c0.1,0,0.1,0.1,0.1,0.2c0,0.1-0.1,0.1-0.2,0.1C34.6,49.5,31.6,48.3,27.7,46.5z"/>
			</g>
			<g opacity="0.3">
				<path fill="#64615D" d="M26.2,49.8c-2.9-1.3-6.2-3-9.3-4.9c-0.1,0-0.1-0.1-0.1-0.2c0-0.1,0.1-0.1,0.2,0
					c7.4,4.5,16.1,7.8,16.2,7.9c0.1,0,0.1,0.1,0.1,0.2c0,0.1-0.1,0.1-0.2,0.1C33.1,52.8,30.1,51.6,26.2,49.8z"/>
			</g>
			<g>
				<path opacity="0.3" fill="#64615D" d="M24.7,53.1c-2.9-1.3-6.2-3-9.3-4.9c-0.1,0-0.1-0.1-0.1-0.2c0-0.1,0.1-0.1,0.2,0
					c7.4,4.5,16.1,7.8,16.2,7.9c0.1,0,0.1,0.1,0.1,0.2c0,0.1-0.1,0.1-0.2,0.1C31.6,56.1,28.7,54.9,24.7,53.1z"/>
			</g>
			<g opacity="0.5">
				<path fill="#64615D" d="M20.8,49c0,0.1-0.4,0.7-0.6,0.9c0.4,0.2,0.7,0.4,1.1,0.6c0.2-0.3,0.6-0.9,0.6-0.9
					C21.5,49.4,21.1,49.2,20.8,49z"/>
				<path fill="#64615D" d="M19.1,49.3c-0.1-0.2,0.4-0.8,0.5-0.9c-1.2-0.7-2.3-1.3-3.5-2.1c-0.1,0-0.3,0.2-0.4,0.4
					c-0.1,0.2,0.1,0.5,0.2,0.6C17,48,18.1,48.7,19.1,49.3C19.1,49.3,19.1,49.3,19.1,49.3z"/>
				<path fill="#64615D" d="M23,50.1c-0.2,0.3-0.6,0.8-0.7,0.8c1,0.5,1.9,0.9,2.8,1.3c0,0,0,0,0,0c0.1-0.2,0.6-0.9,0.6-0.9
					C24.9,51,24,50.6,23,50.1z"/>
				<path fill="#64615D" d="M27.7,52.3c-0.3-0.1-0.6-0.3-0.9-0.4l-0.4,0.9c0,0,0,0,0,0c0.3,0.1,0.6,0.3,0.9,0.4
					C27.4,53.1,27.7,52.4,27.7,52.3z"/>
				<path fill="#64615D" d="M32.6,54.2c0,0-1.5-0.5-3.7-1.4c-0.1,0.3-0.2,0.7-0.4,1c2.2,0.9,3.6,1.4,3.6,1.4c0.1,0,0.4-0.2,0.4-0.4
					C32.6,54.6,32.7,54.2,32.6,54.2z"/>
			</g>
			<g opacity="0.5">
				<path fill="#64615D" d="M16.3,50.7c-0.6-0.3-1.2-0.7-1.7-1.1c-0.1,0-0.3,0.2-0.4,0.4c-0.1,0.2,0.1,0.5,0.2,0.6
					c0.5,0.3,1,0.7,1.4,1C16,51.3,16.1,51,16.3,50.7z"/>
				<path fill="#64615D" d="M19.1,53.5c0,0,0.5-0.7,0.5-0.9c-0.8-0.4-1.5-0.8-2.3-1.3c0,0-0.3,0.7-0.5,0.9
					C17.6,52.7,18.4,53.1,19.1,53.5z"/>
				<path fill="#64615D" d="M27,56c-1.7-0.7-3.8-1.6-6-2.8c0,0-0.4,0.6-0.7,0.8c1.1,0.6,2.3,1.1,3.3,1.6c1.1,0.5,2,0.9,2.9,1.3
					C26.5,56.9,26.9,56.1,27,56z"/>
				<path fill="#64615D" d="M29,56.8C29,56.8,29,56.8,29,56.8c-0.3-0.1-0.5-0.2-0.8-0.3c-0.2,0.3-0.3,0.6-0.5,0.9
					c0.3,0.1,0.7,0.3,0.9,0.4C28.6,57.8,29,56.9,29,56.8z"/>
			</g>
			<g opacity="0.5">
				<path fill="#64615D" d="M16.7,55.3c-1.2-0.7-2.5-1.4-3.7-2.2c-0.1,0-0.3,0.2-0.4,0.4c-0.1,0.2,0.1,0.5,0.2,0.6
					c1.2,0.8,2.3,1.5,3.5,2.2C16.4,55.9,16.6,55.6,16.7,55.3z"/>
				<path fill="#64615D" d="M19.3,56.6c-0.5-0.2-0.9-0.5-1.4-0.7c-0.1,0.1-0.4,0.8-0.5,0.9c0.4,0.2,0.9,0.4,1.3,0.7
					C18.7,57.4,19.2,56.7,19.3,56.6z"/>
			</g>
			<g opacity="0.5">
				<path fill="#64615D" d="M18.4,43.6c-0.3-0.2-0.5-0.3-0.8-0.5c-0.1,0-0.3,0.2-0.4,0.4c-0.1,0.2,0.1,0.5,0.2,0.6
					c0.2,0.1,0.3,0.2,0.5,0.3C18,44.2,18.4,43.6,18.4,43.6z"/>
				<path fill="#64615D" d="M25.1,48.4C25.1,48.3,25.1,48.3,25.1,48.4l0.4-0.9c-1.9-0.9-4-2-6.1-3.2c0,0-0.4,0.9-0.4,0.9
					C21.1,46.4,23.1,47.4,25.1,48.4z"/>
				<path fill="#64615D" d="M30.5,49.6c-1.1-0.5-2.4-1-3.9-1.7c0,0-0.3,0.9-0.3,1c0.1,0.1,2.6,1.2,3.6,1.6
					C29.9,50.5,30.4,49.7,30.5,49.6z"/>
				<path fill="#64615D" d="M32.4,50.4c-0.2-0.1-0.5-0.2-0.7-0.3c0,0-0.7,0.8-0.7,0.9c0.4,0.2,0.8,0.3,1.1,0.4
					C32.3,51.1,32.5,50.8,32.4,50.4z"/>
			</g>
			<g opacity="0.5">
				<path fill="#64615D" d="M32,46.5c-1.8-0.7-4-1.7-6.5-3c0,0.1-0.4,0.9-0.5,0.9c0,0,0,0,0,0c1.1,0.5,2.1,1,3.1,1.5
					c1.3,0.6,2.5,1.1,3.5,1.5C31.7,47.2,32,46.5,32,46.5z"/>
				<path fill="#64615D" d="M22.5,41.9c-1.1-0.6-2.2-1.3-3.3-2c-0.1,0-0.3,0.2-0.4,0.4c-0.1,0.2,0.1,0.5,0.2,0.6c1,0.7,2,1.3,3,1.9
					C22,42.5,22.4,41.9,22.5,41.9z"/>
				<path fill="#64615D" d="M23.6,42.5c-0.1,0.3-0.5,0.9-0.6,0.9c0.3,0.2,0.6,0.3,1,0.5c0.1-0.2,0.5-0.8,0.5-0.9
					C24.2,42.8,23.9,42.6,23.6,42.5z"/>
				<path fill="#64615D" d="M34.8,47.7c0-0.1-0.1-0.1-0.1-0.2c-0.4-0.1-0.9-0.3-1.6-0.6c-0.1,0.3-0.4,0.9-0.5,1
					c0.7,0.3,1.3,0.5,1.7,0.7c0.1-0.1,0.1-0.1,0.2-0.1c0.1,0,0.1-0.1,0.2-0.1C34.9,48.1,35,47.8,34.8,47.7z"/>
			</g>
			<path opacity="0.3" fill="#64615D" d="M30.3,59.1c-0.1,0-8.9-3.4-16.2-7.9c-0.1,0-0.2,0-0.2,0c0,0.1,0,0.2,0.1,0.2
				c3.1,1.9,6.5,3.6,9.4,4.9c3.9,1.8,6.9,3,6.9,3c0.1,0,0.2,0,0.2-0.1C30.4,59.2,30.3,59.1,30.3,59.1z"/>
			<g>
				<path opacity="0.3" fill="#64615D" d="M21.8,59.7c-2.9-1.3-6.2-3-9.4-4.9c-0.1,0-0.1-0.1-0.1-0.2c0-0.1,0.1-0.1,0.2,0
					c7.4,4.5,16.1,7.8,16.2,7.9c0.1,0,0.1,0.1,0.1,0.2c0,0.1-0.1,0.1-0.2,0.1C28.6,62.6,25.7,61.5,21.8,59.7z"/>
			</g>
			<path fill="#64615D" d="M29.3,65.7c-0.5-0.1-2.3-0.5-2.2-1.2c0.1-0.1,0.2-0.3,0.2-0.4c0-0.1-0.3-0.1-0.3-0.1
				c-0.2,0.2-0.2,0.3-0.3,0.5c-0.1,0.1-0.1,0.1-0.2,0.2c-0.7,0.5-1-0.3-1-0.8c0-0.1-0.1-0.1-0.2-0.1c-0.3,0-0.6,0-0.8,0
				c0.1,0,0.2-0.1,0.3-0.1c0.1,0,0.1-0.1,0-0.1c-0.1-0.1-0.3-0.1-0.5-0.2c0.5-0.4,0.1-1-0.3-1.2c-0.4-0.3-1.2-0.4-1.8-0.2
				c-0.4,0-0.7,0-1.1,0.1c0.3-0.1,0.6-0.3,0.8-0.6c0.1-0.1-0.1-0.1-0.1-0.1c-0.6-0.1-1.4,0-1.8,0.7c0,0.1,0,0.1,0.1,0.1
				c-1.2,0.4-2.5,0.5-2.2-0.2c0.1-0.4,0.5-0.7,0.9-0.9c1.1,0.2,2.2,0,3.3-0.4c1-0.3,2.2-0.7,2.9-1.6c0.6-0.7-0.5-0.8-0.9-0.7
				c-0.8,0.1-1.6,0.5-2.4,0.8c-1,0.5-2.1,1-3,1.6c0,0-0.1,0-0.1,0.1c-0.1,0-0.1,0-0.2,0c-0.1-0.1-0.3,0.1-0.1,0.1c0,0,0.1,0,0.1,0
				c-0.4,0.3-1,0.8-0.9,1.3c0.2,0.7,1.5,0.4,1.9,0.4c0.4-0.1,0.9-0.2,1.3-0.3c0.3,0,0.6,0,0.9,0c-0.4,0.2-0.8,0.5-1,0.8
				C20.7,62.9,20.9,63,21,63c0.8,0,1.5-0.4,2.1-1c0,0,0,0,0,0c0.1,0,0.2,0,0.3,0c0.5,0,1.4,0.7,0.8,1.2c0,0,0,0-0.1,0
				c-0.5-0.1-1,0-1.5,0.2c-0.1,0.1,0,0.1,0.1,0.2c0.5,0.1,1,0,1.5-0.2c0.1,0,0.2,0.1,0.3,0.1c-0.2,0.1-0.4,0.1-0.5,0.2
				c-0.2,0-0.1,0.1,0.1,0.2c0.3,0,0.5,0,0.8,0c0.4,0,0.5-0.1,0.6,0.3c0.1,0.3,0.4,0.5,0.6,0.6c0.3,0.1,0.6,0,0.9-0.1
				c0.3,0.6,1.9,1,2.3,1.1C29.3,65.8,29.5,65.7,29.3,65.7z M19.2,60.6c0.7-0.5,1.4-0.8,2.2-1.2c0.6-0.3,1.3-0.6,1.9-0.8
				c0.2-0.1,0.5-0.1,0.7-0.2c0.2,0,0.9-0.2,0.8,0.2c0,0.2-0.2,0.3-0.3,0.4c-0.6,0.7-1.5,1-2.3,1.2c-1,0.4-2.3,0.7-3.3,0.5
				C19,60.7,19.2,60.6,19.2,60.6z M21.6,61.4c-0.2,0.2-0.6,0.4-1.1,0.5c0,0,0,0,0,0C20.7,61.5,21.1,61.4,21.6,61.4z M22.6,62
				C22.6,62,22.6,62,22.6,62c-0.4,0.4-0.8,0.7-1.4,0.8C21.5,62.3,22,62.1,22.6,62z M23.1,63.5c0.1,0,0.3-0.1,0.4-0.1
				c0.1,0,0.2,0,0.3,0C23.6,63.4,23.3,63.5,23.1,63.5z"/>
			<path fill="#96CAEF" d="M34.9,41.1c-2.3-0.9-5.2-2.3-8.4-4c0,0.1-0.9,1.6-0.9,1.6c1.3,0.7,7.1,3.5,8.4,4
				C34.3,42.4,34.9,41.1,34.9,41.1z"/>
		</g>
		<path fill="#F8B881" d="M34.3,53.4c-1,1.2-0.6,3.5,0.4,4.6c0.5,0.6,1.3,1,1.9,0.3c0.7-0.9-0.4-2.3-0.3-3.2
			c0.1-0.6,0.6-1.9,0.2-2.4C35.9,51.9,34.8,52.9,34.3,53.4z"/>
		<path fill="#1E1E29" d="M48.6,56c-0.3,2.9-0.5,5.8-2,8.3c-2.1,3.4-9.6,5.5-13.5-2.2c1.1-1.4,2.8-2.3,4.2-3.3
			c-0.1,0,1.5,5.1,4.3,1.9c1-1.1,0.7-3,0.7-4.5c0-0.8-0.1-1.5,0-2.3c0-0.9,0.3-2.3,1.2-2.8c1.4-0.8,4.3-2.5,4.3-2.5L48.6,56z"/>
		<path fill="#E9E8E8" d="M63.8,49.2c3,2.5,3.8,5.5-0.7,10c-4.5,4.4-7.7,4.9-7.7,4.9s-9.9-9.5-8.1-13.8
			C49.4,45.2,60.8,46.7,63.8,49.2z"/>
		<path fill="#E62A2A" d="M56.3,52.9c-2.2-0.4-3,1.3-3,1.3l1,2.1l-2.2,6l2.8,6.1l3.8-5.8l-1.8-6l1.6-1.7
			C58.6,55,58.3,53.3,56.3,52.9z"/>
		<path fill="#0D0F12" d="M62.1,88.7c-4-1.1-4.5,4.8-1.9,7.5c2.6,2.8,6.5,1.8,5.3-2.4C64.9,91.7,64.2,89.3,62.1,88.7z"/>
		<path fill="#0D0F12" d="M49.9,88.7c4.1-0.7,4,5.2,1.1,7.6c-2.9,2.5-6.7,1.1-5.1-2.9C46.8,91.4,47.8,89,49.9,88.7z"/>
		<path fill="#252728" d="M46.6,93.4c0.1-0.3,0.3-0.5,0.5-0.7c0.5,0.6,2,0.5,2.7,0.6c0.8,0.1,1.8,0.2,0.9,1.1c-0.8,0.7-2,1.2-3,1.1
			C46.5,95.4,46.2,94.3,46.6,93.4z"/>
		<path fill="#1D1D27" d="M64.9,68.2c0.1,2.9,0.2,5.7,0.3,8.6c0.1,4.3-0.6,10.1,0.8,14.2c-0.6,0.3-1.2,0.6-1.9,0.8
			c-2.4,0.9-5,0-7.4-0.4c0.8-7.4-1-14.9-1.1-22.3C55.6,67.3,64.8,65.7,64.9,68.2z"/>
		<path fill="#1D1D27" d="M55.8,70.4c-0.6,3.9-0.3,7.9-0.3,11.8c0,2.8,0.1,6.3,0.3,9.1c-0.9,0.4-3.5,0.8-4.2,0.8
			c-1.8,0-4.3-0.7-5.4-1.3c0.8-2.8,1.5-8.1,1.8-12.4C48.1,75.2,47.1,71,48,68C48.6,65.7,56.4,66.5,55.8,70.4z"/>
		<path fill="#121219" d="M65.2,75.8v3c0,0-3.6-0.5-8.7,0.8c0,0-0.1-0.6-0.2-0.9c-0.1-0.3-0.7-0.4-0.8,0.1c0,0.5,0,0.7,0,0.7
			s-2.7-2.2-7.6-0.9l0-3l8.1-2.4L65.2,75.8z"/>
		<g>
			<path fill="#1E1E29" d="M45,61.8c-0.8-4.1-2.9-7.8,0.3-11.2c0.7-0.7,1.5-1.3,2.5-1.8c-0.1,0.3-0.2,0.7-0.2,1
				c0.6,6.6,7.6,13.3,7.6,13.3s10.3-8.9,8.6-13.4c-0.1-0.4-0.3-0.7-0.5-1c2.4,1,4.7,2.6,5.3,4.8c0.7,2.5-1.1,7.8-1.5,11.3
				c-0.3,2.3-0.4,8.9,0.1,11.2c-1.6,0.7-8.5,1.9-10.1,1c-1.3-0.7-2-2.3-2.1-2.7c0,4.2-10.1,2.4-10,2C45.5,74,45.7,65.7,45,61.8z"/>
		</g>
		<path fill="#121219" d="M55.1,64.7c0,0,0.7,1.9-0.2,5.1C55,69.8,55.1,67.3,55.1,64.7z"/>
		<path fill="#F8B881" d="M70.4,69c-0.5,0.3,0,1.6-1,2.4c-1,0.9,0.9-0.1,1.2,0.9c0.3,1-3.8,2.8-4.7-0.4c-0.9-3.2,1.4-4.6,4.8-4.7
			C74.2,67.1,70.4,69,70.4,69z"/>
		<path fill="#1E1E29" d="M63.8,48.9c0,0,4.9,2.6,5.9,3.1c3.5,1.7,8.6,4.9,8.5,10.2c-0.1,6.7-7.4,9.3-7.4,9.3l-2.1-4.3
			c0,0,4.1-0.9,3.8-5.2c-0.2-3.2-6.8-5-6.8-5L63.8,48.9z"/>
		<circle fill="#121219" cx="55.8" cy="70.3" r="0.6"/>
		<circle fill="#121219" cx="56.1" cy="64.2" r="0.6"/>
		<path fill="#252728" d="M64.9,93.8c-0.1-0.3-0.2-0.5-0.5-0.8c-0.5,0.5-2.1,0.3-2.7,0.3c-0.8,0-1.8,0-1,1c0.7,0.8,1.8,1.4,2.9,1.4
			C64.8,95.8,65.3,94.8,64.9,93.8z"/>
		<path fill="#121219" d="M55,74.4l-0.2-3.6c0,0,0.1,4.2-0.5,5.3C54.3,76.1,54.8,76,55,74.4z"/>
		<path fill="#121219" d="M48.7,47.9c0,0-4.1,2.6-5.7,5.7l4,1.4c0,0-2.2,3.2-2.3,3.8c-0.1,0.3,3.4,0.9,6,2.4
			c2.3,1.4,4.4,2.9,4.4,2.9s0.4-0.5,0.1-1.1C54.9,62.5,47.8,56.1,48.7,47.9z"/>
		<path fill="#313243" d="M48.7,47.9c0,0-3.2,1.9-4.9,5.1l3.5,2c0,0-1.9,2.7-2,3.2c-0.1,0.3,2.9,1.3,5.4,2.8
			c2.3,1.4,4.3,3.2,4.3,3.2s0.4-0.5,0.1-1.1C54.9,62.5,47.8,56.1,48.7,47.9z"/>
		<path fill="#121219" d="M63.2,48.6c0,0,4.5,2.4,5.8,5.8l-4.5,1c0,0,1.8,4,1.9,4.6c0,0.3-3.6-0.3-7.5,1.7c-2.1,1.1-3.5,2.4-3.5,2.4
			s-0.4-0.5,0-1.1C55.6,62.4,63.2,57.4,63.2,48.6z"/>
		<path fill="#313243" d="M63.2,48.6c0,0,3.5,1.7,4.9,5.1l-4.2,1.6c0,0,1.8,3.4,1.8,4c0,0.3-3.1,0.2-7,2.2c-2.1,1.1-3.4,2.7-3.4,2.7
			s-0.4-0.5,0-1.1C55.6,62.4,63.2,57.4,63.2,48.6z"/>
		<path opacity="0.2" fill="#A19E99" d="M48.3,51.1c0,0,0.9,2.8,4.1,5.7l3.4-2.9l3.2,3c0,0,2.8-1.7,3.8-5.1
			c1.1-3.4-8.4-3.1-10.7-1.9C49.7,51.2,48.3,51.1,48.3,51.1z"/>
		<path fill="#F5F5F5" d="M55.8,53.9l-3.2,2c0,0-6.3-3.3-3.9-7.9c2.1-4.2,12.8-3.9,14.6,0.8c1.6,4-4.1,7.3-4.1,7.3L55.8,53.9z"/>
		<path fill="#EF9E6D" d="M60.8,50.8c-0.6,0.6-1.6,1.2-2.7,1.5c-0.7,0.2-2.1,1.1-2.3,1.1c-0.1,0-0.5-0.4-1.2-0.7
			c-1-0.5-2.5-1.2-3.1-2.3c-0.8-1.6-1.6-4.9,0-6.1c1.6-1.3,4.8-1.5,6.7-1.1c2,0.4,3.4,2.4,3.5,4.4C61.9,49,61.6,49.9,60.8,50.8z"/>
		<g>
			<g>
				<path fill="#4F2C1E" d="M43.3,26.1c0.2-5,1-6.8,0.9-8.9c-0.1-8.7,7.5-14.3,19.5-12c21.1,3.9,14.4,33.1,8.5,31.2
					c-4.4-1.4-8.7-3.2-13-4.7c-4-1.5-8.7-1.2-13-1.3C43,30.2,43.2,28.8,43.3,26.1z"/>
				<path fill="#F8B881" d="M71.8,35.9c-1.9,7.8-8.9,15.8-18,14.2c-9.3-1.7-12.7-13.8-10.5-23.3c2.4-10.4,8.4-18.7,19.1-15.4
					C70,13.7,74.4,25.5,71.8,35.9z"/>
				<path fill="#F8B881" d="M73.4,39.5c-1,0.3-2.1,0.2-3.1,0c0,0,0-0.1-0.1-0.1c-0.4-0.8,0.8-4.4,1.1-5.2c0.8-1.9,1.9-3.1,3.7-2.4
					C78.7,33.3,76.6,38.7,73.4,39.5z"/>
				<path opacity="0.5" fill="#D99F7C" d="M44.6,22.4c1.1-3,3.9-1.8,7.6-1c5.8,1.2,12.6,2.1,17.3,0.6c-0.4,3,1.8,4.4,2.5,7.3
					c0.4,1.6,1.2-5.7,1.2-6.7c0.1-2.5,0.4-6-1.4-8c-2.3-2.6-6.9-2.9-10.1-3.1c-4.7-0.4-8.9,0.1-13.4,1.4
					C45.3,13.7,44.4,19.6,44.6,22.4z"/>
				<path opacity="0.35" fill="#B5441A" d="M72,38c-1.3-1,0.3-3.9,1.4-4.2c0.9-0.3,3,0.6,1.8,2.2c-0.4-1.6-1.4-0.7-1.4,0.4
					c0,0.8,0.8,0.8-0.1,1.7C73.3,38.6,72.4,38.3,72,38z"/>
				<path fill="#4F2C1E" d="M46.9,18.5c11.9,3.9,21.9,3.1,23.4,2c-0.5,2.5,0.3,3.9,0.7,5.8c0.8,3.4-0.2,6.9-1.7,8.1
					c0.7,0.3,1.7,0.4,2.1,0.2c0.6-0.7,1.8-2.6,2.1-4.3c0.3-2,7.9-17.8-7.1-24.2c-11-4.7-20.1,3.3-24.7-1.3c-0.3,2.7-0.4,6.3,1.1,8.4
					c-1.2-0.3-1.9-0.5-2.9-0.7C41,14.6,43,17.3,46.9,18.5z"/>
				<path fill="#6A3B27" d="M42.3,5.9c0,0,1.8,9.9,15.3,11.6c14.9,1.8,19.1-1.7,15.2-6.8c-3.9-5-12.4-5.8-18.2-4.9
					C48.9,6.8,46.1,8.3,42.3,5.9z"/>
				<path fill="#4F2C1E" d="M71.3,28.2c-0.1,1.1-0.8,4.8-2,6.2c0.7,0.3,1.5,0.4,2,0.3c1-0.6,1.5-3.2,2.9-3.1
					C75.4,31.7,71.9,29.9,71.3,28.2z"/>
			</g>
			<g>
				<path opacity="0.5" fill="#B5441A" d="M63.9,31.9c-1-1,2.3-0.8,2.7-0.6c-0.1,0.6-1.5,0.2-2,0.2c0.3,0.4,1.5,0.6,1.9,0.9
					c0.5,0.3,0.4,0.5-0.2,0.4C66,32.8,64.1,32.1,63.9,31.9z"/>
				<path opacity="0.5" fill="#B5441A" d="M46.7,29.4c0.9-0.8-1.8-1.2-2.2-1.1c0,0.6,1.2,0.4,1.6,0.6c-0.3,0.4-1.3,0.3-1.6,0.5
					c-0.4,0.2-0.4,0.4,0.1,0.5C44.9,29.9,46.5,29.6,46.7,29.4z"/>
				<g>
					<path fill="#131C22" d="M62.6,32.2c0.6-0.2,1.4-0.2,2,0c1.5-1,0.6-4.7-1.5-4.1C61.5,28.7,61.3,31.4,62.6,32.2z"/>
				</g>
				<path opacity="0.35" fill="#B54817" d="M52.1,32.8c-0.4,0.3,0.2,1.8,2,2.1c1.8,0.3,2.9-1.1,2.3-1.5c-0.6-0.5-1.1-0.1-2.1-0.3
					C53.1,33,52.6,32.4,52.1,32.8z"/>
				<path fill="#FBCBA0" d="M52.1,33c-0.2-0.3,0.5-1.4,1.2-2.5c0.6-1,1.3-3.1,2.3-3c0.9,0.1,0.8,2.5,1,3.7c0.2,1.2,0.3,2.2-0.2,2.5
					C55,34.4,52.7,33.7,52.1,33z"/>
				<g>
					<path fill="#131C22" d="M46.9,26.3c-1.2,0.5-1.4,2.3-0.7,3.3c0.6,0,1.2,0.3,1.7,0.7C50.2,30,49.1,25.4,46.9,26.3z"/>
				</g>
				<path fill="#7E8CA9" d="M63.6,28.7c-0.7-0.3-1.3,0.7-0.7,1.2C63.6,30.6,64.4,29.1,63.6,28.7z"/>
				<path fill="#7E8CA9" d="M47.4,26.9c-0.7-0.2-1.1,0.8-0.6,1.2C47.5,28.7,48.1,27.2,47.4,26.9z"/>
				<path opacity="0.5" fill="#B5441A" d="M65.2,37.6c-0.7-0.5-2.7-0.6-2.7-0.6c-0.3,0.1,0.8,0.3,1.6,0.8c0.1,0,0.1,0.1,0.1,0.1
					c-5.6,1.3-14.5-0.2-18.4-1.9c0.1-0.1,0.2-0.2,0.3-0.2c0.9-0.1,1.5-0.2,1.2-0.3c0,0-2-0.6-2.5,0.1c-0.4,0.7,0,1.6,0.6,1.6
					c0.4,0,0.1-0.6,0.3-1c1,0.9,2.6,2.7,2.6,4.1c0,2.5,1.4,4.2,6.4,4.6c6.7,0.5,9.2-5.2,9.7-6.7c0.3,0.6,0.3,1.3,0.7,1.3
					C65.7,39.5,65.8,38.1,65.2,37.6z"/>
				<path fill="#4F2C1E" d="M45.1,25.3c-0.5,0.2-0.6-0.6-0.4-0.8c0.8-0.8,1.7-1.7,3.9-1.7c1.5,0,2.6-0.1,2.6-0.1
					c0,0.9-0.4,2.6-1.5,2.5c-0.7-0.1-1.4-0.3-2.1-0.3C46.5,24.9,45.6,25.2,45.1,25.3z"/>
				<path fill="#4F2C1E" d="M66.5,28.1c0.5,0.3,0.9-0.3,0.7-0.6c-0.5-1-1.1-2.2-3.4-2.9c-1.6-0.5-2.7-1-2.7-1
					c-0.3,0.8-0.6,2.6,0.6,2.8c0.7,0.2,1.5,0.2,2.2,0.4C65.3,27.2,66.1,27.8,66.5,28.1z"/>
				<path fill="#902824" d="M63.1,38.9c0,0-7.1,1.4-16-1.9c0,0,1.4,0.9,1.5,2.9c0.1,1.5,0.6,3.6,5.9,4.2
					C60.4,44.8,63.1,38.9,63.1,38.9z"/>
				<path fill="#FFF9F1" d="M61.1,39.3c0,0-0.2,2-2.1,2.6c-2.4,0.8-5.1,0.6-7.7-0.3c-1.8-0.6-2.5-3.7-2.5-3.7S53.7,39.2,61.1,39.3z"
					/>
				<path fill="#FFF9F1" d="M60.1,42.2c0.2-0.5,0.3-1-0.8-0.7c-1.2,0.4-3.4,0.5-6,0.3c-2.5-0.3-3-1.3-3.5-0.8
					c-0.5,0.5,1,3.2,5.1,3.2C59.6,44.2,60.1,42.2,60.1,42.2z"/>
				<path fill="#FBCBA0" d="M44.1,31.5c-0.2,0.1-0.3,0.3-0.4,0.5c-1.1,2,3.9,2.4,4.7,1.7c1.5-1.4,0-2.3-1.2-2.5
					C46.2,30.9,44.9,30.8,44.1,31.5z"/>
				<path fill="#FBCBA0" d="M62.1,33.6c-0.2,0.1-0.3,0.3-0.4,0.5c-1.2,2,4,2.7,4.8,1.9c1.6-1.5,0.1-2.4-1.2-2.7
					C64.4,33,63,32.8,62.1,33.6z"/>
				<path fill="#E8DAC5" d="M60.8,40.1c0,0-9.5-1.8-11.7-1.2c0,0-0.3-0.7-0.4-1.1c0,0,6.7,1.5,12.4,1.5C61.1,39.3,61,39.9,60.8,40.1
					z"/>
				<path fill="#E8DAC5" d="M58.8,41.4c0,0-3.6,0.9-8.4-0.6C50.4,40.9,54.7,43,58.8,41.4z"/>
			</g>
		</g>
	</g>
</g>
</svg>
