<?xml version="1.0" encoding="utf-8"?>
<!-- Generator: Adobe Illustrator 18.1.1, SVG Export Plug-In . SVG Version: 6.00 Build 0)  -->
<svg version="1.1" xmlns="http://www.w3.org/2000/svg" xmlns:xlink="http://www.w3.org/1999/xlink" x="0px" y="0px"
	 viewBox="0 0 100 100" enable-background="new 0 0 100 100" xml:space="preserve">
<g id="Capa_1">
</g>
<g id="Capa_2">
	<g>
		<defs>
			<filter id="Adobe_OpacityMaskFilter" filterUnits="userSpaceOnUse" x="33.9" y="89.8" width="42.8" height="5.5">
				<feColorMatrix  type="matrix" values="1 0 0 0 0  0 1 0 0 0  0 0 1 0 0  0 0 0 1 0"/>
			</filter>
		</defs>
		<mask maskUnits="userSpaceOnUse" x="33.9" y="89.8" width="42.8" height="5.5" id="SVGID_1_">
			<g filter="url(#Adobe_OpacityMaskFilter)">
				<defs>
					<filter id="Adobe_OpacityMaskFilter_1_" filterUnits="userSpaceOnUse" x="32.5" y="89.1" width="45.5" height="6.8">
						<feFlood  style="flood-color:white;flood-opacity:1" result="back"/>
						<feBlend  in="SourceGraphic" in2="back" mode="normal"/>
					</filter>
				</defs>
				<mask maskUnits="userSpaceOnUse" x="32.5" y="89.1" width="45.5" height="6.8" id="SVGID_1_">
					<g filter="url(#Adobe_OpacityMaskFilter_1_)">
					</g>
				</mask>
				
					<radialGradient id="SVGID_2_" cx="-1396.0165" cy="74965.7031" r="43.6561" gradientTransform="matrix(-0.4701 0 0 6.353595e-002 -601.0381 -4670.5122)" gradientUnits="userSpaceOnUse">
					<stop  offset="0" style="stop-color:#FFFFFF"/>
					<stop  offset="7.362918e-002" style="stop-color:#E1E1E1"/>
					<stop  offset="0.2544" style="stop-color:#9E9E9E"/>
					<stop  offset="0.4259" style="stop-color:#666666"/>
					<stop  offset="0.5834" style="stop-color:#3A3A3A"/>
					<stop  offset="0.724" style="stop-color:#1B1B1B"/>
					<stop  offset="0.8425" style="stop-color:#080808"/>
					<stop  offset="0.9247" style="stop-color:#010101"/>
				</radialGradient>
				<ellipse mask="url(#SVGID_1_)" fill="url(#SVGID_2_)" cx="55.3" cy="92.5" rx="22.7" ry="3.4"/>
			</g>
		</mask>
		
			<radialGradient id="SVGID_3_" cx="-1431.1195" cy="77852.4922" r="46.1053" gradientTransform="matrix(-0.45 0 0 5.199463e-002 -588.7068 -3955.406)" gradientUnits="userSpaceOnUse">
			<stop  offset="0" style="stop-color:#010101"/>
			<stop  offset="0.9247" style="stop-color:#010101"/>
		</radialGradient>
		<ellipse opacity="0.2" fill="url(#SVGID_3_)" cx="55.3" cy="92.5" rx="21.4" ry="2.7"/>
		<g>
			<path fill="#F08560" d="M28,57c-0.6-0.1-2.2-1-2.9-2c-1.9,0.4-3.3-3-3-4.4c0.4-1.5,2.2-2.6,3.6-3.1c0.7-0.2,1.6-0.4,2.3,0
				c0.4,0.3,0.6,0.8,0.9,1.2c0.5-0.1,1.1,0.3,1.4,1c0.4,1,0,1.9-0.4,3.3c-0.1,0.5,0.3,1.7,0.4,2.2C30.7,56.7,29.4,57.3,28,57z"/>
			<path fill="#1E1E29" d="M39,53.1c-3.1,2.3-3.7,6.6-5.2,6.7C32,60,30.5,54,30.5,54l-4.9,2c0,0,3,9.6,8.7,9.8
				c3.2,0.1,5.5-3.9,6.2-6.4C40.6,59.2,39.8,52.5,39,53.1z"/>
			<path opacity="0.6" fill="#D8735F" d="M30,52.1c-0.2,0.2-1,0.8-1.2,0.4c-0.1-0.3,0.1-0.7,0.2-1c-0.4,0.3-1,0.7-1.5,0.6
				C27,52,26.9,51.5,27,51c-0.7,1.4-2.7,2.8-3.8,2.6c0.4,0.9,1.7,1.5,2.9,1.1c0.5-0.1,0.8-0.5,1.2-0.7c0.5-0.3,0.9-0.2,1.5-0.3
				c0.4-0.1,0.8-0.3,1.1-0.7L30,52.1z"/>
			<path fill="#F49F82" d="M29.2,49c0.2,0,0.4,0,0.6,0.2c0.8,0.8-0.5,1.4-1.1,1.8c-0.3,0.2-1,0.6-1.3,0.3c-0.2-0.2-0.2-0.5,0-0.8
				c0.2-0.3,0.4-0.6,0.6-0.8C28.4,49.4,28.8,49.1,29.2,49z"/>
			<path fill="#F49F82" d="M27.6,47.6c0.6,0.4,0.7,0.7,0.3,1.3c-0.2,0.3-0.6,0.8-0.9,1c-0.4,0.2-1.1,0.2-1.5,0.3
				c-0.7,0.2-1.2,0.4-1.8,0.7c-0.3,0.2-0.7,0.6-1.1,0.6c-0.5-1.7,2-3.2,3.4-3.8c0.4-0.1,0.7-0.2,1.1-0.2L27.6,47.6z"/>
		</g>
		<g>
			<path fill="#F08560" d="M76.7,41c0.4-0.5,1.2-2.2,1.1-3.3c1.7-0.9,0.9-4.4-0.3-5.3c-1.2-1-3.4-0.7-4.7-0.3
				c-0.7,0.3-1.5,0.6-1.8,1.4c-0.2,0.5,0,1,0,1.5c-0.5,0.2-0.7,0.9-0.6,1.6c0.2,1,1.1,1.5,2.3,2.4c0.4,0.3,0.8,1.5,1,2
				C74.3,42.4,75.8,42.1,76.7,41z"/>
			<path opacity="0.6" fill="#D8735F" d="M72.1,38.3c0.3,0,1.3,0,1.2-0.5c-0.1-0.3-0.5-0.5-0.8-0.6c0.5,0,1.2,0,1.6-0.5
				c0.3-0.3,0.1-0.7-0.3-1.1c1.4,0.7,3.8,0.6,4.6-0.2c0.2,1-0.4,2.2-1.6,2.6c-0.5,0.2-0.9,0.1-1.4,0.2c-0.6,0.1-0.9,0.4-1.4,0.6
				c-0.4,0.2-0.8,0.3-1.3,0.1L72.1,38.3z"/>
			<path fill="#F49F82" d="M70.9,35.4c-0.2,0.1-0.3,0.3-0.4,0.5c-0.2,1.2,1.3,0.8,1.9,0.8c0.3,0,1.2-0.1,1.2-0.5
				c0-0.3-0.2-0.5-0.5-0.6c-0.3-0.1-0.6-0.3-1-0.3C71.8,35.2,71.2,35.2,70.9,35.4z"/>
			<path fill="#F49F82" d="M71.3,33.3c-0.2,0.6-0.1,1,0.5,1.2c0.3,0.1,1,0.2,1.3,0.2c0.5,0,1-0.5,1.4-0.7c0.6-0.3,1.2-0.4,1.8-0.5
				c0.4,0,0.9,0,1.3-0.1c-0.6-1.7-3.6-1.4-5-0.9c-0.4,0.1-0.7,0.3-1,0.5L71.3,33.3z"/>
			<path fill="#1E1E29" d="M64.5,48.5c4.3,1.4,6.1,0.8,7.2-1.8c0.8-1.7,0.9-7.1,0.9-7.1l5.6,0.3c0,0,0.8,8.3-3.5,12.8
				c-2.8,2.9-7.4,3.3-9.3,2.2C65,54.8,63.5,48.1,64.5,48.5z"/>
		</g>
		<g>
			<path fill="#0D0F12" d="M67.7,82c-4.2-0.7-4.2,5.1-1.2,7.5c3.1,2.4,7,1,5.3-2.9C70.9,84.6,69.9,82.3,67.7,82z"/>
			<path fill="#252728" d="M71.2,86.6c-0.1-0.3-0.3-0.5-0.6-0.7c-0.5,0.6-2.1,0.5-2.8,0.6c-0.8,0.1-1.9,0.2-0.9,1
				c0.8,0.7,2.1,1.2,3.2,1.1C71.2,88.6,71.6,87.5,71.2,86.6z"/>
			<path fill="#121219" d="M67.5,73.1c-1.2-0.8-16.2-6.8-19.9,1.7c-0.3,0.6-0.8,2.1-1.1,2.9c-1.2,3.3,7.2,4.3,8,1.3
				c0,0,0.4-1.5,1.5-1.8c1-0.2,4.6,1,4.6,1C63.5,78.5,70.5,74.9,67.5,73.1z"/>
			<path fill="#1E1E29" d="M60.7,78.3c0.7,0.2,1.7,0.7,2,1.6c0.4,1.4,0.1,3.8,0,4.9c2.1,1.2,7.4,1,9.6-0.8c-0.5-1.4-1.1-5-1.4-7.3
				c-0.2-1.5-1.6-2.7-3.3-3.6C66.4,72.5,59.3,77.9,60.7,78.3z"/>
			<path fill="#0D0F12" d="M47.7,86c-3.3-2.7-6.2,2.3-4.8,5.9c1.4,3.6,5.5,4.4,6,0.2C49.2,89.9,49.5,87.5,47.7,86z"/>
			<path fill="#252728" d="M48.4,91.8c0-0.3,0-0.6-0.1-0.9c-0.7,0.2-2.1-0.6-2.7-0.9c-0.7-0.3-1.7-0.8-1.3,0.4
				c0.3,1,1.2,2.1,2.2,2.5C47.5,93.5,48.3,92.8,48.4,91.8z"/>
			<path fill="#1E1E29" d="M54.6,79c-0.3,1.2-2.5,8.5-3,11.2c-2.3,0.7-7.4-0.8-9.1-3c1.5-2.4,2.7-5.6,4.1-9.5
				C46.9,76.6,54.9,77.7,54.6,79z"/>
		</g>
		<g>
			<path fill="#E9E8E8" d="M43.8,49.9c-2.5,3-2.7,6,2.4,9.5c5.1,3.5,8.3,3.4,8.3,3.4s7.9-10.9,5.4-14.7
				C56.9,43.4,46.2,46.9,43.8,49.9z"/>
			<path fill="#E62A2A" d="M51.7,52.1c2.1-0.8,3.1,0.8,3.1,0.8L54.2,55l3.2,5.4l-1.6,6.4l-4.7-5l0.6-6.1l-1.9-1.3
				C49.9,54.5,49.8,52.8,51.7,52.1z"/>
			<g>
				<path fill="#1E1E29" d="M64.8,60.4c-0.1-3.6,1.3-11,0.7-11.4c-0.9-0.7-5.5-2.3-6.9-2.6c0.2,0.3,0.8,0.9,0.8,1.2
					c0.6,6.5-5,14.2-5,14.2S42.9,55,43.8,50.4c0.1-0.4,0.2-0.7,0.3-1.1c-2.1,1.4-6,4.2-6.2,5c-0.2,0.7,3.2,5.3,4.9,10
					c1.3,3.5,1.9,9.9,1.8,12.2c1.7,0.4,9.1,0.2,10.6-1c1.2-0.9,1.6-2.6,1.6-3c0.8,4.1,10.5,0.5,10.3,0.1
					C66.2,70.5,64.9,64.3,64.8,60.4z"/>
			</g>
			<path fill="#121219" d="M54.9,63.3c0,0-0.4,1.9,1.1,4.9C56,68.2,55.4,65.8,54.9,63.3z"/>
			<circle fill="#121219" cx="55.2" cy="68.9" r="0.6"/>
			<circle fill="#121219" cx="53.8" cy="63" r="0.6"/>
			<path fill="#121219" d="M56.7,72.7l-0.5-3.5c0,0,0.9,4,1.7,4.9C58,74.1,57,73.9,56.7,72.7z"/>
			<path fill="#121219" d="M58.1,46c0,0,4.4,1.8,6.6,4.5l-3.6,2c0,0,2.7,2.7,2.9,3.2c0.1,0.3-3.2,1.5-5.4,3.4
				c-2,1.7-3.8,3.6-3.8,3.6s-0.5-0.4-0.3-1C54.7,61.1,60.4,53.7,58.1,46z"/>
			<path fill="#313243" d="M58.1,46c0,0,3.4,1.3,5.6,4l-3,2.5c0,0,2.3,2.2,2.5,2.7c0.1,0.2-2.6,1.8-4.8,3.7c-2,1.7-3.5,3.8-3.5,3.8
				s-0.5-0.4-0.3-1C54.7,61.1,60.4,53.7,58.1,46z"/>
			<path fill="#121219" d="M44.3,49.3c0,0-3.7,2.1-4.3,6.3l4.1,0.4c0,0-1,4.2-1,4.7c0,0.3,3.5-0.9,7.6,0.3c2.2,0.7,3.8,1.7,3.8,1.7
				s0.2-0.6-0.2-1.1C54,61.1,45.9,57.8,44.3,49.3z"/>
			<path fill="#313243" d="M44.3,49.1c0,0-3.1,2.2-3.8,5.8l4.3,0.8c0,0-1.1,3.6-1.1,4.2c0,0.3,3-0.3,7.2,0.9c2.2,0.7,3.8,2,3.8,2
				s0.2-0.6-0.2-1.1C54,61.1,45.8,57.7,44.3,49.1z"/>
			<path opacity="0.2" fill="#A19E99" d="M59.1,48.9c0,0-0.4,2.9-3,6.2L52.3,53l-2.5,3.5c0,0-3-1.1-4.6-4.2
				c-1.6-3.1,7.6-4.5,10.1-3.7C57.7,49.3,59.1,48.9,59.1,48.9z"/>
			<path fill="#F5F5F5" d="M52.3,53l3.4,1.4c0,0,5.5-4.3,2.4-8.4c-2.8-3.7-13-1.5-14,3.4c-0.8,4.2,5.3,6.3,5.3,6.3L52.3,53z"/>
			<path fill="#EB5A3A" d="M47,50.8c0.7,0.5,1.8,0.9,2.9,1c0.8,0.1,2.2,0.7,2.4,0.7c0.1,0,0.4-0.5,1.1-0.9c0.9-0.7,2.2-1.6,2.5-2.8
				c0.5-1.7,0.7-5-1.1-5.9c-1.8-1-4.9-0.6-6.7,0.1c-1.9,0.8-2.8,2.9-2.6,4.8C45.6,49.3,46,50.2,47,50.8z"/>
		</g>
		<g>
			<path fill="#4F3023" d="M63,25.7c-0.2-5-1-6.7-0.9-8.7c0.1-8.6-7.3-14-19.2-11.8C22.1,9,28.6,37.7,34.5,35.8
				c4.3-1.4,8.5-3.1,12.8-4.7c4-1.4,8.6-1.1,12.8-1.3C63.3,29.7,63.1,28.4,63,25.7z"/>
			<path fill="#F08560" d="M34.9,35.4c1.9,7.7,8.8,15.6,17.7,14c9.1-1.6,12.5-13.5,10.3-23C60.6,16.2,54.8,8,44.2,11.2
				C36.7,13.6,32.4,25.2,34.9,35.4z"/>
			<path fill="#F08560" d="M33.4,39c1,0.2,2.1,0.2,3.1,0c0,0,0-0.1,0-0.1c0.4-0.8-0.8-4.4-1.1-5.1c-0.8-1.8-1.9-3.1-3.6-2.4
				C28.1,32.8,30.2,38.2,33.4,39z"/>
			<path opacity="0.6" fill="#D8735F" d="M61.7,22.1c-1.1-3-3.9-1.7-7.5-1c-5.7,1.2-12.4,2.1-17,0.6c0.4,3-1.8,4.3-2.5,7.2
				c-0.4,1.6-1.2-5.6-1.2-6.6c-0.1-2.5-0.4-5.9,1.4-7.9c2.2-2.5,6.8-2.8,9.9-3.1c4.6-0.4,8.8,0.1,13.2,1.3
				C61,13.5,61.9,19.4,61.7,22.1z"/>
			<path opacity="0.6" fill="#D8735F" d="M34.7,37.5c1.3-1-0.3-3.8-1.4-4.2c-0.9-0.3-2.9,0.6-1.8,2.2c0.4-1.6,1.4-0.7,1.4,0.4
				c0,0.7-0.8,0.8,0.1,1.7C33.5,38.1,34.3,37.8,34.7,37.5z"/>
			<path fill="#4F3023" d="M59.4,18.3c-11.7,3.8-21.6,3.1-23,2c0.5,2.4-0.3,3.8-0.7,5.7c-0.8,3.4,0.2,6.8,1.7,7.9
				c-0.7,0.3-1.6,0.4-2.1,0.2c-0.6-0.6-1.8-2.6-2.1-4.3c-0.3-1.9-7.8-17.5,7-23.8C51.1,1.5,60,9.3,64.5,4.8c0.3,2.6,0.4,6.2-1.1,8.3
				c1.2-0.3,1.9-0.5,2.9-0.7C65.3,14.4,63.3,17.1,59.4,18.3z"/>
			<path fill="#6A3B27" d="M64,5.9c0,0-1.7,9.7-15.1,11.4c-14.6,1.8-18.8-1.7-15-6.6c3.8-5,12.2-5.7,17.9-4.8
				C57.5,6.8,60.2,8.2,64,5.9z"/>
		</g>
		<g>
			<path opacity="0.6" fill="#D8735F" d="M42.4,31.1c1-0.9-2.2-0.9-2.7-0.7c0.1,0.6,1.5,0.3,1.9,0.3c-0.4,0.4-1.5,0.5-1.9,0.7
				c-0.5,0.3-0.4,0.5,0.2,0.4C40.3,31.8,42.2,31.3,42.4,31.1z"/>
			<path opacity="0.6" fill="#D8735F" d="M59.6,29c-0.9-0.8,1.8-1.1,2.2-1c0,0.6-1.2,0.4-1.6,0.6c0.3,0.4,1.2,0.3,1.6,0.5
				c0.4,0.2,0.4,0.4-0.1,0.5C61.5,29.5,59.8,29.2,59.6,29z"/>
			<g>
				<path fill="#131C22" d="M44.5,31.5c-0.8-0.2-1.8-0.3-2.5-0.2c-1.9-0.8-0.6-3.1,2-2.5C45.9,29.4,46.1,31.1,44.5,31.5z"/>
			</g>
			<path opacity="0.6" fill="#D8735F" d="M54.6,32.3c0.5,0.3-0.3,1.8-2.3,2.1c-2.1,0.3-3.4-1-2.6-1.5c0.7-0.5,1.3-0.1,2.5-0.3
				C53.4,32.5,54,31.9,54.6,32.3z"/>
			<path fill="#F49F82" d="M54.6,32.4c0.3-0.3-0.2-0.9-0.4-1.2c-0.5-0.5-1.1-0.5-1.8-0.7c0.3,0.1,1.3-0.8,1.3-1
				c0-0.5-1.5-0.3-1.9-0.2c0.3-0.2,0.2-0.4,0-0.6c-0.3-0.2-1,0-1.3,0.1c-0.9,0.3-0.8,0.7,0,1C50.1,30,49.1,30,49,30.4
				c-0.1,0.5,0.9,0.6,1.2,0.7c-0.3,0.4-0.7,0.5-0.8,1c-0.1,0.4,0,1,0.4,1.2C51.2,34,53.9,33.1,54.6,32.4z"/>
			<g>
				<path fill="#131C22" d="M59.2,26.8c1.4,0.2,1.7,1.6,0.9,2.4c-0.7,0.1-1.5,0.3-2.1,0.7C55.2,29.8,56.6,26.3,59.2,26.8z"/>
			</g>
			<path fill="#7E8CA9" d="M44,29.4c0.7-0.2,1.2,0.6,0.7,0.8C43.9,30.6,43.2,29.6,44,29.4z"/>
			<path fill="#7E8CA9" d="M59.2,27.2c0.7-0.2,1.1,0.5,0.6,0.8C59,28.4,58.4,27.4,59.2,27.2z"/>
			<g opacity="0.6">
				<path fill="#D8735F" d="M60.2,35.2c-0.3-0.4-1.4-0.5-1.7-0.6c-2.7-0.5-6.9-0.1-10.6,1c-5.4,1.7-6.7,7.2-3.3,9.9
					c3.4,2.7,12.1,4,14.2-1.6c1-2.5,0.2-7.9,0.1-7.9C59.1,35.9,60.2,35.3,60.2,35.2z"/>
			</g>
			<path fill="#4F3023" d="M60.1,24.5c0.5-0.2,0.9-0.7,0.7-0.8c-0.7-0.3-1.8-0.8-3.7,0.8c-1.3,1.1-2.1,1.9-2.1,1.9
				c-0.2,1.1,1,3,1.6,1.7C57.7,26.2,58.9,25,60.1,24.5z"/>
			<path fill="#4F3023" d="M41,28.1c-0.9-0.7-1.7-1.6-1.9-2.7c1.3,0.5,1.4,1.4,3.9,1.9c1.8,0.4,3.5-0.2,3.5-0.1
				c0.1,0.8-0.7,2-1.9,1.9C43.4,29.2,42.2,28.9,41,28.1z"/>
			<path fill="#901D18" d="M44.4,38.3c3.5-2.4,11.1-3.7,14.5-2.9c-0.3,0.2-0.5,0.2-0.8,0.3c0.5,2.1,0.5,3.6,0.5,5.3
				c0,3.5-1.6,5.4-4.7,5.9c-3.2,0.6-7.3,0.2-9.7-2.5C42.9,42.9,43.1,39.3,44.4,38.3z"/>
			<path fill="#FFF9F1" d="M44.4,38.3c0,0,0.7,1.8,2.6,1.4c2.1-0.5,4.9-1.2,8.5-1.3c1.8-0.1,1.2-3.2,1.2-3.2S49.3,34.9,44.4,38.3z"
				/>
			<path fill="#FFF9F1" d="M46.5,45.9c-0.2-0.4,0.1-0.9,1.1-0.7c1.2,0.2,3.4,0.2,5.8-0.1c2.4-0.4,3.1-1.1,3.6-0.8
				c0.5,0.4-1.1,2.6-5,2.9C47.4,47.5,46.5,45.9,46.5,45.9z"/>
			<path opacity="0.6" fill="#D8735F" d="M62.2,31c0.1,0.1,0.3,0.3,0.4,0.5c1.1,1.9-3.8,2.4-4.6,1.7c-1.5-1.4,0-2.2,1.2-2.5
				C60.1,30.4,61.4,30.3,62.2,31z"/>
			<path opacity="0.6" fill="#D8735F" d="M44.4,32.9c0.2,0.1,0.3,0.3,0.4,0.5c1.2,2-3.9,2.7-4.7,1.9c-1.6-1.4-0.1-2.3,1.2-2.7
				C42.1,32.4,43.5,32.2,44.4,32.9z"/>
			<path fill="#E8DAC5" d="M45.1,39.2c0,0,7.8-4.9,11.8-2.8c0,0,0-0.7-0.1-1.2c0,0-7.6-0.4-12.3,3.1C44.4,38.3,44.6,38.9,45.1,39.2z
				"/>
			<path fill="#E8DAC5" d="M47.6,45.4c0,0,4.2,0.7,8.7-1C56.3,44.4,52.2,47.4,47.6,45.4z"/>
		</g>
	</g>
</g>
</svg>
