<?xml version="1.0" encoding="utf-8"?>
<!-- Generator: Adobe Illustrator 18.1.1, SVG Export Plug-In . SVG Version: 6.00 Build 0)  -->
<svg version="1.1" xmlns="http://www.w3.org/2000/svg" xmlns:xlink="http://www.w3.org/1999/xlink" x="0px" y="0px"
	 viewBox="0 0 100 100" enable-background="new 0 0 100 100" xml:space="preserve">
<g id="Capa_1">
</g>
<g id="Capa_2">
	<g>
		<g>
			<g>
				<rect x="40.6" y="59.4" fill="#EBAB4A" width="51.6" height="19.3"/>
				<rect x="40.8" y="62.7" fill="#EBAB4A" width="51.2" height="16"/>
				<polygon fill="#D2ADAD" points="92,62.7 40.8,62.7 40.8,65.4 92,67.2 				"/>
				<rect x="40.6" y="59.6" fill="#FED275" width="2.4" height="24.7"/>
				<rect x="89.8" y="59.6" fill="#FED275" width="2.4" height="24.7"/>
				<polygon opacity="0.5" fill="#DE8E3F" points="92.2,60 40.6,60 40.6,61.2 92.2,62.1 				"/>
				<rect x="37.8" y="58.1" fill="#FED275" width="57.3" height="1.9"/>
				<defs>
					<filter id="Adobe_OpacityMaskFilter" filterUnits="userSpaceOnUse" x="41.3" y="81.9" width="49.3" height="3.4">
						<feColorMatrix  type="matrix" values="1 0 0 0 0  0 1 0 0 0  0 0 1 0 0  0 0 0 1 0"/>
					</filter>
				</defs>
				<mask maskUnits="userSpaceOnUse" x="41.3" y="81.9" width="49.3" height="3.4" id="SVGID_1_">
					<g filter="url(#Adobe_OpacityMaskFilter)">
						<defs>
							<filter id="Adobe_OpacityMaskFilter_1_" filterUnits="userSpaceOnUse" x="39.7" y="81.5" width="52.4" height="4.3">
								<feFlood  style="flood-color:white;flood-opacity:1" result="back"/>
								<feBlend  in="SourceGraphic" in2="back" mode="normal"/>
							</filter>
						</defs>
						<mask maskUnits="userSpaceOnUse" x="39.7" y="81.5" width="52.4" height="4.3" id="SVGID_1_">
							<g filter="url(#Adobe_OpacityMaskFilter_1_)">
							</g>
						</mask>
						
							<radialGradient id="SVGID_2_" cx="-584.1334" cy="61960.5195" r="12.6281" gradientTransform="matrix(1.8727 0 0 0.1383 1159.8582 -8485.5186)" gradientUnits="userSpaceOnUse">
							<stop  offset="0" style="stop-color:#FFFFFF"/>
							<stop  offset="7.362918e-002" style="stop-color:#E1E1E1"/>
							<stop  offset="0.2544" style="stop-color:#9E9E9E"/>
							<stop  offset="0.4259" style="stop-color:#666666"/>
							<stop  offset="0.5834" style="stop-color:#3A3A3A"/>
							<stop  offset="0.724" style="stop-color:#1B1B1B"/>
							<stop  offset="0.8425" style="stop-color:#080808"/>
							<stop  offset="0.9247" style="stop-color:#010101"/>
						</radialGradient>
						<ellipse mask="url(#SVGID_1_)" fill="url(#SVGID_2_)" cx="66" cy="83.6" rx="26.2" ry="2.1"/>
					</g>
				</mask>
				
					<radialGradient id="SVGID_3_" cx="-582.6974" cy="61950.0859" r="13.3336" gradientTransform="matrix(1.7924 0 0 0.1132 1110.3785 -6929.1284)" gradientUnits="userSpaceOnUse">
					<stop  offset="0" style="stop-color:#010101"/>
					<stop  offset="0.9247" style="stop-color:#010101"/>
				</radialGradient>
				<ellipse opacity="7.000000e-002" fill="url(#SVGID_3_)" cx="66" cy="83.6" rx="24.7" ry="1.7"/>
			</g>
			<g>
				<rect x="58.7" y="56.2" fill="#3B3B4A" width="21" height="1.9"/>
				<g>
					<path fill="#3B3B4A" d="M78.1,56.3h-1.6v-0.8h1.6V56.3z M76.1,56.3h-1.6v-0.8h1.6V56.3z M74.1,56.3h-1.6v-0.8h1.6V56.3z
						 M72.2,56.3h-1.6v-0.8h1.6V56.3z M70.2,56.3h-1.6v-0.8h1.6V56.3z M68.2,56.3h-1.6v-0.8h1.6V56.3z M66.2,56.3h-1.6v-0.8h1.6
						V56.3z M64.2,56.3h-1.6v-0.8h1.6V56.3z M62.2,56.3h-1.6v-0.8h1.6V56.3z"/>
				</g>
				<rect x="66.1" y="56.2" fill="#1D1D27" width="13.9" height="1.9"/>
			</g>
			<g>
				<g>
					<rect x="77.1" y="42.4" fill="#3B3B4A" width="7.7" height="14.8"/>
					<rect x="76.3" y="42.8" fill="#121219" width="7.7" height="14.4"/>
					<rect x="71.3" y="56.1" fill="#3B3B4A" width="15.1" height="2"/>
					<rect x="85.1" y="56.1" fill="#1D1D27" width="1.5" height="2"/>
					<path fill="#494958" d="M64.9,31.7c0-1,0.8-1.8,1.8-1.8h26.4c1,0,1.8,0.8,1.8,1.8v19.6c0,1-0.8,1.8-1.8,1.8H66.7
						c-1,0-1.8-0.8-1.8-1.8V31.7z"/>
					<path fill="#1D1D27" d="M63.3,31.7c0-1,0.8-1.8,1.8-1.8h26.4c1,0,1.8,0.8,1.8,1.8v19.6c0,1-0.8,1.8-1.8,1.8H65.1
						c-1,0-1.8-0.8-1.8-1.8V31.7z"/>
					<path fill="#575756" d="M64.5,33.1c0-0.5,0.4-0.9,0.9-0.9h25.8c0.5,0,0.9,0.4,0.9,0.9v16.8c0,0.5-0.4,0.9-0.9,0.9H65.4
						c-0.5,0-0.9-0.4-0.9-0.9V33.1z"/>
					<circle fill="#494958" cx="78.3" cy="31.1" r="0.6"/>
					<rect x="88.1" y="51.8" fill="#494958" width="2.6" height="0.6"/>
				</g>
			</g>
		</g>
		<g>
			<defs>
				<filter id="Adobe_OpacityMaskFilter_2_" filterUnits="userSpaceOnUse" x="16.9" y="83.8" width="32.3" height="4.1">
					<feColorMatrix  type="matrix" values="1 0 0 0 0  0 1 0 0 0  0 0 1 0 0  0 0 0 1 0"/>
				</filter>
			</defs>
			<mask maskUnits="userSpaceOnUse" x="16.9" y="83.8" width="32.3" height="4.1" id="SVGID_4_">
				<g filter="url(#Adobe_OpacityMaskFilter_2_)">
					<defs>
						<filter id="Adobe_OpacityMaskFilter_3_" filterUnits="userSpaceOnUse" x="15.9" y="83.3" width="34.3" height="5.1">
							<feFlood  style="flood-color:white;flood-opacity:1" result="back"/>
							<feBlend  in="SourceGraphic" in2="back" mode="normal"/>
						</filter>
					</defs>
					<mask maskUnits="userSpaceOnUse" x="15.9" y="83.3" width="34.3" height="5.1" id="SVGID_4_">
						<g filter="url(#Adobe_OpacityMaskFilter_3_)">
						</g>
					</mask>
					
						<radialGradient id="SVGID_5_" cx="-3283.3035" cy="62451.6875" r="12.8939" gradientTransform="matrix(1.2017 0 0 0.1624 3978.571 -10056.3096)" gradientUnits="userSpaceOnUse">
						<stop  offset="0" style="stop-color:#FFFFFF"/>
						<stop  offset="7.362918e-002" style="stop-color:#E1E1E1"/>
						<stop  offset="0.2544" style="stop-color:#9E9E9E"/>
						<stop  offset="0.4259" style="stop-color:#666666"/>
						<stop  offset="0.5834" style="stop-color:#3A3A3A"/>
						<stop  offset="0.724" style="stop-color:#1B1B1B"/>
						<stop  offset="0.8425" style="stop-color:#080808"/>
						<stop  offset="0.9247" style="stop-color:#010101"/>
					</radialGradient>
					<path mask="url(#SVGID_4_)" fill="url(#SVGID_5_)" d="M50.2,85.8c0,1.4-7.7,2.6-17.2,2.6c-9.5,0-17.2-1.2-17.2-2.6
						c0-1.4,7.7-2.6,17.2-2.6C42.5,83.3,50.2,84.4,50.2,85.8z"/>
				</g>
			</mask>
			
				<radialGradient id="SVGID_6_" cx="-3402.9092" cy="62560.6992" r="13.6258" gradientTransform="matrix(1.1502 0 0 0.1329 3947.0515 -8228.4746)" gradientUnits="userSpaceOnUse">
				<stop  offset="0" style="stop-color:#010101"/>
				<stop  offset="0.9247" style="stop-color:#010101"/>
			</radialGradient>
			<path opacity="0.2" fill="url(#SVGID_6_)" d="M49.2,85.8c0,1.1-7.2,2.1-16.2,2.1c-8.9,0-16.2-0.9-16.2-2.1
				c0-1.1,7.2-2.1,16.2-2.1C42,83.8,49.2,84.7,49.2,85.8z"/>
			<path fill="#F8B881" d="M12.2,49.8c1-0.5,2.5,0,2.9,1.3c1.2,3,2.7,2.6,2.5,4.2c0,0.6-0.4,1.1-0.1,1.7c0.2,0.4,0.4,0.9,0.4,1.4
				c-0.1,0.6-0.7,0.8-1.2,0.8c-0.5,0-0.9-0.2-1.1-0.6c-0.4-0.6-1.1-0.9-1.7-1.2c-0.5-0.2-0.9-0.7-1.3-1.1c-0.8-1-1.4-2.2-1.6-3.5
				c-0.1-0.6-0.1-1.2,0.1-1.7C11.4,50.5,11.8,50,12.2,49.8z"/>
			<g>
				<g>
					<path fill="#75B955" d="M10.1,56.9c-2.1-1-4-2.7-4.9-3.6C4.7,52.9,5,52.7,5.3,52l0,0c2.3-4.2,4.8-10.8,4.8-10.8
						c1.3,1.6,9.9,4.9,9.9,4.9c-4.6,6.8-5.8,12.3-5.8,12.3C12.7,58,11.3,57.5,10.1,56.9z"/>
				</g>
				<path fill="#347430" d="M5,53.1c0.1,0.2,0.6,0.2,1.2-0.6c0,0,0.7,2.8,3.9,4.4C8.1,56,5.5,54.4,5,53.1z"/>
				<g opacity="0.3">
					<path fill="#347430" d="M16,48.5c-0.4,1-0.9,2.2-1.6,3.6c0,0,0.5,0.2,0.5,0.3c0,0,0,0,0,0c0.3-0.6,0.5-1.1,0.8-1.7
						c0.3-0.7,0.6-1.3,0.8-1.9C16.4,48.7,16,48.5,16,48.5z"/>
					<path fill="#347430" d="M13.5,53.8c-0.3,0.6-0.7,1.2-1.1,1.8c0,0,0.1,0.2,0.2,0.2c0.1,0.1,0.3-0.1,0.3-0.1
						c0.4-0.5,0.7-1.1,1-1.6C13.8,54,13.5,53.8,13.5,53.8z"/>
					<path fill="#347430" d="M13.8,53.2c0.1,0,0.5,0.3,0.5,0.3c0.1-0.2,0.2-0.3,0.3-0.5c-0.1-0.1-0.5-0.3-0.5-0.3
						C14,52.8,13.9,53,13.8,53.2z"/>
					<path fill="#347430" d="M16.6,47C16.6,47,16.6,47,16.6,47c-0.2,0.3-0.3,0.6-0.4,0.9c0.2,0,0.5,0.2,0.5,0.3
						c0.2-0.4,0.3-0.7,0.4-1c0,0-0.1-0.1-0.1-0.1c0,0,0-0.1-0.1-0.1C16.9,47,16.7,46.9,16.6,47z"/>
				</g>
				<g opacity="0.3">
					<path fill="#347430" d="M10.6,45.4c-0.4,1-0.9,2.2-1.6,3.6c0,0,0.5,0.2,0.5,0.3c0,0,0,0,0,0c0.3-0.6,0.5-1.1,0.8-1.7
						c0.3-0.7,0.6-1.3,0.8-1.9C11,45.6,10.6,45.4,10.6,45.4z"/>
					<path fill="#347430" d="M8.1,50.6c-0.3,0.6-0.7,1.2-1.1,1.8c0,0,0.1,0.2,0.2,0.2c0.1,0.1,0.3-0.1,0.3-0.1
						c0.4-0.5,0.7-1.1,1-1.6C8.5,50.9,8.1,50.6,8.1,50.6z"/>
					<path fill="#347430" d="M8.4,50c0.1,0,0.5,0.3,0.5,0.3C9,50.2,9.1,50,9.2,49.8c-0.1-0.1-0.5-0.3-0.5-0.3
						C8.6,49.7,8.5,49.8,8.4,50z"/>
					<path fill="#347430" d="M11.3,43.8C11.3,43.9,11.2,43.9,11.3,43.8c-0.2,0.3-0.3,0.6-0.4,0.9c0.2,0,0.5,0.2,0.5,0.3
						c0.2-0.4,0.3-0.7,0.4-1c0,0-0.1-0.1-0.1-0.1c0,0,0-0.1-0.1-0.1C11.5,43.8,11.4,43.8,11.3,43.8z"/>
				</g>
				<path opacity="0.3" fill="#347430" d="M18.5,45.9c0,0.1-2.3,6.1-5.4,11.2c0,0,0,0.1,0,0.1c0,0,0.1,0,0.1,0
					c1.3-2.2,2.5-4.5,3.4-6.4c1.3-2.7,2-4.7,2.1-4.8c0-0.1,0-0.1-0.1-0.1C18.6,45.8,18.5,45.9,18.5,45.9z"/>
				<path opacity="0.3" fill="#347430" d="M10.4,42.7c0,0.1-2.1,5.5-4.9,10.1c0,0,0,0.1,0,0.1c0,0,0.1,0,0.1,0c1.2-1.9,2.2-4,3-5.8
					c1.1-2.4,1.8-4.3,1.8-4.3c0,0,0-0.1,0-0.1C10.5,42.6,10.4,42.7,10.4,42.7z"/>
				<path opacity="0.47" fill="#347430" d="M13.3,52.9c-0.1,0.2-0.2,0.7-0.5,0.7c0,0-0.1-0.1-0.1-0.1c0,0,0,0.1,0,0.1
					c0,0.1,0.1,0.1,0.1,0.1c0,0,0,0,0.1,0.1C13,54,12.7,54,12.6,54c0,0,0,0,0,0.1c0,0.1,0,0.2,0,0.3c0,0,0-0.1,0-0.1c0,0,0,0,0,0
					c0,0-0.1,0.1-0.1,0.1c-0.1-0.2-0.3-0.1-0.4,0c-0.1,0.1-0.2,0.4-0.1,0.6c0,0.1,0,0.2,0,0.3c0-0.1-0.1-0.2-0.2-0.3c0,0,0,0,0,0
					c0,0.2,0,0.5,0.2,0.6c0,0,0,0,0,0c0.1,0.4,0.1,0.8-0.1,0.7c-0.1-0.1-0.2-0.2-0.3-0.3c0.1-0.3,0.1-0.7,0-1.1
					c-0.1-0.3-0.1-0.8-0.4-1c-0.2-0.2-0.3,0.1-0.3,0.3c0,0.3,0.1,0.5,0.2,0.8c0.1,0.4,0.3,0.7,0.4,1c0,0,0,0,0,0c0,0,0,0,0,0.1
					c0,0,0,0.1,0,0c0,0,0,0,0,0c0.1,0.2,0.2,0.4,0.4,0.3c0.2,0,0.2-0.5,0.2-0.6c0-0.1,0-0.3-0.1-0.4c0-0.1,0-0.2,0-0.3
					c0,0.1,0.1,0.3,0.2,0.3c0,0,0,0,0-0.1c0-0.3-0.1-0.5-0.2-0.7c0,0,0,0,0,0c0,0,0-0.1,0-0.1c0-0.1,0.3-0.4,0.4-0.2c0,0,0,0,0,0
					c0,0.2,0,0.3,0,0.5c0,0,0,0,0.1,0c0-0.2,0-0.3,0-0.5c0,0,0-0.1,0.1-0.1c0,0.1,0,0.1,0,0.2c0,0.1,0,0,0.1,0c0-0.1,0-0.2,0-0.2
					c0-0.1,0-0.2,0.1-0.2c0.1,0,0.2-0.1,0.2-0.2c0-0.1,0-0.2,0-0.3C13.1,53.6,13.3,53.1,13.3,52.9C13.4,52.9,13.3,52.8,13.3,52.9z
					 M11.3,56c-0.1-0.2-0.2-0.5-0.3-0.8c-0.1-0.2-0.1-0.4-0.2-0.6c0-0.1,0-0.2,0-0.2c0-0.1,0-0.3,0.1-0.3c0.1,0,0.1,0.1,0.1,0.1
					c0.2,0.2,0.3,0.5,0.3,0.8c0.1,0.4,0.2,0.8,0.1,1.1C11.3,56,11.3,56,11.3,56z M11.6,55.2c0,0.1,0.1,0.2,0.1,0.4c0,0,0,0,0,0
					C11.6,55.5,11.6,55.4,11.6,55.2z M11.9,54.9C11.9,54.9,11.9,54.9,11.9,54.9c0.1,0.1,0.2,0.3,0.2,0.5
					C11.9,55.3,11.9,55.1,11.9,54.9z M12.4,54.8c0,0,0-0.1,0-0.1c0,0,0-0.1,0-0.1C12.4,54.7,12.4,54.7,12.4,54.8z"/>
				<path opacity="0.47" fill="#347430" d="M13.6,52.2h-2.4c-0.6,0-1.1-0.5-1.1-1.1v-2.4c0-0.6,0.5-1.1,1.1-1.1h2.4
					c0.6,0,1.1,0.5,1.1,1.1v2.4C14.7,51.7,14.2,52.2,13.6,52.2z"/>
				<g>
					<path fill="#75B955" d="M14,49.2c-0.1,0-0.2,0.1-0.2,0.1l-0.4,0.3l-0.3,0.1l-0.2-0.1c0,0,0-0.2-0.3-0.4c0.1-0.1,0-0.2-0.1-0.2
						c-0.1-0.1-0.2-0.2-0.3-0.1L12,48.9c-0.3-0.3-0.6-0.1-0.6-0.1c-0.1,0.1-0.2,0.1-0.3,0.2c-0.3,0.2-0.3,0.6-0.2,0.9
						c0.1,0.2,0.3,0.3,0.6,0.4l0.1,0c0,0.1,0.2,0.2,0.2,0.2c0.1,0,0.2,0.1,0.2-0.1c0.3,0.2,0.5,0.1,0.5,0.1l0.2,0.1l0,0.3l0,0.5
						c0,0.1,0,0.2,0.1,0.2c0,0,0.9,1.1,1,0.8l1.5-2.8C15.4,49.4,14,49.2,14,49.2z M14.2,50.7L14.2,50.7l0.1,0.3c0,0,0,0,0,0s0,0,0,0
						l-0.3,0l0,0l-0.9-0.7l-0.5,0.2c0,0-0.1-0.1-0.1-0.1c0.1,0,0.2-0.1,0.3-0.2c0-0.1,0-0.2,0-0.4c0,0,0.2,0.1,0.2,0.1l0.1,0.4
						L14.2,50.7z"/>
				</g>
			</g>
			<path fill="#F8B881" d="M15.6,51.7c-0.8,1-0.5,2.9,0.3,3.8c0.4,0.5,1.1,0.8,1.6,0.2c0.6-0.7-0.3-1.8-0.2-2.6c0-0.5,0.5-1.5,0.2-2
				C16.9,50.5,16,51.3,15.6,51.7z"/>
			<path fill="#1E1E29" d="M27.3,53.8c-0.2,2.3-0.4,4.7-1.6,6.8c-1.7,2.8-7.8,4.5-11-1.8c0.9-1.1,2.2-1.9,3.4-2.7
				c0,0,1.2,4.1,3.5,1.5c0.8-0.9,0.6-2.5,0.6-3.6c0-0.6,0-1.2,0-1.9c0-0.8,0.2-1.8,1-2.2c1.1-0.6,3.5-2,3.5-2L27.3,53.8z"/>
			<path fill="#E9E8E8" d="M39.6,48.3c2.4,2,3.1,4.5-0.5,8.1c-3.7,3.6-6.2,4-6.2,4s-8-7.7-6.6-11.2C27.9,45,37.1,46.3,39.6,48.3z"/>
			<path fill="#E62A2A" d="M33.5,51.3c-1.8-0.3-2.4,1.1-2.4,1.1l0.8,1.7l-1.8,4.9l2.3,5l3.1-4.7L34,54.3l1.3-1.3
				C35.3,53,35.1,51.6,33.5,51.3z"/>
			<path fill="#0D0F12" d="M38.2,80.4c-3.2-0.9-3.7,3.9-1.6,6.1c2.1,2.3,5.3,1.4,4.3-1.9C40.5,82.8,39.9,80.9,38.2,80.4z"/>
			<path fill="#0D0F12" d="M28.3,80.4c3.3-0.6,3.3,4.2,0.9,6.2c-2.4,2-5.4,0.9-4.1-2.4C25.8,82.5,26.6,80.7,28.3,80.4z"/>
			<path fill="#252728" d="M25.6,84.2c0.1-0.2,0.2-0.4,0.4-0.6c0.4,0.5,1.6,0.4,2.2,0.5c0.6,0.1,1.5,0.2,0.7,0.9
				c-0.6,0.6-1.6,1-2.4,0.9C25.6,85.8,25.3,85,25.6,84.2z"/>
			<path fill="#1D1D27" d="M40.5,63.7c0.1,2.3,0.1,4.6,0.2,7c0.1,3.5-0.5,8.2,0.7,11.5c-0.5,0.2-1,0.5-1.5,0.7c-2,0.7-4,0-6-0.3
				c0.6-6-0.8-12.1-0.9-18.1C32.9,63,40.4,61.7,40.5,63.7z"/>
			<path fill="#1D1D27" d="M33.1,65.5c-0.5,3.1-0.3,6.5-0.3,9.6c0,2.2,0.1,5.1,0.2,7.4c-0.7,0.3-2.9,0.7-3.4,0.7
				c-1.5,0-3.5-0.5-4.4-1.1c0.7-2.3,1.2-6.6,1.4-10.1c0.2-2.5-0.6-5.9,0.1-8.4C27.3,61.7,33.6,62.4,33.1,65.5z"/>
			<path fill="#121219" d="M40.7,69.9v2.5c0,0-2.9-0.4-7.1,0.6c0,0-0.1-0.5-0.1-0.7c-0.1-0.2-0.6-0.3-0.6,0.1c0,0.4,0,0.6,0,0.6
				s-2.2-1.8-6.2-0.7l0-2.4l6.6-1.9L40.7,69.9z"/>
			<g>
				<path fill="#1E1E29" d="M24.3,58.5c-0.6-3.3-2.4-6.3,0.2-9.1c0.5-0.6,1.3-1.1,2.1-1.4c-0.1,0.3-0.1,0.5-0.1,0.8
					c0.5,5.4,6.2,10.8,6.2,10.8s8.4-7.2,7-10.9c-0.1-0.3-0.3-0.6-0.4-0.8c1.9,0.8,3.8,2.1,4.3,3.9c0.6,2-0.9,6.3-1.2,9.2
					c-0.2,1.8-0.3,7.3,0.1,9.1c-1.3,0.6-6.9,1.5-8.2,0.8c-1.1-0.6-1.7-1.9-1.7-2.2c0,3.4-8.2,1.9-8.1,1.7
					C24.7,68.4,24.9,61.7,24.3,58.5z"/>
			</g>
			<path fill="#121219" d="M32.6,60.9c0,0,0.6,1.5-0.2,4.2C32.4,65,32.5,63,32.6,60.9z"/>
			<path fill="#F8B881" d="M45,64.4c-0.4,0.2,0,1.3-0.8,2c-0.8,0.7,0.7-0.1,1,0.7c0.2,0.8-3.1,2.3-3.8-0.3c-0.7-2.6,1.1-3.8,3.9-3.8
				C48,62.8,45,64.4,45,64.4z"/>
			<path fill="#1E1E29" d="M39.6,48.1c0,0,4,2.1,4.8,2.5c2.8,1.4,7,4,6.9,8.3c0,5.5-6,7.6-6,7.6L43.5,63c0,0,3.3-0.7,3.1-4.2
				c-0.2-2.6-5.5-4.1-5.5-4.1L39.6,48.1z"/>
			<circle fill="#121219" cx="33.1" cy="65.5" r="0.5"/>
			<circle fill="#121219" cx="33.4" cy="60.5" r="0.5"/>
			<path fill="#252728" d="M40.5,84.5c-0.1-0.2-0.2-0.4-0.4-0.6c-0.4,0.4-1.7,0.3-2.2,0.3c-0.6,0-1.5,0-0.8,0.8
				c0.6,0.6,1.5,1.2,2.3,1.2C40.4,86.2,40.8,85.3,40.5,84.5z"/>
			<path fill="#121219" d="M32.4,68.8l-0.1-2.9c0,0,0.1,3.4-0.4,4.3C31.9,70.2,32.3,70.1,32.4,68.8z"/>
			<path fill="#121219" d="M27.3,47.3c0,0-3.3,2.1-4.7,4.6l3.2,1.1c0,0-1.8,2.6-1.9,3.1c0,0.2,2.8,0.7,4.9,1.9
				c1.9,1.1,3.6,2.4,3.6,2.4s0.3-0.4,0.1-0.9C32.4,59.1,26.6,53.9,27.3,47.3z"/>
			<path fill="#313243" d="M27.3,47.3c0,0-2.6,1.6-3.9,4.1l2.8,1.6c0,0-1.5,2.2-1.6,2.6c0,0.2,2.4,1.1,4.4,2.3
				c1.9,1.1,3.5,2.6,3.5,2.6s0.3-0.4,0.1-0.9C32.4,59.1,26.6,53.9,27.3,47.3z"/>
			<path fill="#121219" d="M39.1,47.8c0,0,3.6,2,4.7,4.7l-3.6,0.8c0,0,1.5,3.3,1.5,3.7c0,0.3-3-0.2-6.1,1.4c-1.7,0.9-2.9,2-2.9,2
				s-0.3-0.4,0-0.9C32.9,59,39.1,55,39.1,47.8z"/>
			<path fill="#313243" d="M39.1,47.8c0,0,2.9,1.3,4,4.1l-3.4,1.3c0,0,1.4,2.8,1.5,3.2c0,0.3-2.5,0.2-5.7,1.8
				c-1.7,0.9-2.8,2.2-2.8,2.2s-0.3-0.4,0-0.9C32.9,59,39.1,55,39.1,47.8z"/>
			<path opacity="0.2" fill="#A19E99" d="M27,49.8c0,0,0.7,2.3,3.3,4.6l2.7-2.3l2.6,2.4c0,0,2.3-1.4,3.1-4.1
				c0.9-2.7-6.8-2.5-8.7-1.5C28.2,49.9,27,49.8,27,49.8z"/>
			<path fill="#F5F5F5" d="M33.1,52.1l-2.6,1.6c0,0-5.1-2.6-3.2-6.4c1.7-3.4,10.4-3.1,11.9,0.6c1.3,3.3-3.4,5.9-3.4,5.9L33.1,52.1z"
				/>
			<path fill="#EF9E6D" d="M37.1,49.6c-0.5,0.5-1.3,1-2.2,1.3c-0.6,0.2-1.7,0.9-1.9,0.9c-0.1,0-0.4-0.3-1-0.6c-0.8-0.4-2-1-2.5-1.9
				c-0.7-1.3-1.3-3.9,0-5c1.3-1.1,3.9-1.2,5.5-0.9c1.6,0.4,2.7,1.9,2.9,3.5C38,48.2,37.8,48.9,37.1,49.6z"/>
			<g>
				<g>
					<path fill="#4F2C1E" d="M23,29.5c0.2-4.1,0.8-5.5,0.8-7.2c-0.1-7.1,6.1-11.6,15.9-9.8c17.1,3.2,11.7,26.9,6.9,25.3
						c-3.6-1.2-7-2.6-10.5-3.8c-3.3-1.2-7.1-0.9-10.5-1.1C22.7,32.8,22.9,31.7,23,29.5z"/>
					<path fill="#F8B881" d="M46.1,37.5c-1.6,6.3-7.2,12.8-14.6,11.5c-7.5-1.3-10.3-11.2-8.5-19c2-8.5,6.8-15.2,15.5-12.5
						C44.7,19.5,48.2,29.1,46.1,37.5z"/>
					<path fill="#F8B881" d="M47.4,40.4c-0.8,0.2-1.7,0.2-2.5,0c0,0,0-0.1,0-0.1c-0.3-0.6,0.7-3.6,0.9-4.2c0.6-1.5,1.6-2.6,3-2
						C51.7,35.4,50,39.8,47.4,40.4z"/>
					<path opacity="0.5" fill="#D99F7C" d="M24,26.5c0.9-2.4,3.2-1.4,6.2-0.8c4.7,1,10.2,1.7,14.1,0.5c-0.3,2.4,1.5,3.5,2.1,6
						c0.3,1.3,1-4.6,1-5.4c0.1-2.1,0.3-4.9-1.2-6.5c-1.8-2.1-5.6-2.3-8.2-2.5c-3.8-0.3-7.2,0.1-10.9,1.1
						C24.6,19.5,23.8,24.3,24,26.5z"/>
					<path opacity="0.35" fill="#B5441A" d="M46.3,39.2c-1.1-0.8,0.3-3.1,1.2-3.4c0.7-0.2,2.4,0.5,1.5,1.8c-0.3-1.3-1.2-0.6-1.1,0.3
						c0,0.6,0.7,0.7-0.1,1.4C47.3,39.7,46.6,39.5,46.3,39.2z"/>
					<path fill="#4F2C1E" d="M25.9,23.4c9.7,3.2,17.8,2.5,19,1.6c-0.4,2,0.2,3.1,0.6,4.7c0.6,2.8-0.1,5.6-1.4,6.6
						c0.6,0.2,1.3,0.3,1.7,0.2c0.5-0.5,1.5-2.1,1.7-3.5c0.2-1.6,6.4-14.5-5.8-19.6c-8.9-3.8-16.3,2.7-20-1c-0.2,2.2-0.4,5.2,0.9,6.8
						c-1-0.2-1.6-0.4-2.4-0.5C21,20.2,22.7,22.4,25.9,23.4z"/>
					<path fill="#6A3B27" d="M22.1,13.2c0,0,1.4,8,12.5,9.4C46.6,24,50,21.2,46.9,17.1c-3.1-4.1-10.1-4.7-14.7-4
						C27.5,13.9,25.2,15.1,22.1,13.2z"/>
					<path fill="#4F2C1E" d="M45.7,31.3c-0.1,0.9-0.6,3.9-1.6,5c0.5,0.2,1.2,0.4,1.6,0.3c0.8-0.5,1.2-2.6,2.3-2.5
						C49,34.1,46.2,32.6,45.7,31.3z"/>
				</g>
				<g>
					<path opacity="0.5" fill="#B5441A" d="M39.7,34.2c-0.8-0.8,1.8-0.6,2.2-0.5c-0.1,0.5-1.2,0.1-1.6,0.2c0.3,0.4,1.2,0.5,1.5,0.7
						c0.4,0.3,0.3,0.4-0.2,0.4C41.4,35,39.9,34.4,39.7,34.2z"/>
					<path opacity="0.5" fill="#B5441A" d="M25.7,32.2c0.7-0.7-1.5-0.9-1.8-0.9c0,0.5,1,0.4,1.3,0.5c-0.3,0.3-1,0.2-1.3,0.4
						c-0.3,0.2-0.3,0.4,0.1,0.4C24.2,32.6,25.6,32.4,25.7,32.2z"/>
					<g>
						<path fill="#131C22" d="M38.6,34.5c0.5-0.2,1.1-0.2,1.6,0c1.2-0.8,0.5-3.8-1.2-3.3C37.7,31.6,37.6,33.8,38.6,34.5z"/>
					</g>
					<path opacity="0.35" fill="#B54817" d="M30.1,35c-0.4,0.3,0.2,1.5,1.6,1.7c1.4,0.2,2.4-0.9,1.9-1.2c-0.5-0.4-0.9-0.1-1.7-0.2
						C30.9,35.2,30.5,34.7,30.1,35z"/>
					<path fill="#FBCBA0" d="M30.1,35.1c-0.2-0.2,0.4-1.1,1-2c0.5-0.8,1-2.6,1.8-2.4c0.7,0.1,0.6,2.1,0.8,3c0.1,1,0.2,1.8-0.2,2
						C32.4,36.3,30.6,35.7,30.1,35.1z"/>
					<g>
						<path fill="#131C22" d="M25.9,29.7c-1,0.4-1.1,1.8-0.6,2.7c0.5,0,1,0.2,1.4,0.6C28.6,32.7,27.6,29,25.9,29.7z"/>
					</g>
					<path fill="#7E8CA9" d="M39.4,31.7c-0.6-0.3-1,0.6-0.6,1C39.4,33.2,40.1,32,39.4,31.7z"/>
					<path fill="#7E8CA9" d="M26.2,30.2c-0.5-0.2-0.9,0.6-0.5,1C26.4,31.6,26.9,30.4,26.2,30.2z"/>
					<path opacity="0.5" fill="#B5441A" d="M40.7,38.9c-0.6-0.4-2.2-0.5-2.2-0.5c-0.3,0.1,0.7,0.2,1.3,0.7c0,0,0.1,0.1,0.1,0.1
						c-4.6,1-11.8-0.2-15-1.5c0.1-0.1,0.1-0.1,0.3-0.1c0.7-0.1,1.3-0.1,1-0.2c0,0-1.7-0.5-2,0.1c-0.4,0.6,0,1.3,0.5,1.3
						c0.3,0,0.1-0.5,0.2-0.8c0.8,0.7,2.1,2.2,2.1,3.3c0,2,1.2,3.4,5.2,3.7c5.4,0.4,7.4-4.2,7.9-5.4c0.3,0.5,0.2,1.1,0.6,1
						C41.1,40.4,41.3,39.3,40.7,38.9z"/>
					<path fill="#4F2C1E" d="M24.4,28.9c-0.4,0.1-0.5-0.5-0.4-0.6c0.6-0.6,1.4-1.4,3.2-1.4c1.2,0,2.1-0.1,2.1-0.1
						c0,0.7-0.3,2.1-1.2,2c-0.6-0.1-1.1-0.2-1.7-0.2C25.5,28.6,24.8,28.8,24.4,28.9z"/>
					<path fill="#4F2C1E" d="M41.8,31.1c0.4,0.3,0.7-0.3,0.6-0.5c-0.4-0.8-0.9-1.8-2.8-2.4c-1.3-0.4-2.2-0.8-2.2-0.8
						c-0.3,0.7-0.5,2.1,0.5,2.3c0.6,0.1,1.2,0.2,1.8,0.3C40.8,30.5,41.5,30.9,41.8,31.1z"/>
					<path fill="#902824" d="M39,39.9c0,0-5.8,1.1-13-1.5c0,0,1.1,0.7,1.2,2.3c0.1,1.2,0.5,2.9,4.8,3.4C36.9,44.7,39,39.9,39,39.9z"
						/>
					<path fill="#FFF9F1" d="M37.4,40.3c0,0-0.2,1.6-1.7,2.1c-2,0.6-4.1,0.5-6.2-0.3c-1.4-0.5-2.1-3-2.1-3S31.4,40.2,37.4,40.3z"/>
					<path fill="#FFF9F1" d="M36.6,42.6c0.2-0.4,0.2-0.8-0.6-0.6c-1,0.3-2.8,0.4-4.9,0.2c-2.1-0.2-2.5-1.1-2.9-0.7
						c-0.4,0.4,0.8,2.6,4.2,2.6C36.2,44.2,36.6,42.6,36.6,42.6z"/>
					<path fill="#FBCBA0" d="M23.6,33.9c-0.1,0.1-0.2,0.2-0.3,0.4c-0.9,1.6,3.1,2,3.8,1.4c1.2-1.2,0-1.8-1-2.1
						C25.3,33.5,24.2,33.4,23.6,33.9z"/>
					<path fill="#FBCBA0" d="M38.3,35.6c-0.1,0.1-0.3,0.2-0.4,0.4c-1,1.6,3.2,2.2,3.9,1.6c1.3-1.2,0.1-1.9-1-2.2
						C40.1,35.2,39,35,38.3,35.6z"/>
					<path fill="#E8DAC5" d="M37.2,40.9c0,0-7.7-1.4-9.5-0.9c0,0-0.3-0.5-0.3-0.9c0,0,5.4,1.3,10.1,1.2
						C37.4,40.3,37.3,40.7,37.2,40.9z"/>
					<path fill="#E8DAC5" d="M35.6,42c0,0-2.9,0.7-6.8-0.5C28.7,41.5,32.2,43.3,35.6,42z"/>
				</g>
			</g>
		</g>
	</g>
</g>
</svg>
