<?xml version="1.0" encoding="utf-8"?>
<!-- Generator: Adobe Illustrator 18.1.1, SVG Export Plug-In . SVG Version: 6.00 Build 0)  -->
<svg version="1.1" xmlns="http://www.w3.org/2000/svg" xmlns:xlink="http://www.w3.org/1999/xlink" x="0px" y="0px"
	 viewBox="0 0 100 100" enable-background="new 0 0 100 100" xml:space="preserve">
<g id="Capa_1">
</g>
<g id="Capa_2">
	<g>
		<g>
			<rect x="31.9" y="80" fill="#121219" width="2.8" height="4.7"/>
			<rect x="30.9" y="76.3" fill="#121219" width="4.7" height="4.7"/>
			<rect x="35.3" y="77.5" fill="#121219" width="1.4" height="2.8"/>
			<rect x="24.2" y="75.7" fill="#121219" width="18.1" height="1.3"/>
			<rect x="27.5" y="65.3" fill="#121219" width="4.7" height="7.4"/>
			<rect x="32.5" y="84.7" fill="#121219" width="1.6" height="2.9"/>
			<g>
				<rect x="31.9" y="87.5" fill="#121219" width="2.7" height="2.9"/>
			</g>
			<path fill="#121219" d="M22.5,73.6c0,1.2,1,2.2,2.3,2.2h16.9c1.3,0,2.3-1,2.3-2.2c0-1.2-1-2.3-2.3-2.3H24.8
				C23.5,71.4,22.5,72.4,22.5,73.6z"/>
			<path fill="#121219" d="M13.1,61.1c0,4,3.2,7.2,7.2,7.2h18c4,0,7.2-3.2,7.2-7.2V46c0-4-3.2-7.2-7.2-7.2h-18c-4,0-7.2,3.2-7.2,7.2
				V61.1z"/>
			<g>
				<polygon fill="#121219" points="34.6,84.7 41.1,86.7 41.1,87.6 33.3,86.7 33.3,84.7 				"/>
				<circle fill="#121219" cx="41" cy="88.8" r="1.5"/>
			</g>
			<g>
				<polygon fill="#121219" points="31.9,84.7 25.4,86.7 25.4,87.6 33.2,86.7 33.2,84.7 				"/>
				<circle fill="#121219" cx="25.5" cy="88.8" r="1.5"/>
			</g>
		</g>
		<g>
			<defs>
				<filter id="Adobe_OpacityMaskFilter" filterUnits="userSpaceOnUse" x="19" y="85.4" width="37.4" height="5.7">
					<feFlood  style="flood-color:white;flood-opacity:1" result="back"/>
					<feBlend  in="SourceGraphic" in2="back" mode="normal"/>
				</filter>
			</defs>
			<mask maskUnits="userSpaceOnUse" x="19" y="85.4" width="37.4" height="5.7" id="SVGID_1_">
				<g filter="url(#Adobe_OpacityMaskFilter)">
					<defs>
						<filter id="Adobe_OpacityMaskFilter_1_" filterUnits="userSpaceOnUse" x="10.3" y="84.7" width="47.5" height="7.1">
							<feFlood  style="flood-color:white;flood-opacity:1" result="back"/>
							<feBlend  in="SourceGraphic" in2="back" mode="normal"/>
						</filter>
					</defs>
					<mask maskUnits="userSpaceOnUse" x="10.3" y="84.7" width="47.5" height="7.1" id="SVGID_1_">
						<g filter="url(#Adobe_OpacityMaskFilter_1_)">
						</g>
					</mask>
					
						<radialGradient id="SVGID_2_" cx="-571.2358" cy="62466.5273" r="17.8467" gradientTransform="matrix(1.2017 0 0 0.1624 720.509 -10056.3096)" gradientUnits="userSpaceOnUse">
						<stop  offset="0" style="stop-color:#FFFFFF"/>
						<stop  offset="7.362918e-002" style="stop-color:#E1E1E1"/>
						<stop  offset="0.2544" style="stop-color:#9E9E9E"/>
						<stop  offset="0.4259" style="stop-color:#666666"/>
						<stop  offset="0.5834" style="stop-color:#3A3A3A"/>
						<stop  offset="0.724" style="stop-color:#1B1B1B"/>
						<stop  offset="0.8425" style="stop-color:#080808"/>
						<stop  offset="0.9247" style="stop-color:#010101"/>
					</radialGradient>
					<ellipse mask="url(#SVGID_1_)" fill="url(#SVGID_2_)" cx="34.1" cy="88.3" rx="23.8" ry="3.6"/>
				</g>
			</mask>
			
				<radialGradient id="SVGID_3_" cx="-566.2163" cy="62578.8516" r="17.5225" gradientTransform="matrix(1.1502 0 0 0.1329 688.9885 -8228.4746)" gradientUnits="userSpaceOnUse">
				<stop  offset="0" style="stop-color:#010101"/>
				<stop  offset="0.9247" style="stop-color:#010101"/>
			</radialGradient>
			<path opacity="0.2" fill="url(#SVGID_3_)" d="M56.4,88.3c0,1.6-10,2.9-22.4,2.9c-12.4,0-15-1.3-15-2.9c0-1.6,2.7-2.9,15-2.9
				C46.4,85.4,56.4,86.7,56.4,88.3z"/>
			<g>
				<path fill="#121219" d="M25.2,71.7c0.8-3.3,2.4-6.5,8.7-6.5c0,0,0,0,0,0c0,0,0,0,0,0c7.8,0,8.4,4.1,10.1,6.5
					c2.3,3.2-6.2,4.3-8.7,2.4c-0.4-0.3-1-0.5-1.5-0.5c-0.5,0-1,0.2-1.5,0.5C28,77.5,24.3,75.2,25.2,71.7z"/>
				<path fill="#0D0F12" d="M29.2,83.6c3.5,1.9,0.2,6-3.3,6.1c-3.6,0.1-5.7-3.1-2.3-5C25.4,83.7,27.4,82.6,29.2,83.6z"/>
				<path fill="#1D1D27" d="M32.8,74.1c1.5-1.9-7.3-3.8-7.6-2.3c-1,4.4-3.4,0.6-2,12.7c2.3,1.1,6.6,1.7,8.2,0.3
					C28.8,78.6,30.1,77.4,32.8,74.1z"/>
				<path fill="#0D0F12" d="M44,86.3c-1.6,1.4,0.5,4.1,4.3,4.2c4,0.1,4.5-3.6,1.2-4.8C47.8,85,45.3,85,44,86.3z"/>
				<path fill="#1D1D27" d="M44,71.7c1.1,1.4,2,2.3,3.1,4.7c1.8,4,1.7,7.5,2.6,8.5c1.1,1.5-6.4,3.6-6.7,1.4
					c-0.5-3.6-0.8-4.3-2.1-6.7c-1.3-2.3-2.6-3.6-4.8-5.2C33.9,73,42.3,69.3,44,71.7z"/>
			</g>
			<path fill="#F8B87F" d="M52.3,64.5c2.1,0.9,4.8,1.4,3.7-0.2c0.7,0.4,2.9,0.8,1.6-0.5c1.1,0.8,2.1,0.3,1.3-0.6
				c-1-1.2-3.2-2.3-4.3-2c-0.9,0.2-2,0.7-3.7,0.2c-0.8-0.2-1.4,1.3-1.1,1.7C50.3,63.8,51,64,52.3,64.5z"/>
			<g>
				<path fill="#1E1E29" d="M45.7,48.3c4,2.1,2.3,11.9,7.7,12.7L52,65.8c0,0-8.6-1.4-7.6-11.8C44.5,53.8,44.9,47.9,45.7,48.3z"/>
			</g>
			<g>
				<path fill="#E9E8E8" d="M27.7,46.3c-2.6,2.2-3.3,4.8,0.6,8.6c3.9,3.8,6.6,4.3,6.6,4.3s8.5-8.2,7-11.9
					C40.1,42.9,30.3,44.2,27.7,46.3z"/>
				<path fill="#E62A2A" d="M34.1,49.5c1.9-0.4,2.6,1.1,2.6,1.1l-0.8,1.8l1.9,5.2l-2.4,5.3l-3.3-5l1.5-5.1l-1.4-1.4
					C32.2,51.3,32.4,49.9,34.1,49.5z"/>
				<g>
					<path fill="#1E1E29" d="M44.2,58.8c0.5-3.2,3-9,2.6-9.5c-0.9-1.2-4.6-3.1-5.7-3.6c0.1,0.3,0.5,0.9,0.5,1.2
						C41.1,52.5,35,58.3,35,58.3s-8.9-7.7-7.4-11.6c0.1-0.3,0.3-0.6,0.5-0.9c-2.1,0.9-5.9,2.7-6.2,3.4c-0.3,0.6,1.9,5.1,2.7,9.4
						c0.5,3.2,0.1,8.9-0.4,10.8c1.4,0.6,7.9,1.6,9.3,0.8c1.2-0.6,1.8-2,1.8-2.3c0,3.6,9,2.1,8.9,1.8C43.8,67.8,43.7,62.2,44.2,58.8z
						"/>
				</g>
				<path fill="#121219" d="M35.1,59.7c0,0-0.6,1.6,0.2,4.4C35.3,64.1,35.2,62,35.1,59.7z"/>
				<circle fill="#121219" cx="34.6" cy="64.6" r="0.5"/>
				<circle fill="#121219" cx="34.3" cy="59.3" r="0.5"/>
				<path fill="#121219" d="M35.3,68.1l0.2-3.1c0,0,0.1,3.6,0.7,4.5C36.1,69.6,35.3,69.2,35.3,68.1z"/>
				<path fill="#121219" d="M40.7,45.3c0,0,3.5,2.2,5,4.9l-3.5,1.2c0,0,1.9,2.8,2,3.3c0,0.2-3,0.8-5.2,2.1c-2,1.2-3.8,2.5-3.8,2.5
					s-0.4-0.4-0.1-0.9C35.4,57.8,41.5,52.3,40.7,45.3z"/>
				<path fill="#313243" d="M40.7,45.3c0,0,2.8,1.7,4.2,4.4l-3,1.7c0,0,1.6,2.3,1.7,2.7c0.1,0.2-2.5,1.1-4.7,2.4
					c-2,1.2-3.7,2.7-3.7,2.7s-0.4-0.4-0.1-0.9C35.4,57.8,41.5,52.3,40.7,45.3z"/>
				<path fill="#121219" d="M28.2,45.9c0,0-3.5,1.2-4.7,4.8l3.5,1c0,0-1.6,3.5-1.6,3.9c0,0.3,3.1-0.3,6.5,1.5
					c1.8,0.9,3.1,2.1,3.1,2.1s0.3-0.5,0-1C34.7,57.7,28.2,53.5,28.2,45.9z"/>
				<path fill="#313243" d="M28.2,45.8c0,0-3,1.4-4.2,4.4l3.6,1.3c0,0-1.5,3-1.6,3.4c0,0.3,2.7,0.2,6,1.9c1.8,0.9,2.9,2.3,2.9,2.3
					s0.3-0.5,0-1C34.7,57.7,28.2,53.4,28.2,45.8z"/>
				<path opacity="0.2" fill="#A19E99" d="M41.1,48c0,0-0.8,2.4-3.6,4.9l-2.9-2.5L31.9,53c0,0-2.4-1.5-3.3-4.4
					c-0.9-2.9,7.3-2.7,9.3-1.6C39.8,48.1,41.1,48,41.1,48z"/>
				<path fill="#F5F5F5" d="M34.6,50.4l2.7,1.7c0,0,5.4-2.8,3.4-6.9c-1.8-3.6-11.1-3.3-12.6,0.7c-1.4,3.5,3.6,6.3,3.6,6.3L34.6,50.4
					z"/>
				<path fill="#EF9E6D" d="M30.3,47.7c0.5,0.5,1.4,1.1,2.3,1.3c0.6,0.2,1.8,1,2,1c0.1,0,0.5-0.3,1.1-0.6c0.9-0.5,2.2-1.1,2.6-2
					c0.7-1.4,1.4-4.2,0-5.3c-1.4-1.1-4.1-1.3-5.8-0.9c-1.8,0.4-2.9,2-3,3.8C29.3,46.2,29.5,47,30.3,47.7z"/>
			</g>
			<g>
				<path fill="#121219" d="M28.4,66.1c0-2.3,2.7-4.1,5.9-4.1c3.3,0,5.9,1.9,5.9,4.1H28.4z"/>
				<path fill="#3B3B4A" d="M34.8,66.1c0,0,0.6-1.7-0.7-2.6c-1.3-0.9,0.2-1.7,2.4-1c2.2,0.6,3,2.4,3.2,3.6H34.8z"/>
				<g>
					<path fill="#121219" d="M36.4,63.6c-0.1,0-0.2,0-0.3-0.1c-0.7-0.7-1.9-0.8-1.9-0.8c-0.2,0-0.4-0.2-0.3-0.4
						c0-0.2,0.2-0.4,0.4-0.3c0.1,0,1.5,0.1,2.4,1c0.1,0.1,0.1,0.4,0,0.5C36.6,63.6,36.5,63.6,36.4,63.6z"/>
				</g>
			</g>
			<g>
				<path fill="#F8B87F" d="M29.1,65.4c2.3,0,4.9-0.6,3.3-1.7c0.8,0.1,3-0.4,1.3-1.1c1.3,0.3,2-0.5,1-1.1c-1.4-0.7-3.8-0.9-4.8-0.2
					c-0.7,0.5-1.5,1.4-3.3,1.7c-0.8,0.1-0.8,1.8-0.3,2C27.1,65.5,27.7,65.4,29.1,65.4z"/>
				<path fill="#1E1E29" d="M23,48.4c-8.6,6.7-5.9,17.8,4.4,17.7l1.2-4.6c-7-0.1-7.1-5-5.2-7.4C23.5,53.9,23.7,47.9,23,48.4z"/>
			</g>
			<g>
				<path fill="#4F3023" d="M45.1,26.2c-0.2-4.4-0.8-5.9-0.8-7.7C44.4,11,37.8,6.2,27.4,8.1c-18.3,3.4-12.5,28.6-7.4,27
					c3.8-1.2,7.5-2.7,11.2-4.1c3.5-1.3,7.5-1,11.2-1.1C45.4,29.7,45.2,28.5,45.1,26.2z"/>
				<path fill="#F8B881" d="M20.4,34.7C22.1,41.5,28.1,48.4,36,47c8-1.4,11-11.9,9.1-20.2c-2.1-9-7.2-16.2-16.5-13.3
					C22,15.5,18.2,25.7,20.4,34.7z"/>
				<path fill="#F8B881" d="M19.1,37.8c0.9,0.2,1.8,0.2,2.7,0c0,0,0-0.1,0-0.1c0.3-0.7-0.7-3.8-1-4.5c-0.7-1.6-1.7-2.7-3.2-2.1
					C14.4,32.5,16.3,37.2,19.1,37.8z"/>
				<path opacity="0.5" fill="#D99F7C" d="M44,23c-0.9-2.6-3.4-1.5-6.6-0.9c-5,1.1-10.9,1.8-15,0.5c0.3,2.6-1.6,3.8-2.2,6.4
					c-0.3,1.4-1-4.9-1.1-5.8c-0.1-2.2-0.3-5.2,1.3-6.9c2-2.2,6-2.5,8.7-2.7c4-0.4,7.7,0.1,11.6,1.2C43.3,15.5,44.2,20.6,44,23z"/>
				<path opacity="0.6" fill="#D99F7C" d="M20.3,36.5c1.1-0.9-0.3-3.3-1.2-3.7c-0.8-0.3-2.6,0.5-1.6,1.9c0.3-1.4,1.2-0.6,1.2,0.4
					c0,0.7-0.7,0.7,0.1,1.5C19.2,37,19.9,36.8,20.3,36.5z"/>
				<path fill="#4F3023" d="M42,19.7c-10.3,3.4-19,2.7-20.3,1.8c0.4,2.1-0.3,3.4-0.6,5c-0.7,3,0.2,6,1.5,7c-0.6,0.2-1.4,0.3-1.8,0.2
					c-0.5-0.6-1.6-2.3-1.8-3.8c-0.3-1.7-6.8-15.4,6.2-20.9c9.5-4,17.4,2.8,21.3-1.1c0.2,2.3,0.4,5.5-1,7.3c1-0.3,1.7-0.5,2.6-0.6
					C47.1,16.3,45.3,18.6,42,19.7z"/>
				<path fill="#6A3B27" d="M46,8.8c0,0-1.5,8.6-13.3,10c-12.9,1.6-16.5-1.5-13.1-5.8c3.3-4.4,10.7-5,15.7-4.2
					C40.3,9.5,42.7,10.8,46,8.8z"/>
			</g>
			<g>
				<path opacity="0.5" fill="#D99F7C" d="M27.3,31.2c0.8-0.9-2-0.7-2.4-0.5c0.1,0.5,1.3,0.1,1.7,0.2c-0.3,0.4-1.3,0.5-1.6,0.8
					c-0.4,0.3-0.3,0.5,0.2,0.4C25.4,32,27.1,31.4,27.3,31.2z"/>
				<path opacity="0.5" fill="#D99F7C" d="M42.1,29.1c-0.8-0.7,1.6-1,1.9-0.9c0,0.5-1.1,0.4-1.4,0.5c0.3,0.3,1.1,0.2,1.4,0.4
					c0.4,0.2,0.3,0.4-0.1,0.4C43.7,29.5,42.3,29.2,42.1,29.1z"/>
				<g>
					<path fill="#131C22" d="M28.4,31.5c-0.5-0.2-1.2-0.2-1.7,0c-1.3-0.9-0.5-4.1,1.3-3.5C29.3,28.4,29.5,30.8,28.4,31.5z"/>
				</g>
				<path opacity="0.35" fill="#B54817" d="M37.5,32c0.4,0.3-0.2,1.6-1.7,1.8c-1.5,0.3-2.5-0.9-2-1.3c0.6-0.4,1-0.1,1.8-0.2
					C36.6,32.2,37,31.7,37.5,32z"/>
				<path fill="#FBCBA0" d="M37.5,32.2c0.2-0.2-0.5-1.2-1-2.1c-0.5-0.8-1.1-2.7-2-2.6c-0.8,0.1-0.7,2.2-0.8,3.2
					c-0.2,1-0.2,1.9,0.2,2.2C35,33.4,37,32.8,37.5,32.2z"/>
				<g>
					<path fill="#131C22" d="M42,26.4c1,0.4,1.2,2,0.6,2.8c-0.5,0-1.1,0.2-1.5,0.6C39.1,29.6,40.1,25.6,42,26.4z"/>
				</g>
				<path fill="#7E8CA9" d="M27.5,28.5c0.6-0.3,1.1,0.6,0.6,1.1C27.5,30.1,26.8,28.8,27.5,28.5z"/>
				<path fill="#7E8CA9" d="M41.6,26.9c0.6-0.2,1,0.7,0.5,1C41.5,28.5,40.9,27.2,41.6,26.9z"/>
				<g opacity="0.35">
					<path fill="#B54817" d="M43.8,34.5c-0.4-0.6-2.1-0.1-2.1-0.1c-0.3,0.1,0.3,0.1,1,0.3c0.1,0,0.2,0.1,0.3,0.2
						c-3.4,1.5-11.1,2.7-16,1.6c0,0,0.1-0.1,0.1-0.1c0.7-0.5,1.7-0.6,1.4-0.7c0,0-1.7,0.1-2.3,0.5c-0.6,0.4-0.5,1.6,0,1.6
						c0.4,0,0.3-0.6,0.6-1.1c0.5,1.3,2.6,6.1,8.4,5.8c4.3-0.3,5.6-1.8,5.6-4c0-1.2,1.4-2.8,2.2-3.5c0.1,0.4-0.1,0.9,0.2,0.9
						C43.7,35.9,44.1,35.1,43.8,34.5z"/>
				</g>
				<path fill="#4F3023" d="M43.5,25.6c0.4,0.1,0.5-0.5,0.4-0.7c-0.7-0.7-1.5-1.5-3.4-1.5c-1.3,0-2.3-0.1-2.3-0.1
					c0,0.7,0.3,2.3,1.3,2.2c0.6-0.1,1.2-0.2,1.8-0.2C42.4,25.2,43.2,25.5,43.5,25.6z"/>
				<path fill="#4F3023" d="M25,27.9c-0.4,0.3-0.8-0.3-0.6-0.5c0.4-0.9,1-1.9,2.9-2.5c1.3-0.4,2.3-0.9,2.3-0.8
					c0.3,0.7,0.5,2.2-0.6,2.5c-0.6,0.1-1.3,0.2-1.9,0.4C26.1,27.2,25.4,27.7,25,27.9z"/>
				<path fill="#902824" d="M28,37.3c0,0,6.2,1.2,13.9-1.6c0,0-1.2,0.8-1.3,2.5c-0.1,1.3-0.5,3.1-5.1,3.6C30.3,42.4,28,37.3,28,37.3
					z"/>
				<path fill="#FFF9F1" d="M29.7,37.7c0,0,0.2,1.7,1.8,2.2c2.1,0.7,4.4,0.6,6.6-0.3c1.5-0.6,2.2-3.2,2.2-3.2S36.1,37.6,29.7,37.7z"
					/>
				<path fill="#FFF9F1" d="M30.5,40.2c-0.2-0.4-0.2-0.9,0.7-0.6c1.1,0.3,3,0.5,5.2,0.2c2.2-0.2,2.6-1.1,3.1-0.7
					c0.4,0.4-0.9,2.8-4.4,2.8C31,41.9,30.5,40.2,30.5,40.2z"/>
				<path fill="#FBCBA0" d="M44.4,30.9c0.1,0.1,0.2,0.3,0.3,0.4c0.9,1.7-3.3,2.1-4,1.5c-1.3-1.3,0-2,1-2.2
					C42.6,30.4,43.7,30.3,44.4,30.9z"/>
				<path fill="#FBCBA0" d="M28.8,32.7c0.1,0.1,0.3,0.3,0.4,0.4c1,1.7-3.4,2.3-4.2,1.7c-1.4-1.3-0.1-2.1,1-2.3
					C26.8,32.2,28,32,28.8,32.7z"/>
				<path fill="#E8DAC5" d="M29.9,38.4c0,0,8.2-1.5,10.1-1c0,0,0.3-0.6,0.3-1c0,0-5.8,1.3-10.7,1.3C29.7,37.6,29.8,38.2,29.9,38.4z"
					/>
				<path fill="#E8DAC5" d="M31.7,39.5c0,0,3.1,0.8,7.3-0.5C38.9,39,35.3,40.9,31.7,39.5z"/>
			</g>
		</g>
		<g>
			<rect x="10.2" y="67.4" fill="#502216" width="77.6" height="23.3"/>
			<rect x="79.1" y="67.6" fill="#502216" width="8.7" height="25.4"/>
			<rect x="10.2" y="67.6" fill="#502216" width="8.7" height="25.4"/>
			<polygon fill="#CFB6AB" points="87.9,68.5 10.2,68.5 10.2,69.8 87.9,70.7 			"/>
			<rect x="8.3" y="66.1" fill="#6F3D2D" width="81.5" height="3"/>
		</g>
		<g>
			
				<rect x="85.3" y="40.3" transform="matrix(0.9938 -0.1109 0.1109 0.9938 -4.2677 10.0745)" fill="#FFE655" width="6.2" height="6.2"/>
			
				<rect x="50.9" y="41.7" transform="matrix(0.9889 0.1484 -0.1484 0.9889 7.252 -7.5183)" fill="#FFE655" width="6.2" height="6.2"/>
			
				<rect x="50.1" y="49.5" transform="matrix(0.9897 -0.1435 0.1435 0.9897 -6.9989 8.1717)" fill="#F298BA" width="6.2" height="6.2"/>
			<rect x="60.8" y="63.9" fill="#3B3B4A" width="17.9" height="2.2"/>
			<rect x="65.6" y="63.9" fill="#1D1D27" width="13.3" height="2.2"/>
			<path fill="#494958" d="M54.3,37.6c0-1.1,0.9-2,2-2h28.5c1.1,0,2,0.9,2,2v21.1c0,1.1-0.9,2-2,2H56.3c-1.1,0-2-0.9-2-2V37.6z"/>
			<path fill="#1D1D27" d="M56,37.6c0-1.1,0.9-2,2-2h28.5c1.1,0,2,0.9,2,2v21.1c0,1.1-0.9,2-2,2H58c-1.1,0-2-0.9-2-2V37.6z"/>
			<rect x="67.9" y="49.1" fill="#3B3B4A" width="8.3" height="15.9"/>
			<rect x="68.6" y="49.5" fill="#121219" width="8.3" height="15.5"/>
		</g>
		<g>
			<rect x="44.1" y="64.5" fill="#3B3B4A" width="22.9" height="1.5"/>
			<g>
				<path fill="#3B3B4A" d="M65.2,64.7h-1.7V64h1.7V64.7z M63.1,64.7h-1.7V64h1.7V64.7z M60.9,64.7h-1.7V64h1.7V64.7z M58.8,64.7H57
					V64h1.7V64.7z M56.6,64.7h-1.7V64h1.7V64.7z M54.4,64.7h-1.7V64h1.7V64.7z M52.3,64.7h-1.7V64h1.7V64.7z M50.1,64.7h-1.7V64h1.7
					V64.7z M47.9,64.7h-1.7V64h1.7V64.7z"/>
			</g>
			<rect x="52.2" y="64.5" fill="#1D1D27" width="15.1" height="1.5"/>
		</g>
		<g>
			<polygon fill="#1D0D08" points="59.6,61.7 43.5,61.7 41.7,66.1 57.7,66.1 			"/>
			<polygon fill="#97611F" points="59.6,61.7 43.5,61.7 45.7,66.1 61.8,66.1 			"/>
			<polygon fill="#EDBD82" points="45.1,63.8 44.3,62.2 59.3,62.2 60.1,63.8 			"/>
			<polygon fill="#4E2A14" points="45.9,65.4 45.1,63.8 60.1,63.8 60.9,65.4 			"/>
		</g>
		<g>
			<rect x="51.5" y="8.5" fill="#CDA87B" width="18.7" height="23.5"/>
			<rect x="53.5" y="10.3" fill="#FCFBF6" width="14.6" height="20"/>
			<polygon fill="#D39D5A" points="66.5,25.8 55.2,25.8 56,26.6 55.2,27.4 66.5,27.4 65.7,26.6 			"/>
			<ellipse fill="#D39D5A" cx="60.9" cy="26.6" rx="1.5" ry="1.6"/>
			<rect x="56" y="12.8" fill="#D5D5D4" width="9.7" height="10.5"/>
			<polygon opacity="0.5" fill="#FFFFFF" points="69.1,9.6 52.7,9.6 52.7,21 69.1,17.9 			"/>
		</g>
	</g>
</g>
</svg>
