<?xml version="1.0" encoding="utf-8"?>
<!-- Generator: Adobe Illustrator 18.1.1, SVG Export Plug-In . SVG Version: 6.00 Build 0)  -->
<svg version="1.1" xmlns="http://www.w3.org/2000/svg" xmlns:xlink="http://www.w3.org/1999/xlink" x="0px" y="0px"
	 viewBox="0 0 100 100" enable-background="new 0 0 100 100" xml:space="preserve">
<g id="Capa_1">
</g>
<g id="Capa_2">
	<g>
		<defs>
			<filter id="Adobe_OpacityMaskFilter" filterUnits="userSpaceOnUse" x="67.5" y="79.6" width="27.9" height="3.6">
				<feColorMatrix  type="matrix" values="1 0 0 0 0  0 1 0 0 0  0 0 1 0 0  0 0 0 1 0"/>
			</filter>
		</defs>
		<mask maskUnits="userSpaceOnUse" x="67.5" y="79.6" width="27.9" height="3.6" id="SVGID_1_">
			<g filter="url(#Adobe_OpacityMaskFilter)">
				<defs>
					<filter id="Adobe_OpacityMaskFilter_1_" filterUnits="userSpaceOnUse" x="66.7" y="79.2" width="29.7" height="4.4">
						<feFlood  style="flood-color:white;flood-opacity:1" result="back"/>
						<feBlend  in="SourceGraphic" in2="back" mode="normal"/>
					</filter>
				</defs>
				<mask maskUnits="userSpaceOnUse" x="66.7" y="79.2" width="29.7" height="4.4" id="SVGID_1_">
					<g filter="url(#Adobe_OpacityMaskFilter_1_)">
					</g>
				</mask>
				
					<radialGradient id="SVGID_2_" cx="-440.6296" cy="62424.4688" r="11.1346" gradientTransform="matrix(1.2017 0 0 0.1624 610.9928 -10056.3096)" gradientUnits="userSpaceOnUse">
					<stop  offset="0" style="stop-color:#FFFFFF"/>
					<stop  offset="7.362918e-002" style="stop-color:#E1E1E1"/>
					<stop  offset="0.2544" style="stop-color:#9E9E9E"/>
					<stop  offset="0.4259" style="stop-color:#666666"/>
					<stop  offset="0.5834" style="stop-color:#3A3A3A"/>
					<stop  offset="0.724" style="stop-color:#1B1B1B"/>
					<stop  offset="0.8425" style="stop-color:#080808"/>
					<stop  offset="0.9247" style="stop-color:#010101"/>
				</radialGradient>
				<path mask="url(#SVGID_1_)" fill="url(#SVGID_2_)" d="M96.3,81.4c0,1.2-6.6,2.2-14.8,2.2s-14.8-1-14.8-2.2
					c0-1.2,6.6-2.2,14.8-2.2S96.3,80.2,96.3,81.4z"/>
			</g>
		</mask>
		
			<radialGradient id="SVGID_3_" cx="-432.9554" cy="62527.4375" r="11.7637" gradientTransform="matrix(1.1502 0 0 0.1329 579.4735 -8228.4746)" gradientUnits="userSpaceOnUse">
			<stop  offset="0" style="stop-color:#010101"/>
			<stop  offset="0.9247" style="stop-color:#010101"/>
		</radialGradient>
		<path opacity="0.2" fill="url(#SVGID_3_)" d="M95.4,81.4c0,1-6.2,1.8-14,1.8c-7.7,0-14-0.8-14-1.8c0-1,6.2-1.8,14-1.8
			C89.2,79.6,95.4,80.4,95.4,81.4z"/>
		<defs>
			<filter id="Adobe_OpacityMaskFilter_2_" filterUnits="userSpaceOnUse" x="38.7" y="79.6" width="27.9" height="3.6">
				<feColorMatrix  type="matrix" values="1 0 0 0 0  0 1 0 0 0  0 0 1 0 0  0 0 0 1 0"/>
			</filter>
		</defs>
		<mask maskUnits="userSpaceOnUse" x="38.7" y="79.6" width="27.9" height="3.6" id="SVGID_4_">
			<g filter="url(#Adobe_OpacityMaskFilter_2_)">
				<defs>
					<filter id="Adobe_OpacityMaskFilter_3_" filterUnits="userSpaceOnUse" x="37.9" y="79.2" width="29.7" height="4.4">
						<feFlood  style="flood-color:white;flood-opacity:1" result="back"/>
						<feBlend  in="SourceGraphic" in2="back" mode="normal"/>
					</filter>
				</defs>
				<mask maskUnits="userSpaceOnUse" x="37.9" y="79.2" width="29.7" height="4.4" id="SVGID_4_">
					<g filter="url(#Adobe_OpacityMaskFilter_3_)">
					</g>
				</mask>
				
					<radialGradient id="SVGID_5_" cx="-464.5883" cy="62424.4688" r="11.1346" gradientTransform="matrix(1.2017 0 0 0.1624 610.9928 -10056.3096)" gradientUnits="userSpaceOnUse">
					<stop  offset="0" style="stop-color:#FFFFFF"/>
					<stop  offset="7.362918e-002" style="stop-color:#E1E1E1"/>
					<stop  offset="0.2544" style="stop-color:#9E9E9E"/>
					<stop  offset="0.4259" style="stop-color:#666666"/>
					<stop  offset="0.5834" style="stop-color:#3A3A3A"/>
					<stop  offset="0.724" style="stop-color:#1B1B1B"/>
					<stop  offset="0.8425" style="stop-color:#080808"/>
					<stop  offset="0.9247" style="stop-color:#010101"/>
				</radialGradient>
				<path mask="url(#SVGID_4_)" fill="url(#SVGID_5_)" d="M67.5,81.4c0,1.2-6.6,2.2-14.8,2.2s-14.8-1-14.8-2.2
					c0-1.2,6.6-2.2,14.8-2.2S67.5,80.2,67.5,81.4z"/>
			</g>
		</mask>
		
			<radialGradient id="SVGID_6_" cx="-457.9868" cy="62527.4375" r="11.7637" gradientTransform="matrix(1.1502 0 0 0.1329 579.4735 -8228.4746)" gradientUnits="userSpaceOnUse">
			<stop  offset="0" style="stop-color:#010101"/>
			<stop  offset="0.9247" style="stop-color:#010101"/>
		</radialGradient>
		<path opacity="0.2" fill="url(#SVGID_6_)" d="M66.7,81.4c0,1-6.2,1.8-14,1.8c-7.7,0-14-0.8-14-1.8c0-1,6.2-1.8,14-1.8
			C60.4,79.6,66.7,80.4,66.7,81.4z"/>
		<g>
			<path fill="#EBA87D" d="M61.4,63c0.2-0.7,1.1-1.1,1.5-1.3c0.6-0.3,0.8-0.8,1.3-0.7c0.4,0,0.8,0.1,1.2,0.1c0.8-0.1,1.1,0.6,1.3,1
				c0.6,0.9-0.2,1.8-1,1.8c-0.7,0-1.4,0-2.2,0.4C62.8,64.6,61.1,64.1,61.4,63z"/>
			<path fill="#F8B881" d="M74.2,49.2c-0.3,0.2-2.7,1.9-2.5,3.2c0.3,2,2.5,0.8,3.1,0.3c0.4-0.3,0.6-2.1,0.8-2.6
				C75.9,48.8,75.1,48.7,74.2,49.2z"/>
			<path fill="#1E1E29" d="M71.7,51c-4.3,2.4-8.2,2-12.6-1.2c-1.8-1.3-1.4,2.7-0.6,3.5c2,2.1,7.4,6.2,14.3,1.5L71.7,51z"/>
			<path fill="#E9E8E8" d="M47.3,49.6c-2.1,1.7-2.7,3.8,0.5,6.9c3.1,3.1,5.3,3.4,5.3,3.4s6.9-6.6,5.6-9.5
				C57.2,46.8,49.4,47.9,47.3,49.6z"/>
			<path fill="#E62A2A" d="M52.5,52.2c1.5-0.3,2.1,0.9,2.1,0.9l-0.7,1.4l1.6,4.2l-1.9,4.2l-2.7-4l1.2-4.1l-1.1-1.1
				C50.9,53.6,51.1,52.5,52.5,52.2z"/>
			<path fill="#0D0F12" d="M48.4,76.9c2.7-0.8,3.1,3.3,1.3,5.2c-1.8,1.9-4.5,1.2-3.7-1.6C46.5,78.9,47,77.3,48.4,76.9z"/>
			<path fill="#0D0F12" d="M56.9,76.8c-2.8-0.5-2.8,3.6-0.8,5.3c2,1.7,4.6,0.7,3.5-2C59,78.7,58.4,77.1,56.9,76.8z"/>
			<path fill="#252728" d="M59.2,80.1c-0.1-0.2-0.2-0.4-0.4-0.5C58.5,80,57.5,80,57,80.1c-0.5,0.1-1.3,0.1-0.6,0.7
				c0.5,0.5,1.4,0.8,2.1,0.8C59.3,81.5,59.5,80.7,59.2,80.1z"/>
			<path fill="#1D1D27" d="M46.5,62.8c-0.1,2-0.1,4-0.2,6c-0.1,3,0.4,6.8-0.6,9.7c0.4,0.2,0.9,0.4,1.3,0.6c1.7,0.6,3.4,0,5.2-0.3
				c-0.5-5.1,0.7-10.2,0.7-15.3C53,62.2,46.6,61,46.5,62.8z"/>
			<path fill="#1D1D27" d="M52.8,64.3c0.4,2.7,0.2,5.5,0.2,8.2c0,1.9-0.1,4.2-0.2,6.1c0.6,0.2,2.4,0.6,2.9,0.6c1.3,0,3-0.5,3.8-0.9
				c-0.6-2-1-5.4-1.2-8.4c-0.1-2.2,0.5-5.1-0.1-7.2C57.8,61.1,52.4,61.6,52.8,64.3z"/>
			<path fill="#121219" d="M46.3,68.1v2.1c0,0,2.5-0.4,6.1,0.6c0,0,0-0.4,0.1-0.6c0-0.2,0.5-0.3,0.5,0.1c0,0.3,0,0.5,0,0.5
				s1.9-1.5,5.3-0.6l0-2.1l-5.6-1.7L46.3,68.1z"/>
			<g>
				<path fill="#1E1E29" d="M60.3,58.3c0.5-2.8,2-5.4-0.2-7.8c-0.5-0.5-1.1-0.9-1.8-1.2c0.1,0.2,0.1,0.5,0.1,0.7
					c-0.4,4.6-5.3,9.2-5.3,9.2s-6.9-6.2-5.7-9.3c0.1-0.3,0.4-0.6,0.6-0.8c-1.3,0.8-2.4,1.5-2.8,3c-0.5,1.7,0.2,5.7,0.1,8.8
					c0,1.6-0.1,5.8-0.5,7.4c1.1,0.5,5.9,1.3,7,0.7c0.9-0.5,1.4-1.6,1.5-1.9c0,2.9,7,1.7,6.9,1.4C60,66.8,59.8,61.1,60.3,58.3z"/>
			</g>
			<path fill="#121219" d="M60.1,66.3c-8.4,0.3-13.2-4.1-14-5.3c-0.3-0.5-1.1-1.5-0.6-2.1c0.8-1.1,4.3,0.5,5.2,0.9
				c2.2,0.8,4.3,2.1,6.6,2.5c0.9,0.2,1.7,0.1,2.6,0.3C59.9,62.5,60.1,65.4,60.1,66.3z"/>
			<path fill="#121219" d="M53.3,60.4c0,0-0.5,1.3,0.1,3.5C53.4,63.9,53.3,62.2,53.3,60.4z"/>
			<circle fill="#121219" cx="52.7" cy="65.3" r="0.4"/>
			<circle fill="#121219" cx="52.3" cy="60.9" r="0.4"/>
			<path fill="#F8B881" d="M63.6,65.5c0.9,0.1,2.1-1.2,2-1.7c-0.7-0.8-1.3-1.1-1.7-1.7c0.1-0.5-0.6-1-1-1.2
				c-0.8-0.3-1.3,0.5-2.2,0.5c-0.9,0-1.2,2.7-0.6,2.6C61.3,63.8,62,65.3,63.6,65.5z"/>
			<path fill="#EBA87D" d="M61.5,64.8c-0.2-0.2,0-0.5,0.2-0.7c0.6-0.5,0.9-0.5,0.9,0.1c0.2-0.1,0.9-0.4,1.1,0.3c0.1,0.5,0,0.9-0.1,1
				C63.3,65.6,61.5,64.8,61.5,64.8z"/>
			<path fill="#FBCBA0" d="M61.8,64.1c0.5-0.4,0.8-0.2,0.6,0.3c0.8-0.4,1.2,0,1.2,0.8c0,0.6-0.5,0.4-1.4,0.1
				C61.5,65.1,61.2,64.7,61.8,64.1z"/>
			<path fill="#121219" d="M53.4,67.1l0.1-2.5c0,0-0.1,2.9,0.4,3.6C53.9,68.3,53.5,68.2,53.4,67.1z"/>
			<path fill="#EBA87D" d="M63.6,61.2c-0.6,0.3-1.1,0.5-1.4,0.6c-0.1,0.1-0.3,0.2-0.3,0.4c0,0.2,0.3,0.5,0.5,0.5
				c0.9,0.1,1.5-0.5,1.6-0.5c0.3,0.4,0.7,0.6,0.7,0.6c0.1-0.1,0.1-0.2,0.1-0.2c0-0.4-0.1-0.8-0.4-1.1c-0.1-0.1-0.3-0.2-0.4-0.3
				L63.6,61.2z"/>
			<path fill="#FBCBA0" d="M63.6,61.1c-0.7,0.6-1.4,0.7-1.4,0.9c-0.2,0.4,0.4,0.5,0.6,0.5c0.6-0.1,1-0.4,1.1-0.5
				c0.2-0.1,0.2,0.1,0.3,0.2c0.3,0.5,0.7,0.9,1.3,0.7c0.6-0.2,0.7-2.1-0.1-2C64.7,61.1,64.3,60.6,63.6,61.1z"/>
			<path fill="#313243" d="M60.7,61c-11.8,0.9-15.2-5.7-12.8-8.8l-0.1-2.9c-8.3,4.4-3.4,16.7,12.9,16.6L60.7,61z"/>
			<path fill="#252728" d="M46.5,80.4c0.1-0.2,0.2-0.4,0.3-0.5c0.4,0.4,1.4,0.2,1.9,0.2c0.5,0,1.3,0,0.7,0.7c-0.5,0.5-1.3,1-2,1
				C46.6,81.8,46.3,81,46.5,80.4z"/>
			<path fill="#121219" d="M57.6,48.8c0,0,2.8,1.8,4.2,3.9l-2.8,1c0,0,1.5,2.3,1.6,2.6c0,0.2-2.4,0.6-4.1,1.7
				c-1.6,0.9-3.1,2.1-3.1,2.1s-0.2-0.4,0-0.8C53.5,58.8,58.6,54.7,57.6,48.8z"/>
			<path fill="#313243" d="M57.4,48.6c0,0,2.2,1.1,3.9,3.6l-2.6,1.4c0,0,1.3,1.8,1.4,2.2c0,0.2-2,0.9-3.8,1.9c-1.6,0.9-3,2.3-3,2.3
				s-0.2-0.4-0.1-0.8C53.4,58.8,58.7,54.2,57.4,48.6z"/>
			<path opacity="0.5" fill="#121219" d="M48,49.1c0,0-2.7,1.9-3.6,3.8l2.6,0.9c0,0-0.9,3.1-0.6,3.2c0.5,0.1,1.5-0.2,4.2,1.2
				c1.4,0.7,2.6,1.8,2.6,1.8s0.1-0.5-0.1-0.9C53,58.8,48,55.3,48,49.1z"/>
			<path fill="#313243" d="M48.5,48.7c0,0-2.1,1.5-3.5,3.8l2.3,1.3c0,0-0.3,2.3-0.4,2.7c0,0.2,1.2,0.3,3.9,1.6c1.4,0.7,2.5,2,2.5,2
				s0.2-0.4-0.1-0.8C53,58.8,49,54.7,48.5,48.7z"/>
			<path opacity="0.2" fill="#A19E99" d="M55.2,54.9l-2.3-2L50.7,55c0,0-1.9-1.2-2.7-3.5c-0.7-2.3,7.5-3,9.2-2.2
				C58.8,50.1,57.4,52.9,55.2,54.9z"/>
			<path fill="#F5F5F5" d="M52.9,52.9l2.2,1.4c0,0,3.9-2.6,2.3-5.8c-1.5-2.9-7.8-2.7-9.1,0.5c-1.1,2.8,2.3,5.4,2.3,5.4L52.9,52.9z"
				/>
			<path fill="#EF9E6D" d="M49.4,50.7c0.4,0.4,1.1,0.8,1.9,1.1c0.5,0.2,1.4,0.8,1.6,0.8c0.1,0,0.4-0.3,0.9-0.5
				c0.7-0.4,1.7-0.9,2.1-1.6c0.6-1.1,1.1-3.4,0-4.2c-1.1-0.9-3.3-1.1-4.7-0.8c-1.4,0.3-2.3,1.6-2.4,3C48.6,49.5,48.8,50.1,49.4,50.7
				z"/>
			<g>
				<g>
					<path fill="#4F2C1E" d="M62.6,33.4c0.1-3.6-0.3-4.9-0.1-6.3c0.6-6.1-4.4-10.5-13.1-9.6c-15.1,1.5-12.2,22.5-7.8,21.5
						c3.2-0.7,6.3-1.7,9.5-2.6c2.9-0.8,6.2-0.3,9.2-0.2C62.6,36.3,62.5,35.3,62.6,33.4z"/>
					<path fill="#F8B881" d="M41.9,38.6c0.9,5.6,5.4,11.7,11.9,11.1c6.7-0.6,9.8-9,8.8-15.9c-1.1-7.5-4.8-13.7-12.6-12
						C44.4,23.1,40.7,31.2,41.9,38.6z"/>
					<path fill="#F8B881" d="M40.6,41.1c0.7,0.2,1.5,0.3,2.2,0.2c0,0,0,0,0-0.1c0.3-0.5-0.3-3.2-0.5-3.7c-0.4-1.4-1.2-2.3-2.5-1.9
						C37.1,36.4,38.3,40.3,40.6,41.1z"/>
					<path opacity="0.5" fill="#D99F7C" d="M61.9,30.7c-0.6-2.2-2.7-1.5-5.3-1.2c-4.2,0.5-9,0.8-12.3-0.6c0.1,2.2-1.6,3-2.2,5
						c-0.4,1.1-0.5-4.1-0.5-4.8c0-1.8,0.1-4.2,1.5-5.6c1.7-1.7,5.1-1.6,7.3-1.6c3.3,0,6.3,0.6,9.4,1.8
						C61.9,24.5,62.2,28.7,61.9,30.7z"/>
					<path opacity="0.35" fill="#B5441A" d="M41.6,40.1c1-0.6,0-2.7-0.8-3.1c-0.6-0.3-2.1,0.3-1.4,1.5c0.4-1.1,1.1-0.4,1,0.4
						c-0.1,0.5-0.6,0.6,0,1.2C40.7,40.4,41.3,40.3,41.6,40.1z"/>
					<path fill="#4F2C1E" d="M60.5,27.8c-8.7,2-15.7,0.9-16.7,0c0.2,1.8-0.4,2.7-0.9,4c-0.7,2.4-0.3,4.9,0.7,5.8
						c-0.5,0.2-1.2,0.2-1.5,0c-0.4-0.5-1.1-2-1.2-3.2c-0.1-1.4-4.5-13,6.5-16.6c8-2.6,14,3.5,17.5,0.6c0,1.9-0.1,4.5-1.3,5.9
						c0.9-0.1,1.4-0.3,2.1-0.3C64.9,25.4,63.3,27.2,60.5,27.8z"/>
					<path fill="#6A3B27" d="M64.5,19.2c0,0-1.8,6.9-11.5,7.3c-10.6,0.4-13.4-2.3-10.3-5.7c3-3.3,9.1-3.4,13.1-2.4
						C59.8,19.4,61.7,20.6,64.5,19.2z"/>
					<path fill="#4F2C1E" d="M42.7,33.2c0,0.8,0.3,3.5,1,4.5c-0.5,0.2-1.1,0.2-1.4,0.1c-0.7-0.5-0.9-2.3-1.8-2.4
						C39.6,35.4,42.2,34.4,42.7,33.2z"/>
				</g>
				<g>
					<path opacity="0.5" fill="#B5441A" d="M47.7,36.3c0.7-0.7-1.6-0.7-1.9-0.6c0,0.4,1.1,0.2,1.4,0.3c-0.3,0.3-1.1,0.3-1.4,0.5
						c-0.3,0.2-0.3,0.3,0.1,0.3C46.1,36.8,47.5,36.4,47.7,36.3z"/>
					<path opacity="0.5" fill="#B5441A" d="M60,35.5c-0.6-0.6,1.3-0.7,1.6-0.6c-0.1,0.4-0.9,0.2-1.2,0.3c0.2,0.3,0.9,0.3,1.1,0.5
						c0.3,0.2,0.2,0.3-0.1,0.3C61.3,36,60.1,35.6,60,35.5z"/>
					<g>
						<path fill="#131C22" d="M48.6,36.6c-0.4-0.2-1-0.2-1.4-0.1c-1-0.8-0.1-3.4,1.3-2.8C49.6,34.1,49.6,36,48.6,36.6z"/>
					</g>
					<path opacity="0.35" fill="#B54817" d="M56,37.6c0.3,0.3-0.3,1.3-1.5,1.4c-1.3,0.1-2-0.9-1.5-1.2c0.5-0.3,0.8,0,1.5-0.1
						C55.2,37.7,55.6,37.3,56,37.6z"/>
					<path fill="#FBCBA0" d="M56,37.7c0.2-0.2-0.3-1-0.7-1.8c-0.3-0.7-0.7-2.3-1.4-2.2c-0.6,0.1-0.7,1.8-0.9,2.6
						c-0.2,0.8-0.3,1.6,0,1.8C53.8,38.6,55.5,38.2,56,37.7z"/>
					<g>
						<path fill="#131C22" d="M60,33.3c0.8,0.4,0.8,1.7,0.3,2.4c-0.4,0-0.9,0.1-1.2,0.4C57.5,35.7,58.5,32.6,60,33.3z"/>
					</g>
					<path fill="#7E8CA9" d="M48.1,34.1c0.5-0.2,0.9,0.6,0.4,0.9C48,35.4,47.5,34.3,48.1,34.1z"/>
					<path fill="#7E8CA9" d="M59.7,33.7c0.5-0.1,0.7,0.6,0.3,0.9C59.5,35,59.1,33.9,59.7,33.7z"/>
					<path opacity="0.5" fill="#B5441A" d="M46.5,40.2c0.6-0.3,1.9-0.3,1.9-0.3c0.2,0.1-0.6,0.1-1.2,0.5c0,0-0.1,0.1-0.1,0.1
						c3.9,1.2,10.2,0.7,13.1-0.2c0-0.1-0.1-0.1-0.2-0.1c-0.6-0.1-1.1-0.2-0.8-0.3c0,0,1.5-0.3,1.7,0.2c0.3,0.5-0.1,1.1-0.5,1.1
						c-0.3,0-0.1-0.5-0.1-0.8c-0.8,0.6-2,1.8-2.1,2.7C58.1,44.9,57,46,53.4,46c-4.7-0.1-6.2-4.2-6.5-5.3c-0.3,0.4-0.3,0.9-0.6,0.9
						C46,41.5,46,40.5,46.5,40.2z"/>
					<path fill="#4F2C1E" d="M61.3,32.7c0.4,0.2,0.5-0.4,0.4-0.5c-0.5-0.6-1.1-1.3-2.6-1.4c-1.1-0.1-1.9-0.3-1.9-0.2
						c0,0.6,0.1,1.9,0.9,1.8c0.5,0,1-0.1,1.5-0.1C60.4,32.4,61.1,32.6,61.3,32.7z"/>
					<path fill="#4F2C1E" d="M46.1,33.4c-0.4,0.2-0.6-0.3-0.5-0.5c0.4-0.7,0.9-1.5,2.6-1.9c1.1-0.3,1.9-0.6,2-0.5
						c0.2,0.6,0.3,1.9-0.6,2c-0.5,0.1-1.1,0.1-1.6,0.2C47,32.9,46.4,33.2,46.1,33.4z"/>
					<path fill="#902824" d="M47.9,41.2c0,0,5,1.4,11.4-0.4c0,0-1,0.5-1.2,1.9c-0.2,1-0.6,2.5-4.4,2.6
						C49.4,45.5,47.9,41.2,47.9,41.2z"/>
					<path fill="#FFF9F1" d="M49.2,41.7c0,0,0,1.4,1.4,1.9c1.7,0.7,3.5,0.8,5.4,0.2c1.3-0.4,2-2.5,2-2.5S54.5,42.1,49.2,41.7z"/>
					<path fill="#FFF9F1" d="M49.8,43.8c-0.1-0.4-0.1-0.8,0.6-0.5c0.8,0.3,2.4,0.6,4.2,0.6c1.8,0,2.2-0.8,2.5-0.4
						c0.3,0.4-0.9,2.2-3.8,2C50,45.2,49.8,43.8,49.8,43.8z"/>
					<path fill="#FBCBA0" d="M61.7,37.2c0.1,0.1,0.2,0.2,0.3,0.4c0.6,1.5-2.9,1.5-3.4,0.9c-1-1.1,0.1-1.6,1-1.7
						C60.3,36.6,61.2,36.6,61.7,37.2z"/>
					<path fill="#FBCBA0" d="M48.8,37.5c0.1,0.1,0.2,0.2,0.3,0.4c0.7,1.5-3,1.7-3.5,1.1c-1-1.1,0.1-1.7,1-1.8
						C47.3,37,48.3,37,48.8,37.5z"/>
					<path fill="#E8DAC5" d="M49.4,42.3c0,0,6.8-0.7,8.4-0.1c0,0,0.3-0.4,0.3-0.8c0,0-4.8,0.7-8.8,0.3
						C49.2,41.7,49.3,42.1,49.4,42.3z"/>
					<path fill="#E8DAC5" d="M50.7,43.3c0,0,2.5,0.8,6,0.1C56.7,43.4,53.6,44.7,50.7,43.3z"/>
				</g>
			</g>
		</g>
		<g>
			<path fill="#FBCBA0" d="M89.3,51.7c0,0,4.5,4.1,4.6,7.9C94,64,89,65.3,89,65.3L88.1,63c5.2-2.6,0.9-7.1-1.1-8.9
				C85.5,52.8,89.3,51.7,89.3,51.7z"/>
			<path fill="#FBCBA0" d="M75,52.3c1.1,3.9-3.3,11.2-9.2,11.5c-0.2-0.7,0.4-1.3-0.3-2.8c7.6-1.9,7.5-9,8.3-9.9
				c0.7-0.9,1.6-1.5,1.6-1.5S74.6,50.9,75,52.3z"/>
			<path fill="#E9E8E8" d="M75.6,49.1l3.3,3.2c0,0-2.1,3.6-3.9,6.5c-1.8,0-4.4-1.1-5.1-2.5c2.4-2,2.7-4.7,4.1-5.9
				C74.9,49.6,75.6,49.1,75.6,49.1z"/>
			<path fill="#E9E8E8" d="M87,49.3c3.3,2.8-0.3,15.7-0.3,15.3l-10.6,0.1C76,64.4,73,54.5,74.8,50.3C76.3,46.6,84.9,47.5,87,49.3z"
				/>
			<path fill="#3C9AD5" d="M81.6,52.1C80,51.8,79.5,53,79.5,53l1,1.6L79,59l2.1,3.9l2.2-4L82,54.7l1.2-1.2
				C83.2,53.5,83,52.3,81.6,52.1z"/>
			<path fill="#0D0F12" d="M85.7,76.8c-2.8-0.8-3.2,3.4-1.4,5.3c1.9,2,4.6,1.2,3.8-1.7C87.7,78.9,87.2,77.2,85.7,76.8z"/>
			<path fill="#0D0F12" d="M77.1,76.7c2.9-0.5,2.8,3.7,0.8,5.4c-2.1,1.8-4.7,0.8-3.6-2.1C74.9,78.6,75.6,77,77.1,76.7z"/>
			<path fill="#252728" d="M74.7,80.1c0.1-0.2,0.2-0.4,0.4-0.5C75.5,80,76.5,80,77,80c0.5,0.1,1.3,0.1,0.6,0.8
				c-0.5,0.5-1.4,0.9-2.1,0.8C74.7,81.5,74.5,80.7,74.7,80.1z"/>
			<path fill="#E9E8E8" d="M86.9,49.3c0,0,1,0.5,2.1,1.2c1.7,1.1,3.4,3.8,5.7,6.8c-0.9,1-4.1,2.1-5.6,1.8c-0.4-1.7-1.8-3-1.8-3
				L86.9,49.3z"/>
			<path fill="#252728" d="M87.7,80.3c-0.1-0.2-0.2-0.4-0.3-0.5C87,80.2,85.9,80,85.4,80c-0.5,0-1.3,0-0.7,0.7c0.5,0.5,1.3,1,2,1
				C87.6,81.7,87.9,81,87.7,80.3z"/>
			<path opacity="0.2" fill="#A19E99" d="M75.9,50.8c0,0,0.6,2,2.9,4l2.4-2l2.2,2.1c0,0,2-1.2,2.7-3.6c0.8-2.4-5.9-2.2-7.6-1.3
				C76.9,50.9,75.9,50.8,75.9,50.8z"/>
			<path fill="#F5F5F5" d="M81.2,52.8L79,54.2c0,0-4.4-2.3-2.8-5.6c1.5-3,9-2.7,10.3,0.6c1.1,2.8-2.9,5.1-2.9,5.1L81.2,52.8z"/>
			<path fill="#F2B98E" d="M84.8,50.6c-0.4,0.4-1.2,0.9-1.9,1.1c-0.5,0.2-1.5,0.8-1.6,0.8c-0.1,0-0.4-0.3-0.9-0.5
				c-0.7-0.4-1.8-0.9-2.2-1.7c-0.6-1.1-1.1-3.4,0-4.3c1.1-0.9,3.4-1.1,4.8-0.8c1.4,0.3,2.4,1.7,2.5,3.1C85.5,49.3,85.4,50,84.8,50.6
				z"/>
			<path fill="#1D1D27" d="M87,65.8l0-0.5c0,0,0-0.1,0-0.1c0,0,0,0,0,0l0-1.1c0,0-5.5,1-11.1-0.1l0.1,1.7c0.3,6-0.7,10.4-1.3,12.3
				c0.7,0.5,2.4,0.9,3.6,0.9c0.4,0,2.2-0.3,2.8-0.6c-0.1-1.9-0.2-3.8-0.2-5.8c0-1,0-1.7,0-2.4c0.1-0.4,0.5-0.3,0.6,0.2
				c0.2,2.5,0.5,4.8,0.2,8c1.7,0.3,3.3,0.9,5,0.3c0.4-0.2,0.8-0.4,1.3-0.6C87.2,75.6,87,68.4,87,65.8z"/>
			<path fill="#0D0F12" d="M87,64.4c0,0-5.2,1-11-0.1l0.1,1.3c0,0,4.2,1.6,10.9,0L87,64.4z"/>
			<path fill="#3D3C40" d="M79.7,66.3c0-0.5,0-1,0.1-1.5c1.1,0.1,2.2,0.1,3.1,0c-0.1,0.5-0.1,1-0.1,1.5
				C81.6,66.4,80.6,66.4,79.7,66.3z"/>
			<path fill="#FBCBA0" d="M89.7,64.3c-0.4,0.2-0.1,1.1-0.8,1.7c-0.8,0.6,0.6,0,0.8,0.7c0.2,0.7-2.8,1.8-3.3-0.5
				c-0.6-2.8,1.6-3.3,3.8-3.5C92.6,62.3,89.7,64.3,89.7,64.3z"/>
			<g>
				<path fill="#F3A76E" d="M84.3,51c-0.4,0.4-1.1,0.9-1.9,1.1c-0.5,0.2-1.4,0.8-1.6,0.8c-0.1,0-0.4-0.3-0.9-0.5
					c-0.7-0.4-1.7-0.9-2.1-1.6c-0.6-1.1-1.1-3.4,0-4.3c1.1-0.9,3.3-1.1,4.7-0.8c1.4,0.3,2.4,1.7,2.4,3C85.1,49.8,84.9,50.4,84.3,51z
					"/>
				<g>
					<path fill="#2C231D" d="M70.6,23.4c0.4-1.4,1.1-2.5,1.9-3.4c3.7-4,9.8-4.5,16.6-1.5c-0.6,0-1.9,0.2-3.6-0.1
						c3.6,1.7,7.9,3.9,8.8,8.1c2.3,10.5-6.4,5.7-9.3,6.5c-3.3,1-11.7-0.1-14-3.6C70.1,27.9,70,25.5,70.6,23.4z"/>
					<path fill="#FBCBA0" d="M92.1,39.2c-0.8,5.7-5.2,12-11.8,11.5c-6.8-0.5-10.1-8.9-9.3-15.9c1-7.6,4.6-14,12.5-12.5
						C89.2,23.4,93.2,31.5,92.1,39.2z"/>
					<path opacity="0.3" fill="#BF3D1C" d="M87.8,28.7c0.8,0.4,2.9,1.4,4-0.3c0.5-0.8,0.1-2-0.2-2.9c-0.4-1.1-1.7-1.7-2.7-2.2
						c-1.9-0.8-4.1-0.7-6.1-0.7c-2.3,0-4.5,0.4-6.7,1c-1.4,0.4-4.2,0.8-4.7,2.4c-0.6,2.1,1.6,2.3,3.1,2.3
						C78.2,28.5,86.1,27.8,87.8,28.7z"/>
					<path fill="#FBCBA0" d="M93.5,41.6c-0.7,0.3-1.5,0.3-2.2,0.2c0,0,0,0,0-0.1c-0.3-0.5,0.1-3.5,0.3-4c0.4-1.4,1.3-2.1,2.6-1.8
						C96.9,36.8,95.8,40.8,93.5,41.6z"/>
					<path opacity="0.3" fill="#C94817" d="M92.4,40.6c-1-0.6-0.1-2.8,0.7-3.1c0.6-0.3,2.2,0.2,1.4,1.5c-0.4-1.1-1.1-0.4-1,0.4
						c0.1,0.5,0.6,0.5,0.1,1.2C93.4,41,92.7,40.8,92.4,40.6z"/>
					<path fill="#2C231D" d="M74.6,20.1c4.3-2.2,10.8-1.7,14.4,1c2.4,1.8,3.7,4,3.6,7c-0.1,1.7-2.3,1.9-3.3,0.7
						c-0.8-1-1.9-1.3-3.2-1.3c-2.1-0.1-10.5-0.5-12.5,0.2c-1.1,0.4-2.5,0.9-2.7-0.8c-0.2-1.9,0.3-3.8,1.6-5.2
						C73.1,21.1,73.8,20.6,74.6,20.1z"/>
					<path fill="#45362E" d="M71.7,26.1c-0.1-0.8,0-1.9,0.2-2.6c0.3-1.1,0.9-1.9,1.7-2.6c1.6-1.5,3.9-2.7,6.1-2.9
						c1.1-0.1,3.4-0.1,4.5,0.4c-0.4,0.2-1.3,0.4-1.6,0.7c1.6,0.4,3.1,0.8,4.6,1.5c0.5,0.2,4.2,2.7,4.2,2.7c-1,0.6-2.3,0.4-3.4,0.1
						c-1.7-0.4-3.4-0.5-5.1-0.1c-1.6,0.4-3,1.2-4.6,1.5c0-0.7,0.6-1.3,0.9-1.8c-0.9,0-4.4,2.2-5.1,2.8c0.2-0.6,1-1.9,1.1-2.5
						C74.3,23.3,72.3,25,71.7,26.1z"/>
					<path fill="#2C231D" d="M89.9,29.3c0.6,3.6,1.1,5.3,0.7,8.5c0,0,1.6-1.8,3-1.9c0.1-0.3,0.3-2.5,0.2-4.4
						C93.6,29.8,91.1,29.3,89.9,29.3z"/>
				</g>
				<g>
					<path fill="#F49E75" d="M72.1,38.1c-0.1,0.1-0.1,0.3-0.2,0.4c-0.4,1.6,3.1,1,3.5,0.3c0.8-1.3-0.4-1.6-1.3-1.6
						C73.5,37.3,72.5,37.5,72.1,38.1z"/>
					<path fill="#F49E75" d="M85.3,37.9c-0.1,0.1-0.2,0.2-0.3,0.4c-0.8,1.5,2.9,1.9,3.5,1.3c1.1-1.1,0-1.7-0.9-1.9
						C86.9,37.5,85.9,37.4,85.3,37.9z"/>
					<g>
						<path fill="#281C19" d="M86.6,37.1c0.4-0.2,1-0.3,1.4-0.1c1-0.8,0.1-3.4-1.4-2.8C85.6,34.6,85.6,36.6,86.6,37.1z"/>
					</g>
					<path opacity="0.3" fill="#B64E26" d="M77.9,38.8c0.4-0.4,0.9,0,1.8,0.1c0.9,0,1.2-0.4,1.8,0c0.6,0.4-0.3,1.5-1.8,1.4
						C78.3,40.2,77.6,39.2,77.9,38.8z"/>
					<path fill="#FDDEC3" d="M80,35.6c1.6-0.1,1.7,3.2,1.4,3.5c-0.9,0.7-2.8,0.2-3.3-0.4C77.8,38.6,78.4,35.8,80,35.6z"/>
					<g>
						<path fill="#281C19" d="M72.6,34.1c-0.8,0.5-0.8,2.1-0.2,2.8c0.4-0.2,1.2-0.3,1.5,0C75.2,36.1,74.1,33.2,72.6,34.1z"/>
					</g>
					<path opacity="0.7" fill="#E7D3C4" d="M87.4,34.8c-0.5-0.2-0.9,0.6-0.4,0.9C87.5,36.2,88,35,87.4,34.8z"/>
					<path opacity="0.7" fill="#E7D3C4" d="M73.4,34.6c-0.5-0.1-0.7,0.7-0.3,0.9C73.7,35.8,74,34.7,73.4,34.6z"/>
					<path fill="#2C231D" d="M85.3,31c-0.5,0.1-1.2,0.6-0.9,1.6c0.3,0.8,1.4,0.4,3,0.5c1.7,0.1,2.3,0.3,2.4-0.2
						c0.1-0.5,0-1.3-1.5-1.7C87.3,30.9,86.3,30.9,85.3,31z"/>
					<path fill="#2C231D" d="M75.1,31.1c0.5,0.1,1.2,0.7,0.8,1.6c-0.3,0.7-1.5,0.3-3.1,0.3c-1.7,0-2.3,0.2-2.4-0.3
						c-0.1-0.5,0-1.3,1.6-1.6C73.1,30.9,74.1,30.9,75.1,31.1z"/>
					<path fill="#2C231D" d="M75.4,40.2c-0.6,0.4-2,2-3.2,0.8c-0.6-0.6-1.5-2.8-1.2-5.8c-1.5,1-1.4,3.9-1.1,5.5
						c0.1,0.6,0.6,1.4,0.5,2c-0.1,1-0.9,2-1,3c-0.2,1.2-0.2,2.9,1.2,3.2c-0.2,1.5,0.3,2.4,2,2.2c-0.5,1.9,1.4,3.1,3,1.9
						c-0.1,2.1,4.2,1.2,5,0.2c0.2,1,1.7,1.1,2.5,0.9c1-0.2,1.6-1,2-1.8c0.6,0.6,2,0.6,2.7,0.2c0.9-0.6,0.8-1.7,0.7-2.6
						c1.7,0.5,1.9-1.5,1.6-2.7c1.2-0.3,1.3-2.4,1.3-3.4c0-1.2,1-7.4-0.2-7.8c-1.1-0.3-0.9,1.2-1.1,1.9c-0.7,4.4-3.9,5.1-5.2,3.4
						c-1.7-2.2-2.9-1.5-5.3-1.5C77.8,39.6,77,39.1,75.4,40.2z"/>
					<path fill="#F6B47B" d="M75.3,43.7c0.1-0.6,1.6-0.9,2-1.4c0.3,0.8,1.7,0.3,2.3,0c0.5,0.6,2,0.7,2.6,0.2
						c0.1,0.4,1.6,0.8,1.6,1.4C82.5,46,76,45.2,75.3,43.7z"/>
					<path fill="#BF795C" d="M82.1,43.4c-0.6-0.3-3.9-0.6-4.6-0.2C79.1,43.8,82.1,43.4,82.1,43.4z"/>
					<path opacity="0.5" fill="#45362E" d="M73.2,47.9c-0.1,0.5-0.5,1.3-0.3,1.8c0.5,0.9,2.3,0.3,2.9-0.1c-0.2,0.5-0.9,1.3-0.4,1.8
						c0.8,0.8,1.9-0.8,2.5-0.6c0.4,0.2,0,1.2,0.7,1.5c0.9,0.4,1.7-0.9,2.4-1.2c0.4,0.6,1.1,1,1.9,0.8c1.1-0.2,1-0.8,1.3-1.7
						c0.9,1,2.4,1.4,2.5-0.3c1.2,1.5,1.3-1.7,0.8-2.5c-0.4-0.6-0.9-1.2-1.5-1.6c-0.9-0.7-1.3-0.4-2.3-0.2C82,45.9,79.8,46.3,78,46
						c-2.1-0.4-3.7-1.9-5.3,0c-0.3,0.3-1,1.1-0.8,1.6C72,47.9,73.1,48.3,73.2,47.9z"/>
				</g>
				<g>
					<path opacity="0.1" fill="#010101" d="M76.6,38.7c0.3-0.2,0.6-0.5,0.7-0.8c0.4-0.7,0.4-1.5,0.1-2.2c-0.4-1-1.5-1.1-2.4-1.1
						c-1.2-0.1-2.3,0-3.5-0.2c-0.1,0,0-0.9,0.1-1c0.1-0.3,0.3-0.5,0.7-0.6c0.9-0.3,2.1,0,2.9,0.2c0.9,0.2,1.9,0.3,2.7,0.7
						c0.8,0.4,1.1,0.6,2,0.5c1.6-0.1,2.9-1.1,4.5-1.3c1.7-0.2,3.4-0.5,5,0c0.4,0.1,1.7,0.6,0.9,1c-0.8,0.5-2.1,0.4-3,0.4
						c-0.4,0-0.9,0.1-1.3,0.1c-1.5,0.2-3.9,0-3.7,1.9c0.1,1.3,1,2.6,2.1,2.8c1,0.2,2.1,0.3,3.1,0.2c0.8,0,1.5-0.2,2.3-0.5
						c0.2-0.1,0.8-0.5,1-0.2c0.3,0.5-0.9,1.3-1.2,1.4c-0.7,0.4-1.5,0.5-2.3,0.6c-2,0.3-4,0.2-5.2-1.6c-0.7-1-1-2.3-1.7-3.3
						c-1-1.8-1.4,0.7-1.7,1.7c-0.2,0.6-0.4,1.2-0.7,1.7c-0.6,0.9-1.9,1.4-2.9,1.5c-0.6,0-2.8,0.5-3.5-0.7c-0.2-0.3,1-0.1,1.5-0.3
						c0.3-0.1,0.7,0,1-0.1c0.4,0,0.8,0,1.2-0.1C75.7,39.2,76.2,39,76.6,38.7z"/>
					<g>
						<path fill="#3A3A4A" d="M93.9,32.5c-0.3-0.3-1.4,0.1-2.7,0c-1.8-0.1-11.2-1-10.6,2.9c0.3,1.6,0.9,3.3,2.7,4.2
							c1.4,0.8,6,0.6,7.4-0.6c1.7-1.4,1.7-3.8,1.9-4.7c0.6,0,1-0.3,1-0.3S94.3,32.9,93.9,32.5z M90.5,38c-1.2,1.4-5.6,1.8-7.3,0.6
							c-1.3-0.9-2.1-3.6-1.4-4.1c1.5-1.1,7.7-1.2,9.3-0.2C91.7,34.7,91.4,36.9,90.5,38z"/>
					</g>
					<g>
						<path fill="#3A3A4A" d="M67.3,34c0,0,0.4,0.3,0.9,0.3c0.1,0.9,0.1,3.3,1.7,4.7c1.3,1.2,5.4,1.5,6.7,0.7
							c1.6-0.9,2.2-2.6,2.4-4.2c0.6-4-7.9-3.1-9.6-3c-1.2,0.1-2.2-0.3-2.5,0C66.6,32.8,67.3,34,67.3,34z M69.4,34.3
							c1.5-1,7.1-0.8,8.4,0.3c0.6,0.5-0.1,3.2-1.2,4.1c-1.5,1.2-5.5,0.7-6.6-0.7C69.2,36.9,69,34.6,69.4,34.3z"/>
					</g>
					<path opacity="0.3" fill="#FFFFFF" d="M76.8,34.3c-1-0.4-6.3-0.5-6.9,0.1c-0.4,0.4,1.1,1,1.8,1c1.3,0.2,2.8,0.2,4-0.1
						C76.1,35.2,77.7,34.6,76.8,34.3z"/>
					<path fill="#FFFFFF" d="M72.6,34.3c-1.1-0.1-2.9,0.1-2.7,0.5c0.2,0.3,3.2,0.4,3.4-0.1C73.5,34.5,73.1,34.3,72.6,34.3z"/>
					<path opacity="0.7" fill="#FFFFFF" d="M75.9,37.6c-0.7,0-1.8,0.5-1.6,0.7c0.2,0.2,2-0.1,2.1-0.5C76.4,37.7,76.2,37.6,75.9,37.6
						z"/>
					<path opacity="0.7" fill="#FFFFFF" d="M89.5,37.7c-0.7,0.1-1.8,0.6-1.6,0.8c0.2,0.2,2.1-0.2,2.2-0.6
						C90.1,37.7,89.8,37.6,89.5,37.7z"/>
					<path opacity="0.3" fill="#FFFFFF" d="M90.1,34.2c-0.6-0.5-6.4-0.3-7.6,0.1c-1.1,0.3,0.7,0.9,1.1,0.9c1.3,0.2,2.9,0.2,4.4,0
						C88.7,35.1,90.5,34.6,90.1,34.2z"/>
					<path fill="#FFFFFF" d="M85,34c-1.1-0.1-3.1,0.2-2.8,0.5c0.2,0.3,3.4,0.3,3.6-0.1C85.9,34.2,85.6,34.1,85,34z"/>
					<path fill="#3A3A4A" d="M81.9,33.2c-1.6,0.5-2.9,0.4-4.2,0c-1.3-0.4,0,0.6,0.3,0.9c0.2,0.3,0.4,3.2,0.9,2.1
						c0.5-1.1,1.4-1.1,1.9,0.1c0.5,1.2,0.2-0.9,0.4-1.6C81.2,34,83.2,32.8,81.9,33.2z"/>
					<path fill="#C2C6CA" d="M82,33.7c1.4-1.1,3.8-1.3,8.5-0.8C87,32.9,84.1,32.9,82,33.7z"/>
					<path fill="#C2C6CA" d="M77.3,33.6c-1.2-1-3.2-0.9-7.6-0.8C73,33,75.4,32.8,77.3,33.6z"/>
				</g>
			</g>
		</g>
		<g>
			<defs>
				<filter id="Adobe_OpacityMaskFilter_4_" filterUnits="userSpaceOnUse" x="11.6" y="80.1" width="28.4" height="3.6">
					<feColorMatrix  type="matrix" values="1 0 0 0 0  0 1 0 0 0  0 0 1 0 0  0 0 0 1 0"/>
				</filter>
			</defs>
			<mask maskUnits="userSpaceOnUse" x="11.6" y="80.1" width="28.4" height="3.6" id="SVGID_7_">
				<g filter="url(#Adobe_OpacityMaskFilter_4_)">
					<defs>
						<filter id="Adobe_OpacityMaskFilter_5_" filterUnits="userSpaceOnUse" x="10.7" y="79.6" width="30.2" height="4.5">
							<feFlood  style="flood-color:white;flood-opacity:1" result="back"/>
							<feBlend  in="SourceGraphic" in2="back" mode="normal"/>
						</filter>
					</defs>
					<mask maskUnits="userSpaceOnUse" x="10.7" y="79.6" width="30.2" height="4.5" id="SVGID_7_">
						<g filter="url(#Adobe_OpacityMaskFilter_5_)">
						</g>
					</mask>
					
						<radialGradient id="SVGID_8_" cx="-3866.2417" cy="62427.2461" r="11.3274" gradientTransform="matrix(1.2017 0 0 0.1624 4671.8687 -10056.3096)" gradientUnits="userSpaceOnUse">
						<stop  offset="0" style="stop-color:#FFFFFF"/>
						<stop  offset="7.362918e-002" style="stop-color:#E1E1E1"/>
						<stop  offset="0.2544" style="stop-color:#9E9E9E"/>
						<stop  offset="0.4259" style="stop-color:#666666"/>
						<stop  offset="0.5834" style="stop-color:#3A3A3A"/>
						<stop  offset="0.724" style="stop-color:#1B1B1B"/>
						<stop  offset="0.8425" style="stop-color:#080808"/>
						<stop  offset="0.9247" style="stop-color:#010101"/>
					</radialGradient>
					<path mask="url(#SVGID_7_)" fill="url(#SVGID_8_)" d="M40.9,81.9c0,1.2-6.8,2.3-15.1,2.3s-15.1-1-15.1-2.3
						c0-1.2,6.8-2.3,15.1-2.3S40.9,80.6,40.9,81.9z"/>
				</g>
			</mask>
			
				<radialGradient id="SVGID_9_" cx="-4011.9485" cy="62530.8359" r="11.9705" gradientTransform="matrix(1.1502 0 0 0.1329 4640.3491 -8228.4746)" gradientUnits="userSpaceOnUse">
				<stop  offset="0" style="stop-color:#010101"/>
				<stop  offset="0.9247" style="stop-color:#010101"/>
			</radialGradient>
			<path opacity="0.2" fill="url(#SVGID_9_)" d="M40,81.9c0,1-6.4,1.8-14.2,1.8c-7.8,0-14.2-0.8-14.2-1.8c0-1,6.4-1.8,14.2-1.8
				C33.6,80.1,40,80.9,40,81.9z"/>
			<g>
				<path fill="#F8B881" d="M7.2,52.9c-0.3,0-0.7-0.1-1-0.3c-0.5-0.4-2.5-3.1-1.8-3.8c0.3-0.3,0.6,0,0.7,0.3
					c-0.1-0.5-0.4-1.2-0.3-1.8c0.1-0.9,0.9-0.8,1.2-0.1c-0.2-0.5-0.2-1.5,0.5-1.3c0.4,0.1,0.7,1.3,0.9,1.7C7.2,47,7.1,46,7.7,46
					c0.9,0,0.6,2.9,1.4,3.6c0.3,0.2,0.3-1.4,1.5-1.4c0.4,0-0.2,1.6-0.6,2.5C9.5,52,8.2,52.9,7.2,52.9z"/>
				<g>
					<path fill="#E9E8E8" d="M13,58.4c-0.2,0-0.4,0-0.6,0c-2.1-0.3-3.9-1.9-5.7-5.2l3.3-1.8c1.6,2.9,2.6,3.2,2.9,3.3
						c0.7,0.1,2-1.2,2.9-2.2c1.1-1.2,2.3-2.4,3.8-3l1.4,3.5c-0.7,0.3-1.6,1.2-2.5,2.2C17.1,56.6,15.3,58.4,13,58.4z"/>
				</g>
			</g>
			<g>
				<path fill="#F8B881" d="M36.1,64c-0.5,0.8,0.1,1.6-1,2.2c-1.1,0.7,0.7-0.1,0.9,0.8c0.2,0.9-4.1,2.1-4.7-0.9
					c-0.5-2.5,1.1-3.4,3.6-3.8C35.9,62.2,36.6,63.2,36.1,64z"/>
				<g>
					<path fill="#E9E8E8" d="M35.9,65.6l-2.3-3c1.7-1.3,2.5-2.6,2.3-3.8c-0.2-2.1-2.9-4.3-5.5-5.5l1.6-3.4c1.7,0.8,7.1,3.7,7.6,8.5
						C39.9,60.2,39.4,62.9,35.9,65.6z"/>
				</g>
			</g>
			<g>
				<path fill="#252728" d="M32.5,81.3c0.2,0.2,0,1.3-0.1,1.5c-0.4,0.9-3.6,1.1-4.6,0.1c-1.3-1.4-0.8-3.2-0.7-3.3
					C27.3,79.4,32.3,81.2,32.5,81.3z"/>
				<path fill="#0D0F12" d="M29.5,78.8c1.4-0.2,1.1-1.2,1.4-0.7c0.3,0.5,0.5,1,0.8,1.4c0.4,0.5,0.9,1.3,0.7,1.9
					c-0.5,1.3-3.7,1.3-4.6,0.3c-0.8-0.8-1-2.2-0.6-3.3C27.5,77.7,27.5,79,29.5,78.8z"/>
				<path fill="#252728" d="M31.4,80.5c0.8,0.7-0.8,1-1.4,0.9C27.6,81.2,30.1,79.5,31.4,80.5z"/>
				<path fill="#B0A499" d="M30.8,78.4c-0.9-1.7-2.6-0.8-2.9,0.3C27.6,79.9,31.6,79.9,30.8,78.4z"/>
			</g>
			<g>
				<path fill="#252728" d="M18.9,81.3c-0.2,0.2,0,1.3,0.1,1.5c0.4,0.9,3.6,1.1,4.6,0.1c1.3-1.4,0.8-3.2,0.7-3.3
					C24,79.4,19,81.2,18.9,81.3z"/>
				<path fill="#0D0F12" d="M21.8,78.8c-1.4-0.2-1.1-1.2-1.4-0.7c-0.3,0.5-0.5,1-0.8,1.4c-0.4,0.5-0.9,1.3-0.7,1.9
					c0.5,1.3,3.7,1.3,4.6,0.3c0.8-0.8,1-2.2,0.6-3.3C23.8,77.7,23.8,79,21.8,78.8z"/>
				<path fill="#252728" d="M19.9,80.5c-0.8,0.7,0.8,1,1.4,0.9C23.7,81.2,21.2,79.5,19.9,80.5z"/>
				<path fill="#B0A499" d="M20.5,78.4c0.9-1.7,2.6-0.8,2.9,0.3C23.7,79.9,19.7,79.9,20.5,78.4z"/>
			</g>
			<g>
				<path fill="#E9E8E8" d="M32.7,50.6c2.7,3.6-1.5,14.5-1.5,14.1l-11.3,0.1c-0.1-0.3-3.6-9.9-1.8-14.1C19.8,47,29.8,46.6,32.7,50.6
					z"/>
				<path fill="#3C9AD5" d="M25.8,52.1c-1.4-0.3-1.8,0.8-1.8,0.8l0.6,1.3l-1.2,5.2l2.2,2.9l2-2.8l-1.3-5.1l1-1
					C27.2,53.4,27,52.3,25.8,52.1z"/>
				<path opacity="0.2" fill="#A19E99" d="M20.3,50.4c0.2,1.9,0.7,2.3,2.9,4.4l2.3-2.1l2.2,2.3c0,0,2.4-1.4,3.1-4.2
					C31.3,48.2,20.1,48.5,20.3,50.4z"/>
				<path fill="#F5F5F5" d="M25.5,52.7l-2.2,1.5c0,0-4.3-2.5-2.7-6c1.5-3.2,8.8-2.9,10,0.6c1.1,3-2.8,5.5-2.8,5.5L25.5,52.7z"/>
				<path fill="#F3A76E" d="M29,50.6c-0.4,0.4-1.2,0.9-1.9,1.1c-0.5,0.2-1.5,0.8-1.6,0.8c-0.1,0-0.4-0.3-0.9-0.5
					c-0.7-0.4-1.8-0.9-2.2-1.7c-0.6-1.2-1.1-3.4,0-4.3c1.2-0.9,3.4-1.1,4.8-0.8c1.4,0.3,2.4,1.7,2.5,3.1C29.8,49.4,29.6,50,29,50.6z
					"/>
			</g>
			<g>
				<path fill="#1E1E29" d="M19.9,65.8l-0.1-1.7c5.9,1.1,11.8,0.1,11.8,0.1l0,1.8c0,2.8,0.3,10.4,1.2,13c-0.4,0.2-0.9,0.4-1.3,0.6
					c-1.7,0.6-3.5,0-5.3-0.3c0.3-3.3,0.1-5.9-0.2-8.8c-0.1-0.4-0.5-0.5-0.6-0.2c0,0.7,0,1.5-0.1,2.4c0,2,0.1,4.5,0.2,6.4
					c-0.6,0.3-2.5,0.6-3,0.6c-1.3,0-3.1-0.5-3.9-0.9C19.1,76.9,20.2,71.9,19.9,65.8z"/>
				<path fill="#0D0F12" d="M31.5,64.4c0,0-5.5,1.1-11.7-0.1l0.1,1.3c0,0,4.5,1.6,11.6,0L31.5,64.4z"/>
				<path fill="#3D3C40" d="M23.8,66.4c0-0.5,0-1,0.1-1.5c1.2,0.1,2.3,0.1,3.3,0c-0.1,0.5-0.1,1-0.1,1.5
					C25.8,66.5,24.7,66.4,23.8,66.4z"/>
			</g>
			<g>
				<path fill="#AA641D" d="M36.5,34c0.2-3.6-0.2-4.9,0-6.3c0.7-6.1-4.2-10.6-12.9-9.9C8.4,18.9,10.9,40,15.2,39.1
					c3.2-0.7,6.3-1.6,9.5-2.4c3-0.7,6.2-0.2,9.3,0C36.4,36.9,36.4,35.9,36.5,34z"/>
				<path fill="#FBCBA0" d="M15.6,38.9c0.8,5.6,5.1,11.8,11.7,11.4c6.7-0.5,10-8.8,9.1-15.7c-0.9-7.5-4.5-13.8-12.3-12.3
					C18.5,23.3,14.6,31.3,15.6,38.9z"/>
				<g>
					<path fill="#1C2D34" d="M22,36.8c-0.4-0.2-1-0.3-1.4-0.1c-1-0.8-0.1-3.4,1.4-2.8C23,34.4,23,36.3,22,36.8z"/>
				</g>
				<path opacity="0.35" fill="#B75724" d="M30.1,38.7c0.3,0.2-0.3,0.9-1.6,1c-1.3,0.1-2-0.7-1.5-0.9c0.5-0.2,0.8,0,1.5,0
					C29.3,38.7,29.8,38.4,30.1,38.7z"/>
				<path fill="#FCD7B6" d="M30.1,38.7c0.2-0.1-0.3-0.7-0.6-1.3c-0.3-0.5-0.6-1.7-1.3-1.6c-0.6,0-0.8,1.3-1,1.8
					c-0.2,0.6-0.4,1.1-0.1,1.3C27.9,39.4,29.6,39.1,30.1,38.7z"/>
				<g>
					<path fill="#1C2D34" d="M34.4,33.9c0.8,0.5,0.8,2.1,0.2,2.7c-0.4-0.2-1.1-0.3-1.5,0C31.9,35.8,32.9,33,34.4,33.9z"/>
				</g>
				<path fill="#A5ABB8" d="M21.5,34.4c0.5-0.2,0.8,0.6,0.4,0.9C21.3,35.7,20.9,34.6,21.5,34.4z"/>
				<path fill="#A5ABB8" d="M33.8,34.2c0.5-0.1,0.7,0.7,0.3,0.9C33.5,35.4,33.2,34.3,33.8,34.2z"/>
				<path fill="#FBCBA0" d="M14.3,41.3c0.7,0.3,1.5,0.3,2.2,0.2c0,0,0,0,0-0.1c0.3-0.5-0.3-3.2-0.4-3.7c-0.4-1.4-1.1-2.4-2.4-2
					C10.9,36.5,12,40.5,14.3,41.3z"/>
				<path opacity="0.5" fill="#D9B097" d="M24.4,29.4c-0.6-0.3-1.2-0.5-1.9-0.6c0,0.6-0.1,1.1-0.3,1.7c-1-0.2-2.1-1.9-3.2-1.5
					c-0.8,0.3-0.8,1.5-1.2,2.1c-0.6,1-1.4,1.9-1.8,3.1c-0.4,1.1-0.4-4.1-0.4-4.8c0.1-1.8,0.2-4.2,1.6-5.6c1.8-1.6,5.1-1.5,7.3-1.5
					c3.3,0.1,6.3,0.7,9.3,2c2.1,0.8,2.3,5.1,2,7c0.1-0.3-0.6-0.9-0.7-1.2c-0.2-0.4-0.6-1-1.1-1c-0.4,0-1.2,1.2-1,1.3
					c-0.7-0.3-1.3-0.7-2-0.9c-0.6-0.2-1.2-0.2-1.8-0.4c0.1,0-0.8,2.3-0.8,2.5c-0.3-0.1-0.6-0.3-0.9-0.5c-0.6-0.3-1.2-0.6-1.8-0.9
					C25.3,29.9,24.8,29.6,24.4,29.4z"/>
				<path opacity="0.6" fill="#D9B097" d="M15.3,40.3c1-0.6,0.1-2.8-0.7-3.1c-0.6-0.3-2.2,0.2-1.4,1.4c0.4-1.1,1.1-0.4,1,0.4
					c-0.1,0.5-0.6,0.5-0.1,1.2C14.4,40.6,15,40.5,15.3,40.3z"/>
				<path fill="#AA641D" d="M33.9,30c-1.9-0.4-2.8-1-4.6-1.6c0.1,0.6,0.3,1.5,0.2,2.1c-1.1-0.4-5.2-1.6-7.4-2.3
					c0.2,0.5,0.2,1.1,0.4,1.6c-1.1-0.5-2.4-1.9-3.8-1.8c-0.8,0.1-0.9,0.6-1,1.3c-0.2,1-0.5,1.9-0.9,2.9c-0.8,2.4-0.4,4.9,0.6,5.8
					c-0.5,0.1-1.2,0.1-1.5,0c-0.4-0.5-1.1-2-1.1-3.2c-0.1-2-0.9-3.9-0.9-6c0-2.8,0.5-5.1,2.8-7c1.9-1.7,3.3-2.7,5.7-3.4
					c9.1-2.5,15.3,3.1,16.7,11.1c-1.3-0.1-3.3-0.7-4.5-1.5C34.6,28.2,34.1,29.7,33.9,30z"/>
				<path fill="#2C2621" d="M19.3,33.2c-0.4,0.2-0.6-0.2-0.6-0.4c0.3-1,1.4-1.7,2.4-1.9c0.8-0.2,2.4,0,2.9,0.8
					c0.3,0.4-0.1,0.9-0.6,0.8c-0.7-0.2-1.4-0.2-2.2-0.1C20.6,32.5,20,32.9,19.3,33.2z"/>
				<path fill="#2C2621" d="M35.6,32.5c0.4,0.1,0.5-0.2,0.4-0.4c-0.4-0.8-1.4-1.3-2.3-1.3c-0.8,0-2.3,0.5-2.6,1.3
					c-0.2,0.4,0.3,0.7,0.6,0.6c0.6-0.3,1.3-0.6,1.9-0.6C34.5,32,35,32.3,35.6,32.5z"/>
				<path fill="#F49B75" d="M35.6,37.9c0.1,0.1,0.2,0.2,0.2,0.4c0.6,1.5-2.9,1.4-3.4,0.8c-0.9-1.1,0.2-1.6,1-1.7
					C34.2,37.3,35.1,37.3,35.6,37.9z"/>
				<path fill="#F49B75" d="M22.5,38.1c0.1,0.1,0.2,0.3,0.2,0.4c0.6,1.6-3.1,1.4-3.6,0.8c-0.9-1.2,0.2-1.7,1.1-1.8
					C21,37.5,22,37.5,22.5,38.1z"/>
				<path fill="#AA641D" d="M30.4,16.3c-0.3,0.7-0.5,1.1-0.8,1.4c1.1,0.1,2.4,0.2,3.3,0.2c-0.4,0.5-1.3,1.5-2.1,1.6
					c-2.5,0.2-5.4,0.2-7.9-0.2c-0.9-0.1-1.9-0.1-2.8-0.3c0.3-0.9,1.8-1.2,2.5-1.3C24.1,17.6,27.4,17.4,30.4,16.3z"/>
				<path fill="#B57C47" d="M34.9,22.7c0.3,0.4,0.6,0.8,0.9,1.2c0.7,1.1,1.3,2.4,1.7,3.7c-1.2-0.8-3-1.2-4.4-1.3
					c-0.1,0.7-0.3,1.4-0.4,2.2c-1.3-0.8-2.8-1.5-4.4-1.6c-0.2,0.5-0.2,1.2-0.2,1.7c-0.7-0.3-5.4-1.8-7.1-2.1c0.1,0.6,0,1.2,0.1,1.8
					c-0.9-0.4-4-2.8-4.6-3.4c-1.2-1.2-0.3-2.8,0.6-3.8c0.9-0.9,2.1-1.6,3.3-2.1c2.3-0.8,4.7-0.8,7.2-0.6
					C30.5,18.8,33.1,20.5,34.9,22.7z"/>
				<g>
					<path fill="#E98665" d="M28.2,45.1c2.7-0.2,4.8-1.8,5.6-3.8c0.1-0.2,0-0.4-0.3-0.5c-0.2-0.1-0.5,0.1-0.6,0.3
						c-0.7,1.7-2.6,3.1-5,3.2c-2.5,0.1-4.8-1.1-5.6-3.1c-0.1-0.2-0.3-0.3-0.6-0.2c-0.2,0.1-0.3,0.3-0.3,0.5c1,2.3,3.5,3.7,6.4,3.5
						C28.1,45.1,28.1,45.1,28.2,45.1z"/>
				</g>
			</g>
		</g>
	</g>
</g>
</svg>
