<?xml version="1.0" encoding="utf-8"?>
<!-- Generator: Adobe Illustrator 18.1.1, SVG Export Plug-In . SVG Version: 6.00 Build 0)  -->
<svg version="1.1" xmlns="http://www.w3.org/2000/svg" xmlns:xlink="http://www.w3.org/1999/xlink" x="0px" y="0px"
	 viewBox="0 0 100 100" enable-background="new 0 0 100 100" xml:space="preserve">
<g id="Capa_1">
</g>
<g id="Capa_2">
	<g>
		<polygon fill="#6A6A69" points="8.9,45.9 9.8,45.4 9.7,59.5 8.8,60 8.9,45.9 		"/>
		<polygon fill="#767675" points="7.7,45.2 8.6,44.7 9.8,45.4 8.9,45.9 7.7,45.2 		"/>
		<polygon fill="#494949" points="8.9,45.9 8.8,60 7.6,59.3 7.7,45.2 8.9,45.9 		"/>
		<polygon fill="#6A6A69" points="19.3,52.1 20.2,51.6 20.2,65.7 19.3,66.2 19.3,52.1 		"/>
		<polygon fill="#767675" points="18.2,51.4 19,50.9 20.2,51.6 19.3,52.1 18.2,51.4 		"/>
		<polygon fill="#494949" points="19.3,52.1 19.3,66.2 18.1,65.5 18.2,51.4 19.3,52.1 		"/>
		<polygon fill="#6A6A69" points="37.3,47.3 37.3,48 24.4,55.5 24.4,54.7 37.3,47.3 		"/>
		<polygon fill="#6B6B6B" points="24.4,54.7 24.4,55.5 7.3,45.6 7.3,44.8 24.4,54.7 		"/>
		<polygon fill="#C6C6C6" points="37.3,47.3 24.4,54.7 7.3,44.8 20.2,37.4 37.3,47.3 		"/>
		<path fill="#2D2D2D" d="M33.8,51.1c-1.5-3.5-3.4-5.5-5.7-5.9c-3.7-0.6-7.3,3.2-7.4,3.2l-0.9-0.8c0.2-0.2,4.1-4.4,8.4-3.6
			c2.7,0.5,4.9,2.7,6.6,6.6L33.8,51.1L33.8,51.1z"/>
		<path fill="#BABABA" d="M75.9,25.6c-0.1-0.1-0.2-0.1-0.3-0.2c0.6,0.4,1,1.2,1,2.3c0,2.3-1.6,5-3.6,6.2L26.1,61.1
			c-1,0.6-1.9,0.6-2.5,0.2l0.3,0.2c0.3,0.2,0.6,0.2,1,0.2c0.3,0,0.7-0.1,1-0.2c0.2-0.1,0.4-0.2,0.5-0.3l47.1-27.2
			c2-1.1,3.6-3.9,3.6-6.2C77,26.8,76.6,26,75.9,25.6L75.9,25.6z"/>
		<path fill="#EAEAEA" d="M76.4,24.5c0,0-0.1-0.1-0.1-0.1c-0.8-0.5-1.9-0.4-3.1,0.3L26,52c-2.4,1.4-4.4,4.8-4.4,7.6
			c0,1.4,0.5,2.3,1.3,2.8c0.1,0.1,0.2,0.1,0.3,0.2c0,0-0.1-0.1-0.1-0.1c-0.7-0.5-1.1-1.4-1.1-2.7c0-2.8,1.9-6.2,4.4-7.6l47.1-27.2
			C74.6,24.2,75.6,24.2,76.4,24.5l0.1,0.1C76.5,24.6,76.4,24.6,76.4,24.5L76.4,24.5z"/>
		<path fill="#CECECE" d="M73.4,34.1c2-1.1,3.6-3.9,3.6-6.2c0-2.3-1.6-3.2-3.6-2L26.3,53c-2,1.1-3.6,3.9-3.6,6.2
			c0,2.3,1.6,3.2,3.6,2L73.4,34.1L73.4,34.1z M73.4,24.9c2.4-1.4,4.4-0.3,4.4,2.5c0,2.8-1.9,6.2-4.4,7.6L26.3,62.2
			c-2.4,1.4-4.4,0.3-4.4-2.5c0-2.8,1.9-6.2,4.4-7.6L73.4,24.9L73.4,24.9z"/>
		<path fill="#A5A5A5" d="M88.5,33.7c-4.2-2.4-8.3-4.9-12.5-7.3c0.6,0.4,1,1.2,1,2.3c0,2.3-1.6,5-3.5,6.1L26.5,62
			c-1,0.6-1.9,0.6-2.5,0.2c4.2,2.4,8.3,4.9,12.5,7.3c0.6,0.4,1.5,0.3,2.5-0.2L86,42.2c2-1.1,3.6-3.9,3.5-6.1
			C89.5,34.9,89.1,34.1,88.5,33.7L88.5,33.7z"/>
		<path fill="#282828" d="M76.5,25.5c-0.8-0.5-1.9-0.4-3.1,0.3L26.5,52.9c-2.4,1.4-4.4,4.8-4.3,7.5c0,1.3,0.4,2.2,1.1,2.7
			c0,0,0.1,0.1,0.1,0.1c4.2,2.4,8.3,4.9,12.5,7.3c-0.8-0.5-1.3-1.4-1.3-2.8c0-2.8,1.9-6.1,4.3-7.5l46.9-27.1
			c1.2-0.7,2.3-0.8,3.1-0.3C84.9,30.3,80.7,27.9,76.5,25.5L76.5,25.5z"/>
		<path fill="#909090" d="M86,42.2c2-1.1,3.6-3.9,3.5-6.1c0-2.3-1.6-3.2-3.6-2L39,61.1c-2,1.1-3.6,3.9-3.5,6.1c0,2.3,1.6,3.2,3.6,2
			L86,42.2L86,42.2z M85.9,33.1c2.4-1.4,4.4-0.3,4.4,2.5c0,2.8-1.9,6.1-4.3,7.5L39,70.2c-2.4,1.4-4.4,0.3-4.4-2.5
			c0-2.8,1.9-6.1,4.3-7.5L85.9,33.1L85.9,33.1z"/>
		<path fill="#444444" d="M43.7,57.8L43.7,57.8c0.2-0.5,0.6-0.9,0.9-0.7c0,0,1.7,1,1.7,1c-0.2-0.1-0.6,0.1-0.8,0.5
			c-0.2,0.3-0.2,0.7,0,0.9c0,0-1.7-1-1.7-1C43.7,58.4,43.6,58.1,43.7,57.8L43.7,57.8z"/>
		<path fill="#B5B8BD" d="M46,58.2c-0.3,0.2-0.6,0.6-0.6,1c0,0.4,0.3,0.5,0.6,0.3c0.3-0.2,0.6-0.6,0.6-1C46.6,58.1,46.3,58,46,58.2
			L46,58.2z"/>
		<path fill="#EDEDED" d="M44.4,58.5L44.4,58.5c0.5-1.3,1.7-2.3,2.5-1.9c0.1,0.1,0.6,0.3,0.7,0.4c-0.6-0.4-1.7,0.3-2.3,1.4
			c-0.4,0.8-0.6,2,0.1,2.4c-0.1-0.1-0.6-0.3-0.7-0.4C44.2,60.2,44.2,59.3,44.4,58.5L44.4,58.5z"/>
		<path fill="#C6C6C6" d="M46.5,57.2c-0.9,0.5-1.6,1.7-1.6,2.7c0,1,0.7,1.4,1.6,0.9c0.9-0.5,1.6-1.7,1.6-2.7
			C48.1,57.1,47.4,56.7,46.5,57.2L46.5,57.2z"/>
		<path fill="#828282" d="M46.1,58.9L46.1,58.9c0.2-0.4,0.6-0.7,0.8-0.6l0.2,0.1c-0.2-0.1-0.5,0.1-0.7,0.4c-0.1,0.3-0.2,0.6,0,0.8
			l-0.2-0.1C46,59.5,46,59.2,46.1,58.9L46.1,58.9z"/>
		<path fill="#595959" d="M46.7,58.5c-0.3,0.2-0.5,0.5-0.5,0.9c0,0.3,0.2,0.4,0.5,0.3c0.3-0.2,0.5-0.5,0.5-0.9
			C47.2,58.5,47,58.3,46.7,58.5L46.7,58.5z"/>
		<path fill="#444444" d="M52.6,52.6L52.6,52.6c0.2-0.5,0.6-0.9,0.9-0.7c0,0,1.7,1,1.7,1c-0.2-0.1-0.6,0.1-0.8,0.5
			c-0.2,0.3-0.2,0.7,0,0.9c0,0-1.7-1-1.7-1C52.6,53.2,52.5,52.9,52.6,52.6L52.6,52.6z"/>
		<path fill="#B5B8BD" d="M54.9,53c-0.3,0.2-0.6,0.6-0.6,1c0,0.4,0.3,0.5,0.6,0.3c0.3-0.2,0.6-0.6,0.6-1C55.5,53,55.2,52.8,54.9,53
			L54.9,53z"/>
		<path fill="#EDEDED" d="M53.4,53.4L53.4,53.4c0.5-1.3,1.7-2.3,2.5-1.9c0.1,0.1,0.6,0.3,0.7,0.4c-0.6-0.4-1.7,0.3-2.3,1.4
			c-0.4,0.8-0.6,2,0.1,2.4c-0.1-0.1-0.6-0.3-0.7-0.4C53.1,55,53.1,54.2,53.4,53.4L53.4,53.4z"/>
		<path fill="#C6C6C6" d="M55.4,52c-0.9,0.5-1.6,1.7-1.6,2.7c0,1,0.7,1.4,1.6,0.9c0.9-0.5,1.6-1.7,1.6-2.7
			C57,51.9,56.3,51.5,55.4,52L55.4,52z"/>
		<path fill="#828282" d="M55,53.8L55,53.8c0.2-0.4,0.6-0.7,0.8-0.6l0.2,0.1c-0.2-0.1-0.5,0.1-0.7,0.4c-0.1,0.3-0.2,0.6,0,0.8
			l-0.2-0.1C54.9,54.3,54.9,54,55,53.8L55,53.8z"/>
		<path fill="#595959" d="M55.6,53.3c-0.3,0.2-0.5,0.5-0.5,0.9c0,0.3,0.2,0.4,0.5,0.3c0.3-0.2,0.5-0.5,0.5-0.9
			C56.1,53.3,55.9,53.2,55.6,53.3L55.6,53.3z"/>
		<path fill="#444444" d="M61.6,47.5L61.6,47.5c0.2-0.5,0.6-0.9,0.9-0.7c0,0,1.7,1,1.7,1c-0.2-0.1-0.6,0.1-0.8,0.5
			c-0.2,0.3-0.2,0.7,0,0.9c0,0-1.7-1-1.7-1C61.5,48.1,61.4,47.8,61.6,47.5L61.6,47.5z"/>
		<path fill="#B5B8BD" d="M63.8,47.9c-0.3,0.2-0.6,0.6-0.6,1c0,0.4,0.3,0.5,0.6,0.3c0.3-0.2,0.6-0.6,0.6-1
			C64.4,47.8,64.1,47.7,63.8,47.9L63.8,47.9z"/>
		<path fill="#EDEDED" d="M62.3,48.2L62.3,48.2c0.5-1.3,1.7-2.3,2.5-1.9c0.1,0.1,0.6,0.3,0.7,0.4c-0.6-0.4-1.7,0.3-2.3,1.4
			c-0.4,0.8-0.6,2,0.1,2.4c-0.1-0.1-0.6-0.3-0.7-0.4C62,49.9,62,49.1,62.3,48.2L62.3,48.2z"/>
		<path fill="#C6C6C6" d="M64.3,46.9c-0.9,0.5-1.6,1.7-1.6,2.7c0,1,0.7,1.4,1.6,0.9c0.9-0.5,1.6-1.7,1.6-2.7
			C65.9,46.8,65.2,46.4,64.3,46.9L64.3,46.9z"/>
		<path fill="#828282" d="M63.9,48.7L63.9,48.7c0.2-0.4,0.6-0.7,0.8-0.6l0.2,0.1c-0.2-0.1-0.5,0.1-0.7,0.4c-0.1,0.3-0.2,0.6,0,0.8
			L64,49.3C63.8,49.2,63.8,48.9,63.9,48.7L63.9,48.7z"/>
		<path fill="#595959" d="M64.6,48.2c-0.3,0.2-0.5,0.5-0.5,0.9c0,0.3,0.2,0.4,0.5,0.3c0.3-0.2,0.5-0.5,0.5-0.9
			C65.1,48.2,64.8,48.1,64.6,48.2L64.6,48.2z"/>
		<path fill="#444444" d="M70.5,42.4L70.5,42.4c0.2-0.5,0.6-0.9,0.9-0.7c0,0,1.7,1,1.7,1c-0.2-0.1-0.6,0.1-0.8,0.5
			c-0.2,0.3-0.2,0.7,0,0.9c0,0-1.7-1-1.7-1C70.4,43,70.4,42.7,70.5,42.4L70.5,42.4z"/>
		<path fill="#B5B8BD" d="M72.7,42.8c-0.3,0.2-0.6,0.6-0.6,1c0,0.4,0.3,0.5,0.6,0.3c0.3-0.2,0.6-0.6,0.6-1
			C73.3,42.7,73,42.6,72.7,42.8L72.7,42.8z"/>
		<path fill="#EDEDED" d="M71.2,43.1L71.2,43.1c0.5-1.3,1.7-2.3,2.5-1.9c0.1,0.1,0.6,0.3,0.7,0.4c-0.6-0.4-1.7,0.3-2.3,1.4
			c-0.4,0.8-0.6,2,0.1,2.4c-0.1-0.1-0.6-0.3-0.7-0.4C71,44.7,70.9,43.9,71.2,43.1L71.2,43.1z"/>
		<path fill="#C6C6C6" d="M73.2,41.8c-0.9,0.5-1.6,1.7-1.6,2.7c0,1,0.7,1.4,1.6,0.9c0.9-0.5,1.6-1.7,1.6-2.7
			C74.8,41.7,74.1,41.3,73.2,41.8L73.2,41.8z"/>
		<path fill="#828282" d="M72.8,43.5L72.8,43.5c0.2-0.4,0.6-0.7,0.8-0.6l0.2,0.1c-0.2-0.1-0.5,0.1-0.7,0.4c-0.1,0.3-0.2,0.6,0,0.8
			l-0.2-0.1C72.7,44.1,72.7,43.8,72.8,43.5L72.8,43.5z"/>
		<path fill="#595959" d="M73.5,43.1C73.2,43.3,73,43.6,73,44c0,0.3,0.2,0.4,0.5,0.3c0.3-0.2,0.5-0.5,0.5-0.9
			C74,43.1,73.7,42.9,73.5,43.1L73.5,43.1z"/>
		<polygon fill="#727272" points="40.4,62.9 40.4,62.9 40,63.1 41.9,64.2 42.3,64.1 42.4,64.1 40.4,62.9 		"/>
		<path fill="#727272" d="M39.2,69.1l0-0.4l-1.9-1.1l0,0.4l0,0.1C37.9,68.4,38.6,68.8,39.2,69.1L39.2,69.1L39.2,69.1z"/>
		<path fill="#727272" d="M39.9,61.2c-0.1-0.1-0.3,0.2-0.5,0.5l1.9,1.1c0.2-0.3,0.4-0.5,0.5-0.5C41.2,61.9,40.5,61.6,39.9,61.2
			L39.9,61.2z"/>
		<path fill="#727272" d="M37.5,69.1l0.2-0.5l-1.9-1.1L35.5,68c0,0.1,0,0.2,0,0.2c0.6,0.4,1.3,0.8,1.9,1.1
			C37.4,69.3,37.4,69.2,37.5,69.1L37.5,69.1z"/>
		<g>
			<defs>
				<path id="SVGID_1_" d="M39.3,61.6l1.9,1.1c-0.2-0.1-0.4-0.2-0.6-0.2l-1.9-1.1C38.9,61.4,39.1,61.5,39.3,61.6"/>
			</defs>
			<clipPath id="SVGID_2_">
				<use xlink:href="#SVGID_1_"  overflow="visible"/>
			</clipPath>
			<path clip-path="url(#SVGID_2_)" fill="#999999" d="M40.6,62.5l-1.9-1.1c0.2,0,0.4,0.1,0.6,0.2l1.9,1.1
				C41,62.6,40.9,62.6,40.6,62.5L40.6,62.5z"/>
		</g>
		<g>
			<defs>
				<path id="SVGID_3_" d="M37.7,68.6l-1.9-1.1c-0.2-0.1-0.3-0.3-0.5-0.6l1.9,1.1C37.3,68.3,37.5,68.5,37.7,68.6"/>
			</defs>
			<clipPath id="SVGID_4_">
				<use xlink:href="#SVGID_3_"  overflow="visible"/>
			</clipPath>
			<path clip-path="url(#SVGID_4_)" fill="#999999" d="M37.7,68.6l-1.9-1.1c-0.2-0.1-0.3-0.3-0.5-0.6l1.9,1.1
				C37.3,68.3,37.5,68.5,37.7,68.6L37.7,68.6z"/>
		</g>
		<polygon fill="#BCBCBC" points="38.8,60.8 38.7,60.8 38.2,60.9 40.1,62.1 40.7,61.9 40.7,62 38.8,60.8 		"/>
		<path fill="#727272" d="M40.1,62.1L40.1,62.1L40.1,62.1l-1.9-1.2l0,0C38,61,38,61.1,37.9,61.6l1.9,1.1
			C39.9,62.3,39.9,62.2,40.1,62.1L40.1,62.1z"/>
		<path fill="#BCBCBC" d="M36.7,68.3l-0.1-0.6l-1.9-1.1l0.1,0.6l0,0.1C35.4,67.6,36.1,68,36.7,68.3L36.7,68.3L36.7,68.3z"/>
		<path fill="#727272" d="M37.1,67.2l-1.9-1.1c-0.3,0.3-0.4,0.3-0.5,0.5l0,0l0,0.1l1.9,1.1l0-0.1l0,0C36.6,67.5,36.7,67.5,37.1,67.2
			L37.1,67.2z"/>
		<g>
			<defs>
				<path id="SVGID_5_" d="M39,63.2L37,62.1c0.1-0.1,0.3-0.2,0.4-0.3l0.1,0c0.1-0.1,0.2-0.1,0.4-0.2l1.9,1.1c-0.1,0-0.2,0.1-0.4,0.2
					l-0.1,0C39.3,63,39.1,63.1,39,63.2"/>
			</defs>
			<clipPath id="SVGID_6_">
				<use xlink:href="#SVGID_5_"  overflow="visible"/>
			</clipPath>
			<path clip-path="url(#SVGID_6_)" fill="#999999" d="M37.9,61.6c-0.3,0.1-0.6,0.3-0.9,0.5l1.9,1.1c0.3-0.2,0.6-0.4,0.9-0.5
				L37.9,61.6L37.9,61.6z"/>
		</g>
		<path fill="#999999" d="M37.2,66.2L35.2,65c-0.1,0.4-0.1,0.7-0.1,1l0,0l1.9,1.1l0,0C37,66.9,37.1,66.5,37.2,66.2L37.2,66.2z"/>
		<g>
			<defs>
				<path id="SVGID_7_" d="M37.6,65.1L35.6,64c0-0.1,0.1-0.2,0.2-0.3c0.1-0.3,0.3-0.5,0.5-0.8l1.9,1.1c-0.2,0.2-0.3,0.5-0.5,0.8
					C37.7,64.9,37.6,65,37.6,65.1"/>
			</defs>
			<clipPath id="SVGID_8_">
				<use xlink:href="#SVGID_7_"  overflow="visible"/>
			</clipPath>
			<path clip-path="url(#SVGID_8_)" fill="#999999" d="M37.6,65.1L35.6,64c0-0.1,0.1-0.2,0.2-0.3l0-0.1l1.9,1.1l0,0.1
				C37.7,64.9,37.6,65,37.6,65.1L37.6,65.1z"/>
			<path clip-path="url(#SVGID_8_)" fill="#999999" d="M37.8,64.7l-1.9-1.1c0.1-0.2,0.3-0.5,0.5-0.7l1.9,1.1
				C38,64.3,37.9,64.5,37.8,64.7L37.8,64.7z"/>
		</g>
		<path fill="#D6D6D6" d="M36.9,61.8L36.9,61.8c-0.1,0-0.6,0.5-0.7,0.6l1.9,1.1c0.4-0.4,0.6-0.6,0.7-0.6L36.9,61.8L36.9,61.8z"/>
		<path fill="#898988" d="M38.1,63.5l-1.9-1.1l0,0.1l0,0c-0.1,0.1,0,0.2,0.1,0.5l1.9,1.1C38.1,63.8,38,63.7,38.1,63.5L38.1,63.5z"/>
		<path fill="#D6D6D6" d="M36.8,66l0.3-0.7l-1.9-1.1l-0.3,0.7c0,0.1,0,0.1,0,0.2l1.9,1.1C36.8,66.1,36.8,66,36.8,66L36.8,66z"/>
		<path fill="#898988" d="M35.6,64l-0.3,0c-0.1,0-0.2,0.1-0.2,0.2l1.9,1.1c0.1-0.2,0.2-0.2,0.5-0.2L35.6,64L35.6,64z"/>
		<path fill="#4D4D4D" d="M42.3,64.1c0.1,0,0.1,0,0.1,0.1l-0.1,0.7c0,0.1-0.1,0.2-0.1,0.2l0,0l-0.4,0.2c-0.1,0.4-0.2,0.7-0.4,1.1
			l0.3,0.2c0.1,0,0,0.1,0,0.2l-0.4,0.7c0,0-0.1,0.1-0.1,0.1l-0.1,0l-0.3-0.2c-0.2,0.3-0.5,0.6-0.8,0.8l0,0.4c0,0.1-0.1,0.2-0.1,0.2
			l-0.6,0.3c-0.1,0-0.1,0-0.1-0.1l0-0.4c-0.3,0.1-0.6,0.2-0.8,0.2l-0.2,0.5c0,0.1-0.1,0.1-0.1,0.1l-0.1,0l-0.4-0.1
			c-0.1,0-0.1-0.1,0-0.2l0.2-0.5c-0.2-0.1-0.3-0.3-0.5-0.6l-0.4,0.3l0,0c-0.1,0-0.1,0-0.1,0l-0.1-0.6c0-0.1,0-0.2,0.1-0.2l0.4-0.3
			l0,0c0-0.3,0-0.7,0.1-1l-0.3,0c-0.1,0-0.1-0.1-0.1-0.2l0.3-0.7c0-0.1,0.1-0.1,0.1-0.2l0.1,0l0.3,0c0-0.1,0.1-0.2,0.2-0.3
			c0.1-0.3,0.3-0.5,0.5-0.8l-0.1-0.3c0-0.1,0-0.2,0.1-0.2l0.5-0.5l0.1,0c0.1,0,0.1,0,0.1,0l0.1,0.3c0.1-0.1,0.3-0.2,0.4-0.3l0.1,0
			c0.1-0.1,0.2-0.1,0.4-0.2l0.1-0.5c0-0.1,0.1-0.2,0.1-0.2l0,0l0.5-0.1c0.1,0,0.1,0.1,0.1,0.1l-0.1,0.5c0.3,0,0.5,0.1,0.7,0.2
			l0.3-0.4l0.1-0.1c0,0,0.1,0,0.1,0l0.3,0.4c0,0.1,0,0.2,0,0.2l-0.3,0.4c0.1,0.2,0.2,0.5,0.2,0.9v0L42.3,64.1L42.3,64.1z"/>
		<path fill="#444444" d="M79.4,37.2L79.4,37.2c0.2-0.5,0.6-0.9,0.9-0.7c0,0,1.7,1,1.7,1c-0.2-0.1-0.6,0.1-0.8,0.5
			c-0.2,0.3-0.2,0.7,0,0.9c0,0-1.7-1-1.7-1C79.3,37.8,79.3,37.5,79.4,37.2L79.4,37.2z"/>
		<path fill="#B5B8BD" d="M81.6,37.6c-0.3,0.2-0.6,0.6-0.6,1c0,0.4,0.3,0.5,0.6,0.3c0.3-0.2,0.6-0.6,0.6-1
			C82.2,37.5,81.9,37.4,81.6,37.6L81.6,37.6z"/>
		<path fill="#EDEDED" d="M80.1,38L80.1,38c0.5-1.3,1.7-2.3,2.5-1.9c0.1,0.1,0.6,0.3,0.7,0.4c-0.6-0.4-1.7,0.3-2.3,1.4
			c-0.4,0.8-0.6,2,0.1,2.4c-0.1-0.1-0.6-0.3-0.7-0.4C79.9,39.6,79.8,38.8,80.1,38L80.1,38z"/>
		<path fill="#C6C6C6" d="M82.1,36.6c-0.9,0.5-1.6,1.7-1.6,2.7c0,1,0.7,1.4,1.6,0.9c0.9-0.5,1.6-1.7,1.6-2.7
			C83.7,36.5,83,36.1,82.1,36.6L82.1,36.6z"/>
		<path fill="#828282" d="M81.7,38.4L81.7,38.4c0.2-0.4,0.6-0.7,0.8-0.6l0.2,0.1c-0.2-0.1-0.5,0.1-0.7,0.4c-0.1,0.3-0.2,0.6,0,0.8
			L81.8,39C81.6,38.9,81.6,38.6,81.7,38.4L81.7,38.4z"/>
		<path fill="#595959" d="M82.4,37.9c-0.3,0.2-0.5,0.5-0.5,0.9c0,0.3,0.2,0.4,0.5,0.3c0.3-0.2,0.5-0.5,0.5-0.9
			C82.9,37.9,82.6,37.8,82.4,37.9L82.4,37.9z"/>
		<polygon fill="#707070" points="26.8,52.7 39.4,59.9 45.8,56.2 33.2,49 26.8,52.7 		"/>
		<polygon fill="#707070" points="33.4,48.9 46,56.1 52.4,52.4 39.8,45.2 33.4,48.9 		"/>
		<polygon fill="#707070" points="40,45.1 52.6,52.3 59,48.6 46.3,41.4 40,45.1 		"/>
		<path fill="#707070" d="M22.1,60.4c0,1.3,0.4,2.2,1.1,2.7c0,0,0.1,0.1,0.1,0.1c4.2,2.4,8.3,4.9,12.5,7.3c-0.8-0.5-1.3-1.4-1.3-2.8
			c0-0.7,0.1-1.5,0.4-2.3l-12.6-7.2C22.2,59,22.1,59.7,22.1,60.4L22.1,60.4z"/>
		<path fill="#707070" d="M26.5,52.9c-1.7,1-3.2,3-3.9,5.1l12.6,7.2c0.7-2,2.2-4,3.9-5l0.2-0.1l-12.6-7.2L26.5,52.9L26.5,52.9z"/>
		<polygon fill="#707070" points="66.3,29.9 78.9,37.1 85.3,33.4 72.7,26.2 66.3,29.9 		"/>
		<path fill="#707070" d="M76.5,25.5c-0.8-0.5-1.9-0.4-3.1,0.3l-0.5,0.3l12.6,7.2l0.5-0.3c1.2-0.7,2.3-0.8,3.1-0.3
			C84.9,30.3,80.7,27.9,76.5,25.5L76.5,25.5z"/>
		<polygon fill="#707070" points="59.7,33.7 72.3,40.9 78.7,37.2 66.1,30 59.7,33.7 		"/>
		<polygon fill="#707070" points="46.5,41.3 59.2,48.5 65.5,44.8 52.9,37.6 46.5,41.3 		"/>
		<polygon fill="#707070" points="53.1,37.5 65.7,44.7 72.1,41 59.5,33.8 53.1,37.5 		"/>
		<path fill="#BABABA" d="M88.7,33.6c-0.1-0.1-0.2-0.1-0.3-0.2c0.6,0.4,1,1.2,1,2.3c0,2.3-1.6,5-3.6,6.2L38.8,69.1
			c-1,0.6-1.9,0.6-2.5,0.2l0.3,0.2c0.3,0.2,0.6,0.2,1,0.2c0.3,0,0.7-0.1,1-0.2c0.2-0.1,0.4-0.2,0.5-0.3l47.1-27.2
			c2-1.1,3.6-3.9,3.6-6.2C89.7,34.8,89.3,34,88.7,33.6L88.7,33.6z"/>
		<path fill="#EAEAEA" d="M89.1,32.6c0,0-0.1-0.1-0.1-0.1c-0.8-0.5-1.9-0.4-3.1,0.3L38.8,60c-2.4,1.4-4.4,4.8-4.4,7.6
			c0,1.4,0.5,2.3,1.3,2.8c0.1,0.1,0.2,0.1,0.3,0.2c0,0-0.1-0.1-0.1-0.1c-0.7-0.5-1.1-1.4-1.1-2.7c0-2.8,1.9-6.2,4.4-7.6L86.1,33
			C87.3,32.3,88.4,32.2,89.1,32.6l0.1,0.1C89.2,32.6,89.2,32.6,89.1,32.6L89.1,32.6z"/>
		<path fill="#CECECE" d="M86.2,42.1c2-1.1,3.6-3.9,3.6-6.2c0-2.3-1.6-3.2-3.6-2L39,61.1c-2,1.1-3.6,3.9-3.6,6.2
			c0,2.3,1.6,3.2,3.6,2L86.2,42.1L86.2,42.1z M86.1,33c2.4-1.4,4.4-0.3,4.4,2.5c0,2.8-1.9,6.2-4.4,7.6L39.1,70.2
			c-2.4,1.4-4.4,0.3-4.4-2.5c0-2.8,1.9-6.2,4.4-7.6L86.1,33L86.1,33z"/>
		<polygon fill="#D7991F" points="49.5,61.7 50.4,61.2 50.3,75.3 49.5,75.8 49.5,61.7 		"/>
		<polygon fill="#767675" points="48.3,61 49.2,60.5 50.4,61.2 49.5,61.7 48.3,61 		"/>
		<polygon fill="#B87500" points="49.5,61.7 49.5,75.8 48.3,75.1 48.3,61 49.5,61.7 		"/>
		<polygon fill="#D7991F" points="63,53.9 63.9,53.4 63.8,67.5 62.9,68.1 63,53.9 		"/>
		<polygon fill="#767675" points="61.8,53.2 62.7,52.7 63.9,53.4 63,53.9 61.8,53.2 		"/>
		<polygon fill="#B87500" points="63,53.9 62.9,68.1 61.8,67.4 61.8,53.2 63,53.9 		"/>
		<polygon fill="#D7991F" points="76.5,46.2 77.4,45.6 77.3,59.8 76.4,60.3 76.5,46.2 		"/>
		<polygon fill="#767675" points="75.3,45.5 76.2,45 77.4,45.6 76.5,46.2 75.3,45.5 		"/>
		<polygon fill="#B87500" points="76.5,46.2 76.4,60.3 75.3,59.6 75.3,45.5 76.5,46.2 		"/>
		<polygon fill="#D7991F" points="90,38.4 90.9,37.9 90.8,52 89.9,52.5 90,38.4 		"/>
		<polygon fill="#767675" points="88.8,37.7 89.7,37.2 90.9,37.9 90,38.4 88.8,37.7 		"/>
		<polygon fill="#B87500" points="90,38.4 89.9,52.5 88.8,51.8 88.8,37.7 90,38.4 		"/>
		<polygon fill="#D7991F" points="43.5,65.2 42.2,64.5 42.2,62.8 43.5,63.6 43.5,65.2 		"/>
		<polygon fill="#FFCE57" points="43.5,63.6 42.2,62.8 91.4,34.4 92.7,35.1 43.5,63.6 		"/>
		<polygon fill="#D7991F" points="92.7,35.1 92.7,36.8 43.5,65.2 43.5,63.6 92.7,35.1 		"/>
		<path fill="#444444" d="M38.4,65.5L38.4,65.5c0.4-1,1.3-1.8,1.9-1.5c0.1,0.1,3.6,2.1,3.7,2.2c-0.5-0.3-1.3,0.2-1.8,1.1
			c-0.3,0.6-0.5,1.6,0.1,1.9c-0.1-0.1-3.6-2.1-3.7-2.2C38.2,66.7,38.1,66.1,38.4,65.5L38.4,65.5z"/>
		<path fill="#B5B8BD" d="M43.1,66.3c-0.7,0.4-1.2,1.3-1.2,2.1c0,0.8,0.5,1.1,1.2,0.7c0.7-0.4,1.2-1.3,1.2-2.1
			C44.3,66.2,43.8,65.9,43.1,66.3L43.1,66.3z"/>
		<path fill="#EDEDED" d="M39.9,67.1L39.9,67.1c1-2.8,3.7-4.9,5.3-4c0.2,0.1,1.2,0.7,1.5,0.8c-1.4-0.8-3.6,0.6-4.8,2.9
			c-0.9,1.7-1.3,4.2,0.1,5.1c-0.2-0.1-1.2-0.7-1.5-0.8C39.4,70.5,39.3,68.8,39.9,67.1L39.9,67.1z"/>
		<path fill="#C6C6C6" d="M44.2,64.2c-1.8,1-3.3,3.6-3.3,5.7c0,2.1,1.5,2.9,3.3,1.9c1.8-1,3.3-3.6,3.3-5.7
			C47.5,64,46,63.1,44.2,64.2L44.2,64.2z"/>
		<path fill="#828282" d="M43.3,67.9L43.3,67.9c0.3-0.9,1.2-1.6,1.7-1.3c0.1,0,0.4,0.2,0.5,0.3c-0.4-0.3-1.1,0.2-1.5,0.9
			c-0.3,0.5-0.4,1.4,0,1.6c-0.1,0-0.4-0.2-0.5-0.3C43.2,69,43.1,68.5,43.3,67.9L43.3,67.9z"/>
		<path fill="#595959" d="M44.7,67c-0.6,0.3-1.1,1.1-1,1.8c0,0.7,0.5,0.9,1.1,0.6c0.6-0.3,1.1-1.1,1-1.8
			C45.8,66.9,45.3,66.7,44.7,67L44.7,67z"/>
		<polygon fill="#D7991F" points="23,42 26.9,39.7 26.9,49 23,51.3 23,42 		"/>
		<polygon fill="#FFCE57" points="16.4,38.2 20.3,35.9 26.9,39.7 23,42 16.4,38.2 		"/>
		<polygon fill="#F8BC3B" points="23,42 23,51.3 16.3,47.5 16.4,38.2 23,42 		"/>
	</g>
</g>
</svg>
