<?xml version="1.0" encoding="utf-8"?>
<!-- Generator: Adobe Illustrator 18.1.1, SVG Export Plug-In . SVG Version: 6.00 Build 0)  -->
<svg version="1.1" xmlns="http://www.w3.org/2000/svg" xmlns:xlink="http://www.w3.org/1999/xlink" x="0px" y="0px"
	 viewBox="0 0 100 100" enable-background="new 0 0 100 100" xml:space="preserve">
<g id="Capa_1">
</g>
<g id="Capa_2">
	<g>
		<polygon fill="#9A9C9D" points="65.7,53.9 65.7,56.1 80.7,64.8 80.7,62.6 65.7,53.9 		"/>
		<polygon fill="#6B6C6D" points="80.7,62.6 80.7,64.8 90.3,59.3 90.3,57.1 80.7,62.6 		"/>
		<polygon fill="#ACAEB0" points="65.7,53.9 80.7,62.6 90.3,57.1 75.3,48.4 65.7,53.9 		"/>
		<path fill="#8E8E8E" d="M76.9,47.2c-0.1-0.1-0.2-0.3-0.3-0.5c0,0,0,0,0,0c-0.2-0.5,0-37,0-37.2c0-0.2,0.1-0.3,0.2-0.4l0,0L73,11.2
			c-0.1,0.1-0.2,0.3-0.2,0.5c-0.2,52.8-0.2,36.6,0,37.1c0.2,0.5,0.8,1.1,1.3,0.9c1.3-0.7,2.5-1.5,3.8-2.2
			C77.5,47.7,77.1,47.4,76.9,47.2L76.9,47.2z"/>
		<path fill="#8E8E8E" d="M80.9,48.6c0-35.2,0-36.8,0.4-37c-1.3,0.7-2.5,1.5-3.8,2.2c-0.1,0.1-0.2,0.3-0.2,0.5
			c-0.1,52.5-0.3,36.7,0.2,37.4c0.3,0.4,0.7,0.8,1.1,0.6c1.3-0.7,2.5-1.5,3.8-2.2C81.8,50.4,80.9,49.4,80.9,48.6L80.9,48.6z"/>
		<path fill="#B1B1B1" d="M74.2,49.2l0.1-36.5c0-0.5-0.4-1.2-0.8-1.4c-0.5-0.3-0.8-0.1-0.8,0.5l-0.1,36.5c0,0.5,0.4,1.2,0.8,1.4
			C73.9,49.9,74.2,49.7,74.2,49.2L74.2,49.2z M78.7,51.8l0.1-36.5c0-0.5-0.4-1.2-0.8-1.4c-0.5-0.3-0.8-0.1-0.8,0.5l-0.1,36.5
			c0,0.5,0.4,1.2,0.8,1.4C78.3,52.5,78.7,52.3,78.7,51.8L78.7,51.8z M70.6,6.3l10.4,6l-0.2,47.5l-10.4-6L70.6,6.3L70.6,6.3z"/>
		<polygon fill="#8E8E8E" points="81,12.3 84.8,10.1 84.6,57.5 80.8,59.7 81,12.3 		"/>
		<polygon fill="#C5C5C5" points="70.6,6.3 74.4,4.1 84.8,10.1 81,12.3 70.6,6.3 		"/>
		<path fill="#3F3F3F" d="M39.5,32.6L35.6,30c-0.5-0.3-0.9-0.4-1.2-0.2c-0.2,0.1-0.3,0.2-0.5,0.3c0.3-0.2,0.7-0.1,1.2,0.2l3.9,2.6
			c1.2,0.8,1.7,2.2,1.3,3.4c0,0.1-0.1,0.2-0.1,0.3l-2.7,7.9c-0.1,0.1-0.1,0.1-0.2,0.2l0.5-0.3c0.1,0,0.1-0.1,0.2-0.2l2.7-7.9
			C41.3,35.1,40.9,33.5,39.5,32.6L39.5,32.6z"/>
		<path fill="#1E1E1E" d="M39,32.9c1.3,0.9,1.8,2.4,1.2,3.7l-2.7,7.9c-0.4,0.4-0.9,0.3-1.5-0.1c-0.6-0.4-1.1-1.1-1.4-1.9l-1.2-10.6
			c-0.3-1.6,0.4-2.6,1.7-1.8L39,32.9L39,32.9z"/>
		<path fill="#FFCE57" d="M48.4,50C35.7,38.7,36.5,39.4,36.2,39.2c-0.5-0.3-0.9-0.3-1.2-0.1c-1.6,0.9-3.2,1.8-4.7,2.8
			c0.5-0.3,1.1,0,1.6,0.4l11.8,10.5c1.5,1.5,1.5,2.5,1.3,3.3c-0.1,0.4-0.2,0.6-0.5,0.7c1.6-0.9,3.2-1.8,4.7-2.8
			c0.2-0.1,0.4-0.4,0.5-0.7C49.9,52.2,49.7,51.4,48.4,50L48.4,50z"/>
		<path fill="#FFBE32" d="M31.5,42c0.1,0.1,0.2,0.1,0.3,0.2l11.8,10.5c1.1,1.2,1.5,2.1,1.3,3.1l0,0.2c-0.2,0.8-0.9,1.1-1.7,0.6
			c-0.1-0.1-0.2-0.1-0.3-0.2l-12.2-8.8c-0.9-0.8-1.5-2.1-1.3-3.1l0.4-1.9C30,41.8,30.7,41.5,31.5,42L31.5,42z"/>
		<path fill="#3F3F3F" d="M35,34.9l-3.9-2.6c-0.5-0.3-0.9-0.4-1.2-0.2c-0.2,0.1-0.3,0.2-0.5,0.3c0.3-0.2,0.7-0.1,1.2,0.2l3.9,2.6
			c1.2,0.8,1.7,2.2,1.3,3.4c0,0.1-0.1,0.2-0.1,0.3L33,46.8c-0.1,0.1-0.1,0.1-0.2,0.2l0.5-0.3c0.1,0,0.1-0.1,0.2-0.2l2.7-7.9
			C36.8,37.4,36.3,35.8,35,34.9L35,34.9z"/>
		<path fill="#1E1E1E" d="M34.5,35.2c1.3,0.9,1.8,2.4,1.2,3.7L33,46.8c-0.4,0.4-0.9,0.3-1.5-0.1c-0.6-0.4-1.1-1.1-1.4-1.9l-1.2-10.6
			c-0.3-1.6,0.4-2.6,1.6-1.8L34.5,35.2L34.5,35.2z"/>
		<path fill="#DEA12A" d="M48.5,52.7c-0.3-0.2-0.7-0.1-1.1,0.1c-0.9,0.5-1.6,1.7-1.6,2.8c0,0.5,0.2,0.9,0.5,1
			c0.3,0.2,1.9,1.1,2.2,1.3c-0.3-0.2-0.5-0.5-0.5-1c0-1,0.7-2.2,1.6-2.8c0.4-0.3,0.8-0.3,1.1-0.1C50.4,53.8,48.8,52.9,48.5,52.7
			L48.5,52.7z"/>
		<path fill="#75787A" d="M49.6,54.1c0.9-0.5,1.6-0.1,1.6,0.9c0,1-0.7,2.2-1.6,2.8c-0.9,0.5-1.6,0.1-1.6-0.9
			C48,55.9,48.7,54.6,49.6,54.1L49.6,54.1z"/>
		<polygon fill="#5B5B5B" points="54.5,58.1 53.6,59.3 53.7,58 54.6,56.8 54.5,58.1 		"/>
		<path fill="#303030" d="M60.7,62.6c0,0-0.1,0-0.2,0c-0.3,0-0.6-0.2-0.8-0.5l-0.6-1c-0.1-0.2-0.3-0.4-0.4-0.6l-0.8-0.9
			c-0.2-0.2-0.4-0.3-0.6-0.4l-2.8-1l-0.9,1.2l2.8,1c0.2,0.1,0.4,0.2,0.6,0.4l0.8,0.9c0.2,0.2,0.3,0.4,0.4,0.6l0.6,1
			c0.2,0.3,0.5,0.5,0.8,0.5c0.1,0,0.1,0,0.2,0c0,0,0.1-0.1,0.1-0.1c0.3-0.4,0.6-0.8,0.9-1.2C60.8,62.5,60.7,62.6,60.7,62.6
			L60.7,62.6z"/>
		<path fill="#5B5B5B" d="M54.6,56.8l3,1.1c0.5,0.2,0.9,0.5,1.2,0.9l0.8,0.9c0.3,0.4,0.6,0.8,0.8,1.2l0.5,1.2c0.1,0.2,0,0.4-0.1,0.5
			c0,0-0.1,0-0.2,0c-0.3,0-0.6-0.2-0.8-0.5l-0.6-1c-0.1-0.2-0.3-0.4-0.4-0.6l-0.8-0.9c-0.2-0.2-0.4-0.3-0.6-0.4l-2.8-1L54.6,56.8
			L54.6,56.8z"/>
		<path fill="#222222" d="M54.8,59.6c-0.4,0.2-1,0.3-1.6,0l-4.3-2c-1.1-0.5-1.5-1.4-1.3-2.1c-0.2,0.5-0.4,1-0.5,1.6
			c-0.3,0.7,0.2,1.7,1.3,2.1l4.3,2c0.6,0.3,1.2,0.2,1.6,0c0.2-0.1,0.4-0.3,0.4-0.5c0.2-0.5,0.4-1,0.5-1.6
			C55.2,59.3,55.1,59.5,54.8,59.6L54.8,59.6z"/>
		<path fill="#FFCE57" d="M48.3,54.8c-1.1,0.7-0.8,2.2,0.7,2.8l4.3,2c0.6,0.3,1.2,0.2,1.6,0c0.4-0.2,0.6-0.7,0.4-1.2l-1.5-3.6
			c-0.5-1.2-2.4-1.9-3.5-1.2L48.3,54.8L48.3,54.8z"/>
		<path fill="#5B5B5B" d="M51.3,58.7l1.5,0.7l0,2.3c0,0.2,0.1,0.4,0.2,0.6l0.7,1c0.2,0.2,0.3,0.4,0.5,0.6l0.9,0.9
			c0.3,0.2,0.3,0.6,0.2,0.8c0,0-0.1,0.1-0.1,0.1c-0.2,0.1-0.4,0-0.6-0.1l-1.2-0.8c-0.4-0.3-0.8-0.7-1.1-1.1l-0.7-1
			c-0.3-0.4-0.5-0.8-0.5-1.2L51.3,58.7L51.3,58.7z"/>
		<path fill="#303030" d="M55.2,65.6c-0.2,0.1-0.4,0-0.6-0.1l-1.2-0.8c-0.4-0.3-0.8-0.7-1.1-1.1l-0.7-1c-0.3-0.4-0.5-0.8-0.5-1.2
			l0.1-2.7l-1,1.3l0,2.5c0,0.4,0.2,0.8,0.5,1.2l0.7,1c0.3,0.4,0.7,0.8,1.1,1.1l1.2,0.8c0.2,0.2,0.5,0.2,0.6,0.1l0.1-0.1
			c0.3-0.4,0.6-0.8,0.9-1.2L55.2,65.6L55.2,65.6z"/>
		<path fill="#979B9E" d="M31.3,43.9c0.2-0.1,0.4-0.1,0.7,0.1c0.5,0.3,0.9,1,0.9,1.6c0,0.3-0.1,0.5-0.3,0.6
			c-0.2,0.1-0.4,0.2-0.5,0.3c0.2-0.1,0.3-0.3,0.3-0.6c0-0.6-0.4-1.3-0.9-1.6c-0.3-0.1-0.5-0.2-0.7-0.1C31,44.1,31.2,44,31.3,43.9
			L31.3,43.9z"/>
		<path fill="#75787A" d="M31.5,44.3c-0.5-0.3-0.9-0.1-0.9,0.5c0,0.6,0.4,1.3,0.9,1.6c0.5,0.3,0.9,0.1,0.9-0.5
			C32.4,45.3,32,44.6,31.5,44.3L31.5,44.3z"/>
		<polygon fill="#9A9C9D" points="9.7,86.5 9.7,88.7 24.7,97.4 24.7,95.2 9.7,86.5 		"/>
		<polygon fill="#6B6C6D" points="24.7,95.2 24.7,97.4 34.3,91.9 34.3,89.7 24.7,95.2 		"/>
		<polygon fill="#ACAEB0" points="9.7,86.5 24.7,95.2 34.3,89.7 19.3,81 9.7,86.5 		"/>
		<path fill="#8E8E8E" d="M20.9,79.8c-0.1-0.1-0.2-0.3-0.3-0.5c0,0,0,0,0,0c-0.2-0.5,0-37,0-37.2c0-0.2,0.1-0.3,0.2-0.4L17,43.9
			c-0.1,0.1-0.2,0.3-0.2,0.5c-0.1,52.8-0.2,36.6,0,37.1c0.2,0.5,0.8,1.1,1.3,0.9c1.3-0.7,2.5-1.5,3.8-2.2
			C21.5,80.3,21.1,80,20.9,79.8L20.9,79.8z"/>
		<path fill="#8E8E8E" d="M24.9,81.2c0-35.2,0-36.8,0.4-37c-1.3,0.7-2.5,1.5-3.8,2.2c-0.1,0.1-0.2,0.3-0.2,0.5
			c-0.1,52.5-0.3,36.7,0.2,37.4c0.3,0.4,0.7,0.8,1.1,0.6c1.3-0.7,2.5-1.5,3.8-2.2C25.8,83,24.9,82,24.9,81.2L24.9,81.2z"/>
		<path fill="#B1B1B1" d="M18.3,81.8l0.1-36.5c0-0.5-0.4-1.2-0.8-1.4c-0.5-0.3-0.8-0.1-0.8,0.5l-0.1,36.5c0,0.5,0.4,1.2,0.8,1.4
			C17.9,82.5,18.3,82.3,18.3,81.8L18.3,81.8z M22.7,84.4l0.1-36.5c0-0.5-0.4-1.2-0.8-1.4c-0.5-0.3-0.8-0.1-0.8,0.5l-0.1,36.5
			c0,0.5,0.4,1.2,0.8,1.4C22.4,85.1,22.7,84.9,22.7,84.4L22.7,84.4z M14.7,38.9l10.4,6l-0.2,47.5l-10.4-6L14.7,38.9L14.7,38.9z"/>
		<polygon fill="#8E8E8E" points="25,44.9 28.8,42.7 28.7,90.1 24.8,92.4 25,44.9 		"/>
		<polygon fill="#C5C5C5" points="14.7,38.9 18.5,36.7 28.8,42.7 25,44.9 14.7,38.9 		"/>
		<path fill="#3F3F3F" d="M63.2,18.8l-3.9-2.6c-0.5-0.3-0.9-0.4-1.2-0.2c-0.2,0.1-0.3,0.2-0.5,0.3c0.3-0.2,0.7-0.1,1.2,0.2l3.9,2.6
			c1.2,0.8,1.7,2.2,1.3,3.4c0,0.1-0.1,0.2-0.1,0.3l-2.7,7.9c-0.1,0.1-0.1,0.1-0.2,0.2l0.5-0.3c0.1,0,0.1-0.1,0.2-0.2l2.7-7.9
			C65,21.3,64.5,19.7,63.2,18.8L63.2,18.8z"/>
		<path fill="#1E1E1E" d="M62.7,19.1c1.3,0.9,1.8,2.4,1.2,3.7l-2.7,7.9c-0.4,0.4-0.9,0.3-1.5-0.1c-0.6-0.4-1.1-1.1-1.4-1.9
			l-1.2-10.6c-0.3-1.6,0.4-2.6,1.7-1.8L62.7,19.1L62.7,19.1z"/>
		<path fill="#FFCE57" d="M72.1,36.2C59.3,24.9,60.2,25.6,59.9,25.4c-0.5-0.3-0.9-0.3-1.2-0.1c-1.6,0.9-3.2,1.8-4.7,2.8
			c0.5-0.3,1.1,0,1.6,0.4L67.3,39c1.5,1.5,1.5,2.5,1.3,3.3c-0.1,0.4-0.2,0.6-0.5,0.7c1.6-0.9,3.2-1.8,4.7-2.8
			c0.2-0.1,0.4-0.4,0.5-0.7C73.6,38.5,73.4,37.6,72.1,36.2L72.1,36.2z"/>
		<path fill="#FFBE32" d="M55.2,28.2c0.1,0.1,0.2,0.1,0.3,0.2L67.3,39c1.1,1.2,1.5,2.1,1.3,3.1l0,0.2c-0.2,0.8-0.9,1.1-1.7,0.6
			c-0.1-0.1-0.2-0.1-0.3-0.2l-12.2-8.8c-0.9-0.8-1.5-2.1-1.3-3.1l0.4-1.9C53.6,28,54.4,27.7,55.2,28.2L55.2,28.2z"/>
		<path fill="#3F3F3F" d="M58.7,21.1l-3.9-2.6c-0.5-0.3-0.9-0.4-1.2-0.2c-0.2,0.1-0.3,0.2-0.5,0.3c0.3-0.2,0.7-0.1,1.2,0.2l3.9,2.6
			c1.2,0.8,1.7,2.2,1.3,3.4c0,0.1-0.1,0.2-0.1,0.3L56.7,33c-0.1,0.1-0.1,0.1-0.2,0.2l0.5-0.3c0.1,0,0.1-0.1,0.2-0.2l2.7-7.9
			C60.4,23.6,60,22,58.7,21.1L58.7,21.1z"/>
		<path fill="#1E1E1E" d="M58.2,21.4c1.3,0.9,1.8,2.4,1.2,3.7L56.7,33c-0.4,0.4-0.9,0.3-1.5-0.1c-0.6-0.4-1.1-1.1-1.4-1.9l-1.2-10.6
			c-0.3-1.6,0.4-2.6,1.7-1.8L58.2,21.4L58.2,21.4z"/>
		<path fill="#DEA12A" d="M72.2,38.9c-0.3-0.2-0.7-0.1-1.1,0.1c-0.9,0.5-1.6,1.7-1.6,2.8c0,0.5,0.2,0.9,0.5,1
			c0.3,0.2,1.9,1.1,2.2,1.3c-0.3-0.2-0.5-0.5-0.5-1c0-1,0.7-2.2,1.6-2.8c0.4-0.3,0.8-0.3,1.1-0.1C74.1,40,72.5,39.1,72.2,38.9
			L72.2,38.9z"/>
		<path fill="#75787A" d="M73.3,40.3c0.9-0.5,1.6-0.1,1.6,0.9c0,1-0.7,2.2-1.6,2.8c-0.9,0.5-1.6,0.1-1.6-0.9
			C71.7,42.1,72.4,40.8,73.3,40.3L73.3,40.3z"/>
		<polygon fill="#5B5B5B" points="78.1,44.3 77.2,45.5 77.3,44.2 78.2,43 78.1,44.3 		"/>
		<path fill="#303030" d="M84.3,48.8c0,0-0.1,0-0.2,0c-0.3,0-0.6-0.2-0.8-0.5l-0.6-1c-0.1-0.2-0.3-0.4-0.4-0.6l-0.8-0.9
			c-0.2-0.2-0.4-0.3-0.6-0.4l-2.8-1l-0.9,1.2l2.8,1c0.2,0.1,0.4,0.2,0.6,0.4l0.8,0.9c0.2,0.2,0.3,0.4,0.4,0.6l0.6,1
			c0.2,0.3,0.5,0.5,0.8,0.5c0.1,0,0.1,0,0.2,0c0,0,0.1-0.1,0.1-0.1c0.3-0.4,0.6-0.8,0.9-1.2C84.4,48.8,84.4,48.8,84.3,48.8
			L84.3,48.8z"/>
		<path fill="#5B5B5B" d="M78.2,43l3,1.1c0.5,0.2,0.9,0.5,1.2,0.9l0.8,0.9c0.3,0.4,0.6,0.8,0.8,1.2l0.5,1.2c0.1,0.2,0,0.4-0.1,0.5
			c0,0-0.1,0-0.2,0c-0.3,0-0.6-0.2-0.8-0.5l-0.6-1c-0.1-0.2-0.3-0.4-0.4-0.6l-0.8-0.9c-0.2-0.2-0.4-0.3-0.6-0.4l-2.8-1L78.2,43
			L78.2,43z"/>
		<path fill="#222222" d="M78.5,45.8c-0.4,0.2-1,0.3-1.6,0l-4.3-2c-1.1-0.5-1.5-1.4-1.3-2.1c-0.2,0.5-0.4,1-0.5,1.6
			c-0.3,0.7,0.2,1.7,1.3,2.1l4.3,2c0.6,0.3,1.2,0.2,1.6,0c0.2-0.1,0.4-0.3,0.4-0.5c0.2-0.5,0.4-1,0.5-1.6
			C78.9,45.5,78.7,45.7,78.5,45.8L78.5,45.8z"/>
		<path fill="#FFCE57" d="M71.9,41c-1.1,0.7-0.8,2.2,0.7,2.8l4.3,2c0.6,0.3,1.2,0.2,1.6,0c0.4-0.2,0.6-0.7,0.4-1.2l-1.5-3.6
			c-0.5-1.2-2.4-1.9-3.5-1.2L71.9,41L71.9,41z"/>
		<path fill="#5B5B5B" d="M74.9,44.9l1.5,0.7l0,2.3c0,0.2,0.1,0.4,0.2,0.6l0.7,1c0.2,0.2,0.3,0.4,0.5,0.6l0.9,0.9
			c0.3,0.2,0.3,0.6,0.2,0.8c0,0-0.1,0.1-0.1,0.1c-0.2,0.1-0.4,0-0.6-0.1l-1.2-0.8c-0.4-0.3-0.8-0.7-1.1-1.1l-0.7-1
			c-0.3-0.4-0.5-0.8-0.5-1.2L74.9,44.9L74.9,44.9z"/>
		<path fill="#303030" d="M78.9,51.8c-0.2,0.1-0.4,0-0.6-0.1l-1.2-0.8c-0.4-0.3-0.8-0.7-1.1-1.1l-0.7-1c-0.3-0.4-0.5-0.8-0.5-1.2
			l0.1-2.7l-1,1.3l0,2.5c0,0.4,0.2,0.8,0.5,1.2l0.7,1c0.3,0.4,0.7,0.8,1.1,1.1l1.2,0.8c0.2,0.2,0.5,0.2,0.6,0.1l0.1-0.1
			c0.3-0.4,0.6-0.8,0.9-1.2L78.9,51.8L78.9,51.8z"/>
		<path fill="#979B9E" d="M55,30.1c0.2-0.1,0.4-0.1,0.7,0.1c0.5,0.3,0.9,1,0.9,1.6c0,0.3-0.1,0.5-0.3,0.6c-0.2,0.1-0.4,0.2-0.5,0.3
			c0.2-0.1,0.3-0.3,0.3-0.6c0-0.6-0.4-1.3-0.9-1.6c-0.3-0.1-0.5-0.2-0.7-0.1C54.6,30.3,54.8,30.2,55,30.1L55,30.1z"/>
		<path fill="#75787A" d="M55.1,30.5c-0.5-0.3-0.9-0.1-0.9,0.5c0,0.6,0.4,1.3,0.9,1.6c0.5,0.3,0.9,0.1,0.9-0.5
			C56,31.5,55.6,30.8,55.1,30.5L55.1,30.5z"/>
		<polygon fill="#5C5D5E" points="23.4,44 22.5,43.5 22.5,40.9 23.4,41.5 23.4,44 		"/>
		<polygon fill="#949697" points="23.4,41.5 22.5,40.9 82.6,6.2 83.5,6.8 23.4,41.5 		"/>
		<polygon fill="#858788" points="83.5,6.8 83.5,9.3 23.4,44 23.4,41.5 83.5,6.8 		"/>
		<polygon fill="#5C5D5E" points="17,40.4 16,39.8 16,37.3 16.9,37.8 17,40.4 		"/>
		<polygon fill="#949697" points="16.9,37.8 16,37.3 76.1,2.6 77,3.1 16.9,37.8 		"/>
		<polygon fill="#858788" points="77,3.1 77,5.7 17,40.4 16.9,37.8 77,3.1 		"/>
		<polygon fill="#8E8E8E" points="41.6,27.8 41.6,31.2 33.9,35.7 33.9,32.3 41.6,27.8 		"/>
		<polygon fill="#B1B1B1" points="33.9,32.3 33.9,35.7 26.1,31.2 26.1,27.8 33.9,32.3 		"/>
		<polygon fill="#C5C5C5" points="41.6,27.8 33.9,32.3 26.1,27.8 33.8,23.3 41.6,27.8 		"/>
		<polygon fill="#8E8E8E" points="65.6,14 65.6,17.4 57.8,21.9 57.8,18.5 65.6,14 		"/>
		<polygon fill="#B1B1B1" points="57.8,18.5 57.8,21.9 50,17.4 50,14 57.8,18.5 		"/>
		<polygon fill="#C5C5C5" points="65.6,14 57.8,18.5 50,14 57.8,9.5 65.6,14 		"/>
	</g>
</g>
</svg>
