<?xml version="1.0" encoding="utf-8"?>
<!-- Generator: Adobe Illustrator 18.1.1, SVG Export Plug-In . SVG Version: 6.00 Build 0)  -->
<svg version="1.1" xmlns="http://www.w3.org/2000/svg" xmlns:xlink="http://www.w3.org/1999/xlink" x="0px" y="0px"
	 viewBox="0 0 100 100" enable-background="new 0 0 100 100" xml:space="preserve">
<g id="Capa_1">
</g>
<g id="Capa_2">
	<g>
		<g>
			<path fill="#F8B881" d="M63.6,72.1c0.2,0,0.4-0.1,0.5-0.1c0.8-0.3,1.1-1.6,1-2.4c-0.1-1-0.4-2-1.1-2.7c-0.6-0.6-1.7-1.4-2.6-0.8
				c-0.4,0.3-0.6,0.7-0.5,1.2c0,0.4,0.2,0.7,0.3,1.1c0.1,0.3,0,0.6,0,0.9c0,0.3,0.1,0.5,0.2,0.8c0.3,0.7,0,1.5,0.9,1.9
				C62.6,72.1,63.1,72.1,63.6,72.1z"/>
			<g>
				<path fill="#121219" d="M70,76.4c0.1-0.4,0.2-0.9,0.3-1.3c0.2-0.8,0.4-1.9,0.2-2.1c-0.3-0.4-1.5-0.5-2.6-0.5
					c-3.5,0-5.9,0-8.6-0.7c-1.6-0.4-2.8,0.8-2.3,4.4c0,0.3,0.2,0.6,0.5,1c0,0.2,0,0.3,0.1,0.5c0.2,2.1,0.2,4.3,0.3,5.9
					c2.7,0.6,4.7,0.7,8.5,1.5c0.3,0.1,0.5,0,0.7,0c0.7-0.2,1.3-0.9,2-1c0.1-1.4,0.2-3,0.3-4.6c0-0.2,0.1-0.6,0.2-1.2
					C69.8,77.7,69.9,77.1,70,76.4z"/>
				<path fill="#F2AB40" d="M60.7,71.4c0.8,1-0.2,1-0.7,0.9c-0.2,0-0.3,0-0.5-0.2C59.7,71.8,60.4,71,60.7,71.4z"/>
				<path fill="#121219" d="M62.4,70.1c-0.6,0-1.7,0.5-2,1.4c-0.1,0.4,0.1,0.6,0.3,0.6c0.2,0,0.6-0.4,0.7-0.4c0.7-0.4,1.3-0.4,2,0.1
					c0.4,0.2,0.7,0.6,1.1,0.6c0.8,0,0.3-0.9-0.2-1.3C63.8,70.5,63.1,70.1,62.4,70.1z"/>
				<path fill="#F2B33F" d="M64.6,72.1c-0.1,0.2-0.1,0.4-0.1,0.6c0,0.4,1.4,0.1,1.6-0.1c0.1-0.1-0.6-0.7-0.7-0.8
					C65.1,71.8,64.8,71.8,64.6,72.1z"/>
				<path fill="#1E1E29" d="M70.1,72.9c0.2,0.1-1.4-0.1-2.1,0.9c-0.7,1.1-5.2,0.3-6.5,0.1c-1.2-0.1-0.6-0.1-0.3-0.4
					c0.3-0.3-0.5-0.8-0.5-0.8l0.5-0.3l2.8,0.2c0,0,0.2,0.7,1,0.5c0.7-0.1,1.4-0.5,1.4-0.5S69,72.5,70.1,72.9z"/>
			</g>
			<path fill="#1E1E29" d="M57.1,54.4c0,0,0.8,8.8,3.7,14.3l4.3-1.1c0,0-2.1-5.9-2.1-13.9c0-0.9,0.2-3.2-1.1-3.9
				c-1.3-0.7-4-2.3-4-2.3L57.1,54.4z"/>
			<path fill="#F8B881" d="M64,71.4c-0.6-0.4-1-1.9-0.9-2.5c0.2-0.7,0.8-1.1,1.4-0.7c0.7,0.4,0.5,1.4,0.4,1.9
				c-0.1,0.4-0.1,0.4,0,0.8c0,0.2,0.4,0.5,0.2,0.7C65.1,72,64.4,71.7,64,71.4z"/>
			<path fill="#F8B881" d="M63.4,71.1c0.9,0.8,0.5,1.3-0.5,1.3c-0.5,0-2.2-0.3-1.5-1.2C61.8,70.7,63,70.7,63.4,71.1z"/>
		</g>
		<defs>
			<filter id="Adobe_OpacityMaskFilter" filterUnits="userSpaceOnUse" x="31.6" y="89.1" width="37.3" height="4.8">
				<feColorMatrix  type="matrix" values="1 0 0 0 0  0 1 0 0 0  0 0 1 0 0  0 0 0 1 0"/>
			</filter>
		</defs>
		<mask maskUnits="userSpaceOnUse" x="31.6" y="89.1" width="37.3" height="4.8" id="SVGID_1_">
			<g filter="url(#Adobe_OpacityMaskFilter)">
				<defs>
					<filter id="Adobe_OpacityMaskFilter_1_" filterUnits="userSpaceOnUse" x="30.4" y="88.5" width="39.6" height="5.9">
						<feFlood  style="flood-color:white;flood-opacity:1" result="back"/>
						<feBlend  in="SourceGraphic" in2="back" mode="normal"/>
					</filter>
				</defs>
				<mask maskUnits="userSpaceOnUse" x="30.4" y="88.5" width="39.6" height="5.9" id="SVGID_1_">
					<g filter="url(#Adobe_OpacityMaskFilter_1_)">
					</g>
				</mask>
				
					<radialGradient id="SVGID_2_" cx="-3269.0271" cy="62486.2773" r="14.8599" gradientTransform="matrix(1.2017 0 0 0.1624 3978.571 -10056.3096)" gradientUnits="userSpaceOnUse">
					<stop  offset="0" style="stop-color:#FFFFFF"/>
					<stop  offset="7.362918e-002" style="stop-color:#E1E1E1"/>
					<stop  offset="0.2544" style="stop-color:#9E9E9E"/>
					<stop  offset="0.4259" style="stop-color:#666666"/>
					<stop  offset="0.5834" style="stop-color:#3A3A3A"/>
					<stop  offset="0.724" style="stop-color:#1B1B1B"/>
					<stop  offset="0.8425" style="stop-color:#080808"/>
					<stop  offset="0.9247" style="stop-color:#010101"/>
				</radialGradient>
				<path mask="url(#SVGID_1_)" fill="url(#SVGID_2_)" d="M70,91.5c0,1.6-8.9,3-19.8,3c-10.9,0-19.8-1.3-19.8-3c0-1.6,8.9-3,19.8-3
					C61.1,88.5,70,89.8,70,91.5z"/>
			</g>
		</mask>
		
			<radialGradient id="SVGID_3_" cx="-3387.9937" cy="62602.9648" r="15.7035" gradientTransform="matrix(1.1502 0 0 0.1329 3947.0515 -8228.4746)" gradientUnits="userSpaceOnUse">
			<stop  offset="0" style="stop-color:#010101"/>
			<stop  offset="0.9247" style="stop-color:#010101"/>
		</radialGradient>
		<path opacity="0.2" fill="url(#SVGID_3_)" d="M68.8,91.5c0,1.3-8.3,2.4-18.6,2.4c-10.3,0-18.6-1.1-18.6-2.4
			c0-1.3,8.3-2.4,18.6-2.4C60.5,89.1,68.8,90.1,68.8,91.5z"/>
		<path fill="#E9E8E8" d="M42.9,48.1c-2.8,2.4-3.6,5.2,0.6,9.3c4.2,4.1,7.2,4.6,7.2,4.6s9.3-8.9,7.6-12.9
			C56.3,44.3,45.7,45.7,42.9,48.1z"/>
		<path fill="#3C9AD5" d="M49.9,51.6c2.1-0.4,2.8,1.2,2.8,1.2l-0.9,1.9l2.1,5.6l-2.6,5.7l-3.6-5.4l1.7-5.6l-1.5-1.5
			C47.8,53.5,48.1,51.9,49.9,51.6z"/>
		<path fill="#0D0F12" d="M44.4,85.1c3.7-1,4.3,4.4,1.8,7c-2.5,2.6-6.1,1.6-5-2.2C41.8,87.9,42.5,85.6,44.4,85.1z"/>
		<path fill="#0D0F12" d="M55.9,85c-3.8-0.6-3.8,4.9-1.1,7.2c2.7,2.3,6.2,1,4.7-2.7C58.8,87.5,57.9,85.4,55.9,85z"/>
		<path fill="#252728" d="M59,89.5c-0.1-0.2-0.3-0.5-0.5-0.7c-0.4,0.5-1.9,0.5-2.5,0.6c-0.7,0.1-1.7,0.2-0.8,1
			c0.7,0.7,1.9,1.1,2.8,1.1C59.1,91.3,59.4,90.3,59,89.5z"/>
		<path fill="#1E1E29" d="M41.9,65.8c-0.1,2.7-0.2,5.4-0.2,8c-0.1,4,0.5,9.4-0.8,13.3c0.6,0.3,1.2,0.5,1.8,0.8c2.3,0.8,4.6,0,7-0.4
			c-0.7-6.9,0.9-14,1-20.9C50.6,65,41.9,63.5,41.9,65.8z"/>
		<path fill="#1E1E29" d="M50.3,67.9c0.5,3.6,0.3,7.4,0.3,11.1c0,2.6-0.1,5.9-0.2,8.5c0.8,0.3,3.3,0.8,3.9,0.7
			c1.7,0,4.1-0.6,5.1-1.2c-0.8-2.7-1.4-7.6-1.7-11.6c-0.2-2.9,0.7-6.8-0.1-9.7C57.1,63.6,49.8,64.3,50.3,67.9z"/>
		<path fill="#121219" d="M41.6,73v2.8c0,0,3.4-0.5,8.2,0.7c0,0,0.1-0.6,0.2-0.8c0.1-0.2,0.7-0.3,0.7,0.1c0,0.5,0,0.7,0,0.7
			s2.5-2.1,7.1-0.8l0-2.8l-7.6-2.2L41.6,73z"/>
		<g>
			<path fill="#1E1E29" d="M60.5,59.8c0.7-3.8,2.7-7.3-0.3-10.5c-0.6-0.7-1.4-1.2-2.4-1.7C58,48,58,48.3,58,48.6
				c-0.6,6.2-7.1,12.5-7.1,12.5s-9.7-8.3-8-12.5c0.1-0.3,0.3-0.7,0.5-1c-2.2,1-4.4,2.4-4.9,4.5c-0.6,2.3,1,7.3,1.4,10.6
				c0.2,2.1,0.4,8.4-0.1,10.5c1.5,0.7,8,1.7,9.5,0.9c1.2-0.7,1.9-2.1,2-2.5c0,4,9.4,2.2,9.4,1.9C60,71.3,59.8,63.5,60.5,59.8z"/>
		</g>
		<path fill="#121219" d="M51,62.6c0,0-0.7,1.7,0.2,4.8C51.2,67.3,51,65,51,62.6z"/>
		<path fill="#F8B881" d="M36.7,66.6c0.5,0.2,0,1.5,1,2.3c1,0.8-0.8-0.1-1.1,0.9c-0.3,0.9,3.6,2.6,4.4-0.4c0.8-3-1.3-4.3-4.5-4.4
			C33.2,64.8,36.7,66.6,36.7,66.6z"/>
		<path fill="#1E1E29" d="M42.9,47.8c0,0-4.6,2.4-5.5,2.9c-3.3,1.6-8,4.6-8,9.6c0,6.3,6.9,8.7,6.9,8.7l2-4c0,0-3.8-0.8-3.5-4.9
			c0.2-3,6.4-4.7,6.4-4.7L42.9,47.8z"/>
		<circle fill="#121219" cx="50.3" cy="67.9" r="0.6"/>
		<circle fill="#121219" cx="50.1" cy="62.1" r="0.6"/>
		<path fill="#252728" d="M41.8,89.8c0.1-0.3,0.2-0.5,0.4-0.7c0.5,0.5,1.9,0.3,2.6,0.3c0.7,0,1.7,0,0.9,0.9
			c-0.6,0.7-1.7,1.3-2.7,1.3C41.9,91.7,41.5,90.7,41.8,89.8z"/>
		<path fill="#121219" d="M51.1,71.7l0.2-3.3c0,0-0.1,4,0.5,4.9C51.8,73.3,51.3,73.2,51.1,71.7z"/>
		<path fill="#121219" d="M57,46.9c0,0,3.8,2.4,5.4,5.4l-3.7,1.3c0,0,2.1,3,2.2,3.5c0.1,0.3-3.2,0.8-5.6,2.2
			C53,60.6,51.1,62,51.1,62s-0.4-0.5-0.1-1C51.2,60.5,57.8,54.6,57,46.9z"/>
		<path fill="#313243" d="M57,46.9c0,0,3,1.8,4.5,4.7l-3.3,1.8c0,0,1.8,2.5,1.9,3c0.1,0.3-2.7,1.2-5.1,2.6c-2.2,1.3-4,3-4,3
			s-0.4-0.5-0.1-1C51.2,60.5,57.8,54.6,57,46.9z"/>
		<path fill="#121219" d="M43.5,47.5c0,0-4.2,2.3-5.5,5.5l4.2,0.9c0,0-1.7,3.8-1.7,4.3c0,0.3,3.4-0.3,7,1.6c2,1,3.3,2.3,3.3,2.3
			s0.3-0.5,0-1C50.5,60.4,43.5,55.8,43.5,47.5z"/>
		<path fill="#313243" d="M43.5,47.5c0,0-3.3,1.5-4.6,4.7l3.9,1.5c0,0-1.7,3.2-1.7,3.7c0,0.3,2.9,0.2,6.5,2.1c2,1,3.2,2.5,3.2,2.5
			s0.3-0.5,0-1C50.5,60.4,43.5,55.8,43.5,47.5z"/>
		<path opacity="0.2" fill="#A19E99" d="M57.4,49.8c0,0-0.8,2.6-3.9,5.3l-3.2-2.7l-3,2.8c0,0-2.6-1.6-3.6-4.7
			c-1-3.2,7.9-2.9,10.1-1.7C56.1,49.9,57.4,49.8,57.4,49.8z"/>
		<path fill="#F5F5F5" d="M50.4,52.5l3,1.9c0,0,5.9-3,3.7-7.4c-2-3.9-12-3.6-13.7,0.7c-1.5,3.8,3.9,6.8,3.9,6.8L50.4,52.5z"/>
		<path fill="#EF9E6D" d="M45.7,49.5c0.6,0.6,1.5,1.1,2.5,1.4c0.7,0.2,1.9,1,2.1,1c0.1,0,0.5-0.4,1.2-0.7c1-0.5,2.3-1.2,2.9-2.2
			c0.8-1.5,1.5-4.5,0-5.7c-1.5-1.2-4.5-1.4-6.3-1c-1.9,0.4-3.2,2.2-3.3,4.1C44.7,47.9,44.9,48.7,45.7,49.5z"/>
		<g>
			<g>
				<path fill="#4F2C1E" d="M62.1,26.5c-0.1-4.7-0.8-6.4-0.7-8.3C61.7,10,54.7,4.7,43.3,6.6c-19.8,3.3-14.1,30.7-8.5,29
					c4.1-1.2,8.2-2.8,12.2-4.2c3.8-1.3,8.2-0.9,12.2-1C62.3,30.4,62.2,29.1,62.1,26.5z"/>
				<path fill="#F8B881" d="M35.2,35.2c1.6,7.3,8,15,16.6,13.6c8.7-1.4,12.2-12.6,10.3-21.6C60,17.4,54.6,9.5,44.5,12.4
					C37.3,14.5,33.1,25.5,35.2,35.2z"/>
				<path fill="#F8B881" d="M33.7,38.6c1,0.3,2,0.2,2.9,0.1c0,0,0-0.1,0-0.1c0.4-0.7-0.7-4.2-1-4.9c-0.7-1.8-1.7-3-3.4-2.4
					C28.8,32.6,30.7,37.8,33.7,38.6z"/>
				<path opacity="0.5" fill="#D99F7C" d="M61,23c-0.9-2.8-3.7-1.7-7.1-1.1c-5.5,1-11.8,1.7-16.2,0.2c0.3,2.8-1.8,4-2.5,6.8
					c-0.4,1.5-1-5.4-1-6.3c-0.1-2.4-0.2-5.6,1.5-7.5c2.2-2.3,6.5-2.5,9.5-2.7c4.4-0.3,8.3,0.3,12.5,1.5C60.5,14.9,61.2,20.5,61,23z"
					/>
				<path opacity="0.35" fill="#B5441A" d="M35,37.1c1.2-0.9-0.2-3.6-1.3-4c-0.8-0.3-2.8,0.5-1.7,2c0.4-1.5,1.4-0.6,1.3,0.4
					c0,0.7-0.8,0.8,0,1.6C33.8,37.7,34.6,37.4,35,37.1z"/>
				<path fill="#4F2C1E" d="M58.9,19.4c-11.2,3.4-20.6,2.5-21.9,1.5c0.4,2.3-0.4,3.6-0.8,5.4c-0.8,3.2,0,6.5,1.5,7.6
					c-0.7,0.2-1.6,0.3-2,0.2c-0.6-0.6-1.7-2.5-1.9-4.1c-0.2-1.9-7.1-16.8,7.1-22.5C51.3,3.3,59.6,10.9,64,6.7
					c0.2,2.5,0.3,5.9-1.2,7.8c1.1-0.3,1.8-0.5,2.8-0.6C64.5,15.9,62.5,18.3,58.9,19.4z"/>
				<path fill="#6A3B27" d="M63.5,7.7c0,0-1.8,9.2-14.6,10.5c-13.9,1.4-17.8-2-14.1-6.6C38.5,7,46.5,6.4,51.9,7.4
					C57.2,8.4,59.8,9.8,63.5,7.7z"/>
				<path fill="#4F2C1E" d="M35.9,28c0.1,1,0.6,4.5,1.7,5.8c-0.6,0.3-1.4,0.4-1.8,0.3c-1-0.5-1.4-3-2.6-3C32,31.2,35.3,29.6,35.9,28
					z"/>
			</g>
			<g>
				<path opacity="0.5" fill="#B5441A" d="M42.7,31.6c0.9-0.9-2.1-0.8-2.6-0.6c0.1,0.6,1.4,0.2,1.8,0.2c-0.3,0.4-1.4,0.5-1.8,0.8
					c-0.4,0.3-0.4,0.5,0.2,0.4C40.7,32.4,42.5,31.8,42.7,31.6z"/>
				<path opacity="0.5" fill="#B5441A" d="M58.9,29.6c-0.8-0.8,1.7-1.1,2.1-1c0,0.6-1.2,0.4-1.5,0.5c0.3,0.3,1.2,0.3,1.5,0.5
					c0.4,0.2,0.3,0.4-0.1,0.4C60.6,30.1,59.1,29.7,58.9,29.6z"/>
				<g>
					<path fill="#131C22" d="M44,31.9c-0.6-0.2-1.3-0.2-1.9,0c-1.4-1-0.5-4.4,1.5-3.8C45,28.6,45.2,31.2,44,31.9z"/>
				</g>
				<path opacity="0.35" fill="#B54817" d="M53.7,32.7c0.4,0.3-0.2,1.7-1.9,2c-1.7,0.2-2.7-1.1-2.1-1.5c0.6-0.4,1-0.1,2-0.2
					C52.8,32.8,53.3,32.3,53.7,32.7z"/>
				<path fill="#FBCBA0" d="M53.8,32.8c0.2-0.3-0.5-1.3-1.1-2.3c-0.5-0.9-1.1-3-2.1-2.8c-0.8,0.1-0.8,2.4-1,3.4
					c-0.2,1.1-0.3,2.1,0.2,2.4C51,34.1,53.2,33.5,53.8,32.8z"/>
				<g>
					<path fill="#131C22" d="M58.7,26.7c1.1,0.5,1.3,2.2,0.6,3.1c-0.6,0-1.2,0.2-1.6,0.6C55.6,30.1,56.7,25.8,58.7,26.7z"/>
				</g>
				<path fill="#7E8CA9" d="M43.1,28.7c0.7-0.3,1.2,0.7,0.7,1.2C43,30.4,42.3,29,43.1,28.7z"/>
				<path fill="#7E8CA9" d="M58.3,27.3c0.6-0.2,1,0.8,0.5,1.1C58.1,28.9,57.6,27.5,58.3,27.3z"/>
				<path opacity="0.5" fill="#B5441A" d="M41.4,36.9c0.7-0.5,2.5-0.5,2.5-0.5c0.3,0.1-0.8,0.2-1.5,0.7c-0.1,0-0.1,0.1-0.1,0.1
					c5.2,1.3,13.6,0.1,17.3-1.4c-0.1-0.1-0.2-0.2-0.3-0.2c-0.8-0.1-1.4-0.2-1.1-0.3c0,0,1.9-0.5,2.3,0.1c0.4,0.7-0.1,1.5-0.6,1.5
					c-0.4,0-0.1-0.6-0.2-1c-1,0.8-2.5,2.5-2.5,3.8c0,2.3-1.4,3.9-6.1,4.2c-6.2,0.3-8.5-5-9-6.4c-0.3,0.5-0.3,1.2-0.7,1.2
					C40.9,38.7,40.8,37.4,41.4,36.9z"/>
				<path fill="#4F2C1E" d="M60.4,25.8c0.5,0.2,0.6-0.5,0.4-0.7c-0.7-0.8-1.6-1.6-3.6-1.7c-1.4,0-2.5-0.2-2.5-0.1
					c0,0.8,0.3,2.4,1.4,2.4c0.6-0.1,1.3-0.2,1.9-0.2C59.2,25.4,60,25.7,60.4,25.8z"/>
				<path fill="#4F2C1E" d="M40.4,28c-0.5,0.3-0.8-0.3-0.7-0.6c0.5-0.9,1.1-2,3.2-2.7c1.5-0.4,2.5-0.9,2.5-0.9
					c0.3,0.8,0.5,2.4-0.7,2.7c-0.7,0.1-1.4,0.2-2.1,0.4C41.5,27.2,40.7,27.7,40.4,28z"/>
				<path fill="#902824" d="M43.3,38.1c0,0,6.6,1.4,15-1.4c0,0-1.3,0.8-1.5,2.6c-0.1,1.4-0.6,3.4-5.6,3.8
					C45.7,43.7,43.3,38.1,43.3,38.1z"/>
				<path fill="#FFF9F1" d="M45.2,38.6c0,0,0.2,1.8,1.9,2.4c2.3,0.8,4.7,0.7,7.2-0.2c1.7-0.6,2.5-3.4,2.5-3.4S52.1,38.7,45.2,38.6z"
					/>
				<path fill="#FFF9F1" d="M46.1,41.3c-0.2-0.5-0.2-1,0.7-0.7c1.1,0.4,3.2,0.6,5.6,0.4c2.4-0.2,2.9-1.2,3.3-0.7
					c0.5,0.5-1,3-4.9,2.9C46.5,43.2,46.1,41.3,46.1,41.3z"/>
				<path fill="#FBCBA0" d="M61.3,31.6c0.1,0.1,0.3,0.3,0.4,0.5c1,1.9-3.7,2.2-4.4,1.5c-1.4-1.4,0-2.1,1.2-2.4
					C59.3,31,60.6,30.9,61.3,31.6z"/>
				<path fill="#FBCBA0" d="M44.3,33.2c0.2,0.1,0.3,0.3,0.4,0.5c1.1,1.9-3.8,2.5-4.6,1.7c-1.5-1.4,0-2.2,1.1-2.5
					C42.2,32.6,43.5,32.5,44.3,33.2z"/>
				<path fill="#E8DAC5" d="M45.4,39.4c0,0,8.9-1.5,11-0.9c0,0,0.3-0.6,0.4-1.1c0,0-6.3,1.3-11.6,1.1C45.2,38.6,45.3,39.1,45.4,39.4
					z"/>
				<path fill="#E8DAC5" d="M47.3,40.6c0,0,3.3,0.9,7.9-0.4C55.2,40.2,51.2,42.2,47.3,40.6z"/>
			</g>
		</g>
	</g>
</g>
</svg>
