<?xml version="1.0" encoding="utf-8"?>
<!-- Generator: Adobe Illustrator 18.1.1, SVG Export Plug-In . SVG Version: 6.00 Build 0)  -->
<svg version="1.1" xmlns="http://www.w3.org/2000/svg" xmlns:xlink="http://www.w3.org/1999/xlink" x="0px" y="0px"
	 viewBox="0 0 100 100" enable-background="new 0 0 100 100" xml:space="preserve">
<g id="Capa_1">
</g>
<g id="Capa_2">
	<g>
		<g>
			<g>
				<rect x="24.5" y="63.8" fill="#502216" width="66.2" height="19.9"/>
				<rect x="83.3" y="64" fill="#502216" width="7.4" height="21.7"/>
				<rect x="24.5" y="64" fill="#502216" width="7.4" height="21.7"/>
				<polygon fill="#CFB6AB" points="90.7,64.7 24.5,64.7 24.5,65.9 90.7,66.6 				"/>
				<rect x="22.8" y="62.7" fill="#6F3D2D" width="69.5" height="2.5"/>
			</g>
			<g>
				
					<rect x="88.5" y="40.7" transform="matrix(0.9938 -0.1109 0.1109 0.9938 -4.2442 10.3799)" fill="#FFE655" width="5.3" height="5.3"/>
				
					<rect x="59.2" y="41.9" transform="matrix(0.9889 0.1484 -0.1484 0.9889 7.2979 -8.6791)" fill="#FFE655" width="5.3" height="5.3"/>
				
					<rect x="58.4" y="48.6" transform="matrix(0.9897 -0.1435 0.1435 0.9897 -6.7141 9.2944)" fill="#F298BA" width="5.3" height="5.3"/>
				<rect x="67.6" y="60.8" fill="#3B3B4A" width="15.3" height="1.8"/>
				<rect x="71.7" y="60.8" fill="#1D1D27" width="11.4" height="1.8"/>
				<path fill="#494958" d="M62.1,38.4c0-0.9,0.8-1.7,1.7-1.7H88c0.9,0,1.7,0.8,1.7,1.7v18c0,0.9-0.8,1.7-1.7,1.7H63.7
					c-0.9,0-1.7-0.8-1.7-1.7V38.4z"/>
				<path fill="#1D1D27" d="M63.5,38.4c0-0.9,0.8-1.7,1.7-1.7h24.3c0.9,0,1.7,0.8,1.7,1.7v18c0,0.9-0.8,1.7-1.7,1.7H65.2
					c-0.9,0-1.7-0.8-1.7-1.7V38.4z"/>
				<rect x="73.7" y="48.2" fill="#3B3B4A" width="7" height="13.6"/>
				<rect x="74.3" y="48.6" fill="#121219" width="7" height="13.2"/>
			</g>
			<g>
				<rect x="53.4" y="61.4" fill="#3B3B4A" width="19.5" height="1.3"/>
				<g>
					<path fill="#3B3B4A" d="M71.4,61.5h-1.5v-0.6h1.5V61.5z M69.6,61.5h-1.5v-0.6h1.5V61.5z M67.7,61.5h-1.5v-0.6h1.5V61.5z
						 M65.9,61.5h-1.5v-0.6h1.5V61.5z M64,61.5h-1.5v-0.6H64V61.5z M62.2,61.5h-1.5v-0.6h1.5V61.5z M60.3,61.5h-1.5v-0.6h1.5V61.5z
						 M58.5,61.5H57v-0.6h1.5V61.5z M56.6,61.5h-1.5v-0.6h1.5V61.5z"/>
				</g>
				<rect x="60.2" y="61.4" fill="#1D1D27" width="12.9" height="1.3"/>
			</g>
			<g>
				<rect x="59.7" y="13.6" fill="#CDA87B" width="16" height="20"/>
				<rect x="61.4" y="15.1" fill="#FCFBF6" width="12.5" height="17.1"/>
				<polygon fill="#D39D5A" points="72.5,28.3 62.9,28.3 63.5,29 62.9,29.7 72.5,29.7 71.8,29 				"/>
				<ellipse fill="#D39D5A" cx="67.7" cy="29" rx="1.2" ry="1.3"/>
				<rect x="63.5" y="17.3" fill="#D5D5D4" width="8.3" height="8.9"/>
				<polygon opacity="0.5" fill="#FFFFFF" points="74.7,14.5 60.7,14.5 60.7,24.3 74.7,21.6 				"/>
			</g>
			<g>
				<rect x="32" y="59.8" fill="#E9E8E8" width="27.6" height="2.3"/>
				<g>
					<path fill="#E9E8E8" d="M57,59.9h-1.5V59H57V59.9z M55,59.9h-1.5V59H55V59.9z M52.9,59.9h-1.5V59h1.5V59.9z M50.9,59.9h-1.5V59
						h1.5V59.9z M48.9,59.9h-1.5V59h1.5V59.9z"/>
				</g>
				<rect x="31.6" y="59.8" fill="#CFCFCF" width="18.2" height="2.3"/>
				<path fill="#E9E8E8" d="M45.9,47.2c-0.3-1.1-1.5-1.9-2.6-1.9h-15c-1.1,0-1.8,0.9-1.4,1.9l3.5,11.2c0.3,1.1,1.5,1.9,2.6,1.9h15
					c1.1,0,1.8-0.9,1.4-1.9L45.9,47.2z"/>
				<path fill="#CFCFCF" d="M44.7,47.2c-0.3-1.1-1.5-1.9-2.6-1.9h-15c-1.1,0-1.8,0.9-1.4,1.9l3.5,11.2c0.3,1.1,1.5,1.9,2.6,1.9h15
					c1.1,0,1.8-0.9,1.4-1.9L44.7,47.2z"/>
			</g>
			<g>
				<polygon fill="#1D0D08" points="66.6,59 52.8,59 51.3,62.7 65,62.7 				"/>
				<polygon fill="#97611F" points="66.6,59 52.8,59 54.7,62.7 68.4,62.7 				"/>
				<polygon fill="#EDBD82" points="54.2,60.8 53.5,59.4 66.3,59.4 67,60.7 				"/>
				<polygon fill="#4E2A14" points="54.9,62.1 54.2,60.8 67,60.8 67.7,62.1 				"/>
			</g>
		</g>
		<g>
			<defs>
				<filter id="Adobe_OpacityMaskFilter" filterUnits="userSpaceOnUse" x="7.6" y="83.2" width="24.9" height="3.2">
					<feColorMatrix  type="matrix" values="1 0 0 0 0  0 1 0 0 0  0 0 1 0 0  0 0 0 1 0"/>
				</filter>
			</defs>
			<mask maskUnits="userSpaceOnUse" x="7.6" y="83.2" width="24.9" height="3.2" id="SVGID_1_">
				<g filter="url(#Adobe_OpacityMaskFilter)">
					<defs>
						<filter id="Adobe_OpacityMaskFilter_1_" filterUnits="userSpaceOnUse" x="6.8" y="82.9" width="26.5" height="4">
							<feFlood  style="flood-color:white;flood-opacity:1" result="back"/>
							<feBlend  in="SourceGraphic" in2="back" mode="normal"/>
						</filter>
					</defs>
					<mask maskUnits="userSpaceOnUse" x="6.8" y="82.9" width="26.5" height="4" id="SVGID_1_">
						<g filter="url(#Adobe_OpacityMaskFilter_1_)">
						</g>
					</mask>
					
						<radialGradient id="SVGID_2_" cx="-3467.4836" cy="62445.4492" r="9.9401" gradientTransform="matrix(-1.2017 0 0 0.1624 -4146.8618 -10056.3096)" gradientUnits="userSpaceOnUse">
						<stop  offset="0" style="stop-color:#FFFFFF"/>
						<stop  offset="7.362918e-002" style="stop-color:#E1E1E1"/>
						<stop  offset="0.2544" style="stop-color:#9E9E9E"/>
						<stop  offset="0.4259" style="stop-color:#666666"/>
						<stop  offset="0.5834" style="stop-color:#3A3A3A"/>
						<stop  offset="0.724" style="stop-color:#1B1B1B"/>
						<stop  offset="0.8425" style="stop-color:#080808"/>
						<stop  offset="0.9247" style="stop-color:#010101"/>
					</radialGradient>
					<path mask="url(#SVGID_1_)" fill="url(#SVGID_2_)" d="M6.8,84.8c0,1.1,5.9,2,13.2,2c7.3,0,13.2-0.9,13.2-2c0-1.1-5.9-2-13.2-2
						C12.7,82.9,6.8,83.7,6.8,84.8z"/>
				</g>
			</mask>
			
				<radialGradient id="SVGID_3_" cx="-3595.3359" cy="62553.082" r="10.5043" gradientTransform="matrix(-1.1502 0 0 0.1329 -4115.3428 -8228.4746)" gradientUnits="userSpaceOnUse">
				<stop  offset="0" style="stop-color:#010101"/>
				<stop  offset="0.9247" style="stop-color:#010101"/>
			</radialGradient>
			<path opacity="0.2" fill="url(#SVGID_3_)" d="M7.6,84.8c0,0.9,5.6,1.6,12.5,1.6c6.9,0,12.5-0.7,12.5-1.6c0-0.9-5.6-1.6-12.5-1.6
				C13.1,83.2,7.6,83.9,7.6,84.8z"/>
			<path fill="#F8B881" d="M36.1,57.1c-0.8-0.4-1.9,0-2.3,1c-0.9,2.3-2,2-2,3.3c0,0.4,0.3,0.9,0,1.3c-0.2,0.3-0.3,0.7-0.3,1.1
				c0.1,0.4,0.5,0.6,0.9,0.6c0.4,0,0.7-0.1,0.9-0.4c0.3-0.5,0.9-0.7,1.3-0.9c0.4-0.2,0.7-0.5,1-0.9c0.6-0.8,1.1-1.7,1.2-2.7
				c0.1-0.4,0.1-0.9,0-1.3C36.7,57.6,36.4,57.2,36.1,57.1z"/>
			<g>
				<g>
					<path fill="#75B955" d="M37.7,62.6c1.6-0.7,3.1-2,3.8-2.7c0.4-0.4,0.2-0.5-0.1-1l0,0c-1.8-3.3-3.7-8.3-3.7-8.3
						c-1,1.2-7.6,3.8-7.6,3.8c3.6,5.2,4.5,9.5,4.5,9.5C35.7,63.3,36.7,62.9,37.7,62.6z"/>
				</g>
				<path fill="#347430" d="M41.6,59.6c-0.1,0.1-0.4,0.1-1-0.4c0,0-0.6,2.1-3,3.4C39.2,61.8,41.2,60.6,41.6,59.6z"/>
				<g opacity="0.3">
					<path fill="#347430" d="M33.2,56.1c0.3,0.7,0.7,1.7,1.2,2.7c0,0-0.4,0.2-0.4,0.2c0,0,0,0,0,0c-0.2-0.4-0.4-0.9-0.6-1.3
						c-0.3-0.5-0.5-1-0.6-1.5C32.8,56.2,33.1,56.1,33.2,56.1z"/>
					<path fill="#347430" d="M35.1,60.1c0.3,0.5,0.5,0.9,0.8,1.4c0,0-0.1,0.1-0.2,0.2c-0.1,0-0.2,0-0.2-0.1
						c-0.3-0.4-0.6-0.8-0.8-1.3C34.8,60.3,35.1,60.1,35.1,60.1z"/>
					<path fill="#347430" d="M34.8,59.6c-0.1,0-0.4,0.2-0.4,0.2c-0.1-0.1-0.1-0.3-0.2-0.4c0.1,0,0.4-0.2,0.4-0.2
						C34.7,59.4,34.8,59.5,34.8,59.6z"/>
					<path fill="#347430" d="M32.6,54.9C32.7,54.9,32.7,54.9,32.6,54.9c0.1,0.2,0.2,0.4,0.3,0.7c-0.1,0-0.4,0.2-0.4,0.2
						c-0.1-0.3-0.2-0.6-0.3-0.7c0,0,0-0.1,0.1-0.1c0,0,0,0,0.1-0.1C32.5,54.9,32.6,54.8,32.6,54.9z"/>
				</g>
				<g opacity="0.3">
					<path fill="#347430" d="M37.3,53.6c0.3,0.7,0.7,1.7,1.2,2.7c0,0-0.4,0.2-0.4,0.2c0,0,0,0,0,0c-0.2-0.4-0.4-0.9-0.6-1.3
						c-0.3-0.5-0.5-1-0.6-1.5C37,53.8,37.3,53.6,37.3,53.6z"/>
					<path fill="#347430" d="M39.2,57.7c0.3,0.5,0.5,0.9,0.8,1.4c0,0-0.1,0.1-0.2,0.2c-0.1,0-0.2,0-0.2-0.1
						c-0.3-0.4-0.6-0.8-0.8-1.3C39,57.9,39.2,57.7,39.2,57.7z"/>
					<path fill="#347430" d="M39,57.2c-0.1,0-0.4,0.2-0.4,0.2c-0.1-0.1-0.1-0.3-0.2-0.4c0.1,0,0.4-0.2,0.4-0.2
						C38.8,57,38.9,57.1,39,57.2z"/>
					<path fill="#347430" d="M36.8,52.4C36.8,52.5,36.8,52.5,36.8,52.4c0.1,0.2,0.2,0.4,0.3,0.7c-0.1,0-0.4,0.2-0.4,0.2
						c-0.1-0.3-0.2-0.6-0.3-0.7c0,0,0-0.1,0.1-0.1c0,0,0,0,0.1-0.1C36.6,52.4,36.7,52.4,36.8,52.4z"/>
				</g>
				<path opacity="0.3" fill="#347430" d="M31.2,54c0,0,1.8,4.7,4.2,8.6c0,0,0,0.1,0,0.1c0,0-0.1,0-0.1,0c-1-1.7-1.9-3.5-2.6-5
					c-1-2.1-1.6-3.6-1.6-3.7C31,54.1,31.1,54,31.2,54C31.1,54,31.2,54,31.2,54z"/>
				<path opacity="0.3" fill="#347430" d="M37.5,51.6c0,0,1.6,4.2,3.8,7.8c0,0,0,0.1,0,0.1c0,0-0.1,0-0.1,0
					c-0.9-1.5-1.7-3.1-2.3-4.5c-0.9-1.9-1.4-3.3-1.4-3.3C37.3,51.6,37.3,51.6,37.5,51.6C37.4,51.5,37.5,51.5,37.5,51.6z"/>
				<path opacity="0.47" fill="#347430" d="M35.2,59.5c0,0.1,0.2,0.5,0.3,0.6c0,0.1,0,0.2,0,0.2c0,0.1,0.1,0.1,0.2,0.1
					c0.1,0,0.1,0,0.1,0.1c0,0.1,0,0.1,0,0.2c0,0,0,0.1,0,0c0,0,0-0.1,0-0.1c0,0,0,0,0,0.1c0,0.1,0,0.3,0,0.4c0,0,0,0.1,0,0
					c0-0.1,0-0.3,0-0.4c0,0,0,0,0,0c0.1-0.2,0.3,0,0.3,0.2c0,0,0,0,0,0.1c0,0,0,0,0,0c-0.1,0.2-0.2,0.3-0.2,0.5c0,0,0,0.1,0,0
					c0.1-0.1,0.1-0.2,0.2-0.3c0,0.1,0,0.2,0,0.2c0,0.1,0,0.2-0.1,0.3c0,0.1,0,0.5,0.1,0.5c0.1,0,0.2-0.1,0.3-0.3c0,0,0,0,0,0
					c0,0,0,0,0,0c0,0,0,0,0,0c0,0,0,0,0,0c0.1-0.3,0.2-0.5,0.3-0.8c0.1-0.2,0.1-0.4,0.1-0.6c0-0.1,0-0.4-0.2-0.2
					c-0.2,0.2-0.3,0.5-0.3,0.8c-0.1,0.3-0.1,0.6,0,0.8c-0.1,0.1-0.1,0.2-0.2,0.2c-0.2,0.1-0.2-0.3-0.1-0.6c0,0,0,0,0,0
					c0.1-0.1,0.1-0.3,0.1-0.5c0,0,0,0,0,0c-0.1,0.1-0.1,0.1-0.1,0.2c0-0.1,0-0.2,0-0.3c0-0.2,0-0.4-0.1-0.5c-0.1-0.1-0.2-0.2-0.3,0
					c0,0,0-0.1-0.1-0.1c0,0,0,0,0,0c0,0,0,0.1,0,0.1c0-0.1,0-0.1,0-0.2c0,0,0,0,0,0c-0.1,0-0.3,0-0.2-0.2c0,0,0,0,0-0.1
					c0,0,0.1,0,0.1-0.1c0,0,0-0.1,0-0.1c0,0-0.1,0-0.1,0.1C35.4,60,35.3,59.5,35.2,59.5C35.2,59.4,35.2,59.4,35.2,59.5z M36.7,61.9
					c-0.1-0.3,0-0.6,0-0.8c0-0.2,0.1-0.4,0.2-0.6c0,0,0.1-0.1,0.1-0.1c0.1,0,0.1,0.1,0.1,0.2c0,0.1,0,0.1,0,0.2
					c0,0.2-0.1,0.3-0.2,0.5C36.9,61.4,36.9,61.6,36.7,61.9C36.8,61.8,36.7,61.9,36.7,61.9z M36.4,61.5
					C36.4,61.5,36.4,61.5,36.4,61.5c0-0.1,0.1-0.2,0.1-0.3C36.5,61.4,36.5,61.5,36.4,61.5z M36.2,61.4c0-0.1,0.1-0.3,0.2-0.4
					c0,0,0,0,0,0C36.3,61.1,36.3,61.3,36.2,61.4z M35.9,60.7C35.9,60.8,35.9,60.8,35.9,60.7c0,0.1,0,0.1,0,0.2
					C35.9,60.9,35.9,60.8,35.9,60.7z"/>
				<path opacity="0.47" fill="#347430" d="M35.2,58.9h1.4c0.6,0,1.1-0.5,1.1-1.1v-1.4c0-0.6-0.5-1.1-1.1-1.1h-1.4
					c-0.6,0-1.1,0.5-1.1,1.1v1.4C34.1,58.4,34.6,58.9,35.2,58.9z"/>
				<g>
					<path fill="#75B955" d="M33.7,56.9l1.1,2.1c0.1,0.2,0.8-0.6,0.8-0.6c0,0,0-0.1,0-0.2l0-0.4l0-0.2l0.1-0.1c0,0,0.1,0.1,0.4,0
						c0,0.1,0.1,0.1,0.1,0c0.1,0,0.2-0.1,0.2-0.1l0,0c0.2-0.1,0.3-0.1,0.5-0.3c0.1-0.2,0-0.5-0.2-0.7c0-0.1-0.1-0.1-0.2-0.1
						c0,0-0.2-0.1-0.5,0.1l-0.1,0.1c0-0.1-0.2,0-0.2,0.1c0,0-0.1,0.1-0.1,0.1c-0.2,0.1-0.3,0.3-0.3,0.3l-0.2,0.1l-0.2-0.1l-0.3-0.2
						c-0.1,0-0.1-0.1-0.2-0.1C34.7,56.6,33.6,56.7,33.7,56.9z M35.3,57.4l0.1-0.3c0.1,0,0.1-0.1,0.2-0.1c0,0.1,0,0.2,0,0.3
						c0.1,0.1,0.1,0.1,0.2,0.2c0,0-0.1,0.1-0.1,0.1L35.3,57.4L34.6,58l0,0l-0.2,0c0,0,0,0,0,0s0,0,0,0l0.1-0.2l0,0L35.3,57.4z"/>
				</g>
			</g>
			<path fill="#F8B881" d="M33.4,58.5c0.6,0.7,0.4,2.2-0.2,2.9c-0.3,0.4-0.8,0.6-1.2,0.2c-0.4-0.6,0.2-1.4,0.2-2
				c0-0.4-0.4-1.2-0.1-1.5C32.4,57.6,33.1,58.2,33.4,58.5z"/>
			<path fill="#1E1E29" d="M24.4,60.1c0.2,1.8,0.3,3.6,1.2,5.2c1.3,2.1,6,3.4,8.5-1.4c-0.7-0.9-1.7-1.4-2.6-2.1c0,0-0.9,3.2-2.7,1.2
				c-0.6-0.7-0.4-1.9-0.5-2.8c0-0.5,0-1,0-1.4c0-0.6-0.2-1.4-0.8-1.7c-0.9-0.5-2.7-1.5-2.7-1.5L24.4,60.1z"/>
			<path fill="#E9E8E8" d="M15,55.9c-1.9,1.6-2.4,3.5,0.4,6.2c2.8,2.8,4.8,3.1,4.8,3.1s6.2-5.9,5.1-8.6C23.9,53.4,16.8,54.3,15,55.9
				z"/>
			<path fill="#E62A2A" d="M19.6,58.2C21,58,21.5,59,21.5,59l-0.6,1.3l1.4,3.8l-1.7,3.8l-2.4-3.6l1.1-3.7l-1-1
				C18.2,59.5,18.4,58.4,19.6,58.2z"/>
			<path fill="#0D0F12" d="M16,80.6c2.5-0.7,2.8,3,1.2,4.7c-1.7,1.7-4.1,1.1-3.3-1.5C14.3,82.5,14.7,81,16,80.6z"/>
			<path fill="#0D0F12" d="M23.6,80.6c-2.5-0.4-2.5,3.3-0.7,4.8c1.8,1.6,4.2,0.7,3.2-1.8C25.6,82.3,25,80.8,23.6,80.6z"/>
			<path fill="#252728" d="M25.7,83.6c-0.1-0.2-0.2-0.3-0.3-0.4c-0.3,0.4-1.3,0.3-1.7,0.4c-0.5,0-1.1,0.1-0.5,0.7
				c0.5,0.4,1.2,0.8,1.9,0.7C25.8,84.8,26,84.1,25.7,83.6z"/>
			<path fill="#1D1D27" d="M14.3,67.8c-0.1,1.8-0.1,3.6-0.2,5.4c-0.1,2.7,0.4,6.3-0.5,8.9c0.4,0.2,0.8,0.4,1.2,0.5
				c1.5,0.6,3.1,0,4.7-0.3c-0.5-4.6,0.6-9.3,0.7-14C20.1,67.2,14.3,66.2,14.3,67.8z"/>
			<path fill="#1D1D27" d="M19.9,69.1c0.4,2.4,0.2,5,0.2,7.4c0,1.7-0.1,4-0.2,5.7c0.5,0.2,2.2,0.5,2.6,0.5c1.2,0,2.7-0.4,3.4-0.8
				c-0.5-1.8-0.9-5.1-1.1-7.8c-0.1-2,0.5-4.6-0.1-6.5C24.4,66.2,19.6,66.7,19.9,69.1z"/>
			<path fill="#121219" d="M14.1,72.6v1.9c0,0,2.2-0.3,5.5,0.5c0,0,0.1-0.4,0.1-0.6c0-0.2,0.5-0.2,0.5,0.1c0,0.3,0,0.5,0,0.5
				s1.7-1.4,4.8-0.6l0-1.9L19.9,71L14.1,72.6z"/>
			<g>
				<path fill="#1E1E29" d="M26.7,63.8c0.5-2.6,1.8-4.9-0.2-7c-0.4-0.4-1-0.8-1.6-1.1c0.1,0.2,0.1,0.4,0.1,0.6
					c-0.4,4.1-4.8,8.3-4.8,8.3s-6.5-5.6-5.4-8.4c0.1-0.2,0.2-0.4,0.3-0.6c-1.5,0.6-2.9,1.6-3.3,3c-0.4,1.6,0.7,4.9,0.9,7.1
					c0.2,1.4,0.3,5.6-0.1,7c1,0.4,5.3,1.2,6.3,0.6c0.8-0.5,1.3-1.4,1.3-1.7c0,2.6,6.3,1.5,6.3,1.3C26.4,71.4,26.3,66.2,26.7,63.8z"
					/>
			</g>
			<path fill="#121219" d="M20.4,65.6c0,0-0.4,1.2,0.1,3.2C20.5,68.8,20.4,67.2,20.4,65.6z"/>
			<path fill="#F8B881" d="M10.8,68.3c0.3,0.2,0,1,0.6,1.5c0.6,0.5-0.6,0-0.8,0.6c-0.2,0.6,2.4,1.7,2.9-0.3c0.5-2-0.8-2.9-3-3
				C8.5,67.1,10.8,68.3,10.8,68.3z"/>
			<path fill="#1E1E29" d="M14.9,55.7c0,0-3.1,1.6-3.7,1.9c-2.2,1.1-5.4,3.1-5.3,6.4c0,4.2,4.6,5.9,4.6,5.9l1.3-2.7
				c0,0-2.6-0.6-2.4-3.3c0.1-2,4.3-3.1,4.3-3.1L14.9,55.7z"/>
			<circle fill="#121219" cx="19.9" cy="69.1" r="0.4"/>
			<circle fill="#121219" cx="19.8" cy="65.3" r="0.4"/>
			<path fill="#252728" d="M14.2,83.8c0.1-0.2,0.2-0.3,0.3-0.5c0.3,0.3,1.3,0.2,1.7,0.2c0.5,0,1.1,0,0.6,0.6
				c-0.4,0.5-1.2,0.9-1.8,0.9C14.3,85.1,14,84.4,14.2,83.8z"/>
			<path fill="#121219" d="M20.5,71.7l0.1-2.2c0,0-0.1,2.6,0.3,3.3C20.9,72.7,20.6,72.7,20.5,71.7z"/>
			<path fill="#121219" d="M24.4,55.1c0,0,2.6,1.6,3.6,3.6l-2.5,0.9c0,0,1.4,2,1.5,2.4c0,0.2-2.2,0.6-3.7,1.5
				c-1.5,0.8-2.8,1.8-2.8,1.8s-0.3-0.3-0.1-0.7C20.5,64.2,25,60.2,24.4,55.1z"/>
			<path fill="#313243" d="M24.4,55.1c0,0,2,1.2,3,3.2l-2.2,1.2c0,0,1.2,1.7,1.2,2c0,0.2-1.8,0.8-3.4,1.8c-1.5,0.8-2.7,2-2.7,2
				s-0.3-0.3-0.1-0.7C20.5,64.2,25,60.2,24.4,55.1z"/>
			<path fill="#121219" d="M15.4,55.5c0,0-2.8,1.5-3.6,3.6l2.8,0.6c0,0-1.1,2.5-1.2,2.9c0,0.2,2.3-0.2,4.7,1.1
				c1.3,0.7,2.2,1.5,2.2,1.5s0.2-0.3,0-0.7C20.1,64.1,15.4,61,15.4,55.5z"/>
			<path fill="#313243" d="M15.4,55.5c0,0-2.2,1-3,3.2l2.6,1c0,0-1.1,2.1-1.2,2.5c0,0.2,1.9,0.1,4.4,1.4c1.3,0.7,2.1,1.7,2.1,1.7
				s0.2-0.3,0-0.7C20.1,64.1,15.4,61,15.4,55.5z"/>
			<path opacity="0.2" fill="#A19E99" d="M24.7,57.1c0,0-0.6,1.8-2.6,3.5L20,58.8l-2,1.9c0,0-1.7-1.1-2.4-3.2
				c-0.7-2.1,5.3-1.9,6.7-1.2C23.8,57.1,24.7,57.1,24.7,57.1z"/>
			<path fill="#F5F5F5" d="M20,58.8l2,1.2c0,0,3.9-2,2.4-5c-1.3-2.6-8-2.4-9.2,0.5c-1,2.5,2.6,4.6,2.6,4.6L20,58.8z"/>
			<path fill="#EF9E6D" d="M16.8,56.9c0.4,0.4,1,0.8,1.7,1c0.5,0.1,1.3,0.7,1.4,0.7c0.1,0,0.3-0.2,0.8-0.5c0.6-0.3,1.6-0.8,1.9-1.5
				c0.5-1,1-3,0-3.8c-1-0.8-3-1-4.2-0.7c-1.3,0.3-2.1,1.5-2.2,2.7C16.1,55.8,16.3,56.3,16.8,56.9z"/>
			<g>
				<g>
					<path fill="#4F2C1E" d="M27.8,41.4c-0.1-3.2-0.6-4.3-0.6-5.6c0.1-5.5-4.7-8.9-12.2-7.5C1.7,30.8,5.9,49,9.6,47.8
						c2.7-0.9,5.4-2,8.1-3c2.5-0.9,5.4-0.7,8.1-0.8C28,44,27.9,43.1,27.8,41.4z"/>
					<path fill="#F8B881" d="M9.9,47.6c1.2,4.9,5.6,9.9,11.3,8.9c5.8-1,8-8.6,6.6-14.6c-1.5-6.5-5.2-11.7-11.9-9.6
						C11,33.7,8.3,41.1,9.9,47.6z"/>
					<path fill="#F8B881" d="M9,49.8c0.7,0.2,1.3,0.1,2,0c0,0,0,0,0-0.1c0.2-0.5-0.5-2.8-0.7-3.2c-0.5-1.2-1.2-2-2.3-1.5
						C5.6,45.9,6.9,49.3,9,49.8z"/>
					<path opacity="0.5" fill="#D99F7C" d="M27,39.1c-0.7-1.9-2.5-1.1-4.8-0.6c-3.7,0.8-7.9,1.3-10.8,0.4c0.2,1.9-1.1,2.7-1.6,4.6
						c-0.2,1-0.7-3.6-0.8-4.2c-0.1-1.6-0.2-3.7,0.9-5c1.4-1.6,4.3-1.8,6.3-2c2.9-0.3,5.6,0.1,8.4,0.9C26.5,33.7,27.1,37.4,27,39.1z"
						/>
					<path opacity="0.35" fill="#B5441A" d="M9.8,48.9c0.8-0.6-0.2-2.4-0.9-2.7C8.3,46,7,46.6,7.8,47.6c0.2-1,0.9-0.4,0.9,0.3
						c0,0.5-0.5,0.5,0,1.1C9,49.3,9.6,49.1,9.8,48.9z"/>
					<path fill="#4F2C1E" d="M25.5,36.7c-7.5,2.4-13.7,2-14.7,1.3c0.3,1.5-0.2,2.4-0.5,3.6c-0.5,2.2,0.1,4.3,1.1,5.1
						c-0.5,0.2-1,0.2-1.3,0.1c-0.4-0.4-1.1-1.7-1.3-2.7c-0.2-1.2-5-11.1,4.5-15.1c6.9-2.9,12.6,2.1,15.4-0.8c0.2,1.7,0.3,4-0.7,5.3
						c0.8-0.2,1.2-0.3,1.8-0.4C29.3,34.2,28,35.9,25.5,36.7z"/>
					<path fill="#6A3B27" d="M28.4,28.8c0,0-1.1,6.2-9.6,7.2C9.5,37.2,6.9,35,9.3,31.8c2.4-3.2,7.8-3.6,11.4-3
						C24.3,29.4,26,30.3,28.4,28.8z"/>
					<path fill="#4F2C1E" d="M10.2,42.8c0.1,0.7,0.5,3,1.2,3.9c-0.4,0.2-1,0.3-1.2,0.2c-0.7-0.4-0.9-2-1.8-1.9
						C7.7,44.9,9.9,43.8,10.2,42.8z"/>
				</g>
				<g>
					<path opacity="0.5" fill="#B5441A" d="M14.9,45.1c0.6-0.6-1.4-0.5-1.7-0.4c0.1,0.4,1,0.1,1.2,0.1c-0.2,0.3-0.9,0.3-1.2,0.5
						c-0.3,0.2-0.2,0.3,0.1,0.3C13.5,45.6,14.7,45.2,14.9,45.1z"/>
					<path opacity="0.5" fill="#B5441A" d="M25.6,43.5c-0.6-0.5,1.1-0.7,1.4-0.7c0,0.4-0.8,0.3-1,0.4c0.2,0.2,0.8,0.2,1,0.3
						c0.3,0.2,0.2,0.3-0.1,0.3C26.8,43.8,25.8,43.6,25.6,43.5z"/>
					<g>
						<path fill="#131C22" d="M15.7,45.3c-0.4-0.1-0.9-0.1-1.3,0c-0.9-0.6-0.4-3,0.9-2.6C16.4,43,16.5,44.7,15.7,45.3z"/>
					</g>
					<path opacity="0.35" fill="#B54817" d="M22.3,45.6c0.3,0.2-0.1,1.1-1.2,1.3c-1.1,0.2-1.8-0.7-1.4-1c0.4-0.3,0.7-0.1,1.3-0.2
						C21.6,45.8,21.9,45.4,22.3,45.6z"/>
					<path fill="#FBCBA0" d="M22.3,45.7c0.2-0.2-0.3-0.9-0.7-1.5c-0.4-0.6-0.8-2-1.4-1.9c-0.5,0.1-0.5,1.6-0.6,2.3
						c-0.1,0.7-0.2,1.4,0.1,1.6C20.5,46.6,21.9,46.2,22.3,45.7z"/>
					<g>
						<path fill="#131C22" d="M25.5,41.6c0.7,0.3,0.9,1.4,0.5,2.1c-0.4,0-0.8,0.2-1.1,0.4C23.5,43.9,24.2,41,25.5,41.6z"/>
					</g>
					<path fill="#7E8CA9" d="M15.1,43.1c0.4-0.2,0.8,0.5,0.5,0.8C15.1,44.3,14.6,43.3,15.1,43.1z"/>
					<path fill="#7E8CA9" d="M25.2,41.9c0.4-0.2,0.7,0.5,0.4,0.7C25.2,43,24.8,42.1,25.2,41.9z"/>
					<path opacity="0.5" fill="#B5441A" d="M14.1,48.6c0.5-0.3,1.7-0.4,1.7-0.4c0.2,0.1-0.5,0.2-1,0.5c0,0-0.1,0.1-0.1,0.1
						c3.5,0.8,9.1-0.1,11.5-1.2c0-0.1-0.1-0.1-0.2-0.1c-0.5-0.1-1-0.1-0.7-0.2c0,0,1.3-0.4,1.6,0.1c0.3,0.4,0,1-0.4,1
						c-0.2,0-0.1-0.4-0.2-0.7c-0.6,0.6-1.6,1.7-1.6,2.6c0,1.5-0.9,2.6-4,2.9c-4.2,0.3-5.7-3.3-6.1-4.2c-0.2,0.4-0.2,0.8-0.5,0.8
						C13.8,49.8,13.7,48.9,14.1,48.6z"/>
					<path fill="#4F2C1E" d="M26.6,41c0.3,0.1,0.4-0.4,0.3-0.5c-0.5-0.5-1.1-1.1-2.4-1.1c-0.9,0-1.7-0.1-1.7-0.1
						c0,0.5,0.2,1.6,0.9,1.6c0.4,0,0.9-0.2,1.3-0.2C25.8,40.7,26.4,40.9,26.6,41z"/>
					<path fill="#4F2C1E" d="M13.3,42.7c-0.3,0.2-0.5-0.2-0.5-0.4c0.3-0.6,0.7-1.4,2.1-1.8c1-0.3,1.7-0.6,1.7-0.6
						c0.2,0.5,0.4,1.6-0.4,1.8c-0.5,0.1-1,0.1-1.4,0.3C14,42.1,13.5,42.5,13.3,42.7z"/>
					<path fill="#902824" d="M15.4,49.4c0,0,4.5,0.9,10-1.2c0,0-0.9,0.6-1,1.8c-0.1,0.9-0.4,2.2-3.7,2.6
						C17.1,53.1,15.4,49.4,15.4,49.4z"/>
					<path fill="#FFF9F1" d="M16.6,49.7c0,0,0.1,1.2,1.3,1.6c1.5,0.5,3.2,0.4,4.8-0.2c1.1-0.4,1.6-2.3,1.6-2.3S21.3,49.7,16.6,49.7z
						"/>
					<path fill="#FFF9F1" d="M17.3,51.5c-0.1-0.3-0.2-0.7,0.5-0.5c0.8,0.2,2.2,0.3,3.7,0.2c1.6-0.2,1.9-0.8,2.2-0.5
						c0.3,0.3-0.7,2-3.2,2C17.6,52.8,17.3,51.5,17.3,51.5z"/>
					<path fill="#FBCBA0" d="M27.3,44.8c0.1,0.1,0.2,0.2,0.2,0.3c0.7,1.2-2.4,1.5-2.9,1c-0.9-0.9,0-1.4,0.8-1.6
						C26,44.5,26.8,44.4,27.3,44.8z"/>
					<path fill="#FBCBA0" d="M16,46.1c0.1,0.1,0.2,0.2,0.3,0.3c0.7,1.3-2.5,1.7-3,1.2c-1-0.9,0-1.5,0.7-1.7
						C14.6,45.8,15.4,45.6,16,46.1z"/>
					<path fill="#E8DAC5" d="M16.8,50.2c0,0,6-1.1,7.3-0.7c0,0,0.2-0.4,0.2-0.7c0,0-4.2,1-7.7,0.9C16.6,49.7,16.7,50.1,16.8,50.2z"
						/>
					<path fill="#E8DAC5" d="M18.1,51c0,0,2.2,0.5,5.3-0.4C23.3,50.7,20.7,52,18.1,51z"/>
				</g>
			</g>
		</g>
	</g>
</g>
</svg>
