<?xml version="1.0" encoding="utf-8"?>
<!-- Generator: Adobe Illustrator 18.1.1, SVG Export Plug-In . SVG Version: 6.00 Build 0)  -->
<svg version="1.1" xmlns="http://www.w3.org/2000/svg" xmlns:xlink="http://www.w3.org/1999/xlink" x="0px" y="0px"
	 viewBox="0 0 100 100" enable-background="new 0 0 100 100" xml:space="preserve">
<g id="Capa_1">
</g>
<g id="Capa_2">
	<g>
		<defs>
			<filter id="Adobe_OpacityMaskFilter" filterUnits="userSpaceOnUse" x="30.3" y="91" width="39" height="5">
				<feColorMatrix  type="matrix" values="1 0 0 0 0  0 1 0 0 0  0 0 1 0 0  0 0 0 1 0"/>
			</filter>
		</defs>
		<mask maskUnits="userSpaceOnUse" x="30.3" y="91" width="39" height="5" id="SVGID_1_">
			<g filter="url(#Adobe_OpacityMaskFilter)">
				<defs>
					<filter id="Adobe_OpacityMaskFilter_1_" filterUnits="userSpaceOnUse" x="29.1" y="90.4" width="41.5" height="6.2">
						<feFlood  style="flood-color:white;flood-opacity:1" result="back"/>
						<feBlend  in="SourceGraphic" in2="back" mode="normal"/>
					</filter>
				</defs>
				<mask maskUnits="userSpaceOnUse" x="29.1" y="90.4" width="41.5" height="6.2" id="SVGID_1_">
					<g filter="url(#Adobe_OpacityMaskFilter_1_)">
					</g>
				</mask>
				
					<radialGradient id="SVGID_2_" cx="-3269.342" cy="62498.543" r="15.5739" gradientTransform="matrix(1.2017 0 0 0.1624 3978.571 -10056.3096)" gradientUnits="userSpaceOnUse">
					<stop  offset="0" style="stop-color:#FFFFFF"/>
					<stop  offset="7.362918e-002" style="stop-color:#E1E1E1"/>
					<stop  offset="0.2544" style="stop-color:#9E9E9E"/>
					<stop  offset="0.4259" style="stop-color:#666666"/>
					<stop  offset="0.5834" style="stop-color:#3A3A3A"/>
					<stop  offset="0.724" style="stop-color:#1B1B1B"/>
					<stop  offset="0.8425" style="stop-color:#080808"/>
					<stop  offset="0.9247" style="stop-color:#010101"/>
				</radialGradient>
				<path mask="url(#SVGID_1_)" fill="url(#SVGID_2_)" d="M70.5,93.5c0,1.7-9.3,3.1-20.7,3.1c-11.5,0-20.7-1.4-20.7-3.1
					c0-1.7,9.3-3.1,20.7-3.1C61.3,90.4,70.5,91.7,70.5,93.5z"/>
			</g>
		</mask>
		
			<radialGradient id="SVGID_3_" cx="-3388.3225" cy="62617.9531" r="16.458" gradientTransform="matrix(1.1502 0 0 0.1329 3947.0515 -8228.4746)" gradientUnits="userSpaceOnUse">
			<stop  offset="0" style="stop-color:#010101"/>
			<stop  offset="0.9247" style="stop-color:#010101"/>
		</radialGradient>
		<path opacity="0.2" fill="url(#SVGID_3_)" d="M69.3,93.5c0,1.4-8.7,2.5-19.5,2.5c-10.8,0-19.5-1.1-19.5-2.5
			c0-1.4,8.7-2.5,19.5-2.5C60.6,91,69.3,92.1,69.3,93.5z"/>
		<path fill="#E9E8E8" d="M42.2,48c-2.9,2.5-3.8,5.4,0.7,9.8c4.4,4.3,7.5,4.9,7.5,4.9s9.7-9.3,8-13.5C56.2,44,45.1,45.5,42.2,48z"/>
		<path fill="#0D0F12" d="M43.8,86.8c3.9-1.1,4.5,4.7,1.9,7.3c-2.6,2.7-6.4,1.7-5.2-2.3C41.1,89.7,41.7,87.4,43.8,86.8z"/>
		<path fill="#0D0F12" d="M55.8,86.7c-4-0.7-3.9,5.1-1.1,7.5c2.9,2.4,6.5,1.1,5-2.9C58.8,89.3,57.9,87.1,55.8,86.7z"/>
		<path fill="#252728" d="M59,91.4c-0.1-0.3-0.3-0.5-0.5-0.7c-0.5,0.6-2,0.5-2.6,0.6c-0.7,0.1-1.8,0.2-0.9,1c0.7,0.7,1.9,1.2,3,1.1
			C59.1,93.3,59.4,92.3,59,91.4z"/>
		<path fill="#1E1E29" d="M41.1,66.6c-0.1,2.8-0.2,5.6-0.3,8.4c-0.1,4.2,0.6,9.9-0.8,13.9c0.6,0.3,1.2,0.6,1.8,0.8
			c2.4,0.9,4.9,0,7.3-0.4c-0.8-7.2,0.9-14.6,1-21.9C50.2,65.7,41.2,64.1,41.1,66.6z"/>
		<path fill="#1E1E29" d="M50,68.7c0.6,3.8,0.3,7.8,0.3,11.6c0,2.7-0.1,6.2-0.3,8.9c0.9,0.4,3.5,0.8,4.1,0.8c1.8,0,4.2-0.7,5.3-1.3
			c-0.8-2.8-1.5-7.9-1.7-12.1c-0.2-3.1,0.8-7.2-0.1-10.2C57,64.2,49.4,65,50,68.7z"/>
		<path fill="#121219" d="M40.8,74.1v3c0,0,3.5-0.5,8.6,0.8c0,0,0.1-0.6,0.2-0.9c0.1-0.3,0.7-0.3,0.8,0.1c0,0.5,0,0.7,0,0.7
			s2.7-2.2,7.5-0.9l0-3l-7.9-2.3L40.8,74.1z"/>
		<g>
			<path fill="#1E1E29" d="M60.6,60.3c0.7-4,2.9-7.7-0.3-11c-0.7-0.7-1.5-1.3-2.5-1.7c0.1,0.3,0.2,0.7,0.1,1
				c-0.6,6.5-7.5,13.1-7.5,13.1s-10.1-8.7-8.4-13.1c0.1-0.4,0.3-0.7,0.5-1c-2.3,1-4.6,2.5-5.2,4.7c-0.7,2.4,1.1,7.7,1.5,11.1
				c0.3,2.2,0.4,8.8-0.1,11c1.6,0.7,8.4,1.8,9.9,0.9c1.3-0.7,2-2.2,2.1-2.6c0,4.1,9.9,2.3,9.8,2C60.1,72.3,59.9,64.2,60.6,60.3z"/>
		</g>
		<path fill="#121219" d="M50.6,63.2c0,0-0.7,1.8,0.2,5C50.8,68.2,50.7,65.8,50.6,63.2z"/>
		<path fill="#F8B881" d="M35.7,67.4c0.5,0.3,0,1.5,1,2.4c1,0.8-0.9-0.1-1.2,0.9c-0.3,1,3.8,2.7,4.6-0.4c0.8-3.1-1.3-4.5-4.7-4.6
			C32,65.5,35.7,67.4,35.7,67.4z"/>
		<path fill="#1E1E29" d="M42.1,47.7c0,0-4.8,2.5-5.7,3c-3.4,1.7-8.4,4.8-8.4,10c0.1,6.6,7.2,9.2,7.2,9.2l2.1-4.2c0,0-4-0.9-3.7-5.1
			c0.2-3.2,6.7-4.9,6.7-4.9L42.1,47.7z"/>
		<path fill="#F8B881" d="M64.3,67.4c-0.5,0.3,0,1.5-1,2.4c-1,0.8,0.9-0.1,1.2,0.9c0.3,1-3.8,2.7-4.6-0.4c-0.8-3.1,1.3-4.5,4.7-4.6
			C68,65.5,64.3,67.4,64.3,67.4z"/>
		<path fill="#1E1E29" d="M57.9,47.7c0,0,4.8,2.5,5.7,3c3.4,1.7,8.4,4.8,8.4,10c-0.1,6.6-7.2,9.2-7.2,9.2l-2.1-4.2
			c0,0,4-0.9,3.7-5.1c-0.2-3.2-6.7-4.9-6.7-4.9L57.9,47.7z"/>
		<circle fill="#121219" cx="50" cy="68.7" r="0.6"/>
		<circle fill="#121219" cx="49.7" cy="62.7" r="0.6"/>
		<path fill="#252728" d="M41,91.8c0.1-0.3,0.2-0.5,0.5-0.7c0.5,0.5,2,0.3,2.7,0.3c0.7,0,1.8,0,1,0.9c-0.7,0.8-1.8,1.4-2.8,1.4
			C41.2,93.7,40.7,92.7,41,91.8z"/>
		<path fill="#121219" d="M50.8,72.7l0.2-3.5c0,0-0.1,4.1,0.5,5.2C51.5,74.4,50.9,74.3,50.8,72.7z"/>
		<path fill="#121219" d="M57,46.8c0,0,4,2.5,5.6,5.6l-3.9,1.4c0,0,2.2,3.2,2.3,3.7c0.1,0.3-3.4,0.9-5.9,2.3
			c-2.3,1.3-4.3,2.9-4.3,2.9s-0.4-0.5-0.1-1C50.9,61,57.8,54.8,57,46.8z"/>
		<path fill="#313243" d="M57,46.8c0,0,3.1,1.9,4.8,5l-3.4,1.9c0,0,1.8,2.6,2,3.1c0.1,0.3-2.8,1.3-5.3,2.7c-2.3,1.3-4.2,3.1-4.2,3.1
			s-0.4-0.5-0.1-1C50.9,61,57.8,54.8,57,46.8z"/>
		<path fill="#121219" d="M42.8,47.4c0,0-4.4,2.4-5.7,5.7l4.4,1c0,0-1.8,3.9-1.8,4.5c0,0.3,3.6-0.3,7.4,1.7c2,1.1,3.5,2.4,3.5,2.4
			s0.4-0.5,0-1.1C50.2,60.9,42.8,56,42.8,47.4z"/>
		<path fill="#313243" d="M42.8,47.4c0,0-3.4,1.6-4.8,5l4.1,1.5c0,0-1.8,3.4-1.8,3.9c0,0.3,3,0.2,6.9,2.2c2,1.1,3.3,2.6,3.3,2.6
			s0.4-0.5,0-1.1C50.2,60.9,42.8,56,42.8,47.4z"/>
		<path opacity="0.2" fill="#A19E99" d="M57.4,49.8c0,0-0.9,2.8-4,5.5L50,52.6l-3.1,3c0,0-2.7-1.7-3.8-5c-1-3.3,8.2-3,10.5-1.8
			C56,49.9,57.4,49.8,57.4,49.8z"/>
		<path fill="#F5F5F5" d="M50,52.6l3.1,2c0,0,6.2-3.2,3.8-7.8c-2.1-4.1-12.6-3.8-14.3,0.8c-1.5,3.9,4.1,7.1,4.1,7.1L50,52.6z"/>
		<path fill="#EF9E6D" d="M45.1,49.5c0.6,0.6,1.6,1.2,2.6,1.5c0.7,0.2,2,1.1,2.2,1.1c0.1,0,0.5-0.4,1.2-0.7c1-0.5,2.4-1.2,3-2.3
			c0.8-1.6,1.5-4.8,0-6c-1.6-1.3-4.7-1.5-6.6-1.1c-2,0.4-3.3,2.3-3.4,4.3C44,47.8,44.3,48.7,45.1,49.5z"/>
		<g>
			<g>
				<path fill="#4F2C1E" d="M62.3,25.4c-0.1-4.9-0.8-6.7-0.7-8.7c0.3-8.5-7-14.1-18.9-12.2c-20.8,3.4-14.8,32.2-9,30.4
					c4.3-1.3,8.6-2.9,12.8-4.4c4-1.4,8.6-1,12.7-1C62.5,29.4,62.4,28,62.3,25.4z"/>
				<path fill="#F8B881" d="M34.1,34.5c1.7,7.7,8.4,15.7,17.4,14.3c9.1-1.4,12.8-13.2,10.8-22.7c-2.2-10.3-7.8-18.5-18.4-15.5
					C36.3,12.8,31.9,24.3,34.1,34.5z"/>
				<path fill="#F8B881" d="M32.6,38c1,0.3,2.1,0.2,3.1,0.1c0,0,0-0.1,0.1-0.1c0.4-0.8-0.7-4.4-1-5.1c-0.7-1.9-1.8-3.1-3.6-2.5
					C27.4,31.8,29.4,37.2,32.6,38z"/>
				<path opacity="0.5" fill="#D99F7C" d="M61.1,21.7c-1-3-3.8-1.8-7.4-1.1c-5.7,1.1-12.4,1.8-17,0.2c0.3,3-1.9,4.2-2.6,7.2
					c-0.4,1.6-1-5.6-1.1-6.6c-0.1-2.5-0.2-5.9,1.6-7.8c2.3-2.5,6.9-2.7,9.9-2.9c4.6-0.3,8.7,0.3,13.1,1.6
					C60.6,13.2,61.4,19.1,61.1,21.7z"/>
				<path opacity="0.35" fill="#B5441A" d="M33.9,36.5c1.3-1-0.2-3.8-1.3-4.2c-0.9-0.3-2.9,0.6-1.8,2.1c0.4-1.6,1.4-0.7,1.4,0.4
					c0,0.7-0.8,0.8,0,1.7C32.7,37.1,33.5,36.8,33.9,36.5z"/>
				<path fill="#4F2C1E" d="M58.9,18c-11.8,3.6-21.6,2.6-23,1.5c0.4,2.4-0.4,3.8-0.8,5.7c-0.8,3.4,0,6.8,1.5,7.9
					c-0.7,0.3-1.6,0.3-2.1,0.2c-0.6-0.7-1.7-2.6-2-4.3c-0.2-1.9-7.4-17.6,7.5-23.6C50.9,1,59.7,9,64.3,4.6c0.2,2.6,0.3,6.2-1.3,8.2
					c1.2-0.3,1.9-0.5,2.9-0.6C64.8,14.2,62.8,16.8,58.9,18z"/>
				<path fill="#6A3B27" d="M63.7,5.7c0,0-1.9,9.7-15.3,11c-14.6,1.5-18.7-2.1-14.8-6.9C37.6,4.9,46,4.3,51.6,5.4
					C57.2,6.4,59.9,7.9,63.7,5.7z"/>
				<path fill="#4F2C1E" d="M34.8,27c0.1,1,0.7,4.7,1.8,6.1c-0.7,0.3-1.5,0.4-1.9,0.3c-1-0.6-1.4-3.1-2.7-3.1
					C30.7,30.3,34.2,28.6,34.8,27z"/>
			</g>
			<g>
				<path opacity="0.5" fill="#B5441A" d="M42,30.7c1-1-2.2-0.8-2.7-0.6c0.1,0.6,1.5,0.2,1.9,0.3c-0.3,0.4-1.4,0.5-1.9,0.8
					c-0.5,0.3-0.4,0.5,0.2,0.4C39.9,31.6,41.8,30.9,42,30.7z"/>
				<path opacity="0.5" fill="#B5441A" d="M58.9,28.6c-0.9-0.8,1.8-1.1,2.2-1c0,0.6-1.2,0.4-1.6,0.5c0.3,0.4,1.2,0.3,1.6,0.5
					c0.4,0.2,0.4,0.4-0.1,0.5C60.7,29.1,59.1,28.8,58.9,28.6z"/>
				<g>
					<path fill="#131C22" d="M43.3,31c-0.6-0.2-1.4-0.2-2,0c-1.4-1-0.5-4.7,1.6-4C44.4,27.6,44.6,30.2,43.3,31z"/>
				</g>
				<path opacity="0.35" fill="#B54817" d="M53.5,31.9c0.4,0.3-0.2,1.8-2,2c-1.7,0.3-2.9-1.1-2.2-1.5c0.6-0.4,1.1-0.1,2.1-0.2
					C52.5,32,53,31.5,53.5,31.9z"/>
				<path fill="#FBCBA0" d="M53.6,32c0.2-0.3-0.5-1.3-1.1-2.4c-0.5-1-1.2-3.1-2.2-3c-0.9,0.1-0.8,2.5-1,3.6
					c-0.2,1.1-0.3,2.2,0.2,2.5C50.7,33.4,53,32.7,53.6,32z"/>
				<g>
					<path fill="#131C22" d="M58.8,25.6c1.1,0.5,1.3,2.3,0.6,3.2c-0.6,0-1.2,0.2-1.7,0.6C55.5,29.1,56.7,24.7,58.8,25.6z"/>
				</g>
				<path fill="#7E8CA9" d="M42.3,27.6c0.7-0.3,1.2,0.8,0.7,1.2C42.3,29.5,41.6,28,42.3,27.6z"/>
				<path fill="#7E8CA9" d="M58.3,26.2c0.7-0.2,1.1,0.8,0.6,1.2C58.1,27.9,57.6,26.4,58.3,26.2z"/>
				<path opacity="0.5" fill="#B5441A" d="M40.6,36.3c0.7-0.5,2.7-0.6,2.7-0.6c0.3,0.1-0.8,0.2-1.6,0.8c-0.1,0-0.1,0.1-0.1,0.1
					c5.5,1.4,14.2,0.1,18.1-1.5c-0.1-0.1-0.2-0.2-0.3-0.2c-0.9-0.1-1.5-0.2-1.2-0.3c0,0,2-0.5,2.4,0.1c0.4,0.7-0.1,1.6-0.6,1.5
					c-0.4,0-0.1-0.6-0.2-1c-1,0.9-2.6,2.6-2.6,3.9c0,2.4-1.5,4.1-6.4,4.4c-6.5,0.3-8.9-5.3-9.4-6.7c-0.3,0.5-0.3,1.3-0.7,1.2
					C40.1,38.1,40,36.8,40.6,36.3z"/>
				<path fill="#4F2C1E" d="M60.5,24.7c0.5,0.2,0.6-0.6,0.4-0.8c-0.7-0.8-1.7-1.7-3.8-1.8c-1.5,0-2.6-0.2-2.6-0.1
					c0,0.8,0.3,2.6,1.4,2.5c0.7-0.1,1.4-0.2,2-0.2C59.2,24.2,60.1,24.5,60.5,24.7z"/>
				<path fill="#4F2C1E" d="M39.5,26.9c-0.5,0.3-0.9-0.4-0.7-0.6c0.5-1,1.2-2.1,3.4-2.8c1.5-0.5,2.6-0.9,2.7-0.9
					c0.3,0.8,0.5,2.5-0.7,2.8c-0.7,0.1-1.5,0.2-2.2,0.4C40.7,26.1,39.9,26.6,39.5,26.9z"/>
				<path fill="#902824" d="M42.6,37.6c0,0,7,1.5,15.8-1.5c0,0-1.4,0.8-1.6,2.8c-0.1,1.4-0.6,3.5-5.9,4
					C45.1,43.4,42.6,37.6,42.6,37.6z"/>
				<path fill="#FFF9F1" d="M44.6,38.1c0,0,0.2,1.9,2,2.5c2.4,0.8,5,0.7,7.5-0.2c1.7-0.6,2.6-3.6,2.6-3.6S51.9,38.1,44.6,38.1z"/>
				<path fill="#FFF9F1" d="M45.5,40.9c-0.2-0.5-0.2-1,0.8-0.7c1.2,0.4,3.4,0.6,5.9,0.4c2.5-0.2,3-1.2,3.5-0.7
					c0.5,0.5-1.1,3.1-5.1,3.1C45.9,42.9,45.5,40.9,45.5,40.9z"/>
				<path fill="#FBCBA0" d="M61.5,30.7c0.2,0.1,0.3,0.3,0.4,0.5c1,1.9-3.8,2.3-4.6,1.6c-1.4-1.4,0-2.2,1.2-2.5
					C59.4,30.1,60.7,30,61.5,30.7z"/>
				<path fill="#FBCBA0" d="M43.7,32.4c0.2,0.1,0.3,0.3,0.4,0.5c1.1,2-3.9,2.6-4.8,1.8c-1.5-1.5,0-2.3,1.2-2.6
					C41.5,31.8,42.8,31.6,43.7,32.4z"/>
				<path fill="#E8DAC5" d="M44.8,38.9c0,0,9.4-1.5,11.5-0.9c0,0,0.3-0.6,0.4-1.1c0,0-6.6,1.4-12.2,1.2C44.6,38,44.7,38.6,44.8,38.9
					z"/>
				<path fill="#E8DAC5" d="M46.8,40.2c0,0,3.5,0.9,8.3-0.4C55,39.8,50.8,41.8,46.8,40.2z"/>
			</g>
		</g>
	</g>
</g>
</svg>
