<?xml version="1.0" encoding="utf-8"?>
<!-- Generator: Adobe Illustrator 18.1.1, SVG Export Plug-In . SVG Version: 6.00 Build 0)  -->
<svg version="1.1" xmlns="http://www.w3.org/2000/svg" xmlns:xlink="http://www.w3.org/1999/xlink" x="0px" y="0px"
	 viewBox="0 0 100 100" enable-background="new 0 0 100 100" xml:space="preserve">
<g id="Capa_1">
</g>
<g id="Capa_2">
	<g>
		<defs>
			<filter id="Adobe_OpacityMaskFilter" filterUnits="userSpaceOnUse" x="51.2" y="90.1" width="37.5" height="4.8">
				<feColorMatrix  type="matrix" values="1 0 0 0 0  0 1 0 0 0  0 0 1 0 0  0 0 0 1 0"/>
			</filter>
		</defs>
		<mask maskUnits="userSpaceOnUse" x="51.2" y="90.1" width="37.5" height="4.8" id="SVGID_1_">
			<g filter="url(#Adobe_OpacityMaskFilter)">
				<defs>
					<filter id="Adobe_OpacityMaskFilter_1_" filterUnits="userSpaceOnUse" x="50" y="89.5" width="39.8" height="6">
						<feFlood  style="flood-color:white;flood-opacity:1" result="back"/>
						<feBlend  in="SourceGraphic" in2="back" mode="normal"/>
					</filter>
				</defs>
				<mask maskUnits="userSpaceOnUse" x="50" y="89.5" width="39.8" height="6" id="SVGID_1_">
					<g filter="url(#Adobe_OpacityMaskFilter_1_)">
					</g>
				</mask>
				
					<radialGradient id="SVGID_2_" cx="-450.2666" cy="62492.7305" r="14.9452" gradientTransform="matrix(1.2017 0 0 0.1624 610.9928 -10056.3096)" gradientUnits="userSpaceOnUse">
					<stop  offset="0" style="stop-color:#FFFFFF"/>
					<stop  offset="7.362918e-002" style="stop-color:#E1E1E1"/>
					<stop  offset="0.2544" style="stop-color:#9E9E9E"/>
					<stop  offset="0.4259" style="stop-color:#666666"/>
					<stop  offset="0.5834" style="stop-color:#3A3A3A"/>
					<stop  offset="0.724" style="stop-color:#1B1B1B"/>
					<stop  offset="0.8425" style="stop-color:#080808"/>
					<stop  offset="0.9247" style="stop-color:#010101"/>
				</radialGradient>
				<path mask="url(#SVGID_1_)" fill="url(#SVGID_2_)" d="M89.8,92.5c0,1.6-8.9,3-19.9,3S50,94.2,50,92.5c0-1.6,8.9-3,19.9-3
					S89.8,90.9,89.8,92.5z"/>
			</g>
		</mask>
		
			<radialGradient id="SVGID_3_" cx="-443.0238" cy="62610.8516" r="15.7896" gradientTransform="matrix(1.1502 0 0 0.1329 579.4735 -8228.4746)" gradientUnits="userSpaceOnUse">
			<stop  offset="0" style="stop-color:#010101"/>
			<stop  offset="0.9247" style="stop-color:#010101"/>
		</radialGradient>
		<path opacity="0.2" fill="url(#SVGID_3_)" d="M88.6,92.5c0,1.3-8.4,2.4-18.7,2.4c-10.3,0-18.7-1.1-18.7-2.4
			c0-1.3,8.4-2.4,18.7-2.4C80.3,90.1,88.6,91.2,88.6,92.5z"/>
		<defs>
			<filter id="Adobe_OpacityMaskFilter_2_" filterUnits="userSpaceOnUse" x="12.5" y="90.1" width="37.5" height="4.8">
				<feColorMatrix  type="matrix" values="1 0 0 0 0  0 1 0 0 0  0 0 1 0 0  0 0 0 1 0"/>
			</filter>
		</defs>
		<mask maskUnits="userSpaceOnUse" x="12.5" y="90.1" width="37.5" height="4.8" id="SVGID_4_">
			<g filter="url(#Adobe_OpacityMaskFilter_2_)">
				<defs>
					<filter id="Adobe_OpacityMaskFilter_3_" filterUnits="userSpaceOnUse" x="11.4" y="89.5" width="39.8" height="6">
						<feFlood  style="flood-color:white;flood-opacity:1" result="back"/>
						<feBlend  in="SourceGraphic" in2="back" mode="normal"/>
					</filter>
				</defs>
				<mask maskUnits="userSpaceOnUse" x="11.4" y="89.5" width="39.8" height="6" id="SVGID_4_">
					<g filter="url(#Adobe_OpacityMaskFilter_3_)">
					</g>
				</mask>
				
					<radialGradient id="SVGID_5_" cx="-482.4246" cy="62492.7305" r="14.9452" gradientTransform="matrix(1.2017 0 0 0.1624 610.9928 -10056.3096)" gradientUnits="userSpaceOnUse">
					<stop  offset="0" style="stop-color:#FFFFFF"/>
					<stop  offset="7.362918e-002" style="stop-color:#E1E1E1"/>
					<stop  offset="0.2544" style="stop-color:#9E9E9E"/>
					<stop  offset="0.4259" style="stop-color:#666666"/>
					<stop  offset="0.5834" style="stop-color:#3A3A3A"/>
					<stop  offset="0.724" style="stop-color:#1B1B1B"/>
					<stop  offset="0.8425" style="stop-color:#080808"/>
					<stop  offset="0.9247" style="stop-color:#010101"/>
				</radialGradient>
				<path mask="url(#SVGID_4_)" fill="url(#SVGID_5_)" d="M51.2,92.5c0,1.6-8.9,3-19.9,3s-19.9-1.3-19.9-3c0-1.6,8.9-3,19.9-3
					S51.2,90.9,51.2,92.5z"/>
			</g>
		</mask>
		
			<radialGradient id="SVGID_6_" cx="-476.6218" cy="62610.8516" r="15.7896" gradientTransform="matrix(1.1502 0 0 0.1329 579.4735 -8228.4746)" gradientUnits="userSpaceOnUse">
			<stop  offset="0" style="stop-color:#010101"/>
			<stop  offset="0.9247" style="stop-color:#010101"/>
		</radialGradient>
		<path opacity="0.2" fill="url(#SVGID_6_)" d="M50,92.5c0,1.3-8.4,2.4-18.7,2.4c-10.3,0-18.7-1.1-18.7-2.4c0-1.3,8.4-2.4,18.7-2.4
			C41.6,90.1,50,91.2,50,92.5z"/>
		<g>
			<path fill="#EBA87D" d="M42.9,67.8c0.2-1,1.5-1.4,2.1-1.8c0.8-0.4,1.1-1,1.8-1c0.5,0,1.1,0.2,1.6,0.1c1-0.2,1.4,0.8,1.8,1.3
				c0.8,1.2-0.3,2.4-1.4,2.4c-1,0-1.8,0-3,0.6C44.9,69.9,42.6,69.3,42.9,67.8z"/>
			<path fill="#F8B881" d="M60.1,49.3c-0.4,0.2-3.6,2.6-3.4,4.2c0.4,2.7,3.4,1,4.2,0.4c0.6-0.5,0.8-2.8,1-3.5
				C62.5,48.7,61.4,48.6,60.1,49.3z"/>
			<path fill="#1E1E29" d="M56.8,51.6c-5.8,3.2-11,2.7-16.9-1.6c-2.4-1.8-1.9,3.6-0.9,4.8c2.6,2.8,9.9,8.4,19.2,1.9L56.8,51.6z"/>
			<path fill="#E9E8E8" d="M24,49.8c-2.8,2.3-3.6,5.2,0.6,9.3c4.2,4.1,7.1,4.6,7.1,4.6s9.2-8.8,7.6-12.8
				C37.4,46.1,26.8,47.5,24,49.8z"/>
			<path fill="#E62A2A" d="M31,53.3c2.1-0.4,2.8,1.2,2.8,1.2l-0.9,1.9l2.1,5.6l-2.6,5.7l-3.6-5.4l1.6-5.5l-1.5-1.5
				C28.9,55.2,29.1,53.6,31,53.3z"/>
			<path fill="#0D0F12" d="M25.6,86.4c3.7-1,4.2,4.4,1.8,7c-2.5,2.6-6.1,1.6-5-2.2C23,89.2,23.6,86.9,25.6,86.4z"/>
			<path fill="#0D0F12" d="M36.9,86.3c-3.8-0.6-3.7,4.8-1.1,7.1c2.7,2.3,6.2,1,4.7-2.7C39.8,88.8,38.9,86.7,36.9,86.3z"/>
			<path fill="#252728" d="M40,90.8c-0.1-0.2-0.3-0.5-0.5-0.7c-0.4,0.5-1.9,0.5-2.5,0.6c-0.7,0.1-1.7,0.2-0.8,1
				c0.7,0.7,1.8,1.1,2.8,1C40.1,92.6,40.4,91.6,40,90.8z"/>
			<path fill="#1D1D27" d="M23,67.5c-0.1,2.7-0.2,5.3-0.2,8c-0.1,4,0.5,9.2-0.8,13c0.6,0.3,1.2,0.5,1.8,0.8c2.3,0.8,4.6,0,6.9-0.4
				c-0.7-6.9,0.9-13.7,1-20.5C31.7,66.7,23.1,65.2,23,67.5z"/>
			<path fill="#1D1D27" d="M31.4,69.5c0.5,3.6,0.3,7.4,0.3,11c0,2.6-0.1,5.7-0.2,8.2c0.8,0.3,3.3,0.7,3.9,0.7c1.7,0,4-0.6,5.1-1.2
				c-0.8-2.6-1.4-7.3-1.6-11.3c-0.2-2.9,0.7-6.8-0.1-9.6C38.1,65.2,30.9,66,31.4,69.5z"/>
			<path fill="#121219" d="M22.7,74.6v2.8c0,0,3.4-0.5,8.2,0.7c0,0,0-0.6,0.1-0.8c0.1-0.2,0.7-0.3,0.7,0.1c0,0.4,0,0.7,0,0.7
				s2.5-2,7.1-0.8l0-2.8l-7.5-2.2L22.7,74.6z"/>
			<g>
				<path fill="#1E1E29" d="M41.5,61.5c0.7-3.8,2.7-7.3-0.3-10.4c-0.6-0.7-1.4-1.2-2.4-1.7c0.1,0.3,0.2,0.6,0.1,0.9
					c-0.6,6.1-7.1,12.4-7.1,12.4s-9.3-8.3-7.7-12.4c0.1-0.3,0.5-0.8,0.8-1.1c-1.8,1-3.2,2-3.8,4c-0.6,2.3,0.2,7.7,0.2,11.7
					c0,2.1-0.1,7.8-0.6,9.9c1.5,0.7,7.9,1.7,9.4,0.9c1.2-0.7,1.9-2.1,2-2.5c0,3.9,9.4,2.2,9.3,1.9C41.1,72.9,40.8,65.2,41.5,61.5z"
					/>
			</g>
			<path fill="#121219" d="M41.2,72.2c-11.2,0.4-17.8-5.5-18.8-7.1c-0.4-0.7-1.5-2-0.9-2.8c1.1-1.5,5.8,0.7,7,1.2
				c2.9,1.1,5.8,2.8,8.9,3.3c1.1,0.2,2.3,0.2,3.5,0.4C40.9,67.2,41.1,71,41.2,72.2z"/>
			<path fill="#121219" d="M32.1,64.2c0,0-0.7,1.7,0.2,4.8C32.2,69,32.1,66.7,32.1,64.2z"/>
			<circle fill="#121219" cx="31.3" cy="70.9" r="0.6"/>
			<circle fill="#121219" cx="30.8" cy="64.9" r="0.6"/>
			<path fill="#F8B881" d="M46,71.1c1.2,0.1,2.8-1.6,2.6-2.2c-0.9-1-1.8-1.5-2.3-2.3c0.1-0.7-0.9-1.3-1.4-1.6
				c-1-0.4-1.7,0.7-2.9,0.7c-1.2,0-1.6,3.7-0.8,3.5C42.8,68.8,43.7,70.9,46,71.1z"/>
			<path fill="#EBA87D" d="M43.1,70.2c-0.3-0.2,0-0.7,0.2-1c0.8-0.7,1.2-0.7,1.2,0.2c0.3-0.2,1.2-0.5,1.4,0.4c0.2,0.7,0,1.2-0.2,1.3
				C45.5,71.3,43.1,70.2,43.1,70.2z"/>
			<path fill="#FBCBA0" d="M43.5,69.2c0.7-0.6,1-0.2,0.8,0.4c1.1-0.6,1.6,0,1.6,1.1c0,0.7-0.6,0.6-1.8,0.1
				C43,70.6,42.6,70,43.5,69.2z"/>
			<path fill="#121219" d="M32.2,73.3l0.2-3.3c0,0-0.1,3.9,0.5,4.9C32.8,74.9,32.3,74.8,32.2,73.3z"/>
			<path fill="#EBA87D" d="M45.9,65.4c-0.8,0.4-1.5,0.7-1.9,0.8c-0.2,0.1-0.4,0.2-0.4,0.5c0,0.3,0.4,0.6,0.7,0.7
				c1.2,0.1,2.1-0.7,2.1-0.6c0.4,0.5,0.9,0.9,1,0.8c0.1-0.1,0.1-0.2,0.1-0.3c0-0.5-0.1-1.1-0.5-1.4c-0.2-0.1-0.4-0.2-0.6-0.3
				L45.9,65.4z"/>
			<path fill="#FBCBA0" d="M45.9,65.2c-1,0.8-1.8,1-1.9,1.2c-0.2,0.6,0.6,0.7,0.9,0.7c0.8-0.1,1.3-0.6,1.5-0.7
				c0.2-0.2,0.3,0.2,0.4,0.3c0.3,0.7,1,1.2,1.7,1c0.8-0.2,1-2.9-0.1-2.7C47.3,65.2,46.8,64.5,45.9,65.2z"/>
			<path fill="#313243" d="M42,65.1c-15.8,1.2-20.4-7.7-17.1-11.8l-0.1-4c-11.2,5.9-4.6,22.4,17.3,22.2L42,65.1z"/>
			<path fill="#252728" d="M22.9,91.1c0.1-0.3,0.2-0.5,0.4-0.7c0.5,0.5,1.9,0.3,2.6,0.3c0.7,0,1.7,0,0.9,0.9
				c-0.6,0.7-1.7,1.3-2.7,1.3C23.1,93,22.6,92,22.9,91.1z"/>
			<path fill="#121219" d="M37.8,48.7c0,0,3.8,2.5,5.6,5.3l-3.7,1.3c0,0,2.1,3,2.2,3.5c0.1,0.3-3.2,0.8-5.6,2.2
				c-2.2,1.3-4.2,2.8-4.2,2.8s-0.3-0.6,0-1.1C32.3,62.2,39.2,56.6,37.8,48.7z"/>
			<path fill="#313243" d="M37.6,48.5c0,0,2.9,1.4,5.2,4.8l-3.5,1.9c0,0,1.7,2.5,1.8,3c0.1,0.3-2.7,1.2-5.1,2.6
				c-2.2,1.3-4,3.1-4,3.1s-0.3-0.6-0.1-1.1C32.3,62.2,39.4,55.9,37.6,48.5z"/>
			<path opacity="0.5" fill="#121219" d="M25,49.2c0,0-3.6,2.6-4.8,5.1l3.6,1.3c0,0-1.3,4.2-0.8,4.3c0.6,0.1,2-0.2,5.6,1.7
				c1.9,1,3.5,2.4,3.5,2.4s0.2-0.7-0.2-1.2C31.6,62.1,25,57.4,25,49.2z"/>
			<path fill="#313243" d="M25.6,48.6c0,0-2.8,2-4.7,5l3,1.8c0,0-0.4,3-0.5,3.6c0,0.3,1.7,0.3,5.3,2.2c1.9,1,3.3,2.6,3.3,2.6
				s0.2-0.6-0.1-1.1C31.7,62.2,26.3,56.6,25.6,48.6z"/>
			<path opacity="0.2" fill="#A19E99" d="M34.6,56.9l-3.1-2.7L28.5,57c0,0-2.6-1.6-3.6-4.7c-1-3.1,10.1-4.1,12.3-3
				C39.4,50.5,37.6,54.2,34.6,56.9z"/>
			<path fill="#F5F5F5" d="M31.5,54.2l2.9,1.9c0,0,5.2-3.4,3-7.8c-2-3.9-10.5-3.6-12.2,0.7c-1.4,3.7,3.1,7.2,3.1,7.2L31.5,54.2z"/>
			<path fill="#EF9E6D" d="M26.8,51.3c0.6,0.6,1.5,1.1,2.5,1.4c0.7,0.2,1.9,1,2.1,1c0.1,0,0.5-0.3,1.1-0.7c1-0.5,2.3-1.1,2.8-2.2
				c0.8-1.5,1.5-4.5,0-5.7c-1.5-1.2-4.5-1.4-6.3-1c-1.9,0.4-3.1,2.2-3.3,4.1C25.8,49.7,26,50.5,26.8,51.3z"/>
			<g>
				<g>
					<path fill="#4F2C1E" d="M44.5,28c0.2-4.8-0.4-6.5-0.2-8.5c0.8-8.3-5.9-14.1-17.6-12.9c-20.3,2-16.3,30.2-10.5,28.9
						c4.3-1,8.5-2.3,12.7-3.5c3.9-1.1,8.3-0.4,12.4-0.2C44.5,31.9,44.4,30.6,44.5,28z"/>
					<path fill="#F8B881" d="M16.7,35.1c1.2,7.5,7.2,15.7,16,14.9c8.9-0.8,13.2-12,11.8-21.3C43,18.6,38.1,10.3,27.6,12.6
						C20.2,14.2,15.1,25,16.7,35.1z"/>
					<path fill="#F8B881" d="M15,38.4c1,0.3,2,0.3,3,0.3c0,0,0-0.1,0.1-0.1c0.4-0.7-0.4-4.3-0.7-5c-0.6-1.8-1.6-3.1-3.3-2.6
						C10.4,32,12,37.4,15,38.4z"/>
					<path opacity="0.5" fill="#D99F7C" d="M43.6,24.4c-0.8-2.9-3.6-2-7.1-1.6c-5.6,0.7-12.1,1-16.5-0.8c0.1,2.9-2.1,4-3,6.8
						c-0.5,1.5-0.7-5.5-0.6-6.4c0.1-2.4,0.1-5.7,2-7.5c2.3-2.2,6.8-2.2,9.8-2.2c4.5,0,8.4,0.8,12.6,2.4C43.6,16.1,44,21.8,43.6,24.4
						z"/>
					<path opacity="0.35" fill="#B5441A" d="M16.4,37c1.3-0.9,0-3.7-1-4.1c-0.8-0.4-2.9,0.4-1.9,2c0.5-1.5,1.4-0.5,1.3,0.5
						c-0.1,0.7-0.8,0.7-0.1,1.6C15.1,37.5,16,37.3,16.4,37z"/>
					<path fill="#4F2C1E" d="M41.7,20.6c-11.6,2.7-21,1.2-22.4,0.1c0.3,2.4-0.6,3.6-1.1,5.4c-1,3.2-0.4,6.6,1,7.8
						c-0.7,0.2-1.6,0.2-2,0c-0.5-0.7-1.5-2.7-1.6-4.3c-0.1-1.9-6.1-17.5,8.7-22.3C35,3.7,43,12,47.7,8c0,2.6-0.1,6.1-1.8,7.9
						c1.2-0.2,1.9-0.3,2.8-0.4C47.7,17.4,45.5,19.7,41.7,20.6z"/>
					<path fill="#6A3B27" d="M47.1,9c0,0-2.5,9.2-15.5,9.7c-14.2,0.5-17.9-3.1-13.9-7.6C21.9,6.7,30,6.6,35.4,8
						C40.8,9.3,43.3,10.9,47.1,9z"/>
					<path fill="#4F2C1E" d="M17.8,27.8c0,1,0.4,4.6,1.4,6c-0.7,0.2-1.5,0.3-1.9,0.1c-0.9-0.6-1.2-3.1-2.5-3.2
						C13.7,30.8,17.2,29.4,17.8,27.8z"/>
				</g>
				<g>
					<path opacity="0.5" fill="#B5441A" d="M24.6,31.9c1-0.9-2.1-0.9-2.6-0.8c0.1,0.6,1.4,0.3,1.8,0.4c-0.4,0.4-1.4,0.4-1.9,0.7
						c-0.5,0.3-0.4,0.5,0.1,0.4C22.5,32.6,24.3,32.1,24.6,31.9z"/>
					<path opacity="0.5" fill="#B5441A" d="M41,30.9c-0.8-0.8,1.8-1,2.2-0.8c-0.1,0.6-1.2,0.3-1.6,0.4c0.3,0.4,1.2,0.4,1.5,0.6
						c0.4,0.3,0.3,0.4-0.1,0.4C42.8,31.5,41.2,31.1,41,30.9z"/>
					<g>
						<path fill="#131C22" d="M25.8,32.3c-0.6-0.3-1.3-0.3-1.9-0.1c-1.3-1.1-0.2-4.5,1.7-3.7C27.1,29,27.1,31.6,25.8,32.3z"/>
					</g>
					<path opacity="0.35" fill="#B54817" d="M35.7,33.7c0.4,0.4-0.3,1.7-2,1.9c-1.7,0.1-2.7-1.3-2-1.6c0.6-0.4,1.1,0,2-0.1
						C34.7,33.8,35.2,33.3,35.7,33.7z"/>
					<path fill="#FBCBA0" d="M35.7,33.8c0.2-0.2-0.4-1.3-0.9-2.4c-0.5-1-1-3.1-1.9-3c-0.8,0.1-0.9,2.3-1.2,3.4
						c-0.3,1.1-0.4,2.1,0,2.4C32.8,35,35,34.5,35.7,33.8z"/>
					<g>
						<path fill="#131C22" d="M41.1,27.9c1.1,0.5,1.1,2.3,0.4,3.2c-0.6,0-1.2,0.2-1.7,0.5C37.7,31.2,39.1,26.9,41.1,27.9z"/>
					</g>
					<path fill="#7E8CA9" d="M25.1,28.9c0.7-0.3,1.1,0.8,0.6,1.2C24.9,30.7,24.3,29.2,25.1,28.9z"/>
					<path fill="#7E8CA9" d="M40.6,28.5c0.7-0.2,1,0.8,0.5,1.2C40.4,30.1,39.9,28.7,40.6,28.5z"/>
					<path opacity="0.5" fill="#B5441A" d="M22.9,37.2c0.7-0.5,2.6-0.4,2.6-0.4c0.3,0.2-0.8,0.2-1.6,0.6c-0.1,0-0.1,0.1-0.1,0.1
						c5.2,1.7,13.8,0.9,17.6-0.3c-0.1-0.1-0.2-0.2-0.3-0.2c-0.8-0.2-1.4-0.3-1.1-0.4c0,0,2-0.4,2.3,0.3c0.4,0.7-0.2,1.5-0.7,1.5
						c-0.4,0-0.1-0.6-0.2-1c-1,0.8-2.7,2.4-2.8,3.7c-0.2,2.3-1.7,3.9-6.5,3.8c-6.4-0.1-8.3-5.7-8.7-7.1c-0.3,0.5-0.4,1.2-0.8,1.2
						C22.2,38.9,22.2,37.6,22.9,37.2z"/>
					<path fill="#4F2C1E" d="M42.9,27.2c0.5,0.2,0.7-0.5,0.5-0.7c-0.7-0.8-1.5-1.8-3.6-1.9c-1.4-0.1-2.5-0.3-2.5-0.3
						c-0.1,0.8,0.1,2.5,1.2,2.5c0.7,0,1.3-0.1,2-0.1C41.6,26.7,42.5,27,42.9,27.2z"/>
					<path fill="#4F2C1E" d="M22.4,28.1c-0.5,0.3-0.8-0.4-0.7-0.6c0.6-0.9,1.3-2,3.4-2.5c1.5-0.4,2.6-0.8,2.6-0.7
						c0.2,0.8,0.3,2.5-0.8,2.7c-0.7,0.1-1.5,0.1-2.2,0.2C23.6,27.4,22.8,27.8,22.4,28.1z"/>
					<path fill="#902824" d="M24.8,38.6c0,0,6.6,1.9,15.3-0.5c0,0-1.4,0.7-1.7,2.6c-0.2,1.4-0.8,3.4-5.9,3.5
						C26.8,44.4,24.8,38.6,24.8,38.6z"/>
					<path fill="#FFF9F1" d="M26.6,39.2c0,0,0.1,1.9,1.8,2.6c2.2,0.9,4.8,1,7.3,0.3c1.7-0.5,2.7-3.3,2.7-3.3S33.6,39.7,26.6,39.2z"
						/>
					<path fill="#FFF9F1" d="M27.3,42c-0.2-0.5-0.2-1,0.8-0.6c1.1,0.5,3.2,0.8,5.6,0.7c2.4,0,3-1,3.4-0.5c0.4,0.5-1.2,3-5.1,2.7
						C27.6,43.9,27.3,42,27.3,42z"/>
					<path fill="#FBCBA0" d="M43.4,33.1c0.1,0.1,0.2,0.3,0.3,0.5c0.9,1.9-3.9,2-4.5,1.2c-1.3-1.5,0.2-2.1,1.3-2.3
						C41.4,32.4,42.7,32.4,43.4,33.1z"/>
					<path fill="#FBCBA0" d="M26.1,33.6c0.1,0.1,0.3,0.3,0.4,0.5c1,2-4,2.2-4.7,1.4c-1.4-1.5,0.1-2.3,1.3-2.5
						C24,32.9,25.3,32.8,26.1,33.6z"/>
					<path fill="#E8DAC5" d="M26.8,40c0,0,9.2-0.9,11.2-0.2c0,0,0.3-0.6,0.4-1c0,0-6.5,0.9-11.8,0.4C26.6,39.1,26.7,39.7,26.8,40z"
						/>
					<path fill="#E8DAC5" d="M28.6,41.3c0,0,3.3,1.1,8,0.1C36.6,41.5,32.4,43.2,28.6,41.3z"/>
				</g>
			</g>
		</g>
		<g>
			<path fill="#FBCBA0" d="M80.4,52.6c0,0,6.1,5.5,6.2,10.6c0.1,6-6.6,7.6-6.6,7.6l-1.3-3c7-3.4,1.2-9.5-1.5-11.9
				C75.3,54.1,80.4,52.6,80.4,52.6z"/>
			<path fill="#FBCBA0" d="M61.2,53.4c1.5,5.3-4.5,15-12.4,15.4c-0.3-1,0.6-1.7-0.4-3.8c10.2-2.5,10.1-12,11.1-13.2
				c1-1.2,2.1-2,2.1-2S60.6,51.5,61.2,53.4z"/>
			<path fill="#F6A32A" d="M62,49.2l4.4,4.3c0,0-2.8,4.9-5.3,8.8c-2.4,0-5.9-1.5-6.9-3.4c3.2-2.7,3.6-6.3,5.5-7.9
				C61,49.9,62,49.2,62,49.2z"/>
			<path fill="#F6A32A" d="M77.3,49.4c4.4,3.7-0.4,21-0.4,20.6l-14.3,0.1c-0.1-0.4-4.1-13.8-1.8-19.5C62.9,45.8,74.5,47,77.3,49.4z"
				/>
			<path fill="#0D0F12" d="M75.6,86.2c-3.8-1.1-4.3,4.5-1.8,7.1c2.5,2.6,6.2,1.7,5.1-2.3C78.2,89.1,77.5,86.8,75.6,86.2z"/>
			<path fill="#0D0F12" d="M64,86.2c3.8-0.7,3.8,4.9,1.1,7.2c-2.8,2.4-6.3,1-4.8-2.8C61.1,88.7,62,86.5,64,86.2z"/>
			<path fill="#252728" d="M60.8,90.7c0.1-0.2,0.3-0.5,0.5-0.7c0.5,0.5,1.9,0.5,2.6,0.6c0.7,0.1,1.7,0.2,0.8,1
				c-0.7,0.7-1.9,1.2-2.9,1.1C60.8,92.6,60.5,91.5,60.8,90.7z"/>
			<path fill="#F6A32A" d="M77.2,49.4c0,0,1.4,0.6,2.8,1.5c2.3,1.5,4.6,5.1,7.6,9.1c-1.2,1.3-5.5,2.8-7.5,2.5c-0.6-2.3-2.4-4-2.4-4
				L77.2,49.4z"/>
			<path fill="#252728" d="M78.3,91.1c-0.1-0.3-0.2-0.5-0.4-0.7c-0.5,0.5-2,0.3-2.6,0.3c-0.7,0-1.7,0-0.9,0.9
				c0.6,0.7,1.7,1.3,2.7,1.4C78.1,92.9,78.5,91.9,78.3,91.1z"/>
			<path opacity="0.2" fill="#A19E99" d="M62.5,51.4c0,0,0.9,2.7,3.9,5.4l3.2-2.7l3,2.9c0,0,2.6-1.6,3.6-4.8c1-3.2-8-2.9-10.2-1.8
				C63.8,51.5,62.5,51.4,62.5,51.4z"/>
			<path fill="#EC681C" d="M69.6,54l-3,1.9c0,0-6-3.1-3.7-7.5c2-4,12.1-3.7,13.9,0.7c1.5,3.8-3.9,6.9-3.9,6.9L69.6,54z"/>
			<path fill="#F2B98E" d="M74.3,51.1c-0.6,0.6-1.5,1.2-2.5,1.5c-0.7,0.2-1.9,1-2.2,1.1c-0.1,0-0.5-0.4-1.2-0.7
				c-1-0.5-2.4-1.2-2.9-2.2c-0.8-1.5-1.5-4.6,0-5.8c1.5-1.2,4.5-1.4,6.4-1c1.9,0.4,3.2,2.2,3.3,4.1C75.3,49.4,75.1,50.3,74.3,51.1z"
				/>
			<path fill="#1D1D27" d="M77.3,71.5l0-0.6c0,0,0-0.1,0-0.1c0,0,0,0,0,0l0-1.5c0,0-7.4,1.3-14.9-0.1l0.2,2.3c0.4,8-1,14-1.7,16.6
				c1,0.6,3.2,1.2,4.9,1.3c0.6,0,3-0.4,3.7-0.8c-0.2-2.6-0.3-5.1-0.2-7.8c0-1.3,0-2.3,0.1-3.3c0.2-0.5,0.6-0.3,0.8,0.3
				c0.3,3.4,0.6,6.5,0.2,10.8c2.2,0.4,4.5,1.2,6.7,0.4c0.6-0.2,1.1-0.5,1.7-0.8C77.6,84.7,77.2,75.1,77.3,71.5z"/>
			<path fill="#0D0F12" d="M77.3,69.7c0,0-7,1.4-14.8-0.1l0.2,1.8c0,0,5.7,2.1,14.6,0.1L77.3,69.7z"/>
			<path fill="#3D3C40" d="M67.5,72.3c0-0.7,0-1.4,0.1-2.1c1.5,0.1,2.9,0.1,4.1,0c-0.1,0.7-0.1,1.3-0.1,2
				C70.1,72.4,68.7,72.3,67.5,72.3z"/>
			<path fill="#FBCBA0" d="M80.9,69.5c-0.5,0.2-0.1,1.5-1.1,2.2c-1,0.8,0.9,0,1.1,0.9c0.2,1-3.8,2.4-4.4-0.7c-0.7-3.7,2.1-4.4,5-4.8
				C84.8,66.8,80.9,69.5,80.9,69.5z"/>
			<g>
				<g>
					<path fill="#4F3023" d="M87,11c-1.5-2.8-4.3-4.9-7.8-5.7C71.1,3.6,57.6,5.2,53,11.9c-1.3,1.9-1.9,4.2-1.4,6.5
						c0.6,2.4,2.3,4,5,3.2c1.4-0.4,2.3-0.3,3.6,0.2c1.5,0.5,2.8,1.2,4.3,1.6c2.5,0.6,5.2,0.2,7.8,0.9c2.4,0.7,4.5,0.9,7,0
						c2.2-0.8,4.7-1.2,4.9-3.9c0.6,0.7,0.6,1.7,0.5,2.5c1.5-1,2.6-2.8,2.9-3.7C88.6,16.3,88.2,13.4,87,11z"/>
					<path fill="#FBCBA0" d="M83.3,27.7c-1.7-10.3-7-18.8-17.7-16.2C58,13.3,53.1,24.6,54.9,34.9c1.4,7.7,7.7,16,16.7,15
						C80.8,48.8,84.9,37.2,83.3,27.7z"/>
					<path opacity="0.3" fill="#BF3D1C" d="M60.2,20.5c-1.1,0.6-3.9,2.1-5.4-0.1c-0.7-1.1-0.3-2.7,0.1-4c0.5-1.5,2.2-2.5,3.5-3.1
						c2.5-1.2,5.5-1.2,8.3-1.3c3.1-0.1,6.2,0.3,9.2,1c2,0.5,5.7,0.8,6.5,3c1,2.8-2,3.3-4.1,3.4C73.2,19.6,62.5,19.2,60.2,20.5z"/>
					<path fill="#FBCBA0" d="M53.2,38.3c1,0.3,2.1,0.3,3.1,0.2c0,0,0-0.1,0.1-0.1c0.4-0.7-0.4-4.7-0.6-5.5c-0.7-1.9-1.8-2.8-3.6-2.3
						C48.3,31.9,50.1,37.4,53.2,38.3z"/>
					<path opacity="0.3" fill="#C94817" d="M54.6,36.9c1.3-0.9-0.1-3.8-1.1-4.2c-0.9-0.4-3,0.4-1.9,2.1c0.5-1.6,1.4-0.6,1.3,0.5
						c-0.1,0.7-0.9,0.8,0,1.7C53.3,37.4,54.2,37.2,54.6,36.9z"/>
					<path fill="#4F3023" d="M77.7,7.7c-1.8-0.8-4-1-5.9-0.9c-1.5,0.1-3.1-0.2-4.7-0.1c-1.7,0.1-3.4,0.4-5.1,0.7c-2,0.4-4,1-5.7,2
						c-1.5,0.9-2,2.9-2.7,4.4c-0.3,0.7-0.2,1.6-0.2,2.3c0,1.3,0,2.6,0.1,3.9c0.2,2.3,3.3,2.5,4.5,0.8c1-1.4,2.6-1.9,4.3-2
						c2.9-0.2,14.3-1.3,17-0.5c1.5,0.4,3.5,1.1,3.7-1.2c0.1-1.3-0.5-2.9-1-4.1c-0.6-1.5-1.3-3-2.5-4C79,8.4,78.4,8.1,77.7,7.7z"/>
					<path fill="#6A3B27" d="M54.5,16.7c-0.6-1.8,0.3-5.5,3.6-7.3c3.2-1.7,6.5-2.8,10.1-3.2c4.2-0.4,9.4-0.5,13.3,1.5
						c3,1.5,4.9,4.4,5.3,7.6c-2.3-0.6-5.2-0.2-7.6-0.2c0.8-0.8,1.7-1.1,2.7-1.7c-3,0.2-6.2,0.7-9,0.8c0.7-1.1,2.2-1.4,3.1-2.3
						c-3-0.1-6,1.7-8.9,2.3c-0.1-1,1.1-1.9,1.7-2.6c-1.7,0.1-8.3,3.3-9.7,4.2c0.3-0.8,1.8-2.7,2-3.6C59.4,12.7,55.7,14.7,54.5,16.7z
						"/>
					<path fill="#BF795C" d="M57.4,21.4c-0.7,4.9-1.2,7.3-0.4,11.6c0,0-2.3-2.3-4.1-2.5c-0.3-0.7-1-8.1,0-9.9
						C54.5,21,55.7,21.5,57.4,21.4z"/>
				</g>
				<g>
					<path fill="#F49E75" d="M83,32.4c0.1,0.2,0.2,0.3,0.3,0.6c0.6,2.1-4.2,1.6-4.8,0.7c-1.1-1.7,0.5-2.2,1.7-2.2
						C81,31.4,82.3,31.5,83,32.4z"/>
					<path fill="#F49E75" d="M63.1,32.9c0.2,0.1,0.3,0.3,0.4,0.5c1.2,2-3.9,2.7-4.7,1.9c-1.6-1.4-0.1-2.3,1.1-2.7
						C60.9,32.4,62.2,32.2,63.1,32.9z"/>
					<g>
						<path fill="#224245" d="M62.3,31.8c-0.6-0.3-1.3-0.3-2-0.1c-1.4-1.1-0.3-4.7,1.7-3.9C63.5,28.4,63.6,31.1,62.3,31.8z"/>
					</g>
					<path opacity="0.3" fill="#B64E26" d="M74.2,33.6c-0.5-0.6-1.2,0.1-2.5,0.2c-1.2,0.1-1.6-0.4-2.4,0.1c-0.8,0.5,0.4,2,2.5,1.8
						C73.8,35.5,74.6,34.1,74.2,33.6z"/>
					<path fill="#FDDEC3" d="M71.2,29.4c-2.2-0.1-2.1,4.5-1.6,4.9c1.3,0.9,3.8,0.1,4.5-0.7C74.4,33.3,73.3,29.5,71.2,29.4z"/>
					<g>
						<path fill="#224245" d="M81.1,26.9c1.1,0.6,1.2,2.8,0.4,3.8c-0.5-0.2-1.6-0.3-2.1,0.1C77.7,29.7,79,25.8,81.1,26.9z"/>
					</g>
					<path opacity="0.7" fill="#D4E5DD" d="M61.1,28.7c0.7-0.3,1.2,0.8,0.6,1.2C61,30.6,60.3,29,61.1,28.7z"/>
					<path opacity="0.7" fill="#D4E5DD" d="M80.1,27.6c0.7-0.2,1,0.9,0.5,1.3C79.8,29.3,79.3,27.8,80.1,27.6z"/>
					<g opacity="0.5">
						<path fill="#941914" d="M63.3,36.1c1.2,2.1-1.4,3.2-2.6,1.2C61.6,37.7,62.9,37.2,63.3,36.1z"/>
						<path fill="#941914" d="M78.3,35.1c-0.5,2.2,2.4,2.9,2.9,0.7C80.4,36.4,79.1,36.1,78.3,35.1z"/>
						<g>
							<path fill="#941914" d="M70.9,42.9c-4,0-7.3-2-8.7-4.7c-0.2-0.3,0-0.6,0.3-0.7c0.3-0.1,0.7,0,0.8,0.3c1.3,2.4,4.2,4.1,7.8,4
								c3.7-0.1,6.8-2.2,7.7-5.2c0.1-0.3,0.4-0.5,0.8-0.4c0.3,0.1,0.5,0.4,0.5,0.7c-1.1,3.5-4.6,5.9-8.9,6
								C71.1,42.9,71,42.9,70.9,42.9z"/>
						</g>
					</g>
					<path fill="#2C231D" d="M66.7,23.5c0.9,0.1,1.3,0.7,0.9,1.6c-0.3,0.7-2.2,0.2-4.7,0.1c-2.7-0.1-4.5,0.1-4.7-0.4
						c-0.2-0.5,1.4-1.3,3.8-1.5C63.6,23.2,65.1,23.3,66.7,23.5z"/>
					<path fill="#2C231D" d="M75.8,23.1c-0.8,0.2-1.2,0.8-0.7,1.7c0.3,0.7,2,0.1,4.2-0.1c2.4-0.3,4-0.1,4.1-0.7
						c0.2-0.5-1.3-1.2-3.4-1.3C78.5,22.6,77.2,22.8,75.8,23.1z"/>
				</g>
				<g>
					<path opacity="0.3" fill="#B64E26" d="M75.9,32.8c-0.4-0.3-0.8-0.7-1.1-1.1c-0.6-0.9-0.6-2-0.3-3c0.5-1.4,2-1.5,3.2-1.6
						c1.5-0.2,3-0.2,4.5-0.3c0.7-0.1,1.3,0,2,0c0.9,0,2.7-0.3,1.7-1.5c-1-1.2-2.9-1.2-4.3-1.1c-1.4,0.1-2.9,0.3-4.2,0.7
						c-1.2,0.3-2.6,0.5-3.7,1.1c-1,0.5-1.4,0.9-2.6,0.9c-2.2-0.1-4-1.4-6.2-1.6c-2.3-0.2-4.6-0.4-6.8,0.2c-0.6,0.2-2.3,0.9-1.1,1.5
						c1.2,0.6,2.9,0.4,4.2,0.4c0.6,0,1.2,0,1.8,0.1c2.1,0.2,5.3-0.2,5.1,2.4c-0.1,1.8-1.2,3.6-2.6,4c-1.4,0.3-2.9,0.5-4.3,0.5
						c-1.1,0-2.1-0.2-3.1-0.6c-0.3-0.1-1.1-0.6-1.4-0.3c-0.4,0.6,1.3,1.7,1.7,1.9c1,0.4,2.1,0.6,3.2,0.7c2.7,0.2,5.5,0,7-2.5
						c0.9-1.5,1.3-3.2,2.1-4.6c1.3-2.4,2,0.8,2.4,2.3c0.3,0.8,0.6,1.6,1.1,2.2c0.9,1.2,2.6,1.8,4.1,1.8c0.9,0,1.8,0,2.6-0.4
						c0.5-0.2,0.7-0.8,0.1-1c-0.4-0.1-0.9,0-1.3,0c-0.6,0-1.1,0-1.7-0.1C77.2,33.5,76.5,33.2,75.9,32.8z"/>
					<g>
						<path fill="#3A3A4A" d="M52.6,27.5c0,0,0.6,0.4,1.4,0.4c0.2,1.2,0.4,4.4,2.8,6.3c2,1.5,8.2,1.5,10.1,0.4
							c2.3-1.4,3.1-3.7,3.4-5.9c0.6-5.4-12-3.6-14.5-3.4c-1.8,0.2-3.3-0.2-3.7,0.2C51.6,26,52.6,27.5,52.6,27.5z M55.9,27.8
							c2.1-1.5,10.6-1.7,12.7-0.3c1,0.7,0,4.4-1.6,5.7c-2.2,1.7-8.3,1.4-10-0.4C55.7,31.4,55.2,28.3,55.9,27.8z"/>
					</g>
					<g>
						<path fill="#3A3A4A" d="M88.7,23.9c-0.4-0.4-1.8,0.2-3.4,0.1c-2.3,0-13.8-0.7-12.8,4.7c0.4,2.2,1.3,4.4,3.5,5.6
							c1.8,0.9,7.3,0.4,9-1.3c2-2.1,1.9-5.2,2-6.5c0.8-0.1,1.3-0.5,1.3-0.5S89.2,24.3,88.7,23.9z M84.8,31.5c-1.4,2-6.8,2.8-9,1.3
							c-1.6-1.1-2.8-4.8-1.9-5.5c1.8-1.5,9.4-2.2,11.5-0.8C86.1,26.9,85.9,30,84.8,31.5z"/>
					</g>
					<path opacity="0.3" fill="#FFFFFF" d="M75.4,26.8c1.4-0.6,8.6-1.1,9.4-0.3c0.6,0.5-1.5,1.4-2.4,1.5c-1.8,0.3-3.8,0.4-5.4,0.1
						C76.4,28.1,74.2,27.4,75.4,26.8z"/>
					<path fill="#FED275" d="M81.1,26.6c1.5-0.2,4,0,3.7,0.5c-0.3,0.5-4.3,0.7-4.6,0.1C79.9,26.9,80.4,26.7,81.1,26.6z"/>
					<path opacity="0.7" fill="#FFFFFF" d="M76.8,31.4c0.9,0,2.4,0.5,2.2,0.8c-0.2,0.3-2.7,0-2.9-0.5C76.1,31.5,76.4,31.4,76.8,31.4
						z"/>
					<path opacity="0.7" fill="#FFFFFF" d="M58.3,32.2c1,0.1,2.5,0.7,2.3,1c-0.3,0.3-2.9-0.1-3-0.7C57.5,32.2,57.9,32.2,58.3,32.2z"
						/>
					<path opacity="0.3" fill="#FFFFFF" d="M57.3,27.5c0.8-0.8,8.7-0.8,10.3-0.3c1.5,0.4-0.9,1.2-1.4,1.3c-1.8,0.4-3.9,0.4-6,0.3
						C59.2,28.7,56.8,28.1,57.3,27.5z"/>
					<path fill="#FED275" d="M64.2,27c1.5-0.2,4.2,0.1,3.9,0.6c-0.3,0.5-4.5,0.6-4.9,0C63,27.3,63.5,27.1,64.2,27z"/>
					<path fill="#3A3A4A" d="M68.4,25.7c2.2,0.6,3.9,0.4,5.7-0.2c1.7-0.6,0,0.9-0.3,1.2c-0.3,0.4-0.3,4.3-1.1,2.8
						c-0.8-1.5-1.9-1.4-2.5,0.2c-0.6,1.7-0.4-1.3-0.6-2.2C69.4,26.7,66.6,25.2,68.4,25.7z"/>
					<path fill="#C2C6CA" d="M68.3,26.4c-2-1.4-5.3-1.5-11.6-0.6C61.5,25.6,65.3,25.5,68.3,26.4z"/>
					<path fill="#C2C6CA" d="M74.7,26c1.6-1.5,4.3-1.4,10.2-1.5C80.5,24.9,77.2,24.8,74.7,26z"/>
				</g>
			</g>
		</g>
	</g>
</g>
</svg>
