<?xml version="1.0" encoding="utf-8"?>
<!-- Generator: Adobe Illustrator 18.1.1, SVG Export Plug-In . SVG Version: 6.00 Build 0)  -->
<svg version="1.1" xmlns="http://www.w3.org/2000/svg" xmlns:xlink="http://www.w3.org/1999/xlink" x="0px" y="0px"
	 viewBox="0 0 100 100" enable-background="new 0 0 100 100" xml:space="preserve">
<g id="Capa_1">
</g>
<g id="Capa_2">
	<g>
		<g>
			<linearGradient id="SVGID_1_" gradientUnits="userSpaceOnUse" x1="23.0508" y1="84.8768" x2="76.4518" y2="84.8768">
				<stop  offset="0" style="stop-color:#25B3FF"/>
				<stop  offset="0.1162" style="stop-color:#20A9FE"/>
				<stop  offset="0.707" style="stop-color:#0A78FC"/>
				<stop  offset="1" style="stop-color:#0165FB"/>
			</linearGradient>
			<path fill="url(#SVGID_1_)" d="M76.5,75.9c0,0.3,0,0.5-0.1,0.8c0,0.3,0,0.6-0.1,0.8c0,0.2-0.1,0.5-0.2,0.7
				c-0.1,0.3-0.1,0.5-0.2,0.8c-0.1,0.2-0.2,0.4-0.3,0.7c-0.1,0.3-0.2,0.6-0.4,0.8c-0.1,0.2-0.2,0.4-0.4,0.6
				c-0.2,0.3-0.4,0.6-0.6,0.9c-0.2,0.3-0.5,0.6-0.7,0.9c-0.1,0.1-0.1,0.1-0.2,0.2c-0.3,0.4-0.7,0.7-1.1,1.1
				c-0.3,0.2-0.5,0.5-0.8,0.7c-0.2,0.2-0.5,0.4-0.7,0.6c-0.3,0.2-0.6,0.4-1,0.6c-0.3,0.2-0.7,0.4-1,0.7c-0.8,0.5-1.7,0.9-2.5,1.3
				c-0.3,0.1-0.5,0.2-0.8,0.3c-0.7,0.3-1.4,0.6-2.1,0.8c-0.3,0.1-0.5,0.2-0.8,0.3c-0.5,0.1-0.9,0.3-1.4,0.4
				c-0.3,0.1-0.7,0.2-1.1,0.3c-0.5,0.1-1,0.2-1.5,0.3c-0.3,0.1-0.7,0.1-1,0.2c-1,0.2-2,0.3-3,0.4c-0.3,0-0.6,0.1-1,0.1
				c-0.6,0.1-1.2,0.1-1.8,0.1c-0.4,0-0.8,0-1.2,0c-0.5,0-1,0-1.5,0c-0.4,0-0.8,0-1.2,0c-0.5,0-0.9,0-1.4-0.1c-0.4,0-0.8-0.1-1.2-0.1
				c-0.4,0-0.9-0.1-1.3-0.1c-0.4-0.1-0.8-0.1-1.2-0.2c-0.5-0.1-0.9-0.2-1.4-0.2c-0.4-0.1-0.7-0.1-1.1-0.2c-0.6-0.1-1.1-0.3-1.7-0.4
				c-0.3-0.1-0.6-0.2-0.9-0.2c-1-0.3-1.9-0.6-2.9-1c-0.5-0.2-0.9-0.4-1.4-0.6c-0.2-0.1-0.5-0.2-0.7-0.3c-0.7-0.3-1.3-0.7-2-1
				c-5.3-3-7.9-7-7.9-11l0,2.6c0,4,2.6,8,7.9,11c0.6,0.4,1.3,0.7,2,1c0.2,0.1,0.5,0.2,0.7,0.3c0.4,0.2,0.8,0.4,1.2,0.5
				c0,0,0.1,0,0.1,0c0.9,0.4,1.9,0.7,2.9,1c0.1,0,0.2,0.1,0.2,0.1c0.2,0.1,0.5,0.1,0.7,0.2c0.5,0.1,1.1,0.3,1.7,0.4
				c0.1,0,0.3,0.1,0.4,0.1c0.2,0,0.4,0.1,0.7,0.1c0.5,0.1,0.9,0.2,1.4,0.2c0.2,0,0.4,0.1,0.6,0.1c0.2,0,0.4,0,0.6,0.1
				c0.4,0.1,0.9,0.1,1.3,0.1c0.2,0,0.4,0.1,0.6,0.1c0.2,0,0.4,0,0.6,0c0.5,0,0.9,0.1,1.4,0.1c0.2,0,0.5,0,0.7,0c0.2,0,0.4,0,0.5,0
				c0.5,0,1,0,1.5,0c0.2,0,0.5,0,0.7,0c0.1,0,0.3,0,0.4,0c0.6,0,1.2-0.1,1.8-0.1c0.2,0,0.5,0,0.7,0c0.1,0,0.1,0,0.2,0
				c1-0.1,2-0.2,3-0.4c0,0,0.1,0,0.1,0c0.3-0.1,0.6-0.1,0.9-0.2c0.5-0.1,1-0.2,1.5-0.3c0.4-0.1,0.7-0.2,1.1-0.3
				c0.5-0.1,0.9-0.2,1.4-0.4c0.1,0,0.2-0.1,0.3-0.1c0.2-0.1,0.3-0.1,0.5-0.2c0.7-0.2,1.4-0.5,2.1-0.8c0.3-0.1,0.5-0.2,0.8-0.3
				c0.9-0.4,1.7-0.8,2.5-1.3c0.1-0.1,0.2-0.1,0.3-0.2c0.2-0.1,0.5-0.3,0.7-0.5c0.3-0.2,0.7-0.4,1-0.6c0.3-0.2,0.5-0.4,0.7-0.6
				c0.3-0.2,0.6-0.4,0.8-0.7c0.1,0,0.1-0.1,0.2-0.1c0.3-0.3,0.7-0.6,1-1c0.1-0.1,0.1-0.1,0.2-0.2c0.2-0.2,0.4-0.4,0.5-0.6
				c0.1-0.1,0.1-0.2,0.2-0.3c0.2-0.3,0.4-0.6,0.6-0.9c0.1-0.1,0.2-0.3,0.3-0.4c0-0.1,0.1-0.1,0.1-0.2c0.1-0.3,0.3-0.6,0.4-0.8
				c0.1-0.2,0.2-0.3,0.2-0.5c0-0.1,0-0.1,0-0.2c0.1-0.3,0.2-0.5,0.2-0.8c0-0.2,0.1-0.4,0.2-0.5c0,0,0-0.1,0-0.1
				c0.1-0.3,0.1-0.6,0.1-0.8c0-0.2,0.1-0.4,0.1-0.5c0-0.1,0-0.2,0-0.2l0,0L76.5,75.9z"/>
			<g>
				<linearGradient id="SVGID_2_" gradientUnits="userSpaceOnUse" x1="22.9316" y1="78.9264" x2="87.1469" y2="71.5225">
					<stop  offset="0" style="stop-color:#A1E3FF"/>
					<stop  offset="0.3593" style="stop-color:#85D2FF"/>
					<stop  offset="0.7564" style="stop-color:#6DC3FF"/>
					<stop  offset="1" style="stop-color:#64BDFF"/>
				</linearGradient>
				<path fill="url(#SVGID_2_)" d="M68.6,64.9c10.5,6.1,10.5,15.9,0.1,21.9c-10.4,6.1-27.4,6.1-37.9,0c-10.5-6.1-10.5-15.9-0.1-21.9
					C41.1,58.8,58.1,58.8,68.6,64.9z"/>
			</g>
		</g>
		<path opacity="0.5" fill="#FFFFFF" d="M68.7,86.6c-10.4,6.1-27.4,6.1-37.9,0c-5.2-3-7.8-6.9-7.9-10.9c0,4,2.6,8,7.9,11.1
			c10.5,6.1,27.4,6.1,37.9,0c5.3-3.1,7.8-7.1,7.8-11.1C76.4,79.7,73.8,83.6,68.7,86.6z"/>
		<linearGradient id="SVGID_3_" gradientUnits="userSpaceOnUse" x1="28.0278" y1="77.6243" x2="71.7334" y2="77.6243">
			<stop  offset="0" style="stop-color:#2571F1"/>
			<stop  offset="0.4256" style="stop-color:#1449B4"/>
			<stop  offset="0.8102" style="stop-color:#062983"/>
			<stop  offset="1" style="stop-color:#011D70"/>
		</linearGradient>
		<path opacity="0.2" fill="url(#SVGID_3_)" d="M71.6,67.4c0,0.2,0,0.4-0.1,0.6c0,0.2,0,0.5-0.1,0.7c0,0.2-0.1,0.4-0.1,0.6
			c-0.1,0.2-0.1,0.4-0.2,0.7c-0.1,0.2-0.1,0.4-0.2,0.5c-0.1,0.2-0.2,0.5-0.3,0.7c-0.1,0.2-0.2,0.3-0.3,0.5c-0.2,0.3-0.3,0.5-0.5,0.8
			c-0.2,0.2-0.4,0.5-0.6,0.7c0,0.1-0.1,0.1-0.1,0.2c-0.3,0.3-0.6,0.6-0.9,0.9c-0.2,0.2-0.4,0.4-0.7,0.6c-0.2,0.2-0.4,0.3-0.6,0.5
			c-0.2,0.2-0.5,0.4-0.8,0.5c-0.3,0.2-0.5,0.4-0.8,0.5c-0.7,0.4-1.4,0.7-2.1,1c-0.2,0.1-0.4,0.2-0.6,0.3c-0.6,0.2-1.1,0.5-1.7,0.7
			c-0.2,0.1-0.4,0.1-0.6,0.2c-0.4,0.1-0.8,0.2-1.1,0.3c-0.3,0.1-0.6,0.2-0.9,0.2c-0.4,0.1-0.8,0.2-1.2,0.3c-0.3,0.1-0.5,0.1-0.8,0.2
			c-0.8,0.1-1.7,0.3-2.5,0.3c-0.3,0-0.5,0-0.8,0.1c-0.5,0-1,0.1-1.5,0.1c-0.3,0-0.6,0-1,0c-0.4,0-0.8,0-1.2,0c-0.3,0-0.7,0-1,0
			c-0.4,0-0.7,0-1.1-0.1c-0.3,0-0.7-0.1-1-0.1c-0.4,0-0.7-0.1-1.1-0.1c-0.3,0-0.7-0.1-1-0.1c-0.4-0.1-0.8-0.1-1.2-0.2
			c-0.3-0.1-0.6-0.1-0.9-0.2c-0.5-0.1-0.9-0.2-1.4-0.3c-0.3-0.1-0.5-0.1-0.7-0.2c-0.8-0.2-1.6-0.5-2.4-0.8c-0.4-0.1-0.7-0.3-1.1-0.5
			c-0.2-0.1-0.4-0.2-0.6-0.2c-0.6-0.3-1.1-0.5-1.6-0.8c-4.3-2.5-6.5-5.8-6.5-9l0,8c0,3.3,2.1,6.5,6.5,9c0.5,0.3,1.1,0.6,1.6,0.8
			c0.2,0.1,0.4,0.2,0.6,0.2c0.3,0.1,0.7,0.3,1,0.4c0,0,0.1,0,0.1,0c0.8,0.3,1.5,0.6,2.4,0.8c0.1,0,0.1,0,0.2,0.1
			c0.2,0.1,0.4,0.1,0.6,0.1c0.4,0.1,0.9,0.2,1.4,0.3c0.1,0,0.2,0.1,0.4,0.1c0.2,0,0.4,0.1,0.5,0.1c0.4,0.1,0.8,0.1,1.2,0.2
			c0.2,0,0.3,0.1,0.5,0.1c0.2,0,0.3,0,0.5,0.1c0.4,0,0.7,0.1,1.1,0.1c0.2,0,0.3,0,0.5,0.1c0.2,0,0.3,0,0.5,0c0.4,0,0.7,0,1.1,0.1
			c0.2,0,0.4,0,0.6,0c0.1,0,0.3,0,0.4,0c0.4,0,0.8,0,1.2,0c0.2,0,0.4,0,0.6,0c0.1,0,0.2,0,0.4,0c0.5,0,1-0.1,1.5-0.1
			c0.2,0,0.4,0,0.6,0c0.1,0,0.1,0,0.2,0c0.8-0.1,1.7-0.2,2.5-0.3c0,0,0.1,0,0.1,0c0.2,0,0.5-0.1,0.7-0.2c0.4-0.1,0.8-0.2,1.2-0.3
			c0.3-0.1,0.6-0.2,0.9-0.2c0.4-0.1,0.8-0.2,1.1-0.3c0.1,0,0.2,0,0.2-0.1c0.1,0,0.3-0.1,0.4-0.1c0.6-0.2,1.2-0.4,1.7-0.7
			c0.2-0.1,0.4-0.2,0.6-0.3c0.7-0.3,1.4-0.7,2.1-1c0.1-0.1,0.2-0.1,0.3-0.2c0.2-0.1,0.4-0.3,0.6-0.4c0.3-0.2,0.5-0.3,0.8-0.5
			c0.2-0.2,0.4-0.3,0.6-0.5c0.2-0.2,0.5-0.4,0.7-0.6c0,0,0.1-0.1,0.1-0.1c0.3-0.3,0.5-0.5,0.8-0.8c0.1-0.1,0.1-0.1,0.1-0.2
			c0.1-0.2,0.3-0.3,0.4-0.5c0.1-0.1,0.1-0.1,0.1-0.2c0.2-0.3,0.4-0.5,0.5-0.8c0.1-0.1,0.2-0.2,0.2-0.3c0-0.1,0-0.1,0.1-0.2
			c0.1-0.2,0.2-0.5,0.3-0.7c0.1-0.1,0.1-0.3,0.2-0.4c0,0,0-0.1,0-0.1c0.1-0.2,0.1-0.4,0.2-0.7c0-0.1,0.1-0.3,0.1-0.4
			c0,0,0-0.1,0-0.1c0-0.2,0.1-0.5,0.1-0.7c0-0.1,0-0.3,0.1-0.4c0-0.1,0-0.1,0-0.2l0,0L71.6,67.4z"/>
		<linearGradient id="SVGID_4_" gradientUnits="userSpaceOnUse" x1="28.0278" y1="75.4392" x2="71.7334" y2="75.4392">
			<stop  offset="0" style="stop-color:#2571F1"/>
			<stop  offset="0.4256" style="stop-color:#1449B4"/>
			<stop  offset="0.8102" style="stop-color:#062983"/>
			<stop  offset="1" style="stop-color:#011D70"/>
		</linearGradient>
		<path fill="url(#SVGID_4_)" d="M71.6,65.2c0,0.2,0,0.4-0.1,0.6c0,0.2,0,0.5-0.1,0.7c0,0.2-0.1,0.4-0.1,0.6
			c-0.1,0.2-0.1,0.4-0.2,0.7c-0.1,0.2-0.1,0.4-0.2,0.5c-0.1,0.2-0.2,0.5-0.3,0.7c-0.1,0.2-0.2,0.3-0.3,0.5c-0.2,0.3-0.3,0.5-0.5,0.8
			c-0.2,0.2-0.4,0.5-0.6,0.7c0,0.1-0.1,0.1-0.1,0.2c-0.3,0.3-0.6,0.6-0.9,0.9c-0.2,0.2-0.4,0.4-0.7,0.6c-0.2,0.2-0.4,0.3-0.6,0.5
			c-0.2,0.2-0.5,0.4-0.8,0.5c-0.3,0.2-0.5,0.4-0.8,0.5c-0.7,0.4-1.4,0.7-2.1,1c-0.2,0.1-0.4,0.2-0.6,0.3c-0.6,0.2-1.1,0.5-1.7,0.7
			c-0.2,0.1-0.4,0.1-0.6,0.2c-0.4,0.1-0.8,0.2-1.1,0.3c-0.3,0.1-0.6,0.2-0.9,0.2c-0.4,0.1-0.8,0.2-1.2,0.3c-0.3,0.1-0.5,0.1-0.8,0.2
			c-0.8,0.1-1.7,0.3-2.5,0.3c-0.3,0-0.5,0-0.8,0.1c-0.5,0-1,0.1-1.5,0.1c-0.3,0-0.6,0-1,0c-0.4,0-0.8,0-1.2,0c-0.3,0-0.7,0-1,0
			c-0.4,0-0.7,0-1.1-0.1c-0.3,0-0.7-0.1-1-0.1c-0.4,0-0.7-0.1-1.1-0.1c-0.3,0-0.7-0.1-1-0.1c-0.4-0.1-0.8-0.1-1.2-0.2
			c-0.3-0.1-0.6-0.1-0.9-0.2c-0.5-0.1-0.9-0.2-1.4-0.3c-0.3-0.1-0.5-0.1-0.7-0.2c-0.8-0.2-1.6-0.5-2.4-0.8c-0.4-0.1-0.7-0.3-1.1-0.5
			C36.2,75.1,36,75,35.8,75c-0.6-0.3-1.1-0.5-1.6-0.8c-4.3-2.5-6.5-5.8-6.5-9l0,8c0,3.3,2.1,6.5,6.5,9c0.5,0.3,1.1,0.6,1.6,0.8
			c0.2,0.1,0.4,0.2,0.6,0.2c0.3,0.1,0.7,0.3,1,0.4c0,0,0.1,0,0.1,0c0.8,0.3,1.5,0.6,2.4,0.8c0.1,0,0.1,0,0.2,0.1
			c0.2,0.1,0.4,0.1,0.6,0.1c0.4,0.1,0.9,0.2,1.4,0.3c0.1,0,0.2,0.1,0.4,0.1c0.2,0,0.4,0.1,0.5,0.1c0.4,0.1,0.8,0.1,1.2,0.2
			c0.2,0,0.3,0.1,0.5,0.1c0.2,0,0.3,0,0.5,0.1c0.4,0,0.7,0.1,1.1,0.1c0.2,0,0.3,0,0.5,0.1c0.2,0,0.3,0,0.5,0c0.4,0,0.7,0,1.1,0.1
			c0.2,0,0.4,0,0.6,0c0.1,0,0.3,0,0.4,0c0.4,0,0.8,0,1.2,0c0.2,0,0.4,0,0.6,0c0.1,0,0.2,0,0.4,0c0.5,0,1-0.1,1.5-0.1
			c0.2,0,0.4,0,0.6,0c0.1,0,0.1,0,0.2,0c0.8-0.1,1.7-0.2,2.5-0.3c0,0,0.1,0,0.1,0c0.2,0,0.5-0.1,0.7-0.2c0.4-0.1,0.8-0.2,1.2-0.3
			c0.3-0.1,0.6-0.2,0.9-0.2c0.4-0.1,0.8-0.2,1.1-0.3c0.1,0,0.2,0,0.2-0.1c0.1,0,0.3-0.1,0.4-0.1c0.6-0.2,1.2-0.4,1.7-0.7
			c0.2-0.1,0.4-0.2,0.6-0.3c0.7-0.3,1.4-0.7,2.1-1c0.1-0.1,0.2-0.1,0.3-0.2c0.2-0.1,0.4-0.3,0.6-0.4c0.3-0.2,0.5-0.3,0.8-0.5
			c0.2-0.2,0.4-0.3,0.6-0.5c0.2-0.2,0.5-0.4,0.7-0.6c0,0,0.1-0.1,0.1-0.1c0.3-0.3,0.5-0.5,0.8-0.8c0.1-0.1,0.1-0.1,0.1-0.2
			c0.1-0.2,0.3-0.3,0.4-0.5c0.1-0.1,0.1-0.1,0.1-0.2c0.2-0.3,0.4-0.5,0.5-0.8c0.1-0.1,0.2-0.2,0.2-0.3c0-0.1,0-0.1,0.1-0.2
			c0.1-0.2,0.2-0.5,0.3-0.7c0.1-0.1,0.1-0.3,0.2-0.4c0,0,0-0.1,0-0.1c0.1-0.2,0.1-0.4,0.2-0.7c0-0.1,0.1-0.3,0.1-0.4
			c0,0,0-0.1,0-0.1c0-0.2,0.1-0.5,0.1-0.7c0-0.2,0-0.3,0.1-0.4c0-0.1,0-0.1,0-0.2l0,0L71.6,65.2z"/>
		<g>
			<linearGradient id="SVGID_5_" gradientUnits="userSpaceOnUse" x1="27.7759" y1="67.6628" x2="80.3323" y2="61.6031">
				<stop  offset="0" style="stop-color:#25D8EF"/>
				<stop  offset="7.685381e-002" style="stop-color:#24C9E8"/>
				<stop  offset="0.3885" style="stop-color:#2092D0"/>
				<stop  offset="0.6573" style="stop-color:#1D6BBE"/>
				<stop  offset="0.87" style="stop-color:#1C52B3"/>
				<stop  offset="1" style="stop-color:#1B49AF"/>
			</linearGradient>
			<path fill="url(#SVGID_5_)" d="M65.1,56.2c8.6,5,8.6,13,0.1,17.9c-8.5,5-22.4,5-31,0c-8.6-5-8.6-13-0.1-17.9
				C42.7,51.2,56.5,51.2,65.1,56.2z"/>
		</g>
		<path opacity="0.5" fill="#FFFFFF" d="M65.2,73.9c-8.5,5-22.4,5-31,0c-4.2-2.4-6.4-5.7-6.5-8.9c0,3.3,2.1,6.6,6.5,9.1
			c8.6,5,22.5,5,31,0c4.3-2.5,6.4-5.8,6.4-9.1C71.5,68.2,69.4,71.4,65.2,73.9z"/>
		<g>
			<g opacity="0.5">
				<path opacity="0" fill="#FFFFFF" d="M62.6,63.6c7.2,3.2,7.2,8.5,0.1,11.7c-7.1,3.2-18.7,3.2-25.9,0c-7.2-3.2-7.2-8.5-0.1-11.7
					C43.8,60.3,55.4,60.3,62.6,63.6z"/>
				<path opacity="1.960800e-002" fill="#FBFAFD" d="M62.4,63.6c7.1,3.2,7.1,8.4,0.1,11.6c-7,3.2-18.5,3.2-25.5,0
					c-7.1-3.2-7.1-8.4-0.1-11.6C43.9,60.4,55.3,60.4,62.4,63.6z"/>
				<path opacity="3.921600e-002" fill="#F7F5FA" d="M62.2,63.6c7,3.1,7,8.3,0.1,11.4c-6.9,3.1-18.2,3.1-25.2,0
					c-7-3.1-7-8.3-0.1-11.4C43.9,60.4,55.2,60.4,62.2,63.6z"/>
				<path opacity="5.882400e-002" fill="#F3F1F8" d="M62,63.6c6.9,3.1,6.9,8.1,0.1,11.2c-6.8,3.1-17.9,3.1-24.8,0
					c-6.9-3.1-6.9-8.1-0.1-11.2C44,60.5,55.2,60.5,62,63.6z"/>
				<path opacity="7.843100e-002" fill="#F0ECF6" d="M61.8,63.6c6.8,3.1,6.8,8,0.1,11.1c-6.7,3.1-17.7,3.1-24.4,0
					c-6.7-3.1-6.8-8-0.1-11.1C44.1,60.6,55.1,60.6,61.8,63.6z"/>
				<path opacity="9.803900e-002" fill="#ECE7F3" d="M61.6,63.6c6.7,3,6.7,7.9,0.1,10.9c-6.6,3-17.4,3-24,0c-6.6-3-6.7-7.9-0.1-10.9
					C44.2,60.6,55,60.6,61.6,63.6z"/>
				<path opacity="0.1176" fill="#E8E2F1" d="M61.4,63.6c6.5,3,6.6,7.8,0.1,10.7c-6.5,3-17.1,3-23.7,0c-6.5-3-6.6-7.8-0.1-10.7
					C44.3,60.7,54.9,60.7,61.4,63.6z"/>
				<path opacity="0.1373" fill="#E4DDEF" d="M61.3,63.6c6.4,2.9,6.5,7.7,0.1,10.6c-6.4,2.9-16.8,2.9-23.3,0
					c-6.4-2.9-6.5-7.6-0.1-10.6C44.4,60.7,54.8,60.7,61.3,63.6z"/>
				<path opacity="0.1569" fill="#E0D9EC" d="M61.1,63.6c6.3,2.9,6.4,7.5,0.1,10.4c-6.3,2.9-16.6,2.9-22.9,0
					c-6.3-2.9-6.4-7.5-0.1-10.4C44.5,60.8,54.7,60.8,61.1,63.6z"/>
				<path opacity="0.1765" fill="#DCD4EA" d="M60.9,63.7c6.2,2.8,6.3,7.4,0.1,10.2c-6.2,2.8-16.3,2.8-22.5,0
					c-6.2-2.8-6.3-7.4-0.1-10.2C44.5,60.8,54.7,60.8,60.9,63.7z"/>
				<path opacity="0.1961" fill="#D8CFE8" d="M60.7,63.7c6.1,2.8,6.2,7.3,0.1,10.1c-6.1,2.8-16,2.8-22.2,0
					c-6.1-2.8-6.2-7.3-0.1-10.1C44.6,60.9,54.6,60.9,60.7,63.7z"/>
				<path opacity="0.2157" fill="#D5CAE5" d="M60.5,63.7c6,2.7,6.1,7.2,0.1,9.9c-6,2.7-15.8,2.7-21.8,0c-6-2.7-6.1-7.2-0.1-9.9
					C44.7,60.9,54.5,60.9,60.5,63.7z"/>
				<path opacity="0.2353" fill="#D1C5E3" d="M60.3,63.7c5.9,2.7,6,7,0.1,9.7c-5.9,2.7-15.5,2.7-21.4,0c-5.9-2.7-6-7-0.1-9.7
					C44.8,61,54.4,61,60.3,63.7z"/>
				<path opacity="0.2549" fill="#CDC1E1" d="M60.1,63.7c5.8,2.6,5.9,6.9,0.1,9.5c-5.8,2.6-15.2,2.6-21,0c-5.8-2.6-5.9-6.9-0.1-9.5
					C44.9,61.1,54.3,61.1,60.1,63.7z"/>
				<path opacity="0.2745" fill="#C9BCDE" d="M60,63.7c5.7,2.6,5.7,6.8,0.1,9.4c-5.7,2.6-15,2.6-20.7,0c-5.7-2.6-5.8-6.8-0.1-9.4
					C45,61.1,54.2,61.1,60,63.7z"/>
				<path opacity="0.2941" fill="#C5B7DC" d="M59.8,63.7c5.6,2.5,5.6,6.7,0.1,9.2c-5.6,2.5-14.7,2.5-20.3,0
					c-5.6-2.5-5.6-6.7-0.1-9.2C45,61.2,54.2,61.2,59.8,63.7z"/>
				<path opacity="0.3137" fill="#C1B2DA" d="M59.6,63.7c5.5,2.5,5.5,6.5,0.1,9c-5.5,2.5-14.4,2.5-19.9,0c-5.5-2.5-5.5-6.5-0.1-9
					C45.1,61.2,54.1,61.2,59.6,63.7z"/>
				<path opacity="0.3333" fill="#BDADD7" d="M59.4,63.7c5.4,2.4,5.4,6.4,0.1,8.9c-5.4,2.4-14.1,2.4-19.6,0
					c-5.4-2.4-5.4-6.4-0.1-8.9C45.2,61.3,54,61.3,59.4,63.7z"/>
				<path opacity="0.3529" fill="#B9A9D5" d="M59.2,63.7c5.3,2.4,5.3,6.3,0.1,8.7c-5.3,2.4-13.9,2.4-19.2,0
					c-5.3-2.4-5.3-6.3-0.1-8.7C45.3,61.3,53.9,61.3,59.2,63.7z"/>
				<path opacity="0.3725" fill="#B6A4D3" d="M59,63.7c5.2,2.4,5.2,6.2,0.1,8.5c-5.2,2.4-13.6,2.4-18.8,0c-5.2-2.4-5.2-6.2-0.1-8.5
					C45.4,61.4,53.8,61.4,59,63.7z"/>
				<path opacity="0.3922" fill="#B29FD0" d="M58.8,63.7c5.1,2.3,5.1,6.1,0.1,8.4c-5.1,2.3-13.3,2.3-18.4,0
					c-5.1-2.3-5.1-6.1-0.1-8.4C45.5,61.4,53.7,61.4,58.8,63.7z"/>
				<path opacity="0.4118" fill="#AE9ACE" d="M58.7,63.8c5,2.3,5,5.9,0.1,8.2c-5,2.3-13.1,2.3-18.1,0c-5-2.3-5-5.9-0.1-8.2
					C45.6,61.5,53.7,61.5,58.7,63.8z"/>
				<path opacity="0.4314" fill="#AA95CC" d="M58.5,63.8c4.9,2.2,4.9,5.8,0.1,8c-4.9,2.2-12.8,2.2-17.7,0c-4.9-2.2-4.9-5.8-0.1-8
					C45.6,61.6,53.6,61.6,58.5,63.8z"/>
				<path opacity="0.451" fill="#A691C9" d="M58.3,63.8c4.8,2.2,4.8,5.7,0.1,7.9c-4.8,2.2-12.5,2.2-17.3,0c-4.8-2.2-4.8-5.7-0.1-7.9
					C45.7,61.6,53.5,61.6,58.3,63.8z"/>
				<path opacity="0.4706" fill="#A28CC7" d="M58.1,63.8c4.7,2.1,4.7,5.6,0.1,7.7c-4.7,2.1-12.3,2.1-16.9,0
					c-4.7-2.1-4.7-5.6-0.1-7.7C45.8,61.7,53.4,61.7,58.1,63.8z"/>
				<path opacity="0.4902" fill="#9E87C5" d="M57.9,63.8c4.6,2.1,4.6,5.4,0.1,7.5c-4.6,2.1-12,2.1-16.6,0c-4.6-2.1-4.6-5.4-0.1-7.5
					C45.9,61.7,53.3,61.7,57.9,63.8z"/>
				<path opacity="0.5098" fill="#9B82C2" d="M57.7,63.8c4.5,2,4.5,5.3,0.1,7.3c-4.5,2-11.7,2-16.2,0c-4.5-2-4.5-5.3-0.1-7.3
					C46,61.8,53.3,61.8,57.7,63.8z"/>
				<path opacity="0.5294" fill="#977DC0" d="M57.5,63.8c4.4,2,4.4,5.2,0.1,7.2c-4.4,2-11.4,2-15.8,0c-4.4-2-4.4-5.2-0.1-7.2
					C46.1,61.8,53.2,61.8,57.5,63.8z"/>
				<path opacity="0.549" fill="#9378BE" d="M57.4,63.8c4.3,1.9,4.3,5.1,0.1,7c-4.2,1.9-11.2,1.9-15.5,0c-4.3-1.9-4.3-5.1-0.1-7
					C46.2,61.9,53.1,61.9,57.4,63.8z"/>
				<path opacity="0.5686" fill="#8F74BB" d="M57.2,63.8c4.2,1.9,4.2,5,0,6.8c-4.1,1.9-10.9,1.9-15.1,0c-4.2-1.9-4.2-5,0-6.8
					C46.2,61.9,53,61.9,57.2,63.8z"/>
				<path opacity="0.5882" fill="#8B6FB9" d="M57,63.8c4.1,1.8,4.1,4.8,0,6.7c-4,1.8-10.6,1.8-14.7,0c-4.1-1.8-4.1-4.8,0-6.7
					C46.3,62,52.9,62,57,63.8z"/>
				<path opacity="0.6078" fill="#876AB7" d="M56.8,63.8c4,1.8,4,4.7,0,6.5c-3.9,1.8-10.4,1.8-14.3,0c-4-1.8-4-4.7,0-6.5
					C46.4,62.1,52.8,62.1,56.8,63.8z"/>
				<path opacity="0.6275" fill="#8365B4" d="M56.6,63.9c3.9,1.7,3.9,4.6,0,6.3c-3.8,1.7-10.1,1.7-14,0c-3.9-1.7-3.9-4.6,0-6.3
					C46.5,62.1,52.8,62.1,56.6,63.9z"/>
				<path opacity="0.6471" fill="#8060B2" d="M56.4,63.9c3.8,1.7,3.8,4.5,0,6.2c-3.7,1.7-9.8,1.7-13.6,0c-3.8-1.7-3.8-4.5,0-6.2
					C46.6,62.2,52.7,62.2,56.4,63.9z"/>
				<path opacity="0.6667" fill="#7C5CB0" d="M56.2,63.9c3.7,1.7,3.7,4.3,0,6c-3.6,1.7-9.6,1.7-13.2,0c-3.7-1.7-3.7-4.3,0-6
					C46.7,62.2,52.6,62.2,56.2,63.9z"/>
				<path opacity="0.6863" fill="#7857AD" d="M56.1,63.9c3.6,1.6,3.6,4.2,0,5.8c-3.5,1.6-9.3,1.6-12.8,0c-3.5-1.6-3.6-4.2,0-5.8
					C46.7,62.3,52.5,62.3,56.1,63.9z"/>
				<path opacity="0.7059" fill="#7452AB" d="M55.9,63.9c3.4,1.6,3.5,4.1,0,5.7c-3.4,1.6-9,1.6-12.5,0c-3.4-1.6-3.5-4.1,0-5.7
					C46.8,62.3,52.4,62.3,55.9,63.9z"/>
				<path opacity="0.7255" fill="#704DA9" d="M55.7,63.9c3.3,1.5,3.4,4,0,5.5c-3.3,1.5-8.7,1.5-12.1,0c-3.3-1.5-3.4-4,0-5.5
					C46.9,62.4,52.3,62.4,55.7,63.9z"/>
				<path opacity="0.7451" fill="#6C48A6" d="M55.5,63.9c3.2,1.5,3.3,3.9,0,5.3c-3.2,1.5-8.5,1.5-11.7,0c-3.2-1.5-3.3-3.8,0-5.3
					C47,62.4,52.3,62.4,55.5,63.9z"/>
				<path opacity="0.7647" fill="#6844A4" d="M55.3,63.9c3.1,1.4,3.2,3.7,0,5.1c-3.1,1.4-8.2,1.4-11.3,0c-3.1-1.4-3.2-3.7,0-5.1
					C47.1,62.5,52.2,62.5,55.3,63.9z"/>
				<path opacity="0.7843" fill="#643FA2" d="M55.1,63.9c3,1.4,3,3.6,0,5c-3,1.4-7.9,1.4-11,0c-3-1.4-3.1-3.6,0-5
					C47.2,62.5,52.1,62.5,55.1,63.9z"/>
				<path opacity="0.8039" fill="#613A9F" d="M54.9,63.9c2.9,1.3,2.9,3.5,0,4.8c-2.9,1.3-7.7,1.3-10.6,0c-2.9-1.3-2.9-3.5,0-4.8
					C47.3,62.6,52,62.6,54.9,63.9z"/>
				<path opacity="0.8235" fill="#5D359D" d="M54.8,63.9c2.8,1.3,2.8,3.4,0,4.6c-2.8,1.3-7.4,1.3-10.2,0c-2.8-1.3-2.8-3.4,0-4.6
					C47.3,62.7,51.9,62.7,54.8,63.9z"/>
				<path opacity="0.8431" fill="#59309B" d="M54.6,63.9c2.7,1.2,2.7,3.2,0,4.5c-2.7,1.2-7.1,1.2-9.9,0c-2.7-1.2-2.7-3.2,0-4.5
					C47.4,62.7,51.8,62.7,54.6,63.9z"/>
				<path opacity="0.8627" fill="#552C98" d="M54.4,64c2.6,1.2,2.6,3.1,0,4.3c-2.6,1.2-6.9,1.2-9.5,0c-2.6-1.2-2.6-3.1,0-4.3
					C47.5,62.8,51.8,62.8,54.4,64z"/>
				<path opacity="0.8824" fill="#512796" d="M54.2,64c2.5,1.1,2.5,3,0,4.1c-2.5,1.1-6.6,1.1-9.1,0c-2.5-1.1-2.5-3,0-4.1
					C47.6,62.8,51.7,62.8,54.2,64z"/>
				<path opacity="0.902" fill="#4D2294" d="M54,64c2.4,1.1,2.4,2.9,0,4c-2.4,1.1-6.3,1.1-8.7,0c-2.4-1.1-2.4-2.9,0-4
					C47.7,62.9,51.6,62.9,54,64z"/>
				<path opacity="0.9216" fill="#491D91" d="M53.8,64c2.3,1,2.3,2.7,0,3.8c-2.3,1-6,1-8.4,0c-2.3-1-2.3-2.7,0-3.8
					C47.8,62.9,51.5,62.9,53.8,64z"/>
				<path opacity="0.9412" fill="#46188F" d="M53.6,64c2.2,1,2.2,2.6,0,3.6c-2.2,1-5.8,1-8,0c-2.2-1-2.2-2.6,0-3.6
					C47.8,63,51.4,63,53.6,64z"/>
				<path opacity="0.9608" fill="#42148D" d="M53.5,64c2.1,1,2.1,2.5,0,3.5c-2.1,1-5.5,1-7.6,0c-2.1-1-2.1-2.5,0-3.5
					C47.9,63,51.3,63,53.5,64z"/>
				<path opacity="0.9804" fill="#3E0F8A" d="M53.3,64c2,0.9,2,2.4,0,3.3c-2,0.9-5.2,0.9-7.2,0c-2-0.9-2-2.4,0-3.3
					C48,63.1,51.3,63.1,53.3,64z"/>
				<path fill="#3A0A88" d="M53.1,64c1.9,0.9,1.9,2.3,0,3.1c-1.9,0.9-5,0.9-6.9,0c-1.9-0.9-1.9-2.3,0-3.1
					C48.1,63.2,51.2,63.2,53.1,64z"/>
			</g>
			<g>
				<g>
					<g>
						<g>
							<g enable-background="new    ">
								<linearGradient id="SVGID_6_" gradientUnits="userSpaceOnUse" x1="34.2615" y1="58.3924" x2="35.0203" y2="58.9566">
									<stop  offset="0" style="stop-color:#2571F1"/>
									<stop  offset="0.4256" style="stop-color:#1449B4"/>
									<stop  offset="0.8102" style="stop-color:#062983"/>
									<stop  offset="1" style="stop-color:#011D70"/>
								</linearGradient>
								<path fill="url(#SVGID_6_)" d="M35.6,58.8c-0.3,0.2-0.6,0.4-0.8,0.6l-0.5,0.4l0.6-0.4l0.5-0.4c0.3-0.2,0.5-0.4,0.8-0.6
									L35.6,58.8z"/>
								<g>
									<linearGradient id="SVGID_7_" gradientUnits="userSpaceOnUse" x1="39.1197" y1="52.2721" x2="38.4887" y2="63.4196">
										<stop  offset="0" style="stop-color:#2571F1"/>
										<stop  offset="0.4256" style="stop-color:#1449B4"/>
										<stop  offset="0.8102" style="stop-color:#062983"/>
										<stop  offset="1" style="stop-color:#011D70"/>
									</linearGradient>
									<path fill="url(#SVGID_7_)" d="M37,51.5l-4.3,7.4l1.6,0.9l0.5-0.4c1.8-1.7,4.5-1.6,7.3,0c0.7,0.4,1.3,0.8,2,1.4l0.6,0.5
										L43.1,55L37,51.5z"/>
								</g>
								<g>
									<polygon fill="#949494" points="44.7,61.3 45.3,61 43.8,54.7 43.1,55 									"/>
								</g>
								<g>
									<linearGradient id="SVGID_8_" gradientUnits="userSpaceOnUse" x1="34.6131" y1="50.4366" x2="42.0799" y2="53.8545">
										<stop  offset="0" style="stop-color:#25FFFB"/>
										<stop  offset="3.150958e-002" style="stop-color:#25F9FA"/>
										<stop  offset="0.3586" style="stop-color:#20C2ED"/>
										<stop  offset="0.6406" style="stop-color:#1E9BE5"/>
										<stop  offset="0.8636" style="stop-color:#1C82DF"/>
										<stop  offset="1" style="stop-color:#1B79DD"/>
									</linearGradient>
									<polygon fill="url(#SVGID_8_)" points="43.1,55 43.8,54.7 37.6,51.1 37,51.5 									"/>
								</g>
							</g>
						</g>
						<g>
							<linearGradient id="SVGID_9_" gradientUnits="userSpaceOnUse" x1="65.4952" y1="56.7284" x2="64.8024" y2="58.2724">
								<stop  offset="0" style="stop-color:#2571F1"/>
								<stop  offset="0.4256" style="stop-color:#1449B4"/>
								<stop  offset="0.8102" style="stop-color:#062983"/>
								<stop  offset="1" style="stop-color:#011D70"/>
							</linearGradient>
							<path fill="url(#SVGID_9_)" d="M64.9,59.4c-0.3-0.2-0.5-0.4-0.8-0.6l-0.6-0.4c0.3,0.2,0.6,0.4,0.8,0.6l0.5,0.4l0.6,0.4
								L64.9,59.4z"/>
							<g enable-background="new    ">
								<g enable-background="new    ">
									<defs>
										<path id="SVGID_10_" enable-background="new    " d="M63.5,58.4l0.6,0.4c0.3,0.2,0.6,0.4,0.8,0.6L64.3,59
											C64,58.8,63.7,58.6,63.5,58.4z"/>
									</defs>
									<clipPath id="SVGID_11_">
										<use xlink:href="#SVGID_10_"  overflow="visible"/>
									</clipPath>
								</g>
								<g>
									<linearGradient id="SVGID_12_" gradientUnits="userSpaceOnUse" x1="58.4962" y1="56.059" x2="66.0154" y2="63.0524">
										<stop  offset="0" style="stop-color:#2571F1"/>
										<stop  offset="0.4256" style="stop-color:#1449B4"/>
										<stop  offset="0.8102" style="stop-color:#062983"/>
										<stop  offset="1" style="stop-color:#011D70"/>
									</linearGradient>
									<path fill="url(#SVGID_12_)" d="M62.7,51.5l4.3,7.4l-1.6,0.9l-0.5-0.4c-1.8-1.7-4.5-1.6-7.3,0c-0.7,0.4-1.3,0.8-2,1.4
										L55,61.3l1.5-6.3L62.7,51.5z"/>
								</g>
								<g>
									<polygon fill="#949494" points="55,61.3 54.4,61 55.9,54.7 56.5,55 									"/>
								</g>
								<g>
									<linearGradient id="SVGID_13_" gradientUnits="userSpaceOnUse" x1="64.6716" y1="50.0186" x2="54.523" y2="55.8028">
										<stop  offset="0" style="stop-color:#25FFFB"/>
										<stop  offset="3.150958e-002" style="stop-color:#25F9FA"/>
										<stop  offset="0.3586" style="stop-color:#20C2ED"/>
										<stop  offset="0.6406" style="stop-color:#1E9BE5"/>
										<stop  offset="0.8636" style="stop-color:#1C82DF"/>
										<stop  offset="1" style="stop-color:#1B79DD"/>
									</linearGradient>
									<polygon fill="url(#SVGID_13_)" points="56.5,55 55.9,54.7 62.1,51.1 62.7,51.5 									"/>
								</g>
							</g>
						</g>
						<linearGradient id="SVGID_14_" gradientUnits="userSpaceOnUse" x1="53.9161" y1="62.7604" x2="45.5768" y2="62.7604">
							<stop  offset="0" style="stop-color:#FFFFFF"/>
							<stop  offset="0.2189" style="stop-color:#EDEDED"/>
							<stop  offset="0.6571" style="stop-color:#BEBEBE"/>
							<stop  offset="0.9625" style="stop-color:#999999"/>
						</linearGradient>
						<path fill="url(#SVGID_14_)" d="M47.1,59.4h-2.8c0,0.1,0,0.1,0,0.2c0,0.1,0,0.1,0,0.2c0.1,0.3,0.1,0.6,0.2,0.9
							c0,0.1,0,0.1,0,0.2c0.1,0.6,0.3,1.2,0.4,1.7c0,0,0,0.1,0,0.1c0.1,0.3,0.1,0.5,0.2,0.8c0,0,0,0,0,0.1c0.2,0.5,0.3,1,0.5,1.4
							c0.1,0.1,0.1,0.3,0.2,0.4c0.3,0.2,1.1,0.6,3,0.7c0.3,0,0.7,0,1.1,0c2.7,0,3.8-0.5,4.1-0.7c0.5-1.4,1.1-3.5,1.6-5.9H47.1z"/>
						<g>
							<linearGradient id="SVGID_15_" gradientUnits="userSpaceOnUse" x1="53.9161" y1="62.6974" x2="45.5768" y2="62.6974">
								<stop  offset="0" style="stop-color:#FFFFFF"/>
								<stop  offset="0.2189" style="stop-color:#EDEDED"/>
								<stop  offset="0.6571" style="stop-color:#BEBEBE"/>
								<stop  offset="0.9625" style="stop-color:#999999"/>
							</linearGradient>
							<path fill="url(#SVGID_15_)" d="M47.1,59.4h-2.8c0,0.1,0,0.1,0,0.2c0,0.1,0,0.1,0,0.2c0.1,0.3,0.1,0.6,0.2,0.9
								c0,0.1,0,0.1,0,0.2c0.1,0.6,0.3,1.2,0.4,1.7c0,0,0,0.1,0,0.1c0.1,0.3,0.1,0.5,0.2,0.8c0,0,0,0,0,0.1c0.2,0.5,0.3,1,0.5,1.4
								c0.1,0.1,0.1,0.3,0.2,0.4c0.3,0.2,0.8,0.5,2,0.6C47,64.8,47,63.5,47,63.5c3.9,0.1,6.9-0.5,7.8-0.7c0.3-1,0.5-2.2,0.8-3.4
								H47.1z"/>
						</g>
						<g>
							<linearGradient id="SVGID_16_" gradientUnits="userSpaceOnUse" x1="57.8362" y1="47.0295" x2="45.5733" y2="47.0295">
								<stop  offset="0" style="stop-color:#FFFFFF"/>
								<stop  offset="0.2189" style="stop-color:#EDEDED"/>
								<stop  offset="0.6571" style="stop-color:#BEBEBE"/>
								<stop  offset="0.9625" style="stop-color:#999999"/>
							</linearGradient>
							<path fill="url(#SVGID_16_)" d="M39,47c0,0.1,0,0.2,0,0.3c0-0.2,0-0.4-0.1-0.5C39,46.8,39,46.9,39,47z"/>
							<linearGradient id="SVGID_17_" gradientUnits="userSpaceOnUse" x1="42.4084" y1="60.5423" x2="41.8954" y2="60.5423">
								<stop  offset="0" style="stop-color:#FFFFFF"/>
								<stop  offset="0.2189" style="stop-color:#EDEDED"/>
								<stop  offset="0.6571" style="stop-color:#BEBEBE"/>
								<stop  offset="0.9625" style="stop-color:#999999"/>
							</linearGradient>
							<path fill="url(#SVGID_17_)" d="M42.2,60.5C42.2,60.5,42.2,60.5,42.2,60.5S42.2,60.5,42.2,60.5z"/>
							<linearGradient id="SVGID_18_" gradientUnits="userSpaceOnUse" x1="57.8359" y1="43.2781" x2="45.5729" y2="43.2781">
								<stop  offset="0" style="stop-color:#FFFFFF"/>
								<stop  offset="0.2189" style="stop-color:#EDEDED"/>
								<stop  offset="0.6571" style="stop-color:#BEBEBE"/>
								<stop  offset="0.9625" style="stop-color:#999999"/>
							</linearGradient>
							<path fill="url(#SVGID_18_)" d="M38.7,42.9c0,0.3,0,0.5,0,0.8c0,0,0,0.1,0,0.1C38.7,43.4,38.7,43.1,38.7,42.9
								C38.7,42.8,38.7,42.9,38.7,42.9z"/>
							<linearGradient id="SVGID_19_" gradientUnits="userSpaceOnUse" x1="57.8538" y1="35.3903" x2="45.5794" y2="35.3903">
								<stop  offset="0" style="stop-color:#FFFFFF"/>
								<stop  offset="0.2189" style="stop-color:#EDEDED"/>
								<stop  offset="0.6571" style="stop-color:#BEBEBE"/>
								<stop  offset="0.9625" style="stop-color:#999999"/>
							</linearGradient>
							<path fill="url(#SVGID_19_)" d="M39.4,31c-0.5,2.8-0.8,5.7-0.8,8.7c0,0,0,0.1,0,0.1c0,0,0-0.1,0-0.1
								C38.6,36.7,38.9,33.8,39.4,31z"/>
							<linearGradient id="SVGID_20_" gradientUnits="userSpaceOnUse" x1="57.8919" y1="49.1321" x2="45.5922" y2="49.1321">
								<stop  offset="0" style="stop-color:#FFFFFF"/>
								<stop  offset="0.2189" style="stop-color:#EDEDED"/>
								<stop  offset="0.6571" style="stop-color:#BEBEBE"/>
								<stop  offset="0.9625" style="stop-color:#999999"/>
							</linearGradient>
							<path fill="url(#SVGID_20_)" d="M39.3,49.3c0-0.1,0-0.2,0-0.2C39.3,49.1,39.3,49.2,39.3,49.3z"/>
							<linearGradient id="SVGID_21_" gradientUnits="userSpaceOnUse" x1="57.8359" y1="52.9203" x2="45.5738" y2="52.9203">
								<stop  offset="0" style="stop-color:#FFFFFF"/>
								<stop  offset="0.2189" style="stop-color:#EDEDED"/>
								<stop  offset="0.6571" style="stop-color:#BEBEBE"/>
								<stop  offset="0.9625" style="stop-color:#999999"/>
							</linearGradient>
							<path fill="url(#SVGID_21_)" d="M40,53.1c0-0.1,0-0.2-0.1-0.3C40,52.9,40,53,40,53.1z"/>
							<linearGradient id="SVGID_22_" gradientUnits="userSpaceOnUse" x1="57.7904" y1="57.8529" x2="45.5629" y2="57.8529">
								<stop  offset="0" style="stop-color:#FFFFFF"/>
								<stop  offset="0.2189" style="stop-color:#EDEDED"/>
								<stop  offset="0.6571" style="stop-color:#BEBEBE"/>
								<stop  offset="0.9625" style="stop-color:#999999"/>
							</linearGradient>
							<path fill="url(#SVGID_22_)" d="M41.3,57.9c0,0,0-0.1,0-0.1C41.3,57.8,41.3,57.9,41.3,57.9z"/>
							<linearGradient id="SVGID_23_" gradientUnits="userSpaceOnUse" x1="57.8256" y1="56.2912" x2="45.5715" y2="56.2912">
								<stop  offset="0" style="stop-color:#FFFFFF"/>
								<stop  offset="0.2189" style="stop-color:#EDEDED"/>
								<stop  offset="0.6571" style="stop-color:#BEBEBE"/>
								<stop  offset="0.9625" style="stop-color:#999999"/>
							</linearGradient>
							<path fill="url(#SVGID_23_)" d="M40.9,56.4c0,0,0-0.1,0-0.1C40.8,56.3,40.8,56.3,40.9,56.4z"/>
							<linearGradient id="SVGID_24_" gradientUnits="userSpaceOnUse" x1="57.8406" y1="50.9876" x2="45.5751" y2="50.9876">
								<stop  offset="0" style="stop-color:#FFFFFF"/>
								<stop  offset="0.2189" style="stop-color:#EDEDED"/>
								<stop  offset="0.6571" style="stop-color:#BEBEBE"/>
								<stop  offset="0.9625" style="stop-color:#999999"/>
							</linearGradient>
							<path fill="url(#SVGID_24_)" d="M39.7,51.2c0-0.1,0-0.2-0.1-0.3C39.6,50.9,39.6,51,39.7,51.2z"/>
							<linearGradient id="SVGID_25_" gradientUnits="userSpaceOnUse" x1="57.8542" y1="38.2943" x2="45.5795" y2="38.2943">
								<stop  offset="0" style="stop-color:#FFFFFF"/>
								<stop  offset="0.2189" style="stop-color:#EDEDED"/>
								<stop  offset="0.6571" style="stop-color:#BEBEBE"/>
								<stop  offset="0.9625" style="stop-color:#999999"/>
							</linearGradient>
							<path fill="url(#SVGID_25_)" d="M55.1,13.9c0.1,0.5-0.4,1-1.5,1.4c-2,0.7-5.3,0.7-7.3,0c-0.4-0.2-0.8-0.3-1-0.5
								c0.2,0.2,0.6,0.4,1,0.5c0.2,0.1,0.4,0.1,0.6,0.2c-2.7,11.9-5.4,31.3,0.9,47.1c0.6,0,1.3,0.1,2.1,0.1c5,0,6.9-0.9,7.5-1.4
								c1.2-3.3,2.7-8.2,3.4-14.3c0-0.3,0.1-0.5,0.1-0.8c0.1-0.8,0.2-1.7,0.2-2.6l0-0.8c0.1-1,0.1-2.1,0.1-3.2
								C61.3,29.7,58.1,20.4,55.1,13.9z"/>
							<linearGradient id="SVGID_26_" gradientUnits="userSpaceOnUse" x1="61.4441" y1="51.9634" x2="37.9471" y2="51.9634">
								<stop  offset="0" style="stop-color:#FFFFFF"/>
								<stop  offset="0.2189" style="stop-color:#EDEDED"/>
								<stop  offset="0.6571" style="stop-color:#BEBEBE"/>
								<stop  offset="0.9625" style="stop-color:#999999"/>
							</linearGradient>
							<path fill="url(#SVGID_26_)" d="M40,52.8c-0.1-0.5-0.2-1.1-0.3-1.6C39.8,51.7,39.9,52.2,40,52.8z"/>
							<linearGradient id="SVGID_27_" gradientUnits="userSpaceOnUse" x1="61.4458" y1="57.0793" x2="37.9467" y2="57.0793">
								<stop  offset="0" style="stop-color:#FFFFFF"/>
								<stop  offset="0.2189" style="stop-color:#EDEDED"/>
								<stop  offset="0.6571" style="stop-color:#BEBEBE"/>
								<stop  offset="0.9625" style="stop-color:#999999"/>
							</linearGradient>
							<path fill="url(#SVGID_27_)" d="M41.3,57.8c-0.1-0.5-0.3-0.9-0.4-1.4C41,56.9,41.1,57.3,41.3,57.8z"/>
							<linearGradient id="SVGID_28_" gradientUnits="userSpaceOnUse" x1="61.44" y1="50.0365" x2="37.9475" y2="50.0365">
								<stop  offset="0" style="stop-color:#FFFFFF"/>
								<stop  offset="0.2189" style="stop-color:#EDEDED"/>
								<stop  offset="0.6571" style="stop-color:#BEBEBE"/>
								<stop  offset="0.9625" style="stop-color:#999999"/>
							</linearGradient>
							<path fill="url(#SVGID_28_)" d="M39.6,50.8c-0.1-0.5-0.2-1-0.3-1.6C39.4,49.8,39.5,50.3,39.6,50.8z"/>
							<linearGradient id="SVGID_29_" gradientUnits="userSpaceOnUse" x1="61.4436" y1="59.2274" x2="37.9469" y2="59.2274">
								<stop  offset="0" style="stop-color:#FFFFFF"/>
								<stop  offset="0.2189" style="stop-color:#EDEDED"/>
								<stop  offset="0.6571" style="stop-color:#BEBEBE"/>
								<stop  offset="0.9625" style="stop-color:#999999"/>
							</linearGradient>
							<path fill="url(#SVGID_29_)" d="M42.2,60.5c-0.3-0.8-0.6-1.7-0.9-2.6C41.6,58.9,41.9,59.7,42.2,60.5z"/>
							<linearGradient id="SVGID_30_" gradientUnits="userSpaceOnUse" x1="61.4433" y1="54.6442" x2="37.9471" y2="54.6442">
								<stop  offset="0" style="stop-color:#FFFFFF"/>
								<stop  offset="0.2189" style="stop-color:#EDEDED"/>
								<stop  offset="0.6571" style="stop-color:#BEBEBE"/>
								<stop  offset="0.9625" style="stop-color:#999999"/>
							</linearGradient>
							<path fill="url(#SVGID_30_)" d="M40.8,56.2c-0.3-1-0.5-2-0.8-3.1C40.3,54.2,40.5,55.2,40.8,56.2z"/>
							<linearGradient id="SVGID_31_" gradientUnits="userSpaceOnUse" x1="61.441" y1="22.4593" x2="37.9474" y2="22.4593">
								<stop  offset="0" style="stop-color:#FFFFFF"/>
								<stop  offset="0.2189" style="stop-color:#EDEDED"/>
								<stop  offset="0.6571" style="stop-color:#BEBEBE"/>
								<stop  offset="0.9625" style="stop-color:#999999"/>
							</linearGradient>
							<path fill="url(#SVGID_31_)" d="M45.3,14.8c-0.4-0.3-0.5-0.6-0.5-0.9c-2.1,4.6-4.3,10.5-5.4,17.1c1.1-6.6,3.3-12.5,5.4-17.1
								C44.7,14.2,44.9,14.6,45.3,14.8z"/>
							<linearGradient id="SVGID_32_" gradientUnits="userSpaceOnUse" x1="61.4588" y1="41.3006" x2="37.9469" y2="41.3006">
								<stop  offset="0" style="stop-color:#FFFFFF"/>
								<stop  offset="0.2189" style="stop-color:#EDEDED"/>
								<stop  offset="0.6571" style="stop-color:#BEBEBE"/>
								<stop  offset="0.9625" style="stop-color:#999999"/>
							</linearGradient>
							<path fill="url(#SVGID_32_)" d="M38.7,42.8c-0.1-1-0.1-2-0.1-3C38.6,40.8,38.6,41.8,38.7,42.8z"/>
							<linearGradient id="SVGID_33_" gradientUnits="userSpaceOnUse" x1="61.4462" y1="45.2543" x2="37.9472" y2="45.2543">
								<stop  offset="0" style="stop-color:#FFFFFF"/>
								<stop  offset="0.2189" style="stop-color:#EDEDED"/>
								<stop  offset="0.6571" style="stop-color:#BEBEBE"/>
								<stop  offset="0.9625" style="stop-color:#999999"/>
							</linearGradient>
							<path fill="url(#SVGID_33_)" d="M38.7,43.7c0.1,1,0.2,2,0.3,3c0-0.2,0-0.3-0.1-0.5C38.9,45.4,38.8,44.6,38.7,43.7z"/>
							<linearGradient id="SVGID_34_" gradientUnits="userSpaceOnUse" x1="61.4378" y1="48.1545" x2="37.9476" y2="48.1545">
								<stop  offset="0" style="stop-color:#FFFFFF"/>
								<stop  offset="0.2189" style="stop-color:#EDEDED"/>
								<stop  offset="0.6571" style="stop-color:#BEBEBE"/>
								<stop  offset="0.9625" style="stop-color:#999999"/>
							</linearGradient>
							<path fill="url(#SVGID_34_)" d="M39.3,49c-0.1-0.6-0.2-1.1-0.2-1.7C39.1,47.9,39.2,48.5,39.3,49z"/>
							<linearGradient id="SVGID_35_" gradientUnits="userSpaceOnUse" x1="61.4343" y1="60.9282" x2="37.9489" y2="60.9282">
								<stop  offset="0" style="stop-color:#FFFFFF"/>
								<stop  offset="0.2189" style="stop-color:#EDEDED"/>
								<stop  offset="0.6571" style="stop-color:#BEBEBE"/>
								<stop  offset="0.9625" style="stop-color:#999999"/>
							</linearGradient>
							<path fill="url(#SVGID_35_)" d="M42.2,60.5c0.1,0.3,0.2,0.5,0.3,0.8c0,0,0,0,0,0C42.3,61.1,42.2,60.8,42.2,60.5z"/>
							<linearGradient id="SVGID_36_" gradientUnits="userSpaceOnUse" x1="57.8541" y1="38.2693" x2="45.5794" y2="38.2693">
								<stop  offset="0" style="stop-color:#FFFFFF"/>
								<stop  offset="0.2189" style="stop-color:#EDEDED"/>
								<stop  offset="0.6571" style="stop-color:#BEBEBE"/>
								<stop  offset="0.9625" style="stop-color:#999999"/>
							</linearGradient>
							<path fill="url(#SVGID_36_)" d="M47.9,62.6c-6.3-15.7-3.6-35.2-0.9-47.1c-0.2-0.1-0.4-0.1-0.6-0.2c-0.4-0.2-0.8-0.3-1-0.5
								c-0.4-0.3-0.5-0.6-0.5-0.9c-2.1,4.6-4.3,10.5-5.4,17.1c-0.5,2.8-0.8,5.7-0.8,8.7c0,0,0,0.1,0,0.1c0,1,0,2,0.1,3
								c0,0.3,0,0.6,0.1,0.9c0.1,0.9,0.1,1.7,0.2,2.5c0,0.2,0,0.3,0.1,0.5c0,0.2,0,0.4,0.1,0.5c0.1,0.6,0.1,1.2,0.2,1.7
								c0,0.1,0,0.2,0,0.2c0.1,0.5,0.2,1.1,0.3,1.6c0,0.1,0,0.2,0.1,0.3c0.1,0.6,0.2,1.1,0.3,1.6c0,0.1,0,0.2,0.1,0.3
								c0.2,1.1,0.5,2.2,0.8,3.1c0,0,0,0.1,0,0.1c0.1,0.5,0.3,1,0.4,1.4c0,0,0,0.1,0,0.1c0.3,1,0.6,1.8,0.9,2.6c0,0,0,0,0,0
								c0.1,0.3,0.2,0.5,0.3,0.8C43,61.7,44.5,62.4,47.9,62.6z"/>
							<linearGradient id="SVGID_37_" gradientUnits="userSpaceOnUse" x1="61.4409" y1="38.2693" x2="37.9474" y2="38.2693">
								<stop  offset="0" style="stop-color:#FFFFFF"/>
								<stop  offset="0.2189" style="stop-color:#EDEDED"/>
								<stop  offset="0.6571" style="stop-color:#BEBEBE"/>
								<stop  offset="0.9625" style="stop-color:#999999"/>
							</linearGradient>
							<path opacity="0.5" fill="url(#SVGID_37_)" d="M47.9,62.6c-6.3-15.7-3.6-35.2-0.9-47.1c-0.2-0.1-0.4-0.1-0.6-0.2
								c-0.4-0.2-0.8-0.3-1-0.5c-0.4-0.3-0.5-0.6-0.5-0.9c-2.1,4.6-4.3,10.5-5.4,17.1c-0.5,2.8-0.8,5.7-0.8,8.7c0,0,0,0.1,0,0.1
								c0,1,0,2,0.1,3c0,0.3,0,0.6,0.1,0.9c0.1,0.9,0.1,1.7,0.2,2.5c0,0.2,0,0.3,0.1,0.5c0,0.2,0,0.4,0.1,0.5
								c0.1,0.6,0.1,1.2,0.2,1.7c0,0.1,0,0.2,0,0.2c0.1,0.5,0.2,1.1,0.3,1.6c0,0.1,0,0.2,0.1,0.3c0.1,0.6,0.2,1.1,0.3,1.6
								c0,0.1,0,0.2,0.1,0.3c0.2,1.1,0.5,2.2,0.8,3.1c0,0,0,0.1,0,0.1c0.1,0.5,0.3,1,0.4,1.4c0,0,0,0.1,0,0.1c0.3,1,0.6,1.8,0.9,2.6
								c0,0,0,0,0,0c0.1,0.3,0.2,0.5,0.3,0.8C43,61.7,44.5,62.4,47.9,62.6z"/>
						</g>
						<g>
							<g enable-background="new    ">
								<g>
									<linearGradient id="SVGID_38_" gradientUnits="userSpaceOnUse" x1="40.2165" y1="57.2739" x2="40.2691" y2="74.2581">
										<stop  offset="0" style="stop-color:#2571F1"/>
										<stop  offset="0.4256" style="stop-color:#1449B4"/>
										<stop  offset="0.8102" style="stop-color:#062983"/>
										<stop  offset="1" style="stop-color:#011D70"/>
									</linearGradient>
									<path fill="url(#SVGID_38_)" d="M44.7,55.3l1.6,4.5L45.6,60c-0.7,0.2-1.3,0.5-2,0.9c-2.8,1.6-5.6,4.7-7.3,8.4l-0.5,1
										l-1.6,0.9l4.2-12.4L44.7,55.3z"/>
								</g>
								<g>
									<linearGradient id="SVGID_39_" gradientUnits="userSpaceOnUse" x1="40.0859" y1="55.0956" x2="33.0924" y2="72.0797">
										<stop  offset="0" style="stop-color:#25FFFB"/>
										<stop  offset="3.150958e-002" style="stop-color:#25F9FA"/>
										<stop  offset="0.3586" style="stop-color:#20C2ED"/>
										<stop  offset="0.6406" style="stop-color:#1E9BE5"/>
										<stop  offset="0.8636" style="stop-color:#1C82DF"/>
										<stop  offset="1" style="stop-color:#1B79DD"/>
									</linearGradient>
									<polygon fill="url(#SVGID_39_)" points="34.3,71.3 33.6,70.9 37.8,58.5 38.5,58.9 									"/>
								</g>
								<g>
									<linearGradient id="SVGID_40_" gradientUnits="userSpaceOnUse" x1="45.4747" y1="54.2179" x2="35.7469" y2="60.4752">
										<stop  offset="0" style="stop-color:#25FFFB"/>
										<stop  offset="3.150958e-002" style="stop-color:#25F9FA"/>
										<stop  offset="0.3586" style="stop-color:#20C2ED"/>
										<stop  offset="0.6406" style="stop-color:#1E9BE5"/>
										<stop  offset="0.8636" style="stop-color:#1C82DF"/>
										<stop  offset="1" style="stop-color:#1B79DD"/>
									</linearGradient>
									<polygon fill="url(#SVGID_40_)" points="38.5,58.9 37.8,58.5 44,55 44.7,55.3 									"/>
								</g>
							</g>
						</g>
						<g>
							<g enable-background="new    ">
								<g>
									<linearGradient id="SVGID_41_" gradientUnits="userSpaceOnUse" x1="61.7693" y1="58.3466" x2="57.8782" y2="70.388">
										<stop  offset="0" style="stop-color:#2571F1"/>
										<stop  offset="0.4256" style="stop-color:#1449B4"/>
										<stop  offset="0.8102" style="stop-color:#062983"/>
										<stop  offset="1" style="stop-color:#011D70"/>
									</linearGradient>
									<path fill="url(#SVGID_41_)" d="M55,55.3l-1.6,4.5l0.6,0.2c0.7,0.2,1.3,0.5,2,0.9c2.8,1.6,5.6,4.7,7.3,8.4l0.5,1l1.6,0.9
										l-4.2-12.4L55,55.3z"/>
								</g>
								<g>
									<linearGradient id="SVGID_42_" gradientUnits="userSpaceOnUse" x1="60.3613" y1="54.0459" x2="66.0402" y2="72.8704">
										<stop  offset="0" style="stop-color:#25FFFB"/>
										<stop  offset="3.150958e-002" style="stop-color:#25F9FA"/>
										<stop  offset="0.3586" style="stop-color:#20C2ED"/>
										<stop  offset="0.6406" style="stop-color:#1E9BE5"/>
										<stop  offset="0.8636" style="stop-color:#1C82DF"/>
										<stop  offset="1" style="stop-color:#1B79DD"/>
									</linearGradient>
									<polygon fill="url(#SVGID_42_)" points="65.4,71.3 66.1,70.9 61.8,58.5 61.2,58.9 									"/>
								</g>
								<g>
									<linearGradient id="SVGID_43_" gradientUnits="userSpaceOnUse" x1="57.0446" y1="52.9762" x2="60.6202" y2="63.1774">
										<stop  offset="0" style="stop-color:#25FFFB"/>
										<stop  offset="3.150958e-002" style="stop-color:#25F9FA"/>
										<stop  offset="0.3586" style="stop-color:#20C2ED"/>
										<stop  offset="0.6406" style="stop-color:#1E9BE5"/>
										<stop  offset="0.8636" style="stop-color:#1C82DF"/>
										<stop  offset="1" style="stop-color:#1B79DD"/>
									</linearGradient>
									<polygon fill="url(#SVGID_43_)" points="61.2,58.9 61.8,58.5 55.7,55 55,55.3 									"/>
								</g>
							</g>
						</g>
						<g>
							<g>
								<linearGradient id="SVGID_44_" gradientUnits="userSpaceOnUse" x1="57.0142" y1="44.344" x2="43.5563" y2="44.344">
									<stop  offset="0" style="stop-color:#25FFFB"/>
									<stop  offset="3.150958e-002" style="stop-color:#25F9FA"/>
									<stop  offset="0.3586" style="stop-color:#20C2ED"/>
									<stop  offset="0.6406" style="stop-color:#1E9BE5"/>
									<stop  offset="0.8636" style="stop-color:#1C82DF"/>
									<stop  offset="1" style="stop-color:#1B79DD"/>
								</linearGradient>
								<path fill="url(#SVGID_44_)" d="M61.2,42.9l0,0.8c-1,0.8-3.7,2.2-11.2,2.2c-7.5,0-10.3-1.4-11.2-2.2c0-0.2,0-0.5,0-0.8
									c0.1,0.2,1.6,2.4,11.3,2.4C59.3,45.3,61,43.2,61.2,42.9z"/>
							</g>
							<g>
								<linearGradient id="SVGID_45_" gradientUnits="userSpaceOnUse" x1="57.0143" y1="47.6389" x2="43.5563" y2="47.6389">
									<stop  offset="0" style="stop-color:#25FFFB"/>
									<stop  offset="3.150958e-002" style="stop-color:#25F9FA"/>
									<stop  offset="0.3586" style="stop-color:#20C2ED"/>
									<stop  offset="0.6406" style="stop-color:#1E9BE5"/>
									<stop  offset="0.8636" style="stop-color:#1C82DF"/>
									<stop  offset="1" style="stop-color:#1B79DD"/>
								</linearGradient>
								<path fill="url(#SVGID_45_)" d="M60.9,46.2c0,0.3,0,0.5-0.1,0.8c-1,0.8-3.7,2.1-10.9,2.1c-7.1,0-9.9-1.3-10.9-2.1
									c0-0.2-0.1-0.5-0.1-0.7c0.3,0.4,2.2,2.3,11,2.3C59.1,48.6,60.8,46.5,60.9,46.2z"/>
							</g>
							<linearGradient id="SVGID_46_" gradientUnits="userSpaceOnUse" x1="51.8931" y1="10.3546" x2="47.6013" y2="10.3546">
								<stop  offset="0" style="stop-color:#25FFFB"/>
								<stop  offset="3.150958e-002" style="stop-color:#25F9FA"/>
								<stop  offset="0.3586" style="stop-color:#20C2ED"/>
								<stop  offset="0.6406" style="stop-color:#1E9BE5"/>
								<stop  offset="0.8636" style="stop-color:#1C82DF"/>
								<stop  offset="1" style="stop-color:#1B79DD"/>
							</linearGradient>
							<path fill="url(#SVGID_46_)" d="M55.1,13.9c0-0.1-0.1-0.2-0.1-0.3c-2.1-4.6-4.1-7.7-4.8-8.7c-0.1-0.2-0.3-0.2-0.5,0
								c-0.7,1-2.6,4.1-4.8,8.7c0,0.1-0.1,0.2-0.1,0.3c-0.1,0.5,0.4,1,1.5,1.4c2,0.7,5.3,0.7,7.3,0C54.7,15,55.2,14.4,55.1,13.9z"/>
							<linearGradient id="SVGID_47_" gradientUnits="userSpaceOnUse" x1="52.6687" y1="9.1817" x2="46.1054" y2="10.7279">
								<stop  offset="0" style="stop-color:#25FFFB"/>
								<stop  offset="3.150958e-002" style="stop-color:#25F9FA"/>
								<stop  offset="0.3586" style="stop-color:#20C2ED"/>
								<stop  offset="0.6406" style="stop-color:#1E9BE5"/>
								<stop  offset="0.8636" style="stop-color:#1C82DF"/>
								<stop  offset="1" style="stop-color:#1B79DD"/>
							</linearGradient>
							<path fill="url(#SVGID_47_)" d="M46.3,15.4c0.2,0.1,0.4,0.1,0.6,0.2c1.4-6,2.7-10,3-10.7c-0.1,0-0.1,0-0.2,0.1
								c-0.7,1-2.6,4.1-4.8,8.7c0,0.1-0.1,0.2-0.1,0.3C44.7,14.4,45.2,15,46.3,15.4z"/>
						</g>
					</g>
					<linearGradient id="SVGID_48_" gradientUnits="userSpaceOnUse" x1="53.6132" y1="26.5131" x2="46.2298" y2="40.6163">
						<stop  offset="0" style="stop-color:#FFFFFF"/>
						<stop  offset="0.2189" style="stop-color:#EDEDED"/>
						<stop  offset="0.6571" style="stop-color:#BEBEBE"/>
						<stop  offset="0.9625" style="stop-color:#999999"/>
					</linearGradient>
					<path opacity="0.3" fill="url(#SVGID_48_)" d="M49,41.8c-3.5,0-6.4-2.9-6.4-6.4c0-3.5,2.9-6.4,6.4-6.4c3.5,0,6.4,2.9,6.4,6.4
						C55.4,38.9,52.5,41.8,49,41.8z"/>
					<g>
						<linearGradient id="SVGID_49_" gradientUnits="userSpaceOnUse" x1="54.4901" y1="26.0458" x2="47.1067" y2="40.1489">
							<stop  offset="0" style="stop-color:#25FFFB"/>
							<stop  offset="3.150958e-002" style="stop-color:#25F9FA"/>
							<stop  offset="0.3586" style="stop-color:#20C2ED"/>
							<stop  offset="0.6406" style="stop-color:#1E9BE5"/>
							<stop  offset="0.8636" style="stop-color:#1C82DF"/>
							<stop  offset="1" style="stop-color:#1B79DD"/>
						</linearGradient>
						<path fill="url(#SVGID_49_)" d="M49.8,41.3c-3.5,0-6.4-2.9-6.4-6.4c0-3.5,2.9-6.4,6.4-6.4c3.5,0,6.4,2.9,6.4,6.4
							C56.2,38.5,53.4,41.3,49.8,41.3z M49.8,29.3c-3.1,0-5.7,2.5-5.7,5.7c0,3.1,2.5,5.7,5.7,5.7c3.1,0,5.7-2.5,5.7-5.7
							C55.5,31.8,53,29.3,49.8,29.3z"/>
					</g>
					<linearGradient id="SVGID_50_" gradientUnits="userSpaceOnUse" x1="58.623" y1="25.0706" x2="44.354" y2="41.0817">
						<stop  offset="0" style="stop-color:#2571F1"/>
						<stop  offset="0.4256" style="stop-color:#1449B4"/>
						<stop  offset="0.8102" style="stop-color:#062983"/>
						<stop  offset="1" style="stop-color:#011D70"/>
					</linearGradient>
					<path fill="url(#SVGID_50_)" d="M49.8,29.3c-3.1,0-5.7,2.5-5.7,5.7c0,3.1,2.5,5.7,5.7,5.7c3.1,0,5.7-2.5,5.7-5.7
						C55.5,31.8,53,29.3,49.8,29.3z"/>
					<linearGradient id="SVGID_51_" gradientUnits="userSpaceOnUse" x1="59.7651" y1="26.2645" x2="45.7434" y2="41.9981">
						<stop  offset="0" style="stop-color:#2571F1"/>
						<stop  offset="0.4256" style="stop-color:#1449B4"/>
						<stop  offset="0.8102" style="stop-color:#062983"/>
						<stop  offset="1" style="stop-color:#011D70"/>
					</linearGradient>
					<path opacity="0.3" fill="url(#SVGID_51_)" d="M51.5,29.5c1.8,0.9,3.1,2.8,3.1,5c0,3.1-2.5,5.7-5.7,5.7c-0.6,0-1.1-0.1-1.7-0.2
						c0.8,0.4,1.6,0.6,2.5,0.6c3.1,0,5.7-2.5,5.7-5.7C55.5,32.4,53.8,30.2,51.5,29.5z"/>
				</g>
				<linearGradient id="SVGID_52_" gradientUnits="userSpaceOnUse" x1="49.8426" y1="56.6342" x2="49.8426" y2="7.1765">
					<stop  offset="0" style="stop-color:#C14B91"/>
					<stop  offset="0.2572" style="stop-color:#813261"/>
					<stop  offset="0.5095" style="stop-color:#4A1D37"/>
					<stop  offset="0.7252" style="stop-color:#220D19"/>
					<stop  offset="0.8958" style="stop-color:#090407"/>
					<stop  offset="1" style="stop-color:#000000"/>
				</linearGradient>
				<path opacity="0.7" fill="url(#SVGID_52_)" d="M61.3,58.2c0.9-0.1,1.7,0.1,2.4,0.4c0,0,0.1,0.1,0.1,0.1c0.1,0.1,0.3,0.2,0.4,0.3
					h0l0.5,0.4l0.6,0.4l0,0l1.6-0.9l-4.3-7.4l-0.6-0.4L60,52.3c0.3-1.7,0.6-3.4,0.9-5.3l0,0c0-0.3,0.1-0.5,0.1-0.8
					c0.1-0.8,0.2-1.7,0.2-2.6l0-0.8c0.1-1,0.1-2.1,0.1-3.2c0-10-3.2-19.3-6.2-25.8c0,0,0,0,0,0c0-0.1-0.1-0.2-0.1-0.3
					c-2.1-4.6-4.1-7.7-4.8-8.7c-0.1-0.1-0.2-0.1-0.3-0.1l0,0l0,0c-0.1,0-0.1,0-0.2,0.1c-0.7,1-2.6,4.1-4.8,8.7
					c0,0.1-0.1,0.2-0.1,0.3l0,0c0,0,0,0,0,0c-2.1,4.6-4.3,10.5-5.4,17.1c-0.5,2.8-0.8,5.7-0.8,8.7c0,0,0,0.1,0,0.1c0,1,0,2,0.1,3
					c0,0,0,0,0,0.1c0,0.3,0,0.5,0,0.8c0,0,0,0.1,0,0.1c0.1,0.9,0.1,1.7,0.2,2.5c0,0.3,0,0.5,0.1,0.7l0,0c0,0.1,0,0.2,0,0.3
					c0.1,0.6,0.1,1.2,0.2,1.7c0,0.1,0,0.2,0,0.2c0.1,0.5,0.2,1.1,0.3,1.6c0,0.1,0,0.2,0.1,0.3c0.1,0.4,0.2,0.9,0.3,1.3l-2.3-1.3
					L37,51.5l-4.3,7.4l1.6,0.9l0,0l0.6-0.4l0.5-0.4c0.2-0.2,0.4-0.3,0.5-0.4c0.7-0.3,1.5-0.5,2.4-0.4l-0.5,0.3l-4.2,12.4l0.6,0.4
					l1.6-0.9l0.5-1c1.6-3.3,3.9-6.1,6.4-7.8c0.4,0.2,1.1,0.5,2.1,0.7c0,0.1,0.1,0.2,0.1,0.3c0,0,0,0.1,0,0.1
					c0.1,0.3,0.1,0.5,0.2,0.8c0,0,0,0,0,0.1c0.2,0.5,0.3,1,0.5,1.4c0.1,0.1,0.1,0.3,0.2,0.4c0.1,0,0.1,0.1,0.2,0.1c0,0,0,0,0,0
					c0.3,0.2,0.9,0.3,1.7,0.5c0,0,0,0,0,0l0,0c0.3,0,0.6,0.1,1,0.1c0.3,0,0.7,0,1.1,0c2.7,0,3.8-0.5,4.1-0.7
					c0.3-0.7,0.5-1.6,0.8-2.5c0,0,0,0,0,0c0,0,0,0,0,0c0.1-0.2,0.1-0.4,0.1-0.6c1-0.2,1.6-0.4,2-0.7c2.5,1.7,4.8,4.5,6.3,7.8l0.5,1
					l1.6,0.9l0.6-0.4l-4.2-12.4L61.3,58.2z M64.1,58.8c0.3,0.2,0.5,0.4,0.8,0.6C64.7,59.2,64.4,59,64.1,58.8z M34.8,59.4
					c0.2-0.2,0.5-0.4,0.8-0.6C35.3,59,35,59.2,34.8,59.4z M45.7,15.1C45.7,15.1,45.7,15.1,45.7,15.1C45.7,15.1,45.7,15.1,45.7,15.1z
					 M45,14.6C45,14.6,45,14.6,45,14.6C45,14.6,45,14.6,45,14.6z M44.9,14.4C44.9,14.4,44.9,14.4,44.9,14.4
					C44.9,14.4,44.9,14.4,44.9,14.4z M54.8,14.7C54.8,14.7,54.8,14.7,54.8,14.7C54.8,14.7,54.8,14.7,54.8,14.7z M55,14.5
					C54.9,14.5,54.9,14.6,55,14.5C54.9,14.6,54.9,14.5,55,14.5z M51.4,15.8c-1.1,0.1-2.3,0.1-3.4,0C49.1,15.9,50.3,15.9,51.4,15.8z
					 M48,15.7C48,15.8,48,15.8,48,15.7C48,15.8,48,15.8,48,15.7z M44.8,14.2C44.8,14.2,44.8,14.2,44.8,14.2
					C44.8,14.2,44.8,14.2,44.8,14.2z"/>
			</g>
		</g>
	</g>
</g>
</svg>
