<?xml version="1.0" encoding="utf-8"?>
<!-- Generator: Adobe Illustrator 18.1.1, SVG Export Plug-In . SVG Version: 6.00 Build 0)  -->
<svg version="1.1" xmlns="http://www.w3.org/2000/svg" xmlns:xlink="http://www.w3.org/1999/xlink" x="0px" y="0px"
	 viewBox="0 0 100 100" enable-background="new 0 0 100 100" xml:space="preserve">
<g id="Capa_1">
</g>
<g id="Capa_2">
	<g>
		<defs>
			<filter id="Adobe_OpacityMaskFilter" filterUnits="userSpaceOnUse" x="72.3" y="74.4" width="22.5" height="2.9">
				<feColorMatrix  type="matrix" values="1 0 0 0 0  0 1 0 0 0  0 0 1 0 0  0 0 0 1 0"/>
			</filter>
		</defs>
		<mask maskUnits="userSpaceOnUse" x="72.3" y="74.4" width="22.5" height="2.9" id="SVGID_1_">
			<g filter="url(#Adobe_OpacityMaskFilter)">
				<defs>
					<filter id="Adobe_OpacityMaskFilter_1_" filterUnits="userSpaceOnUse" x="71.6" y="74.1" width="23.9" height="3.6">
						<feFlood  style="flood-color:white;flood-opacity:1" result="back"/>
						<feBlend  in="SourceGraphic" in2="back" mode="normal"/>
					</filter>
				</defs>
				<mask maskUnits="userSpaceOnUse" x="71.6" y="74.1" width="23.9" height="3.6" id="SVGID_1_">
					<g filter="url(#Adobe_OpacityMaskFilter_1_)">
					</g>
				</mask>
				
					<radialGradient id="SVGID_2_" cx="-438.9077" cy="62390.2148" r="8.9738" gradientTransform="matrix(1.2017 0 0 0.1624 610.9928 -10056.3096)" gradientUnits="userSpaceOnUse">
					<stop  offset="0" style="stop-color:#FFFFFF"/>
					<stop  offset="7.362918e-002" style="stop-color:#E1E1E1"/>
					<stop  offset="0.2544" style="stop-color:#9E9E9E"/>
					<stop  offset="0.4259" style="stop-color:#666666"/>
					<stop  offset="0.5834" style="stop-color:#3A3A3A"/>
					<stop  offset="0.724" style="stop-color:#1B1B1B"/>
					<stop  offset="0.8425" style="stop-color:#080808"/>
					<stop  offset="0.9247" style="stop-color:#010101"/>
				</radialGradient>
				<path mask="url(#SVGID_1_)" fill="url(#SVGID_2_)" d="M95.5,75.9c0,1-5.3,1.8-11.9,1.8c-6.6,0-11.9-0.8-11.9-1.8
					c0-1,5.3-1.8,11.9-1.8C90.2,74.1,95.5,74.9,95.5,75.9z"/>
			</g>
		</mask>
		
			<radialGradient id="SVGID_3_" cx="-431.1564" cy="62485.5859" r="9.4808" gradientTransform="matrix(1.1502 0 0 0.1329 579.4735 -8228.4746)" gradientUnits="userSpaceOnUse">
			<stop  offset="0" style="stop-color:#010101"/>
			<stop  offset="0.9247" style="stop-color:#010101"/>
		</radialGradient>
		<path opacity="0.2" fill="url(#SVGID_3_)" d="M94.8,75.9c0,0.8-5,1.4-11.2,1.4c-6.2,0-11.2-0.6-11.2-1.4c0-0.8,5-1.4,11.2-1.4
			C89.8,74.4,94.8,75.1,94.8,75.9z"/>
		<defs>
			<filter id="Adobe_OpacityMaskFilter_2_" filterUnits="userSpaceOnUse" x="49.1" y="74.4" width="22.5" height="2.9">
				<feColorMatrix  type="matrix" values="1 0 0 0 0  0 1 0 0 0  0 0 1 0 0  0 0 0 1 0"/>
			</filter>
		</defs>
		<mask maskUnits="userSpaceOnUse" x="49.1" y="74.4" width="22.5" height="2.9" id="SVGID_4_">
			<g filter="url(#Adobe_OpacityMaskFilter_2_)">
				<defs>
					<filter id="Adobe_OpacityMaskFilter_3_" filterUnits="userSpaceOnUse" x="48.4" y="74.1" width="23.9" height="3.6">
						<feFlood  style="flood-color:white;flood-opacity:1" result="back"/>
						<feBlend  in="SourceGraphic" in2="back" mode="normal"/>
					</filter>
				</defs>
				<mask maskUnits="userSpaceOnUse" x="48.4" y="74.1" width="23.9" height="3.6" id="SVGID_4_">
					<g filter="url(#Adobe_OpacityMaskFilter_3_)">
					</g>
				</mask>
				
					<radialGradient id="SVGID_5_" cx="-458.2169" cy="62390.2148" r="8.9738" gradientTransform="matrix(1.2017 0 0 0.1624 610.9928 -10056.3096)" gradientUnits="userSpaceOnUse">
					<stop  offset="0" style="stop-color:#FFFFFF"/>
					<stop  offset="7.362918e-002" style="stop-color:#E1E1E1"/>
					<stop  offset="0.2544" style="stop-color:#9E9E9E"/>
					<stop  offset="0.4259" style="stop-color:#666666"/>
					<stop  offset="0.5834" style="stop-color:#3A3A3A"/>
					<stop  offset="0.724" style="stop-color:#1B1B1B"/>
					<stop  offset="0.8425" style="stop-color:#080808"/>
					<stop  offset="0.9247" style="stop-color:#010101"/>
				</radialGradient>
				<path mask="url(#SVGID_4_)" fill="url(#SVGID_5_)" d="M72.3,75.9c0,1-5.3,1.8-11.9,1.8s-11.9-0.8-11.9-1.8c0-1,5.3-1.8,11.9-1.8
					S72.3,74.9,72.3,75.9z"/>
			</g>
		</mask>
		
			<radialGradient id="SVGID_6_" cx="-451.3302" cy="62485.5859" r="9.4808" gradientTransform="matrix(1.1502 0 0 0.1329 579.4735 -8228.4746)" gradientUnits="userSpaceOnUse">
			<stop  offset="0" style="stop-color:#010101"/>
			<stop  offset="0.9247" style="stop-color:#010101"/>
		</radialGradient>
		<path opacity="0.2" fill="url(#SVGID_6_)" d="M71.6,75.9c0,0.8-5,1.4-11.2,1.4c-6.2,0-11.2-0.6-11.2-1.4c0-0.8,5-1.4,11.2-1.4
			C66.6,74.4,71.6,75.1,71.6,75.9z"/>
		<g>
			<path fill="#EBA87D" d="M67.4,61c0.1-0.6,0.9-0.9,1.2-1.1c0.5-0.3,0.6-0.6,1.1-0.6c0.3,0,0.6,0.1,0.9,0.1
				c0.6-0.1,0.9,0.5,1.1,0.8c0.5,0.7-0.2,1.4-0.8,1.5c-0.6,0-1.1,0-1.8,0.4C68.5,62.3,67.1,61.9,67.4,61z"/>
			<path fill="#F8B881" d="M77.7,49.9c-0.2,0.1-2.2,1.6-2,2.5c0.2,1.6,2.1,0.6,2.5,0.2c0.3-0.3,0.5-1.7,0.6-2.1
				C79.1,49.5,78.4,49.5,77.7,49.9z"/>
			<path fill="#1E1E29" d="M75.7,51.3c-3.5,1.9-6.6,1.6-10.2-1c-1.5-1.1-1.1,2.2-0.5,2.9c1.6,1.7,5.9,5,11.5,1.2L75.7,51.3z"/>
			<path fill="#E9E8E8" d="M56,50.2c-1.7,1.4-2.1,3.1,0.4,5.6c2.5,2.5,4.3,2.8,4.3,2.8s5.5-5.3,4.5-7.7C64,48,57.7,48.8,56,50.2z"/>
			<path fill="#E62A2A" d="M60.2,52.3c1.2-0.2,1.7,0.7,1.7,0.7l-0.5,1.2l1.3,3.4L61,61l-2.1-3.3l1-3.3l-0.9-0.9
				C58.9,53.5,59.1,52.5,60.2,52.3z"/>
			<path fill="#0D0F12" d="M56.9,72.2c2.2-0.6,2.5,2.7,1.1,4.2c-1.5,1.6-3.6,1-3-1.3C55.4,73.9,55.8,72.5,56.9,72.2z"/>
			<path fill="#0D0F12" d="M63.8,72.2c-2.3-0.4-2.2,2.9-0.6,4.3c1.6,1.4,3.7,0.6,2.8-1.6C65.5,73.6,64.9,72.4,63.8,72.2z"/>
			<path fill="#252728" d="M65.6,74.8c-0.1-0.1-0.2-0.3-0.3-0.4c-0.3,0.3-1.1,0.3-1.5,0.3c-0.4,0-1,0.1-0.5,0.6
				c0.4,0.4,1.1,0.7,1.7,0.6C65.6,75.9,65.8,75.3,65.6,74.8z"/>
			<path fill="#1D1D27" d="M55.4,60.8c-0.1,1.6-0.1,3.2-0.1,4.8c-0.1,2.4,0.3,5.5-0.5,7.8c0.3,0.2,0.7,0.3,1.1,0.5
				c1.4,0.5,2.8,0,4.2-0.2c-0.4-4.1,0.5-8.2,0.6-12.3C60.6,60.3,55.4,59.4,55.4,60.8z"/>
			<path fill="#1D1D27" d="M60.4,62.1c0.3,2.2,0.2,4.4,0.2,6.6c0,1.5,0,3.4-0.1,4.9c0.5,0.2,2,0.4,2.3,0.4c1,0,2.4-0.4,3-0.7
				c-0.5-1.6-0.8-4.4-1-6.8c-0.1-1.8,0.4-4.1-0.1-5.8C64.5,59.5,60.1,59.9,60.4,62.1z"/>
			<path fill="#121219" d="M55.2,65.1v1.7c0,0,2-0.3,4.9,0.4c0,0,0-0.4,0.1-0.5c0-0.1,0.4-0.2,0.4,0.1c0,0.3,0,0.4,0,0.4
				s1.5-1.2,4.2-0.5l0-1.7l-4.5-1.3L55.2,65.1z"/>
			<g>
				<path fill="#1E1E29" d="M66.5,57.3c0.4-2.3,1.6-4.4-0.2-6.3c-0.4-0.4-0.9-0.7-1.4-1c0.1,0.2,0.1,0.4,0.1,0.6
					c-0.3,3.7-4.3,7.4-4.3,7.4s-5.6-5-4.6-7.5c0.1-0.2,0.3-0.5,0.5-0.7c-1.1,0.6-1.9,1.2-2.3,2.4c-0.4,1.4,0.1,4.6,0.1,7.1
					c0,1.3-0.1,4.7-0.4,5.9c0.9,0.4,4.8,1,5.7,0.5c0.7-0.4,1.1-1.3,1.2-1.5c0,2.4,5.6,1.3,5.6,1.1C66.2,64.1,66.1,59.5,66.5,57.3z"
					/>
			</g>
			<path fill="#121219" d="M66.3,63.7c-6.7,0.2-10.7-3.3-11.3-4.3c-0.3-0.4-0.9-1.2-0.5-1.7c0.7-0.9,3.5,0.4,4.2,0.7
				c1.7,0.6,3.5,1.7,5.3,2c0.7,0.1,1.4,0.1,2.1,0.2C66.1,60.6,66.3,62.9,66.3,63.7z"/>
			<path fill="#121219" d="M60.8,58.9c0,0-0.4,1,0.1,2.9C60.9,61.7,60.9,60.4,60.8,58.9z"/>
			<circle fill="#121219" cx="60.4" cy="62.9" r="0.4"/>
			<circle fill="#121219" cx="60" cy="59.3" r="0.4"/>
			<path fill="#F8B881" d="M69.2,63c0.7,0.1,1.7-0.9,1.6-1.3c-0.6-0.6-1.1-0.9-1.4-1.4c0.1-0.4-0.5-0.8-0.8-0.9
				c-0.6-0.3-1,0.4-1.8,0.4c-0.7,0-1,2.2-0.5,2.1C67.3,61.6,67.8,62.9,69.2,63z"/>
			<path fill="#EBA87D" d="M67.5,62.5c-0.2-0.1,0-0.4,0.1-0.6c0.5-0.4,0.8-0.4,0.7,0.1c0.2-0.1,0.7-0.3,0.9,0.2
				c0.1,0.4,0,0.7-0.1,0.8C68.9,63.1,67.5,62.5,67.5,62.5z"/>
			<path fill="#FBCBA0" d="M67.7,61.9c0.4-0.4,0.6-0.1,0.5,0.3c0.7-0.3,1,0,1,0.7c0,0.4-0.4,0.3-1.1,0.1
				C67.4,62.7,67.2,62.3,67.7,61.9z"/>
			<path fill="#121219" d="M60.9,64.3l0.1-2c0,0-0.1,2.4,0.3,2.9C61.3,65.3,61,65.2,60.9,64.3z"/>
			<path fill="#EBA87D" d="M69.1,59.6c-0.5,0.3-0.9,0.4-1.1,0.5c-0.1,0-0.2,0.1-0.2,0.3c0,0.2,0.2,0.4,0.4,0.4
				c0.7,0.1,1.2-0.4,1.3-0.4c0.2,0.3,0.5,0.5,0.6,0.5c0,0,0.1-0.1,0.1-0.2c0-0.3-0.1-0.7-0.3-0.9c-0.1-0.1-0.2-0.1-0.3-0.2
				L69.1,59.6z"/>
			<path fill="#FBCBA0" d="M69.2,59.5C68.6,60,68,60.1,68,60.2c-0.1,0.3,0.4,0.4,0.5,0.4c0.5-0.1,0.8-0.3,0.9-0.4
				c0.1-0.1,0.2,0.1,0.3,0.2c0.2,0.4,0.6,0.7,1,0.6c0.5-0.1,0.6-1.7-0.1-1.6C70,59.5,69.7,59,69.2,59.5z"/>
			<path fill="#313243" d="M66.8,59.4c-9.5,0.7-12.3-4.6-10.3-7.1l-0.1-2.4c-6.7,3.5-2.8,13.4,10.4,13.3L66.8,59.4z"/>
			<path fill="#252728" d="M55.4,75c0-0.2,0.1-0.3,0.3-0.4c0.3,0.3,1.2,0.2,1.5,0.2c0.4,0,1,0,0.5,0.5c-0.4,0.4-1,0.8-1.6,0.8
				C55.4,76.1,55.2,75.5,55.4,75z"/>
			<path fill="#121219" d="M64.3,49.6c0,0,2.3,1.5,3.3,3.2l-2.2,0.8c0,0,1.2,1.8,1.3,2.1c0,0.2-1.9,0.5-3.3,1.3
				c-1.3,0.8-2.5,1.7-2.5,1.7s-0.2-0.3,0-0.7C61,57.7,65.1,54.3,64.3,49.6z"/>
			<path fill="#313243" d="M64.1,49.4c0,0,1.8,0.9,3.1,2.9l-2.1,1.1c0,0,1,1.5,1.1,1.8c0,0.2-1.6,0.7-3,1.6
				c-1.3,0.8-2.4,1.8-2.4,1.8s-0.2-0.4,0-0.7C60.9,57.6,65.2,53.9,64.1,49.4z"/>
			<path opacity="0.5" fill="#121219" d="M56.6,49.8c0,0-2.2,1.6-2.9,3l2.1,0.8c0,0-0.8,2.5-0.5,2.6c0.4,0.1,1.2-0.1,3.4,1
				c1.2,0.6,2.1,1.4,2.1,1.4s0.1-0.4-0.1-0.7C60.6,57.6,56.6,54.8,56.6,49.8z"/>
			<path fill="#313243" d="M56.9,49.5c0,0-1.7,1.2-2.8,3l1.8,1.1c0,0-0.3,1.8-0.3,2.1c0,0.2,1,0.2,3.2,1.3c1.2,0.6,2,1.6,2,1.6
				s0.1-0.4,0-0.7C60.6,57.6,57.4,54.3,56.9,49.5z"/>
			<path opacity="0.2" fill="#A19E99" d="M62.4,54.5l-1.9-1.6l-1.8,1.7c0,0-1.6-0.9-2.1-2.8c-0.6-1.9,6.1-2.5,7.4-1.8
				C65.2,50.6,64.2,52.9,62.4,54.5z"/>
			<path fill="#F5F5F5" d="M60.5,52.9l1.8,1.1c0,0,3.1-2.1,1.8-4.7c-1.2-2.3-6.3-2.2-7.3,0.4C55.9,52,58.6,54,58.6,54L60.5,52.9z"/>
			<path fill="#EF9E6D" d="M57.7,51.1c0.3,0.3,0.9,0.7,1.5,0.9c0.4,0.1,1.1,0.6,1.3,0.6c0.1,0,0.3-0.2,0.7-0.4
				c0.6-0.3,1.4-0.7,1.7-1.3c0.5-0.9,0.9-2.7,0-3.4c-0.9-0.7-2.7-0.8-3.8-0.6c-1.1,0.2-1.9,1.3-2,2.4C57.1,50.1,57.2,50.6,57.7,51.1
				z"/>
			<g>
				<g>
					<path fill="#4F2C1E" d="M68.3,37.1c0.1-2.9-0.2-3.9-0.1-5.1c0.5-5-3.6-8.5-10.5-7.8c-12.2,1.2-9.8,18.1-6.3,17.3
						c2.6-0.6,5.1-1.4,7.6-2.1c2.4-0.6,5-0.2,7.4-0.1C68.3,39.5,68.3,38.7,68.3,37.1z"/>
					<path fill="#F8B881" d="M51.6,41.4c0.7,4.5,4.3,9.4,9.6,8.9c5.4-0.5,7.9-7.2,7.1-12.8c-0.9-6-3.9-11-10.1-9.7
						C53.7,28.8,50.7,35.3,51.6,41.4z"/>
					<path fill="#F8B881" d="M50.6,43.4c0.6,0.2,1.2,0.2,1.8,0.2c0,0,0,0,0-0.1c0.3-0.4-0.3-2.6-0.4-3c-0.4-1.1-0.9-1.9-2-1.6
						C47.8,39.6,48.8,42.8,50.6,43.4z"/>
					<path opacity="0.5" fill="#D99F7C" d="M67.8,35c-0.5-1.8-2.2-1.2-4.3-0.9c-3.4,0.4-7.3,0.6-9.9-0.5c0.1,1.7-1.3,2.4-1.8,4.1
						c-0.3,0.9-0.4-3.3-0.4-3.9c0-1.5,0.1-3.4,1.2-4.5c1.4-1.3,4.1-1.3,5.9-1.3c2.7,0,5.1,0.5,7.5,1.4C67.8,30,68,33.4,67.8,35z"/>
					<path opacity="0.35" fill="#B5441A" d="M51.4,42.5c0.8-0.5,0-2.2-0.6-2.5c-0.5-0.2-1.7,0.2-1.1,1.2c0.3-0.9,0.8-0.3,0.8,0.3
						c0,0.4-0.5,0.4,0,1C50.7,42.8,51.2,42.7,51.4,42.5z"/>
					<path fill="#4F2C1E" d="M66.6,32.7c-7,1.7-12.6,0.7-13.4,0c0.2,1.4-0.4,2.2-0.7,3.3c-0.6,1.9-0.2,3.9,0.6,4.7
						c-0.4,0.1-1,0.1-1.2,0c-0.3-0.4-0.9-1.6-1-2.6c-0.1-1.1-3.7-10.5,5.2-13.4c6.5-2.1,11.3,2.8,14.1,0.5c0,1.5-0.1,3.6-1.1,4.7
						c0.7-0.1,1.1-0.2,1.7-0.2C70.2,30.7,68.9,32.1,66.6,32.7z"/>
					<path fill="#6A3B27" d="M69.9,25.7c0,0-1.5,5.5-9.3,5.9c-8.5,0.3-10.8-1.9-8.3-4.6c2.4-2.7,7.3-2.7,10.6-1.9
						C66.1,25.9,67.6,26.9,69.9,25.7z"/>
					<path fill="#4F2C1E" d="M52.3,37c0,0.6,0.2,2.8,0.8,3.6c-0.4,0.1-0.9,0.2-1.1,0.1c-0.6-0.4-0.7-1.9-1.5-1.9
						C49.8,38.8,51.9,37.9,52.3,37z"/>
				</g>
				<g>
					<path opacity="0.5" fill="#B5441A" d="M56.3,39.5c0.6-0.5-1.3-0.5-1.5-0.5c0,0.4,0.9,0.2,1.1,0.2c-0.2,0.2-0.9,0.2-1.1,0.4
						c-0.3,0.2-0.2,0.3,0.1,0.3C55.1,39.9,56.2,39.6,56.3,39.5z"/>
					<path opacity="0.5" fill="#B5441A" d="M66.2,38.8c-0.5-0.5,1.1-0.6,1.3-0.5c-0.1,0.4-0.7,0.2-0.9,0.2c0.2,0.2,0.7,0.2,0.9,0.4
						c0.2,0.2,0.2,0.3-0.1,0.3C67.3,39.2,66.3,39,66.2,38.8z"/>
					<g>
						<path fill="#131C22" d="M57.1,39.7c-0.3-0.2-0.8-0.2-1.1-0.1c-0.8-0.7-0.1-2.7,1-2.2C57.8,37.7,57.8,39.3,57.1,39.7z"/>
					</g>
					<path opacity="0.35" fill="#B54817" d="M63,40.6c0.2,0.2-0.2,1-1.2,1.1c-1,0.1-1.6-0.8-1.2-1c0.4-0.2,0.6,0,1.2,0
						C62.4,40.6,62.7,40.3,63,40.6z"/>
					<path fill="#FBCBA0" d="M63,40.6c0.1-0.1-0.2-0.8-0.6-1.5c-0.3-0.6-0.6-1.9-1.1-1.8c-0.5,0-0.6,1.4-0.7,2.1
						c-0.2,0.7-0.3,1.3,0,1.4C61.3,41.3,62.6,41,63,40.6z"/>
					<g>
						<path fill="#131C22" d="M66.3,37.1c0.6,0.3,0.7,1.4,0.3,1.9c-0.3,0-0.7,0.1-1,0.3C64.2,39,65.1,36.5,66.3,37.1z"/>
					</g>
					<path fill="#7E8CA9" d="M56.6,37.7c0.4-0.2,0.7,0.5,0.4,0.7C56.5,38.8,56.2,37.9,56.6,37.7z"/>
					<path fill="#7E8CA9" d="M66,37.4c0.4-0.1,0.6,0.5,0.3,0.7C65.8,38.4,65.5,37.5,66,37.4z"/>
					<path opacity="0.5" fill="#B5441A" d="M55.3,42.7c0.4-0.3,1.6-0.2,1.6-0.2c0.2,0.1-0.5,0.1-0.9,0.4c0,0-0.1,0-0.1,0.1
						c3.1,1,8.3,0.6,10.6-0.2c0-0.1-0.1-0.1-0.2-0.1c-0.5-0.1-0.9-0.2-0.7-0.2c0,0,1.2-0.2,1.4,0.2c0.2,0.4-0.1,0.9-0.4,0.9
						c-0.2,0,0-0.4-0.1-0.6c-0.6,0.5-1.6,1.4-1.7,2.2c-0.1,1.4-1,2.3-3.9,2.3c-3.8-0.1-5-3.4-5.2-4.2c-0.2,0.3-0.2,0.7-0.5,0.7
						C54.9,43.7,54.9,42.9,55.3,42.7z"/>
					<path fill="#4F2C1E" d="M67.3,36.6c0.3,0.1,0.4-0.3,0.3-0.4c-0.4-0.5-0.9-1.1-2.1-1.2C64.6,35,64,34.8,64,34.9
						c0,0.5,0.1,1.5,0.7,1.5c0.4,0,0.8-0.1,1.2-0.1C66.6,36.3,67.1,36.5,67.3,36.6z"/>
					<path fill="#4F2C1E" d="M55,37.2c-0.3,0.2-0.5-0.2-0.4-0.4c0.3-0.5,0.8-1.2,2.1-1.5c0.9-0.2,1.6-0.5,1.6-0.4
						c0.1,0.5,0.2,1.5-0.5,1.6c-0.4,0.1-0.9,0-1.3,0.1C55.8,36.7,55.3,37,55,37.2z"/>
					<path fill="#902824" d="M56.4,43.5c0,0,4,1.1,9.2-0.3c0,0-0.8,0.4-1,1.5c-0.1,0.8-0.5,2-3.6,2.1C57.7,46.9,56.4,43.5,56.4,43.5
						z"/>
					<path fill="#FFF9F1" d="M57.6,43.8c0,0,0,1.1,1.1,1.6c1.3,0.5,2.9,0.6,4.4,0.2c1-0.3,1.6-2,1.6-2S61.8,44.1,57.6,43.8z"/>
					<path fill="#FFF9F1" d="M58,45.5c-0.1-0.3-0.1-0.6,0.5-0.4c0.7,0.3,1.9,0.5,3.4,0.4c1.5,0,1.8-0.6,2.1-0.3
						c0.3,0.3-0.7,1.8-3.1,1.6C58.2,46.7,58,45.5,58,45.5z"/>
					<path fill="#FBCBA0" d="M67.6,40.2c0.1,0.1,0.1,0.2,0.2,0.3c0.5,1.2-2.3,1.2-2.7,0.7c-0.8-0.9,0.1-1.3,0.8-1.4
						C66.5,39.8,67.2,39.7,67.6,40.2z"/>
					<path fill="#FBCBA0" d="M57.2,40.5c0.1,0.1,0.2,0.2,0.2,0.3c0.6,1.2-2.4,1.3-2.8,0.9c-0.8-0.9,0.1-1.4,0.8-1.5
						C56,40.1,56.8,40,57.2,40.5z"/>
					<path fill="#E8DAC5" d="M57.7,44.3c0,0,5.5-0.5,6.7-0.1c0,0,0.2-0.4,0.3-0.6c0,0-3.9,0.6-7.1,0.2
						C57.6,43.8,57.6,44.2,57.7,44.3z"/>
					<path fill="#E8DAC5" d="M58.8,45.1c0,0,2,0.7,4.8,0.1C63.6,45.2,61,46.2,58.8,45.1z"/>
				</g>
			</g>
		</g>
		<g>
			<path fill="#FBCBA0" d="M89.8,51.9c0,0,3.6,3.3,3.7,6.3c0.1,3.6-3.9,4.6-3.9,4.6L88.8,61c4.2-2.1,0.7-5.7-0.9-7.2
				C86.8,52.8,89.8,51.9,89.8,51.9z"/>
			<path fill="#FBCBA0" d="M78.3,52.4c0.9,3.2-2.7,9-7.4,9.3c-0.2-0.6,0.3-1-0.3-2.3c6.1-1.5,6.1-7.2,6.7-7.9
				c0.6-0.7,1.3-1.2,1.3-1.2S78,51.2,78.3,52.4z"/>
			<path fill="#E9E8E8" d="M78.8,49.8l2.6,2.6c0,0-1.7,2.9-3.2,5.3c-1.5,0-3.6-0.9-4.2-2c1.9-1.6,2.2-3.8,3.3-4.7
				C78.2,50.3,78.8,49.8,78.8,49.8z"/>
			<path fill="#E9E8E8" d="M88,50c2.6,2.2-0.3,12.6-0.2,12.4l-8.6,0.1c0-0.3-2.5-8.3-1.1-11.7C79.4,47.8,86.3,48.6,88,50z"/>
			<path fill="#3C9AD5" d="M83.6,52.2C82.4,52,82,53,82,53l0.8,1.3l-1.2,3.5l1.7,3.2l1.7-3.2l-1-3.4l0.9-0.9
				C84.9,53.4,84.8,52.4,83.6,52.2z"/>
			<path fill="#0D0F12" d="M87,72.1c-2.3-0.6-2.6,2.7-1.1,4.3c1.5,1.6,3.7,1,3-1.4C88.5,73.8,88.1,72.4,87,72.1z"/>
			<path fill="#0D0F12" d="M80,72.1c2.3-0.4,2.3,3,0.7,4.3c-1.7,1.4-3.8,0.6-2.9-1.7C78.3,73.6,78.8,72.3,80,72.1z"/>
			<path fill="#252728" d="M78.1,74.8c0.1-0.1,0.2-0.3,0.3-0.4c0.3,0.3,1.1,0.3,1.5,0.4c0.4,0,1,0.1,0.5,0.6
				C80,75.7,79.3,76,78.7,76C78.1,75.9,77.9,75.3,78.1,74.8z"/>
			<path fill="#E9E8E8" d="M87.9,50c0,0,0.8,0.4,1.7,0.9c1.4,0.9,2.7,3,4.6,5.5c-0.7,0.8-3.3,1.7-4.5,1.5c-0.3-1.4-1.5-2.4-1.5-2.4
				L87.9,50z"/>
			<path fill="#252728" d="M88.6,75c-0.1-0.2-0.1-0.3-0.3-0.4c-0.3,0.3-1.2,0.2-1.6,0.2c-0.4,0-1,0-0.6,0.6c0.4,0.4,1,0.8,1.6,0.8
				C88.5,76.1,88.7,75.5,88.6,75z"/>
			<path opacity="0.2" fill="#A19E99" d="M79.1,51.2c0,0,0.5,1.6,2.3,3.2l1.9-1.6l1.8,1.7c0,0,1.6-1,2.2-2.9
				c0.6-1.9-4.8-1.8-6.1-1.1C79.9,51.2,79.1,51.2,79.1,51.2z"/>
			<path fill="#F5F5F5" d="M83.4,52.8l-1.8,1.1c0,0-3.6-1.9-2.2-4.5c1.2-2.4,7.3-2.2,8.3,0.4c0.9,2.3-2.4,4.1-2.4,4.1L83.4,52.8z"/>
			<path fill="#F2B98E" d="M86.2,51c-0.4,0.4-0.9,0.7-1.5,0.9c-0.4,0.1-1.2,0.6-1.3,0.6c-0.1,0-0.3-0.2-0.7-0.4
				c-0.6-0.3-1.4-0.7-1.7-1.3c-0.5-0.9-0.9-2.8,0-3.5c0.9-0.7,2.7-0.9,3.8-0.6c1.2,0.3,1.9,1.3,2,2.5C86.8,50,86.7,50.5,86.2,51z"/>
			<path fill="#1D1D27" d="M88,63.3l0-0.4c0,0,0,0,0-0.1c0,0,0,0,0,0l0-0.9c0,0-4.4,0.8-8.9,0l0.1,1.4c0.3,4.8-0.6,8.4-1,10
				c0.6,0.4,1.9,0.7,2.9,0.8c0.4,0,1.8-0.3,2.3-0.5c-0.1-1.6-0.2-3.1-0.1-4.7c0-0.8,0-1.4,0-2c0.1-0.3,0.4-0.2,0.5,0.2
				c0.2,2,0.4,3.9,0.1,6.5c1.3,0.2,2.7,0.7,4,0.2c0.3-0.1,0.7-0.3,1-0.5C88.2,71.2,88,65.4,88,63.3z"/>
			<path fill="#0D0F12" d="M88,62.2c0,0-4.2,0.8-8.9-0.1l0.1,1.1c0,0,3.4,1.3,8.8,0L88,62.2z"/>
			<path fill="#3D3C40" d="M82.1,63.7c0-0.4,0-0.8,0-1.2c0.9,0,1.7,0,2.5,0c-0.1,0.4-0.1,0.8-0.1,1.2C83.7,63.8,82.8,63.8,82.1,63.7
				z"/>
			<path fill="#FBCBA0" d="M90.2,62c-0.3,0.1-0.1,0.9-0.7,1.3c-0.6,0.5,0.5,0,0.7,0.6c0.1,0.6-2.3,1.4-2.7-0.4
				c-0.4-2.2,1.3-2.6,3-2.9C92.5,60.4,90.2,62,90.2,62z"/>
			<g>
				<path fill="#DB6012" d="M96.1,35.2c0.3,0,1,0.1,1.5,0.1c-1.5,4.9-8.7,2.6-12,1.7c-2.1-0.6-4.5-0.8-6.6-0.2
					c-0.9,0.3-1.6,0.8-2.6,0.8c-1.5,0-5.4,1.1-5.9-1.3c0,0.3,1.2-0.7,1.3-0.8c0.3-0.5,0.2-1.1,0.2-1.6c0.1-1.7-0.2-3.5,0.2-5.2
					c0.5-2,1.7-3.9,3.5-5.1c0.8-0.5,1.8-0.9,2.8-0.9c0.8,0,2.5,0.3,3,1c-0.3-0.4-0.9-1.2-0.4-1.6c0.5-0.6,1.9,0.3,1.9,0.9
					c0.2-0.4,0.8-1.6,1.5-1c0.5,0.4-0.1,1.3-0.3,1.7c0.6-0.2,1.1-0.3,1.8-0.4c3.2-0.4,6.7,0.2,8.6,3c1.1,1.7,0.3,3.5,0.2,5.4
					c-0.1,1.4,0.4,2.5,2.1,1.7C96.9,34.2,96.5,34.8,96.1,35.2z"/>
				<path fill="#F8B37D" d="M92.8,37.6c-0.9,3.2-0.9,3.9-2.2,7.1c-1.4,3.2-4.6,5.1-9.1,4.9c-4-0.2-5.5-2.3-6.5-5.6
					c-0.7-2.4-1.3-5-1-8c0.6-6.3,5.2-11.1,10.4-10.6C89.6,25.7,94.6,31.5,92.8,37.6z"/>
				<path opacity="0.5" fill="#E0AD8E" d="M87.1,37.6c-0.6-0.5,1.3-0.6,1.5-0.5c0,0.4-0.9,0.2-1.1,0.2c0.2,0.2,0.9,0.2,1.1,0.4
					c0.3,0.2,0.2,0.3-0.1,0.3C88.3,38,87.2,37.7,87.1,37.6z"/>
				<path opacity="0.5" fill="#E0AD8E" d="M75.9,37.2c0.4-0.6-1.1-0.5-1.4-0.4c0.1,0.4,0.7,0.1,1,0.1c-0.1,0.2-0.7,0.3-0.9,0.5
					c-0.2,0.2-0.2,0.3,0.1,0.3C74.9,37.7,75.8,37.3,75.9,37.2z"/>
				<path fill="#EC760E" d="M74.7,34.2c-0.1,0-0.1-0.1-0.2-0.1c-1.2-1.5,4.9-2,4.2-0.2c-0.3,0.9-1.4,0.5-2.1,0.4
					C76.3,34.2,75.2,34.4,74.7,34.2z"/>
				<path fill="#EC760E" d="M88.6,34.8c0.1,0,0.1-0.1,0.2-0.1c1.6-1.4-5-2.5-4.6-0.6c0.2,0.9,1.5,0.6,2.2,0.6
					C86.9,34.6,88.1,34.9,88.6,34.8z"/>
				<path fill="#F49D68" d="M74.8,38.4c0,0.1-0.1,0.2-0.1,0.3c-0.1,1.2,2.4,0.6,2.7,0c0.4-1-0.5-1.2-1.1-1.1
					C75.7,37.7,75.1,37.9,74.8,38.4z"/>
				<path fill="#F49D68" d="M86.6,38.3c-0.1,0.1-0.2,0.2-0.3,0.3c-0.7,1.1,2,1.7,2.5,1.3c0.9-0.7,0.1-1.3-0.5-1.6
					C87.8,38.1,87.1,37.9,86.6,38.3z"/>
				<g>
					<path fill="#482218" d="M86.3,38c0.3-0.2,0.8-0.3,1.1-0.2c0.7-0.7-0.2-2.7-1.3-2.1C85.3,36.1,85.5,37.6,86.3,38z"/>
				</g>
				<g>
					<g opacity="0.35">
						<path fill="#BD561F" d="M76,40.1c0.2-0.5,1.4-0.2,1.4-0.2c0.2,0.1-0.2,0.1-0.6,0.3c-0.1,0-0.1,0.1-0.2,0.1
							c2.6,0.7,7,1.3,10.3,0.1c0,0-0.1-0.1-0.1-0.1c-0.5-0.3-1.1-0.4-0.9-0.5c0,0,1.1-0.1,1.5,0.3c0.4,0.3,0.4,1.3,0.1,1.3
							c-0.2,0-0.3-0.5-0.5-0.9c-0.2,1.1-1.2,5.5-4.9,5.6c-2.8,0.1-3.7-1.4-3.8-3.1c-0.1-1-1.1-2.1-1.7-2.7c0,0.3,0.1,0.7-0.1,0.7
							C76.2,41.2,75.9,40.6,76,40.1z"/>
					</g>
					<path fill="#973530" d="M86.3,41.2c0,0-4.1,2.2-8.9-0.3c0,0,0.8,0.5,1,1.9c0.2,1,0.6,2.5,3.5,2.6
						C85.2,45.5,86.3,41.2,86.3,41.2z"/>
					<path fill="#FFF6E6" d="M85.2,41.6c0,0,0,1.4-1,1.9c-1.3,0.7-2.7,0.8-4.3,0.3c-1-0.3-1.7-2.4-1.7-2.4S81.2,42.6,85.2,41.6z"/>
					<path fill="#FFF6E6" d="M84.9,43.7c0.1-0.4,0.1-0.7-0.5-0.5c-0.7,0.3-1.9,0.6-3.3,0.6c-1.4,0-1.8-0.7-2-0.4
						c-0.2,0.4,0.8,2.2,3,1.9C84.7,45.1,84.9,43.7,84.9,43.7z"/>
					<path fill="#EFDBBD" d="M85,42.7c0,0-5.1-0.8-6.2-0.2c0,0-0.4-0.8-0.4-1.1c0,0,3.6,1.2,6.9,0.2C85.2,41.6,85.2,42.4,85,42.7z"
						/>
					<path fill="#EFDBBD" d="M84.1,43.2c0,0-1.9,0.8-4.7,0.1C79.5,43.4,81.9,44.6,84.1,43.2z"/>
				</g>
				<g>
					<path fill="#482218" d="M75.6,35.2c-0.6,0.5-0.4,1.6,0.1,2.1c0.3-0.1,0.8,0,1.1,0.1C78.1,36.9,76.7,34.4,75.6,35.2z"/>
				</g>
				<path fill="#AF968F" d="M86.5,35.9c-0.4-0.1-0.6,0.6-0.3,0.8C86.7,37,87,36,86.5,35.9z"/>
				<path fill="#AF968F" d="M76,35.4c-0.4,0-0.5,0.7-0.1,0.8C76.4,36.4,76.5,35.4,76,35.4z"/>
				<path fill="#F8B37D" d="M93.8,40.9c-0.7,0.2-1.4,0.2-2.1,0.1c0,0,0,0,0-0.1c-0.3-0.4,0.2-2.6,0.4-3c0.4-1.1,1-1.9,2.3-1.6
					C96.9,37.1,95.9,40.4,93.8,40.9z"/>
				<path opacity="0.6" fill="#E0AD8E" d="M90.5,34.3c0.3,1.4-0.1,2.8,0.3,3.1c0.8,0.6,1.3-1.4,1.3-1.8c0.3-1.9-1.2-3.3-2.2-4.7
					c-1-1.5-2.8-2.1-4.5-2.4c-2.4-0.5-5.1-0.5-7.5-0.1c-0.9,0.1-3.5,0.3-2.8,1.8c0.4,0.9,1.8,1.2,2.7,1.4c1.5,0.4,2.7,1.3,3.7,2.5
					c0.4,0.4,0.6,1,1,1.4c0,0,0.9-2.1,1.1-2.2c0.9,0.7,1.3,1.1,1.7,2c0.7-0.4,1.4-1.3,1.2-2.7c0.6,0.3,2.8,3.5,2.9,3.4
					C89.7,35.6,90.2,35.2,90.5,34.3z"/>
				<path opacity="0.6" fill="#E0AD8E" d="M92.5,40.3c-1.2-0.4-0.3-2.3,0.5-2.6c0.7-0.3,2.4-0.1,1.8,1c-0.5-0.9-1.2-0.2-1,0.4
					c0.1,0.4,0.8,0.4,0.2,1C93.6,40.4,92.8,40.4,92.5,40.3z"/>
				<path fill="#BD4617" d="M80.8,41.2c0,0.7,1.1,0.6,0.9,0c0.3,0.9,1.2,0.4,0.7-0.1c0.6,0.4,1.9,0.6,1.5-0.1c0.3,0.3,2,0.5,1.4-0.2
					c0.6,0.3,1.5,0.4,1.5,0c0.5,0.9,2.8,3.1,2.6,0.6c-0.1-1.9-2.7-2.5-4.2-2.4c-1.6,0.1-3.2,0.5-4.8,0.2c-1.4-0.2-3.5-1.1-4.8,0
					c-2.1,1.7-0.4,3.2,0.2,3c0.3-0.1,0.9-1,1.2-1.7c0,0.8,0.9,0.5,1.4,0.3c-0.2,0.4,0.5,0.9,1.4,0.2C79.4,41.4,79.9,41.9,80.8,41.2z
					"/>
				<path fill="#BD4617" d="M92.4,40.6c0.6,2.3,0.1,3.2-0.3,2.3c0,0.3,0.3,2.3-0.5,1.5c0.3,0.5,0.1,2.5-0.7,2c0.1,0.5-0.3,2.1-0.8,2
					c-0.1,0.5-1,2.1-1.5,1.1c0.1,0.1-0.6,1-0.7,1.2c-0.3,0.4-0.8,0.8-1.3,0.8c-0.3,0-0.4-0.2-0.6-0.2c-0.3,0-0.6,0.5-0.9,0.6
					c-0.3,0.1-0.6,0.3-0.9,0c-0.4,0.7-1.4,0.8-1.8,0.2c-0.3,0.6-1.5,0.5-1.7-0.1c-0.6,0.8-1.3-0.2-1.6-0.7c0.3,0.5-1.1,1-1.6-1.4
					c-0.1,0.6-0.6,0.5-0.9,0.1c-0.3-0.3-0.3-0.8-0.4-1.2c-0.9,0.6-1.1-1.1-1-1.6c-0.8,0.2-0.6-1.6-0.5-2c-1,0.5-0.6-1.5-0.4-1.9
					c-0.4,1.1-1-0.4-0.3-2c-1.1,0.8-0.4-4.3,0-5.1c0.2,0.9,0.1,3.4,0.9,4c0.5,0.5,1.4-0.4,2.1-0.1c0.5,0.2-1.7,6.8,1.5,6.9
					c1.1,0,1.2-1.2,3.3-0.8c1.1,0.2,2.2,1.8,3.5,1.2c2.6-1.2,2.5-5,1.8-6.3c-0.5-1.1,2.1,0.1,2.9-1c0.5-0.7,0.4-1.8,0.9-2.4
					c0.6-0.8,1.4-0.4,1.4,0.5C92.3,38.9,92.1,39.8,92.4,40.6z"/>
				<path fill="#D65C14" d="M89.8,41c-0.3,0.3-0.7,0.6-0.9,1c-0.3,0.6-0.2,4.4,0.6,4.6c0.7,0.1,0.7-1.6,0.7-2
					c0.6,1.1,0.8-1.2,0.7-1.7c1,0.7,0.4-2,0.4-2.3c0,0.2,0.4-0.5,0.4-0.5c0.1-0.3,0-0.7,0-1c-0.2,0.3-0.9,0.7-0.9,0.1
					C90.8,39.6,90.1,40.7,89.8,41z"/>
				<path fill="#DB6012" d="M76.1,27c1.5-0.9,3.2-1.6,4.9-1.8c1-0.1,1.9-0.4,2.9-0.4c1.7,0,3.3,0.5,4.7,1.2c2.2,1.1,3.7,3.5,4.4,5.8
					c0.4,1.3,0.7,2.8,0.4,4.1c-0.2,0.9-0.9,2.8-2.2,3c-0.3,0.1-0.7-0.1-0.6-1.1c0.1-1.5,0.7-3.6-0.4-5c0.3,0.7-0.1,1.6-0.7,2.2
					c-0.7-1.3-1.9-2.7-3.4-3c0.1,1.1-0.6,2.3-0.8,2.5c-0.2-0.8-0.8-1.7-1.6-2c-0.3,0.7-0.6,1.5-1.2,2.1c-1-1.1-1.7-2.4-2.9-3.2
					c-1.3-0.8-3-0.6-4.2-1.5C74.2,29,75.2,27.6,76.1,27z"/>
				<path opacity="0.35" fill="#BD561F" d="M79.3,38.8C79,39,79.5,40,81,40.2c1.4,0.1,2.3-0.9,1.8-1.2c-0.5-0.3-0.9,0-1.7-0.1
					C80.1,38.8,79.7,38.4,79.3,38.8z"/>
				<path fill="#F9BF8E" d="M79.4,38.9c-0.4-0.3,0.4-3.9,2.1-3.7c1.4,0.1,1.9,3.7,1.1,4.1C81.6,39.8,79.9,39.3,79.4,38.9z"/>
				<path fill="#D65C14" d="M80,46.9c1.3-0.6,2.6,0.1,3.7,1.1c0.9,0.8,1.2,2.6,0,3.5c-0.4,0.3-0.8,0.3-0.8-0.7
					c-0.5,0.8-1.6,1.6-1.8,0.4c-0.7,0.6-1.4,0.2-1.6-0.6c-0.8,1.1-1.7-0.6-1.7-1.4C77.8,48,79,47.4,80,46.9z"/>
				<path fill="#D65C14" d="M82.8,39.7c2.7-1.5,7.4,0.3,6.3,4c-0.2,0.5-0.3,1-0.8,1.2c-0.7-1.6,0.2-4-1.7-4.8
					c0.8,1.3-1.5,0.1-1.8-0.1c1,1.5-0.8,0.8-1.5,0.3c0.2,0.2,0.3,0.5,0.3,0.8c-0.5,0.2-1-0.2-1.3-0.6c0.2,0.7-0.5,0.8-0.9,0.4
					c-0.2,0.4-0.4,0.3-0.6-0.1C80.5,41,80.3,41,80.1,41c0-0.1-0.1-0.3,0-0.5c-0.5,0.3-1.5,0.5-1.2-0.4c-0.4,0.7-1.9,0.7-1.5-0.3
					c-0.9,0.6-1.1,1.8-1.2,2.8c-0.1,0.6,0.3,3.6-1,2.6c-0.5-0.4-0.6-1.6-0.3-2.2c-1.2,0.9,0.1-2,0.3-2.3c0.6-1.1,1.3-1.8,2.6-1.6
					c1.1,0.1,1.6,0.7,2.5,1.1C81.3,40.5,82.1,40.1,82.8,39.7z"/>
				<path fill="#D65C14" d="M86.5,47.4c-0.6,0.5-1.2,0.9-2.1,0.8c-0.3,0-0.6-0.2-0.9-0.3c0,0.8,0.1,3.5,1.3,3.1
					c0.4-0.1,0.7-0.7,1.1-0.9c-0.2,0.1,0.4,0.7,0.9,0.4c0.5-0.3,0.8-1.2,0.6-1.7c0.4,1.1,0.9-0.8,0.9-1.1c0-0.4,0.3-1.8-0.3-2
					C87.4,45.6,86.9,47.1,86.5,47.4z"/>
				<path fill="#D65C14" d="M76.8,46.8c-0.1-0.2-0.2-0.8-0.5-0.8c-0.5,0.1-0.5,1.4-0.5,1.7c0.1,0.4,0.5,1,0.9,0.4c0,0,0,0,0,0
					c0,1.4,1.2,1.9,2.1,0.9c0.3-0.3,0.6-1.1,0.1-1.4c-0.2-0.1-0.8,0.1-1,0C77.5,47.6,77.1,47.3,76.8,46.8z"/>
				<path fill="#EB781C" d="M89.4,34.2c0.9-0.9-0.3-1.6,0-2.6c0.6,0.7,1.4,1.1,1.8,1.9c-0.1-0.4-0.2-0.7-0.2-1.1
					c0.3,0.8,1.1,1.5,2,1.7c-0.4-0.6,0.8-2,1.1-2.5c0.5-1,0.5-1.9,0.5-3c-0.1-2.3-2.2-3.7-4.1-4.3c-2.2-0.7-4.6-0.7-6.8,0.1
					c-1.6,0.7-2.7,1.9-3.1,3.6c-0.5,1.9-0.2,4.5,1.7,5.7c0.2,0.1,0.3,0.2,0.5,0.3c0.1-0.4,0.4-0.9,0.6-1.3c0.1-0.3,0.2-0.8,0.4-1.1
					c0.7,0.4,1.2,1.1,1.9,1.6c0.2-0.6,0.3-1.3,0.2-1.9c0.7-0.1,1.6,0.7,2.1,1C88.8,33,89.5,34.1,89.4,34.2z"/>
				<path fill="#EB781C" d="M81.9,24.6c-0.9,0.8-1.7,1.8-2.1,2.9c-0.2,0.6-0.3,1.2-0.3,1.8c0,0.2,0.2,0.8,0,1
					c-0.3,0.3-1.9-0.2-2.2-0.3c-0.6-0.1-1.1-0.4-1.5-0.7c-0.3-0.3-0.5-0.6-1-0.6c-1.5,0.2-0.3,3.3-1.5,4c0-0.5-0.1-0.9-0.3-1.4
					c-0.7-2,0.2-3.5,1.4-5c1.5-1.9,4.3-2.9,6.6-2.1C81.2,24.2,81.8,24.7,81.9,24.6z"/>
			</g>
		</g>
		<g>
			<defs>
				<filter id="Adobe_OpacityMaskFilter_4_" filterUnits="userSpaceOnUse" x="25.9" y="75.1" width="23.1" height="3">
					<feColorMatrix  type="matrix" values="1 0 0 0 0  0 1 0 0 0  0 0 1 0 0  0 0 0 1 0"/>
				</filter>
			</defs>
			<mask maskUnits="userSpaceOnUse" x="25.9" y="75.1" width="23.1" height="3" id="SVGID_7_">
				<g filter="url(#Adobe_OpacityMaskFilter_4_)">
					<defs>
						<filter id="Adobe_OpacityMaskFilter_5_" filterUnits="userSpaceOnUse" x="25.1" y="74.7" width="24.5" height="3.7">
							<feFlood  style="flood-color:white;flood-opacity:1" result="back"/>
							<feBlend  in="SourceGraphic" in2="back" mode="normal"/>
						</filter>
					</defs>
					<mask maskUnits="userSpaceOnUse" x="25.1" y="74.7" width="24.5" height="3.7" id="SVGID_7_">
						<g filter="url(#Adobe_OpacityMaskFilter_5_)">
						</g>
					</mask>
					
						<radialGradient id="SVGID_8_" cx="-1392.5724" cy="62394.4297" r="9.2053" gradientTransform="matrix(-1.2017 0 0 0.1624 -1636.0496 -10056.3096)" gradientUnits="userSpaceOnUse">
						<stop  offset="0" style="stop-color:#FFFFFF"/>
						<stop  offset="7.362918e-002" style="stop-color:#E1E1E1"/>
						<stop  offset="0.2544" style="stop-color:#9E9E9E"/>
						<stop  offset="0.4259" style="stop-color:#666666"/>
						<stop  offset="0.5834" style="stop-color:#3A3A3A"/>
						<stop  offset="0.724" style="stop-color:#1B1B1B"/>
						<stop  offset="0.8425" style="stop-color:#080808"/>
						<stop  offset="0.9247" style="stop-color:#010101"/>
					</radialGradient>
					<ellipse mask="url(#SVGID_7_)" fill="url(#SVGID_8_)" cx="37.4" cy="76.5" rx="12.3" ry="1.8"/>
				</g>
			</mask>
			
				<radialGradient id="SVGID_9_" cx="-1427.5221" cy="62490.75" r="9.7211" gradientTransform="matrix(-1.1502 0 0 0.1329 -1604.5292 -8228.4746)" gradientUnits="userSpaceOnUse">
				<stop  offset="0" style="stop-color:#010101"/>
				<stop  offset="0.9247" style="stop-color:#010101"/>
			</radialGradient>
			<ellipse opacity="0.2" fill="url(#SVGID_9_)" cx="37.4" cy="76.5" rx="11.5" ry="1.5"/>
			<g>
				<path fill="#F8B881" d="M49,44.9c0.9-1.2-0.6-4.6-4.5,0.6c-1.3,1.7,0.1,2.1,1.4,2.9c0.7,0.4,1.4,1.1,1.9,0
					c0.3-0.6,0.2-1.1,0.4-1.8C48.5,46.1,48.7,45.3,49,44.9z"/>
				<g>
					<path fill="#404049" d="M43.9,37.7c-0.2-0.2-0.5-0.2-0.7,0.1L40.3,41c-0.2,0.2-0.2,0.6,0,0.7l5.7,5.2c0.2,0.2,0.5,0.2,0.7-0.1
						l2.9-3.2c0.2-0.2,0.2-0.6,0-0.7L43.9,37.7z"/>
					<path fill="#141418" d="M43.7,37.5c-0.2-0.2-0.5-0.1-0.7,0.1l-2.8,3.1c-0.2,0.2-0.2,0.5,0,0.7l5.5,4.9c0.2,0.2,0.5,0.1,0.7-0.1
						l2.8-3.1c0.2-0.2,0.2-0.5,0-0.7L43.7,37.5z"/>
					<path fill="#1D1D27" d="M43.7,37.5c-0.2-0.2-0.5-0.1-0.7,0.1l-2.8,3.1c-0.2,0.2-0.2,0.5,0,0.7l5.5,4.9c0.2,0.2,0.5,0.1,0.7-0.1
						l2.8-3.1c0.2-0.2,0.2-0.5,0-0.7L43.7,37.5z"/>
					<path fill="#FFFFFF" d="M43.8,38.6c-0.2-0.1-0.4-0.1-0.5,0l-2.1,2.3c-0.1,0.2-0.1,0.4,0,0.5l4.2,3.8c0.2,0.1,0.4,0.1,0.5,0
						l2.1-2.3c0.1-0.2,0.1-0.4,0-0.5L43.8,38.6z"/>
					
						<linearGradient id="SVGID_10_" gradientUnits="userSpaceOnUse" x1="-267.1204" y1="-511.3437" x2="-267.1204" y2="-503.3059" gradientTransform="matrix(0.6397 -0.7094 0.6509 0.5868 545.4269 149.888)">
						<stop  offset="0" style="stop-color:#FFFFFF"/>
						<stop  offset="1" style="stop-color:#000000"/>
					</linearGradient>
					<path opacity="0.75" fill="url(#SVGID_10_)" d="M43,37.6l-2.8,3.1c-0.2,0.2-0.2,0.5,0,0.7L44,45c0.5-1.7,1.9-4.9,2.1-5.2
						l-2.5-2.2C43.5,37.4,43.2,37.4,43,37.6z"/>
				</g>
				<path fill="#F8B881" d="M44.5,44.9c0.5,0.5,0.8,1.3,0.6,1.9c-0.1,0.3-0.4,0.7-0.8,0.4c-0.5-0.3-0.2-1-0.4-1.4
					c-0.1-0.2-0.6-0.7-0.5-1C43.6,44.4,44.3,44.7,44.5,44.9z"/>
				<path fill="#E9E8E8" d="M41.9,50.8c1.3,0.8,4.5,2.5,5.2,1.1c0.7-1.4-1.7-3.5-1.7-3.5l3.1-1.8c0,0,3.8,4.7,1.2,7.7
					c-2.1,2.5-6.2,1.5-8.5-0.1C41.1,54.2,41.5,50.5,41.9,50.8z"/>
				<path opacity="0.3" fill="#D99D7A" d="M44.1,44.7c0.3,0.1,0.5,0.3,0.6,0.7c0.1,0.2,0.1,0.4,0,0.7c0,0.2-0.1,0.6-0.3,0.7
					c-0.2,0.1-0.3-0.6-0.4-0.7c-0.2-0.3-0.4-0.5-0.5-0.8c-0.1-0.4,0.1-0.5,0.4-0.5C44,44.6,44,44.7,44.1,44.7z"/>
				<circle fill="#FFFFFF" cx="48.4" cy="47.7" r="0.4"/>
			</g>
			<path fill="#0D0F12" d="M33.6,73.3c2.2-0.6,2.6,2.4,1.1,3.7c-1.5,1.4-3.7,0.9-3-1.2C32,74.8,32.4,73.6,33.6,73.3z"/>
			<path fill="#0D0F12" d="M40.4,73.3c-2.3-0.3-2.3,2.6-0.6,3.8c1.6,1.2,3.7,0.5,2.8-1.5C42.2,74.6,41.6,73.5,40.4,73.3z"/>
			<path fill="#252728" d="M42.3,75.4c-0.1-0.1-0.2-0.3-0.3-0.4c-0.3,0.3-1.1,0.3-1.5,0.3c-0.4,0-1,0.1-0.5,0.5
				c0.4,0.3,1.1,0.6,1.7,0.6C42.3,76.4,42.5,75.9,42.3,75.4z"/>
			<path fill="#252728" d="M32,75.6c0.1-0.1,0.1-0.3,0.3-0.4c0.3,0.3,1.2,0.2,1.5,0.2c0.4,0,1,0,0.5,0.5c-0.4,0.4-1,0.7-1.6,0.7
				C32.1,76.6,31.8,76.1,32,75.6z"/>
			<path fill="#E9E8E8" d="M32.2,50.6c-3.8,1.7,0.4,12.6,0.4,12.3l9,0.1c0-0.3,3.4-10.7,0.2-12.4C39.6,49.5,34.7,49.5,32.2,50.6z"/>
			<path fill="#1D1D27" d="M32.3,63.9l0-0.5c0,0,0,0,0,0v0l0-0.9c0,0,4.7,0.8,9.4,0l-0.1,1.3c-0.3,4.8,0.6,8.8,1.1,10.4
				c-0.6,0.4-2,0.7-3.1,0.7c-0.4,0-1.9-0.2-2.4-0.5c0.1-1.5,0.2-3.5,0.1-5.1c0-0.8,0-1.4,0-1.9c-0.1-0.3-0.4-0.2-0.5,0.1
				c-0.2,2.2-0.4,4.3-0.2,7c-1.4,0.2-2.8,0.7-4.2,0.2c-0.4-0.1-0.7-0.3-1.1-0.5C32.1,72.2,32.3,66.2,32.3,63.9z"/>
			<path fill="#0D0F12" d="M32.3,62.7c0,0,4.4,0.8,9.3-0.1l-0.1,1.1c0,0-3.6,1.2-9.2,0L32.3,62.7z"/>
			<path fill="#44454E" d="M38.4,64.3c0-0.4,0-0.8,0-1.2c-0.9,0-1.8,0-2.6,0c0.1,0.4,0.1,0.8,0.1,1.2C36.8,64.3,37.7,64.3,38.4,64.3
				z"/>
			<path fill="#3C9AD5" d="M36.8,52.9c1.2-0.2,1.7,0.7,1.7,0.7L38,54.8l1.3,3.4l-1.6,3.4l-2.1-3.3l1-3.3l-0.9-0.9
				C35.6,54.1,35.7,53.1,36.8,52.9z"/>
			<path opacity="0.1" fill="#010101" d="M41.2,51.6c-0.1,1.5-0.5,1.8-2.3,3.5l-1.8-1.7l-1.7,1.8c0,0-1.9-1.1-2.4-3.3
				C32.5,49.8,41.4,50.1,41.2,51.6z"/>
			<path fill="#F2F2F2" d="M37.1,53.4l1.7,1.2c0,0,3.4-1.9,2.1-4.7c-1.2-2.5-7-2.3-8,0.5c-0.9,2.4,2.3,4.3,2.3,4.3L37.1,53.4z"/>
			<path fill="#F3A76E" d="M34.3,51.7c0.3,0.3,0.9,0.7,1.5,0.9c0.4,0.1,1.2,0.6,1.3,0.6c0.1,0,0.3-0.2,0.7-0.4
				c0.6-0.3,1.4-0.7,1.7-1.3c0.5-0.9,0.9-2.7,0-3.4c-0.9-0.7-2.7-0.9-3.8-0.6c-1.1,0.3-1.9,1.3-2,2.4C33.7,50.7,33.8,51.2,34.3,51.7
				z"/>
			<g>
				<path fill="#F8B87F" d="M29.4,61.7c0.4,0.2,0,1.1,0.7,1.7c0.7,0.6-0.7-0.1-0.9,0.7c-0.2,0.7,2.8,2,3.4-0.3
					c0.7-2.3-0.9-3.3-3.5-3.4C26.7,60.4,29.4,61.7,29.4,61.7z"/>
				<path fill="#E9E8E8" d="M32.2,50.6c-2.8,1.1-6.6,4.3-6.8,7.3c-0.2,3.8,4,5.4,4,5.4l1.8-2.9c0,0-2.7-0.8-2.5-2.6
					c0.1-1.3,2.2-3,3.5-3.3C32.9,54.3,32.8,50.4,32.2,50.6z"/>
				<circle fill="#FFFFFF" cx="29" cy="62.2" r="0.4"/>
			</g>
			<g>
				<path fill="#2C231D" d="M45.4,29.5c-0.3-1.1-0.9-2.1-1.6-2.8c-3-3.2-7.9-3.6-13.4-1.2c0.5,0,1.5,0.1,2.9-0.1
					c-2.9,1.3-6.4,3.1-7.1,6.5c-1.9,8.5,5.1,4.6,7.5,5.3c2.7,0.8,9.4-0.1,11.3-2.9C45.8,33.1,45.8,31.2,45.4,29.5z"/>
				<path fill="#FBCBA0" d="M28,42.2c0.6,4.6,4.2,9.7,9.5,9.3c5.5-0.4,8.2-7.2,7.5-12.8c-0.8-6.2-3.7-11.3-10.1-10
					C30.4,29.5,27.2,36,28,42.2z"/>
				<path opacity="0.3" fill="#BF3D1C" d="M31.5,33.8c-0.6,0.3-2.3,1.2-3.2-0.2c-0.4-0.6-0.1-1.6,0.1-2.4c0.3-0.9,1.3-1.4,2.2-1.8
					c1.5-0.7,3.3-0.6,4.9-0.6c1.8,0,3.7,0.3,5.4,0.8c1.2,0.3,3.4,0.6,3.8,2c0.5,1.7-1.3,1.9-2.5,1.9C39.3,33.5,32.9,33,31.5,33.8z"
					/>
				<path fill="#FBCBA0" d="M26.9,44.2c0.6,0.2,1.2,0.2,1.8,0.2c0,0,0,0,0-0.1c0.3-0.4-0.1-2.8-0.2-3.3c-0.3-1.1-1-1.7-2.1-1.4
					C24.2,40.2,25.1,43.5,26.9,44.2z"/>
				<path opacity="0.3" fill="#C94817" d="M27.8,43.3c0.8-0.5,0-2.2-0.6-2.5c-0.5-0.2-1.8,0.2-1.2,1.2c0.3-0.9,0.9-0.3,0.8,0.3
					c-0.1,0.4-0.5,0.4-0.1,1C27,43.6,27.6,43.5,27.8,43.3z"/>
				<path fill="#2C231D" d="M42.1,26.8c-3.4-1.8-8.7-1.3-11.6,0.8c-2,1.5-3,3.2-2.9,5.7c0.1,1.3,1.9,1.6,2.6,0.6
					c0.7-0.8,1.6-1,2.6-1.1c1.7-0.1,8.5-0.4,10.1,0.2c0.9,0.3,2,0.8,2.2-0.6c0.2-1.5-0.2-3.1-1.3-4.2C43.4,27.6,42.8,27.2,42.1,26.8
					z"/>
				<path fill="#45362E" d="M44.5,31.6c0.1-0.7,0-1.5-0.2-2.1c-0.3-0.9-0.8-1.5-1.4-2.1c-1.3-1.2-3.1-2.2-4.9-2.4
					c-0.9-0.1-2.8-0.1-3.6,0.3c0.3,0.2,1,0.3,1.3,0.5c-1.3,0.3-2.5,0.7-3.7,1.2c-0.4,0.2-3.4,2.2-3.4,2.2c0.8,0.5,1.8,0.3,2.7,0.1
					c1.4-0.3,2.7-0.4,4.1-0.1c1.3,0.3,2.4,0.9,3.7,1.2c0-0.6-0.5-1.1-0.8-1.5c0.7,0,3.5,1.8,4.1,2.2c-0.1-0.5-0.8-1.5-0.9-2.1
					C42.4,29.4,44,30.8,44.5,31.6z"/>
				<path fill="#2C231D" d="M29.9,34.2c-0.5,2.9-0.9,4.3-0.5,6.9c0,0-1.3-1.4-2.4-1.6c-0.1-0.2-0.2-2-0.2-3.5
					C26.8,34.6,28.9,34.2,29.9,34.2z"/>
			</g>
			<g>
				<path fill="#F49E75" d="M44.2,41.3c0.1,0.1,0.1,0.2,0.2,0.3c0.3,1.3-2.5,0.8-2.9,0.3c-0.6-1,0.3-1.3,1-1.3
					C43.1,40.7,43.8,40.8,44.2,41.3z"/>
				<path fill="#F49E75" d="M33.5,41.2c0.1,0.1,0.2,0.2,0.2,0.3c0.7,1.2-2.3,1.5-2.8,1c-0.9-0.9,0-1.4,0.7-1.6
					C32.2,40.8,33,40.7,33.5,41.2z"/>
				<g>
					<path fill="#281C19" d="M32.5,40.5c-0.3-0.2-0.8-0.2-1.2-0.1c-0.8-0.7-0.1-2.8,1.1-2.3C33.3,38.5,33.3,40.1,32.5,40.5z"/>
				</g>
				<path opacity="0.3" fill="#B64E26" d="M39.5,41.9c-0.3-0.4-0.7,0-1.5,0c-0.7,0-1-0.3-1.4,0c-0.5,0.3,0.2,1.2,1.4,1.2
					C39.2,43,39.7,42.2,39.5,41.9z"/>
				<path fill="#FDDEC3" d="M37.8,39.3c-1.3-0.1-1.4,2.6-1.1,2.8c0.7,0.6,2.2,0.2,2.7-0.3C39.6,41.7,39.1,39.4,37.8,39.3z"/>
				<g>
					<path fill="#281C19" d="M43.7,38.1c0.6,0.4,0.6,1.7,0.2,2.2c-0.3-0.1-0.9-0.2-1.2,0C41.7,39.7,42.6,37.4,43.7,38.1z"/>
				</g>
				<path opacity="0.7" fill="#E7D3C4" d="M31.9,38.7c0.4-0.1,0.7,0.5,0.4,0.8C31.8,39.8,31.4,38.8,31.9,38.7z"/>
				<path opacity="0.7" fill="#E7D3C4" d="M43.1,38.5c0.4-0.1,0.6,0.6,0.2,0.8C42.9,39.5,42.7,38.6,43.1,38.5z"/>
				<path fill="#2C231D" d="M33.5,35.6c0.4,0.1,1,0.5,0.7,1.3c-0.2,0.6-1.2,0.3-2.4,0.4c-1.4,0.1-1.8,0.3-1.9-0.1
					c-0.1-0.4,0-1,1.2-1.4C32,35.5,32.7,35.5,33.5,35.6z"/>
				<path fill="#2C231D" d="M41.8,35.7c-0.4,0.1-1,0.6-0.7,1.3c0.2,0.6,1.2,0.3,2.5,0.2c1.4,0,1.8,0.2,1.9-0.3c0.1-0.4,0-1-1.3-1.3
					C43.4,35.5,42.6,35.5,41.8,35.7z"/>
				<path fill="#2C231D" d="M41.5,43c0.5,0.3,1.6,1.6,2.6,0.7c0.5-0.4,1.2-2.3,1-4.6c1.2,0.8,1.1,3.2,0.9,4.4
					c-0.1,0.5-0.5,1.1-0.4,1.6c0.1,0.8,0.7,1.6,0.8,2.4c0.2,1,0.1,2.3-1,2.6c0.1,1.2-0.2,1.9-1.6,1.8c0.4,1.5-1.1,2.5-2.4,1.5
					c0.1,1.7-3.4,0.9-4.1,0.2c-0.2,0.8-1.4,0.9-2,0.7c-0.8-0.2-1.3-0.8-1.6-1.5c-0.5,0.5-1.6,0.5-2.2,0.2c-0.7-0.5-0.7-1.4-0.6-2.1
					c-1.4,0.4-1.5-1.2-1.3-2.2c-1-0.2-1.1-1.9-1.1-2.7c0-1-0.8-6,0.2-6.3c0.9-0.3,0.8,1,0.9,1.5c0.6,3.5,3.1,4.1,4.2,2.7
					c1.3-1.8,2.3-1.2,4.3-1.2C39.6,42.5,40.3,42.1,41.5,43z"/>
				<path fill="#F6B47B" d="M41.6,45.8c-0.1-0.5-1.3-0.7-1.6-1.1c-0.3,0.6-1.4,0.2-1.8,0c-0.4,0.5-1.6,0.6-2.1,0.1
					c-0.1,0.4-1.3,0.7-1.3,1.2C35.8,47.7,41,47.1,41.6,45.8z"/>
				<path fill="#BF795C" d="M36.2,45.6c0.5-0.2,3.1-0.5,3.7-0.1C38.5,45.9,36.2,45.6,36.2,45.6z"/>
				<path opacity="0.5" fill="#45362E" d="M43.3,49.2c0.1,0.4,0.4,1.1,0.2,1.4c-0.4,0.7-1.8,0.2-2.3,0c0.2,0.4,0.7,1,0.4,1.4
					c-0.6,0.7-1.5-0.7-2-0.5c-0.3,0.1,0,1-0.6,1.2c-0.7,0.3-1.4-0.8-1.9-1c-0.4,0.5-0.9,0.8-1.5,0.7c-0.9-0.1-0.8-0.7-1-1.4
					c-0.7,0.8-1.9,1.1-2.1-0.3c-0.9,1.2-1-1.4-0.6-2.1c0.3-0.5,0.7-1,1.2-1.3c0.7-0.6,1-0.4,1.9-0.2c1.4,0.3,3.2,0.6,4.6,0.4
					c1.7-0.3,3-1.5,4.3,0c0.2,0.3,0.8,0.9,0.6,1.3C44.3,49.2,43.4,49.5,43.3,49.2z"/>
			</g>
			<g>
				<path opacity="0.1" fill="#010101" d="M40.6,41.8c-0.2-0.2-0.4-0.4-0.6-0.7c-0.3-0.6-0.3-1.2-0.1-1.8c0.3-0.8,1.2-0.8,1.9-0.9
					c0.9-0.1,1.9,0,2.8-0.1c0.1,0,0-0.8-0.1-0.8c-0.1-0.3-0.3-0.4-0.5-0.5c-0.7-0.2-1.7,0-2.4,0.2c-0.7,0.2-1.5,0.2-2.2,0.6
					c-0.6,0.3-0.9,0.5-1.6,0.4c-1.3-0.1-2.4-0.9-3.6-1.1c-1.3-0.2-2.7-0.4-4,0c-0.3,0.1-1.4,0.5-0.7,0.8c0.7,0.4,1.7,0.3,2.5,0.3
					c0.3,0,0.7,0,1,0.1c1.2,0.1,3.1,0,3,1.5c-0.1,1-0.8,2.1-1.7,2.3c-0.8,0.2-1.7,0.2-2.5,0.2c-0.6,0-1.2-0.2-1.8-0.4
					c-0.2-0.1-0.6-0.4-0.8-0.2c-0.3,0.4,0.7,1,1,1.1c0.6,0.3,1.2,0.4,1.9,0.5c1.6,0.2,3.2,0.2,4.2-1.3c0.5-0.8,0.8-1.8,1.3-2.7
					c0.8-1.4,1.2,0.5,1.4,1.4c0.1,0.5,0.3,0.9,0.6,1.4c0.5,0.7,1.5,1.1,2.4,1.2c0.5,0,2.3,0.4,2.8-0.6c0.2-0.3-0.8-0.1-1.2-0.2
					c-0.2-0.1-0.6,0-0.8-0.1c-0.3,0-0.7,0-1-0.1C41.3,42.2,40.9,42,40.6,41.8z"/>
				<g>
					<path fill="#3A3A4A" d="M26.9,38c0,0,0.3,0.2,0.8,0.2c0.1,0.7,0.1,2.6,1.5,3.8c1.2,1,4.8,1.1,6,0.5c1.4-0.8,1.9-2.1,2.2-3.4
						c0.5-3.2-7-2.5-8.5-2.4c-1.1,0.1-2-0.2-2.2,0C26.3,37.1,26.9,38,26.9,38z M28.8,38.3c1.3-0.8,6.3-0.7,7.5,0.1
						c0.6,0.4-0.1,2.6-1.1,3.3c-1.4,0.9-4.9,0.6-5.9-0.5C28.6,40.4,28.4,38.5,28.8,38.3z"/>
				</g>
				<g>
					<path fill="#3A3A4A" d="M48.3,36.8c-0.2-0.2-1,0.1-2,0c-1.3-0.1-8.2-0.8-7.7,2.4c0.2,1.3,0.7,2.6,1.9,3.4
						c1,0.6,4.3,0.4,5.4-0.6c1.3-1.2,1.3-3.1,1.4-3.8c0.4,0,0.8-0.3,0.8-0.3S48.6,37.1,48.3,36.8z M45.9,41.2
						c-0.9,1.1-4.1,1.5-5.3,0.5c-0.9-0.7-1.5-2.9-1-3.3c1.1-0.9,5.6-1,6.8-0.2C46.7,38.5,46.5,40.4,45.9,41.2z"/>
				</g>
				<path opacity="0.3" fill="#FFFFFF" d="M40.4,38.2c0.8-0.3,5.1-0.4,5.6,0c0.3,0.3-0.9,0.8-1.5,0.8c-1.1,0.1-2.2,0.1-3.2-0.1
					C41,39,39.7,38.5,40.4,38.2z"/>
				<path fill="#FFFFFF" d="M43.8,38.2c0.9-0.1,2.4,0.1,2.2,0.4c-0.2,0.3-2.6,0.3-2.8,0C43.1,38.4,43.4,38.3,43.8,38.2z"/>
				<path opacity="0.7" fill="#FFFFFF" d="M41.1,41c0.5,0,1.4,0.4,1.3,0.6c-0.1,0.2-1.6,0-1.7-0.4C40.7,41,40.9,40.9,41.1,41z"/>
				<path opacity="0.7" fill="#FFFFFF" d="M30.2,41c0.6,0.1,1.5,0.5,1.3,0.6c-0.2,0.2-1.7-0.1-1.7-0.5C29.7,41,29.9,40.9,30.2,41z"
					/>
				<path opacity="0.3" fill="#FFFFFF" d="M29.7,38.2c0.5-0.4,5.2-0.2,6.1,0.1c0.9,0.3-0.6,0.7-0.9,0.8c-1.1,0.2-2.3,0.2-3.5,0
					C30.8,38.9,29.4,38.5,29.7,38.2z"/>
				<path fill="#FFFFFF" d="M33.8,38c0.9-0.1,2.5,0.2,2.3,0.4c-0.2,0.3-2.7,0.3-2.9-0.1C33.1,38.2,33.3,38.1,33.8,38z"/>
				<path fill="#3A3A4A" d="M36.3,37.3c1.3,0.4,2.3,0.3,3.4,0c1-0.3,0,0.5-0.2,0.7c-0.2,0.2-0.3,2.6-0.7,1.7
					c-0.4-0.9-1.1-0.9-1.5,0.1c-0.4,1-0.2-0.8-0.3-1.3C36.8,38,35.2,37,36.3,37.3z"/>
				<path fill="#C2C6CA" d="M36.2,37.8c-1.2-0.9-3.1-1-6.9-0.7C32.2,37.1,34.5,37.2,36.2,37.8z"/>
				<path fill="#C2C6CA" d="M40,37.7c1-0.8,2.6-0.7,6.1-0.7C43.5,37.2,41.5,37.1,40,37.7z"/>
			</g>
		</g>
		<g>
			<defs>
				<filter id="Adobe_OpacityMaskFilter_6_" filterUnits="userSpaceOnUse" x="2.5" y="74.6" width="22.9" height="2.9">
					<feColorMatrix  type="matrix" values="1 0 0 0 0  0 1 0 0 0  0 0 1 0 0  0 0 0 1 0"/>
				</filter>
			</defs>
			<mask maskUnits="userSpaceOnUse" x="2.5" y="74.6" width="22.9" height="2.9" id="SVGID_11_">
				<g filter="url(#Adobe_OpacityMaskFilter_6_)">
					<defs>
						<filter id="Adobe_OpacityMaskFilter_7_" filterUnits="userSpaceOnUse" x="1.8" y="74.2" width="24.3" height="3.6">
							<feFlood  style="flood-color:white;flood-opacity:1" result="back"/>
							<feBlend  in="SourceGraphic" in2="back" mode="normal"/>
						</filter>
					</defs>
					<mask maskUnits="userSpaceOnUse" x="1.8" y="74.2" width="24.3" height="3.6" id="SVGID_11_">
						<g filter="url(#Adobe_OpacityMaskFilter_7_)">
						</g>
					</mask>
					
						<radialGradient id="SVGID_12_" cx="-4045.47" cy="62391.4609" r="9.1354" gradientTransform="matrix(-1.2017 0 0 0.1624 -4847.5034 -10056.3096)" gradientUnits="userSpaceOnUse">
						<stop  offset="0" style="stop-color:#FFFFFF"/>
						<stop  offset="7.362918e-002" style="stop-color:#E1E1E1"/>
						<stop  offset="0.2544" style="stop-color:#9E9E9E"/>
						<stop  offset="0.4259" style="stop-color:#666666"/>
						<stop  offset="0.5834" style="stop-color:#3A3A3A"/>
						<stop  offset="0.724" style="stop-color:#1B1B1B"/>
						<stop  offset="0.8425" style="stop-color:#080808"/>
						<stop  offset="0.9247" style="stop-color:#010101"/>
					</radialGradient>
					<path mask="url(#SVGID_11_)" fill="url(#SVGID_12_)" d="M1.8,76.1c0,1,5.4,1.8,12.2,1.8s12.2-0.8,12.2-1.8
						c0-1-5.4-1.8-12.2-1.8S1.8,75.1,1.8,76.1z"/>
				</g>
			</mask>
			
				<radialGradient id="SVGID_13_" cx="-4199.2017" cy="62487.1055" r="9.654" gradientTransform="matrix(-1.1502 0 0 0.1329 -4815.9844 -8228.4746)" gradientUnits="userSpaceOnUse">
				<stop  offset="0" style="stop-color:#010101"/>
				<stop  offset="0.9247" style="stop-color:#010101"/>
			</radialGradient>
			<path opacity="0.2" fill="url(#SVGID_13_)" d="M2.5,76.1c0,0.8,5.1,1.5,11.5,1.5c6.3,0,11.5-0.7,11.5-1.5c0-0.8-5.1-1.5-11.5-1.5
				C7.6,74.6,2.5,75.3,2.5,76.1z"/>
			<g>
				<path fill="#F8B881" d="M6,62.2c0.4,0.6-0.1,1.2,0.8,1.7c0.9,0.5-0.6-0.1-0.7,0.7c-0.2,0.7,3.2,1.6,3.7-0.7c0.4-2-0.8-2.7-2.8-3
					C6.2,60.8,5.7,61.6,6,62.2z"/>
				<g>
					<path fill="#E9E8E8" d="M6.2,63.4c-2.7-2.1-3.1-4.2-3-5.6c0.4-3.7,4.6-6,5.9-6.7l1.3,2.7c-2,0.9-4.1,2.7-4.3,4.3
						c-0.1,1,0.5,2,1.8,3L6.2,63.4z"/>
				</g>
			</g>
			<g>
				<path fill="#F8B881" d="M22.2,62.2c-0.4,0.6,0.1,1.2-0.8,1.7c-0.9,0.5,0.6-0.1,0.7,0.7c0.2,0.7-3.2,1.6-3.7-0.7
					c-0.4-2,0.8-2.7,2.8-3C22,60.8,22.6,61.6,22.2,62.2z"/>
				<g>
					<path fill="#E9E8E8" d="M22,63.4L20.2,61c1.3-1,1.9-2,1.8-3c-0.2-1.7-2.3-3.4-4.3-4.3l1.3-2.7c1.3,0.6,5.5,2.9,5.9,6.7
						C25.1,59.1,24.8,61.3,22,63.4z"/>
				</g>
			</g>
			<g>
				<path fill="#252728" d="M8.9,75.7c-0.1,0.1,0,1,0,1.2c0.3,0.7,2.8,0.9,3.6,0.1c1-1.1,0.6-2.5,0.5-2.6C12.9,74.2,9,75.6,8.9,75.7
					z"/>
				<path fill="#0D0F12" d="M11.2,73.7c-1.1-0.1-0.9-0.9-1.1-0.5c-0.2,0.4-0.4,0.8-0.6,1.1c-0.3,0.4-0.7,1-0.5,1.5
					c0.4,1,2.9,1,3.6,0.3c0.6-0.6,0.7-1.7,0.5-2.5C12.7,72.8,12.7,73.9,11.2,73.7z"/>
				<path fill="#252728" d="M9.7,75.1c-0.7,0.5,0.7,0.7,1.1,0.7C12.6,75.6,10.7,74.2,9.7,75.1z"/>
				<path fill="#B0A499" d="M10.2,73.4c0.7-1.3,2-0.6,2.2,0.2C12.7,74.5,9.5,74.6,10.2,73.4z"/>
			</g>
			<g>
				<path fill="#252728" d="M19.5,75.7c0.1,0.1,0,1,0,1.2c-0.3,0.7-2.8,0.9-3.6,0.1c-1-1.1-0.6-2.5-0.5-2.6
					C15.4,74.2,19.4,75.6,19.5,75.7z"/>
				<path fill="#0D0F12" d="M17.2,73.7c1.1-0.1,0.9-0.9,1.1-0.5c0.2,0.4,0.4,0.8,0.6,1.1c0.3,0.4,0.7,1,0.5,1.5
					c-0.4,1-2.9,1-3.6,0.3c-0.6-0.6-0.7-1.7-0.5-2.5C15.6,72.8,15.6,73.9,17.2,73.7z"/>
				<path fill="#252728" d="M18.7,75.1c0.7,0.5-0.7,0.7-1.1,0.7C15.7,75.6,17.7,74.2,18.7,75.1z"/>
				<path fill="#B0A499" d="M18.2,73.4c-0.7-1.3-2-0.6-2.2,0.2C15.7,74.5,18.8,74.6,18.2,73.4z"/>
			</g>
			<g>
				<path fill="#E9E8E8" d="M8.7,51.7c-2.1,2.8,1.2,11.3,1.2,11l8.9,0.1c0-0.3,2.8-7.7,1.4-11C18.8,48.9,11,48.6,8.7,51.7z"/>
				<path fill="#3C9AD5" d="M14.1,52.9c1.1-0.2,1.4,0.6,1.4,0.6l-0.5,1l1,4l-1.7,2.3l-1.5-2.2l1.1-4L13,53.9
					C13,53.9,13.1,53,14.1,52.9z"/>
				<path opacity="0.2" fill="#A19E99" d="M18.4,51.5c-0.1,1.5-0.5,1.8-2.2,3.5l-1.8-1.7l-1.7,1.8c0,0-1.9-1.1-2.4-3.3
					C9.8,49.8,18.5,50.1,18.4,51.5z"/>
				<path fill="#F5F5F5" d="M14.3,53.3l1.7,1.2c0,0,3.4-1.9,2.1-4.7c-1.1-2.5-6.9-2.3-7.8,0.5c-0.8,2.4,2.2,4.3,2.2,4.3L14.3,53.3z"
					/>
				<path fill="#F3A76E" d="M11.6,51.7c0.3,0.3,0.9,0.7,1.5,0.9c0.4,0.1,1.1,0.6,1.3,0.6c0.1,0,0.3-0.2,0.7-0.4
					c0.6-0.3,1.4-0.7,1.7-1.3c0.5-0.9,0.9-2.7,0-3.4c-0.9-0.7-2.7-0.8-3.7-0.6c-1.1,0.2-1.9,1.3-1.9,2.4
					C11,50.7,11.1,51.2,11.6,51.7z"/>
			</g>
			<g>
				<path fill="#1E1E29" d="M18.7,63.6l0.1-1.3c-4.6,0.8-9.2,0-9.2,0l0,1.4c0,2.2-0.2,8.1-0.9,10.2c0.3,0.2,0.7,0.3,1,0.5
					c1.4,0.5,2.8,0,4.1-0.2c-0.3-2.6-0.1-4.6,0.2-6.8c0.1-0.3,0.4-0.4,0.5-0.1c0,0.5,0,1.1,0,1.9c0,1.5,0,3.5-0.1,5
					c0.5,0.2,2,0.4,2.3,0.4c1,0,2.4-0.4,3-0.7C19.3,72.2,18.4,68.3,18.7,63.6z"/>
				<path fill="#0D0F12" d="M9.6,62.5c0,0,4.3,0.8,9.2-0.1l-0.1,1.1c0,0-3.5,1.2-9.1,0L9.6,62.5z"/>
				<path fill="#3D3C40" d="M15.6,64c0-0.4,0-0.8,0-1.2c-0.9,0-1.8,0-2.6,0c0.1,0.4,0.1,0.8,0.1,1.2C14.1,64.1,14.9,64.1,15.6,64z"
					/>
			</g>
			<g>
				<path fill="#AA641D" d="M22.8,37.5c0.2-2.9-0.1-3.9,0-5.1c0.6-5-3.4-8.6-10.4-8c-12.2,1-10.2,18-6.7,17.2
					c2.6-0.5,5.1-1.3,7.7-1.9c2.4-0.6,5-0.1,7.5,0C22.7,39.9,22.7,39.1,22.8,37.5z"/>
				<path fill="#FBCBA0" d="M6,41.4c0.6,4.5,4.1,9.5,9.4,9.2c5.4-0.4,8.1-7.1,7.4-12.7c-0.8-6.1-3.6-11.1-9.9-9.9
					C8.3,28.9,5.1,35.4,6,41.4z"/>
				<g>
					<path fill="#1C2D34" d="M11.1,39.8c-0.3-0.2-0.8-0.2-1.1-0.1C9.2,39,9.9,37,11.1,37.5C11.9,37.8,11.9,39.4,11.1,39.8z"/>
				</g>
				<path opacity="0.35" fill="#B75724" d="M17.6,41.3c0.2,0.2-0.3,0.7-1.3,0.8c-1,0.1-1.6-0.5-1.2-0.7c0.4-0.2,0.7,0,1.2,0
					C17,41.3,17.4,41.1,17.6,41.3z"/>
				<path fill="#FCD7B6" d="M17.6,41.3c0.2-0.1-0.2-0.6-0.5-1.1c-0.3-0.4-0.5-1.3-1.1-1.3c-0.5,0-0.6,1-0.8,1.5
					c-0.2,0.5-0.3,0.9-0.1,1C15.9,41.8,17.2,41.6,17.6,41.3z"/>
				<g>
					<path fill="#1C2D34" d="M21.1,37.4c0.6,0.4,0.6,1.7,0.2,2.2c-0.3-0.1-0.9-0.2-1.2,0C19.1,38.9,19.9,36.7,21.1,37.4z"/>
				</g>
				<path fill="#A5ABB8" d="M10.7,37.8c0.4-0.1,0.7,0.5,0.3,0.7C10.6,38.9,10.2,38,10.7,37.8z"/>
				<path fill="#A5ABB8" d="M20.6,37.6c0.4-0.1,0.6,0.6,0.2,0.7C20.4,38.6,20.2,37.7,20.6,37.6z"/>
				<path fill="#FBCBA0" d="M4.9,43.4c0.6,0.2,1.2,0.2,1.8,0.2c0,0,0,0,0-0.1c0.3-0.4-0.2-2.6-0.3-3c-0.3-1.1-0.9-1.9-2-1.6
					C2.2,39.5,3.1,42.7,4.9,43.4z"/>
				<path opacity="0.5" fill="#D9B097" d="M13,33.8c-0.5-0.2-1-0.4-1.5-0.5c0,0.5-0.1,0.9-0.3,1.4c-0.8-0.2-1.7-1.6-2.6-1.2
					c-0.6,0.2-0.7,1.2-1,1.7c-0.5,0.8-1.2,1.5-1.5,2.5c-0.3,0.9-0.3-3.3-0.3-3.9c0.1-1.5,0.2-3.4,1.3-4.5c1.4-1.3,4.1-1.2,5.9-1.2
					c2.7,0,5.1,0.6,7.5,1.6c1.7,0.7,1.9,4.1,1.6,5.6c0-0.3-0.4-0.8-0.6-1c-0.2-0.3-0.5-0.8-0.9-0.8c-0.3,0-0.9,0.9-0.8,1
					c-0.5-0.2-1.1-0.6-1.6-0.7c-0.5-0.2-1-0.2-1.4-0.3c0.1,0-0.6,1.8-0.6,2c-0.3-0.1-0.5-0.3-0.8-0.4c-0.5-0.2-1-0.5-1.4-0.7
					C13.8,34.2,13.4,34,13,33.8z"/>
				<path opacity="0.6" fill="#D9B097" d="M5.7,42.6c0.8-0.5,0-2.2-0.6-2.5c-0.5-0.2-1.7,0.2-1.2,1.2c0.3-0.9,0.9-0.3,0.8,0.3
					c-0.1,0.4-0.5,0.4-0.1,1C5,42.9,5.5,42.7,5.7,42.6z"/>
				<path fill="#AA641D" d="M20.7,34.3c-1.5-0.3-2.3-0.8-3.7-1.3c0,0.5,0.2,1.2,0.2,1.7c-0.9-0.3-4.2-1.3-6-1.8
					c0.2,0.4,0.2,0.9,0.3,1.3c-0.9-0.4-2-1.5-3-1.4c-0.6,0-0.7,0.5-0.8,1C7.5,34.5,7.2,35.2,7,36c-0.6,1.9-0.3,3.9,0.5,4.7
					c-0.4,0.1-1,0.1-1.2,0c-0.3-0.4-0.9-1.6-0.9-2.6c-0.1-1.6-0.7-3.2-0.7-4.8c0-2.3,0.4-4.1,2.2-5.7c1.5-1.3,2.7-2.2,4.6-2.7
					c7.3-2,12.3,2.5,13.4,8.9c-1-0.1-2.7-0.6-3.6-1.2C21.3,32.8,20.8,34,20.7,34.3z"/>
				<path fill="#2C2621" d="M9,36.9c-0.3,0.2-0.5-0.1-0.4-0.3c0.2-0.8,1.1-1.4,1.9-1.5c0.7-0.1,1.9,0,2.3,0.6
					c0.2,0.4-0.1,0.7-0.5,0.6c-0.6-0.2-1.2-0.2-1.8-0.1C10,36.3,9.5,36.6,9,36.9z"/>
				<path fill="#2C2621" d="M22.1,36.3c0.3,0.1,0.4-0.2,0.3-0.3c-0.4-0.6-1.1-1.1-1.8-1.1c-0.6,0-1.8,0.4-2.1,1.1
					c-0.1,0.3,0.2,0.6,0.5,0.4c0.5-0.2,1-0.5,1.6-0.5C21.1,35.9,21.6,36.2,22.1,36.3z"/>
				<path fill="#F49B75" d="M22.1,40.6c0.1,0.1,0.1,0.2,0.2,0.3c0.5,1.2-2.3,1.2-2.8,0.7c-0.8-0.9,0.1-1.3,0.8-1.4
					C20.9,40.2,21.7,40.2,22.1,40.6z"/>
				<path fill="#F49B75" d="M11.5,40.8c0.1,0.1,0.1,0.2,0.2,0.3c0.5,1.3-2.5,1.1-2.9,0.6c-0.8-1,0.2-1.3,0.9-1.4
					C10.3,40.3,11.1,40.3,11.5,40.8z"/>
				<path fill="#AA641D" d="M17.9,23.2c-0.3,0.6-0.4,0.9-0.7,1.2c0.9,0,1.9,0.1,2.6,0.2c-0.3,0.4-1,1.2-1.7,1.3
					c-2,0.2-4.4,0.1-6.4-0.1c-0.8-0.1-1.5-0.1-2.3-0.2c0.3-0.7,1.4-0.9,2-1C12.8,24.3,15.5,24.1,17.9,23.2z"/>
				<path fill="#B57C47" d="M21.5,28.4c0.3,0.3,0.5,0.6,0.7,1c0.6,0.9,1,2,1.4,3c-0.9-0.7-2.4-1-3.5-1c0,0.6-0.3,1.2-0.3,1.8
					c-1.1-0.7-2.2-1.2-3.5-1.3c-0.1,0.4-0.1,0.9-0.2,1.4c-0.6-0.3-4.4-1.4-5.7-1.7c0.1,0.5,0,1,0.1,1.5c-0.7-0.3-3.2-2.2-3.7-2.7
					c-1-0.9-0.3-2.3,0.5-3.1C8,26.4,9,25.9,9.9,25.5c1.9-0.7,3.8-0.6,5.8-0.4C18,25.3,20.1,26.6,21.5,28.4z"/>
				<g>
					<path fill="#E98665" d="M16.1,46.4c2.2-0.2,3.9-1.4,4.5-3c0.1-0.2,0-0.3-0.2-0.4c-0.2,0-0.4,0-0.5,0.2
						c-0.6,1.4-2.1,2.5-4.1,2.6c-2,0.1-3.9-0.9-4.5-2.5c-0.1-0.2-0.3-0.2-0.4-0.2c-0.2,0.1-0.3,0.3-0.2,0.4c0.8,1.9,2.8,3,5.2,2.8
						C16,46.4,16.1,46.4,16.1,46.4z"/>
				</g>
			</g>
		</g>
	</g>
</g>
</svg>
