<?xml version="1.0" encoding="utf-8"?>
<!-- Generator: Adobe Illustrator 18.1.1, SVG Export Plug-In . SVG Version: 6.00 Build 0)  -->
<svg version="1.1" xmlns="http://www.w3.org/2000/svg" xmlns:xlink="http://www.w3.org/1999/xlink" x="0px" y="0px"
	 viewBox="0 0 100 100" enable-background="new 0 0 100 100" xml:space="preserve">
<g id="Capa_1">
</g>
<g id="Capa_2">
	<g>
		<polygon fill="#515151" points="90,29.9 89.9,64.6 72.4,73.9 72.5,39.1 90,29.9 		"/>
		<polygon fill="#373737" points="72.5,39.1 72.4,73.9 41.6,56.2 41.7,21.4 72.5,39.1 		"/>
		<polygon fill="#5A5A5A" points="59.2,12.2 90,29.9 72.5,39.1 41.7,21.4 59.2,12.2 		"/>
		<g>
			<defs>
				<path id="SVGID_1_" d="M48.6,67.3c0,3.3,0,6.6,0,9.9c0,2.7-1.8,5.4-5.3,7.5c-7.1,4.1-18.8,4.1-25.9,0c-3.6-2.1-5.4-4.8-5.4-7.6
					l0-9.9c0,2.7,1.8,5.5,5.4,7.6c7.2,4.2,18.8,4.2,25.9,0C46.8,72.7,48.6,70,48.6,67.3"/>
			</defs>
			<clipPath id="SVGID_2_">
				<use xlink:href="#SVGID_1_"  overflow="visible"/>
			</clipPath>
			<path clip-path="url(#SVGID_2_)" fill="#A8A8A8" d="M48.6,67.3l0,9.9c0,2.7-1.8,5.4-5.3,7.5c-7.1,4.1-18.8,4.1-25.9,0
				c-3.6-2.1-5.4-4.8-5.4-7.6l0-9.9c0,2.7,1.8,5.5,5.4,7.6c7.2,4.2,18.8,4.2,25.9,0C46.8,72.7,48.6,70,48.6,67.3L48.6,67.3z"/>
		</g>
		<path fill="#A0A0A0" d="M43.2,59.7c7.2,4.1,7.2,10.9,0.1,15c-7.1,4.2-18.8,4.2-25.9,0c-7.2-4.1-7.2-10.9-0.1-15
			C24.3,55.6,36,55.6,43.2,59.7L43.2,59.7z"/>
		<path fill="#898989" d="M30.2,70.4c-5.3,0-10.2-1.2-13.9-3.3c-3.6-2.1-5.6-4.8-5.6-7.7c0-2.8,2-5.6,5.5-7.6
			c3.7-2.1,8.6-3.3,13.9-3.3c5.3,0,10.2,1.2,13.9,3.3c3.6,2.1,5.6,4.8,5.6,7.7c0,2.8-2,5.6-5.5,7.6C40.4,69.3,35.4,70.4,30.2,70.4
			L30.2,70.4z"/>
		<polygon fill="#BABAB9" points="31.4,59.5 31.4,64.1 30.4,64.7 30.4,60.1 31.4,59.5 		"/>
		<polygon fill="#A3A2A0" points="43.1,65.5 43.1,70.1 31.4,64.1 31.4,59.5 43.1,65.5 		"/>
		<g>
			<defs>
				<path id="SVGID_3_" d="M46.6,59.6c0,1.5,0,3.1,0,4.6c0,2.1-1.2,4.2-3.6,5.9l0-4.6C45.4,63.8,46.6,61.7,46.6,59.6"/>
			</defs>
			<clipPath id="SVGID_4_">
				<use xlink:href="#SVGID_3_"  overflow="visible"/>
			</clipPath>
			<path clip-path="url(#SVGID_4_)" fill="#BABAB9" d="M46.6,59.6l0,4.6c0,2.1-1.2,4.2-3.6,5.9l0-4.6C45.4,63.8,46.6,61.7,46.6,59.6
				L46.6,59.6z"/>
		</g>
		<g>
			<defs>
				<path id="SVGID_5_" d="M13.6,64.1c0-1.5,0-3.1,0-4.6c0,2,1.1,4,3.2,5.7c5.4,4.3,15.8,5.2,23.1,2c0.8-0.3,1.5-0.7,2.2-1.1l0,4.6
					c-0.7,0.4-1.4,0.8-2.2,1.1c-7.3,3.1-17.7,2.2-23.1-2C14.7,68.1,13.6,66.1,13.6,64.1"/>
			</defs>
			<clipPath id="SVGID_6_">
				<use xlink:href="#SVGID_5_"  overflow="visible"/>
			</clipPath>
			<path clip-path="url(#SVGID_6_)" fill="#BABAB9" d="M42.1,66.1l0,4.6c-0.7,0.4-1.4,0.8-2.2,1.1c-7.3,3.1-17.7,2.2-23.1-2
				c-2.2-1.7-3.3-3.7-3.2-5.7l0-4.6c0,2,1.1,4,3.2,5.7c5.4,4.3,15.8,5.2,23.1,2C40.7,66.9,41.5,66.5,42.1,66.1L42.1,66.1z"/>
		</g>
		<path fill="#D8D8D8" d="M20.3,51.8c7.3-3.1,17.7-2.2,23.1,2c4.5,3.6,4.2,8.3-0.3,11.6l-11.7-6l-1,0.6l11.7,6
			c-0.7,0.4-1.4,0.8-2.2,1.1c-7.3,3.1-17.7,2.2-23.1-2C11.4,60.9,13,54.9,20.3,51.8L20.3,51.8z"/>
		<path fill="#FFC618" d="M30.1,49.2L30.1,49.2c5.1,0,10,1.1,13.6,3.2c0.2,0.1,0.4,0.2,0.6,0.3l1.7-0.5c-0.5-0.3-1-0.7-1.6-1
			c-3.9-2.3-9.1-3.4-14.2-3.4c-0.4,0-0.8,0-1.2,0v1.3C29.3,49.2,29.7,49.2,30.1,49.2L30.1,49.2z"/>
		<polygon fill="#696969" points="63.5,34 63.6,68.9 48.5,72.5 48.6,71 49.4,65.5 48.9,55.9 38.8,58.9 38.9,41.4 63.5,34 		"/>
		<polygon fill="#494949" points="38.9,41.4 38.8,58.9 28.9,53.2 28.9,35.7 38.9,41.4 		"/>
		<polygon fill="#767676" points="41.7,21.4 63.5,34 38.9,41.4 28.9,35.7 41.7,21.4 		"/>
		<polygon fill="#898989" points="45.9,56.8 45.9,54 48.2,54.8 48.2,59.4 45.9,56.8 		"/>
		<path fill="#FFCE57" d="M47.4,53.5L45.9,54c0.7,0.6,1.3,1.2,1.7,1.9c0.8,1.2,1.2,2.4,1.2,3.6c0,2.6-1.8,5.1-5.2,7
			c-3.6,2.1-8.4,3.2-13.5,3.2c-5.1,0-10-1.1-13.6-3.2c-1.8-1-3.1-2.2-4-3.5c-0.8-1.2-1.2-2.4-1.2-3.6c0-2.6,1.8-5.1,5.2-7
			c3.3-1.9,7.6-3,12.3-3.2v-1.3c-4.7,0.2-9.4,1.3-13,3.4C8,55.8,8.1,63.1,16,67.7c3.9,2.3,9.1,3.4,14.2,3.4c5.1,0,10.3-1.1,14.2-3.4
			C51,63.9,52,58,47.4,53.5L47.4,53.5z"/>
		<g>
			<defs>
				<path id="SVGID_7_" d="M50.2,59.5c0,3.6,0,3.5,0,7.1c0,3-2,5.9-5.8,8.2c-7.8,4.5-20.5,4.5-28.4,0c-4-2.3-5.9-5.3-5.9-8.3l0-7.1
					c0,3,2,6,5.9,8.3c7.9,4.5,20.6,4.5,28.4,0C48.3,65.4,50.2,62.5,50.2,59.5"/>
			</defs>
			<clipPath id="SVGID_8_">
				<use xlink:href="#SVGID_7_"  overflow="visible"/>
			</clipPath>
			<path clip-path="url(#SVGID_8_)" fill="#F8BC3B" d="M50.2,59.5l0,7.1c0,3-2,5.9-5.8,8.2c-7.8,4.5-20.5,4.5-28.4,0
				c-4-2.3-5.9-5.3-5.9-8.3l0-7.1c0,3,2,6,5.9,8.3c7.9,4.5,20.6,4.5,28.4,0C48.3,65.4,50.2,62.5,50.2,59.5L50.2,59.5z"/>
		</g>
		<path fill="#FFCE57" d="M42,33.5c-3.2-3.2-3.8-3.9-5.2-4.7c-0.7-0.4-1.5-0.7-2.1-0.8l-3-0.5c-0.5-0.1-0.9,0-1.2,0.2
			c-0.7,0.4-1.5,0.9-2.2,1.3c0.3-0.2,0.7-0.3,1.2-0.2l3,0.5c1.6,0.2,3.1,1.3,4.3,2.5c2.7,2.7,4.9,4.7,5.2,7.8l0,5.2
			c0,0.7-0.3,1.2-0.7,1.5c0.7-0.4,1.5-0.9,2.2-1.3c0.4-0.2,0.7-0.7,0.7-1.5C44.2,38.3,44.7,36.1,42,33.5L42,33.5z"/>
		<path fill="#F8BC3B" d="M34.6,30.1c0.7,0.4,1.5,1,2.1,1.7l3,3c1.3,1.3,2.1,3.2,2.1,4.8l0,5.2c0,1.4-1,2-2.3,1.3l-10.1-5.8
			c-1.3-0.7-2.3-2.5-2.3-3.9l0-5.2c0-1.6,0.9-2.5,2.2-2.3l3,0.5C33.2,29.4,33.9,29.7,34.6,30.1L34.6,30.1z"/>
		<polygon fill="#D08707" points="36.1,33.6 36.1,37.8 36,42.9 36,47 38.7,45.5 38.7,41.3 38.7,36.3 38.7,32.1 36.1,33.6 		"/>
		<polygon fill="#F8BC3B" points="27.8,28.8 30.4,27.3 38.7,32.1 36.1,33.6 27.8,28.8 		"/>
		<polygon fill="#B57206" points="36.1,33.6 36.1,37.8 36,42.9 36,47 27.7,42.2 27.7,38.1 27.7,33 27.8,28.8 36.1,33.6 		"/>
		<path fill="#FFCE57" d="M38.7,35.4l-1.6,0.9c1.2,1.4,2.7,3.9,1.1,4.8l1.6-0.9c0.4-0.2,0.7-0.7,0.7-1.2
			C40.5,37.7,39.5,36.3,38.7,35.4L38.7,35.4z"/>
		<path fill="#F8BC3B" d="M37.1,36.3c2.4,2.7,2.4,5.1,0,5.1L37.1,36.3L37.1,36.3z"/>
		<polygon fill="#B57206" points="35.4,42.5 28.1,38.3 24.5,32.3 31.7,36.5 35.4,42.5 		"/>
		<polygon fill="#F8BC3B" points="31.7,36.5 24.5,32.3 24.4,21.8 31.7,26 31.7,36.5 		"/>
		<polygon fill="#FFCE57" points="31.7,26 24.4,21.8 30.1,19.1 37.4,23.3 31.7,26 		"/>
		<polygon fill="#D08707" points="37.4,23.3 37.4,32 35.3,33.2 35.4,42.5 31.7,36.5 31.7,26 37.4,23.3 		"/>
		<path fill="#FFCE57" d="M35.8,42.5c-0.7-0.9-1.6-1.7-2.6-2.4l0,0c-0.5-0.4-1.1-0.8-1.7-1.1c-2.3-1.3-4.3-1.7-5.2-1.2l-3.2,1.8
			c0.9-0.5,2.9-0.2,5.2,1.2c2.4,1.4,5.8,4.4,5.8,6.6c0,0.5-0.2,0.9-0.6,1.1c1.1-0.6,2.1-1.2,3.2-1.8c0.4-0.2,0.6-0.6,0.6-1.1
			C37.3,44.5,36.4,43.3,35.8,42.5L35.8,42.5z"/>
		<path fill="#F8BC3B" d="M28.3,40.8c3.2,1.8,5.8,4.8,5.8,6.6c0,1.8-2.6,1.8-5.8-0.1c-3.2-1.8-5.8-4.8-5.8-6.6
			C22.6,39,25.1,39,28.3,40.8L28.3,40.8z"/>
		<path fill="#686868" d="M24.3,40.8L24.3,40.8c-0.2-0.5-0.6-0.8-0.9-0.6l-0.2,0.1c0.2-0.1,0.6,0.1,0.8,0.5c0.1,0.3,0.2,0.7,0,0.8
			l0.2-0.1C24.3,41.4,24.4,41.1,24.3,40.8L24.3,40.8z"/>
		<path fill="#2D2D2D" d="M23.6,40.3c0.3,0.2,0.5,0.6,0.5,0.9c0,0.3-0.2,0.5-0.5,0.3C23.3,41.4,23,41,23,40.7
			C23,40.3,23.3,40.2,23.6,40.3L23.6,40.3z"/>
		<path fill="#686868" d="M28.6,41.8L28.6,41.8c-0.2-0.5-0.6-0.8-0.9-0.6l-0.2,0.1c0.2-0.1,0.6,0.1,0.8,0.5c0.1,0.3,0.2,0.7,0,0.8
			l0.2-0.1C28.7,42.3,28.7,42.1,28.6,41.8L28.6,41.8z"/>
		<path fill="#2D2D2D" d="M27.9,41.3c0.3,0.2,0.5,0.6,0.5,0.9c0,0.3-0.2,0.5-0.5,0.3c-0.3-0.2-0.5-0.6-0.5-0.9
			C27.4,41.3,27.6,41.1,27.9,41.3L27.9,41.3z"/>
		<path fill="#686868" d="M33.3,47L33.3,47c-0.2-0.5-0.6-0.8-0.9-0.6l-0.2,0.1c0.2-0.1,0.6,0.1,0.8,0.5c0.1,0.3,0.2,0.7,0,0.8
			l0.2-0.1C33.4,47.5,33.4,47.2,33.3,47L33.3,47z"/>
		<path fill="#2D2D2D" d="M32.6,46.5c0.3,0.2,0.5,0.6,0.5,0.9c0,0.3-0.2,0.5-0.5,0.3c-0.3-0.2-0.5-0.6-0.5-0.9
			C32,46.5,32.3,46.3,32.6,46.5L32.6,46.5z"/>
		<path fill="#686868" d="M28.5,45.9L28.5,45.9c-0.2-0.5-0.6-0.8-0.9-0.6l-0.2,0.1c0.2-0.1,0.6,0.1,0.8,0.5c0.1,0.3,0.2,0.7,0,0.8
			l0.2-0.1C28.6,46.5,28.6,46.2,28.5,45.9L28.5,45.9z"/>
		<path fill="#2D2D2D" d="M27.8,45.4c0.3,0.2,0.5,0.6,0.5,0.9c0,0.3-0.2,0.5-0.5,0.3c-0.3-0.2-0.5-0.6-0.5-0.9
			C27.3,45.4,27.5,45.2,27.8,45.4L27.8,45.4z"/>
	</g>
</g>
</svg>
