<?xml version="1.0" encoding="utf-8"?>
<!-- Generator: Adobe Illustrator 18.1.1, SVG Export Plug-In . SVG Version: 6.00 Build 0)  -->
<svg version="1.1" xmlns="http://www.w3.org/2000/svg" xmlns:xlink="http://www.w3.org/1999/xlink" x="0px" y="0px"
	 viewBox="0 0 100 100" enable-background="new 0 0 100 100" xml:space="preserve">
<g id="Capa_1">
</g>
<g id="Capa_2">
	<g>
		<path fill="#4C4C4C" d="M77.1,74.8l-16.4,9.5c-7.8,4.5-20.4,4.5-28.3,0L16,74.8c-3.9-2.3-5.9-5.3-5.9-8.2c0,7,0-1.3-0.1,5.7
			c0,3,2,6,5.9,8.2L32.4,90c7.8,4.5,20.5,4.5,28.3,0L77,80.5c3.9-2.2,5.8-5.2,5.8-8.1c0-7,0,1.3,0.1-5.7
			C82.9,69.6,80.9,72.6,77.1,74.8L77.1,74.8z"/>
		<path fill="#414141" d="M77,58.4c7.8,4.5,7.9,11.9,0.1,16.4l-16.4,9.5c-7.8,4.5-20.4,4.5-28.3,0L16,74.8
			C8.1,70.3,8.1,63,15.9,58.4l16.4-9.5c7.8-4.5,20.4-4.5,28.3,0L77,58.4"/>
		<path fill="#CCCCCC" d="M72.6,9.7c0.3,0.3,0.4,0.8,0.3,1.2l-1,4.3c-0.1,0.4-0.4,0.5-0.7,0.2c-0.3-0.3-0.4-0.8-0.3-1.2l1-4.3
			C72,9.5,72.3,9.5,72.6,9.7"/>
		<polygon fill="#292A2B" points="85.7,41 83.5,40.3 83.1,42.8 85.7,41 		"/>
		<polyline fill="#292A2B" points="73.6,14 73,16.8 70.2,15.6 73.6,14 		"/>
		<path fill="#C4C7CC" d="M83.8,30.2L83.8,30.2C80,19.3,69.7,11.3,63.6,14.9c-0.9,0.5-1.8,1.1-2.8,1.6c5.3-3.1,13.7,2.4,18.4,11.2
			c3.5,6.6,5,16.3-0.5,19.5c0.9-0.5,1.8-1.1,2.8-1.6C85.6,43.3,86.1,36.7,83.8,30.2L83.8,30.2z"/>
		<path fill="#B5B8BD" d="M69.8,17.4c7,4,12.6,13.8,12.6,21.8c0,8-5.7,11.2-12.7,7.2c-7-4-12.6-13.8-12.6-21.8
			C57.2,16.6,62.8,13.3,69.8,17.4L69.8,17.4z"/>
		<path fill="#292A2B" d="M73.9,38.3c0.1-0.5,0.2-1.1,0.2-1.7c0-3.7-2.6-8.2-5.8-10.1c-0.1-0.1-0.2-0.1-0.3-0.2l1.9-9.3
			c-0.5-0.3-1-0.6-1.5-0.9c-7.8-4.5-14.1-0.9-14.1,8c0,8.9,6.2,19.8,14,24.3c7,4,12.8,1.5,13.9-5.5L73.9,38.3L73.9,38.3z"/>
		<path fill="#3A3A3A" d="M62.8,12.6l-4.4,2.6c3.2-1.8,7.4-0.9,11.4,1.9l3.7-3C70.3,11.9,66.2,10.7,62.8,12.6"/>
		<path fill="#101011" d="M82.2,43c-0.4,2.8-1.6,5.1-3.9,6.4c1.5-0.9,2.9-1.7,4.4-2.6c1.6-0.9,2.9-3.5,2.9-5.8L82.2,43L82.2,43z"/>
		<path fill="#3A3A3A" d="M72.2,33.2L72.2,33.2c-1.5-4.3-5.5-7.4-7.9-6c-0.4,0.2-1.8,1-2.2,1.3c2.1-1.2,5.4,0.9,7.2,4.4
			c1.4,2.6,2,6.4-0.2,7.7c0.4-0.2,1.8-1,2.2-1.3C72.9,38.3,73.1,35.7,72.2,33.2L72.2,33.2z"/>
		<path fill="#141414" d="M65.6,28.8c2.7,1.6,4.9,5.4,4.9,8.5c0,3.1-2.2,4.4-5,2.8c-2.7-1.6-4.9-5.4-4.9-8.5
			C60.7,28.5,62.9,27.2,65.6,28.8L65.6,28.8z"/>
		<polyline fill="#BCBCBC" points="68.7,15.9 71.6,12.9 72.3,9.9 69.3,12.6 68.7,15.9 		"/>
		<g>
			<defs>
				<path id="SVGID_1_" d="M93.4,14.8c-0.1,0.2-0.1,0.4-0.2,0.7c0,0.1,0,0.1-0.1,0.2l0.2-0.7C93.3,14.9,93.4,14.9,93.4,14.8"/>
			</defs>
			<clipPath id="SVGID_2_">
				<use xlink:href="#SVGID_1_"  overflow="visible"/>
			</clipPath>
			<path clip-path="url(#SVGID_2_)" fill="#DCEAF6" d="M93.1,15.7l0.2-0.7l0,0c0,0,0.1-0.1,0.1-0.1l0,0c0,0,0,0,0,0c0,0,0,0,0,0
				c0,0,0,0,0,0c0,0,0,0,0,0l0,0c0,0,0,0,0,0c0,0,0,0,0,0c0,0,0,0,0,0c0,0,0,0,0,0c0,0,0,0,0,0c0,0,0,0,0,0
				c-0.1,0.2-0.1,0.4-0.2,0.7C93.2,15.6,93.2,15.6,93.1,15.7"/>
		</g>
		<path fill="#AAE6EA" d="M69.7,12.2c-0.1,0-0.2-0.1-0.3-0.1c0-0.1,0-0.1,0-0.2c0.1-0.2,0.1-0.4,0.2-0.7c0,0,0,0,0,0c0,0,0,0,0,0
			c0,0,0,0,0,0v0c0,0,0,0,0,0c0,0,0,0,0,0c0,0,0,0,0,0c0,0.2,0.2,0.4,0.5,0.6L69.7,12.2"/>
		<path fill="#83BFC3" d="M69.6,12.4c-0.1-0.1-0.1-0.2-0.2-0.3c0.1,0,0.2,0.1,0.3,0.1L69.6,12.4"/>
		<path fill="#9DD9DD" d="M71.2,13.2L70.7,13c-0.3-0.1-0.5-0.2-0.7-0.3c-0.2-0.1-0.4-0.2-0.5-0.4l0.2-0.2L70,12c0,0,0.1,0,0.1,0.1
			c0,0,0,0,0,0c0,0,0,0,0,0c0,0,0,0,0,0c0,0,0,0,0,0c0,0,0,0,0,0c0,0,0,0,0,0c0,0,0,0,0,0c0,0,0,0,0,0c0,0,0,0,0,0c0,0,0,0,0,0
			c0,0,0,0,0,0c0.2,0.1,0.4,0.2,0.7,0.3l0.7,0.2l-0.3,0.2c-0.1,0.1-0.1,0.1-0.1,0.2L71.2,13.2"/>
		<path fill="#AAE6EA" d="M86.9,20.9c-0.4,0-0.9-0.1-1.4-0.2l-12.2-5.5l0.1-0.7L85.6,20c0.5,0.2,1,0.2,1.4,0.2
			c0.4,0,0.8-0.1,0.9-0.2l5.3-5l-0.2,0.7l-5.3,5C87.7,20.8,87.3,20.9,86.9,20.9"/>
		<polyline fill="#7FBCC0" points="73.3,15.2 72.6,14.8 73.2,14.3 73.5,14.5 73.3,15.2 		"/>
		<path fill="#83BFC3" d="M72.6,14.8l-0.3-0.1c-0.3-0.1-0.5-0.2-0.7-0.3c-0.4-0.2-0.6-0.5-0.6-0.7l0.1-0.3l0.1-0.1c0,0,0,0,0,0
			c0,0,0,0,0,0c0,0,0,0,0,0c0,0,0,0,0,0c0,0,0,0,0,0c0.1,0.1,0.3,0.3,0.5,0.4c0,0,0,0,0,0c0.2,0.1,0.4,0.2,0.7,0.3l0.7,0.3
			L72.6,14.8"/>
		<path fill="#9DD9DD" d="M71.1,13.4l0-0.2l0-0.2c0,0.1,0,0.1,0,0.2L71.1,13.4"/>
		<path fill="#C0F8FF" d="M70,12c-0.3-0.2-0.5-0.4-0.5-0.6c0,0,0,0,0,0c0,0,0,0,0,0c0,0,0,0,0,0v0c0,0,0,0,0,0c0,0,0,0,0,0
			c0,0,0,0,0,0c0-0.1,0-0.1,0.1-0.2l1-0.9c0.2-0.2,0.6-0.3,1-0.3c0.1,0,0.2,0,0.2,0c0,0,0,0,0,0l-0.1,0.4L70,12"/>
		<path fill="#B6EEF5" d="M71.8,10.3l0.1-0.4c0,0,0,0,0,0c0.1,0,0.2,0,0.3,0L71.8,10.3"/>
		<path fill="#C0F8FF" d="M87.1,20.3c-0.4,0-0.9-0.1-1.4-0.2l-12.2-5.5l0.1-0.4l0,0c-0.4-0.3-0.8-0.5-1.2-0.7l0.6-2.4
			c0.1-0.3,0-0.6-0.1-0.8c0.1,0,0.3,0.1,0.4,0.1l0.7,0.2l0.3-0.2c0.2-0.2,0.5-0.2,0.9-0.2c0.4,0,0.9,0.1,1.4,0.2l15.6,3.7
			c0.3,0.1,0.5,0.2,0.7,0.3c0.4,0.2,0.6,0.5,0.6,0.7c0,0,0,0,0,0c0,0,0,0,0,0c0,0,0,0,0,0c0,0,0,0,0,0c0,0,0,0,0,0l0,0c0,0,0,0,0,0
			c0,0,0,0,0,0c0,0,0,0,0,0c0,0,0,0,0,0l0,0c0,0,0,0.1-0.1,0.1l0,0L88,20C87.8,20.2,87.5,20.3,87.1,20.3"/>
		<path fill="#B6EEF5" d="M72.3,13.3c-0.3-0.1-0.5-0.3-0.8-0.4l0.7-3c0.2,0,0.4,0.1,0.5,0.1c0.1,0.3,0.2,0.6,0.1,0.8L72.3,13.3"/>
		<polyline fill="#95CDD5" points="73.5,14.5 73.2,14.3 73.6,14 73.5,14.5 		"/>
		<path fill="#98D0D8" d="M73.2,14.3L72.5,14c-0.3-0.1-0.5-0.2-0.7-0.3c0,0,0,0,0,0c-0.2-0.1-0.4-0.3-0.5-0.4c0,0,0,0,0,0
			c0,0,0,0,0,0c0,0,0,0,0,0c0,0,0,0,0,0c0,0,0,0,0,0l0.3-0.3c0.3,0.1,0.5,0.3,0.8,0.4c0.4,0.2,0.8,0.5,1.2,0.7l0,0l0,0L73.2,14.3"/>
		<path fill="#B2EAF2" d="M71.3,13.3c0-0.1-0.1-0.2,0-0.2c0-0.1,0-0.1,0.1-0.2l0.3-0.2l-0.7-0.2c-0.3-0.1-0.5-0.2-0.7-0.3
			c0,0,0,0,0,0c0,0,0,0,0,0c0,0,0,0,0,0c0,0,0,0,0,0c0,0,0,0,0,0c0,0,0,0,0,0c0,0,0,0,0,0c0,0,0,0,0,0c0,0,0,0,0,0c0,0,0,0,0,0
			c0,0,0,0,0,0c0,0-0.1,0-0.1-0.1l1.8-1.6l0.4-0.4c0,0,0,0,0,0l-0.7,3L71.3,13.3"/>
		<path fill="#CCCCCC" d="M69.6,11.4c0.3,0.3,0.4,0.8,0.3,1.2l-1,4.3c-0.1,0.4-0.4,0.5-0.7,0.2c-0.3-0.3-0.4-0.8-0.3-1.2l1-4.3
			C69,11.2,69.3,11.1,69.6,11.4L69.6,11.4z"/>
		<path fill="#616365" d="M68.4,16.3c0.1,0.1,0.3,0.3,0.3,0.5c0,0.2-0.1,0.2-0.3,0.2c-0.1-0.1-0.3-0.3-0.3-0.5
			C68.1,16.3,68.2,16.2,68.4,16.3L68.4,16.3z"/>
		<polyline fill="#FFCE57" points="71,63.6 42.6,47.2 49.9,43 78.2,59.5 71,63.6 		"/>
		<polygon fill="#E89E0E" points="49,76.3 20.7,59.8 24.9,50.5 48.4,60.8 49,76.3 		"/>
		<polyline fill="#B3963A" points="48.4,60.8 24.9,50.5 38.4,42.8 61.9,53 48.4,60.8 		"/>
		<polygon fill="#FFCE57" points="41.8,80.5 13.4,64 20.7,59.8 49,76.3 41.8,80.5 		"/>
		<polygon fill="#E89E0E" points="41.8,86.6 13.4,70.1 13.4,64 41.8,80.5 41.8,86.6 		"/>
		<polygon fill="#F8BC3B" points="61.9,53 71,63.6 78.2,59.5 78.2,65.6 41.8,86.6 41.8,80.5 49,76.3 48.4,60.8 61.9,53 		"/>
		<polygon fill="#D08707" points="41.8,80.5 78.2,59.5 78.2,65.6 41.8,86.6 41.8,80.5 		"/>
		<path fill="#EDA51A" d="M69.7,38c-1.4-6.2-7.7-12.7-10.7-10.8c-0.8,0.5-1.6,1-2.3,1.4c0.9-0.5,2.1-0.4,3.6,0.5
			c5.5,3.3,9.5,13.5,6.1,15.5l2.3-1.4C70.2,42.3,70.1,39.8,69.7,38L69.7,38z"/>
		<path fill="#F8BC3B" d="M60.2,29.1c-1-0.6-1.8-0.8-2.6-0.8c-3.3,0.1-6.6,0.2-9.9,0.3c5.4-0.2,13.6,9.7,15,18.3
			c0.4,2.4,0.2,4.3-0.5,5.5c1.6-2.9,3.2-5.8,4.9-8.7C69,40.5,65.1,32,60.2,29.1L60.2,29.1z"/>
		<path fill="#F8BC3B" d="M48.3,51.9c-3.7-10.7-14-18.7-17-13.2c-1.6,2.9-3.2,5.8-4.9,8.7c1.5-2.7,5.8-0.5,9,4.4
			c3.4,5.2,3.8,11,0.4,11.1l9.9-0.3C49.4,62.4,50.3,57.8,48.3,51.9"/>
		<path fill="#FFCE57" d="M62.8,47c-1.7-10-11.9-20.7-16.7-17.8c-2.3,1.4-4.5,2.8-6.8,4.2c-2.3,1.4-4.5,2.8-6.8,4.2
			c4.8-3,15.1,7.9,16.7,17.8c0.6,3.5-0.1,5.8-1.7,6.8l6.8-4.2l6.8-4.2C62.7,52.8,63.4,50.4,62.8,47"/>
		<path fill="#EDA51A" d="M37.7,56.7c-1-3.5-3.8-7.8-6.9-9.6c-1.5-0.9-2.8-1-3.6-0.5c-0.8,0.5-1.6,1-2.3,1.4
			c0.9-0.5,2.1-0.4,3.6,0.5c3.9,2.3,7.7,8.7,7.4,13c-0.1,2-1.2,2.5-1.2,2.5l2.3-1.4C38.6,61.6,38.3,58.6,37.7,56.7L37.7,56.7z"/>
		<path fill="#5C5E60" d="M28.5,48.5c3.3,2,6.6,6.9,7.2,11.1c0.7,4.2-1.4,5.9-4.8,3.9c-3.3-2-6.6-6.9-7.2-11.1
			C23,48.3,25.2,46.5,28.5,48.5L28.5,48.5z"/>
		<path fill="#CCCCCC" d="M30.6,35.8c0.3,0.3,0.4,0.8,0.3,1.2l-1,4.3c-0.1,0.4-0.4,0.5-0.7,0.2c-0.3-0.3-0.4-0.8-0.3-1.2l1-4.3
			C30,35.7,30.3,35.6,30.6,35.8"/>
		<polygon fill="#292A2B" points="43.7,67.2 41.5,66.4 41.1,69 43.7,67.2 		"/>
		<polyline fill="#292A2B" points="31.6,40.1 31,42.9 28.3,41.8 31.6,40.1 		"/>
		<path fill="#C4C7CC" d="M41.8,56.3L41.8,56.3C38,45.4,27.8,37.4,21.6,41c-0.9,0.5-1.8,1.1-2.8,1.6c5.3-3.1,13.7,2.4,18.4,11.2
			c3.5,6.6,5,16.3-0.5,19.5c0.9-0.5,1.8-1.1,2.8-1.6C43.6,69.4,44.1,62.8,41.8,56.3L41.8,56.3z"/>
		<path fill="#B5B8BD" d="M27.8,43.5c7,4,12.6,13.8,12.6,21.8c0,8-5.7,11.2-12.7,7.2c-7-4-12.6-13.8-12.6-21.8
			C15.2,42.7,20.9,39.5,27.8,43.5L27.8,43.5z"/>
		<path fill="#292A2B" d="M31.9,64.4c0.1-0.5,0.2-1.1,0.2-1.7c0-3.7-2.6-8.2-5.8-10.1c-0.1-0.1-0.2-0.1-0.3-0.2l1.9-9.3
			c-0.5-0.3-1-0.6-1.5-0.9c-7.8-4.5-14.1-0.9-14.1,8c0,8.9,6.2,19.8,14,24.3c7,4,12.8,1.5,13.9-5.5L31.9,64.4L31.9,64.4z"/>
		<path fill="#3A3A3A" d="M20.8,38.7l-4.4,2.6c3.2-1.8,7.4-0.9,11.4,1.9l3.7-3C28.3,38.1,24.2,36.8,20.8,38.7"/>
		<path fill="#101011" d="M40.3,69.1c-0.4,2.8-1.6,5.1-3.9,6.4c1.5-0.9,2.9-1.7,4.4-2.6c1.6-0.9,2.9-3.5,2.9-5.8L40.3,69.1
			L40.3,69.1z"/>
		<path fill="#3A3A3A" d="M30.2,59.3L30.2,59.3c-1.5-4.3-5.5-7.4-7.9-6c-0.4,0.2-1.8,1-2.2,1.3c2.1-1.2,5.4,0.9,7.2,4.4
			c1.4,2.6,2,6.4-0.2,7.7c0.4-0.2,1.8-1,2.2-1.3C30.9,64.4,31.1,61.8,30.2,59.3L30.2,59.3z"/>
		<path fill="#141414" d="M23.6,54.9c2.7,1.6,4.9,5.4,4.9,8.5c0,3.1-2.2,4.4-5,2.8c-2.7-1.6-4.9-5.4-4.9-8.5
			C18.7,54.6,20.9,53.3,23.6,54.9L23.6,54.9z"/>
		<polyline fill="#BCBCBC" points="26.7,42 29.6,39 30.3,36 27.3,38.7 26.7,42 		"/>
		<g>
			<defs>
				<path id="SVGID_3_" d="M51.4,40.9c-0.1,0.2-0.1,0.4-0.2,0.7c0,0.1,0,0.1-0.1,0.2l0.2-0.7C51.4,41.1,51.4,41,51.4,40.9"/>
			</defs>
			<clipPath id="SVGID_4_">
				<use xlink:href="#SVGID_3_"  overflow="visible"/>
			</clipPath>
			<path clip-path="url(#SVGID_4_)" fill="#DCE0D5" d="M51.1,41.8l0.2-0.7c0,0,0,0,0,0l0,0c0,0,0.1-0.1,0.1-0.1c0,0,0,0,0,0
				c0,0,0,0,0,0c0,0,0,0,0,0c-0.1,0.2-0.1,0.4-0.2,0.7C51.2,41.7,51.2,41.7,51.1,41.8"/>
		</g>
		<path fill="#9DD9DD" d="M29.3,39.3L29.3,39.3C29.3,39.3,29.3,39.3,29.3,39.3C29.3,39.3,29.3,39.3,29.3,39.3"/>
		<path fill="#AAE6EA" d="M27.8,38.3c-0.1,0-0.2-0.1-0.3-0.1c0-0.1,0-0.1,0-0.2c0.1-0.2,0.1-0.4,0.2-0.7c0,0.1,0,0.2,0,0.3v0
			c0,0,0,0,0,0l0,0c0,0,0,0,0,0c0,0,0,0,0,0c0,0,0,0,0,0c0,0,0,0,0,0c0,0,0,0,0,0c0.1,0.1,0.2,0.3,0.4,0.4L27.8,38.3"/>
		<path fill="#83BFC3" d="M27.6,38.5c-0.1-0.1-0.1-0.2-0.2-0.3c0.1,0,0.2,0.1,0.3,0.1L27.6,38.5"/>
		<path fill="#9DD9DD" d="M29.2,39.3l-0.5-0.2c-0.3-0.1-0.5-0.2-0.7-0.3c-0.2-0.1-0.4-0.2-0.5-0.4l0.2-0.2l0.3-0.2
			c0.1,0,0.1,0.1,0.2,0.1c0.2,0.1,0.4,0.2,0.7,0.3l0.7,0.2L29.4,39c-0.1,0.1-0.1,0.1-0.1,0.2L29.2,39.3"/>
		<path fill="#A9D9C3" d="M44.9,47c-0.4,0-0.9-0.1-1.4-0.2l-12.2-5.5l0.1-0.7l12.2,5.5c0.5,0.2,1,0.2,1.4,0.2c0.2,0,0.4,0,0.6-0.1
			c0.1,0.1,0.2,0.3,0.3,0.4l0,0C45.7,47,45.4,47,44.9,47"/>
		<path fill="#AADCC9" d="M45.9,46.8c-0.1-0.1-0.2-0.3-0.3-0.4c0.2,0,0.3-0.1,0.4-0.2l5.3-5l-0.2,0.7L45.9,46.8"/>
		<polyline fill="#7FBCC0" points="31.4,41.3 30.6,40.9 31.2,40.5 31.5,40.6 31.4,41.3 		"/>
		<path fill="#83BFC3" d="M30.6,40.9l-0.3-0.1c-0.3-0.1-0.5-0.2-0.7-0.3c-0.4-0.2-0.6-0.5-0.6-0.7l0.1-0.3l0.1-0.1
			c0.1,0.2,0.3,0.3,0.5,0.5l0,0c0.2,0.1,0.4,0.2,0.7,0.3l0.7,0.3L30.6,40.9"/>
		<path fill="#9DD9DD" d="M29.2,39.5l0-0.2l0-0.2c0,0,0,0.1,0,0.1c0,0,0,0,0,0c0,0,0,0,0,0.1L29.2,39.5"/>
		<path fill="#B2EAF2" d="M29.3,39.4C29.3,39.4,29.3,39.3,29.3,39.4c0-0.1,0-0.1,0-0.1c0,0,0-0.1,0-0.1c0-0.1,0-0.1,0.1-0.2l0.3-0.2
			l-0.7-0.2c-0.3-0.1-0.5-0.2-0.7-0.3c-0.1,0-0.1-0.1-0.2-0.1l1.8-1.6l0.4-0.4c0,0,0,0,0,0l-0.7,3L29.3,39.4"/>
		<path fill="#C0F8FF" d="M28,38.1c-0.2-0.1-0.3-0.3-0.4-0.4c0,0,0,0,0,0c0,0,0,0,0,0c0,0,0,0,0,0c0,0,0,0,0,0c0,0,0,0,0,0l0,0
			c0,0,0,0,0,0v0c-0.1-0.2-0.1-0.3,0.1-0.4l1-0.9c0.2-0.2,0.6-0.3,1-0.3c0.1,0,0.2,0,0.2,0c0,0,0,0,0,0l-0.1,0.4L28,38.1"/>
		<path fill="#B6EEF5" d="M29.8,36.4l0.1-0.4c0,0,0,0,0,0c0.1,0,0.2,0,0.3,0L29.8,36.4"/>
		<path fill="#C0F8FF" d="M30.7,39.6c-0.1-0.1-0.2-0.1-0.4-0.2L31,37c0.1-0.3,0-0.6-0.1-0.8c0.1,0,0.3,0.1,0.4,0.1l0.7,0.2l0.3-0.2
			c0.2-0.2,0.5-0.2,1-0.2c0.4,0,0.9,0.1,1.3,0.2c-0.6,0.3-1.1,0.7-1.7,1c-0.6,0.3-1.1,0.8-1.5,1.4C31.1,39,30.9,39.3,30.7,39.6
			 M40,39.6c-2-1.7-4-2.6-5.7-2.7c0,0,0,0,0,0C36,37,38,38,40,39.6"/>
		<path fill="#BEEAD8" d="M45.1,46.4c-0.4,0-0.9-0.1-1.4-0.2l-12.2-5.5l0.1-0.4l0,0c-0.3-0.2-0.6-0.3-0.9-0.5
			c0.2-0.3,0.3-0.6,0.5-0.9c0.4-0.7,0.9-1.2,1.5-1.4c-0.1,0.1-0.2,0.1-0.3,0.2c0.6-0.3,1.2-0.5,1.8-0.5c1.7,0,3.7,1,5.7,2.7
			c2,1.7,4,4,5.6,6.7C45.5,46.4,45.3,46.4,45.1,46.4"/>
		<path fill="#C0EEDD" d="M45.6,46.3c-1.6-2.7-3.6-5-5.6-6.7C38,38,36,37,34.3,37c0,0,0,0,0,0c-0.7,0-1.3,0.2-1.8,0.5
			c0.1-0.1,0.2-0.1,0.3-0.2c0.6-0.3,1.1-0.7,1.7-1c0,0,0.1,0,0.1,0l15.6,3.7c0.3,0.1,0.5,0.2,0.7,0.3c0.4,0.2,0.6,0.5,0.6,0.7
			c0,0,0,0,0,0c0,0,0,0,0,0c0,0.1,0,0.1-0.1,0.1l0,0c0,0,0,0,0,0l0,0l-5.3,5C45.9,46.2,45.8,46.3,45.6,46.3"/>
		<path fill="#B6EEF5" d="M30.4,39.4c-0.3-0.1-0.5-0.3-0.8-0.4l0.7-3c0.2,0,0.4,0.1,0.5,0.1C31,36.4,31,36.8,31,37L30.4,39.4"/>
		<polyline fill="#95CDD5" points="31.5,40.6 31.2,40.5 31.6,40.1 31.5,40.6 		"/>
		<path fill="#98D0D8" d="M31.2,40.5l-0.7-0.3c-0.3-0.1-0.5-0.2-0.7-0.3l0,0c-0.3-0.2-0.4-0.3-0.5-0.5l0.3-0.3
			c0.3,0.1,0.5,0.3,0.8,0.4c0.1,0.1,0.2,0.1,0.4,0.2c0.3,0.2,0.6,0.3,0.9,0.5l0,0l0,0L31.2,40.5"/>
		<path fill="#CCCCCC" d="M27.6,37.5c0.3,0.3,0.4,0.8,0.3,1.2l-1,4.3c-0.1,0.4-0.4,0.5-0.7,0.2c-0.3-0.3-0.4-0.8-0.3-1.2l1-4.3
			C27,37.3,27.3,37.2,27.6,37.5L27.6,37.5z"/>
		<path fill="#616365" d="M26.4,42.4c0.1,0.1,0.3,0.3,0.3,0.5c0,0.2-0.1,0.2-0.3,0.2c-0.1-0.1-0.3-0.3-0.3-0.5
			C26.1,42.4,26.2,42.4,26.4,42.4L26.4,42.4z"/>
		<polygon fill="#A17011" points="57.8,68.5 58,68.4 57.8,71.3 57.6,71.4 57.8,68.5 		"/>
		<polygon fill="#D79618" points="55.4,62.2 55.6,62.1 58,68.4 57.8,68.5 55.4,62.2 		"/>
		<polygon fill="#EAA41B" points="53.3,60.1 53.4,60 55.6,62.1 55.4,62.2 53.3,60.1 		"/>
		<polygon fill="#7F590F" points="53.3,60.1 55.4,62.2 57.8,68.5 57.6,71.4 53.3,60.1 		"/>
		<polygon fill="#A17011" points="63.4,65.3 63.6,65.2 63.3,68.1 63.2,68.2 63.4,65.3 		"/>
		<polygon fill="#D79618" points="61,59 61.1,58.8 63.6,65.2 63.4,65.3 61,59 		"/>
		<polygon fill="#EAA41B" points="58.8,56.9 59,56.8 61.1,58.8 61,59 58.8,56.9 		"/>
		<polygon fill="#7F590F" points="58.8,56.9 61,59 63.4,65.3 63.2,68.2 58.8,56.9 		"/>
		<polygon fill="#33322F" points="58,67.2 57.8,67.2 56.3,62.8 56.5,62.8 58,67.2 		"/>
		<polygon fill="#3D3B38" points="56.5,62.8 56.3,62.8 59.8,60.8 60,60.8 56.5,62.8 		"/>
		<polygon fill="#5B5751" points="60,60.8 61.5,65.2 58,67.2 56.5,62.8 60,60.8 		"/>
		<polygon fill="#D32A2A" points="59.2,63.2 61.2,62 62.2,64.9 60.2,66.1 59.2,63.2 		"/>
		<polygon fill="#FF7373" points="57.5,63.1 59.6,61.9 61.2,62 59.2,63.2 57.5,63.1 		"/>
		<polygon fill="#E84242" points="59.2,63.2 60.2,66.1 58.5,66 57.5,63.1 59.2,63.2 		"/>
	</g>
</g>
</svg>
