<?xml version="1.0" encoding="utf-8"?>
<!-- Generator: Adobe Illustrator 18.1.1, SVG Export Plug-In . SVG Version: 6.00 Build 0)  -->
<svg version="1.1" xmlns="http://www.w3.org/2000/svg" xmlns:xlink="http://www.w3.org/1999/xlink" x="0px" y="0px"
	 viewBox="0 0 100 100" enable-background="new 0 0 100 100" xml:space="preserve">
<g id="Capa_1">
</g>
<g id="Capa_2">
	<g>
		<g>
			<polygon fill="#513939" points="95.8,61.4 57.2,39.2 4.2,70.4 42.9,92.7 			"/>
			<polygon fill="#3D2929" points="95.8,61.4 42.9,92.7 42.9,93.9 95.8,62.7 			"/>
			<polygon fill="#352222" points="4.2,70.4 4.2,71.7 42.9,93.9 42.9,92.7 			"/>
		</g>
		<polygon opacity="0.7" fill="#3D2929" points="41.1,72 54.9,80.1 79.6,65.8 65.8,57.8 		"/>
		<polygon opacity="0.7" fill="#3D2929" points="35.4,83.8 41.8,87.6 52,81.6 45.7,77.9 		"/>
		<g>
			<g>
				<g>
					<polygon fill="#54BEC6" points="23.5,64.7 60.2,43.6 60.2,6.6 23.5,27.8 					"/>
					<polygon fill="#35A7AA" points="22.6,64.3 23.5,64.7 23.5,27.8 22.6,27.3 					"/>
					<polygon fill="#6BD8DB" points="22.6,27.3 23.5,27.8 60.3,6.6 59.4,6.1 					"/>
				</g>
				<g>
					<circle fill="#F9DD89" cx="56.7" cy="12.1" r="0.9"/>
					<polygon fill="#4C3948" points="52.2,10.1 56.7,12.7 57.8,12 53.4,9.5 					"/>
					<polygon fill="#674747" points="52.2,9.7 56.7,12.3 57.8,11.6 53.4,9.1 					"/>
					<polygon fill="#352222" points="52.2,10.1 56.7,12.7 56.7,12.3 52.2,9.7 					"/>
					<polygon fill="#513939" points="56.7,12.7 57.8,12 57.8,11.6 56.7,12.3 					"/>
				</g>
				<g>
					<circle fill="#F9DD89" cx="45.2" cy="18.8" r="0.9"/>
					<polygon fill="#4C3948" points="40.8,16.9 45.2,19.4 46.4,18.7 42,16.2 					"/>
					<polygon fill="#674747" points="40.8,16.5 45.2,19 46.4,18.3 42,15.8 					"/>
					<polygon fill="#352222" points="40.8,16.9 45.2,19.4 45.2,19 40.8,16.5 					"/>
					<polygon fill="#513939" points="45.2,19.4 46.4,18.7 46.4,18.3 45.2,19 					"/>
				</g>
				<g>
					<circle fill="#F9DD89" cx="32.3" cy="26.2" r="0.9"/>
					<polygon fill="#4C3948" points="27.9,24.3 32.3,26.8 33.5,26.1 29.1,23.6 					"/>
					<polygon fill="#674747" points="27.9,23.9 32.3,26.4 33.5,25.7 29.1,23.2 					"/>
					<polygon fill="#352222" points="27.9,24.3 32.3,26.8 32.3,26.4 27.9,23.9 					"/>
					<polygon fill="#513939" points="32.3,26.8 33.5,26.1 33.5,25.7 32.3,26.4 					"/>
				</g>
				<g>
					<polygon fill="#513939" points="33.4,41 50.8,30.9 50.8,18.2 33.4,28.3 					"/>
					<g>
						<path fill="#FFFFFF" d="M37.6,27.6c0.1,0.4-0.2,0.7-0.5,0.9c0.5,0.2,0.7,0.6,0.5,1.2c-0.2,0.6-0.8,1-1.3,0.8
							c0,0.8-0.4,1.6-1.1,1.9c-0.4,0.2-0.8,0.1-1.1-0.2v7.4l12.9-7.4c-0.6-1.1-0.1-3,1.2-3.1c-0.2-0.6,0.2-1.2,0.9-1.2
							c-0.2-1,0.6-1.6,1.2-1.6v-7.3l-13.8,8C36.9,27,37.5,27,37.6,27.6z"/>
						<path fill="#54BEC6" d="M49,27.9c-0.7-0.1-1.1,0.6-0.9,1.2c-1.3,0-1.9,1.9-1.2,3.1l3.3-1.9v-3.9C49.6,26.3,48.8,26.9,49,27.9z
							"/>
						<path fill="#54BEC6" d="M37.1,28.5c0.3-0.2,0.6-0.5,0.5-0.9c-0.1-0.6-0.7-0.7-1.2-0.6L34,28.5v3.7c0.3,0.3,0.7,0.4,1.1,0.2
							c0.7-0.3,1.2-1.1,1.1-1.9c0.5,0.1,1.1-0.2,1.3-0.8C37.8,29.1,37.6,28.7,37.1,28.5z"/>
					</g>
					<polygon fill="#352222" points="32.8,40.7 33.4,41 33.4,28.3 32.8,28.1 					"/>
					<polygon fill="#674747" points="32.8,28.1 33.4,28.3 50.8,18.2 50.3,17.9 					"/>
					<polygon fill="#FFFFFF" points="42.4,35.6 44.2,34.5 44.2,34.2 42.4,35.3 					"/>
					<path fill="#54BEC6" d="M38.6,34.9c0.2-0.3,0.1-0.7-0.2-0.9c-0.4-0.3-0.8-0.1-1,0.3c-0.4-0.3-1-0.4-1.4,0
						c-0.3,0.3-0.4,0.7-0.2,1c-0.5,0.2-0.8,0.9-0.3,1.4c0.5,0.5,1.5,0.4,1.9-0.2c0.7,0.3,1.5,0.1,1.7-0.7
						C39.3,35.2,39,34.9,38.6,34.9z"/>
					<path fill="#54BEC6" d="M48.8,23.1c0.2-0.2,0.4-0.5,0.1-0.8c-0.3-0.3-0.5,0-0.6,0.3c-0.2-0.2-0.4-0.3-0.7-0.2
						c-0.4,0.1-0.4,0.5-0.4,0.8c0.1,0.4,0.2,0.8,0.6,0.8c0.2,0.1,0.5-0.1,0.6-0.3c0.2,0.2,0.6,0.4,0.8,0
						C49.3,23.4,49,23.2,48.8,23.1z"/>
					<g>
						<path fill="#DBB4B4" d="M41.5,27.5c-1.8,0.9-2.4,1.8-2.4,1.8s3.1-0.9,4.1-1.1c1-0.2,1.4-1.3,1.4-1.3S43.3,26.6,41.5,27.5z"/>
						<path fill="#EFD3D3" d="M36.8,31.8l2.4,1.1l0.9-1c0,0-0.7-0.4-1.7-0.4C37.3,31.5,36.8,31.8,36.8,31.8z"/>
						<path fill="#DBB4B4" d="M43.7,29.2c0.3,0.6,0.3,4.1,0.3,4.1s0.9-0.7,1.3-2.5c0.3-1.6-0.1-3.5-0.1-3.5S43.4,28.5,43.7,29.2z"/>
						<g>
							<path fill="#DBB4B4" d="M45.9,26.6c-0.6,0.7-4.3,4.8-5.7,6.1c0.4-0.1,0.8-0.4,1.2-0.7c0.7-0.7,4.5-4.8,5.2-5.9
								c0.3-0.5,0.3-0.8,0.2-1C46.7,25.4,46.4,26,45.9,26.6z"/>
							<path fill="#EFD3D3" d="M45.9,25.3c-0.6,0.6-5.3,5.4-5.3,5.4c-1.6,1.7-1.5,2.2-1.2,2.2c0.2,0,0.5,0,0.8-0.1
								c1.4-1.3,5.1-5.4,5.7-6.1c0.6-0.6,0.8-1.2,0.9-1.5C46.6,24.9,46.2,25,45.9,25.3z"/>
						</g>
					</g>
				</g>
				<g>
					<g>
						<polygon fill="#674747" points="47.3,38.1 51.3,40.4 57.9,36.6 54,34.3 						"/>
						<polygon fill="#FFFFFF" points="50.5,39.4 51.3,39.8 52.8,39 51.9,38.5 						"/>
						<polygon fill="#352222" points="47.3,38.7 51.3,41 51.3,40.4 47.3,38.1 						"/>
						<polygon fill="#513939" points="51.3,41 57.9,37.1 57.9,36.6 51.3,40.4 						"/>
					</g>
					<g>
						<ellipse fill="#FFFFFF" cx="52.8" cy="37.5" rx="1.2" ry="0.7"/>
						<path fill="#FFFFFF" d="M52.8,36.3c-0.6,0-1.2,0.5-1.2,1.2H54C54,36.8,53.5,36.3,52.8,36.3z"/>
						<g>
							<g>
								<polygon fill="#DBB4B4" points="53.8,31.3 54.2,31.1 53.9,31 								"/>
								<path fill="#DBB4B4" d="M53.8,31l-2.5,1.5c-0.1,0.1-0.2,0.3-0.2,0.5v4.7c0,0.2,0.1,0.3,0.2,0.2l2.5-1.5
									c0.1-0.1,0.2-0.3,0.2-0.5v-4.7C54,31,53.9,30.9,53.8,31z"/>
								<polygon fill="#DBB4B4" points="51.1,37.7 51.3,37.9 51.3,37.6 								"/>
								<path fill="#FFFFFF" d="M54,31.1l-2.5,1.5c-0.1,0.1-0.2,0.3-0.2,0.5v4.7c0,0.2,0.1,0.3,0.2,0.2l2.5-1.5
									c0.1-0.1,0.2-0.3,0.2-0.5v-4.7C54.3,31.1,54.2,31,54,31.1z"/>
								<path fill="#EFD3D3" d="M54,31.2l-2.5,1.4c-0.1,0.1-0.2,0.3-0.2,0.5v4.5c0,0.2,0.1,0.2,0.2,0.1l2.5-1.4
									c0.1-0.1,0.2-0.3,0.2-0.4l0-4.6C54.2,31.2,54.1,31.1,54,31.2z"/>
								<path fill="#FFFFFF" d="M53.1,36.6l-0.4,0.2c0,0-0.1,0.1-0.1,0.1c0,0,0,0.1,0.1,0l0.4-0.2C53.1,36.7,53.1,36.7,53.1,36.6
									C53.1,36.6,53.1,36.6,53.1,36.6z"/>
							</g>
						</g>
						<g>
							<path fill="#FFFFFF" d="M51.5,36.3c0,0,0.1,0,0.1,0c0.1-0.1,0.2-0.2,0.3-0.2c0.2,0,0.2,0.1,0.1,0.2c0.1,0,0.3,0,0.3,0.1
								c0,0.1-0.1,0.3-0.2,0.4c0,0,0,0.1,0,0.1l1.3-0.8c-0.1,0-0.1-0.1-0.1-0.2c-0.1-0.2,0-0.4,0.2-0.5c0.2-0.1,0.3-0.1,0.5,0v-4
								L51.5,33V36.3z"/>
							<path fill="#54BEC6" d="M52,36.4c0-0.1,0.1-0.2-0.1-0.2c-0.1,0-0.2,0.1-0.3,0.2c0,0-0.1,0-0.1,0v1.1l0.7-0.4c0,0,0-0.1,0-0.1
								c0.1-0.1,0.2-0.2,0.2-0.4C52.3,36.3,52.2,36.3,52,36.4z"/>
							<path fill="#54BEC6" d="M53.6,35.5c-0.2,0.1-0.3,0.3-0.2,0.5c0,0.1,0.1,0.1,0.1,0.2l0.6-0.3v-0.4
								C53.9,35.4,53.8,35.4,53.6,35.5z"/>
							<path fill="#54BEC6" d="M53,34.8c0.1-0.2,0.2-0.4,0-0.5c-0.2-0.1-0.4,0.2-0.4,0.4c-0.2-0.1-0.6-0.1-0.7,0.2
								c-0.1,0.2,0,0.5,0.2,0.5c0,0.1,0,0.1,0,0.2c0.1,0.1,0.3,0.2,0.4,0.2c0.3,0,0.5-0.3,0.4-0.5c0.2,0,0.5-0.1,0.4-0.3
								C53.3,34.9,53.2,34.8,53,34.8z"/>
							<path fill="#54BEC6" d="M53.6,33.4c0.1-0.1,0.2-0.2,0.1-0.3C53.6,33,53.5,33,53.4,33c-0.1-0.1-0.3-0.2-0.4-0.1
								c-0.2,0.1-0.3,0.3-0.2,0.5c-0.2,0.1-0.6,0.3-0.4,0.5c0.2,0.2,0.6,0.3,0.7,0c0.2,0.1,0.5,0.1,0.6-0.1c0.1-0.1,0-0.2,0-0.3
								C53.7,33.4,53.7,33.4,53.6,33.4z"/>
							<path fill="#54BEC6" d="M52,33.3c0.1,0.1,0.2-0.1,0.3-0.2C52.4,32.9,51.8,33.1,52,33.3z"/>
							<path fill="#54BEC6" d="M51.8,33.7c-0.2,0.1,0,0.3,0.2,0.3C52.2,33.9,52.1,33.6,51.8,33.7z"/>
							<path fill="#54BEC6" d="M53.6,34.3c-0.2,0.1,0,0.3,0.2,0.3C53.9,34.6,53.8,34.2,53.6,34.3z"/>
						</g>
					</g>
				</g>
				<g>
					<g>
						<polygon fill="#674747" points="37.7,43.8 41.6,46 48.3,42.2 44.3,39.9 						"/>
						<polygon fill="#FFFFFF" points="40.8,45 41.7,45.5 43.1,44.6 42.3,44.1 						"/>
						<polygon fill="#352222" points="37.7,44.3 41.6,46.6 41.6,46 37.7,43.8 						"/>
						<polygon fill="#513939" points="41.6,46.6 48.3,42.7 48.3,42.2 41.6,46 						"/>
					</g>
					<g>
						<ellipse fill="#FFFFFF" cx="43.2" cy="43.2" rx="1.2" ry="0.7"/>
						<path fill="#FFFFFF" d="M43.2,41.9c-0.6,0-1.2,0.5-1.2,1.2h2.4C44.3,42.5,43.8,41.9,43.2,41.9z"/>
						<g>
							<g>
								<polygon fill="#DBB4B4" points="44.2,36.9 44.5,36.7 44.3,36.6 								"/>
								<path fill="#DBB4B4" d="M44.1,36.6l-2.5,1.5c-0.1,0.1-0.2,0.3-0.2,0.5v4.7c0,0.2,0.1,0.3,0.2,0.2l2.5-1.5
									c0.1-0.1,0.2-0.3,0.2-0.5v-4.7C44.4,36.6,44.2,36.5,44.1,36.6z"/>
								<polygon fill="#DBB4B4" points="41.4,43.4 41.7,43.5 41.6,43.2 								"/>
								<path fill="#FFFFFF" d="M44.4,36.7l-2.5,1.5c-0.1,0.1-0.2,0.3-0.2,0.5v4.7c0,0.2,0.1,0.3,0.2,0.2l2.5-1.5
									c0.1-0.1,0.2-0.3,0.2-0.5v-4.7C44.6,36.7,44.5,36.7,44.4,36.7z"/>
								<path fill="#EFD3D3" d="M44.3,36.8l-2.5,1.4c-0.1,0.1-0.2,0.3-0.2,0.5v4.5c0,0.2,0.1,0.2,0.2,0.1l2.5-1.4
									c0.1-0.1,0.2-0.3,0.2-0.4l0-4.6C44.6,36.8,44.5,36.8,44.3,36.8z"/>
								<path fill="#FFFFFF" d="M43.4,42.2L43,42.4c0,0-0.1,0.1-0.1,0.1c0,0,0,0.1,0.1,0l0.4-0.2C43.4,42.4,43.5,42.3,43.4,42.2
									C43.5,42.2,43.4,42.2,43.4,42.2z"/>
							</g>
						</g>
						<g>
							<path fill="#FFFFFF" d="M41.8,41.9c0,0,0.1,0,0.1,0c0.1-0.1,0.2-0.2,0.3-0.2c0.2,0,0.2,0.1,0.1,0.2c0.1,0,0.3,0,0.3,0.1
								c0,0.1-0.1,0.3-0.2,0.4c0,0,0,0.1,0,0.1l1.3-0.8c-0.1,0-0.1-0.1-0.1-0.2c-0.1-0.2,0-0.4,0.2-0.5c0.2-0.1,0.3-0.1,0.5,0v-4
								l-2.6,1.5V41.9z"/>
							<path fill="#54BEC6" d="M42.4,42c0-0.1,0.1-0.2-0.1-0.2c-0.1,0-0.2,0.1-0.3,0.2c0,0-0.1,0-0.1,0V43l0.7-0.4c0,0,0-0.1,0-0.1
								c0.1-0.1,0.2-0.2,0.2-0.4C42.6,42,42.5,42,42.4,42z"/>
							<path fill="#54BEC6" d="M43.9,41.1c-0.2,0.1-0.3,0.3-0.2,0.5c0,0.1,0.1,0.1,0.1,0.2l0.6-0.3v-0.4C44.3,41,44.1,41,43.9,41.1z
								"/>
							<path fill="#54BEC6" d="M43.4,40.5c0.1-0.2,0.2-0.4,0-0.5c-0.2-0.1-0.4,0.2-0.4,0.4c-0.2-0.1-0.6-0.1-0.7,0.2
								c-0.1,0.2,0,0.5,0.2,0.5c0,0.1,0,0.1,0,0.2c0.1,0.1,0.3,0.2,0.4,0.2c0.3,0,0.5-0.3,0.4-0.5c0.2,0,0.5-0.1,0.4-0.3
								C43.6,40.5,43.5,40.5,43.4,40.5z"/>
							<path fill="#54BEC6" d="M43.9,39c0.1-0.1,0.2-0.2,0.1-0.3c-0.1-0.1-0.2-0.1-0.3-0.1c-0.1-0.1-0.3-0.2-0.4-0.1
								c-0.2,0.1-0.3,0.3-0.2,0.5c-0.2,0.1-0.6,0.3-0.4,0.5c0.2,0.2,0.6,0.3,0.7,0c0.2,0.1,0.5,0.1,0.6-0.1c0.1-0.1,0-0.2,0-0.3
								C44.1,39,44,39,43.9,39z"/>
							<path fill="#54BEC6" d="M42.3,38.9c0.1,0.1,0.2-0.1,0.3-0.2C42.7,38.5,42.1,38.7,42.3,38.9z"/>
							<path fill="#54BEC6" d="M42.2,39.3c-0.2,0.1,0,0.3,0.2,0.3C42.5,39.6,42.4,39.2,42.2,39.3z"/>
							<path fill="#54BEC6" d="M43.9,39.9c-0.2,0.1,0,0.3,0.2,0.3C44.3,40.2,44.1,39.8,43.9,39.9z"/>
						</g>
					</g>
				</g>
				<g>
					<g>
						<polygon fill="#674747" points="27.5,49.6 31.4,51.8 38.1,48 34.2,45.7 						"/>
						<polygon fill="#FFFFFF" points="30.6,50.8 31.5,51.3 32.9,50.4 32.1,50 						"/>
						<polygon fill="#352222" points="27.5,50.1 31.4,52.4 31.4,51.8 27.5,49.6 						"/>
						<polygon fill="#513939" points="31.4,52.4 38.1,48.5 38.1,48 31.4,51.8 						"/>
					</g>
					<g>
						<ellipse fill="#FFFFFF" cx="33" cy="49" rx="1.2" ry="0.7"/>
						<path fill="#FFFFFF" d="M33,47.7c-0.6,0-1.2,0.5-1.2,1.2h2.4C34.2,48.3,33.6,47.7,33,47.7z"/>
						<g>
							<g>
								<polygon fill="#DBB4B4" points="34,42.7 34.3,42.5 34.1,42.4 								"/>
								<path fill="#DBB4B4" d="M33.9,42.4l-2.5,1.5c-0.1,0.1-0.2,0.3-0.2,0.5V49c0,0.2,0.1,0.3,0.2,0.2l2.5-1.5
									c0.1-0.1,0.2-0.3,0.2-0.5v-4.7C34.2,42.4,34.1,42.3,33.9,42.4z"/>
								<polygon fill="#DBB4B4" points="31.2,49.2 31.5,49.3 31.4,49 								"/>
								<path fill="#FFFFFF" d="M34.2,42.5L31.6,44c-0.1,0.1-0.2,0.3-0.2,0.5v4.7c0,0.2,0.1,0.3,0.2,0.2l2.5-1.5
									c0.1-0.1,0.2-0.3,0.2-0.5v-4.7C34.4,42.5,34.3,42.5,34.2,42.5z"/>
								<path fill="#EFD3D3" d="M34.1,42.6l-2.5,1.4c-0.1,0.1-0.2,0.3-0.2,0.5v4.5c0,0.2,0.1,0.2,0.2,0.1l2.5-1.4
									c0.1-0.1,0.2-0.3,0.2-0.4l0-4.6C34.4,42.6,34.3,42.6,34.1,42.6z"/>
								<path fill="#FFFFFF" d="M33.2,48l-0.4,0.2c0,0-0.1,0.1-0.1,0.1c0,0,0,0.1,0.1,0l0.4-0.2C33.2,48.2,33.3,48.1,33.2,48
									C33.3,48,33.2,48,33.2,48z"/>
							</g>
						</g>
						<g>
							<path fill="#FFFFFF" d="M31.6,47.7c0,0,0.1,0,0.1,0c0.1-0.1,0.2-0.2,0.3-0.2c0.2,0,0.2,0.1,0.1,0.2c0.1,0,0.3,0,0.3,0.1
								c0,0.1-0.1,0.3-0.2,0.4c0,0,0,0.1,0,0.1l1.3-0.8c-0.1,0-0.1-0.1-0.1-0.2c-0.1-0.2,0-0.4,0.2-0.5c0.2-0.1,0.3-0.1,0.5,0v-4
								l-2.6,1.5V47.7z"/>
							<path fill="#54BEC6" d="M32.2,47.8c0-0.1,0.1-0.2-0.1-0.2c-0.1,0-0.2,0.1-0.3,0.2c0,0-0.1,0-0.1,0v1.1l0.7-0.4
								c0,0,0-0.1,0-0.1c0.1-0.1,0.2-0.2,0.2-0.4C32.4,47.8,32.3,47.8,32.2,47.8z"/>
							<path fill="#54BEC6" d="M33.7,46.9c-0.2,0.1-0.3,0.3-0.2,0.5c0,0.1,0.1,0.1,0.1,0.2l0.6-0.3v-0.4
								C34.1,46.8,33.9,46.8,33.7,46.9z"/>
							<path fill="#54BEC6" d="M33.2,46.3c0.1-0.2,0.2-0.4,0-0.5c-0.2-0.1-0.4,0.2-0.4,0.4c-0.2-0.1-0.6-0.1-0.7,0.2
								c-0.1,0.2,0,0.5,0.2,0.5c0,0.1,0,0.1,0,0.2c0.1,0.1,0.3,0.2,0.4,0.2c0.3,0,0.5-0.3,0.4-0.5c0.2,0,0.5-0.1,0.4-0.3
								C33.4,46.3,33.3,46.3,33.2,46.3z"/>
							<path fill="#54BEC6" d="M33.7,44.8c0.1-0.1,0.2-0.2,0.1-0.3c-0.1-0.1-0.2-0.1-0.3-0.1c-0.1-0.1-0.3-0.2-0.4-0.1
								c-0.2,0.1-0.3,0.3-0.2,0.5c-0.2,0.1-0.6,0.3-0.4,0.5c0.2,0.2,0.6,0.3,0.7,0c0.2,0.1,0.5,0.1,0.6-0.1c0.1-0.1,0-0.2,0-0.3
								C33.9,44.8,33.8,44.8,33.7,44.8z"/>
							<path fill="#54BEC6" d="M32.1,44.8c0.1,0.1,0.2-0.1,0.3-0.2C32.5,44.3,31.9,44.5,32.1,44.8z"/>
							<path fill="#54BEC6" d="M32,45.1c-0.2,0.1,0,0.3,0.2,0.3C32.3,45.4,32.2,45,32,45.1z"/>
							<path fill="#54BEC6" d="M33.7,45.7c-0.2,0.1,0,0.3,0.2,0.3C34.1,46,34,45.6,33.7,45.7z"/>
						</g>
					</g>
				</g>
			</g>
			<g>
				<g>
					<polygon fill="#35A7AA" points="59.4,44 82.1,57.1 82.1,20.2 59.4,7.1 					"/>
					<polygon fill="#54BEC6" points="82.1,57.2 83,56.7 83,19.7 82.1,20.2 					"/>
					<polygon fill="#6BD8DB" points="58.6,6.6 82.1,20.2 83,19.7 59.5,6.1 					"/>
				</g>
				<g>
					<circle fill="#F9DD89" cx="68.9" cy="16.2" r="0.9"/>
					<polygon fill="#4C3948" points="67.7,16.1 68.9,16.8 73.3,14.2 72.1,13.5 					"/>
					<polygon fill="#674747" points="67.7,15.7 68.9,16.4 73.3,13.8 72.1,13.1 					"/>
					<polygon fill="#352222" points="68.9,16.8 73.3,14.2 73.3,13.8 68.9,16.4 					"/>
					<polygon fill="#513939" points="67.7,16.1 68.9,16.8 68.9,16.4 67.7,15.7 					"/>
				</g>
				<g>
					<path fill="#2C9999" d="M76.8,38.6c-0.7,0.3-0.9,1.1-1,1.9c-0.8-0.6-1.6,0.1-1.9,0.9c-0.8-1.2-2.7-0.6-2.8,0.8
						c-0.6-0.4-1.3-0.3-1.7,0.2c-0.2-1-0.7-1.9-1.7-2.1c-0.9-0.1-1.6,0.5-1.6,1.4c-0.6-0.2-1.4,0.1-1.6,0.8l5.9,3.4
						c-0.1-0.6,0.1-1.1,0.6-1.5c0.5-0.3,1-0.1,1.4,0.2c0.1-0.3,0.5-0.6,0.9-0.6c0.6,0,1,0.3,1.3,0.8c0.1-0.1,0.2-0.2,0.3-0.3
						c0.4-0.2,0.8-0.1,1.1,0c0-0.4,0.3-0.9,0.8-1c0.3-0.1,0.5,0,0.7,0.1c0.1-0.1,0.3-0.2,0.6-0.2c0.1,0,0.2,0,0.2,0v-4.7
						C77.7,38.4,77.3,38.3,76.8,38.6z"/>
					<path fill="#54BEC6" d="M77.4,43.6c-0.2-0.1-0.4-0.2-0.7-0.1c-0.5,0.1-0.8,0.5-0.8,1c-0.4-0.2-0.8-0.3-1.1,0
						c-0.1,0.1-0.2,0.2-0.3,0.3c-0.3-0.4-0.7-0.8-1.3-0.8c-0.4,0-0.8,0.2-0.9,0.6c-0.4-0.3-0.9-0.5-1.4-0.2
						c-0.5,0.3-0.6,0.9-0.6,1.5l7.9,4.5v-6.9c-0.1,0-0.1,0-0.2,0C77.7,43.3,77.5,43.4,77.4,43.6z"/>
				</g>
				<g>
					<path fill="#FFFFFF" d="M62.2,22.4c0.6,0.1,1,0.8,1.2,1.5c0.7-0.2,0.9,0.5,0.9,1.2c0.2-0.3,0.5-0.5,0.8-0.2
						c0.5,0.3,0.4,0.9,0.1,1.3c0.6,0,1.4,0.2,1.5,1c0.1,0.6-0.2,1-0.7,1.1c0.4,0.3,0.6,0.8,0.5,1.3c-0.2,0.8-0.8,0.8-1.4,0.7
						c0,0.5,0.3,1.1-0.1,1.5c-0.2,0.3-0.6,0.2-0.9,0.1c0.1,0.6,0,1.3-0.6,1.5c-0.4,0.1-0.7-0.1-1-0.5c-0.1,0.4-0.3,0.7-0.6,0.8v7.3
						l2.2,1.3c0.3-0.6,1-0.9,1.6-0.8c0-0.8,0.7-1.5,1.6-1.4c1.1,0.1,1.6,1.1,1.7,2.1c0.4-0.5,1.1-0.6,1.7-0.2
						c0.1-1.4,1.9-1.9,2.8-0.8c0.3-0.8,1.1-1.5,1.9-0.9c0.1-0.7,0.3-1.5,1-1.9c0.5-0.2,1-0.1,1.4,0.1V24.4l-15.9-9.2V22.4z"/>
					<path fill="#2C9999" d="M66.8,27.2c-0.2-0.8-0.9-1-1.5-1c0.2-0.4,0.4-1-0.1-1.3c-0.3-0.2-0.6,0-0.8,0.2c0-0.7-0.3-1.3-0.9-1.2
						c-0.2-0.7-0.5-1.4-1.2-1.5v11.3c0.3-0.1,0.5-0.5,0.6-0.8c0.3,0.3,0.6,0.6,1,0.5c0.6-0.2,0.7-0.9,0.6-1.5
						c0.3,0.2,0.6,0.2,0.9-0.1c0.3-0.4,0.1-1,0.1-1.5c0.6,0.1,1.2,0.1,1.4-0.7c0.1-0.6-0.1-1-0.5-1.3C66.6,28.2,66.9,27.8,66.8,27.2
						z"/>
				</g>
				<path fill="#2C9999" d="M76,28.8c0.3-0.4,0.4-0.9,0.1-1.2c-0.3-0.3-0.6-0.2-0.9-0.1c0.1-0.6-0.7-0.8-0.8-0.3
					c-0.8-0.6-1.5-0.1-1.2,0.7c-0.8-0.1-1,1.1-0.3,1.7c-1.3,0.7,0.2,2.3,1.4,1.9c0,0.7,0.5,1.3,1.3,1.1c1-0.2,1.2-1.2,0.7-1.9
					C77,30.1,76.9,29,76,28.8z"/>
				<path fill="#2C9999" d="M67.1,36.8c0.1-0.3-0.2-0.7-0.6-0.6c0.1-0.4-0.1-1-0.5-1.1c-0.4-0.1-0.8,0.3-0.8,0.7
					c-0.5-0.7-1.4-0.6-1.7,0.4c-0.2,1.1,0.5,2.1,1.6,1.9c0.1,0.3,0.3,0.5,0.6,0.6c0.4,0,0.7-0.3,0.8-0.7c0.5,0.1,1.3,0.1,1.4-0.5
					C68.1,37,67.5,36.8,67.1,36.8z"/>
				<polygon fill="#513939" points="63.9,18.7 73.8,24.3 73.8,23.6 63.9,17.9 				"/>
				<polygon fill="#513939" points="63.9,20.3 71.6,24.8 71.6,24 63.9,19.5 				"/>
				<path fill="#EFD3D3" d="M70.7,32.8l-1.7,1.4c0,0,4.8,6,6.6,6.2c1.8,0.2-0.6-2.1-1.9-3.7C72.6,35.2,70.7,32.8,70.7,32.8z"/>
				<path fill="#EFD3D3" d="M64.2,27.2c1.2,2.1,3.7,5.2,3.7,5.2l1.2-0.9c0,0-3.4-4.5-4.3-5.7C63.8,24.7,62.9,25.1,64.2,27.2z"/>
				<path fill="#EFD3D3" d="M72.7,29.2c-1.7,1.3-2.5,2.1-2.5,2.1l0.9,0.8c0,0,1.1-1,2.2-2.1C74.3,28.9,74.4,27.9,72.7,29.2z"/>
				<g>
					<path fill="#EFD3D3" d="M67.7,31.1c0.4,0.5,1.2,1.5,1.9,2.4c0.6,0.7,0.9,1.4,1.4,2c1.3-0.7,1.1-3.4,0-4.5
						C69.9,29.9,68.4,30,67.7,31.1z"/>
					<path fill="#DBB4B4" d="M67.7,31.1c-0.1,0.2-0.2,0.3-0.3,0.5c-0.3,0.8,0.4,2,1.2,2.8c0.7,0.8,1.4,1.4,2.2,1.1
						c0.1,0,0.1-0.1,0.2-0.1c-0.4-0.6-0.8-1.2-1.4-2C68.9,32.6,68.1,31.6,67.7,31.1z"/>
				</g>
				<path fill="#2C9999" d="M74.9,34c0.1-0.2,0-0.4,0-0.6c-0.2-0.5-0.8-0.7-1.3-0.6c-0.4,0.1-0.8,0.3-0.8,0.8c0,0.3,0.2,0.5,0.5,0.6
					c0,0.3,0.2,0.6,0.6,0.8c0.3,0.2,0.9,0.4,1.2,0.2C75.6,34.9,75.3,34.3,74.9,34z"/>
			</g>
		</g>
		<g>
			<path fill="#EBA87D" d="M52.4,51.7c0.1-0.3,0.5-0.4,0.6-0.6c0.2-0.1,0.3-0.3,0.5-0.3c0.2,0,0.3,0.1,0.5,0
				c0.3-0.1,0.4,0.2,0.6,0.4c0.3,0.4-0.1,0.7-0.4,0.8c-0.3,0-0.6,0-0.9,0.2C53,52.4,52.3,52.2,52.4,51.7z"/>
			<path fill="#F8B881" d="M57.7,46c-0.1,0.1-1.1,0.8-1,1.3c0.1,0.9,1.1,0.3,1.3,0.1c0.2-0.1,0.2-0.9,0.3-1.1
				C58.5,45.8,58.1,45.7,57.7,46z"/>
			<path fill="#1E1E29" d="M56.7,46.7c-1.8,1-3.4,0.8-5.2-0.5c-0.8-0.5-0.6,1.1-0.3,1.5c0.8,0.9,3.1,2.6,6,0.6L56.7,46.7z"/>
			<path fill="#E9E8E8" d="M46.6,46.1c-0.9,0.7-1.1,1.6,0.2,2.9c1.3,1.3,2.2,1.4,2.2,1.4s2.9-2.7,2.3-4C50.7,45,47.4,45.4,46.6,46.1
				z"/>
			<path fill="#E62A2A" d="M48.7,47.2c0.6-0.1,0.9,0.4,0.9,0.4l-0.3,0.6l0.6,1.7l-0.8,1.8L48,50l0.5-1.7l-0.5-0.5
				C48.1,47.8,48.1,47.3,48.7,47.2z"/>
			<path fill="#0D0F12" d="M47,57.5c1.1-0.3,1.3,1.4,0.6,2.2c-0.8,0.8-1.9,0.5-1.5-0.7C46.2,58.3,46.4,57.7,47,57.5z"/>
			<path fill="#0D0F12" d="M50.6,57.5c-1.2-0.2-1.2,1.5-0.3,2.2c0.8,0.7,1.9,0.3,1.5-0.8C51.5,58.2,51.2,57.6,50.6,57.5z"/>
			<path fill="#252728" d="M51.5,58.8c0-0.1-0.1-0.1-0.2-0.2c-0.1,0.2-0.6,0.2-0.8,0.2c-0.2,0-0.5,0.1-0.3,0.3
				c0.2,0.2,0.6,0.4,0.9,0.3C51.5,59.4,51.6,59.1,51.5,58.8z"/>
			<path fill="#1D1D27" d="M46.2,51.6c0,0.8-0.1,1.7-0.1,2.5c0,1.2,0.2,2.8-0.2,4c0.2,0.1,0.4,0.2,0.5,0.2c0.7,0.3,1.4,0,2.1-0.1
				c-0.2-2.1,0.3-4.2,0.3-6.4C48.9,51.4,46.3,50.9,46.2,51.6z"/>
			<path fill="#1D1D27" d="M48.9,52.2c0.2,1.1,0.1,2.3,0.1,3.4c0,0.8,0,1.8-0.1,2.5c0.3,0.1,1,0.2,1.2,0.2c0.5,0,1.2-0.2,1.6-0.4
				c-0.2-0.8-0.4-2.3-0.5-3.5c-0.1-0.9,0.2-2.1,0-3C50.9,50.9,48.7,51.1,48.9,52.2z"/>
			<path fill="#121219" d="M46.2,53.8v0.9c0,0,1.1-0.2,2.5,0.2c0,0,0-0.2,0-0.3c0-0.1,0.2-0.1,0.2,0c0,0.1,0,0.2,0,0.2
				s0.8-0.6,2.2-0.3l0-0.9l-2.3-0.7L46.2,53.8z"/>
			<g>
				<path fill="#1E1E29" d="M52,49.8c0.2-1.2,0.8-2.3-0.1-3.2c-0.2-0.2-0.4-0.4-0.7-0.5c0,0.1,0.1,0.2,0,0.3
					C51,48.2,49,50.2,49,50.2s-2.9-2.6-2.4-3.9c0-0.1,0.2-0.3,0.2-0.4c-0.5,0.3-1,0.6-1.2,1.2c-0.2,0.7,0.1,2.4,0.1,3.6
					c0,0.7,0,2.4-0.2,3.1c0.5,0.2,2.5,0.5,2.9,0.3c0.4-0.2,0.6-0.7,0.6-0.8c0,1.2,2.9,0.7,2.9,0.6C51.8,53.3,51.8,50.9,52,49.8z"/>
			</g>
			<path fill="#121219" d="M51.9,53.1c-3.5,0.1-5.5-1.7-5.8-2.2c-0.1-0.2-0.5-0.6-0.3-0.9c0.3-0.5,1.8,0.2,2.2,0.4
				c0.9,0.3,1.8,0.9,2.8,1c0.4,0.1,0.7,0.1,1.1,0.1C51.8,51.5,51.9,52.7,51.9,53.1z"/>
			<path fill="#121219" d="M49.1,50.6c0,0-0.2,0.5,0.1,1.5C49.1,52.1,49.1,51.4,49.1,50.6z"/>
			<circle fill="#121219" cx="48.8" cy="52.7" r="0.2"/>
			<circle fill="#121219" cx="48.6" cy="50.8" r="0.2"/>
			<path fill="#F8B881" d="M53.4,52.7c0.4,0,0.9-0.5,0.8-0.7c-0.3-0.3-0.5-0.5-0.7-0.7c0-0.2-0.3-0.4-0.4-0.5
				c-0.3-0.1-0.5,0.2-0.9,0.2c-0.4,0-0.5,1.1-0.2,1.1C52.4,52,52.7,52.7,53.4,52.7z"/>
			<path fill="#EBA87D" d="M52.5,52.5c-0.1-0.1,0-0.2,0.1-0.3c0.2-0.2,0.4-0.2,0.4,0.1c0.1-0.1,0.4-0.2,0.4,0.1
				c0.1,0.2,0,0.4-0.1,0.4C53.2,52.8,52.5,52.5,52.5,52.5z"/>
			<path fill="#FBCBA0" d="M52.6,52.2c0.2-0.2,0.3-0.1,0.2,0.1c0.3-0.2,0.5,0,0.5,0.4c0,0.2-0.2,0.2-0.6,0
				C52.5,52.6,52.3,52.4,52.6,52.2z"/>
			<path fill="#121219" d="M49.1,53.4l0.1-1c0,0,0,1.2,0.2,1.5C49.3,53.9,49.1,53.9,49.1,53.4z"/>
			<path fill="#EBA87D" d="M53.3,51c-0.2,0.1-0.5,0.2-0.6,0.2c-0.1,0-0.1,0.1-0.1,0.1c0,0.1,0.1,0.2,0.2,0.2c0.4,0,0.6-0.2,0.6-0.2
				c0.1,0.2,0.3,0.3,0.3,0.2c0,0,0-0.1,0-0.1c0-0.1,0-0.4-0.2-0.4c-0.1,0-0.1-0.1-0.2-0.1L53.3,51z"/>
			<path fill="#FBCBA0" d="M53.4,50.9c-0.3,0.3-0.6,0.3-0.6,0.4c-0.1,0.2,0.2,0.2,0.3,0.2c0.2,0,0.4-0.2,0.5-0.2
				c0.1-0.1,0.1,0,0.1,0.1c0.1,0.2,0.3,0.4,0.5,0.3c0.2-0.1,0.3-0.9,0-0.8C53.8,50.9,53.6,50.7,53.4,50.9z"/>
			<path fill="#313243" d="M52.1,50.9c-4.9,0.4-6.3-2.4-5.3-3.6l0-1.2c-3.5,1.8-1.4,6.9,5.4,6.9L52.1,50.9z"/>
			<path fill="#252728" d="M46.2,58.9c0-0.1,0.1-0.2,0.1-0.2c0.2,0.1,0.6,0.1,0.8,0.1c0.2,0,0.5,0,0.3,0.3c-0.2,0.2-0.5,0.4-0.8,0.4
				C46.3,59.5,46.1,59.2,46.2,58.9z"/>
			<path fill="#121219" d="M50.8,45.8c0,0,1.2,0.8,1.7,1.6l-1.2,0.4c0,0,0.6,0.9,0.7,1.1c0,0.1-1,0.3-1.7,0.7
				c-0.7,0.4-1.3,0.9-1.3,0.9s-0.1-0.2,0-0.3C49.1,50,51.3,48.2,50.8,45.8z"/>
			<path fill="#313243" d="M50.8,45.7c0,0,0.9,0.4,1.6,1.5l-1.1,0.6c0,0,0.5,0.8,0.6,0.9c0,0.1-0.8,0.4-1.6,0.8
				c-0.7,0.4-1.3,0.9-1.3,0.9s-0.1-0.2,0-0.3C49.1,50,51.3,48,50.8,45.7z"/>
			<path opacity="0.5" fill="#121219" d="M46.9,45.9c0,0-1.1,0.8-1.5,1.6l1.1,0.4c0,0-0.4,1.3-0.2,1.3c0.2,0,0.6-0.1,1.7,0.5
				c0.6,0.3,1.1,0.7,1.1,0.7s0-0.2,0-0.4C48.9,49.9,46.9,48.5,46.9,45.9z"/>
			<path fill="#313243" d="M47,45.8c0,0-0.9,0.6-1.4,1.6l0.9,0.5c0,0-0.1,0.9-0.2,1.1c0,0.1,0.5,0.1,1.6,0.7c0.6,0.3,1,0.8,1,0.8
				s0.1-0.2,0-0.3C48.9,50,47.3,48.2,47,45.8z"/>
			<path opacity="0.2" fill="#A19E99" d="M49.8,48.3l-1-0.8L48,48.4c0,0-0.8-0.5-1.1-1.5c-0.3-1,3.1-1.3,3.8-0.9
				C51.3,46.3,50.8,47.5,49.8,48.3z"/>
			<path fill="#F5F5F5" d="M48.9,47.5l0.9,0.6c0,0,1.6-1.1,0.9-2.4c-0.6-1.2-3.3-1.1-3.8,0.2c-0.4,1.2,0.9,2.2,0.9,2.2L48.9,47.5z"
				/>
			<path fill="#EF9E6D" d="M47.4,46.6c0.2,0.2,0.5,0.4,0.8,0.4c0.2,0.1,0.6,0.3,0.7,0.3c0,0,0.2-0.1,0.4-0.2
				c0.3-0.2,0.7-0.4,0.9-0.7c0.2-0.5,0.5-1.4,0-1.8c-0.5-0.4-1.4-0.4-1.9-0.3c-0.6,0.1-1,0.7-1,1.3C47.1,46.1,47.2,46.3,47.4,46.6z"
				/>
			<g>
				<g>
					<path fill="#4F2C1E" d="M52.9,39.4c0.1-1.5-0.1-2-0.1-2.6c0.3-2.6-1.8-4.4-5.4-4c-6.3,0.6-5.1,9.4-3.3,9
						c1.3-0.3,2.6-0.7,3.9-1.1c1.2-0.3,2.6-0.1,3.8-0.1C52.9,40.6,52.9,40.2,52.9,39.4z"/>
					<path fill="#F8B881" d="M44.3,41.6c0.4,2.3,2.2,4.9,4.9,4.6c2.8-0.3,4.1-3.7,3.7-6.6c-0.5-3.1-2-5.7-5.2-5
						C45.4,35.1,43.8,38.4,44.3,41.6z"/>
					<path fill="#F8B881" d="M43.8,42.6c0.3,0.1,0.6,0.1,0.9,0.1c0,0,0,0,0,0c0.1-0.2-0.1-1.3-0.2-1.5c-0.2-0.6-0.5-1-1-0.8
						C42.3,40.6,42.8,42.3,43.8,42.6z"/>
					<path opacity="0.5" fill="#D99F7C" d="M52.6,38.2c-0.2-0.9-1.1-0.6-2.2-0.5c-1.7,0.2-3.8,0.3-5.1-0.3c0,0.9-0.6,1.2-0.9,2.1
						c-0.2,0.5-0.2-1.7-0.2-2c0-0.7,0-1.8,0.6-2.3c0.7-0.7,2.1-0.7,3-0.7c1.4,0,2.6,0.3,3.9,0.7C52.6,35.7,52.8,37.4,52.6,38.2z"/>
					<path opacity="0.35" fill="#B5441A" d="M44.2,42.2c0.4-0.3,0-1.1-0.3-1.3c-0.3-0.1-0.9,0.1-0.6,0.6c0.1-0.5,0.4-0.2,0.4,0.2
						c0,0.2-0.3,0.2,0,0.5C43.8,42.3,44.1,42.3,44.2,42.2z"/>
					<path fill="#4F2C1E" d="M52.1,37.1c-3.6,0.9-6.5,0.4-6.9,0c0.1,0.7-0.2,1.1-0.4,1.7c-0.3,1-0.1,2,0.3,2.4
						c-0.2,0.1-0.5,0.1-0.6,0c-0.2-0.2-0.5-0.8-0.5-1.3c0-0.6-1.9-5.4,2.7-6.9c3.4-1.1,5.8,1.5,7.3,0.2c0,0.8,0,1.9-0.5,2.4
						c0.4-0.1,0.6-0.1,0.9-0.1C53.9,36.1,53.2,36.8,52.1,37.1z"/>
					<path fill="#6A3B27" d="M53.7,33.5c0,0-0.8,2.9-4.8,3c-4.4,0.2-5.6-1-4.3-2.4c1.3-1.4,3.8-1.4,5.5-1
						C51.8,33.6,52.5,34.1,53.7,33.5z"/>
					<path fill="#4F2C1E" d="M44.6,39.3c0,0.3,0.1,1.4,0.4,1.9c-0.2,0.1-0.5,0.1-0.6,0c-0.3-0.2-0.4-1-0.8-1
						C43.3,40.2,44.4,39.8,44.6,39.3z"/>
				</g>
				<g>
					<path opacity="0.5" fill="#B5441A" d="M46.7,40.6c0.3-0.3-0.6-0.3-0.8-0.2c0,0.2,0.4,0.1,0.6,0.1c-0.1,0.1-0.4,0.1-0.6,0.2
						c-0.1,0.1-0.1,0.1,0,0.1C46.1,40.8,46.7,40.6,46.7,40.6z"/>
					<path opacity="0.5" fill="#B5441A" d="M51.8,40.3C51.6,40,52.4,40,52.5,40c0,0.2-0.4,0.1-0.5,0.1c0.1,0.1,0.4,0.1,0.5,0.2
						c0.1,0.1,0.1,0.1,0,0.1C52.4,40.5,51.9,40.3,51.8,40.3z"/>
					<g>
						<path fill="#131C22" d="M47.1,40.7c-0.2-0.1-0.4-0.1-0.6,0c-0.4-0.3-0.1-1.4,0.5-1.2C47.5,39.7,47.5,40.5,47.1,40.7z"/>
					</g>
					<path opacity="0.35" fill="#B54817" d="M50.2,41.1c0.1,0.1-0.1,0.5-0.6,0.6c-0.5,0-0.8-0.4-0.6-0.5c0.2-0.1,0.3,0,0.6,0
						C49.9,41.2,50,41,50.2,41.1z"/>
					<path fill="#FBCBA0" d="M50.2,41.2c0.1-0.1-0.1-0.4-0.3-0.8c-0.1-0.3-0.3-1-0.6-0.9c-0.3,0-0.3,0.7-0.4,1.1
						c-0.1,0.3-0.1,0.7,0,0.7C49.3,41.5,50,41.4,50.2,41.2z"/>
					<g>
						<path fill="#131C22" d="M51.9,39.3c0.3,0.2,0.4,0.7,0.1,1c-0.2,0-0.4,0-0.5,0.2C50.8,40.3,51.2,39,51.9,39.3z"/>
					</g>
					<path fill="#7E8CA9" d="M46.9,39.7c0.2-0.1,0.4,0.3,0.2,0.4C46.8,40.2,46.6,39.7,46.9,39.7z"/>
					<path fill="#7E8CA9" d="M51.7,39.5c0.2-0.1,0.3,0.3,0.1,0.4C51.6,40,51.5,39.6,51.7,39.5z"/>
					<path opacity="0.5" fill="#B5441A" d="M46.2,42.2c0.2-0.1,0.8-0.1,0.8-0.1c0.1,0-0.2,0.1-0.5,0.2c0,0,0,0,0,0
						c1.6,0.5,4.3,0.3,5.5-0.1c0,0,0-0.1-0.1-0.1c-0.3-0.1-0.4-0.1-0.3-0.1c0,0,0.6-0.1,0.7,0.1c0.1,0.2-0.1,0.5-0.2,0.5
						c-0.1,0,0-0.2-0.1-0.3c-0.3,0.2-0.8,0.7-0.9,1.1c-0.1,0.7-0.5,1.2-2,1.2c-2,0-2.6-1.8-2.7-2.2c-0.1,0.2-0.1,0.4-0.2,0.4
						C46,42.8,46,42.4,46.2,42.2z"/>
					<path fill="#4F2C1E" d="M52.4,39.1c0.1,0.1,0.2-0.2,0.1-0.2c-0.2-0.3-0.5-0.5-1.1-0.6c-0.4,0-0.8-0.1-0.8-0.1
						c0,0.3,0,0.8,0.4,0.8c0.2,0,0.4,0,0.6,0C52,39,52.3,39.1,52.4,39.1z"/>
					<path fill="#4F2C1E" d="M46.1,39.4c-0.1,0.1-0.2-0.1-0.2-0.2c0.2-0.3,0.4-0.6,1.1-0.8c0.5-0.1,0.8-0.2,0.8-0.2
						c0.1,0.2,0.1,0.8-0.3,0.8c-0.2,0-0.5,0-0.7,0.1C46.4,39.2,46.2,39.3,46.1,39.4z"/>
					<path fill="#902824" d="M46.8,42.6c0,0,2.1,0.6,4.8-0.2c0,0-0.4,0.2-0.5,0.8c-0.1,0.4-0.3,1-1.8,1.1
						C47.4,44.4,46.8,42.6,46.8,42.6z"/>
					<path fill="#FFF9F1" d="M47.4,42.8c0,0,0,0.6,0.6,0.8c0.7,0.3,1.5,0.3,2.3,0.1c0.5-0.1,0.8-1,0.8-1S49.5,43,47.4,42.8z"/>
					<path fill="#FFF9F1" d="M47.6,43.7c-0.1-0.1-0.1-0.3,0.2-0.2c0.4,0.1,1,0.2,1.8,0.2c0.8,0,0.9-0.3,1.1-0.2
						c0.1,0.2-0.4,0.9-1.6,0.8C47.7,44.3,47.6,43.7,47.6,43.7z"/>
					<path fill="#FBCBA0" d="M52.6,41c0,0,0.1,0.1,0.1,0.2c0.3,0.6-1.2,0.6-1.4,0.4c-0.4-0.5,0.1-0.7,0.4-0.7
						C52,40.7,52.3,40.7,52.6,41z"/>
					<path fill="#FBCBA0" d="M47.2,41.1c0,0,0.1,0.1,0.1,0.2c0.3,0.6-1.2,0.7-1.5,0.4c-0.4-0.5,0-0.7,0.4-0.8
						C46.5,40.9,47,40.9,47.2,41.1z"/>
					<path fill="#E8DAC5" d="M47.4,43.1c0,0,2.8-0.3,3.5-0.1c0,0,0.1-0.2,0.1-0.3c0,0-2,0.3-3.7,0.1C47.4,42.8,47.4,43,47.4,43.1z"
						/>
					<path fill="#E8DAC5" d="M48,43.5c0,0,1,0.3,2.5,0C50.5,43.5,49.2,44.1,48,43.5z"/>
				</g>
			</g>
		</g>
		<g>
			<path fill="#FBCBA0" d="M64,47c0,0,1.9,1.7,1.9,3.3c0,1.9-2,2.4-2,2.4l-0.4-0.9c2.2-1.1,0.4-2.9-0.5-3.7C62.5,47.5,64,47,64,47z"
				/>
			<path fill="#FBCBA0" d="M58.1,47.2c0.5,1.6-1.4,4.7-3.8,4.8c-0.1-0.3,0.2-0.5-0.1-1.2c3.2-0.8,3.1-3.7,3.4-4.1
				c0.3-0.4,0.6-0.6,0.6-0.6S57.9,46.7,58.1,47.2z"/>
			<path fill="#E9E8E8" d="M58.3,45.9l1.4,1.3c0,0-0.9,1.5-1.6,2.7c-0.8,0-1.8-0.5-2.1-1.1c1-0.8,1.1-2,1.7-2.4
				C58,46.1,58.3,45.9,58.3,45.9z"/>
			<path fill="#E9E8E8" d="M63.1,46c1.4,1.1-0.1,6.5-0.1,6.4l-4.4,0c0-0.1-1.3-4.3-0.5-6C58.6,44.9,62.2,45.3,63.1,46z"/>
			<path fill="#3C9AD5" d="M60.8,47.2C60.2,47,60,47.5,60,47.5l0.4,0.7L59.8,50l0.9,1.6l0.9-1.7L61,48.3l0.5-0.5
				C61.5,47.8,61.4,47.3,60.8,47.2z"/>
			<path fill="#0D0F12" d="M62.6,57.4c-1.2-0.3-1.3,1.4-0.6,2.2c0.8,0.8,1.9,0.5,1.6-0.7C63.4,58.3,63.2,57.6,62.6,57.4z"/>
			<path fill="#0D0F12" d="M59,57.4c1.2-0.2,1.2,1.5,0.3,2.2c-0.9,0.7-2,0.3-1.5-0.9C58.1,58.2,58.3,57.5,59,57.4z"/>
			<path fill="#252728" d="M58,58.8c0-0.1,0.1-0.1,0.2-0.2c0.1,0.2,0.6,0.2,0.8,0.2c0.2,0,0.5,0.1,0.3,0.3c-0.2,0.2-0.6,0.4-0.9,0.3
				C58,59.4,57.9,59.1,58,58.8z"/>
			<path fill="#E9E8E8" d="M63.1,46c0,0,0.4,0.2,0.9,0.5c0.7,0.5,1.4,1.6,2.4,2.8c-0.4,0.4-1.7,0.9-2.3,0.8
				c-0.2-0.7-0.8-1.2-0.8-1.2L63.1,46z"/>
			<path fill="#252728" d="M63.4,58.9c0-0.1-0.1-0.2-0.1-0.2c-0.2,0.2-0.6,0.1-0.8,0.1c-0.2,0-0.5,0-0.3,0.3
				c0.2,0.2,0.5,0.4,0.8,0.4C63.3,59.5,63.5,59.2,63.4,58.9z"/>
			<path opacity="0.2" fill="#A19E99" d="M58.5,46.6c0,0,0.3,0.8,1.2,1.7l1-0.8l0.9,0.9c0,0,0.8-0.5,1.1-1.5c0.3-1-2.5-0.9-3.2-0.5
				C58.9,46.7,58.5,46.6,58.5,46.6z"/>
			<path fill="#F5F5F5" d="M60.7,47.4L59.8,48c0,0-1.8-1-1.1-2.3c0.6-1.2,3.8-1.1,4.3,0.2c0.5,1.2-1.2,2.1-1.2,2.1L60.7,47.4z"/>
			<path fill="#F2B98E" d="M62.2,46.5c-0.2,0.2-0.5,0.4-0.8,0.5c-0.2,0.1-0.6,0.3-0.7,0.3c0,0-0.2-0.1-0.4-0.2
				c-0.3-0.2-0.7-0.4-0.9-0.7c-0.2-0.5-0.5-1.4,0-1.8c0.5-0.4,1.4-0.4,2-0.3c0.6,0.1,1,0.7,1,1.3C62.5,46,62.4,46.3,62.2,46.5z"/>
			<path fill="#1D1D27" d="M63.1,52.9l0-0.2c0,0,0,0,0,0c0,0,0,0,0,0l0-0.5c0,0-2.3,0.4-4.6,0l0.1,0.7c0.1,2.5-0.3,4.3-0.5,5.1
				c0.3,0.2,1,0.4,1.5,0.4c0.2,0,0.9-0.1,1.2-0.2c0-0.8-0.1-1.6-0.1-2.4c0-0.4,0-0.7,0-1c0.1-0.1,0.2-0.1,0.2,0.1
				c0.1,1,0.2,2,0.1,3.3c0.7,0.1,1.4,0.4,2.1,0.1c0.2-0.1,0.4-0.2,0.5-0.2C63.2,57,63.1,54,63.1,52.9z"/>
			<path fill="#0D0F12" d="M63.1,52.3c0,0-2.2,0.4-4.6,0l0.1,0.6c0,0,1.8,0.6,4.5,0L63.1,52.3z"/>
			<path fill="#3D3C40" d="M60.1,53.1c0-0.2,0-0.4,0-0.6c0.5,0,0.9,0,1.3,0c0,0.2,0,0.4,0,0.6C60.9,53.1,60.4,53.1,60.1,53.1z"/>
			<path fill="#FBCBA0" d="M64.2,52.2c-0.2,0.1,0,0.5-0.3,0.7c-0.3,0.2,0.3,0,0.3,0.3c0.1,0.3-1.2,0.7-1.4-0.2
				c-0.2-1.2,0.7-1.4,1.6-1.5C65.4,51.4,64.2,52.2,64.2,52.2z"/>
			<g>
				<path fill="#F3A76E" d="M62,46.7c-0.2,0.2-0.5,0.4-0.8,0.4c-0.2,0.1-0.6,0.3-0.7,0.3c0,0-0.2-0.1-0.4-0.2
					c-0.3-0.2-0.7-0.4-0.9-0.7c-0.2-0.5-0.5-1.4,0-1.8c0.5-0.4,1.4-0.4,2-0.3c0.6,0.1,1,0.7,1,1.3C62.3,46.2,62.2,46.5,62,46.7z"/>
				<g>
					<path fill="#2C231D" d="M56.3,35.2c0.2-0.6,0.5-1.1,0.8-1.4c1.5-1.7,4.1-1.9,6.9-0.6c-0.3,0-0.8,0.1-1.5-0.1
						c1.5,0.7,3.3,1.6,3.7,3.4c1,4.4-2.7,2.4-3.9,2.7c-1.4,0.4-4.9-0.1-5.8-1.5C56.1,37.1,56,36.1,56.3,35.2z"/>
					<path fill="#FBCBA0" d="M65.2,41.8c-0.3,2.4-2.2,5-4.9,4.8c-2.8-0.2-4.2-3.7-3.9-6.6c0.4-3.2,1.9-5.8,5.2-5.2
						C64,35.2,65.7,38.6,65.2,41.8z"/>
					<path opacity="0.3" fill="#BF3D1C" d="M63.4,37.4c0.3,0.2,1.2,0.6,1.7-0.1c0.2-0.3,0.1-0.8-0.1-1.2c-0.2-0.5-0.7-0.7-1.1-0.9
						c-0.8-0.3-1.7-0.3-2.5-0.3c-1,0-1.9,0.2-2.8,0.4c-0.6,0.2-1.7,0.3-1.9,1c-0.3,0.9,0.7,1,1.3,1C59.4,37.3,62.7,37.1,63.4,37.4z"
						/>
					<path fill="#FBCBA0" d="M65.8,42.8c-0.3,0.1-0.6,0.1-0.9,0.1c0,0,0,0,0,0c-0.1-0.2,0.1-1.4,0.1-1.7c0.2-0.6,0.5-0.9,1.1-0.7
						C67.2,40.8,66.7,42.5,65.8,42.8z"/>
					<path opacity="0.3" fill="#C94817" d="M65.3,42.4c-0.4-0.3,0-1.2,0.3-1.3c0.3-0.1,0.9,0.1,0.6,0.6c-0.2-0.5-0.4-0.2-0.4,0.2
						c0,0.2,0.3,0.2,0,0.5C65.7,42.5,65.5,42.5,65.3,42.4z"/>
					<path fill="#2C231D" d="M57.9,33.9c1.8-0.9,4.5-0.7,6,0.4c1,0.8,1.6,1.7,1.5,2.9c0,0.7-1,0.8-1.4,0.3c-0.3-0.4-0.8-0.5-1.3-0.6
						c-0.9,0-4.4-0.2-5.2,0.1c-0.5,0.2-1,0.4-1.1-0.3c-0.1-0.8,0.1-1.6,0.6-2.2C57.3,34.3,57.6,34,57.9,33.9z"/>
					<path fill="#45362E" d="M56.7,36.3c0-0.3,0-0.8,0.1-1.1c0.1-0.4,0.4-0.8,0.7-1.1c0.7-0.6,1.6-1.1,2.5-1.2c0.5,0,1.4,0,1.9,0.2
						c-0.2,0.1-0.5,0.2-0.7,0.3c0.7,0.2,1.3,0.3,1.9,0.6c0.2,0.1,1.7,1.1,1.7,1.1c-0.4,0.2-0.9,0.1-1.4,0c-0.7-0.2-1.4-0.2-2.1-0.1
						c-0.7,0.2-1.3,0.5-1.9,0.6c0-0.3,0.3-0.6,0.4-0.8c-0.4,0-1.8,0.9-2.1,1.2c0.1-0.3,0.4-0.8,0.5-1.1C57.8,35.2,57,35.9,56.7,36.3
						z"/>
					<path fill="#2C231D" d="M64.3,37.7c0.3,1.5,0.5,2.2,0.3,3.5c0,0,0.7-0.7,1.2-0.8c0-0.1,0.1-1,0.1-1.8
						C65.9,37.9,64.8,37.7,64.3,37.7z"/>
				</g>
				<g>
					<path fill="#F49E75" d="M56.9,41.3c0,0.1-0.1,0.1-0.1,0.2c-0.2,0.6,1.3,0.4,1.5,0.1c0.3-0.5-0.2-0.7-0.5-0.7
						C57.5,41,57.1,41.1,56.9,41.3z"/>
					<path fill="#F49E75" d="M62.4,41.3c0,0-0.1,0.1-0.1,0.2c-0.3,0.6,1.2,0.8,1.5,0.5c0.5-0.5,0-0.7-0.4-0.8
						C63.1,41.1,62.6,41,62.4,41.3z"/>
					<g>
						<path fill="#281C19" d="M62.9,40.9c0.2-0.1,0.4-0.1,0.6-0.1c0.4-0.4,0-1.4-0.6-1.2C62.5,39.9,62.5,40.7,62.9,40.9z"/>
					</g>
					<path opacity="0.3" fill="#B64E26" d="M59.3,41.6c0.2-0.2,0.4,0,0.8,0c0.4,0,0.5-0.2,0.7,0c0.2,0.1-0.1,0.6-0.7,0.6
						C59.5,42.2,59.2,41.8,59.3,41.6z"/>
					<path fill="#FDDEC3" d="M60.2,40.3c0.7-0.1,0.7,1.3,0.6,1.5c-0.4,0.3-1.2,0.1-1.4-0.2C59.3,41.5,59.5,40.4,60.2,40.3z"/>
					<g>
						<path fill="#281C19" d="M57.1,39.7c-0.3,0.2-0.3,0.9-0.1,1.2c0.2-0.1,0.5-0.1,0.6,0C58.2,40.5,57.7,39.3,57.1,39.7z"/>
					</g>
					<path opacity="0.7" fill="#E7D3C4" d="M63.2,40c-0.2-0.1-0.4,0.3-0.2,0.4C63.3,40.5,63.5,40.1,63.2,40z"/>
					<path opacity="0.7" fill="#E7D3C4" d="M57.4,39.9c-0.2,0-0.3,0.3-0.1,0.4C57.6,40.4,57.7,39.9,57.4,39.9z"/>
					<path fill="#2C231D" d="M62.4,38.4c-0.2,0-0.5,0.3-0.4,0.7c0.1,0.3,0.6,0.2,1.3,0.2c0.7,0,0.9,0.1,1-0.1c0-0.2,0-0.5-0.6-0.7
						C63.2,38.3,62.8,38.3,62.4,38.4z"/>
					<path fill="#2C231D" d="M58.1,38.4c0.2,0,0.5,0.3,0.3,0.7c-0.1,0.3-0.6,0.1-1.3,0.1c-0.7,0-1,0.1-1-0.1c0-0.2,0-0.5,0.7-0.7
						C57.3,38.3,57.7,38.3,58.1,38.4z"/>
					<path fill="#2C231D" d="M58.3,42.2c-0.2,0.2-0.8,0.8-1.3,0.3c-0.2-0.2-0.6-1.2-0.5-2.4c-0.6,0.4-0.6,1.6-0.5,2.3
						c0.1,0.3,0.2,0.6,0.2,0.8c0,0.4-0.4,0.8-0.4,1.3c-0.1,0.5-0.1,1.2,0.5,1.3c-0.1,0.6,0.1,1,0.8,0.9c-0.2,0.8,0.6,1.3,1.2,0.8
						c-0.1,0.9,1.8,0.5,2.1,0.1c0.1,0.4,0.7,0.4,1,0.4c0.4-0.1,0.7-0.4,0.8-0.8c0.2,0.3,0.8,0.3,1.1,0.1c0.4-0.2,0.3-0.7,0.3-1.1
						c0.7,0.2,0.8-0.6,0.7-1.1c0.5-0.1,0.5-1,0.5-1.4c0-0.5,0.4-3.1-0.1-3.3c-0.5-0.1-0.4,0.5-0.4,0.8c-0.3,1.8-1.6,2.1-2.2,1.4
						c-0.7-0.9-1.2-0.6-2.2-0.6C59.3,42,58.9,41.8,58.3,42.2z"/>
					<path fill="#F6B47B" d="M58.2,43.7c0.1-0.3,0.7-0.4,0.8-0.6c0.1,0.3,0.7,0.1,0.9,0c0.2,0.2,0.8,0.3,1.1,0.1
						c0,0.2,0.6,0.4,0.7,0.6C61.2,44.6,58.5,44.3,58.2,43.7z"/>
					<path fill="#BF795C" d="M61,43.5c-0.3-0.1-1.6-0.2-1.9-0.1C59.8,43.7,61,43.5,61,43.5z"/>
					<path opacity="0.5" fill="#45362E" d="M57.3,45.4c-0.1,0.2-0.2,0.6-0.1,0.7c0.2,0.4,0.9,0.1,1.2,0c-0.1,0.2-0.4,0.5-0.2,0.7
						c0.3,0.3,0.8-0.4,1.1-0.2c0.2,0.1,0,0.5,0.3,0.6c0.4,0.2,0.7-0.4,1-0.5c0.2,0.3,0.5,0.4,0.8,0.4c0.5-0.1,0.4-0.3,0.5-0.7
						c0.4,0.4,1,0.6,1.1-0.1c0.5,0.6,0.5-0.7,0.3-1.1c-0.2-0.2-0.4-0.5-0.6-0.7c-0.4-0.3-0.5-0.2-1-0.1c-0.7,0.2-1.6,0.3-2.4,0.2
						c-0.9-0.1-1.6-0.8-2.2,0c-0.1,0.1-0.4,0.4-0.3,0.7C56.8,45.4,57.3,45.6,57.3,45.4z"/>
				</g>
				<g>
					<path opacity="0.1" fill="#010101" d="M58.8,41.6c0.1-0.1,0.2-0.2,0.3-0.4c0.2-0.3,0.2-0.6,0-0.9c-0.2-0.4-0.6-0.4-1-0.5
						c-0.5,0-1,0-1.4-0.1c-0.1,0,0-0.4,0-0.4c0.1-0.1,0.1-0.2,0.3-0.3c0.4-0.1,0.9,0,1.2,0.1c0.4,0.1,0.8,0.1,1.1,0.3
						c0.3,0.2,0.4,0.3,0.8,0.2c0.7,0,1.2-0.5,1.9-0.6c0.7-0.1,1.4-0.2,2.1,0c0.2,0,0.7,0.2,0.4,0.4c-0.3,0.2-0.9,0.1-1.3,0.2
						c-0.2,0-0.4,0-0.5,0c-0.6,0.1-1.6,0-1.5,0.8c0,0.5,0.4,1.1,0.9,1.2c0.4,0.1,0.9,0.1,1.3,0.1c0.3,0,0.6-0.1,0.9-0.2
						c0.1,0,0.3-0.2,0.4-0.1c0.1,0.2-0.4,0.5-0.5,0.6c-0.3,0.1-0.6,0.2-1,0.2c-0.8,0.1-1.7,0.1-2.2-0.7c-0.3-0.4-0.4-0.9-0.7-1.4
						c-0.4-0.7-0.6,0.3-0.7,0.7c-0.1,0.2-0.2,0.5-0.3,0.7c-0.3,0.4-0.8,0.6-1.2,0.6c-0.3,0-1.2,0.2-1.5-0.3c-0.1-0.1,0.4,0,0.6-0.1
						c0.1,0,0.3,0,0.4,0c0.2,0,0.3,0,0.5-0.1C58.4,41.8,58.6,41.7,58.8,41.6z"/>
					<g>
						<path fill="#3A3A4A" d="M66,39c-0.1-0.1-0.6,0-1.1,0c-0.8-0.1-4.7-0.4-4.4,1.2c0.1,0.7,0.4,1.4,1.1,1.8
							c0.6,0.3,2.5,0.2,3.1-0.3c0.7-0.6,0.7-1.6,0.8-1.9c0.3,0,0.4-0.1,0.4-0.1S66.1,39.2,66,39z M64.5,41.3
							c-0.5,0.6-2.3,0.7-3.1,0.2c-0.5-0.4-0.9-1.5-0.6-1.7c0.6-0.4,3.2-0.5,3.9-0.1C65,39.9,64.9,40.9,64.5,41.3z"/>
					</g>
					<g>
						<path fill="#3A3A4A" d="M54.9,39.6c0,0,0.2,0.1,0.4,0.1c0,0.4,0.1,1.4,0.7,2c0.5,0.5,2.3,0.6,2.8,0.3c0.6-0.4,0.9-1.1,1-1.7
							c0.2-1.7-3.3-1.3-4-1.3c-0.5,0-0.9-0.1-1,0C54.6,39.2,54.9,39.6,54.9,39.6z M55.8,39.8c0.6-0.4,3-0.3,3.5,0.1
							c0.3,0.2,0,1.3-0.5,1.7c-0.6,0.5-2.3,0.3-2.8-0.3C55.7,40.9,55.6,39.9,55.8,39.8z"/>
					</g>
					<path opacity="0.3" fill="#FFFFFF" d="M58.8,39.7c-0.4-0.2-2.6-0.2-2.9,0c-0.2,0.2,0.5,0.4,0.8,0.4c0.6,0.1,1.2,0.1,1.7,0
						C58.5,40.1,59.2,39.9,58.8,39.7z"/>
					<path fill="#FFFFFF" d="M57.1,39.8c-0.4,0-1.2,0.1-1.1,0.2c0.1,0.1,1.3,0.2,1.4,0C57.5,39.8,57.3,39.8,57.1,39.8z"/>
					<path opacity="0.7" fill="#FFFFFF" d="M58.5,41.2c-0.3,0-0.7,0.2-0.7,0.3c0.1,0.1,0.8,0,0.9-0.2C58.7,41.2,58.6,41.1,58.5,41.2
						z"/>
					<path opacity="0.7" fill="#FFFFFF" d="M64.1,41.2c-0.3,0-0.8,0.2-0.7,0.3c0.1,0.1,0.9-0.1,0.9-0.2
						C64.4,41.2,64.3,41.1,64.1,41.2z"/>
					<path opacity="0.3" fill="#FFFFFF" d="M64.4,39.7c-0.2-0.2-2.7-0.1-3.2,0c-0.4,0.1,0.3,0.4,0.4,0.4c0.6,0.1,1.2,0.1,1.8,0
						C63.8,40.1,64.5,39.9,64.4,39.7z"/>
					<path fill="#FFFFFF" d="M62.3,39.6c-0.5,0-1.3,0.1-1.2,0.2c0.1,0.1,1.4,0.1,1.5-0.1C62.6,39.7,62.5,39.7,62.3,39.6z"/>
					<path fill="#3A3A4A" d="M61,39.3c-0.7,0.2-1.2,0.2-1.7,0c-0.5-0.1,0,0.3,0.1,0.4c0.1,0.1,0.2,1.3,0.4,0.9
						c0.2-0.5,0.6-0.5,0.8,0c0.2,0.5,0.1-0.4,0.1-0.7C60.7,39.6,61.5,39.1,61,39.3z"/>
					<path fill="#C2C6CA" d="M61,39.5c0.6-0.5,1.6-0.5,3.6-0.3C63.1,39.2,61.9,39.2,61,39.5z"/>
					<path fill="#C2C6CA" d="M59.1,39.5c-0.5-0.4-1.3-0.4-3.1-0.3C57.2,39.2,58.3,39.1,59.1,39.5z"/>
				</g>
			</g>
		</g>
		<g>
			<g>
				<polygon fill="#8E6969" points="49.3,62.8 58.2,67.9 79.4,55.6 70.5,50.5 				"/>
				<polygon fill="#513939" points="58.2,82.3 79.4,70 79.4,55.6 58.2,67.9 				"/>
				<polygon fill="#3D2929" points="49.3,77.1 58.3,82.3 58.3,67.9 49.3,62.8 				"/>
				<polygon fill="#F9DD89" points="58.2,82.3 79.4,70 79.4,66.7 58.2,79 				"/>
				<polygon fill="#EAC363" points="49.3,77.1 58.3,82.3 58.3,78.9 49.3,73.7 				"/>
				<polygon fill="#775555" points="58.2,69 79.4,56.7 79.4,55.6 58.2,67.9 				"/>
				<polygon fill="#664848" points="49.3,63.8 58.3,69 58.3,67.9 49.3,62.8 				"/>
			</g>
			<g>
				<g>
					<g>
						<path fill="#EFD3D3" d="M65.2,60.8l-4.4-2.5c-0.1-0.1-0.3-0.1-0.4,0l-2.6,1.5c-0.1,0.1-0.1,0.2,0,0.2l4.4,2.5
							c0.1,0.1,0.3,0.1,0.4,0l2.6-1.5C65.3,61,65.3,60.9,65.2,60.8z"/>
						<rect x="57.7" y="59.6" fill="#EFD3D3" width="0.3" height="0.3"/>
						<rect x="65" y="60.7" fill="#EFD3D3" width="0.3" height="0.3"/>
						<path fill="#FFFFFF" d="M65.2,60.6L60.8,58c-0.1-0.1-0.3-0.1-0.4,0l-2.6,1.5c-0.1,0.1-0.1,0.2,0,0.2l4.4,2.5
							c0.1,0.1,0.3,0.1,0.4,0l2.6-1.5C65.3,60.7,65.3,60.6,65.2,60.6z"/>
						<polygon fill="#D14A4A" points="58.1,59.7 62.3,62.1 64.8,60.6 60.7,58.2 						"/>
						<path fill="#513939" d="M59.2,58.9C59.2,58.9,59.2,58.9,59.2,58.9c0,0.1,0.1,0.1,0.1,0.1c0,0,0,0,0-0.1
							C59.3,58.8,59.2,58.8,59.2,58.9z"/>
						<path fill="#EFD3D3" d="M63.6,61.4c-0.1,0.1-0.2,0.1-0.1,0.2c0.1,0,0.2,0,0.3-0.1c0.1-0.1,0.2-0.1,0.1-0.2
							C63.8,61.3,63.7,61.3,63.6,61.4z"/>
						<path fill="#FFFFFF" d="M63.6,61.4c-0.1,0.1-0.1,0.1-0.1,0.1c0,0,0.1,0,0.2-0.1c0.1-0.1,0.1-0.1,0.1-0.1
							C63.8,61.3,63.7,61.4,63.6,61.4z"/>
					</g>
				</g>
			</g>
			<g>
				<g>
					<g>
						<path fill="#EFD3D3" d="M70.4,57.7l-4.4-2.5c-0.1-0.1-0.3-0.1-0.4,0L63,56.7c-0.1,0.1-0.1,0.2,0,0.2l4.4,2.5
							c0.1,0.1,0.3,0.1,0.4,0l2.6-1.5C70.6,57.9,70.6,57.7,70.4,57.7z"/>
						<rect x="63" y="56.5" fill="#EFD3D3" width="0.3" height="0.3"/>
						<rect x="70.2" y="57.5" fill="#EFD3D3" width="0.3" height="0.3"/>
						<path fill="#FFFFFF" d="M70.4,57.4l-4.4-2.5c-0.1-0.1-0.3-0.1-0.4,0L63,56.4c-0.1,0.1-0.1,0.2,0,0.2l4.4,2.5
							c0.1,0.1,0.3,0.1,0.4,0l2.6-1.5C70.6,57.6,70.6,57.5,70.4,57.4z"/>
						<polygon fill="#54BEC6" points="63.4,56.6 67.5,59 70.1,57.5 66,55.1 						"/>
						<path fill="#513939" d="M64.5,55.7C64.5,55.7,64.5,55.8,64.5,55.7c0,0.1,0.1,0.1,0.1,0.1c0,0,0,0,0-0.1
							C64.6,55.7,64.5,55.7,64.5,55.7z"/>
						<path fill="#EFD3D3" d="M68.9,58.2c-0.1,0.1-0.2,0.1-0.1,0.2c0.1,0,0.2,0,0.3-0.1s0.2-0.1,0.1-0.2
							C69.1,58.2,69,58.2,68.9,58.2z"/>
						<path fill="#FFFFFF" d="M68.9,58.3c-0.1,0.1-0.1,0.1-0.1,0.1c0,0,0.1,0,0.2-0.1c0.1-0.1,0.1-0.1,0.1-0.1
							C69.1,58.2,69,58.2,68.9,58.3z"/>
					</g>
				</g>
			</g>
			<g>
				<g>
					<g>
						<path fill="#EFD3D3" d="M75.3,54.9l-4.4-2.5c-0.1-0.1-0.3-0.1-0.4,0l-2.6,1.5c-0.1,0.1-0.1,0.2,0,0.2l4.4,2.5
							c0.1,0.1,0.3,0.1,0.4,0l2.6-1.5C75.4,55.1,75.4,55,75.3,54.9z"/>
						<rect x="67.8" y="53.7" fill="#EFD3D3" width="0.3" height="0.3"/>
						<rect x="75.1" y="54.8" fill="#EFD3D3" width="0.3" height="0.3"/>
						<path fill="#FFFFFF" d="M75.3,54.6l-4.4-2.5c-0.1-0.1-0.3-0.1-0.4,0l-2.6,1.5c-0.1,0.1-0.1,0.2,0,0.2l4.4,2.5
							c0.1,0.1,0.3,0.1,0.4,0l2.6-1.5C75.4,54.8,75.4,54.7,75.3,54.6z"/>
						<polygon fill="#F9DD89" points="68.3,53.8 72.4,56.2 75,54.7 70.8,52.3 						"/>
						<path fill="#513939" d="M69.3,52.9C69.3,53,69.3,53,69.3,52.9c0,0.1,0.1,0.1,0.1,0.1c0,0,0,0,0-0.1
							C69.4,52.9,69.4,52.9,69.3,52.9z"/>
						<path fill="#EFD3D3" d="M73.7,55.5c-0.1,0.1-0.2,0.1-0.1,0.2c0.1,0,0.2,0,0.3-0.1s0.2-0.1,0.1-0.2
							C74,55.4,73.8,55.4,73.7,55.5z"/>
						<path fill="#FFFFFF" d="M73.8,55.5c-0.1,0.1-0.1,0.1-0.1,0.1c0,0,0.1,0,0.2-0.1c0.1-0.1,0.1-0.1,0.1-0.1S73.8,55.4,73.8,55.5z
							"/>
					</g>
				</g>
			</g>
			<g>
				<g>
					<g>
						<path fill="#EFD3D3" d="M59.5,64.1l-4.4-2.5c-0.1-0.1-0.3-0.1-0.4,0l-2.6,1.5c-0.1,0.1-0.1,0.2,0,0.2l4.4,2.5
							c0.1,0.1,0.3,0.1,0.4,0l2.6-1.5C59.7,64.3,59.7,64.2,59.5,64.1z"/>
						<rect x="52.1" y="62.9" fill="#EFD3D3" width="0.3" height="0.3"/>
						<rect x="59.3" y="64" fill="#EFD3D3" width="0.3" height="0.3"/>
						<path fill="#FFFFFF" d="M59.5,63.8l-4.4-2.5c-0.1-0.1-0.3-0.1-0.4,0l-2.6,1.5c-0.1,0.1-0.1,0.2,0,0.2l4.4,2.5
							c0.1,0.1,0.3,0.1,0.4,0l2.6-1.5C59.7,64,59.7,63.9,59.5,63.8z"/>
						<polygon fill="#513939" points="52.5,63 56.6,65.4 59.2,63.9 55.1,61.5 						"/>
						<path fill="#513939" d="M53.6,62.1C53.6,62.2,53.6,62.2,53.6,62.1c0,0.1,0.1,0.1,0.1,0.1c0,0,0,0,0-0.1
							C53.7,62.1,53.6,62.1,53.6,62.1z"/>
						<path fill="#EFD3D3" d="M58,64.7c-0.1,0.1-0.2,0.1-0.1,0.2c0.1,0,0.2,0,0.3-0.1c0.1-0.1,0.2-0.1,0.1-0.2
							C58.2,64.6,58.1,64.6,58,64.7z"/>
						<path fill="#FFFFFF" d="M58,64.7c-0.1,0.1-0.1,0.1-0.1,0.1c0,0,0.1,0,0.2-0.1c0.1-0.1,0.1-0.1,0.1-0.1
							C58.2,64.6,58.1,64.6,58,64.7z"/>
					</g>
				</g>
			</g>
		</g>
		<g>
			<g>
				<polygon fill="#F9DD89" points="36.7,82.8 41.6,85.6 50.7,80.4 45.8,77.5 				"/>
				<polygon fill="#EAC363" points="36.7,83.7 41.6,86.6 41.6,85.6 36.7,82.8 				"/>
				<polygon fill="#DBB052" points="41.6,86.6 50.7,81.3 50.7,80.4 41.6,85.6 				"/>
			</g>
			<g>
				<polygon fill="#D14A4A" points="41.3,83.6 47.6,80 47.6,53.2 41.3,56.8 				"/>
				<g>
					<path fill="#FFFFFF" d="M41.8,82.6l5.4-3.1V54.2l-5.4,3.1V82.6z M42,57.4l5-2.9v24.8l-5,2.9V57.4z"/>
				</g>
				<polygon fill="#C13E3E" points="40.2,83 41.3,83.6 41.3,56.8 40.2,56.2 				"/>
				<polygon fill="#E05555" points="40.2,56.2 41.3,56.8 47.6,53.2 46.5,52.6 				"/>
				<path fill="#FFFFFF" d="M44.5,56.7C44.5,56.7,44.5,56.7,44.5,56.7c-0.7,0.4-1.3,1.5-1.3,2.5c0,1,0.6,1.4,1.3,1
					c0.7-0.4,1.3-1.5,1.3-2.5v0C45.8,56.8,45.2,56.3,44.5,56.7z"/>
				<path fill="#513939" d="M44.5,57.6C44.5,57.6,44.5,57.6,44.5,57.6c-0.4,0.2-0.7,0.8-0.7,1.2c0,0.5,0.3,0.7,0.6,0.5
					c0.4-0.2,0.6-0.8,0.6-1.2C45.1,57.6,44.8,57.4,44.5,57.6z"/>
				<polygon fill="#513939" points="42.7,63 46.4,60.8 46.4,60.2 42.7,62.3 				"/>
				<polygon fill="#513939" points="42.7,64.4 46.4,62.3 46.4,61.7 42.7,63.8 				"/>
				<polygon fill="#513939" points="42.7,80.7 46.4,78.5 46.4,77.9 42.7,80 				"/>
				<polygon fill="#FFFFFF" points="42.7,79.3 46.4,77.1 46.4,63.4 42.7,65.5 				"/>
			</g>
		</g>
	</g>
</g>
</svg>
