<?xml version="1.0" encoding="utf-8"?>
<!-- Generator: Adobe Illustrator 18.1.1, SVG Export Plug-In . SVG Version: 6.00 Build 0)  -->
<svg version="1.1" xmlns="http://www.w3.org/2000/svg" xmlns:xlink="http://www.w3.org/1999/xlink" x="0px" y="0px"
	 viewBox="0 0 100 100" enable-background="new 0 0 100 100" xml:space="preserve">
<g id="Capa_1">
</g>
<g id="Capa_2">
	<g>
		<defs>
			<filter id="Adobe_OpacityMaskFilter" filterUnits="userSpaceOnUse" x="30.7" y="89.5" width="38.5" height="4.9">
				<feColorMatrix  type="matrix" values="1 0 0 0 0  0 1 0 0 0  0 0 1 0 0  0 0 0 1 0"/>
			</filter>
		</defs>
		<mask maskUnits="userSpaceOnUse" x="30.7" y="89.5" width="38.5" height="4.9" id="SVGID_1_">
			<g filter="url(#Adobe_OpacityMaskFilter)">
				<defs>
					<filter id="Adobe_OpacityMaskFilter_1_" filterUnits="userSpaceOnUse" x="29.5" y="88.9" width="40.9" height="6.1">
						<feFlood  style="flood-color:white;flood-opacity:1" result="back"/>
						<feBlend  in="SourceGraphic" in2="back" mode="normal"/>
					</filter>
				</defs>
				<mask maskUnits="userSpaceOnUse" x="29.5" y="88.9" width="40.9" height="6.1" id="SVGID_1_">
					<g filter="url(#Adobe_OpacityMaskFilter_1_)">
					</g>
				</mask>
				
					<radialGradient id="SVGID_2_" cx="-3269.198" cy="62489.2148" r="15.3525" gradientTransform="matrix(1.2017 0 0 0.1624 3978.571 -10056.3096)" gradientUnits="userSpaceOnUse">
					<stop  offset="0" style="stop-color:#FFFFFF"/>
					<stop  offset="7.362918e-002" style="stop-color:#E1E1E1"/>
					<stop  offset="0.2544" style="stop-color:#9E9E9E"/>
					<stop  offset="0.4259" style="stop-color:#666666"/>
					<stop  offset="0.5834" style="stop-color:#3A3A3A"/>
					<stop  offset="0.724" style="stop-color:#1B1B1B"/>
					<stop  offset="0.8425" style="stop-color:#080808"/>
					<stop  offset="0.9247" style="stop-color:#010101"/>
				</radialGradient>
				<path mask="url(#SVGID_1_)" fill="url(#SVGID_2_)" d="M70.4,91.9c0,1.7-9.2,3.1-20.4,3.1c-11.3,0-20.4-1.4-20.4-3.1
					c0-1.7,9.2-3.1,20.4-3.1C61.3,88.9,70.4,90.2,70.4,91.9z"/>
			</g>
		</mask>
		
			<radialGradient id="SVGID_3_" cx="-3388.1719" cy="62606.5547" r="16.224" gradientTransform="matrix(1.1502 0 0 0.1329 3947.0515 -8228.4746)" gradientUnits="userSpaceOnUse">
			<stop  offset="0" style="stop-color:#010101"/>
			<stop  offset="0.9247" style="stop-color:#010101"/>
		</radialGradient>
		<path opacity="0.2" fill="url(#SVGID_3_)" d="M69.2,91.9c0,1.4-8.6,2.5-19.2,2.5c-10.6,0-19.2-1.1-19.2-2.5
			c0-1.4,8.6-2.5,19.2-2.5C60.6,89.5,69.2,90.6,69.2,91.9z"/>
		<path fill="#F8B881" d="M25.2,49.1c1.2-0.6,2.9,0,3.5,1.5c1.4,3.6,3.2,3.1,3,5c0,0.7-0.4,1.4-0.1,2c0.3,0.5,0.5,1.1,0.4,1.7
			c-0.1,0.7-0.8,1-1.4,0.9c-0.6,0-1-0.2-1.3-0.7c-0.5-0.7-1.3-1-2.1-1.4c-0.6-0.3-1.1-0.8-1.5-1.3c-0.9-1.2-1.6-2.7-1.9-4.2
			c-0.1-0.7-0.2-1.4,0.1-2C24.2,49.8,24.6,49.3,25.2,49.1z"/>
		<g>
			<g>
				<path fill="#75B955" d="M22.7,57.5c-2.5-1.1-4.8-3.2-5.9-4.2c-0.6-0.6-0.3-0.8,0.1-1.6l0,0c2.7-5,5.8-12.9,5.8-12.9
					c1.6,1.9,11.8,5.8,11.8,5.8c-5.5,8.1-6.9,14.7-6.9,14.7C25.8,58.7,24.2,58.1,22.7,57.5z"/>
			</g>
			<path fill="#347430" d="M16.6,52.9c0.2,0.2,0.7,0.2,1.5-0.7c0,0,0.9,3.3,4.6,5.3C20.3,56.4,17.2,54.5,16.6,52.9z"/>
			<g opacity="0.3">
				<path fill="#347430" d="M29.7,47.5c-0.5,1.1-1.1,2.6-1.9,4.2c0,0,0.6,0.3,0.6,0.3c0,0,0,0,0,0c0.3-0.7,0.7-1.4,1-2
					c0.4-0.8,0.7-1.6,1-2.3C30.2,47.7,29.7,47.5,29.7,47.5z"/>
				<path fill="#347430" d="M26.7,53.8c-0.4,0.7-0.8,1.5-1.3,2.2c0,0,0.1,0.2,0.3,0.3c0.1,0.1,0.3-0.1,0.4-0.1
					c0.5-0.6,0.9-1.3,1.2-1.9C27.1,54,26.7,53.8,26.7,53.8z"/>
				<path fill="#347430" d="M27.1,53c0.2,0,0.6,0.3,0.6,0.4c0.1-0.2,0.2-0.4,0.3-0.6c-0.2-0.1-0.5-0.3-0.6-0.3
					C27.3,52.6,27.2,52.8,27.1,53z"/>
				<path fill="#347430" d="M30.5,45.7c0,0-0.1,0-0.1,0.1c-0.1,0.3-0.2,0.6-0.4,1c0.2,0,0.6,0.3,0.6,0.3c0.2-0.5,0.3-0.9,0.4-1.1
					c0,0-0.1-0.1-0.1-0.1c0,0-0.1-0.1-0.1-0.1C30.7,45.6,30.6,45.6,30.5,45.7z"/>
			</g>
			<g opacity="0.3">
				<path fill="#347430" d="M23.3,43.7c-0.5,1.1-1.1,2.6-1.9,4.2c0,0,0.6,0.3,0.6,0.3c0,0,0,0,0,0c0.3-0.7,0.7-1.4,1-2
					c0.4-0.8,0.7-1.6,1-2.3C23.8,44,23.3,43.7,23.3,43.7z"/>
				<path fill="#347430" d="M20.3,50c-0.4,0.7-0.8,1.5-1.3,2.2c0,0,0.1,0.2,0.3,0.3c0.1,0.1,0.3-0.1,0.4-0.1
					c0.5-0.6,0.9-1.3,1.2-1.9C20.7,50.3,20.3,50,20.3,50z"/>
				<path fill="#347430" d="M20.7,49.3c0.2,0,0.6,0.3,0.6,0.4c0.1-0.2,0.2-0.4,0.3-0.6c-0.2-0.1-0.5-0.3-0.6-0.3
					C20.9,48.9,20.8,49.1,20.7,49.3z"/>
				<path fill="#347430" d="M24.1,41.9c0,0-0.1,0-0.1,0.1c-0.1,0.3-0.2,0.6-0.4,1c0.2,0,0.6,0.3,0.6,0.3c0.2-0.5,0.3-0.9,0.4-1.1
					c0,0-0.1-0.1-0.1-0.1c0,0-0.1-0.1-0.1-0.1C24.3,41.9,24.2,41.8,24.1,41.9z"/>
			</g>
			<path opacity="0.3" fill="#347430" d="M32.7,44.4c0,0.1-2.8,7.3-6.5,13.3c0,0.1,0,0.1,0,0.2c0.1,0,0.1,0,0.2,0
				c1.6-2.6,2.9-5.3,4-7.7c1.5-3.2,2.4-5.6,2.4-5.7c0-0.1,0-0.1-0.1-0.2C32.8,44.3,32.7,44.3,32.7,44.4z"/>
			<path opacity="0.3" fill="#347430" d="M23,40.6c0,0.1-2.5,6.5-5.8,12c0,0.1,0,0.1,0,0.2c0,0,0.1,0,0.1,0c1.4-2.3,2.6-4.8,3.6-6.9
				c1.3-2.9,2.2-5.1,2.2-5.1c0-0.1,0-0.1-0.1-0.1C23.1,40.5,23,40.5,23,40.6z"/>
			<path opacity="0.47" fill="#347430" d="M26.5,52.7c-0.1,0.2-0.3,0.9-0.6,0.8c0,0-0.1-0.1-0.2-0.1c0,0-0.1,0.1,0,0.1
				c0.1,0.1,0.1,0.1,0.2,0.1c0,0,0,0.1,0.1,0.1c0.2,0.3-0.2,0.4-0.3,0.4c0,0,0,0.1,0,0.1c0,0.1,0,0.2,0,0.3c0,0,0-0.1,0-0.1
				c0,0,0,0,0,0c0,0.1-0.1,0.1-0.1,0.2c-0.1-0.2-0.4-0.1-0.5,0.1c-0.2,0.2-0.2,0.4-0.2,0.7c0,0.1,0,0.3,0,0.4c0-0.1-0.1-0.2-0.2-0.3
				c0,0-0.1,0-0.1,0c0,0.2-0.1,0.6,0.2,0.7c0,0,0,0,0,0c0.1,0.5,0.1,1-0.2,0.9c-0.1-0.1-0.2-0.2-0.3-0.4c0.1-0.4,0.1-0.9,0-1.3
				c-0.1-0.4-0.2-0.9-0.5-1.2c-0.3-0.2-0.3,0.2-0.3,0.3c0,0.3,0.1,0.6,0.2,0.9c0.1,0.4,0.3,0.8,0.5,1.2c0,0,0,0,0,0c0,0,0,0,0,0.1
				c0,0.1,0,0.1,0,0.1c0,0,0,0,0,0c0.1,0.2,0.3,0.4,0.5,0.4c0.3,0,0.2-0.6,0.2-0.7c0-0.1,0-0.3-0.1-0.5c0-0.1,0-0.2,0-0.4
				c0.1,0.2,0.1,0.3,0.3,0.4c0,0,0.1,0,0.1-0.1c0-0.3-0.1-0.6-0.3-0.8c0,0,0,0,0,0c0,0,0-0.1,0-0.1c0-0.2,0.3-0.5,0.5-0.2
				c0,0,0,0,0,0c0,0.2,0,0.4,0,0.6c0,0.1,0.1,0,0.1,0c0-0.2,0.1-0.4,0-0.6c0,0,0-0.1,0.1-0.1c0,0.1,0,0.1,0,0.2c0,0.1,0.1,0,0.1,0
				c0-0.1,0-0.2,0-0.3c0-0.1,0-0.2,0.2-0.2c0.1,0,0.2-0.1,0.3-0.2c0-0.1,0-0.2,0-0.4C26.3,53.5,26.5,52.9,26.5,52.7
				C26.6,52.7,26.5,52.6,26.5,52.7z M24.1,56.4c-0.1-0.3-0.3-0.6-0.4-0.9c-0.1-0.3-0.2-0.5-0.2-0.8c0-0.1,0-0.2,0-0.3
				c0-0.1,0-0.3,0.1-0.3c0.1,0,0.1,0.1,0.2,0.1c0.2,0.3,0.3,0.6,0.4,0.9c0.1,0.4,0.2,0.9,0.1,1.3C24.1,56.5,24.1,56.4,24.1,56.4z
				 M24.5,55.5c0.1,0.1,0.1,0.3,0.2,0.5c0,0,0,0,0,0C24.5,55.9,24.5,55.7,24.5,55.5z M24.8,55.2C24.8,55.1,24.8,55.1,24.8,55.2
				c0.1,0.2,0.2,0.3,0.2,0.6C24.9,55.6,24.8,55.4,24.8,55.2z M25.4,55c0-0.1,0-0.1,0-0.2c0,0,0-0.1,0-0.1
				C25.4,54.8,25.4,54.9,25.4,55z"/>
			<path opacity="0.47" fill="#347430" d="M27,51.8h-3.3c-0.6,0-1.1-0.5-1.1-1.1v-3.3c0-0.6,0.5-1.1,1.1-1.1H27
				c0.6,0,1.1,0.5,1.1,1.1v3.3C28.1,51.4,27.6,51.8,27,51.8z"/>
			<g>
				<path fill="#75B955" d="M27.3,48.4c-0.1,0.1-0.2,0.1-0.3,0.1l-0.5,0.4L26.2,49L26,48.9c0,0,0-0.2-0.4-0.4c0.1-0.1,0-0.2-0.1-0.2
					c-0.1-0.1-0.3-0.2-0.3-0.1L24.9,48c-0.4-0.4-0.7-0.2-0.7-0.2c-0.1,0.1-0.2,0.1-0.3,0.2c-0.3,0.3-0.4,0.7-0.2,1
					c0.2,0.3,0.4,0.3,0.7,0.4l0.1,0c-0.1,0.1,0.2,0.2,0.3,0.2c0.1,0,0.2,0.1,0.2-0.1c0.4,0.2,0.6,0.1,0.6,0.1l0.2,0.2l0.1,0.3l0,0.6
					c0,0.1,0,0.2,0.1,0.3c0,0,1,1.3,1.2,1l1.7-3.3C28.9,48.5,27.3,48.4,27.3,48.4z M27.6,50.1L27.6,50.1l0.2,0.3c0,0,0,0,0,0
					s0,0,0,0l-0.4,0l0,0l-1.1-0.8l-0.6,0.2c0,0-0.1-0.1-0.2-0.1c0.1,0,0.3-0.1,0.3-0.3c0.1-0.1,0.1-0.3,0-0.5c0,0,0.2,0.1,0.3,0.1
					l0.1,0.5L27.6,50.1z"/>
			</g>
		</g>
		<path fill="#F8B881" d="M29.2,51.3c-1,1.1-0.6,3.4,0.4,4.5c0.5,0.6,1.3,1,1.9,0.3c0.7-0.9-0.4-2.2-0.3-3.1c0-0.6,0.6-1.8,0.2-2.3
			C30.8,49.9,29.7,50.8,29.2,51.3z"/>
		<path fill="#1E1E29" d="M43.1,53.8c-0.3,2.8-0.4,5.6-1.9,8.1c-2,3.3-9.3,5.3-13.1-2.2c1.1-1.3,2.7-2.2,4.1-3.2
			c-0.1,0,1.4,4.9,4.1,1.8c1-1.1,0.7-2.9,0.7-4.3c0-0.7-0.1-1.5,0-2.2c0-0.9,0.3-2.2,1.2-2.7c1.3-0.7,4.1-2.4,4.1-2.4L43.1,53.8z"/>
		<path fill="#E9E8E8" d="M57.8,47.2c2.9,2.4,3.7,5.4-0.7,9.6c-4.4,4.3-7.4,4.8-7.4,4.8s-9.6-9.1-7.9-13.3
			C43.9,43.3,54.9,44.8,57.8,47.2z"/>
		<path fill="#E62A2A" d="M50.5,50.8c-2.1-0.4-2.9,1.3-2.9,1.3l0.9,2l-2.2,5.8l2.7,5.9l3.7-5.6l-1.7-5.8l1.6-1.6
			C52.7,52.8,52.5,51.2,50.5,50.8z"/>
		<path fill="#0D0F12" d="M56.2,85.5c-3.8-1.1-4.4,4.6-1.9,7.2c2.6,2.7,6.3,1.7,5.2-2.3C58.9,88.4,58.2,86,56.2,85.5z"/>
		<path fill="#0D0F12" d="M44.4,85.4c3.9-0.7,3.9,5,1.1,7.4c-2.8,2.4-6.5,1-4.9-2.8C41.4,88,42.3,85.8,44.4,85.4z"/>
		<path fill="#252728" d="M41.1,90c0.1-0.3,0.3-0.5,0.5-0.7c0.5,0.6,1.9,0.5,2.6,0.6c0.7,0.1,1.7,0.2,0.8,1
			c-0.7,0.7-1.9,1.2-2.9,1.1C41.1,91.9,40.8,90.9,41.1,90z"/>
		<path fill="#1D1D27" d="M58.9,65.6c0.1,2.8,0.2,5.5,0.3,8.3c0.1,4.1-0.6,9.8,0.8,13.7c-0.6,0.3-1.2,0.6-1.8,0.8
			c-2.4,0.9-4.8,0-7.2-0.4c0.7-7.1-0.9-14.4-1-21.6C49.8,64.7,58.8,63.2,58.9,65.6z"/>
		<path fill="#1D1D27" d="M50.1,67.7c-0.6,3.7-0.3,7.7-0.3,11.4c0,2.7,0.1,6.1,0.3,8.8c-0.8,0.3-3.4,0.8-4,0.8
			c-1.8,0-4.2-0.6-5.3-1.3c0.8-2.7,1.4-7.8,1.7-12c0.2-3-0.7-7.1,0.1-10C43.1,63.2,50.6,64,50.1,67.7z"/>
		<path fill="#121219" d="M59.1,73v2.9c0,0-3.5-0.5-8.4,0.8c0,0-0.1-0.6-0.2-0.9c-0.1-0.3-0.7-0.3-0.7,0.1c0,0.5,0,0.7,0,0.7
			s-2.6-2.1-7.4-0.9l0-2.9l7.8-2.3L59.1,73z"/>
		<g>
			<path fill="#1E1E29" d="M39.6,59.4c-0.7-4-2.8-7.6,0.3-10.8c0.7-0.7,1.5-1.3,2.4-1.7c-0.1,0.3-0.2,0.6-0.1,1
				c0.6,6.4,7.4,12.9,7.4,12.9s10-8.6,8.3-12.9c-0.1-0.4-0.3-0.7-0.5-1c2.3,1,4.5,2.5,5.1,4.6c0.7,2.4-1,7.6-1.4,11
				c-0.2,2.2-0.4,8.6,0.1,10.9c-1.5,0.7-8.2,1.8-9.8,0.9c-1.3-0.7-2-2.2-2.1-2.6c0,4.1-9.8,2.3-9.7,2C40.1,71.2,40.3,63.2,39.6,59.4
				z"/>
		</g>
		<path fill="#121219" d="M49.4,62.2c0,0,0.7,1.8-0.2,4.9C49.2,67.1,49.4,64.8,49.4,62.2z"/>
		<path fill="#F8B881" d="M64.2,66.4c-0.5,0.2,0,1.5-1,2.3c-1,0.8,0.9-0.1,1.2,0.9c0.3,1-3.7,2.7-4.6-0.4c-0.8-3.1,1.3-4.5,4.7-4.6
			C67.8,64.5,64.2,66.4,64.2,66.4z"/>
		<path fill="#1E1E29" d="M57.8,47c0,0,4.8,2.5,5.7,3c3.4,1.7,8.3,4.7,8.2,9.9c-0.1,6.5-7.1,9-7.1,9l-2.1-4.2c0,0,4-0.9,3.7-5
			c-0.2-3.1-6.6-4.8-6.6-4.8L57.8,47z"/>
		<circle fill="#121219" cx="50.1" cy="67.7" r="0.6"/>
		<circle fill="#121219" cx="50.4" cy="61.7" r="0.6"/>
		<path fill="#252728" d="M58.9,90.4c-0.1-0.3-0.2-0.5-0.4-0.7c-0.5,0.5-2,0.3-2.7,0.3c-0.7,0-1.8,0-0.9,0.9
			c0.7,0.7,1.8,1.4,2.8,1.4C58.8,92.3,59.2,91.3,58.9,90.4z"/>
		<path fill="#121219" d="M49.3,71.6l-0.2-3.5c0,0,0.1,4.1-0.5,5.1C48.6,73.3,49.1,73.2,49.3,71.6z"/>
		<path fill="#121219" d="M43.2,46c0,0-4,2.5-5.6,5.5l3.9,1.3c0,0-2.1,3.1-2.3,3.6c-0.1,0.3,3.3,0.9,5.8,2.3
			c2.2,1.3,4.3,2.8,4.3,2.8s0.4-0.5,0.1-1C49.2,60.1,42.3,53.9,43.2,46z"/>
		<path fill="#313243" d="M43.2,46c0,0-3.1,1.9-4.7,4.9l3.4,1.9c0,0-1.8,2.6-1.9,3.1c-0.1,0.3,2.8,1.3,5.3,2.7
			c2.2,1.3,4.1,3.1,4.1,3.1s0.4-0.5,0.1-1C49.2,60.1,42.3,53.9,43.2,46z"/>
		<path fill="#121219" d="M57.2,46.6c0,0,4.3,2.3,5.6,5.6l-4.3,0.9c0,0,1.7,3.9,1.8,4.4c0,0.3-3.5-0.3-7.3,1.7c-2,1-3.4,2.3-3.4,2.3
			s-0.3-0.5,0-1.1C49.9,60,57.2,55.2,57.2,46.6z"/>
		<path fill="#313243" d="M57.2,46.6c0,0,3.4,1.6,4.7,4.9l-4,1.5c0,0,1.7,3.3,1.8,3.8c0,0.3-3,0.2-6.8,2.2c-2,1-3.3,2.6-3.3,2.6
			s-0.3-0.5,0-1.1C49.9,60,57.2,55.2,57.2,46.6z"/>
		<path opacity="0.2" fill="#A19E99" d="M42.8,49.1c0,0,0.9,2.7,4,5.5l3.3-2.8l3.1,2.9c0,0,2.7-1.6,3.7-4.9c1-3.3-8.1-3-10.4-1.8
			C44.2,49.2,42.8,49.1,42.8,49.1z"/>
		<path fill="#F5F5F5" d="M50,51.8L47,53.7c0,0-6.1-3.2-3.8-7.7c2.1-4.1,12.4-3.7,14.1,0.8c1.5,3.9-4,7-4,7L50,51.8z"/>
		<path fill="#EF9E6D" d="M54.9,48.8c-0.6,0.6-1.6,1.2-2.6,1.5c-0.7,0.2-2,1.1-2.2,1.1c-0.1,0-0.5-0.4-1.2-0.7c-1-0.5-2.4-1.2-3-2.3
			c-0.8-1.6-1.5-4.7,0-5.9c1.6-1.3,4.6-1.5,6.5-1.1c2,0.4,3.3,2.3,3.4,4.2C55.9,47.1,55.7,47.9,54.9,48.8z"/>
		<g>
			<g>
				<path fill="#4F2C1E" d="M38,24.9c0.2-4.9,0.9-6.6,0.9-8.6C38.8,7.9,46.1,2.5,57.8,4.7c20.4,3.8,14,32,8.2,30.1
					c-4.2-1.4-8.4-3-12.6-4.6c-3.9-1.4-8.4-1.1-12.5-1.3C37.7,28.8,37.9,27.5,38,24.9z"/>
				<path fill="#F8B881" d="M65.6,34.4c-1.8,7.5-8.6,15.3-17.4,13.7c-9-1.6-12.3-13.3-10.1-22.6c2.3-10.1,8.1-18.1,18.5-14.9
					C63.8,12.9,68,24.4,65.6,34.4z"/>
				<path fill="#F8B881" d="M67,37.9c-1,0.2-2,0.2-3,0c0,0,0-0.1,0-0.1c-0.4-0.8,0.8-4.3,1.1-5c0.8-1.8,1.8-3,3.6-2.4
					C72.2,31.9,70.2,37.1,67,37.9z"/>
				<path opacity="0.5" fill="#D99F7C" d="M39.2,21.3c1-2.9,3.8-1.7,7.4-1c5.6,1.2,12.2,2,16.7,0.6c-0.4,2.9,1.8,4.2,2.5,7.1
					c0.4,1.6,1.1-5.5,1.2-6.4c0.1-2.5,0.4-5.8-1.4-7.8c-2.2-2.5-6.7-2.8-9.7-3c-4.5-0.4-8.6,0.1-12.9,1.3
					C39.9,12.9,39,18.6,39.2,21.3z"/>
				<path opacity="0.35" fill="#B5441A" d="M65.7,36.4c-1.3-1,0.3-3.7,1.4-4.1c0.9-0.3,2.9,0.6,1.7,2.1c-0.4-1.6-1.4-0.7-1.4,0.4
					c0,0.7,0.8,0.8-0.1,1.7C67,37,66.1,36.7,65.7,36.4z"/>
				<path fill="#4F2C1E" d="M41.5,17.6c11.5,3.8,21.2,3,22.6,2c-0.5,2.4,0.3,3.7,0.7,5.6c0.7,3.3-0.2,6.7-1.7,7.8
					c0.7,0.3,1.6,0.4,2,0.2c0.6-0.6,1.8-2.6,2-4.2c0.3-1.9,7.6-17.2-6.9-23.4C49.7,1.1,40.9,8.8,36.5,4.4c-0.3,2.6-0.4,6.1,1.1,8.1
					c-1.2-0.3-1.9-0.5-2.9-0.7C35.7,13.8,37.7,16.4,41.5,17.6z"/>
				<path fill="#6A3B27" d="M37,5.4c0,0,1.7,9.6,14.8,11.2c14.4,1.8,18.4-1.7,14.7-6.5c-3.7-4.9-12-5.6-17.6-4.7
					C43.4,6.3,40.7,7.7,37,5.4z"/>
				<path fill="#4F2C1E" d="M65.1,27c-0.1,1-0.8,4.7-1.9,6c0.6,0.3,1.5,0.4,1.9,0.3c1-0.5,1.5-3.1,2.8-3C69,30.3,65.6,28.6,65.1,27z
					"/>
			</g>
			<g>
				<path opacity="0.5" fill="#B5441A" d="M57.9,30.5c-0.9-1,2.2-0.7,2.7-0.6c-0.1,0.6-1.5,0.2-1.9,0.2c0.3,0.4,1.4,0.5,1.8,0.8
					c0.4,0.3,0.4,0.5-0.2,0.4C60,31.4,58.1,30.7,57.9,30.5z"/>
				<path opacity="0.5" fill="#B5441A" d="M41.3,28.1c0.9-0.8-1.7-1.1-2.1-1c0,0.6,1.2,0.4,1.6,0.6c-0.3,0.4-1.2,0.3-1.6,0.5
					c-0.4,0.2-0.4,0.4,0.1,0.5C39.5,28.6,41.1,28.3,41.3,28.1z"/>
				<g>
					<path fill="#131C22" d="M56.6,30.8c0.6-0.2,1.3-0.2,1.9,0c1.4-1,0.6-4.6-1.5-3.9C55.6,27.4,55.4,30,56.6,30.8z"/>
				</g>
				<path opacity="0.35" fill="#B54817" d="M46.5,31.4c-0.4,0.3,0.2,1.8,1.9,2.1c1.7,0.3,2.8-1,2.2-1.5c-0.6-0.4-1.1-0.1-2.1-0.2
					C47.5,31.6,47,31,46.5,31.4z"/>
				<path fill="#FBCBA0" d="M46.5,31.5c-0.2-0.3,0.5-1.3,1.1-2.4c0.5-0.9,1.2-3,2.2-2.9c0.8,0.1,0.7,2.5,0.9,3.6
					c0.2,1.1,0.3,2.2-0.2,2.4C49.3,33,47.1,32.2,46.5,31.5z"/>
				<g>
					<path fill="#131C22" d="M41.5,25.1c-1.1,0.5-1.3,2.2-0.7,3.2c0.6,0,1.2,0.3,1.6,0.7C44.7,28.6,43.6,24.3,41.5,25.1z"/>
				</g>
				<path fill="#7E8CA9" d="M57.6,27.5c-0.7-0.3-1.2,0.7-0.7,1.2C57.6,29.3,58.4,27.8,57.6,27.5z"/>
				<path fill="#7E8CA9" d="M41.9,25.7c-0.7-0.2-1.1,0.8-0.6,1.2C42,27.4,42.6,26,41.9,25.7z"/>
				<path opacity="0.5" fill="#B5441A" d="M59.1,36.1c-0.7-0.5-2.6-0.6-2.6-0.6c-0.3,0.1,0.8,0.3,1.5,0.8c0.1,0,0.1,0.1,0.1,0.1
					c-5.4,1.2-14-0.2-17.8-1.8c0.1-0.1,0.2-0.2,0.3-0.2c0.8-0.1,1.5-0.2,1.2-0.3c0,0-2-0.6-2.4,0.1c-0.4,0.7,0,1.6,0.6,1.5
					c0.4,0,0.1-0.6,0.3-1c1,0.9,2.5,2.6,2.5,3.9c0,2.4,1.4,4.1,6.2,4.4c6.4,0.4,8.9-5,9.4-6.4c0.3,0.5,0.3,1.3,0.7,1.2
					C59.6,37.8,59.8,36.5,59.1,36.1z"/>
				<path fill="#4F2C1E" d="M39.7,24.2c-0.5,0.2-0.6-0.6-0.4-0.8c0.7-0.8,1.7-1.6,3.8-1.7c1.5,0,2.5-0.1,2.6-0.1
					c0,0.8-0.4,2.5-1.5,2.4c-0.7-0.1-1.3-0.3-2-0.3C41,23.8,40.2,24,39.7,24.2z"/>
				<path fill="#4F2C1E" d="M60.4,26.8c0.5,0.3,0.8-0.3,0.7-0.6c-0.5-1-1.1-2.1-3.3-2.8c-1.5-0.5-2.6-1-2.6-0.9
					c-0.3,0.8-0.6,2.5,0.6,2.8c0.7,0.2,1.5,0.2,2.2,0.4C59.2,26,60,26.5,60.4,26.8z"/>
				<path fill="#902824" d="M57.1,37.2c0,0-6.9,1.3-15.5-1.8c0,0,1.3,0.9,1.5,2.8c0.1,1.4,0.5,3.5,5.7,4.1
					C54.5,42.9,57.1,37.2,57.1,37.2z"/>
				<path fill="#FFF9F1" d="M55.2,37.7c0,0-0.2,1.9-2.1,2.5c-2.3,0.7-4.9,0.6-7.4-0.3c-1.7-0.6-2.5-3.6-2.5-3.6S48,37.6,55.2,37.7z"
					/>
				<path fill="#FFF9F1" d="M54.2,40.5c0.2-0.5,0.3-1-0.7-0.7c-1.2,0.4-3.3,0.5-5.8,0.3c-2.5-0.2-2.9-1.3-3.4-0.8
					c-0.5,0.5,1,3.1,5,3.1C53.8,42.4,54.2,40.5,54.2,40.5z"/>
				<path fill="#FBCBA0" d="M38.7,30.1c-0.2,0.1-0.3,0.3-0.4,0.5c-1,1.9,3.7,2.4,4.5,1.6c1.4-1.4,0-2.2-1.2-2.5
					C40.8,29.6,39.5,29.4,38.7,30.1z"/>
				<path fill="#FBCBA0" d="M56.2,32.1c-0.2,0.1-0.3,0.3-0.4,0.5c-1.2,2,3.8,2.6,4.7,1.9c1.6-1.4,0.1-2.3-1.1-2.6
					C58.4,31.6,57,31.4,56.2,32.1z"/>
				<path fill="#E8DAC5" d="M54.9,38.5c0,0-9.2-1.7-11.3-1.1c0,0-0.3-0.6-0.4-1.1c0,0,6.5,1.5,12,1.4C55.2,37.7,55.1,38.2,54.9,38.5
					z"/>
				<path fill="#E8DAC5" d="M53,39.7c0,0-3.5,0.8-8.1-0.6C44.9,39.2,49,41.3,53,39.7z"/>
			</g>
		</g>
	</g>
</g>
</svg>
