<?xml version="1.0" encoding="utf-8"?>
<!-- Generator: Adobe Illustrator 18.1.1, SVG Export Plug-In . SVG Version: 6.00 Build 0)  -->
<svg version="1.1" xmlns="http://www.w3.org/2000/svg" xmlns:xlink="http://www.w3.org/1999/xlink" x="0px" y="0px"
	 viewBox="0 0 100 100" enable-background="new 0 0 100 100" xml:space="preserve">
<g id="Capa_1">
</g>
<g id="Capa_2">
	<g>
		<g>
			<rect x="23.1" y="62.5" fill="#EBAA49" width="61.1" height="22.9"/>
			<rect x="23.3" y="66.5" fill="#EBAA49" width="60.6" height="18.9"/>
			<polygon fill="#D3ADAD" points="84,66.5 23.3,66.5 23.3,69.7 84,71.8 			"/>
			<rect x="23.1" y="62.8" fill="#FFD273" width="2.9" height="29.3"/>
			<rect x="81.3" y="62.8" fill="#FFD273" width="2.9" height="29.3"/>
			<polygon opacity="0.5" fill="#DE8E3E" points="84.2,63.3 23.1,63.3 23.1,64.7 84.2,65.7 			"/>
			<rect x="19.7" y="61.1" fill="#FFD273" width="67.9" height="2.2"/>
			<defs>
				<filter id="Adobe_OpacityMaskFilter" filterUnits="userSpaceOnUse" x="23.9" y="89.2" width="58.4" height="4.1">
					<feColorMatrix  type="matrix" values="1 0 0 0 0  0 1 0 0 0  0 0 1 0 0  0 0 0 1 0"/>
				</filter>
			</defs>
			<mask maskUnits="userSpaceOnUse" x="23.9" y="89.2" width="58.4" height="4.1" id="SVGID_1_">
				<g filter="url(#Adobe_OpacityMaskFilter)">
					<defs>
						<filter id="Adobe_OpacityMaskFilter_1_" filterUnits="userSpaceOnUse" x="22.1" y="88.7" width="62.1" height="5.1">
							<feFlood  style="flood-color:white;flood-opacity:1" result="back"/>
							<feBlend  in="SourceGraphic" in2="back" mode="normal"/>
						</filter>
					</defs>
					<mask maskUnits="userSpaceOnUse" x="22.1" y="88.7" width="62.1" height="5.1" id="SVGID_1_">
						<g filter="url(#Adobe_OpacityMaskFilter_1_)">
						</g>
					</mask>
					
						<radialGradient id="SVGID_2_" cx="-590.9943" cy="62015.7578" r="14.9552" gradientTransform="matrix(1.8727 0 0 0.1383 1159.8582 -8485.5186)" gradientUnits="userSpaceOnUse">
						<stop  offset="0" style="stop-color:#FFFFFF"/>
						<stop  offset="7.586616e-002" style="stop-color:#E0E0E0"/>
						<stop  offset="0.2561" style="stop-color:#9D9D9D"/>
						<stop  offset="0.4272" style="stop-color:#656565"/>
						<stop  offset="0.5843" style="stop-color:#393939"/>
						<stop  offset="0.7245" style="stop-color:#1A1A1A"/>
						<stop  offset="0.8428" style="stop-color:#070707"/>
						<stop  offset="0.9247" style="stop-color:#000000"/>
					</radialGradient>
					<ellipse mask="url(#SVGID_1_)" fill="url(#SVGID_2_)" cx="53.1" cy="91.3" rx="31" ry="2.5"/>
				</g>
			</mask>
			
				<radialGradient id="SVGID_3_" cx="-589.8657" cy="62017.5703" r="15.7906" gradientTransform="matrix(1.7924 0 0 0.1132 1110.3785 -6929.1284)" gradientUnits="userSpaceOnUse">
				<stop  offset="0" style="stop-color:#000000"/>
				<stop  offset="0.9247" style="stop-color:#000000"/>
			</radialGradient>
			<ellipse opacity="7.000000e-002" fill="url(#SVGID_3_)" cx="53.1" cy="91.3" rx="29.2" ry="2"/>
		</g>
		<g>
			<rect x="44.6" y="58.8" fill="#3B3B4A" width="24.8" height="2.3"/>
			<g>
				<path fill="#3B3B4A" d="M67.5,59h-1.9v-1h1.9V59z M65.1,59h-1.9v-1h1.9V59z M62.8,59h-1.9v-1h1.9V59z M60.4,59h-1.9v-1h1.9V59z
					 M58.1,59h-1.9v-1h1.9V59z M55.8,59h-1.9v-1h1.9V59z M53.4,59h-1.9v-1h1.9V59z M51.1,59h-1.9v-1h1.9V59z M48.7,59h-1.9v-1h1.9
					V59z"/>
			</g>
			<rect x="53.3" y="58.8" fill="#1C1C26" width="16.4" height="2.3"/>
		</g>
		<g>
			<rect x="27.7" y="82" fill="#1C1C26" width="3" height="5.2"/>
			<rect x="26.6" y="77.5" fill="#121219" width="5.2" height="5.2"/>
			<rect x="31.4" y="78.7" fill="#121219" width="1.5" height="3.1"/>
			<rect x="19.3" y="76.7" fill="#121219" width="19.9" height="1.4"/>
			<rect x="22.9" y="65.4" fill="#121219" width="5.2" height="8.1"/>
			<rect x="28.4" y="87.2" fill="#121219" width="1.7" height="3.1"/>
			<g>
				<rect x="27.7" y="90.3" fill="#121219" width="3" height="3.1"/>
			</g>
			<path fill="#121219" d="M17.4,74.5c0,1.4,1.1,2.5,2.5,2.5h18.6c1.4,0,2.5-1.1,2.5-2.5c0-1.4-1.1-2.5-2.5-2.5H19.9
				C18.5,72,17.4,73.1,17.4,74.5z"/>
			<path fill="#1C1C26" d="M12.5,63c0,3.1,2.5,5.6,5.6,5.6h12.7c3.1,0,5.6-2.5,5.6-5.6V50.2c0-3.1-2.5-5.6-5.6-5.6H18.1
				c-3.1,0-5.6,2.5-5.6,5.6V63z"/>
			<g>
				<polygon fill="#121219" points="30.7,87.2 37.9,89.4 37.9,90.4 29.3,89.4 29.3,87.2 				"/>
				<circle fill="#121219" cx="37.8" cy="91.7" r="1.7"/>
			</g>
			<g>
				<polygon fill="#121219" points="27.7,87.2 20.6,89.4 20.6,90.4 29.1,89.4 29.1,87.2 				"/>
				<circle fill="#121219" cx="20.7" cy="91.7" r="1.7"/>
			</g>
		</g>
		<g>
			<defs>
				<filter id="Adobe_OpacityMaskFilter_2_" filterUnits="userSpaceOnUse" x="13.7" y="88.5" width="37.5" height="4.8">
					<feColorMatrix  type="matrix" values="1 0 0 0 0  0 1 0 0 0  0 0 1 0 0  0 0 0 1 0"/>
				</filter>
			</defs>
			<mask maskUnits="userSpaceOnUse" x="13.7" y="88.5" width="37.5" height="4.8" id="SVGID_4_">
				<g filter="url(#Adobe_OpacityMaskFilter_2_)">
					<defs>
						<filter id="Adobe_OpacityMaskFilter_3_" filterUnits="userSpaceOnUse" x="12.6" y="87.9" width="39.8" height="6">
							<feFlood  style="flood-color:white;flood-opacity:1" result="back"/>
							<feBlend  in="SourceGraphic" in2="back" mode="normal"/>
						</filter>
					</defs>
					<mask maskUnits="userSpaceOnUse" x="12.6" y="87.9" width="39.8" height="6" id="SVGID_4_">
						<g filter="url(#Adobe_OpacityMaskFilter_3_)">
						</g>
					</mask>
					
						<radialGradient id="SVGID_5_" cx="-572.5532" cy="62482.8438" r="14.9565" gradientTransform="matrix(1.2017 0 0 0.1624 720.509 -10056.3096)" gradientUnits="userSpaceOnUse">
						<stop  offset="0" style="stop-color:#FFFFFF"/>
						<stop  offset="7.586616e-002" style="stop-color:#E0E0E0"/>
						<stop  offset="0.2561" style="stop-color:#9D9D9D"/>
						<stop  offset="0.4272" style="stop-color:#656565"/>
						<stop  offset="0.5843" style="stop-color:#393939"/>
						<stop  offset="0.7245" style="stop-color:#1A1A1A"/>
						<stop  offset="0.8428" style="stop-color:#070707"/>
						<stop  offset="0.9247" style="stop-color:#000000"/>
					</radialGradient>
					<ellipse mask="url(#SVGID_4_)" fill="url(#SVGID_5_)" cx="32.5" cy="90.9" rx="19.9" ry="3"/>
				</g>
			</mask>
			
				<radialGradient id="SVGID_6_" cx="-570.7846" cy="62598.7891" r="15.794" gradientTransform="matrix(1.1502 0 0 0.1329 688.9885 -8228.4746)" gradientUnits="userSpaceOnUse">
				<stop  offset="0" style="stop-color:#000000"/>
				<stop  offset="0.9247" style="stop-color:#000000"/>
			</radialGradient>
			<ellipse opacity="0.2" fill="url(#SVGID_6_)" cx="32.5" cy="90.9" rx="18.7" ry="2.4"/>
			<g>
				<path fill="#1E1E29" d="M21.9,70.2c0.8-3.1,1.7-4.3,7.6-4.3c0,0,0,0,0,0c0,0,0,0,0,0c7.3,0,6.8,1.3,7.6,4.3
					c0.9,3.5-4,5.6-6.2,3.9c-0.4-0.3-0.9-0.5-1.4-0.5c-0.5,0-1,0.2-1.4,0.5C24,77.2,21.1,73.4,21.9,70.2z"/>
				<path fill="#0D0F12" d="M25.1,84c3.2,1.7,0.2,5.6-3,5.7c-3.3,0.1-5.2-2.9-2.1-4.6C21.6,84.1,23.4,83.1,25.1,84z"/>
				<path fill="#252728" d="M19.5,86.1c0.1-0.2,0.3-0.4,0.5-0.6c0.4,0.5,1.8,0.5,2.4,0.5c0.7,0.1,1.6,0.2,0.8,0.9
					c-0.7,0.6-1.8,1-2.7,0.9C19.5,87.8,19.2,86.9,19.5,86.1z"/>
				<path fill="#1E1E29" d="M28.4,74c1.4-1.8-6.3-4.9-6.6-3.5c-0.9,4.1-3.6,3.1-2.2,14.3c2.1,1,6.1,1.5,7.6,0.3
					C24.7,79.3,25.9,77.1,28.4,74z"/>
				<path fill="#0D0F12" d="M38.7,87.1c-1.6,1.5,0.5,4.2,4.5,4.3c4.1,0.1,4.7-3.7,1.3-4.9C42.6,85.8,40.1,85.8,38.7,87.1z"/>
				<path fill="#252728" d="M45.5,87.4c-0.1-0.2-0.3-0.4-0.6-0.5c-0.3,0.5-1.7,0.8-2.3,0.9c-0.6,0.2-1.5,0.5-0.6,1
					c0.8,0.5,1.9,0.7,2.8,0.4C45.9,89,46,88.1,45.5,87.4z"/>
				<path fill="#1E1E29" d="M36.9,69.4c1,1.3,3.1,3.5,4.8,6.8c1.9,3.6,2,8.4,2.9,9.5c1.1,1.5-6.6,3.7-6.9,1.4
					c-0.5-3.7-0.5-5.7-1.7-7.9c-1.2-2.1-2.4-3.4-4.5-4.8C29.4,73,35.2,67.2,36.9,69.4z"/>
			</g>
			<path fill="#FFCB9E" d="M39.2,51.2c0,0,3.3,8.1,12.5,8.1c1,0-1.2,2.6-1.2,2.6c-10,0.6-12.9-7.7-12.9-7.7L39.2,51.2z"/>
			<path fill="#E8E8E8" d="M36,47.8l-3.4,4.4c0,0,4.5,6,6.8,8.3c2.3-0.2,5-2.2,5.4-4.1c-2.7-1.9-4-5.4-6.1-7
				C37.4,48.6,36,47.8,36,47.8z"/>
			<path fill="#E8E8E8" d="M22.6,48.6c-4,3.4,0.4,19.3,0.3,18.9l6.5,1.3l6.6-1.2c0.1-0.4,3.8-12.7,1.6-17.9
				C35.8,45.2,25.2,46.4,22.6,48.6z"/>
			<path fill="#313142" d="M29.3,52c1.9-0.4,2.6,1.2,2.6,1.2l-1.3,1.9l2,6.4l-2.7,3.9l-2.7-3.6l1.5-6.5l-1.4-1.4
				C27.3,53.8,27.6,52.3,29.3,52z"/>
			<path opacity="0.2" fill="#A09D98" d="M36.2,50.4c0,0-0.8,2.4-3.6,4.9l-2.9-2.5L27,55.4c0,0-2.4-1.5-3.3-4.4
				c-0.9-2.9,7.3-2.7,9.3-1.6C35,50.5,36.2,50.4,36.2,50.4z"/>
			<path fill="#F5F5F5" d="M29.7,52.8l2.8,1.7c0,0,5.5-2.8,3.4-6.9C34,44,24.8,44.3,23.2,48.3c-1.4,3.5,3.6,6.3,3.6,6.3L29.7,52.8z"
				/>
			<path fill="#F2B486" d="M25.4,50.1c0.5,0.5,1.4,1.1,2.3,1.3c0.6,0.2,1.8,1,2,1c0.1,0,0.5-0.3,1.1-0.6c0.9-0.5,2.2-1.1,2.7-2
				c0.7-1.4,1.4-4.2,0-5.3c-1.4-1.1-4.2-1.3-5.9-1c-1.8,0.4-2.9,2.1-3.1,3.8C24.4,48.6,24.6,49.4,25.4,50.1z"/>
			<path fill="#FFCB9E" d="M20.3,51.7c-3.9,3.8-9.5,10.4-1.3,18.8l3.4-1.2c-7.5-5.9-2.1-11.3-0.3-14.7L20.3,51.7z"/>
			<path fill="#FFCB9E" d="M19.3,70.9c1.1,1.6,3.4,4.3,3.3,2c0.3,0.6,1.9,1.6,1.4-0.2c0.2,0.4,1.4,1.4,1.5,0.9
				c0.3-1-1.5-3.2-2.2-3.9c-0.6-0.5-1.4-0.7-2.1-0.8c-0.7,0-1.3,0.1-2,0C18.4,69.1,18.6,69.9,19.3,70.9z"/>
			<path fill="#E8E8E8" d="M22.7,48.5c0,0-1.3,0.6-2.5,1.4c-2.1,1.4-4.2,4.7-7,8.4c1.1,1.2,5,2.5,6.9,2.3c0.5-2.1,2.2-3.6,2.2-3.6
				L22.7,48.5z"/>
			<g>
				<path fill="#0D0F12" d="M23,67.4c0,0,6.1,1.4,13.2,0l0.5,1.7c0,0-6.4,1.8-14.6-0.1L23,67.4z"/>
				<path fill="#3A3A40" d="M31.7,69.7c0-0.5,0-1-0.1-1.5c-1.4,0.1-2.6,0.1-3.8,0c0.1,0.5,0.1,1,0.1,1.5
					C29.4,69.8,30.6,69.8,31.7,69.7z"/>
			</g>
			<path fill="#FFCB9E" d="M50.7,62c1.9,0.5,4.3,0.8,3.2-0.6c0.6,0.3,2.7,0.6,1.5-0.4c0.5,0.3,1.5,0.5,1.7-0.1
				c0.2-0.5-3.4-2.6-4.7-2.1C50.8,59.4,48.4,61.4,50.7,62z"/>
			<g>
				<path fill="#4F3023" d="M46,13.5C44.6,10.9,42,9,38.8,8.3c-7.4-1.6-20-0.1-24.2,6.1c-1.2,1.8-1.8,3.9-1.3,6
					c0.6,2.2,2.2,3.7,4.6,2.9c1.3-0.4,2.1-0.3,3.4,0.2c1.3,0.4,2.6,1.2,4,1.5c2.4,0.6,4.8,0.2,7.2,0.9c2.2,0.7,4.2,0.8,6.5,0
					c2-0.7,4.3-1.1,4.5-3.6c0.5,0.6,0.5,1.6,0.4,2.3c1.3-0.9,2.4-2.6,2.7-3.4C47.5,18.4,47.2,15.7,46,13.5z"/>
				<path fill="#FFCB9E" d="M42.6,29c-1.6-9.5-6.5-17.3-16.4-15c-7,1.7-11.6,12.1-9.9,21.6c1.3,7.1,7.2,14.8,15.5,13.8
					C40.3,48.5,44.1,37.7,42.6,29z"/>
				<path opacity="0.3" fill="#BF3C1B" d="M21.2,22.3c-1,0.6-3.6,2-5-0.1c-0.7-1-0.3-2.5,0.1-3.7c0.4-1.4,2-2.3,3.3-2.9
					c2.3-1.1,5.1-1.1,7.6-1.2c2.9-0.1,5.7,0.2,8.5,0.9c1.8,0.4,5.3,0.8,6,2.8c0.9,2.6-1.9,3-3.8,3.1C33.3,21.4,23.3,21.1,21.2,22.3z
					"/>
				<path fill="#FFCB9E" d="M14.8,38.8c0.9,0.3,1.9,0.3,2.8,0.2c0,0,0-0.1,0.1-0.1c0.4-0.7-0.4-4.4-0.6-5.1
					c-0.6-1.7-1.7-2.6-3.4-2.1C10.3,32.8,11.9,37.9,14.8,38.8z"/>
				<path opacity="0.3" fill="#C94614" d="M16.1,37.5c1.2-0.9-0.1-3.5-1.1-3.9c-0.8-0.3-2.7,0.4-1.7,1.9c0.4-1.4,1.3-0.5,1.2,0.5
					c-0.1,0.7-0.8,0.7,0,1.6C14.9,37.9,15.7,37.7,16.1,37.5z"/>
				<path fill="#4F3023" d="M37.4,10.5c-1.7-0.7-3.7-0.9-5.4-0.9c-1.4,0.1-2.9-0.2-4.3-0.1c-1.6,0.1-3.1,0.3-4.7,0.7
					c-1.8,0.4-3.7,0.9-5.3,1.9c-1.4,0.8-1.9,2.7-2.5,4.1c-0.3,0.6-0.2,1.5-0.2,2.1c0,1.2,0,2.4,0.1,3.6c0.2,2.1,3,2.3,4.1,0.7
					c1-1.3,2.4-1.7,4-1.9c2.7-0.2,13.2-1.2,15.7-0.4c1.4,0.4,3.2,1,3.4-1.1c0.1-1.2-0.4-2.7-0.9-3.8c-0.5-1.4-1.2-2.7-2.3-3.7
					C38.6,11.1,38,10.8,37.4,10.5z"/>
				<path fill="#693A27" d="M16,18.8c-0.5-1.7,0.3-5.1,3.4-6.7c3-1.6,6-2.6,9.4-2.9c3.9-0.4,8.7-0.4,12.3,1.4
					c2.8,1.4,4.5,4.1,4.9,7.1c-2.1-0.5-4.8-0.2-7-0.2c0.7-0.8,1.6-1,2.5-1.6c-2.8,0.1-5.7,0.7-8.4,0.7c0.7-1,2-1.3,2.8-2.1
					c-2.8-0.1-5.6,1.6-8.3,2.1c-0.1-0.9,1.1-1.7,1.6-2.4c-1.6,0-7.7,3.1-8.9,3.9c0.3-0.8,1.7-2.5,1.8-3.3C20.5,15,17.1,16.9,16,18.8
					z"/>
				<path fill="#BF795C" d="M18.7,23.1c-0.6,4.5-1.1,6.7-0.4,10.7c0,0-2.1-2.2-3.8-2.3c-0.3-0.6-0.9-7.5,0-9.1
					C16,22.8,17.1,23.2,18.7,23.1z"/>
			</g>
			<g>
				<path fill="#FFA073" d="M42.3,33.3c0.1,0.1,0.2,0.3,0.3,0.5c0.6,1.9-3.9,1.5-4.4,0.6c-1-1.6,0.4-2,1.5-2
					C40.5,32.4,41.7,32.5,42.3,33.3z"/>
				<path fill="#FFA073" d="M23.9,33.7c0.2,0.1,0.3,0.3,0.4,0.5c1.1,1.8-3.6,2.5-4.3,1.8c-1.5-1.3-0.1-2.1,1-2.5
					C21.9,33.3,23.1,33.1,23.9,33.7z"/>
				<g>
					<path fill="#224245" d="M23.2,32.7c-0.6-0.2-1.2-0.3-1.8-0.1c-1.3-1-0.3-4.3,1.6-3.6C24.3,29.6,24.4,32,23.2,32.7z"/>
				</g>
				<path opacity="0.3" fill="#B54D26" d="M34.2,34.4c-0.5-0.5-1.1,0.1-2.3,0.2c-1.1,0.1-1.5-0.4-2.2,0.1c-0.7,0.5,0.4,1.9,2.3,1.7
					C33.8,36.2,34.6,34.8,34.2,34.4z"/>
				<path fill="#FFDFC2" d="M31.4,30.5c-2-0.1-2,4.2-1.5,4.5c1.2,0.8,3.5,0.1,4.1-0.6C34.3,34.1,33.4,30.6,31.4,30.5z"/>
				<g>
					<path fill="#224245" d="M40.6,28.2c1,0.6,1.1,2.6,0.4,3.5c-0.5-0.2-1.5-0.3-1.9,0.1C37.4,30.8,38.7,27.1,40.6,28.2z"/>
				</g>
				<path opacity="0.7" fill="#D4E6DD" d="M22.1,29.9c0.7-0.3,1.1,0.7,0.6,1.1C22,31.6,21.4,30.2,22.1,29.9z"/>
				<path opacity="0.7" fill="#D4E6DD" d="M39.6,28.8c0.6-0.2,0.9,0.8,0.4,1.2C39.3,30.4,38.9,29,39.6,28.8z"/>
				<g opacity="0.5">
					<path fill="#94110C" d="M24.1,36.7c1.1,1.9-1.3,3-2.4,1.1C22.6,38.2,23.7,37.7,24.1,36.7z"/>
					<path fill="#94110C" d="M38,35.8c-0.5,2.1,2.3,2.6,2.7,0.6C39.9,36.9,38.7,36.7,38,35.8z"/>
					<g>
						<path fill="#94110C" d="M31.1,43c-3.7,0-6.7-1.8-8.1-4.4c-0.1-0.3,0-0.6,0.3-0.7c0.3-0.1,0.6,0,0.8,0.3
							c1.2,2.2,3.9,3.8,7.2,3.7c3.4-0.1,6.3-2.1,7.2-4.8c0.1-0.3,0.4-0.4,0.7-0.3c0.3,0.1,0.5,0.4,0.4,0.7c-1,3.2-4.2,5.4-8.2,5.6
							C31.3,43,31.2,43,31.1,43z"/>
					</g>
				</g>
				<path fill="#2B221C" d="M27.2,25.1c0.8,0.1,1.2,0.7,0.8,1.5c-0.3,0.7-2.1,0.2-4.4,0.1c-2.5-0.1-4.1,0.1-4.3-0.4
					c-0.2-0.5,1.3-1.2,3.5-1.4C24.4,24.8,25.8,24.9,27.2,25.1z"/>
				<path fill="#2B221C" d="M35.7,24.7c-0.7,0.2-1.1,0.8-0.7,1.6c0.3,0.6,1.8,0.1,3.9-0.1c2.2-0.2,3.7-0.1,3.8-0.6
					c0.1-0.5-1.2-1.1-3.2-1.2C38.2,24.3,37,24.4,35.7,24.7z"/>
			</g>
			<g>
				<path opacity="0.3" fill="#B54D26" d="M35.8,33.7c-0.4-0.3-0.7-0.6-1-1c-0.5-0.8-0.6-1.9-0.2-2.8c0.4-1.3,1.8-1.4,3-1.5
					c1.4-0.1,2.8-0.1,4.2-0.3c0.6-0.1,1.2,0,1.9,0c0.8,0,2.5-0.3,1.5-1.4c-0.9-1.1-2.7-1.1-4-1c-1.3,0.1-2.6,0.3-3.9,0.7
					c-1.1,0.3-2.4,0.5-3.4,1c-0.9,0.5-1.3,0.8-2.4,0.8c-2,0-3.7-1.3-5.7-1.4c-2.1-0.2-4.2-0.4-6.3,0.2c-0.5,0.2-2.1,0.8-1,1.4
					c1.1,0.5,2.7,0.3,3.8,0.4c0.5,0,1.1,0,1.6,0.1c1.9,0.1,4.9-0.2,4.7,2.2c-0.1,1.6-1.1,3.3-2.4,3.7c-1.3,0.3-2.6,0.5-3.9,0.5
					c-1,0-1.9-0.2-2.9-0.6c-0.3-0.1-1-0.6-1.3-0.2c-0.4,0.6,1.2,1.5,1.6,1.7c0.9,0.4,1.9,0.5,2.9,0.6c2.5,0.2,5.1,0,6.4-2.3
					c0.8-1.3,1.2-2.9,1.9-4.3c1.2-2.3,1.8,0.8,2.3,2.1c0.2,0.7,0.6,1.5,1,2.1c0.8,1.1,2.4,1.7,3.7,1.7c0.8,0,1.7,0,2.4-0.4
					c0.5-0.2,0.6-0.7,0.1-0.9c-0.3-0.1-0.9,0-1.2,0c-0.5,0-1,0-1.5-0.1C37,34.3,36.3,34.1,35.8,33.7z"/>
				<g>
					<path fill="#3A3A4A" d="M14.3,28.8c0,0,0.6,0.3,1.3,0.3c0.2,1.1,0.4,4.1,2.6,5.8c1.9,1.4,7.6,1.4,9.3,0.4
						c2.1-1.3,2.9-3.4,3.1-5.5c0.6-5-11.1-3.4-13.4-3.1c-1.6,0.2-3.1-0.2-3.4,0.2C13.3,27.4,14.3,28.8,14.3,28.8z M17.3,29
						c2-1.4,9.8-1.5,11.7-0.3c0.9,0.6,0,4-1.5,5.2c-2.1,1.6-7.7,1.3-9.2-0.3C17,32.3,16.6,29.5,17.3,29z"/>
				</g>
				<g>
					<path fill="#3A3A4A" d="M47.5,25.4c-0.4-0.3-1.6,0.2-3.1,0.1c-2.1,0-12.8-0.6-11.8,4.3c0.4,2,1.2,4.1,3.3,5.1
						c1.6,0.9,6.8,0.3,8.3-1.2c1.9-1.9,1.8-4.8,1.9-6c0.7-0.1,1.2-0.5,1.2-0.5S48,25.8,47.5,25.4z M44,32.5
						c-1.3,1.8-6.3,2.6-8.3,1.2c-1.5-1-2.6-4.4-1.8-5.1c1.6-1.4,8.7-2,10.6-0.8C45.1,28.2,45,31.1,44,32.5z"/>
				</g>
				<path opacity="0.3" fill="#FFFFFF" d="M35.3,28.2c1.3-0.5,7.9-1,8.7-0.3c0.5,0.5-1.4,1.3-2.3,1.4c-1.7,0.3-3.5,0.4-5,0.1
					C36.3,29.3,34.2,28.6,35.3,28.2z"/>
				<path fill="#FFD273" d="M40.5,28c1.3-0.2,3.7,0,3.4,0.4c-0.3,0.4-4,0.7-4.3,0.1C39.5,28.2,39.9,28,40.5,28z"/>
				<path opacity="0.7" fill="#FFFFFF" d="M36.6,32.4c0.8,0,2.3,0.5,2.1,0.8c-0.2,0.3-2.5,0-2.7-0.5C35.9,32.4,36.2,32.4,36.6,32.4z
					"/>
				<path opacity="0.7" fill="#FFFFFF" d="M19.5,33.1c0.9,0.1,2.3,0.6,2.1,0.9c-0.2,0.3-2.6-0.1-2.8-0.6
					C18.8,33.1,19.1,33.1,19.5,33.1z"/>
				<path opacity="0.3" fill="#FFFFFF" d="M18.6,28.8c0.7-0.7,8-0.7,9.5-0.3c1.4,0.4-0.8,1.1-1.3,1.2c-1.7,0.4-3.6,0.4-5.5,0.3
					C20.3,29.9,18.1,29.3,18.6,28.8z"/>
				<path fill="#FFD273" d="M24.9,28.3c1.4-0.2,3.9,0.1,3.6,0.5c-0.3,0.4-4.2,0.6-4.5,0C23.8,28.5,24.3,28.4,24.9,28.3z"/>
				<path fill="#3A3A4A" d="M28.8,27.1c2.1,0.5,3.6,0.3,5.3-0.2c1.6-0.5,0,0.8-0.3,1.2c-0.3,0.3-0.3,4-1,2.6
					c-0.7-1.4-1.8-1.3-2.3,0.2c-0.5,1.5-0.3-1.2-0.5-2C29.7,28,27.2,26.6,28.8,27.1z"/>
				<path fill="#C1C5C9" d="M28.7,27.7c-1.9-1.3-4.9-1.4-10.8-0.6C22.4,27,26,26.9,28.7,27.7z"/>
				<path fill="#C1C5C9" d="M34.6,27.3c1.5-1.4,4-1.3,9.4-1.4C40,26.4,37,26.3,34.6,27.3z"/>
			</g>
		</g>
		<g>
			<g>
				<rect x="66.3" y="42.5" fill="#3B3B4A" width="9.1" height="17.5"/>
				<rect x="65.4" y="42.9" fill="#121219" width="9.1" height="17.1"/>
				<rect x="59.4" y="58.7" fill="#3B3B4A" width="17.9" height="2.4"/>
				<rect x="75.8" y="58.7" fill="#1C1C26" width="1.7" height="2.4"/>
				<path fill="#484857" d="M51.9,29.8c0-1.2,1-2.2,2.2-2.2h31.3c1.2,0,2.2,1,2.2,2.2V53c0,1.2-1,2.2-2.2,2.2H54
					c-1.2,0-2.2-1-2.2-2.2V29.8z"/>
				<path fill="#1C1C26" d="M49.9,29.8c0-1.2,1-2.2,2.2-2.2h31.3c1.2,0,2.2,1,2.2,2.2V53c0,1.2-1,2.2-2.2,2.2H52.1
					c-1.2,0-2.2-1-2.2-2.2V29.8z"/>
				<path fill="#FFFFFF" d="M51.4,31.5c0-0.6,0.5-1.1,1.1-1.1H83c0.6,0,1.1,0.5,1.1,1.1v19.9c0,0.6-0.5,1.1-1.1,1.1H52.4
					c-0.6,0-1.1-0.5-1.1-1.1V31.5z"/>
				<circle fill="#484857" cx="67.7" cy="29.1" r="0.7"/>
				<rect x="79.3" y="53.6" fill="#484857" width="3.1" height="0.7"/>
			</g>
			<g>
				<g>
					<polygon fill="#50D9C6" points="62.1,49.5 58.6,43.8 55.3,48.4 54.5,47.8 58.7,41.8 62,47.3 65.8,39.8 73.1,45.2 79.9,41.1 
						80.4,42 73.1,46.4 66.2,41.4 					"/>
				</g>
				<g>
					<polygon fill="#FF5794" points="64,47 60.3,43.8 55.2,46.7 54.7,45.8 60.4,42.5 63.9,45.6 69.7,39.6 74.3,42 80,37 80.7,37.8 
						74.5,43.3 69.9,40.9 					"/>
				</g>
				<g>
					<polygon fill="#CFCFCF" points="81.3,49.9 54.4,49.9 54.4,34.1 55.4,34.1 55.4,48.9 81.3,48.9 					"/>
				</g>
				<circle fill="#3CAAF0" cx="59.2" cy="36.6" r="2.3"/>
				<g>
					<rect x="63" y="34.2" fill="#CFCFCF" width="2.2" height="1.1"/>
				</g>
				<g>
					<rect x="63" y="35.9" fill="#CFCFCF" width="3.3" height="1.1"/>
				</g>
				<g>
					<rect x="63" y="37.6" fill="#CFCFCF" width="1.5" height="1.1"/>
				</g>
				<g>
					<path fill="#FF5794" d="M60.9,35c-0.4-0.4-1-0.7-1.6-0.7l0,2.3L60.9,35z"/>
					<path fill="#50D9C6" d="M59.2,36.6l0,2.3c0,0,0,0,0,0c1.3,0,2.3-1,2.3-2.3c0-0.6-0.2-1.2-0.6-1.6L59.2,36.6z"/>
				</g>
			</g>
			
				<rect x="83.3" y="33.3" transform="matrix(0.9938 -0.1109 0.1109 0.9938 -3.5377 9.8407)" fill="#FFE554" width="6.8" height="6.8"/>
			
				<rect x="45.5" y="34.9" transform="matrix(0.9889 0.1483 -0.1483 0.9889 6.2217 -6.8249)" fill="#FFE554" width="6.8" height="6.8"/>
			
				<rect x="44.5" y="43.4" transform="matrix(0.9897 -0.1435 0.1435 0.9897 -6.2272 7.3646)" fill="#FF99BB" width="6.8" height="6.8"/>
		</g>
	</g>
</g>
</svg>
