<?xml version="1.0" encoding="utf-8"?>
<!-- Generator: Adobe Illustrator 18.1.1, SVG Export Plug-In . SVG Version: 6.00 Build 0)  -->
<svg version="1.1" xmlns="http://www.w3.org/2000/svg" xmlns:xlink="http://www.w3.org/1999/xlink" x="0px" y="0px"
	 viewBox="0 0 100 100" enable-background="new 0 0 100 100" xml:space="preserve">
<g id="Capa_1">
</g>
<g id="Capa_2">
	<g>
		<g>
			<path fill="#EBA87D" d="M42.7,67.6c0.2-1,1.5-1.4,2.1-1.8c0.8-0.4,1.1-1,1.8-1c0.5,0,1.1,0.2,1.6,0.1c1-0.2,1.4,0.8,1.8,1.3
				c0.8,1.2-0.3,2.4-1.4,2.4c-1,0-1.8,0-3,0.6C44.6,69.7,42.3,69.1,42.7,67.6z"/>
			<path fill="#F8B881" d="M59.7,49.1c-0.4,0.2-3.6,2.6-3.4,4.2c0.4,2.7,3.4,1,4.2,0.4c0.5-0.5,0.8-2.8,1-3.5
				C62.1,48.5,61,48.4,59.7,49.1z"/>
			<path fill="#1E1E29" d="M56.5,51.5c-5.8,3.2-11,2.7-16.9-1.6c-2.4-1.8-1.9,3.6-0.9,4.7c2.6,2.8,9.9,8.3,19.2,1.9L56.5,51.5z"/>
			<path fill="#E9E8E8" d="M23.8,49.7c-2.8,2.3-3.6,5.1,0.6,9.2c4.2,4.1,7.1,4.6,7.1,4.6s9.2-8.8,7.5-12.8
				C37.1,45.9,26.5,47.3,23.8,49.7z"/>
			<path fill="#E62A2A" d="M30.7,53.1c2.1-0.4,2.8,1.2,2.8,1.2l-0.9,1.9l2.1,5.6L32,67.5l-3.6-5.4l1.6-5.5l-1.5-1.5
				C28.6,55.1,28.9,53.5,30.7,53.1z"/>
			<path fill="#0D0F12" d="M25.3,86.2c3.7-1,4.2,4.4,1.8,6.9c-2.5,2.6-6.1,1.6-5-2.2C22.7,88.9,23.4,86.7,25.3,86.2z"/>
			<path fill="#0D0F12" d="M36.6,86.1c-3.8-0.6-3.7,4.8-1.1,7.1c2.7,2.3,6.2,1,4.7-2.7C39.5,88.6,38.6,86.5,36.6,86.1z"/>
			<path fill="#252728" d="M39.7,90.5c-0.1-0.2-0.3-0.5-0.5-0.7c-0.4,0.5-1.9,0.5-2.5,0.6c-0.7,0.1-1.7,0.2-0.8,1
				c0.7,0.6,1.8,1.1,2.8,1C39.8,92.4,40.1,91.4,39.7,90.5z"/>
			<path fill="#1D1D27" d="M22.7,67.3c-0.1,2.7-0.2,5.3-0.2,8c-0.1,4,0.5,9.1-0.8,12.9c0.6,0.3,1.2,0.5,1.7,0.8
				c2.3,0.8,4.6,0,6.9-0.4c-0.7-6.9,0.9-13.6,1-20.5C31.4,66.5,22.8,65,22.7,67.3z"/>
			<path fill="#1D1D27" d="M31.2,69.3c0.5,3.6,0.3,7.4,0.3,11c0,2.6-0.1,5.6-0.2,8.2c0.8,0.3,3.3,0.7,3.9,0.7c1.7,0,4-0.6,5.1-1.2
				c-0.8-2.6-1.4-7.3-1.6-11.3c-0.2-2.9,0.7-6.8-0.1-9.6C37.8,65,30.6,65.8,31.2,69.3z"/>
			<path fill="#121219" d="M22.5,74.4v2.8c0,0,3.4-0.5,8.1,0.7c0,0,0-0.6,0.1-0.8c0.1-0.2,0.7-0.3,0.7,0.1c0,0.4,0,0.7,0,0.7
				s2.5-2,7.1-0.8l0-2.8L31,72.1L22.5,74.4z"/>
			<g>
				<path fill="#1E1E29" d="M41.2,61.3c0.7-3.8,2.7-7.3-0.3-10.4c-0.6-0.7-1.4-1.2-2.4-1.6c0.1,0.3,0.2,0.6,0.1,0.9
					c-0.6,6.1-7.1,12.4-7.1,12.4s-9.3-8.3-7.7-12.4c0.1-0.3,0.5-0.8,0.7-1.1c-1.8,1-3.2,2-3.8,4c-0.6,2.3,0.2,7.7,0.2,11.7
					c0,2.1-0.1,7.7-0.6,9.9c1.5,0.7,7.9,1.7,9.4,0.9c1.2-0.7,1.9-2.1,2-2.5c0,3.9,9.4,2.2,9.3,1.9C40.8,72.7,40.5,65,41.2,61.3z"/>
			</g>
			<path fill="#121219" d="M40.9,72c-11.2,0.4-17.7-5.5-18.8-7.1c-0.4-0.7-1.5-2-0.9-2.8c1.1-1.5,5.8,0.7,7,1.2
				c2.9,1.1,5.8,2.8,8.9,3.3c1.1,0.2,2.3,0.2,3.5,0.4C40.6,67,40.8,70.8,40.9,72z"/>
			<path fill="#121219" d="M31.8,64c0,0-0.7,1.7,0.2,4.8C32,68.8,31.8,66.5,31.8,64z"/>
			<circle fill="#121219" cx="31" cy="70.7" r="0.6"/>
			<circle fill="#121219" cx="30.5" cy="64.8" r="0.6"/>
			<path fill="#F8B881" d="M45.7,70.9c1.2,0.1,2.8-1.5,2.6-2.2c-0.9-1-1.8-1.5-2.3-2.3c0.1-0.7-0.9-1.3-1.4-1.6
				c-1-0.4-1.7,0.7-2.9,0.7c-1.2,0-1.6,3.7-0.8,3.5C42.5,68.6,43.4,70.7,45.7,70.9z"/>
			<path fill="#EBA87D" d="M42.8,70c-0.3-0.2,0-0.7,0.2-1c0.8-0.7,1.2-0.7,1.2,0.2c0.3-0.2,1.2-0.5,1.4,0.4c0.2,0.7,0,1.2-0.2,1.3
				C45.2,71.1,42.8,70,42.8,70z"/>
			<path fill="#FBCBA0" d="M43.2,69c0.7-0.6,1-0.2,0.8,0.4c1.1-0.6,1.6,0,1.6,1.1c0,0.7-0.6,0.6-1.8,0.1
				C42.7,70.4,42.3,69.8,43.2,69z"/>
			<path fill="#121219" d="M31.9,73.1l0.2-3.3c0,0-0.1,3.9,0.5,4.9C32.6,74.7,32.1,74.6,31.9,73.1z"/>
			<path fill="#EBA87D" d="M45.6,65.2c-0.8,0.4-1.5,0.7-1.9,0.8c-0.2,0.1-0.4,0.2-0.4,0.5c0,0.3,0.4,0.6,0.7,0.7
				c1.2,0.1,2.1-0.7,2.1-0.6c0.4,0.5,0.9,0.8,1,0.8c0.1-0.1,0.1-0.2,0.1-0.3c0-0.5-0.1-1.1-0.5-1.4c-0.2-0.1-0.4-0.2-0.6-0.3
				L45.6,65.2z"/>
			<path fill="#FBCBA0" d="M45.6,65.1c-1,0.8-1.8,1-1.9,1.2c-0.2,0.6,0.6,0.7,0.9,0.7c0.8-0.1,1.3-0.6,1.5-0.7
				c0.2-0.2,0.3,0.2,0.4,0.3c0.3,0.7,1,1.2,1.7,1c0.8-0.2,1-2.9-0.1-2.7C47,65,46.5,64.3,45.6,65.1z"/>
			<path fill="#313243" d="M41.7,64.9c-15.8,1.2-20.4-7.7-17.1-11.7l-0.1-3.9c-11.2,5.9-4.6,22.3,17.3,22.2L41.7,64.9z"/>
			<path fill="#252728" d="M22.7,90.9c0.1-0.3,0.2-0.5,0.4-0.7c0.5,0.5,1.9,0.3,2.6,0.3c0.7,0,1.7,0,0.9,0.9
				c-0.6,0.7-1.7,1.3-2.7,1.3C22.8,92.7,22.4,91.7,22.7,90.9z"/>
			<path fill="#121219" d="M37.5,48.6c0,0,3.8,2.5,5.6,5.3l-3.7,1.3c0,0,2.1,3,2.2,3.5c0.1,0.3-3.2,0.8-5.6,2.2
				c-2.2,1.3-4.2,2.8-4.2,2.8s-0.3-0.6,0-1.1C32,62,39,56.5,37.5,48.6z"/>
			<path fill="#313243" d="M37.3,48.3c0,0,2.9,1.4,5.2,4.8L39,55c0,0,1.7,2.5,1.8,2.9c0.1,0.3-2.7,1.2-5.1,2.6c-2.2,1.3-4,3-4,3
				s-0.3-0.6-0.1-1.1C32,62,39.1,55.8,37.3,48.3z"/>
			<path opacity="0.5" fill="#121219" d="M24.7,49c0,0-3.6,2.6-4.8,5l3.5,1.3c0,0-1.3,4.1-0.8,4.3c0.6,0.1,2-0.2,5.6,1.6
				c1.9,1,3.5,2.4,3.5,2.4s0.2-0.7-0.2-1.2C31.4,61.9,24.7,57.2,24.7,49z"/>
			<path fill="#313243" d="M25.3,48.5c0,0-2.8,2-4.7,5l3,1.8c0,0-0.4,3-0.5,3.6c0,0.3,1.7,0.3,5.3,2.2c1.9,1,3.3,2.6,3.3,2.6
				s0.2-0.6-0.1-1.1C31.4,62,26,56.4,25.3,48.5z"/>
			<path opacity="0.2" fill="#A19E99" d="M34.3,56.7L31.2,54l-2.9,2.8c0,0-2.6-1.6-3.6-4.7C23.7,49,34.8,48,37,49.2
				C39.1,50.3,37.3,54,34.3,56.7z"/>
			<path fill="#F5F5F5" d="M31.2,54l2.9,1.9c0,0,5.2-3.4,3-7.8c-2-3.9-10.5-3.6-12.1,0.7c-1.4,3.7,3.1,7.2,3.1,7.2L31.2,54z"/>
			<path fill="#EF9E6D" d="M26.5,51.1c0.6,0.6,1.5,1.1,2.5,1.4c0.7,0.2,1.9,1,2.1,1c0.1,0,0.5-0.3,1.1-0.7c1-0.5,2.3-1.1,2.8-2.2
				c0.8-1.5,1.5-4.5,0-5.7c-1.5-1.2-4.5-1.4-6.3-1c-1.9,0.4-3.1,2.2-3.3,4C25.5,49.5,25.8,50.3,26.5,51.1z"/>
			<g>
				<g>
					<path fill="#4F2C1E" d="M44.2,27.9c0.2-4.8-0.4-6.5-0.2-8.5c0.8-8.2-5.9-14.1-17.5-12.9C6.3,8.5,10.3,36.7,16,35.3
						c4.3-1,8.4-2.3,12.7-3.4c3.9-1.1,8.3-0.4,12.4-0.2C44.2,31.8,44.1,30.5,44.2,27.9z"/>
					<path fill="#F8B881" d="M16.5,35c1.2,7.5,7.2,15.7,15.9,14.9c8.9-0.8,13.1-12,11.8-21.2c-1.5-10.1-6.4-18.4-16.8-16.1
						C19.9,14.1,14.9,24.9,16.5,35z"/>
					<path fill="#F8B881" d="M14.8,38.2c1,0.3,2,0.3,3,0.3c0,0,0-0.1,0.1-0.1c0.4-0.7-0.4-4.2-0.7-5c-0.6-1.8-1.6-3.1-3.3-2.6
						C10.2,31.9,11.7,37.2,14.8,38.2z"/>
					<path opacity="0.5" fill="#D99F7C" d="M43.3,24.3c-0.8-2.9-3.6-2-7.1-1.5c-5.6,0.7-12.1,1-16.4-0.8c0.1,2.9-2.1,4-3,6.7
						c-0.5,1.5-0.7-5.5-0.6-6.4c0.1-2.4,0.1-5.7,2-7.5c2.3-2.2,6.8-2.2,9.8-2.2c4.5,0,8.4,0.8,12.5,2.4
						C43.3,16.1,43.7,21.7,43.3,24.3z"/>
					<path opacity="0.35" fill="#B5441A" d="M16.1,36.9c1.3-0.9,0-3.7-1-4.1c-0.8-0.4-2.9,0.4-1.9,2c0.5-1.5,1.4-0.5,1.3,0.5
						c-0.1,0.7-0.8,0.7-0.1,1.6C14.9,37.4,15.7,37.2,16.1,36.9z"/>
					<path fill="#4F2C1E" d="M41.4,20.5c-11.6,2.7-21,1.2-22.3,0.1c0.3,2.4-0.6,3.6-1.1,5.4c-1,3.2-0.4,6.6,1,7.8
						c-0.7,0.2-1.6,0.2-2,0c-0.5-0.7-1.5-2.6-1.6-4.3C15.2,27.6,9.3,12,24,7.2C34.8,3.7,42.7,11.9,47.4,8c0,2.6-0.1,6-1.7,7.9
						c1.2-0.2,1.9-0.3,2.8-0.4C47.4,17.3,45.2,19.6,41.4,20.5z"/>
					<path fill="#6A3B27" d="M46.8,8.9c0,0-2.5,9.2-15.4,9.7c-14.2,0.5-17.9-3.1-13.8-7.6c4.1-4.5,12.2-4.5,17.6-3.2
						C40.5,9.3,43,10.9,46.8,8.9z"/>
					<path fill="#4F2C1E" d="M17.6,27.7c0,1,0.4,4.6,1.4,6c-0.7,0.2-1.5,0.3-1.9,0.1c-0.9-0.6-1.2-3.1-2.5-3.2
						C13.4,30.7,16.9,29.3,17.6,27.7z"/>
				</g>
				<g>
					<path opacity="0.5" fill="#B5441A" d="M24.3,31.8c1-0.9-2.1-0.9-2.6-0.8c0.1,0.6,1.4,0.3,1.8,0.4c-0.4,0.4-1.4,0.4-1.9,0.7
						c-0.5,0.3-0.4,0.5,0.1,0.4C22.2,32.5,24.1,32,24.3,31.8z"/>
					<path opacity="0.5" fill="#B5441A" d="M40.8,30.8c-0.8-0.8,1.8-1,2.2-0.8c-0.1,0.6-1.2,0.3-1.6,0.4c0.3,0.4,1.2,0.4,1.5,0.6
						c0.4,0.3,0.3,0.4-0.1,0.4C42.5,31.4,40.9,31,40.8,30.8z"/>
					<g>
						<path fill="#131C22" d="M25.5,32.2c-0.6-0.3-1.3-0.3-1.9-0.1c-1.3-1.1-0.2-4.5,1.7-3.7C26.8,28.9,26.8,31.5,25.5,32.2z"/>
					</g>
					<path opacity="0.35" fill="#B54817" d="M35.4,33.6c0.4,0.4-0.3,1.7-2,1.9c-1.7,0.1-2.7-1.2-2-1.6c0.6-0.4,1.1,0,2-0.1
						C34.4,33.7,34.9,33.2,35.4,33.6z"/>
					<path fill="#FBCBA0" d="M35.4,33.7c0.2-0.2-0.4-1.3-0.9-2.4c-0.5-1-1-3.1-1.9-3c-0.8,0.1-0.9,2.3-1.2,3.4
						c-0.3,1.1-0.4,2.1,0,2.4C32.5,34.9,34.8,34.3,35.4,33.7z"/>
					<g>
						<path fill="#131C22" d="M40.8,27.8c1.1,0.5,1.1,2.3,0.4,3.2c-0.6,0-1.2,0.2-1.7,0.5C37.4,31,38.8,26.8,40.8,27.8z"/>
					</g>
					<path fill="#7E8CA9" d="M24.8,28.8c0.7-0.2,1.1,0.8,0.6,1.2C24.7,30.6,24,29.1,24.8,28.8z"/>
					<path fill="#7E8CA9" d="M40.3,28.4c0.7-0.2,1,0.8,0.5,1.2C40.1,30,39.6,28.6,40.3,28.4z"/>
					<path opacity="0.5" fill="#B5441A" d="M22.6,37.1c0.7-0.5,2.6-0.4,2.6-0.4c0.3,0.2-0.8,0.2-1.6,0.6c-0.1,0-0.1,0.1-0.1,0.1
						c5.2,1.6,13.7,0.9,17.6-0.3c-0.1-0.1-0.2-0.2-0.3-0.2c-0.8-0.2-1.4-0.3-1.1-0.4c0,0,2-0.4,2.3,0.3c0.4,0.7-0.2,1.5-0.7,1.4
						c-0.4,0-0.1-0.6-0.2-1c-1,0.8-2.7,2.4-2.8,3.7c-0.2,2.3-1.7,3.9-6.4,3.8c-6.3-0.1-8.3-5.6-8.6-7.1c-0.3,0.5-0.4,1.2-0.8,1.2
						C22,38.8,22,37.5,22.6,37.1z"/>
					<path fill="#4F2C1E" d="M42.6,27.1c0.5,0.2,0.6-0.5,0.5-0.7c-0.7-0.8-1.5-1.7-3.5-1.9c-1.4-0.1-2.5-0.3-2.5-0.3
						c-0.1,0.8,0.1,2.5,1.2,2.5c0.7,0,1.3-0.1,2-0.1C41.4,26.6,42.2,26.9,42.6,27.1z"/>
					<path fill="#4F2C1E" d="M22.2,27.9c-0.5,0.3-0.8-0.4-0.7-0.6c0.6-0.9,1.3-2,3.4-2.5c1.5-0.4,2.6-0.7,2.6-0.7
						c0.2,0.8,0.3,2.5-0.8,2.6c-0.7,0.1-1.5,0.1-2.1,0.2C23.4,27.2,22.5,27.7,22.2,27.9z"/>
					<path fill="#902824" d="M24.5,38.4c0,0,6.6,1.9,15.3-0.5c0,0-1.4,0.7-1.7,2.6c-0.2,1.4-0.8,3.4-5.9,3.5
						C26.6,44.2,24.5,38.4,24.5,38.4z"/>
					<path fill="#FFF9F1" d="M26.4,39c0,0,0.1,1.9,1.8,2.6c2.2,0.9,4.7,1,7.3,0.3c1.7-0.5,2.7-3.3,2.7-3.3S33.4,39.5,26.4,39z"/>
					<path fill="#FFF9F1" d="M27.1,41.8c-0.2-0.5-0.2-1,0.8-0.6c1.1,0.5,3.2,0.8,5.6,0.7c2.4,0,3-1,3.4-0.5c0.4,0.5-1.2,3-5.1,2.7
						C27.4,43.7,27.1,41.8,27.1,41.8z"/>
					<path fill="#FBCBA0" d="M43.1,33c0.1,0.1,0.2,0.3,0.3,0.5c0.9,1.9-3.9,2-4.5,1.2c-1.3-1.5,0.2-2.1,1.3-2.3
						C41.1,32.3,42.4,32.2,43.1,33z"/>
					<path fill="#FBCBA0" d="M25.8,33.5c0.1,0.1,0.3,0.3,0.4,0.5c1,2-4,2.2-4.7,1.4c-1.4-1.5,0.1-2.3,1.3-2.5
						C23.7,32.8,25.1,32.7,25.8,33.5z"/>
					<path fill="#E8DAC5" d="M26.5,39.8c0,0,9.1-0.9,11.2-0.2c0,0,0.3-0.6,0.4-1c0,0-6.5,0.9-11.8,0.4C26.4,39,26.4,39.6,26.5,39.8z
						"/>
					<path fill="#E8DAC5" d="M28.3,41.2c0,0,3.3,1.1,8,0.1C36.3,41.3,32.1,43.1,28.3,41.2z"/>
				</g>
			</g>
		</g>
		<g>
			<path fill="#FBCBA0" d="M80,52.5c0,0,6,5.5,6.1,10.5c0.1,6-6.5,7.6-6.5,7.6l-1.3-3c7-3.4,1.2-9.5-1.5-11.9
				C74.9,53.9,80,52.5,80,52.5z"/>
			<path fill="#FBCBA0" d="M60.8,53.2c1.4,5.3-4.5,15-12.3,15.4c-0.3-1,0.6-1.7-0.4-3.8c10.2-2.5,10.1-12,11.1-13.2
				c1-1.2,2.1-2,2.1-2S60.3,51.3,60.8,53.2z"/>
			<path fill="#E9E8E8" d="M61.7,49l4.4,4.3c0,0-2.8,4.9-5.3,8.8c-2.4,0-5.9-1.5-6.9-3.4c3.2-2.7,3.6-6.3,5.4-7.9
				C60.7,49.7,61.7,49,61.7,49z"/>
			<path fill="#E9E8E8" d="M76.9,49.3c4.4,3.7-0.4,21-0.4,20.6L62.3,70c-0.1-0.4-4.1-13.8-1.8-19.4C62.6,45.6,74.1,46.9,76.9,49.3z"
				/>
			<path fill="#3C9AD5" d="M69.7,53c-2.1-0.4-2.8,1.3-2.8,1.3l1.4,2.1l-2.1,5.8l2.8,5.3l2.9-5.3l-1.7-5.6l1.5-1.6
				C71.8,54.9,71.6,53.3,69.7,53z"/>
			<path fill="#0D0F12" d="M75.2,86c-3.7-1-4.3,4.5-1.8,7.1c2.5,2.6,6.2,1.7,5-2.2C77.9,88.8,77.2,86.6,75.2,86z"/>
			<path fill="#0D0F12" d="M63.7,86c3.8-0.7,3.8,4.9,1.1,7.2c-2.8,2.4-6.3,1-4.8-2.8C60.7,88.5,61.7,86.3,63.7,86z"/>
			<path fill="#252728" d="M60.5,90.5c0.1-0.2,0.3-0.5,0.5-0.7c0.5,0.5,1.9,0.5,2.6,0.6c0.7,0.1,1.7,0.2,0.8,1
				c-0.7,0.7-1.9,1.2-2.9,1.1C60.5,92.3,60.1,91.3,60.5,90.5z"/>
			<path fill="#E9E8E8" d="M76.8,49.2c0,0,1.4,0.6,2.8,1.5c2.3,1.5,4.6,5.1,7.6,9.1c-1.2,1.3-5.5,2.7-7.5,2.5c-0.6-2.3-2.4-4-2.4-4
				L76.8,49.2z"/>
			<path fill="#252728" d="M77.9,90.8c-0.1-0.3-0.2-0.5-0.4-0.7c-0.5,0.5-1.9,0.3-2.6,0.3c-0.7,0-1.7,0-0.9,0.9
				c0.6,0.7,1.7,1.3,2.7,1.4C77.7,92.7,78.2,91.7,77.9,90.8z"/>
			<path opacity="0.2" fill="#A19E99" d="M62.1,51.2c0,0,0.8,2.7,3.9,5.3l3.2-2.7l3,2.9c0,0,2.6-1.6,3.6-4.8c1-3.2-8-2.9-10.2-1.8
				C63.5,51.3,62.1,51.2,62.1,51.2z"/>
			<path fill="#F5F5F5" d="M69.2,53.9l-3,1.9c0,0-5.9-3.1-3.7-7.5c2-4,12.1-3.7,13.8,0.7c1.5,3.8-3.9,6.9-3.9,6.9L69.2,53.9z"/>
			<path fill="#F2B98E" d="M73.9,50.9c-0.6,0.6-1.5,1.2-2.5,1.5c-0.7,0.2-1.9,1-2.2,1.1c-0.1,0-0.5-0.4-1.2-0.7
				c-1-0.5-2.4-1.2-2.9-2.2c-0.8-1.5-1.5-4.6,0-5.8c1.5-1.2,4.5-1.4,6.4-1c1.9,0.4,3.2,2.2,3.3,4.1C75,49.3,74.8,50.1,73.9,50.9z"/>
			<path fill="#1D1D27" d="M76.9,71.3l0-0.6c0,0,0-0.1,0-0.1c0,0,0,0,0,0l0-1.5c0,0-7.4,1.3-14.8-0.1l0.2,2.3c0.4,8-1,13.9-1.7,16.5
				c1,0.6,3.2,1.2,4.9,1.3c0.6,0,3-0.4,3.7-0.8c-0.2-2.6-0.3-5.1-0.2-7.7c0-1.3,0-2.3,0.1-3.3c0.2-0.5,0.6-0.3,0.8,0.3
				c0.3,3.4,0.6,6.5,0.2,10.8c2.2,0.4,4.5,1.2,6.7,0.4c0.6-0.2,1.1-0.5,1.7-0.8C77.2,84.5,76.9,74.9,76.9,71.3z"/>
			<path fill="#0D0F12" d="M76.9,69.5c0,0-6.9,1.4-14.8-0.1l0.2,1.8c0,0,5.7,2.1,14.6,0.1L76.9,69.5z"/>
			<path fill="#3D3C40" d="M67.2,72.1c0-0.7,0-1.4,0.1-2c1.5,0.1,2.9,0.1,4.1,0c-0.1,0.7-0.1,1.3-0.1,2
				C69.7,72.2,68.4,72.1,67.2,72.1z"/>
			<path fill="#FBCBA0" d="M80.6,69.3c-0.5,0.2-0.1,1.5-1.1,2.2c-1,0.8,0.9,0,1.1,0.9c0.2,1-3.8,2.4-4.4-0.7c-0.7-3.7,2.1-4.4,5-4.7
				C84.4,66.6,80.6,69.3,80.6,69.3z"/>
			<g>
				<path fill="#F3A76E" d="M73.4,51.5c-0.6,0.6-1.5,1.1-2.5,1.4c-0.7,0.2-1.9,1-2.1,1c-0.1,0-0.5-0.4-1.1-0.7
					c-1-0.5-2.3-1.2-2.9-2.2c-0.8-1.5-1.5-4.5,0-5.7c1.5-1.2,4.5-1.4,6.3-1c1.9,0.4,3.2,2.2,3.3,4.1C74.4,49.9,74.2,50.7,73.4,51.5z
					"/>
				<g>
					<path fill="#2C231D" d="M55,14.6c0.5-1.8,1.5-3.4,2.6-4.6c4.9-5.4,13.1-6,22.3-2c-0.8,0.1-2.6,0.2-4.8-0.2
						C80,10.1,85.7,13,87,18.7c3.1,14.1-8.5,7.6-12.5,8.7c-4.5,1.3-15.6-0.2-18.8-4.8C54.3,20.5,54.2,17.4,55,14.6z"/>
					<path fill="#FBCBA0" d="M83.8,35.7c-1,7.7-6.9,16-15.8,15.4c-9.1-0.6-13.6-11.9-12.4-21.3c1.3-10.2,6.1-18.8,16.7-16.7
						C79.9,14.6,85.2,25.5,83.8,35.7z"/>
					<path opacity="0.3" fill="#BF3D1C" d="M78,21.7c1.1,0.6,3.9,1.9,5.3-0.4c0.7-1.1,0.2-2.7-0.2-3.9c-0.5-1.5-2.2-2.3-3.6-2.9
						c-2.5-1.1-5.5-1-8.2-0.9c-3.1,0.1-6.1,0.5-9,1.4c-1.9,0.6-5.6,1.1-6.2,3.2c-0.8,2.8,2.1,3.1,4.2,3.1
						C65.1,21.3,75.7,20.5,78,21.7z"/>
					<path fill="#FBCBA0" d="M85.6,39c-1,0.3-2,0.4-3,0.3c0,0,0-0.1-0.1-0.1c-0.4-0.7,0.2-4.7,0.4-5.4c0.6-1.9,1.7-2.9,3.5-2.4
						C90.2,32.4,88.7,37.9,85.6,39z"/>
					<path opacity="0.3" fill="#C94817" d="M84.2,37.6c-1.4-0.9-0.1-3.7,0.9-4.2c0.8-0.4,2.9,0.3,1.9,1.9c-0.5-1.5-1.4-0.5-1.3,0.6
						c0.1,0.7,0.9,0.7,0.1,1.7C85.5,38.1,84.6,37.9,84.2,37.6z"/>
					<path fill="#2C231D" d="M60.4,10.2c5.7-3,14.5-2.2,19.3,1.4c3.3,2.4,5,5.3,4.8,9.4c-0.1,2.2-3.1,2.6-4.4,1
						c-1.1-1.4-2.6-1.7-4.3-1.8C72.9,20,61.7,19.5,59,20.4c-1.4,0.5-3.4,1.2-3.7-1.1c-0.3-2.5,0.4-5.1,2.1-7
						C58.3,11.5,59.3,10.7,60.4,10.2z"/>
					<path fill="#45362E" d="M56.4,18.1c-0.1-1.1,0-2.5,0.3-3.5c0.4-1.4,1.3-2.5,2.3-3.5c2.2-2.1,5.2-3.6,8.1-3.9
						c1.5-0.1,4.6-0.1,6,0.6c-0.5,0.3-1.7,0.5-2.2,0.9c2.1,0.5,4.1,1.1,6.1,2c0.6,0.3,5.6,3.7,5.6,3.7c-1.4,0.8-3,0.5-4.5,0.1
						c-2.3-0.5-4.6-0.7-6.9-0.2c-2.1,0.5-4.1,1.6-6.2,2.1c-0.1-1,0.9-1.8,1.3-2.4c-1.2,0-5.9,2.9-6.8,3.7c0.2-0.8,1.4-2.5,1.5-3.4
						C59.9,14.4,57.3,16.8,56.4,18.1z"/>
					<path fill="#2C231D" d="M80.8,22.5c0.9,4.8,1.5,7.1,0.9,11.4c0,0,2.2-2.4,4-2.6c0.1-0.4,0.4-3.3,0.3-5.9
						C85.8,23.1,82.5,22.5,80.8,22.5z"/>
				</g>
				<g>
					<path fill="#F49E75" d="M57,34.2c-0.1,0.2-0.2,0.3-0.3,0.6c-0.5,2.1,4.2,1.4,4.7,0.5c1-1.7-0.5-2.1-1.7-2.1
						C58.8,33.2,57.6,33.4,57,34.2z"/>
					<path fill="#F49E75" d="M74.7,34c-0.2,0.1-0.3,0.3-0.4,0.5c-1.1,2,3.9,2.5,4.7,1.7c1.5-1.5,0-2.3-1.2-2.6
						C76.9,33.4,75.5,33.3,74.7,34z"/>
					<g>
						<path fill="#281C19" d="M76.4,32.9c0.6-0.3,1.3-0.3,1.9-0.2c1.3-1.1,0.1-4.6-1.8-3.8C75,29.6,75.1,32.2,76.4,32.9z"/>
					</g>
					<path opacity="0.3" fill="#B64E26" d="M64.8,35.1c0.5-0.6,1.2,0.1,2.4,0.1c1.1,0,1.6-0.5,2.4,0c0.8,0.5-0.3,2-2.4,1.9
						C65.2,37,64.4,35.7,64.8,35.1z"/>
					<path fill="#FDDEC3" d="M67.5,30.9c2.1-0.2,2.3,4.3,1.8,4.7c-1.2,0.9-3.7,0.3-4.4-0.5C64.6,34.9,65.5,31.1,67.5,30.9z"/>
					<g>
						<path fill="#281C19" d="M57.7,28.9c-1.1,0.6-1.1,2.8-0.3,3.7c0.5-0.2,1.5-0.3,2.1,0C61.2,31.5,59.7,27.7,57.7,28.9z"/>
					</g>
					<path opacity="0.7" fill="#E7D3C4" d="M77.4,29.8c-0.7-0.2-1.1,0.8-0.6,1.2C77.6,31.6,78.2,30.1,77.4,29.8z"/>
					<path opacity="0.7" fill="#E7D3C4" d="M58.7,29.5c-0.7-0.1-1,0.9-0.4,1.3C59.1,31.2,59.5,29.7,58.7,29.5z"/>
					<path fill="#2C231D" d="M74.7,24.7c-0.7,0.1-1.7,0.8-1.2,2.1c0.3,1,1.9,0.5,4.1,0.6c2.3,0.1,3.1,0.4,3.2-0.2
						c0.1-0.7,0.1-1.7-2-2.3C77.3,24.6,76,24.5,74.7,24.7z"/>
					<path fill="#2C231D" d="M60.9,24.8c0.7,0.1,1.6,0.9,1.1,2.2c-0.4,1-1.9,0.4-4.1,0.4c-2.3,0-3.1,0.3-3.2-0.4
						c-0.1-0.7,0-1.7,2.2-2.2C58.3,24.5,59.6,24.6,60.9,24.8z"/>
					<path fill="#2C231D" d="M61.4,37c-0.8,0.5-2.7,2.6-4.3,1.1c-0.8-0.7-2-3.8-1.6-7.7c-2,1.4-1.9,5.2-1.5,7.4
						c0.2,0.9,0.8,1.8,0.7,2.7c-0.1,1.3-1.1,2.7-1.4,4c-0.3,1.6-0.2,3.9,1.7,4.3c-0.2,2,0.4,3.2,2.6,3c-0.7,2.6,1.9,4.2,4,2.5
						c-0.2,2.8,5.7,1.6,6.7,0.3c0.3,1.3,2.3,1.4,3.3,1.2c1.3-0.3,2.1-1.3,2.7-2.4c0.8,0.9,2.7,0.9,3.6,0.3c1.2-0.8,1.1-2.3,1-3.5
						c2.3,0.7,2.6-2,2.1-3.6c1.6-0.3,1.7-3.2,1.7-4.5c0-1.6,1.3-10-0.3-10.5c-1.5-0.5-1.3,1.6-1.4,2.6c-0.9,5.9-5.2,6.8-6.9,4.6
						c-2.2-2.9-3.8-2-7.1-2.1C64.7,36.2,63.5,35.6,61.4,37z"/>
					<path fill="#F6B47B" d="M61.3,41.7c0.2-0.8,2.1-1.2,2.7-1.8c0.4,1.1,2.3,0.4,3-0.1c0.7,0.8,2.7,1,3.5,0.2
						c0.1,0.6,2.1,1.1,2.2,1.9C71,44.8,62.2,43.8,61.3,41.7z"/>
					<path fill="#BF795C" d="M70.3,41.3c-0.8-0.4-5.2-0.8-6.2-0.2C66.4,41.9,70.3,41.3,70.3,41.3z"/>
					<path opacity="0.5" fill="#45362E" d="M58.5,47.3c-0.2,0.6-0.7,1.8-0.4,2.4c0.7,1.1,3,0.4,3.9-0.1c-0.3,0.6-1.2,1.7-0.6,2.4
						c1,1.1,2.5-1.1,3.4-0.8c0.5,0.2,0.1,1.6,0.9,2c1.2,0.5,2.3-1.3,3.2-1.7c0.6,0.8,1.5,1.3,2.6,1.1c1.5-0.2,1.4-1.1,1.7-2.3
						c1.2,1.3,3.2,1.9,3.4-0.5c1.6,2,1.7-2.3,1-3.4c-0.5-0.8-1.2-1.6-2-2.2c-1.2-1-1.7-0.6-3.1-0.3c-2.3,0.6-5.3,1.1-7.6,0.7
						c-2.8-0.5-5-2.5-7.2,0.1c-0.4,0.4-1.3,1.4-1.1,2.1C56.8,47.4,58.3,47.9,58.5,47.3z"/>
				</g>
				<g>
					<path opacity="0.1" fill="#010101" d="M63,35c0.4-0.3,0.7-0.7,1-1.1c0.5-0.9,0.5-2,0.1-3c-0.5-1.3-2-1.4-3.2-1.5
						c-1.6-0.1-3.1,0-4.6-0.2c-0.2,0,0-1.3,0.1-1.4c0.2-0.4,0.4-0.7,0.9-0.9c1.2-0.4,2.8,0,3.9,0.3c1.2,0.3,2.6,0.4,3.6,0.9
						c1,0.5,1.4,0.8,2.6,0.7c2.1-0.1,3.9-1.5,6-1.8c2.2-0.3,4.5-0.6,6.7-0.1c0.6,0.1,2.3,0.8,1.2,1.4c-1.1,0.6-2.8,0.5-4.1,0.6
						c-0.6,0-1.2,0.1-1.7,0.1c-2,0.2-5.2,0-4.9,2.6c0.2,1.7,1.3,3.5,2.8,3.8c1.4,0.3,2.8,0.4,4.2,0.3c1.1,0,2.1-0.3,3-0.7
						c0.3-0.1,1.1-0.7,1.3-0.3c0.5,0.6-1.2,1.7-1.6,1.9c-1,0.5-2,0.6-3.1,0.8c-2.6,0.4-5.4,0.3-6.9-2.1c-0.9-1.4-1.4-3-2.2-4.5
						c-1.4-2.3-1.9,0.9-2.3,2.3c-0.2,0.8-0.5,1.6-1,2.3c-0.8,1.2-2.5,1.9-3.9,2c-0.9,0.1-3.8,0.7-4.7-0.9c-0.3-0.5,1.4-0.1,2-0.4
						c0.4-0.1,0.9-0.1,1.3-0.1c0.5,0,1.1-0.1,1.6-0.2C61.8,35.7,62.4,35.4,63,35z"/>
					<g>
						<path fill="#3A3A4A" d="M86.2,26.8c-0.4-0.4-1.9,0.1-3.7,0c-2.5-0.2-15-1.4-14.2,3.9c0.3,2.2,1.3,4.4,3.6,5.7
							c1.9,1,8,0.7,9.9-0.8c2.3-1.9,2.3-5.1,2.5-6.3c0.8,0,1.4-0.4,1.4-0.4S86.7,27.3,86.2,26.8z M81.6,34.1
							c-1.6,1.9-7.6,2.4-9.8,0.8c-1.7-1.2-2.8-4.8-1.9-5.5c2-1.4,10.3-1.6,12.5-0.2C83.2,29.6,82.9,32.7,81.6,34.1z"/>
					</g>
					<g>
						<path fill="#3A3A4A" d="M50.5,28.7c0,0,0.5,0.4,1.3,0.4c0.1,1.2,0.2,4.4,2.3,6.3c1.7,1.6,7.3,1.9,8.9,0.9
							c2.1-1.2,2.9-3.5,3.2-5.6c0.8-5.3-10.6-4.2-12.8-4.1c-1.6,0.1-2.9-0.4-3.3,0C49.6,27.2,50.5,28.7,50.5,28.7z M53.4,29.1
							c2-1.4,9.5-1.1,11.3,0.3c0.9,0.7-0.1,4.3-1.7,5.5c-2,1.6-7.4,1-8.9-0.9C53.1,32.7,52.8,29.6,53.4,29.1z"/>
					</g>
					<path opacity="0.3" fill="#FFFFFF" d="M63.2,29.1c-1.4-0.5-8.5-0.7-9.2,0.1c-0.5,0.6,1.5,1.3,2.5,1.4c1.8,0.2,3.7,0.2,5.4-0.1
						C62.3,30.4,64.5,29.6,63.2,29.1z"/>
					<path fill="#FFFFFF" d="M57.7,29.1c-1.4-0.1-3.9,0.2-3.6,0.6c0.3,0.4,4.3,0.5,4.6-0.1C58.8,29.4,58.4,29.2,57.7,29.1z"/>
					<path opacity="0.7" fill="#FFFFFF" d="M62.1,33.6c-0.9,0.1-2.4,0.6-2.2,0.9c0.2,0.3,2.7-0.1,2.8-0.6
						C62.8,33.7,62.5,33.6,62.1,33.6z"/>
					<path opacity="0.7" fill="#FFFFFF" d="M80.3,33.6c-0.9,0.1-2.5,0.8-2.2,1.1c0.3,0.3,2.8-0.2,2.9-0.8
						C81,33.6,80.7,33.6,80.3,33.6z"/>
					<path opacity="0.3" fill="#FFFFFF" d="M81.1,29c-0.8-0.7-8.6-0.4-10.2,0.1c-1.4,0.5,0.9,1.2,1.4,1.3c1.8,0.3,3.9,0.3,5.9,0
						C79.3,30.3,81.6,29.5,81.1,29z"/>
					<path fill="#FFFFFF" d="M74.3,28.8c-1.5-0.1-4.1,0.3-3.8,0.7c0.3,0.4,4.5,0.4,4.8-0.2C75.5,29,75,28.8,74.3,28.8z"/>
					<path fill="#3A3A4A" d="M70.1,27.6c-2.2,0.7-3.8,0.5-5.6,0c-1.7-0.5,0.1,0.9,0.4,1.2c0.3,0.4,0.5,4.3,1.2,2.8
						c0.7-1.5,1.9-1.5,2.5,0.1c0.6,1.6,0.3-1.3,0.5-2.2C69.2,28.7,71.8,27.1,70.1,27.6z"/>
					<path fill="#C2C6CA" d="M70.2,28.3c1.9-1.5,5.1-1.7,11.4-1.1C76.9,27.3,73.1,27.3,70.2,28.3z"/>
					<path fill="#C2C6CA" d="M64,28.2c-1.6-1.4-4.3-1.2-10.1-1.1C58.2,27.4,61.4,27.2,64,28.2z"/>
				</g>
			</g>
		</g>
	</g>
</g>
</svg>
