<?xml version="1.0" encoding="utf-8"?>
<!-- Generator: Adobe Illustrator 18.1.1, SVG Export Plug-In . SVG Version: 6.00 Build 0)  -->
<svg version="1.1" xmlns="http://www.w3.org/2000/svg" xmlns:xlink="http://www.w3.org/1999/xlink" x="0px" y="0px"
	 viewBox="0 0 100 100" enable-background="new 0 0 100 100" xml:space="preserve">
<g id="Capa_1">
</g>
<g id="Capa_2">
	<g>
		<defs>
			<filter id="Adobe_OpacityMaskFilter" filterUnits="userSpaceOnUse" x="50.1" y="78" width="31.4" height="4">
				<feColorMatrix  type="matrix" values="1 0 0 0 0  0 1 0 0 0  0 0 1 0 0  0 0 0 1 0"/>
			</filter>
		</defs>
		<mask maskUnits="userSpaceOnUse" x="50.1" y="78" width="31.4" height="4" id="SVGID_1_">
			<g filter="url(#Adobe_OpacityMaskFilter)">
				<defs>
					<filter id="Adobe_OpacityMaskFilter_1_" filterUnits="userSpaceOnUse" x="49.1" y="77.5" width="33.3" height="5">
						<feFlood  style="flood-color:white;flood-opacity:1" result="back"/>
						<feBlend  in="SourceGraphic" in2="back" mode="normal"/>
					</filter>
				</defs>
				<mask maskUnits="userSpaceOnUse" x="49.1" y="77.5" width="33.3" height="5" id="SVGID_1_">
					<g filter="url(#Adobe_OpacityMaskFilter_1_)">
					</g>
				</mask>
				
					<radialGradient id="SVGID_2_" cx="-453.7085" cy="62415.6445" r="12.5183" gradientTransform="matrix(1.2017 0 0 0.1624 610.9928 -10056.3096)" gradientUnits="userSpaceOnUse">
					<stop  offset="0" style="stop-color:#FFFFFF"/>
					<stop  offset="7.362918e-002" style="stop-color:#E1E1E1"/>
					<stop  offset="0.2544" style="stop-color:#9E9E9E"/>
					<stop  offset="0.4259" style="stop-color:#666666"/>
					<stop  offset="0.5834" style="stop-color:#3A3A3A"/>
					<stop  offset="0.724" style="stop-color:#1B1B1B"/>
					<stop  offset="0.8425" style="stop-color:#080808"/>
					<stop  offset="0.9247" style="stop-color:#010101"/>
				</radialGradient>
				<path mask="url(#SVGID_1_)" fill="url(#SVGID_2_)" d="M82.4,80c0,1.4-7.5,2.5-16.7,2.5c-9.2,0-16.7-1.1-16.7-2.5
					c0-1.4,7.5-2.5,16.7-2.5C75,77.5,82.4,78.6,82.4,80z"/>
			</g>
		</mask>
		
			<radialGradient id="SVGID_3_" cx="-446.6198" cy="62516.6563" r="13.2255" gradientTransform="matrix(1.1502 0 0 0.1329 579.4735 -8228.4746)" gradientUnits="userSpaceOnUse">
			<stop  offset="0" style="stop-color:#010101"/>
			<stop  offset="0.9247" style="stop-color:#010101"/>
		</radialGradient>
		<path opacity="0.2" fill="url(#SVGID_3_)" d="M81.5,80c0,1.1-7,2-15.7,2c-8.7,0-15.7-0.9-15.7-2c0-1.1,7-2,15.7-2
			C74.4,78,81.5,78.9,81.5,80z"/>
		<defs>
			<filter id="Adobe_OpacityMaskFilter_2_" filterUnits="userSpaceOnUse" x="17.7" y="78" width="31.4" height="4">
				<feColorMatrix  type="matrix" values="1 0 0 0 0  0 1 0 0 0  0 0 1 0 0  0 0 0 1 0"/>
			</filter>
		</defs>
		<mask maskUnits="userSpaceOnUse" x="17.7" y="78" width="31.4" height="4" id="SVGID_4_">
			<g filter="url(#Adobe_OpacityMaskFilter_2_)">
				<defs>
					<filter id="Adobe_OpacityMaskFilter_3_" filterUnits="userSpaceOnUse" x="16.7" y="77.5" width="33.3" height="5">
						<feFlood  style="flood-color:white;flood-opacity:1" result="back"/>
						<feBlend  in="SourceGraphic" in2="back" mode="normal"/>
					</filter>
				</defs>
				<mask maskUnits="userSpaceOnUse" x="16.7" y="77.5" width="33.3" height="5" id="SVGID_4_">
					<g filter="url(#Adobe_OpacityMaskFilter_3_)">
					</g>
				</mask>
				
					<radialGradient id="SVGID_5_" cx="-480.6444" cy="62415.6445" r="12.5183" gradientTransform="matrix(1.2017 0 0 0.1624 610.9928 -10056.3096)" gradientUnits="userSpaceOnUse">
					<stop  offset="0" style="stop-color:#FFFFFF"/>
					<stop  offset="7.362918e-002" style="stop-color:#E1E1E1"/>
					<stop  offset="0.2544" style="stop-color:#9E9E9E"/>
					<stop  offset="0.4259" style="stop-color:#666666"/>
					<stop  offset="0.5834" style="stop-color:#3A3A3A"/>
					<stop  offset="0.724" style="stop-color:#1B1B1B"/>
					<stop  offset="0.8425" style="stop-color:#080808"/>
					<stop  offset="0.9247" style="stop-color:#010101"/>
				</radialGradient>
				<path mask="url(#SVGID_4_)" fill="url(#SVGID_5_)" d="M50.1,80c0,1.4-7.5,2.5-16.7,2.5S16.7,81.4,16.7,80
					c0-1.4,7.5-2.5,16.7-2.5S50.1,78.6,50.1,80z"/>
			</g>
		</mask>
		
			<radialGradient id="SVGID_6_" cx="-474.7619" cy="62516.6563" r="13.2255" gradientTransform="matrix(1.1502 0 0 0.1329 579.4735 -8228.4746)" gradientUnits="userSpaceOnUse">
			<stop  offset="0" style="stop-color:#010101"/>
			<stop  offset="0.9247" style="stop-color:#010101"/>
		</radialGradient>
		<path opacity="0.2" fill="url(#SVGID_6_)" d="M49.1,80c0,1.1-7,2-15.7,2c-8.7,0-15.7-0.9-15.7-2c0-1.1,7-2,15.7-2
			C42.1,78,49.1,78.9,49.1,80z"/>
		<g>
			<path fill="#EBA87D" d="M43.2,59.3c0.2-0.8,1.2-1.2,1.7-1.5c0.7-0.4,0.9-0.8,1.5-0.8c0.4,0,0.9,0.2,1.3,0.1
				c0.9-0.1,1.2,0.7,1.5,1.1c0.7,1-0.3,2-1.1,2c-0.8,0-1.5,0-2.5,0.5C44.8,61,42.9,60.5,43.2,59.3z"/>
			<path fill="#F8B881" d="M57.5,43.8c-0.3,0.2-3,2.2-2.8,3.5c0.3,2.3,2.9,0.8,3.5,0.3c0.5-0.4,0.7-2.3,0.9-2.9
				C59.5,43.3,58.6,43.2,57.5,43.8z"/>
			<path fill="#1E1E29" d="M54.8,45.8c-4.9,2.7-9.2,2.2-14.2-1.4c-2-1.5-1.6,3.1-0.7,4c2.2,2.3,8.3,7,16.1,1.6L54.8,45.8z"/>
			<path fill="#E9E8E8" d="M27.3,44.3c-2.3,2-3,4.3,0.5,7.8c3.5,3.4,6,3.9,6,3.9s7.7-7.4,6.3-10.7C38.5,41.1,29.7,42.3,27.3,44.3z"
				/>
			<path fill="#E62A2A" d="M33.2,47.1c1.7-0.3,2.3,1,2.3,1l-0.8,1.6l1.7,4.7l-2.2,4.8l-3-4.5l1.4-4.6l-1.3-1.3
				C31.4,48.8,31.6,47.4,33.2,47.1z"/>
			<path fill="#0D0F12" d="M28.6,74.9c3.1-0.9,3.5,3.7,1.5,5.8c-2.1,2.2-5.1,1.4-4.2-1.9C26.4,77.2,27,75.3,28.6,74.9z"/>
			<path fill="#0D0F12" d="M38.1,74.8c-3.2-0.5-3.1,4-0.9,6c2.3,1.9,5.2,0.8,3.9-2.3C40.5,76.9,39.8,75.1,38.1,74.8z"/>
			<path fill="#252728" d="M40.7,78.5c-0.1-0.2-0.2-0.4-0.4-0.5c-0.4,0.4-1.6,0.4-2.1,0.5c-0.6,0.1-1.4,0.2-0.7,0.8
				c0.6,0.5,1.5,0.9,2.3,0.9C40.8,80.1,41.1,79.2,40.7,78.5z"/>
			<path fill="#1D1D27" d="M26.5,59c-0.1,2.2-0.1,4.5-0.2,6.7c-0.1,3.3,0.4,7.7-0.6,10.9c0.5,0.2,1,0.5,1.5,0.6
				c1.9,0.7,3.9,0,5.8-0.3c-0.6-5.8,0.8-11.4,0.8-17.2C33.7,58.4,26.5,57.1,26.5,59z"/>
			<path fill="#1D1D27" d="M33.5,60.7c0.5,3,0.2,6.2,0.3,9.2c0,2.1-0.1,4.7-0.2,6.9c0.7,0.3,2.8,0.6,3.3,0.6c1.4,0,3.4-0.5,4.2-1
				c-0.7-2.2-1.2-6.1-1.4-9.5c-0.2-2.4,0.6-5.7-0.1-8.1C39.1,57.1,33.1,57.8,33.5,60.7z"/>
			<path fill="#121219" d="M26.3,65v2.4c0,0,2.8-0.4,6.8,0.6c0,0,0-0.5,0.1-0.7c0.1-0.2,0.6-0.3,0.6,0.1c0,0.4,0,0.6,0,0.6
				s2.1-1.7,5.9-0.7l0-2.3L33.4,63L26.3,65z"/>
			<g>
				<path fill="#1E1E29" d="M42,54c0.6-3.2,2.3-6.1-0.2-8.7c-0.5-0.6-1.2-1-2-1.4c0.1,0.3,0.1,0.5,0.1,0.8
					C39.4,49.8,34,55.1,34,55.1s-7.8-7-6.4-10.4c0.1-0.3,0.5-0.7,0.6-1c-1.5,0.9-2.7,1.6-3.2,3.3c-0.5,1.9,0.2,6.4,0.1,9.8
					c0,1.8-0.1,6.5-0.5,8.3c1.2,0.6,6.6,1.4,7.9,0.8c1-0.6,1.6-1.8,1.7-2.1c0,3.3,7.9,1.9,7.8,1.6C41.6,63.6,41.4,57.1,42,54z"/>
			</g>
			<path fill="#121219" d="M41.7,63c-9.4,0.3-14.9-4.6-15.8-6c-0.4-0.6-1.2-1.7-0.7-2.3c0.9-1.3,4.9,0.6,5.9,1
				c2.4,0.9,4.9,2.3,7.4,2.8c1,0.2,1.9,0.1,2.9,0.3C41.5,58.8,41.7,62,41.7,63z"/>
			<path fill="#121219" d="M34.1,56.3c0,0-0.6,1.5,0.1,4C34.2,60.3,34.1,58.4,34.1,56.3z"/>
			<circle fill="#121219" cx="33.4" cy="61.9" r="0.5"/>
			<circle fill="#121219" cx="33" cy="56.9" r="0.5"/>
			<path fill="#F8B881" d="M45.7,62c1,0.1,2.3-1.3,2.2-1.9c-0.8-0.8-1.5-1.3-1.9-2c0.1-0.6-0.7-1.1-1.2-1.3
				c-0.9-0.4-1.4,0.6-2.4,0.6c-1,0-1.3,3.1-0.7,2.9C43.1,60.1,43.8,61.9,45.7,62z"/>
			<path fill="#EBA87D" d="M43.3,61.3c-0.3-0.2,0-0.6,0.2-0.8c0.6-0.6,1-0.6,1,0.2c0.3-0.2,1-0.4,1.2,0.3c0.1,0.6,0,1-0.2,1.1
				C45.3,62.2,43.3,61.3,43.3,61.3z"/>
			<path fill="#FBCBA0" d="M43.7,60.5c0.6-0.5,0.9-0.2,0.7,0.4c0.9-0.5,1.4,0,1.4,1c0,0.6-0.5,0.5-1.5,0.1
				C43.3,61.6,42.9,61.1,43.7,60.5z"/>
			<path fill="#121219" d="M34.2,63.9l0.1-2.8c0,0-0.1,3.3,0.4,4.1C34.7,65.2,34.3,65.1,34.2,63.9z"/>
			<path fill="#EBA87D" d="M45.6,57.3c-0.7,0.4-1.3,0.6-1.6,0.7c-0.2,0.1-0.3,0.2-0.3,0.4c0,0.3,0.3,0.5,0.6,0.5
				c1,0.1,1.7-0.6,1.8-0.5c0.3,0.4,0.7,0.7,0.8,0.6c0.1-0.1,0.1-0.2,0.1-0.3c0-0.4-0.1-1-0.4-1.2c-0.1-0.1-0.3-0.2-0.5-0.3
				L45.6,57.3z"/>
			<path fill="#FBCBA0" d="M45.7,57.2c-0.8,0.7-1.5,0.8-1.6,1c-0.2,0.5,0.5,0.6,0.7,0.6c0.6-0.1,1.1-0.5,1.3-0.6
				c0.2-0.1,0.3,0.1,0.4,0.3c0.3,0.6,0.8,1,1.4,0.8c0.6-0.2,0.8-2.4-0.1-2.2C46.9,57.1,46.4,56.5,45.7,57.2z"/>
			<path fill="#313243" d="M42.4,57c-13.3,1-17.1-6.4-14.3-9.9L28,43.8c-9.4,4.9-3.8,18.8,14.5,18.6L42.4,57z"/>
			<path fill="#252728" d="M26.4,78.8c0.1-0.2,0.2-0.4,0.4-0.6c0.4,0.4,1.6,0.3,2.1,0.3c0.6,0,1.4,0,0.8,0.8
				c-0.5,0.6-1.4,1.1-2.2,1.1C26.5,80.4,26.2,79.6,26.4,78.8z"/>
			<path fill="#121219" d="M38.9,43.3c0,0,3.2,2.1,4.7,4.4l-3.1,1.1c0,0,1.7,2.5,1.8,2.9c0,0.2-2.7,0.7-4.7,1.9
				c-1.8,1.1-3.5,2.4-3.5,2.4s-0.2-0.5,0-0.9C34.3,54.6,40.1,49.9,38.9,43.3z"/>
			<path fill="#313243" d="M38.7,43.1c0,0,2.5,1.2,4.4,4l-2.9,1.6c0,0,1.5,2.1,1.5,2.5c0,0.2-2.3,1-4.2,2.2
				c-1.8,1.1-3.4,2.6-3.4,2.6S33.8,55.5,34,55C34.2,54.6,40.2,49.4,38.7,43.1z"/>
			<path opacity="0.5" fill="#121219" d="M28.2,43.7c0,0-3.1,2.2-4,4.2l3,1.1c0,0-1.1,3.5-0.6,3.6c0.5,0.1,1.7-0.2,4.7,1.4
				c1.6,0.8,2.9,2,2.9,2s0.1-0.6-0.1-1C33.7,54.5,28.2,50.6,28.2,43.7z"/>
			<path fill="#313243" d="M28.6,43.2c0,0-2.3,1.7-3.9,4.2l2.5,1.5c0,0-0.4,2.6-0.4,3c0,0.3,1.4,0.3,4.4,1.8
				c1.6,0.8,2.8,2.2,2.8,2.2s0.2-0.5-0.1-0.9C33.8,54.6,29.2,49.9,28.6,43.2z"/>
			<path opacity="0.2" fill="#A19E99" d="M36.2,50.1l-2.6-2.2l-2.5,2.3c0,0-2.2-1.3-3-4c-0.8-2.6,8.5-3.4,10.3-2.5
				C40.2,44.8,38.7,47.9,36.2,50.1z"/>
			<path fill="#F5F5F5" d="M33.6,47.9l2.5,1.6c0,0,4.4-2.9,2.5-6.5c-1.7-3.3-8.8-3-10.2,0.6c-1.2,3.1,2.6,6,2.6,6L33.6,47.9z"/>
			<path fill="#EF9E6D" d="M29.7,45.5c0.5,0.5,1.3,1,2.1,1.2c0.6,0.2,1.6,0.9,1.8,0.9c0.1,0,0.4-0.3,1-0.6c0.8-0.4,1.9-1,2.4-1.8
				c0.6-1.3,1.2-3.8,0-4.8c-1.3-1-3.7-1.2-5.3-0.9c-1.6,0.3-2.6,1.8-2.7,3.4C28.8,44.1,29,44.8,29.7,45.5z"/>
			<g>
				<g>
					<path fill="#4F2C1E" d="M44.5,26c0.2-4-0.3-5.5-0.2-7.1C45,11.9,39.4,7,29.7,8c-17,1.7-13.7,25.3-8.8,24.2
						c3.6-0.8,7.1-1.9,10.6-2.9c3.3-0.9,7-0.3,10.4-0.2C44.5,29.2,44.4,28.1,44.5,26z"/>
					<path fill="#F8B881" d="M21.2,31.9c1,6.3,6,13.1,13.4,12.5c7.5-0.7,11-10.1,9.9-17.8c-1.2-8.4-5.4-15.4-14.1-13.5
						C24.1,14.4,19.9,23.5,21.2,31.9z"/>
					<path fill="#F8B881" d="M19.8,34.6c0.8,0.3,1.7,0.3,2.5,0.2c0,0,0-0.1,0-0.1c0.4-0.6-0.4-3.6-0.6-4.2c-0.5-1.5-1.3-2.6-2.8-2.2
						C15.9,29.3,17.2,33.8,19.8,34.6z"/>
					<path opacity="0.5" fill="#D99F7C" d="M43.8,22.9c-0.6-2.5-3-1.7-6-1.3c-4.7,0.6-10.1,0.8-13.8-0.7c0.1,2.4-1.7,3.3-2.5,5.7
						c-0.4,1.3-0.6-4.6-0.5-5.4c0-2,0.1-4.8,1.7-6.3c2-1.9,5.7-1.8,8.2-1.8c3.7,0,7.1,0.7,10.5,2C43.7,16,44.1,20.8,43.8,22.9z"/>
					<path opacity="0.35" fill="#B5441A" d="M20.9,33.5c1.1-0.7,0-3.1-0.9-3.5c-0.7-0.3-2.4,0.3-1.6,1.6c0.4-1.3,1.2-0.5,1.1,0.4
						c-0.1,0.6-0.7,0.6-0.1,1.4C19.9,33.9,20.6,33.7,20.9,33.5z"/>
					<path fill="#4F2C1E" d="M42.2,19.8c-9.7,2.3-17.6,1-18.7,0.1c0.2,2-0.5,3.1-1,4.5c-0.8,2.7-0.3,5.5,0.8,6.5
						c-0.6,0.2-1.3,0.2-1.7,0c-0.4-0.6-1.3-2.2-1.4-3.6c-0.1-1.6-5.1-14.7,7.3-18.7c9-3,15.7,4,19.7,0.6c0,2.1-0.1,5.1-1.5,6.6
						c1-0.2,1.6-0.3,2.4-0.3C47.2,17,45.3,19,42.2,19.8z"/>
					<path fill="#6A3B27" d="M46.7,10c0,0-2.1,7.7-12.9,8.2c-11.9,0.5-15-2.6-11.6-6.4C25.5,8.1,32.4,8,36.9,9.2
						C41.4,10.3,43.5,11.7,46.7,10z"/>
					<path fill="#4F2C1E" d="M22.1,25.8c0,0.8,0.3,3.9,1.2,5c-0.5,0.2-1.2,0.2-1.6,0.1c-0.8-0.5-1-2.6-2.1-2.7
						C18.7,28.3,21.6,27.1,22.1,25.8z"/>
				</g>
				<g>
					<path opacity="0.5" fill="#B5441A" d="M27.8,29.2c0.8-0.7-1.8-0.8-2.1-0.6c0,0.5,1.2,0.2,1.5,0.3c-0.3,0.3-1.2,0.3-1.6,0.6
						c-0.4,0.2-0.3,0.4,0.1,0.4C26,29.8,27.6,29.4,27.8,29.2z"/>
					<path opacity="0.5" fill="#B5441A" d="M41.6,28.4c-0.7-0.7,1.5-0.8,1.8-0.7c-0.1,0.5-1,0.3-1.3,0.3c0.2,0.3,1,0.3,1.3,0.5
						c0.3,0.2,0.3,0.4-0.1,0.4C43,28.9,41.7,28.5,41.6,28.4z"/>
					<g>
						<path fill="#131C22" d="M28.8,29.6c-0.5-0.2-1.1-0.3-1.6-0.1c-1.1-0.9-0.2-3.8,1.5-3.1C29.9,26.8,29.9,29,28.8,29.6z"/>
					</g>
					<path opacity="0.35" fill="#B54817" d="M37.1,30.7c0.3,0.3-0.3,1.4-1.7,1.6c-1.4,0.1-2.3-1-1.7-1.4c0.5-0.3,0.9,0,1.7-0.1
						C36.3,30.8,36.7,30.4,37.1,30.7z"/>
					<path fill="#FBCBA0" d="M37.1,30.9c0.2-0.2-0.3-1.1-0.8-2c-0.4-0.8-0.8-2.6-1.6-2.5c-0.7,0.1-0.8,2-1,2.9c-0.2,0.9-0.4,1.8,0,2
						C34.7,31.8,36.6,31.4,37.1,30.9z"/>
					<g>
						<path fill="#131C22" d="M41.7,25.9c0.9,0.5,0.9,1.9,0.4,2.6c-0.5,0-1,0.1-1.4,0.4C38.8,28.6,40,25.1,41.7,25.9z"/>
					</g>
					<path fill="#7E8CA9" d="M28.2,26.7c0.6-0.2,1,0.7,0.5,1C28.1,28.2,27.6,27,28.2,26.7z"/>
					<path fill="#7E8CA9" d="M41.2,26.4c0.6-0.2,0.8,0.7,0.4,1C41,27.8,40.6,26.5,41.2,26.4z"/>
					<path opacity="0.5" fill="#B5441A" d="M26.4,33.7c0.6-0.4,2.2-0.3,2.2-0.3c0.3,0.1-0.7,0.2-1.3,0.5c0,0-0.1,0.1-0.1,0.1
						c4.4,1.4,11.5,0.8,14.8-0.3c0-0.1-0.1-0.1-0.3-0.2c-0.7-0.2-1.2-0.2-0.9-0.3c0,0,1.7-0.3,2,0.2c0.3,0.6-0.1,1.3-0.6,1.2
						c-0.3,0-0.1-0.5-0.1-0.8c-0.9,0.6-2.2,2-2.3,3.1c-0.2,2-1.4,3.3-5.4,3.2c-5.3-0.1-6.9-4.7-7.3-5.9c-0.3,0.4-0.3,1-0.7,1
						C25.8,35.1,25.8,34,26.4,33.7z"/>
					<path fill="#4F2C1E" d="M43.1,25.3c0.4,0.2,0.5-0.4,0.4-0.6c-0.6-0.7-1.3-1.5-3-1.6c-1.2-0.1-2.1-0.3-2.1-0.2
						c-0.1,0.7,0.1,2.1,1,2.1c0.5,0,1.1-0.1,1.7-0.1C42.1,24.8,42.8,25.1,43.1,25.3z"/>
					<path fill="#4F2C1E" d="M26,26c-0.4,0.2-0.7-0.3-0.6-0.5c0.5-0.8,1.1-1.7,2.9-2.1c1.3-0.3,2.2-0.6,2.2-0.6
						c0.2,0.7,0.3,2.1-0.7,2.2c-0.6,0.1-1.2,0.1-1.8,0.2C27,25.4,26.3,25.8,26,26z"/>
					<path fill="#902824" d="M28,34.8c0,0,5.6,1.6,12.8-0.4c0,0-1.2,0.6-1.4,2.2c-0.2,1.2-0.7,2.8-5,3C29.7,39.7,28,34.8,28,34.8z"
						/>
					<path fill="#FFF9F1" d="M29.5,35.3c0,0,0.1,1.6,1.5,2.2c1.9,0.8,4,0.8,6.1,0.3c1.4-0.4,2.3-2.8,2.3-2.8S35.4,35.7,29.5,35.3z"
						/>
					<path fill="#FFF9F1" d="M30.1,37.6c-0.1-0.4-0.1-0.8,0.7-0.5c1,0.4,2.7,0.7,4.7,0.6c2,0,2.5-0.8,2.9-0.4c0.4,0.4-1,2.5-4.3,2.2
						C30.4,39.3,30.1,37.6,30.1,37.6z"/>
					<path fill="#FBCBA0" d="M43.6,30.2c0.1,0.1,0.2,0.3,0.3,0.4c0.7,1.6-3.2,1.7-3.8,1c-1.1-1.2,0.2-1.8,1.1-1.9
						C41.9,29.6,43,29.6,43.6,30.2z"/>
					<path fill="#FBCBA0" d="M29.1,30.7c0.1,0.1,0.2,0.3,0.3,0.4c0.8,1.7-3.3,1.9-4,1.2c-1.2-1.3,0.1-1.9,1.1-2.1
						C27.3,30.1,28.4,30,29.1,30.7z"/>
					<path fill="#E8DAC5" d="M29.7,36c0,0,7.7-0.8,9.4-0.1c0,0,0.3-0.5,0.4-0.9c0,0-5.4,0.8-9.9,0.3C29.5,35.3,29.6,35.8,29.7,36z"
						/>
					<path fill="#E8DAC5" d="M31.2,37.1c0,0,2.8,0.9,6.7,0.1C37.9,37.2,34.4,38.7,31.2,37.1z"/>
				</g>
			</g>
		</g>
		<g>
			<path fill="#FBCBA0" d="M74.5,46.6c0,0,5.1,4.6,5.2,8.8c0.1,5-5.5,6.4-5.5,6.4l-1.1-2.5c5.9-2.9,1-8-1.2-10
				C70.3,47.8,74.5,46.6,74.5,46.6z"/>
			<path fill="#FBCBA0" d="M58.5,47.2c1.2,4.4-3.8,12.6-10.4,12.9c-0.3-0.8,0.5-1.4-0.4-3.2c8.6-2.1,8.5-10.1,9.3-11.1
				c0.8-1,1.8-1.7,1.8-1.7S58,45.6,58.5,47.2z"/>
			<path fill="#3AAA35" d="M59.2,43.7l3.7,3.6c0,0-2.3,4.1-4.4,7.4c-2.1,0-5-1.3-5.8-2.8c2.7-2.2,3-5.3,4.6-6.6
				C58.3,44.3,59.2,43.7,59.2,43.7z"/>
			<path fill="#008D36" d="M72,43.9c3.7,3.1-0.4,17.6-0.3,17.3l-12,0.1c-0.1-0.4-3.4-11.6-1.5-16.3C59.9,40.8,69.6,41.9,72,43.9z"/>
			<path fill="#0D0F12" d="M70.5,74.7c-3.1-0.9-3.6,3.8-1.5,5.9c2.1,2.2,5.2,1.4,4.2-1.9C72.7,77.1,72.2,75.2,70.5,74.7z"/>
			<path fill="#0D0F12" d="M60.8,74.7c3.2-0.5,3.2,4.1,0.9,6.1c-2.3,2-5.3,0.9-4-2.3C58.4,76.8,59.1,75,60.8,74.7z"/>
			<path fill="#252728" d="M58.2,78.5c0.1-0.2,0.2-0.4,0.4-0.6c0.4,0.5,1.6,0.4,2.1,0.5c0.6,0.1,1.4,0.2,0.7,0.8
				c-0.6,0.6-1.6,1-2.4,0.9C58.1,80,57.9,79.2,58.2,78.5z"/>
			<path fill="#3AAA35" d="M71.9,43.9c0,0,1.2,0.5,2.3,1.3c2,1.3,3.8,4.3,6.4,7.6c-1,1.1-4.6,2.3-6.3,2.1c-0.5-1.9-2.1-3.3-2.1-3.3
				L71.9,43.9z"/>
			<path fill="#252728" d="M72.8,78.8c-0.1-0.2-0.2-0.4-0.4-0.6c-0.4,0.4-1.6,0.3-2.2,0.3c-0.6,0-1.4,0-0.8,0.8
				c0.5,0.6,1.5,1.1,2.3,1.1C72.6,80.3,73,79.5,72.8,78.8z"/>
			<path opacity="0.2" fill="#A19E99" d="M59.5,45.5c0,0,0.7,2.2,3.3,4.5l2.7-2.3l2.5,2.4c0,0,2.2-1.3,3.1-4
				c0.8-2.7-6.7-2.4-8.5-1.5C60.7,45.6,59.5,45.5,59.5,45.5z"/>
			<path fill="#006633" d="M65.5,47.8L63,49.4c0,0-5-2.6-3.1-6.3c1.7-3.3,10.2-3.1,11.6,0.6c1.2,3.2-3.3,5.8-3.3,5.8L65.5,47.8z"/>
			<path fill="#F2B98E" d="M69.5,45.3c-0.5,0.5-1.3,1-2.1,1.2c-0.6,0.2-1.6,0.9-1.8,0.9c-0.1,0-0.4-0.3-1-0.6c-0.8-0.4-2-1-2.4-1.9
				c-0.7-1.3-1.2-3.9,0-4.9c1.3-1,3.8-1.2,5.4-0.9c1.6,0.4,2.7,1.9,2.8,3.5C70.3,43.9,70.1,44.6,69.5,45.3z"/>
			<path fill="#006633" d="M71.9,62.4l0-0.5c0,0,0-0.1,0-0.1c0,0,0,0,0,0l0-1.2c0,0-6.2,1.1-12.4-0.1l0.1,1.9
				c0.4,6.7-0.8,11.7-1.4,13.9c0.8,0.5,2.7,1,4.1,1c0.5,0,2.5-0.3,3.1-0.6c-0.1-2.2-0.2-4.3-0.2-6.5c0-1.1,0-2,0.1-2.7
				c0.2-0.4,0.5-0.3,0.7,0.3c0.3,2.8,0.5,5.4,0.2,9c1.9,0.3,3.8,1,5.6,0.3c0.5-0.2,0.9-0.4,1.4-0.6C72.2,73.5,71.9,65.4,71.9,62.4z"
				/>
			<path fill="#0D0F12" d="M71.9,60.9c0,0-5.8,1.2-12.4-0.1l0.1,1.5c0,0,4.7,1.7,12.2,0.1L71.9,60.9z"/>
			<path fill="#3D3C40" d="M63.8,63c0-0.6,0-1.2,0.1-1.7c1.3,0.1,2.4,0.1,3.5,0c-0.1,0.6-0.1,1.1-0.1,1.7
				C65.9,63.1,64.8,63.1,63.8,63z"/>
			<path fill="#FBCBA0" d="M75,60.7c-0.4,0.2-0.1,1.2-0.9,1.9c-0.9,0.6,0.7,0,0.9,0.8c0.2,0.8-3.2,2-3.7-0.6c-0.6-3.1,1.8-3.7,4.2-4
				C78.2,58.5,75,60.7,75,60.7z"/>
			<g>
				<g>
					<path fill="#2C231D" d="M78,27.8c-3.1-0.4-6.1-1-9.1-1.6c-3-0.6-6.4-0.7-9.1,0.4c-2.1,0.9-3.9,2.3-6.2,0.4
						c-1.8-1.5-1.7-3.5-2.3-5.6c-0.3,0.2-1.7,1.1-2,1.3c-0.1-1.8,1-5.2,1.6-6.7c-0.8-0.2-1.7,0-2.5-0.5c1.1-1.1,2.3-2.1,3.4-3.1
						c4.4-4.1,8.1-7.3,16-6.5c-0.2-0.6-0.3-1.1-0.5-1.7c1.4,0.1,3.6,1.9,3.6,1.9s3-0.4,4.1,0.5c-0.7,0.3-1.5,0.4-2.3,0.8
						c1.8,0.2,9.6,4.4,10.5,13.7c-0.2-0.3-1.4-1.7-1.7-1.9c0,1.9,0.1,3.8-0.4,5.6C80.6,26.3,79.8,28.1,78,27.8z"/>
					<path fill="#F8B881" d="M78.7,26.3c-0.9,4.4-0.8,5.5-2.3,10c-1.5,4.6-5.9,7.6-12.1,7.7c-10.5,0.2-12-9.2-11.9-18
						c0.1-8.8,6.1-15.9,13.4-15.8C73,10.3,80.5,17.7,78.7,26.3z"/>
					<path fill="#F8B881" d="M80.4,30.8c-0.9,0.3-1.9,0.4-2.9,0.4c0,0,0,0-0.1-0.1c-0.5-0.6,0-3.6,0.2-4.2c0.4-1.6,1.2-2.7,3-2.4
						C84.3,25.2,83.3,29.8,80.4,30.8z"/>
					<path opacity="0.6" fill="#D9A07E" d="M77.4,25.9c1.6,1,0.9-6,0.4-7c-0.8-1.7-1.4-3.8-2.8-4.4c-2.2-0.9-5.9,0.1-8.3-0.2
						c-3.5-0.4-7.1-0.1-10.4,0.6c-1.3,0.3-5.5,1-3.2,3.1c0.6,0.6,5.1,0.8,5.5,0c-0.3,0.5-0.7,1.3-0.7,1.3s8.8,0.9,16.7-2
						C75,18.9,76.8,25.6,77.4,25.9z"/>
					<path fill="#2C231D" d="M53.5,13.4c1.8-1.4,4.1-2.5,6.4-3c3.9-0.8,6.8-1.7,10.8,0.3c3.2,1.6,5.7,4.4,7.2,7.5
						c0.9,1.8,1.5,3.8,1.5,5.7c0,1.2-2,4-2.3,2.2c-0.4-2.6-0.1-5.3-2.5-10c-4.5,2-12.5,2.3-15.3,2.6c0.4-0.5,0.9-0.9,1.1-1.4
						c-0.1,0.2-2.9,0.5-3.3,0.5c-1.1,0.2-2.6,0.5-3.6,0C51.4,16.7,52.2,14.4,53.5,13.4z"/>
					<path opacity="0.4" fill="#AA2A17" d="M78.5,30c-1.7-0.4-0.7-3.1,0.4-3.7c0.9-0.5,3.4-0.3,2.5,1.2c-0.8-1.2-1.7-0.1-1.4,0.7
						c0.2,0.6,1.1,0.4,0.4,1.4C80.1,30.1,79.1,30.1,78.5,30z"/>
					<path fill="#645041" d="M70.2,6.8c-0.3-0.4-0.8-0.7-1.3-1c0,0.4,0.1,0.7,0.1,1.1c-2.3-0.4-4.7-0.6-6.9,0
						c-2,0.6-8.1,4.2-9.8,6.2c1.4,0.3,7.7-2.4,8.9-2.8c0,0-6.9,5.1-6.9,5.1s8.9-2.1,12.7-3.2c-1.2,1.5-4,3.1-4.3,3.7
						c2.7-0.5,7.7-1.7,11.1-3.3c2.8,1.8,3.9,2.3,5.9,3.1c-1-1.3-1.9-2.6-3.2-3.7c0.4,0.1,1.3,0.3,1.8,0.3c-1.8-1.9-4.4-3.6-7.1-4.6
						c0.5-0.6,1.2-1,1.8-1.1C72.4,6.7,70.2,6.8,70.2,6.8z"/>
				</g>
				<g>
					<path opacity="0.5" fill="#B5441A" d="M71,27.4c-0.9-0.8,1.9-0.9,2.3-0.8c0,0.6-1.3,0.3-1.7,0.4c0.3,0.3,1.3,0.3,1.7,0.6
						c0.4,0.2,0.4,0.4-0.1,0.4C72.9,27.9,71.2,27.5,71,27.4z"/>
					<path opacity="0.5" fill="#B5441A" d="M55.8,26.9c0.7-0.8-1.7-0.8-2-0.7c0.1,0.5,1.1,0.3,1.4,0.3c-0.2,0.3-1.1,0.4-1.4,0.6
						c-0.3,0.3-0.3,0.4,0.1,0.4C54.2,27.5,55.6,27.1,55.8,26.9z"/>
					<g>
						<path fill="#201B18" d="M69.9,27.8c0.5-0.3,1.2-0.3,1.8-0.2c1.2-1,0.1-4.2-1.7-3.4C68.6,24.8,68.7,27.2,69.9,27.8z"/>
					</g>
					<path opacity="0.5" fill="#B5441A" d="M60.8,29.4c-0.4,0.3,0.4,1.6,1.9,1.6c1.6,0.1,2.4-1.2,1.8-1.6c-0.6-0.3-1,0-1.9,0
						C61.7,29.4,61.2,29,60.8,29.4z"/>
					<path fill="#FBCBA0" d="M60.8,29.5c-0.2-0.2-0.1-1.3,0.3-2.3c0.4-0.9,1.3-2.8,2.1-2.8c0.8,0,0.9,2.1,1.2,3.1
						c0.3,1,0.5,1.9,0,2.2C63.5,30.5,61.4,30,60.8,29.5z"/>
					<g>
						<path fill="#201B18" d="M55.7,24.2c-1,0.5-1,2.1-0.3,2.9c0.5-0.1,1.1,0.1,1.5,0.4C58.9,27.1,57.5,23.2,55.7,24.2z"/>
					</g>
					<path fill="#A87F7F" d="M70.4,24.7c-0.6-0.2-1,0.8-0.5,1.1C70.6,26.3,71.1,24.9,70.4,24.7z"/>
					<path fill="#A87F7F" d="M56.1,24.7c-0.6-0.1-0.9,0.8-0.4,1.1C56.4,26.2,56.8,24.9,56.1,24.7z"/>
					<path opacity="0.5" fill="#B5441A" d="M54.8,32.6c0.3-0.6,2.1-0.3,2.1-0.3c0.3,0.1-0.3,0.2-1,0.4c-0.1,0-0.2,0.1-0.3,0.2
						c3.6,1.1,11.4,1.5,16.2-0.2c0,0-0.1-0.1-0.1-0.1c-0.7-0.4-1.7-0.4-1.5-0.6c0,0,1.7-0.1,2.4,0.3c0.6,0.4,0.6,1.5,0.2,1.6
						c-0.4,0.1-0.4-0.6-0.8-1c-0.3,1.3-1.9,6.5-7.7,6.7c-4.4,0.2-5.8-1.2-6-3.3c-0.1-1.2-1.7-2.6-2.6-3.3c-0.1,0.4,0.2,0.9-0.1,0.9
						C55,33.9,54.5,33.2,54.8,32.6z"/>
					<path fill="#902824" d="M71,33.5c0,0-6,1.9-14.1,0c0,0,1.3,0.6,1.6,2.3c0.2,1.3,0.9,3.1,5.5,3.1C69.2,38.9,71,33.5,71,33.5z"/>
					<path fill="#FFF9F1" d="M69.3,34.1c0,0,0,1.7-1.6,2.4c-2,0.9-4.3,1.1-6.7,0.5c-1.6-0.4-2.6-3-2.6-3S62.9,34.8,69.3,34.1z"/>
					<path fill="#FFF9F1" d="M68.7,36.7c0.1-0.4,0.1-0.9-0.7-0.6c-1,0.5-2.9,0.8-5.2,0.8c-2.2,0-2.8-0.8-3.2-0.4
						c-0.4,0.5,1.2,2.7,4.8,2.3C68.5,38.5,68.7,36.7,68.7,36.7z"/>
					<path fill="#F28B53" d="M53.7,29c-0.1,0.1-0.2,0.3-0.3,0.5c-0.7,1.8,3.6,1.7,4.2,1c1.1-1.4-0.2-2-1.3-2.1
						C55.5,28.3,54.3,28.3,53.7,29z"/>
					<path fill="#F28B53" d="M69.6,29c-0.1,0.1-0.2,0.3-0.3,0.5c-0.8,1.9,3.7,1.9,4.4,1.2c1.2-1.4-0.2-2.1-1.3-2.2
						C71.5,28.3,70.3,28.3,69.6,29z"/>
					<path fill="#E8DAC5" d="M69.1,34.8c0,0-8.4-0.6-10.3,0.2c0,0-0.3-0.5-0.4-0.9c0,0,6,0.7,10.9,0C69.3,34.1,69.3,34.6,69.1,34.8z
						"/>
					<path fill="#E8DAC5" d="M67.5,36.2c0,0-3,1.1-7.4,0.3C60.2,36.5,64.1,38,67.5,36.2z"/>
					<path fill="#2C231D" d="M73,22.8c0.5,0.2,1,0.2,1.2-0.4c-0.7-0.4-3.2-2.1-3.9-2.3c-0.4-0.1-4,0.7-3.5,1.5
						c0.4,0.8,2.2,0.6,2.8,0.4C69.9,21.9,72.7,22.7,73,22.8z"/>
					<path fill="#2C231D" d="M54.1,23.1c-0.5,0.1-0.9,0.1-1.1-0.5c0.6-0.4,2.8-2.1,3.5-2.2c0.4-0.1,3.6,0.8,3.2,1.6
						c-0.3,0.7-1.9,0.6-2.5,0.4C56.9,22.2,54.4,23,54.1,23.1z"/>
				</g>
			</g>
		</g>
		<g>
			<polygon fill="#B17F4A" points="52.6,78 69.4,69.7 69.4,86.1 52.4,95.7 			"/>
			<polygon fill="#936037" points="52.6,78 37.3,71.4 37.3,87.5 52.4,95.7 			"/>
			<polygon fill="#7D4E24" points="52.6,78 69.4,69.7 52.6,64.1 37.3,71.4 			"/>
		</g>
	</g>
</g>
</svg>
