<?xml version="1.0" encoding="utf-8"?>
<!-- Generator: Adobe Illustrator 23.0.0, SVG Export Plug-In . SVG Version: 6.00 Build 0)  -->
<svg version="1.1" id="Capa_1" xmlns="http://www.w3.org/2000/svg" xmlns:xlink="http://www.w3.org/1999/xlink" x="0px" y="0px"
	 viewBox="0 0 393.7 538" style="enable-background:new 0 0 393.7 538;" xml:space="preserve">
<style type="text/css">
	.st0{fill:#FFFFFF;}
</style>
<rect x="1.1" y="-0.9" width="392.6" height="538.9"/>
<g>
	<g>
		<g>
			<path class="st0" d="M135.1,225.4c-3,0-5.4,2.4-5.4,5.4s2.4,5.4,5.4,5.4s5.4-2.4,5.4-5.4C140.5,227.8,138.1,225.4,135.1,225.4z"
				/>
			<circle class="st0" cx="171" cy="210" r="5.4"/>
			<circle class="st0" cx="171" cy="168.5" r="5.4"/>
			<path class="st0" d="M99.2,163.1c-3,0-5.4,2.4-5.4,5.4s2.4,5.4,5.4,5.4s5.4-2.4,5.4-5.4S102.1,163.1,99.2,163.1z"/>
			<path class="st0" d="M99.2,204.6c-3,0-5.4,2.4-5.4,5.4s2.4,5.4,5.4,5.4s5.4-2.4,5.4-5.4C104.5,207.1,102.1,204.6,99.2,204.6z"/>
			<path class="st0" d="M87.2,183.9c-3,0-5.4,2.4-5.4,5.4s2.4,5.4,5.4,5.4s5.4-2.4,5.4-5.4C92.6,186.3,90.1,183.9,87.2,183.9z"/>
			<path class="st0" d="M159.1,142.4c-3,0-5.4,2.4-5.4,5.4s2.4,5.4,5.4,5.4s5.4-2.4,5.4-5.4C164.4,144.8,162,142.4,159.1,142.4z"/>
			<path class="st0" d="M183,183.9c-3,0-5.4,2.4-5.4,5.4s2.4,5.4,5.4,5.4s5.4-2.4,5.4-5.4C188.4,186.3,186,183.9,183,183.9z"/>
			<path class="st0" d="M111.1,142.4c-3,0-5.4,2.4-5.4,5.4s2.4,5.4,5.4,5.4s5.4-2.4,5.4-5.4C116.5,144.8,114.1,142.4,111.1,142.4z"
				/>
			<path class="st0" d="M159.1,225.4c-3,0-5.4,2.4-5.4,5.4s2.4,5.4,5.4,5.4s5.4-2.4,5.4-5.4C164.4,227.8,162,225.4,159.1,225.4z"/>
			<path class="st0" d="M111.1,225.4c-3,0-5.4,2.4-5.4,5.4s2.4,5.4,5.4,5.4s5.4-2.4,5.4-5.4C116.5,227.8,114.1,225.4,111.1,225.4z"
				/>
			<circle class="st0" cx="183" cy="147.8" r="5.4"/>
			<circle class="st0" cx="195" cy="168.5" r="5.4"/>
			<circle class="st0" cx="195" cy="210" r="5.4"/>
			<circle class="st0" cx="123.1" cy="251.5" r="5.4"/>
			<circle class="st0" cx="147.1" cy="251.5" r="5.4"/>
			<path class="st0" d="M183,225.4c-3,0-5.4,2.4-5.4,5.4s2.4,5.4,5.4,5.4s5.4-2.4,5.4-5.4C188.4,227.8,186,225.4,183,225.4z"/>
			<circle class="st0" cx="75.2" cy="168.5" r="5.4"/>
			<path class="st0" d="M87.2,142.4c-3,0-5.4,2.4-5.4,5.4s2.4,5.4,5.4,5.4s5.4-2.4,5.4-5.4C92.6,144.8,90.1,142.4,87.2,142.4z"/>
			<path class="st0" d="M87.2,225.4c-3,0-5.4,2.4-5.4,5.4s2.4,5.4,5.4,5.4s5.4-2.4,5.4-5.4C92.6,227.8,90.1,225.4,87.2,225.4z"/>
			<circle class="st0" cx="75.2" cy="210" r="5.4"/>
		</g>
		<g>
			<path class="st0" d="M258,198.4c-3,6.6-9.6,10.7-18.3,10.7c-9.2,0-16.3-5.4-18.6-12.2v-15.4c2.3-6.9,9.2-12.1,18.3-12.1
				c9,0,15.8,5.3,18.2,12.1V192h-28.4v3.1c1,3.3,4.9,6.6,10.5,6.6c5.8,0,9.1-2.9,10.6-6.4L258,198.4z M229.3,183.2v2.1h20.3v-2.1
				c-1.1-3.4-4.8-6.6-10.1-6.6C234.2,176.6,230.3,179.9,229.3,183.2z"/>
			<path class="st0" d="M299,179.4V208h-7.6v-3.8c-2.6,3.1-6.6,4.9-11.3,4.9c-7,0-12.4-3.1-14.2-6.9v-8.5c2.1-4.6,8-6.7,14.6-7.6
				c6.4-0.9,9.7-1.4,10.5-2.6v-2.1c-1.2-2.4-4.1-4.5-8.8-4.5c-4.6,0-8.4,2.7-9.9,6.1l-7.4-3.2c2.5-5.8,9.2-10.3,17.3-10.3
				C290.3,169.4,296.9,173.6,299,179.4z M290.9,189.6c-1.4,1.1-4.5,2-9.1,2.8c-4.8,0.9-7.1,1.8-8,3.6v3.3c1.2,1.6,3.5,2.9,7.8,2.9
				c4.1,0,7.6-1.8,9.4-4.3L290.9,189.6L290.9,189.6z"/>
			<path class="st0" d="M343.8,179.6V208h-8.3v-26.2c-1.1-2.5-4.1-4.8-8.9-4.8c-4.7,0-8,2.5-8.8,4.9V208h-8.3v-37.5h7.8v3.9
				c2.6-3.1,6.4-5,11.4-5C336.5,169.4,342.3,174.4,343.8,179.6z"/>
			<path class="st0" d="M360.8,169.8v4.5c-0.7,1.9-2.9,3.3-5.5,3.3s-4.8-1.4-5.5-3.3v-4.5c0.7-1.9,2.9-3.3,5.5-3.3
				C357.9,166.4,360.2,167.9,360.8,169.8z M359.7,170c-0.5-1.5-2.3-2.5-4.4-2.5c-2,0-3.8,1.1-4.4,2.5v4c0.5,1.5,2.3,2.5,4.4,2.5
				c2,0,3.8-1.1,4.4-2.5V170z M356.7,172.6l1.4,2.1v0.2h-1.2l-1.4-2.1h-1.2v2.1H353V169h2.7c1,0,1.8,0.6,2,1.3v1.3
				C357.6,172,357.2,172.4,356.7,172.6z M354.3,171.7h1.3c0.5,0,0.9-0.2,1-0.5v-0.7c-0.1-0.3-0.5-0.5-1-0.5h-1.3V171.7z"/>
		</g>
		<g>
			<path class="st0" d="M135.1,225.4c-3,0-5.4,2.4-5.4,5.4s2.4,5.4,5.4,5.4s5.4-2.4,5.4-5.4C140.5,227.8,138.1,225.4,135.1,225.4z"
				/>
			<circle class="st0" cx="171" cy="210" r="5.4"/>
			<circle class="st0" cx="171" cy="168.5" r="5.4"/>
			<path class="st0" d="M99.2,163.1c-3,0-5.4,2.4-5.4,5.4s2.4,5.4,5.4,5.4s5.4-2.4,5.4-5.4S102.1,163.1,99.2,163.1z"/>
			<path class="st0" d="M99.2,204.6c-3,0-5.4,2.4-5.4,5.4s2.4,5.4,5.4,5.4s5.4-2.4,5.4-5.4C104.5,207.1,102.1,204.6,99.2,204.6z"/>
			<path class="st0" d="M87.2,183.9c-3,0-5.4,2.4-5.4,5.4s2.4,5.4,5.4,5.4s5.4-2.4,5.4-5.4C92.6,186.3,90.1,183.9,87.2,183.9z"/>
			<path class="st0" d="M159.1,142.4c-3,0-5.4,2.4-5.4,5.4s2.4,5.4,5.4,5.4s5.4-2.4,5.4-5.4C164.4,144.8,162,142.4,159.1,142.4z"/>
			<path class="st0" d="M183,183.9c-3,0-5.4,2.4-5.4,5.4s2.4,5.4,5.4,5.4s5.4-2.4,5.4-5.4C188.4,186.3,186,183.9,183,183.9z"/>
			<path class="st0" d="M111.1,142.4c-3,0-5.4,2.4-5.4,5.4s2.4,5.4,5.4,5.4s5.4-2.4,5.4-5.4C116.5,144.8,114.1,142.4,111.1,142.4z"
				/>
			<path class="st0" d="M159.1,225.4c-3,0-5.4,2.4-5.4,5.4s2.4,5.4,5.4,5.4s5.4-2.4,5.4-5.4C164.4,227.8,162,225.4,159.1,225.4z"/>
			<path class="st0" d="M111.1,225.4c-3,0-5.4,2.4-5.4,5.4s2.4,5.4,5.4,5.4s5.4-2.4,5.4-5.4C116.5,227.8,114.1,225.4,111.1,225.4z"
				/>
			<circle class="st0" cx="183" cy="147.8" r="5.4"/>
			<circle class="st0" cx="195" cy="168.5" r="5.4"/>
			<circle class="st0" cx="195" cy="210" r="5.4"/>
			<circle class="st0" cx="123.1" cy="251.5" r="5.4"/>
			<circle class="st0" cx="147.1" cy="251.5" r="5.4"/>
			<path class="st0" d="M183,225.4c-3,0-5.4,2.4-5.4,5.4s2.4,5.4,5.4,5.4s5.4-2.4,5.4-5.4C188.4,227.8,186,225.4,183,225.4z"/>
			<circle class="st0" cx="75.2" cy="168.5" r="5.4"/>
			<path class="st0" d="M87.2,142.4c-3,0-5.4,2.4-5.4,5.4s2.4,5.4,5.4,5.4s5.4-2.4,5.4-5.4C92.6,144.8,90.1,142.4,87.2,142.4z"/>
			<path class="st0" d="M87.2,225.4c-3,0-5.4,2.4-5.4,5.4s2.4,5.4,5.4,5.4s5.4-2.4,5.4-5.4C92.6,227.8,90.1,225.4,87.2,225.4z"/>
			<circle class="st0" cx="75.2" cy="210" r="5.4"/>
		</g>
	</g>
	<g>
		<path class="st0" d="M231.6,224.7v11.6h-1.4V235c-0.8,1-2.1,1.6-3.8,1.6c-2.3,0-4.1-1.3-4.7-3v-9h1.4v8.5c0.5,1.2,1.7,2,3.5,2
			c1.7,0,3.2-1,3.5-2.1v-8.5h1.5V224.7z"/>
		<path class="st0" d="M245.5,227.2v9.1h-1.4v-8.6c-0.5-1.2-1.8-2-3.6-2s-3.2,1-3.5,2.1v8.5h-1.4v-11.6h1.4v1.3
			c0.9-1,2.1-1.6,3.8-1.6C243,224.3,244.8,225.6,245.5,227.2z"/>
		<path class="st0" d="M249,221.5v-1c0.2-0.4,0.6-0.6,1.1-0.6s0.9,0.2,1.1,0.6v1c-0.2,0.4-0.6,0.6-1.1,0.6S249.2,221.9,249,221.5z
			 M249.4,224.7h1.4v11.6h-1.4V224.7z"/>
		<path class="st0" d="M264.3,224.7v0.4l-4.5,11.2H258l-4.5-11.2v-0.4h1.4l4,10.1l4-10.1H264.3z"/>
		<path class="st0" d="M277.1,233.3c-0.9,2-2.9,3.4-5.4,3.4c-2.6,0-4.9-1.7-5.5-3.8v-4.6c0.6-2.2,2.8-3.8,5.4-3.8s4.8,1.6,5.4,3.8
			v2.6h-9.4v1.6c0.4,1.6,2.1,2.9,4.1,2.9s3.4-1.1,4-2.6L277.1,233.3z M267.6,228.6v0.9h8v-0.9c-0.4-1.6-2-2.9-4-2.9
			C269.7,225.7,268,227,267.6,228.6z"/>
		<path class="st0" d="M286,224.7v1.4h-0.7c-2.1,0-3.2,1.2-3.4,2.2v8.1h-1.4v-11.6h1.4v1.8c0.6-1,1.7-1.9,3.3-1.9
			C285.4,224.5,285.7,224.6,286,224.7z"/>
		<path class="st0" d="M287.6,233.9l1.3-0.6c0.5,1.2,1.8,2,3.4,2c1.5,0,2.6-0.6,2.9-1.5v-1.1c-0.2-0.6-0.9-1-1.6-1.3
			c-1.1-0.4-1.9-0.3-3.2-0.7c-1.3-0.4-2.1-1.2-2.4-2.1v-1.8c0.5-1.4,2.2-2.5,4.3-2.5c2.1,0,3.9,1.1,4.5,2.6l-1.3,0.6
			c-0.6-1.2-1.7-1.9-3.2-1.9c-1.4,0-2.5,0.6-2.8,1.5v1c0.2,0.6,0.8,1,1.6,1.3c1.1,0.4,2,0.3,3.3,0.7c1.2,0.4,2.1,1.2,2.4,2.1v1.9
			c-0.5,1.4-2.3,2.5-4.3,2.5C290.1,236.6,288.2,235.5,287.6,233.9z"/>
		<path class="st0" d="M299.5,221.5v-1c0.2-0.4,0.6-0.6,1.1-0.6s0.9,0.2,1.1,0.6v1c-0.2,0.4-0.6,0.6-1.1,0.6
			S299.7,221.9,299.5,221.5z M299.9,224.7h1.4v11.6h-1.4V224.7z"/>
		<path class="st0" d="M315.8,220v16.3h-1.4v-1.5c-0.9,1.1-2.4,1.9-4.2,1.9c-2.6,0-4.8-1.7-5.4-3.8v-4.6c0.6-2.2,2.8-3.8,5.4-3.8
			c1.8,0,3.2,0.7,4.1,1.8V220H315.8z M314.4,228c-0.7-1.3-2.2-2.3-4-2.3c-2,0-3.7,1.3-4.1,2.9v3.8c0.4,1.6,2.1,2.9,4.1,2.9
			c1.8,0,3.4-0.9,4-2.3V228z"/>
		<path class="st0" d="M329.1,227.3v9h-1.4V235c-0.9,1.1-2.3,1.6-3.9,1.6c-2.1,0-3.8-0.9-4.5-2.2V232c0.6-1.5,2.5-2.1,4.6-2.4
			c2.1-0.3,3.4-0.5,3.7-0.9v-1c-0.4-1.1-1.7-2-3.5-2c-1.7,0-3.3,1-3.8,2.4l-1.3-0.6c0.8-1.8,2.8-3.2,5.1-3.2
			C326.6,224.3,328.4,225.7,329.1,227.3z M327.6,229.9c-0.4,0.4-1.4,0.6-3.4,0.9c-2,0.3-3,0.8-3.5,1.6v1.5c0.5,0.7,1.4,1.3,3.2,1.3
			c1.7,0,3.1-0.8,3.7-1.8L327.6,229.9L327.6,229.9z"/>
		<path class="st0" d="M343.4,220v16.3H342v-1.5c-0.9,1.1-2.4,1.9-4.2,1.9c-2.6,0-4.8-1.7-5.4-3.8v-4.6c0.6-2.2,2.8-3.8,5.4-3.8
			c1.8,0,3.2,0.7,4.1,1.8V220H343.4z M342,228c-0.7-1.3-2.2-2.3-4-2.3c-2,0-3.7,1.3-4.1,2.9v3.8c0.4,1.6,2.1,2.9,4.1,2.9
			c1.8,0,3.4-0.9,4-2.3V228z"/>
	</g>
</g>
<rect x="35" y="376" class="st0" width="345.8" height="1.5"/>
<g>
	<path class="st0" d="M62.3,403.9l-2.1,6.3h-2.7l6.8-20h3.1l6.8,20h-2.8l-2.1-6.3H62.3z M68.8,401.9l-2-5.8c-0.4-1.3-0.7-2.5-1-3.7
		h-0.1c-0.3,1.2-0.6,2.4-1,3.6l-2,5.8h6.1V401.9z"/>
	<path class="st0" d="M87,409.7c-0.7,0.4-2.2,0.8-4.1,0.8c-4.3,0-7.2-2.9-7.2-7.3s3-7.6,7.7-7.6c1.5,0,2.9,0.4,3.6,0.7l-0.6,2
		c-0.6-0.4-1.6-0.7-3-0.7c-3.3,0-5.1,2.4-5.1,5.4c0,3.3,2.1,5.4,5,5.4c1.5,0,2.5-0.4,3.2-0.7L87,409.7z"/>
	<path class="st0" d="M90,400.3c0-1.7,0-3.1-0.1-4.5h2.3l0.1,2.8h0.1c0.7-1.9,2.2-3.1,4-3.1c0.3,0,0.5,0,0.7,0.1v2.5
		c-0.3-0.1-0.5-0.1-0.9-0.1c-1.8,0-3.1,1.4-3.5,3.4c-0.1,0.4-0.1,0.8-0.1,1.2v7.7H90V400.3z"/>
	<path class="st0" d="M100.9,403.5c0.1,3.5,2.3,5,4.9,5c1.9,0,3-0.3,4-0.7l0.4,1.9c-0.9,0.4-2.5,0.9-4.8,0.9c-4.4,0-7.1-2.9-7.1-7.2
		c0-4.3,2.6-7.7,6.7-7.7c4.7,0,5.9,4.1,5.9,6.8c0,0.5-0.1,0.9-0.1,1.2h-9.9V403.5z M108.6,401.6c0-1.7-0.7-4.2-3.6-4.2
		c-2.6,0-3.8,2.4-4,4.2H108.6z"/>
	<path class="st0" d="M126.7,389.1v17.4c0,1.3,0,2.7,0.1,3.7h-2.3l-0.1-2.5h-0.1c-0.8,1.6-2.6,2.8-4.9,2.8c-3.5,0-6.1-2.9-6.1-7.3
		c0-4.8,2.9-7.7,6.4-7.7c2.2,0,3.7,1,4.3,2.2h0.1v-8.6H126.7z M124.1,401.7c0-0.3,0-0.8-0.1-1.1c-0.4-1.7-1.8-3-3.8-3
		c-2.7,0-4.3,2.4-4.3,5.6c0,2.9,1.4,5.3,4.2,5.3c1.8,0,3.4-1.2,3.8-3.1c0.1-0.4,0.1-0.7,0.1-1.1v-2.6L124.1,401.7L124.1,401.7z"/>
	<path class="st0" d="M134,391.8c0,0.9-0.6,1.6-1.7,1.6c-0.9,0-1.6-0.7-1.6-1.6s0.7-1.6,1.6-1.6C133.4,390.2,134,390.9,134,391.8z
		 M131.1,410.2v-14.4h2.6v14.4H131.1z"/>
	<path class="st0" d="M141.2,391.7v4.1h3.7v2h-3.7v7.7c0,1.8,0.5,2.8,2,2.8c0.7,0,1.2-0.1,1.5-0.2l0.1,2c-0.5,0.2-1.3,0.4-2.3,0.4
		c-1.2,0-2.2-0.4-2.8-1.1c-0.7-0.8-1-2-1-3.7v-7.8h-2.2v-2h2.2v-3.4L141.2,391.7z"/>
	<path class="st0" d="M155.8,410.2l-0.2-1.8h-0.1c-0.8,1.1-2.3,2.1-4.4,2.1c-2.9,0-4.4-2-4.4-4.1c0-3.5,3.1-5.4,8.6-5.3v-0.3
		c0-1.2-0.3-3.3-3.3-3.3c-1.3,0-2.7,0.4-3.7,1.1l-0.6-1.7c1.2-0.8,2.9-1.3,4.7-1.3c4.4,0,5.5,3,5.5,5.9v5.4c0,1.2,0.1,2.5,0.2,3.4
		h-2.3V410.2z M155.4,402.9c-2.8-0.1-6.1,0.4-6.1,3.2c0,1.7,1.1,2.5,2.5,2.5c1.9,0,3.1-1.2,3.5-2.4c0.1-0.3,0.1-0.6,0.1-0.8V402.9z"
		/>
	<path class="st0" d="M174.6,389.1v17.4c0,1.3,0,2.7,0.1,3.7h-2.3l-0.1-2.5h-0.1c-0.8,1.6-2.6,2.8-4.9,2.8c-3.5,0-6.1-2.9-6.1-7.3
		c0-4.8,2.9-7.7,6.4-7.7c2.2,0,3.7,1,4.3,2.2h0.1v-8.6H174.6z M171.9,401.7c0-0.3,0-0.8-0.1-1.1c-0.4-1.7-1.8-3-3.8-3
		c-2.7,0-4.3,2.4-4.3,5.6c0,2.9,1.4,5.3,4.2,5.3c1.8,0,3.4-1.2,3.8-3.1c0.1-0.4,0.1-0.7,0.1-1.1v-2.6L171.9,401.7L171.9,401.7z"/>
	<path class="st0" d="M186.8,410.2l-0.2-1.8h-0.1c-0.8,1.1-2.3,2.1-4.4,2.1c-2.9,0-4.4-2-4.4-4.1c0-3.5,3.1-5.4,8.6-5.3v-0.3
		c0-1.2-0.3-3.3-3.3-3.3c-1.3,0-2.7,0.4-3.7,1.1l-0.6-1.7c1.2-0.8,2.9-1.3,4.7-1.3c4.4,0,5.5,3,5.5,5.9v5.4c0,1.2,0.1,2.5,0.2,3.4
		h-2.3V410.2z M186.5,402.9c-2.8-0.1-6.1,0.4-6.1,3.2c0,1.7,1.1,2.5,2.5,2.5c1.9,0,3.1-1.2,3.5-2.4c0.1-0.3,0.1-0.6,0.1-0.8V402.9z"
		/>
	<path class="st0" d="M60.4,435.1c0.1,3.5,2.3,5,4.9,5c1.9,0,3-0.3,4-0.7l0.4,1.9c-0.9,0.4-2.5,0.9-4.8,0.9c-4.4,0-7.1-2.9-7.1-7.2
		c0-4.3,2.6-7.7,6.7-7.7c4.7,0,5.9,4.1,5.9,6.8c0,0.5-0.1,0.9-0.1,1.2h-9.9V435.1z M68.1,433.3c0-1.7-0.7-4.2-3.6-4.2
		c-2.6,0-3.8,2.4-4,4.2H68.1z"/>
	<path class="st0" d="M73.8,431.4c0-1.5,0-2.7-0.1-3.9H76l0.1,2.4h0.1c0.7-1.4,2.4-2.7,4.7-2.7c2,0,5.1,1.2,5.1,6.1v8.6h-2.6v-8.3
		c0-2.3-0.9-4.2-3.3-4.2c-1.7,0-3.1,1.2-3.5,2.7c-0.1,0.3-0.2,0.8-0.2,1.2v8.6h-2.6C73.8,441.9,73.8,431.4,73.8,431.4z"/>
	<path class="st0" d="M99.9,435.6l-2.1,6.3h-2.7l6.8-20h3.1l6.8,20H109l-2.1-6.3H99.9z M106.5,433.5l-2-5.8c-0.4-1.3-0.7-2.5-1-3.7
		h-0.1c-0.3,1.2-0.6,2.4-1,3.6l-2,5.8h6.1V433.5z"/>
	<path class="st0" d="M114.7,420.8h2.6v21.1h-2.6V420.8z"/>
	<path class="st0" d="M124.8,423.4v4.1h3.7v2h-3.7v7.7c0,1.8,0.5,2.8,2,2.8c0.7,0,1.2-0.1,1.5-0.2l0.1,2c-0.5,0.2-1.3,0.4-2.3,0.4
		c-1.2,0-2.2-0.4-2.8-1.1c-0.7-0.8-1-2-1-3.7v-7.8H120v-2h2.2V424L124.8,423.4z"/>
	<path class="st0" d="M139.4,441.9l-0.2-1.8h-0.1c-0.8,1.1-2.3,2.1-4.4,2.1c-2.9,0-4.4-2-4.4-4.1c0-3.5,3.1-5.4,8.6-5.3v-0.3
		c0-1.2-0.3-3.3-3.3-3.3c-1.3,0-2.7,0.4-3.7,1.1l-0.6-1.7c1.2-0.8,2.9-1.3,4.7-1.3c4.4,0,5.5,3,5.5,5.9v5.4c0,1.2,0.1,2.5,0.2,3.4
		h-2.3V441.9z M139.1,434.5c-2.8-0.1-6.1,0.4-6.1,3.2c0,1.7,1.1,2.5,2.5,2.5c1.9,0,3.1-1.2,3.5-2.4c0.1-0.3,0.1-0.6,0.1-0.8V434.5z"
		/>
	<path class="st0" d="M166.2,441.2c-0.9,0.5-2.8,0.9-5.3,0.9c-5.6,0-9.9-3.6-9.9-10.1c0-6.3,4.2-10.5,10.4-10.5
		c2.5,0,4.1,0.5,4.7,0.9l-0.6,2.1c-1-0.5-2.4-0.8-4-0.8c-4.7,0-7.8,3-7.8,8.3c0,4.9,2.8,8,7.7,8c1.6,0,3.2-0.3,4.2-0.8L166.2,441.2z
		"/>
	<path class="st0" d="M177.1,441.9l-0.2-1.8h-0.1c-0.8,1.1-2.3,2.1-4.4,2.1c-2.9,0-4.4-2-4.4-4.1c0-3.5,3.1-5.4,8.6-5.3v-0.3
		c0-1.2-0.3-3.3-3.3-3.3c-1.3,0-2.7,0.4-3.7,1.1l-0.6-1.7c1.2-0.8,2.9-1.3,4.7-1.3c4.4,0,5.5,3,5.5,5.9v5.4c0,1.2,0.1,2.5,0.2,3.4
		h-2.3V441.9z M176.7,434.5c-2.8-0.1-6.1,0.4-6.1,3.2c0,1.7,1.1,2.5,2.5,2.5c1.9,0,3.1-1.2,3.5-2.4c0.1-0.3,0.1-0.6,0.1-0.8V434.5z"
		/>
	<path class="st0" d="M183.4,420.8h2.6v21.1h-2.6V420.8z"/>
	<path class="st0" d="M193.3,423.5c0,0.9-0.6,1.6-1.7,1.6c-0.9,0-1.6-0.7-1.6-1.6s0.7-1.6,1.6-1.6
		C192.7,421.8,193.3,422.5,193.3,423.5z M190.4,441.9v-14.4h2.6v14.4H190.4z"/>
	<path class="st0" d="M209.8,420.8v17.4c0,1.3,0,2.7,0.1,3.7h-2.3l-0.1-2.5h-0.1c-0.8,1.6-2.6,2.8-4.9,2.8c-3.5,0-6.1-2.9-6.1-7.3
		c0-4.8,2.9-7.7,6.4-7.7c2.2,0,3.7,1,4.3,2.2h0.1v-8.6H209.8z M207.2,433.3c0-0.3,0-0.8-0.1-1.1c-0.4-1.7-1.8-3-3.8-3
		c-2.7,0-4.3,2.4-4.3,5.6c0,2.9,1.4,5.3,4.2,5.3c1.8,0,3.4-1.2,3.8-3.1c0.1-0.4,0.1-0.7,0.1-1.1v-2.6L207.2,433.3L207.2,433.3z"/>
	<path class="st0" d="M222.1,441.9l-0.2-1.8h-0.1c-0.8,1.1-2.3,2.1-4.4,2.1c-2.9,0-4.4-2-4.4-4.1c0-3.5,3.1-5.4,8.6-5.3v-0.3
		c0-1.2-0.3-3.3-3.3-3.3c-1.3,0-2.7,0.4-3.7,1.1l-0.6-1.7c1.2-0.8,2.9-1.3,4.7-1.3c4.4,0,5.5,3,5.5,5.9v5.4c0,1.2,0.1,2.5,0.2,3.4
		h-2.3V441.9z M221.7,434.5c-2.8-0.1-6.1,0.4-6.1,3.2c0,1.7,1.1,2.5,2.5,2.5c1.9,0,3.1-1.2,3.5-2.4c0.1-0.3,0.1-0.6,0.1-0.8V434.5z"
		/>
	<path class="st0" d="M240.8,420.8v17.4c0,1.3,0,2.7,0.1,3.7h-2.3l-0.1-2.5h-0.1c-0.8,1.6-2.6,2.8-4.9,2.8c-3.5,0-6.1-2.9-6.1-7.3
		c0-4.8,2.9-7.7,6.4-7.7c2.2,0,3.7,1,4.3,2.2h0.1v-8.6H240.8z M238.2,433.3c0-0.3,0-0.8-0.1-1.1c-0.4-1.7-1.8-3-3.8-3
		c-2.7,0-4.3,2.4-4.3,5.6c0,2.9,1.4,5.3,4.2,5.3c1.8,0,3.4-1.2,3.8-3.1c0.1-0.4,0.1-0.7,0.1-1.1v-2.6L238.2,433.3L238.2,433.3z"/>
	<path class="st0" d="M57.8,454.4c0.6-0.1,1.4-0.2,2.3-0.2c1.3,0,2.1,0.2,2.6,0.8c0.5,0.4,0.7,1.1,0.7,1.8c0,1.2-0.8,2-1.7,2.4l0,0
		c0.7,0.2,1.1,0.9,1.3,1.9c0.3,1.3,0.5,2.2,0.7,2.6h-1.2c-0.1-0.3-0.4-1.1-0.6-2.2c-0.3-1.3-0.8-1.8-1.8-1.8H59v4h-1.2V454.4z
		 M59,458.7h1.2c1.3,0,2.1-0.7,2.1-1.8c0-1.2-0.9-1.7-2.1-1.7c-0.6,0-1,0.1-1.2,0.1V458.7z"/>
	<path class="st0" d="M65.4,460.5c0,1.6,1.1,2.3,2.2,2.3c0.9,0,1.4-0.2,1.8-0.3l0.2,0.9c-0.4,0.2-1.1,0.4-2.2,0.4
		c-2,0-3.2-1.4-3.2-3.4s1.2-3.6,3.1-3.6c2.1,0,2.7,1.9,2.7,3.2c0,0.2,0,0.4,0,0.6h-4.6V460.5z M68.9,459.6c0-0.8-0.3-2-1.7-2
		c-1.2,0-1.7,1.1-1.8,2H68.9z"/>
	<path class="st0" d="M71.1,462.4c0.4,0.2,1,0.5,1.6,0.5c0.9,0,1.3-0.4,1.3-1s-0.3-0.9-1.2-1.2c-1.2-0.4-1.7-1.1-1.7-1.9
		c0-1.1,0.9-2,2.3-2c0.7,0,1.2,0.2,1.6,0.4l-0.3,0.9c-0.3-0.2-0.7-0.4-1.3-0.4c-0.7,0-1.1,0.4-1.1,0.9c0,0.6,0.4,0.8,1.2,1.1
		c1.1,0.4,1.7,1,1.7,2c0,1.2-0.9,2-2.5,2c-0.7,0-1.4-0.2-1.8-0.5L71.1,462.4z"/>
	<path class="st0" d="M75.8,462.9c0-0.5,0.3-0.9,0.8-0.9s0.8,0.4,0.8,0.9s-0.3,0.9-0.8,0.9C76.1,463.8,75.8,463.4,75.8,462.9z"/>
	<path class="st0" d="M81.1,458.7c0-0.7,0-1.3-0.1-1.8h1.1l0.1,1.1l0,0c0.3-0.6,1.1-1.3,2.2-1.3c0.9,0,2.3,0.6,2.3,2.9v4h-1.2v-3.9
		c0-1.1-0.4-2-1.5-2c-0.8,0-1.4,0.6-1.6,1.2c-0.1,0.2-0.1,0.4-0.1,0.6v4h-1.2C81.1,463.5,81.1,458.7,81.1,458.7z"/>
	<path class="st0" d="M91.9,457.7c0,1.6-1.1,2.3-2.2,2.3c-1.2,0-2.2-0.9-2.2-2.2c0-1.4,1-2.3,2.2-2.3
		C91,455.4,91.9,456.4,91.9,457.7z M88.4,457.7c0,0.9,0.6,1.6,1.3,1.6c0.7,0,1.2-0.6,1.2-1.6c0-0.7-0.4-1.6-1.3-1.6
		C88.8,456.1,88.4,457,88.4,457.7z"/>
	<path class="st0" d="M92.5,462.9c0-0.5,0.3-0.9,0.8-0.9s0.8,0.4,0.8,0.9s-0.3,0.9-0.8,0.9S92.5,463.4,92.5,462.9z"/>
	<path class="st0" d="M97.4,463.6v-0.7l0.9-0.9c2.2-2.2,3.3-3.4,3.3-4.7c0-0.9-0.4-1.8-1.7-1.8c-0.8,0-1.5,0.4-1.9,0.8l-0.4-0.9
		c0.6-0.5,1.5-0.9,2.5-0.9c1.9,0,2.7,1.3,2.7,2.6c0,1.7-1.2,3-3,4.8l-0.7,0.7l0,0h4v1H97.4z"/>
	<path class="st0" d="M104.7,462.8c0.3,0,0.6,0,1,0c0.7-0.1,1.3-0.4,1.8-0.9c0.6-0.5,1-1.3,1.2-2.4l0,0c-0.5,0.6-1.2,1-2.1,1
		c-1.6,0-2.6-1.2-2.6-2.8c0-1.7,1.2-3.2,3-3.2s2.9,1.5,2.9,3.8c0,2-0.7,3.4-1.5,4.2c-0.7,0.7-1.6,1.1-2.6,1.2
		c-0.4,0.1-0.8,0.1-1.1,0.1C104.7,463.8,104.7,462.8,104.7,462.8z M105.1,457.6c0,1.1,0.7,1.9,1.7,1.9c0.8,0,1.4-0.4,1.7-0.9
		c0.1-0.1,0.1-0.2,0.1-0.4c0-1.5-0.6-2.7-1.8-2.7C105.8,455.4,105.1,456.3,105.1,457.6z"/>
	<path class="st0" d="M114.3,463.6v-2.5h-4.1v-0.8l3.9-5.7h1.3v5.6h1.2v1h-1.2v2.5h-1.1C114.3,463.7,114.3,463.6,114.3,463.6z
		 M114.3,460.2v-3c0-0.5,0-0.9,0-1.4l0,0c-0.3,0.5-0.5,0.9-0.7,1.3l-2.2,3.1l0,0H114.3z"/>
	<path class="st0" d="M117.9,462.8c0.3,0,0.6,0,1,0c0.7-0.1,1.3-0.4,1.8-0.9c0.6-0.5,1-1.3,1.2-2.4l0,0c-0.5,0.6-1.2,1-2.1,1
		c-1.6,0-2.6-1.2-2.6-2.8c0-1.7,1.2-3.2,3-3.2s2.9,1.5,2.9,3.8c0,2-0.7,3.4-1.5,4.2c-0.7,0.7-1.6,1.1-2.6,1.2
		c-0.4,0.1-0.8,0.1-1.1,0.1C117.9,463.8,117.9,462.8,117.9,462.8z M118.3,457.6c0,1.1,0.7,1.9,1.7,1.9c0.8,0,1.4-0.4,1.7-0.9
		c0.1-0.1,0.1-0.2,0.1-0.4c0-1.5-0.6-2.7-1.8-2.7C119.1,455.4,118.3,456.3,118.3,457.6z"/>
	<path class="st0" d="M124.5,462.8c0.3,0,0.6,0,1,0c0.7-0.1,1.3-0.4,1.8-0.9c0.6-0.5,1-1.3,1.2-2.4l0,0c-0.5,0.6-1.2,1-2.1,1
		c-1.6,0-2.6-1.2-2.6-2.8c0-1.7,1.2-3.2,3-3.2s2.9,1.5,2.9,3.8c0,2-0.7,3.4-1.5,4.2c-0.7,0.7-1.6,1.1-2.6,1.2
		c-0.4,0.1-0.8,0.1-1.1,0.1V462.8z M124.9,457.6c0,1.1,0.7,1.9,1.7,1.9c0.8,0,1.4-0.4,1.7-0.9c0.1-0.1,0.1-0.2,0.1-0.4
		c0-1.5-0.6-2.7-1.8-2.7C125.7,455.4,124.9,456.3,124.9,457.6z"/>
	<path class="st0" d="M139,453.8v8.1c0,0.6,0,1.3,0.1,1.7H138l-0.1-1.2l0,0c-0.4,0.7-1.2,1.3-2.2,1.3c-1.6,0-2.8-1.4-2.8-3.4
		c0-2.2,1.3-3.6,2.9-3.6c1,0,1.7,0.5,2,1l0,0v-4h1.2L139,453.8L139,453.8z M137.8,459.6c0-0.2,0-0.4-0.1-0.5
		c-0.2-0.8-0.8-1.4-1.7-1.4c-1.2,0-2,1.1-2,2.6c0,1.4,0.7,2.5,1.9,2.5c0.8,0,1.5-0.5,1.7-1.5c0-0.2,0.1-0.3,0.1-0.5v-1.2H137.8z"/>
	<path class="st0" d="M141.3,460.5c0,1.6,1.1,2.3,2.2,2.3c0.9,0,1.4-0.2,1.8-0.3l0.2,0.9c-0.4,0.2-1.1,0.4-2.2,0.4
		c-2,0-3.2-1.4-3.2-3.4s1.2-3.6,3.1-3.6c2.1,0,2.7,1.9,2.7,3.2c0,0.2,0,0.4,0,0.6h-4.6V460.5z M144.8,459.6c0-0.8-0.3-2-1.7-2
		c-1.2,0-1.7,1.1-1.8,2H144.8z"/>
	<path class="st0" d="M147.1,453.8h1.2v9.8h-1.2V453.8z"/>
	<path class="st0" d="M160.2,459.5c-0.1-1.3-0.1-2.9-0.1-4l0,0c-0.3,1.1-0.7,2.3-1.2,3.5l-1.6,4.5h-0.9l-1.5-4.4
		c-0.4-1.3-0.8-2.5-1.1-3.6l0,0c0,1.2-0.1,2.7-0.2,4.1l-0.2,4h-1.1l0.6-9.3h1.5l1.6,4.5c0.4,1.1,0.7,2.2,0.9,3.1l0,0
		c0.2-0.9,0.6-2,1-3.1l1.6-4.5h1.5l0.6,9.3h-1.2L160.2,459.5z"/>
	<path class="st0" d="M164.5,455c0,0.4-0.3,0.7-0.8,0.7c-0.4,0-0.7-0.3-0.7-0.7c0-0.4,0.3-0.8,0.7-0.8
		C164.3,454.3,164.5,454.6,164.5,455z M163.2,463.6v-6.7h1.2v6.7H163.2z"/>
	<path class="st0" d="M166,458.7c0-0.7,0-1.3-0.1-1.8h1.1l0.1,1.1l0,0c0.3-0.6,1.1-1.3,2.2-1.3c0.9,0,2.3,0.6,2.3,2.9v4h-1.2v-3.9
		c0-1.1-0.4-2-1.5-2c-0.8,0-1.4,0.6-1.6,1.2c-0.1,0.2-0.1,0.4-0.1,0.6v4H166V458.7z"/>
	<path class="st0" d="M173.9,460.5c0,1.6,1.1,2.3,2.2,2.3c0.9,0,1.4-0.2,1.8-0.3l0.2,0.9c-0.4,0.2-1.1,0.4-2.2,0.4
		c-2,0-3.2-1.4-3.2-3.4s1.2-3.6,3.1-3.6c2.1,0,2.7,1.9,2.7,3.2c0,0.2,0,0.4,0,0.6h-4.6V460.5z M177.4,459.6c0-0.8-0.3-2-1.7-2
		c-1.2,0-1.7,1.1-1.8,2H177.4z"/>
	<path class="st0" d="M185.3,453.8v8.1c0,0.6,0,1.3,0.1,1.7h-1.1l-0.1-1.2l0,0c-0.4,0.7-1.2,1.3-2.2,1.3c-1.6,0-2.8-1.4-2.8-3.4
		c0-2.2,1.3-3.6,2.9-3.6c1,0,1.7,0.5,2,1l0,0v-4h1.2L185.3,453.8L185.3,453.8z M184.2,459.6c0-0.2,0-0.4-0.1-0.5
		c-0.2-0.8-0.8-1.4-1.7-1.4c-1.2,0-2,1.1-2,2.6c0,1.4,0.7,2.5,1.9,2.5c0.8,0,1.5-0.5,1.7-1.5c0-0.2,0.1-0.3,0.1-0.5v-1.2H184.2z"/>
	<path class="st0" d="M192.5,461.8c0,0.7,0,1.3,0.1,1.8h-1.1l-0.1-1.1l0,0c-0.3,0.5-1,1.2-2.2,1.2c-1,0-2.3-0.6-2.3-2.9v-3.9h1.2
		v3.7c0,1.3,0.4,2.1,1.5,2.1c0.8,0,1.4-0.6,1.6-1.1c0.1-0.2,0.1-0.4,0.1-0.6v-4.1h1.2V461.8z"/>
	<path class="st0" d="M198.8,463.4c-0.3,0.2-1,0.4-1.9,0.4c-2,0-3.3-1.4-3.3-3.4c0-2.1,1.4-3.6,3.5-3.6c0.7,0,1.3,0.2,1.7,0.3
		l-0.3,0.9c-0.3-0.2-0.7-0.3-1.4-0.3c-1.5,0-2.3,1.1-2.3,2.5c0,1.6,1,2.5,2.3,2.5c0.7,0,1.1-0.2,1.5-0.3L198.8,463.4z"/>
	<path class="st0" d="M203.5,463.6l-0.1-0.8l0,0c-0.4,0.5-1.1,1-2,1c-1.3,0-2-1-2-1.9c0-1.6,1.4-2.5,3.9-2.5v-0.1
		c0-0.6-0.1-1.6-1.5-1.6c-0.6,0-1.2,0.2-1.7,0.5l-0.3-0.8c0.5-0.4,1.3-0.6,2.2-0.6c2,0,2.5,1.4,2.5,2.7v2.5c0,0.6,0,1.1,0.1,1.6
		L203.5,463.6L203.5,463.6z M203.3,460.2c-1.3,0-2.8,0.2-2.8,1.5c0,0.8,0.5,1.2,1.1,1.2c0.9,0,1.4-0.6,1.6-1.1
		c0-0.1,0.1-0.3,0.1-0.4L203.3,460.2L203.3,460.2z"/>
	<path class="st0" d="M210.7,463.4c-0.3,0.2-1,0.4-1.9,0.4c-2,0-3.3-1.4-3.3-3.4c0-2.1,1.4-3.6,3.5-3.6c0.7,0,1.3,0.2,1.7,0.3
		l-0.3,0.9c-0.3-0.2-0.7-0.3-1.4-0.3c-1.5,0-2.3,1.1-2.3,2.5c0,1.6,1,2.5,2.3,2.5c0.7,0,1.1-0.2,1.5-0.3L210.7,463.4z"/>
	<path class="st0" d="M213.1,455c0,0.4-0.3,0.7-0.8,0.7c-0.4,0-0.7-0.3-0.7-0.7c0-0.4,0.3-0.8,0.7-0.8
		C212.8,454.3,213.1,454.6,213.1,455z M211.8,463.6v-6.7h1.2v6.7H211.8z"/>
	<path class="st0" d="M220.5,460.2c0,2.5-1.7,3.6-3.3,3.6c-1.8,0-3.1-1.3-3.1-3.4c0-2.2,1.4-3.6,3.3-3.6
		C219.3,456.8,220.5,458.2,220.5,460.2z M215.3,460.3c0,1.5,0.8,2.6,2,2.6c1.1,0,2-1.1,2-2.6c0-1.1-0.6-2.6-2-2.6
		C215.9,457.7,215.3,459,215.3,460.3z M219.1,454l-1.7,2h-0.9l1.2-2H219.1z"/>
	<path class="st0" d="M221.7,458.7c0-0.7,0-1.3-0.1-1.8h1.1l0.1,1.1l0,0c0.3-0.6,1.1-1.3,2.2-1.3c0.9,0,2.3,0.6,2.3,2.9v4h-1.2v-3.9
		c0-1.1-0.4-2-1.5-2c-0.8,0-1.4,0.6-1.6,1.2c-0.1,0.2-0.1,0.4-0.1,0.6v4h-1.2V458.7z"/>
	<path class="st0" d="M228.6,462.9c0-0.5,0.3-0.9,0.8-0.9s0.8,0.4,0.8,0.9s-0.3,0.9-0.8,0.9C228.9,463.8,228.6,463.4,228.6,462.9z"
		/>
	<path class="st0" d="M57.4,481.4v-0.7l0.9-0.9c2.2-2.2,3.3-3.4,3.3-4.7c0-0.9-0.4-1.8-1.7-1.8c-0.8,0-1.5,0.4-1.9,0.8l-0.4-0.9
		c0.6-0.5,1.5-0.9,2.5-0.9c1.9,0,2.7,1.3,2.7,2.6c0,1.7-1.2,3-3,4.8l-0.7,0.7l0,0h4v1H57.4z"/>
	<path class="st0" d="M64.7,480.6c0.3,0,0.6,0,1,0c0.7-0.1,1.3-0.4,1.8-0.9c0.6-0.5,1-1.3,1.2-2.4l0,0c-0.5,0.6-1.2,1-2.1,1
		c-1.6,0-2.6-1.2-2.6-2.8c0-1.7,1.2-3.2,3-3.2s2.9,1.5,2.9,3.8c0,2-0.7,3.4-1.5,4.2c-0.7,0.7-1.6,1.1-2.6,1.2
		c-0.4,0.1-0.8,0.1-1.1,0.1C64.7,481.6,64.7,480.6,64.7,480.6z M65.1,475.4c0,1.1,0.7,1.9,1.7,1.9c0.8,0,1.4-0.4,1.7-0.9
		c0.1-0.1,0.1-0.2,0.1-0.4c0-1.5-0.6-2.7-1.8-2.7C65.8,473.2,65.1,474.1,65.1,475.4z"/>
	<path class="st0" d="M70,482l3.8-10h0.9l-3.8,10H70z"/>
	<path class="st0" d="M77.5,473.6L77.5,473.6l-1.6,0.8l-0.2-0.9l1.9-1.1h1v9h-1.2L77.5,473.6L77.5,473.6z"/>
	<path class="st0" d="M81.5,481.4v-0.7l0.9-0.9c2.2-2.2,3.3-3.4,3.3-4.7c0-0.9-0.4-1.8-1.7-1.8c-0.8,0-1.5,0.4-1.9,0.8l-0.4-0.9
		c0.6-0.5,1.5-0.9,2.5-0.9c1.9,0,2.7,1.3,2.7,2.6c0,1.7-1.2,3-3,4.8l-0.7,0.7l0,0h4v1H81.5z"/>
	<path class="st0" d="M87.5,482l3.8-10h0.9l-3.8,10H87.5z"/>
	<path class="st0" d="M95,473.6L95,473.6l-1.6,0.8l-0.2-0.9l1.9-1.1h1v9H95V473.6z"/>
	<path class="st0" d="M104.8,472.4v0.8l-3.8,8.2h-1.2l3.8-8l0,0h-4.3v-1H104.8z"/>
	<path class="st0" d="M109.1,474.7l1.3,3.8c0.2,0.6,0.4,1.2,0.5,1.7l0,0c0.1-0.6,0.3-1.1,0.6-1.7l1.3-3.8h1.2l-2.6,6.7h-1.1
		l-2.5-6.7H109.1z"/>
	<path class="st0" d="M116.1,472.8c0,0.4-0.3,0.7-0.8,0.7c-0.4,0-0.7-0.3-0.7-0.7c0-0.4,0.3-0.8,0.7-0.8
		C115.8,472.1,116.1,472.4,116.1,472.8z M114.8,481.4v-6.7h1.2v6.7H114.8z"/>
	<path class="st0" d="M123.3,474.7c0,0.5-0.1,1-0.1,1.8v3.9c0,1.5-0.3,2.5-0.9,3.1s-1.6,0.8-2.4,0.8s-1.7-0.2-2.2-0.6l0.3-0.9
		c0.4,0.3,1.1,0.5,1.9,0.5c1.2,0,2.1-0.7,2.1-2.3v-0.7l0,0c-0.4,0.6-1.1,1.1-2.1,1.1c-1.6,0-2.8-1.4-2.8-3.3c0-2.3,1.4-3.6,3-3.6
		c1.1,0,1.8,0.6,2,1.2l0,0l0.1-1H123.3z M122,477.4c0-0.2,0-0.4-0.1-0.6c-0.2-0.7-0.8-1.3-1.7-1.3c-1.1,0-2,1-2,2.5
		c0,1.3,0.7,2.4,1.9,2.4c0.7,0,1.4-0.5,1.7-1.2c0.1-0.2,0.1-0.4,0.1-0.7L122,477.4L122,477.4z"/>
	<path class="st0" d="M125.5,478.3c0,1.6,1.1,2.3,2.2,2.3c0.9,0,1.4-0.2,1.8-0.3l0.2,0.9c-0.4,0.2-1.1,0.4-2.2,0.4
		c-2,0-3.2-1.4-3.2-3.4s1.2-3.6,3.1-3.6c2.1,0,2.7,1.9,2.7,3.2c0,0.2,0,0.4,0,0.6h-4.6C125.5,478.4,125.5,478.3,125.5,478.3z
		 M129,477.4c0-0.8-0.3-2-1.7-2c-1.2,0-1.7,1.1-1.8,2H129z"/>
	<path class="st0" d="M131.3,476.5c0-0.7,0-1.3-0.1-1.8h1.1l0.1,1.1l0,0c0.3-0.6,1.1-1.3,2.2-1.3c0.9,0,2.3,0.6,2.3,2.9v4h-1.2v-3.9
		c0-1.1-0.4-2-1.5-2c-0.8,0-1.4,0.6-1.6,1.2c-0.1,0.2-0.1,0.4-0.1,0.6v4h-1.2V476.5z"/>
	<path class="st0" d="M143.1,481.2c-0.3,0.2-1,0.4-1.9,0.4c-2,0-3.3-1.4-3.3-3.4c0-2.1,1.4-3.6,3.5-3.6c0.7,0,1.3,0.2,1.7,0.3
		l-0.3,0.9c-0.3-0.2-0.7-0.3-1.4-0.3c-1.5,0-2.3,1.1-2.3,2.5c0,1.6,1,2.5,2.3,2.5c0.7,0,1.1-0.2,1.5-0.3L143.1,481.2z"/>
	<path class="st0" d="M145.5,472.8c0,0.4-0.3,0.7-0.8,0.7c-0.4,0-0.7-0.3-0.7-0.7c0-0.4,0.3-0.8,0.7-0.8
		C145.2,472.1,145.5,472.4,145.5,472.8z M144.2,481.4v-6.7h1.2v6.7H144.2z"/>
	<path class="st0" d="M150.7,481.4l-0.1-0.8l0,0c-0.4,0.5-1.1,1-2,1c-1.3,0-2-1-2-1.9c0-1.6,1.4-2.5,3.9-2.5V477
		c0-0.6-0.1-1.6-1.5-1.6c-0.6,0-1.2,0.2-1.7,0.5l-0.3-0.8c0.5-0.4,1.3-0.6,2.2-0.6c2,0,2.5,1.4,2.5,2.7v2.5c0,0.6,0,1.1,0.1,1.6
		L150.7,481.4L150.7,481.4z M150.5,478c-1.3,0-2.8,0.2-2.8,1.5c0,0.8,0.5,1.2,1.1,1.2c0.9,0,1.4-0.6,1.6-1.1c0-0.1,0.1-0.3,0.1-0.4
		L150.5,478L150.5,478z"/>
	<path class="st0" d="M155.4,481.4v-0.7l0.9-0.9c2.2-2.2,3.3-3.4,3.3-4.7c0-0.9-0.4-1.8-1.7-1.8c-0.8,0-1.5,0.4-1.9,0.8l-0.4-0.9
		c0.6-0.5,1.5-0.9,2.5-0.9c1.9,0,2.7,1.3,2.7,2.6c0,1.7-1.2,3-3,4.8l-0.7,0.7l0,0h4v1H155.4z"/>
	<path class="st0" d="M161.9,479.1c0-1.1,0.7-1.9,1.7-2.4l0,0c-1-0.5-1.4-1.2-1.4-2c0-1.4,1.2-2.4,2.7-2.4c1.7,0,2.6,1.1,2.6,2.2
		c0,0.8-0.4,1.6-1.4,2.1l0,0c1.1,0.4,1.8,1.2,1.8,2.3c0,1.6-1.3,2.6-3,2.6C163,481.6,161.9,480.5,161.9,479.1z M166.6,479.1
		c0-1.1-0.7-1.6-1.9-2c-1,0.3-1.6,1-1.6,1.9s0.6,1.7,1.8,1.7C165.9,480.7,166.6,480,166.6,479.1z M163.3,474.6
		c0,0.9,0.7,1.4,1.7,1.7c0.8-0.3,1.3-0.8,1.3-1.6c0-0.7-0.4-1.5-1.5-1.5C163.9,473.2,163.3,473.8,163.3,474.6z"/>
	<path class="st0" d="M168,482l3.8-10h0.9l-3.8,10H168z"/>
	<path class="st0" d="M175.5,473.6L175.5,473.6l-1.6,0.8l-0.2-0.9l1.9-1.1h1v9h-1.2v-7.8H175.5z"/>
	<path class="st0" d="M179.5,481.4v-0.7l0.9-0.9c2.2-2.2,3.3-3.4,3.3-4.7c0-0.9-0.4-1.8-1.7-1.8c-0.8,0-1.5,0.4-1.9,0.8l-0.4-0.9
		c0.6-0.5,1.5-0.9,2.5-0.9c1.9,0,2.7,1.3,2.7,2.6c0,1.7-1.2,3-3,4.8l-0.7,0.7l0,0h4v1H179.5z"/>
	<path class="st0" d="M185.5,482l3.8-10h0.9l-3.8,10H185.5z"/>
	<path class="st0" d="M190.5,481.4v-0.7l0.9-0.9c2.2-2.2,3.3-3.4,3.3-4.7c0-0.9-0.4-1.8-1.7-1.8c-0.8,0-1.5,0.4-1.9,0.8l-0.4-0.9
		c0.6-0.5,1.5-0.9,2.5-0.9c1.9,0,2.7,1.3,2.7,2.6c0,1.7-1.2,3-3,4.8l-0.7,0.7l0,0h4v1H190.5z"/>
	<path class="st0" d="M199.7,473.6L199.7,473.6l-1.6,0.8l-0.2-0.9l1.9-1.1h1v9h-1.2v-7.8H199.7z"/>
</g>
</svg>
